<?xml version="1.0" encoding="UTF-8"?>
<svg id="Capa_2" data-name="Capa 2" xmlns="http://www.w3.org/2000/svg" viewBox="0 0 71.6 100">
  <defs>
    <style>
      .cls-1 {
        fill: #fff;
      }
    </style>
  </defs>
  <g id="Capa_1-2" data-name="Capa 1">
    <g>
      <path class="cls-1" d="m57.07,11.82c-.17.99-.44,1.51-1.5,1.49-1.4-.03-2.8,0-4.21,0-1.26,0-2.52-.02-3.77,0-1.02.03-1.56-.38-1.51-1.44.02-.43.02-.87,0-1.31-.05-1.02.36-1.48,1.44-1.52.82-.03,2.08.49,2.36-.37.23-.7-.93-1.37-1.59-1.89-1.75-1.37-2.51-3.05-2.24-5.28C46.18.49,46.48,0,47.54,0,50.2.03,52.85.03,55.52,0c1.13-.01,1.58.53,1.52,1.6-.02.39-.03.78,0,1.16.14,1.38-.47,1.95-1.86,1.85-.6-.04-1.51-.31-1.76.25-.32.71.6,1.11,1.06,1.52,1.65,1.46,2.99,2.97,2.57,5.44Z"/>
      <path class="cls-1" d="m41.28,12.24c-.05.81-.56,1.06-1.28,1.06-1.41,0-2.81,0-4.22,0-1.36,0-2.72-.01-4.07,0-.99.02-1.43-.43-1.38-1.41.02-.44.03-.88,0-1.31-.08-1.14.47-1.53,1.56-1.54.78,0,1.97.43,2.25-.34.24-.68-.85-1.31-1.46-1.8-1.74-1.41-2.71-3.05-2.38-5.39.14-.99.41-1.52,1.47-1.51,2.71.02,5.43.01,8.14,0,.99,0,1.41.48,1.38,1.44,0,.29,0,.58,0,.87,0,2.23-.02,2.25-2.28,2.27-.15,0-.29-.02-.43,0-.4.06-1-.19-1.15.31-.13.45.42.71.72,1,.49.48.94,1.01,1.49,1.38,1.86,1.24,1.73,3.09,1.62,4.95Z"/>
      <path class="cls-1" d="m25.53,11.34c-.02,1.83-.14,1.96-2.01,1.96-2.42.01-4.84-.04-7.26.02-1.27.03-1.73-.49-1.69-1.73.06-1.64.01-3.29.01-4.94h0c0-1.74.01-3.49,0-5.23,0-.97.44-1.42,1.41-1.42,2.71,0,5.42.01,8.13,0,.97,0,1.36.43,1.42,1.4.17,3.09.11,3.19-2.98,3.19-.43,0-.87,0-1.31,0-2.03.02-2.09.08-2.1,2.15,0,2.28.02,2.31,2.37,2.32.58,0,1.16,0,1.74,0,2.23,0,2.28.06,2.26,2.28Z"/>
      <path class="cls-1" d="m69.76,19.83c-11.3,0-22.59,0-33.89,0s-22.79.02-34.18-.02c-1.34,0-1.81.36-1.66,1.74.45,4.19.8,8.39,1.18,12.59.81,8.93,1.62,17.85,2.44,26.78.93,10.03,1.9,20.07,2.77,30.11.11,1.33.55,1.97,1.85,2.31,6.47,1.69,13.02,3.17,19.36,5.28,5.58,1.86,10.81,1.84,16.39,0,6.34-2.1,12.89-3.56,19.35-5.3.85-.23,1.67-.41,1.77-1.58.76-8.54,1.55-17.08,2.34-25.62.73-7.91,1.46-15.82,2.19-23.74.63-6.9,1.28-13.8,1.88-20.7.16-1.82.09-1.84-1.79-1.84Zm-11.75,17.06c-.21,1.58-.3,3.19-.32,4.78-.01,1.19-.49,1.83-1.59,2.29-5.87,2.44-11.71,4.93-17.56,7.41-.51.22-1.02.46-1.66.74.68.39,1.22.25,1.73.25,5.19.01,10.38,0,15.57,0,2.48,0,2.53,0,2.33,2.45-.64,7.97-1.34,15.93-1.97,23.9-.09,1.1-.54,1.62-1.58,1.9-5.29,1.43-10.56,2.9-15.84,4.39-.92.26-1.8.25-2.71-.02-5.07-1.49-10.13-3.01-15.22-4.41-1.36-.38-1.88-1.11-1.98-2.44-.25-3.48-.55-6.96-.86-10.43-.08-.97.25-1.47,1.28-1.45,2.13.02,4.27.02,6.4,0,.89,0,1.34.38,1.41,1.27.11,1.45.28,2.89.39,4.34.07.95.52,1.52,1.47,1.69.38.07.75.19,1.13.3q8.01,2.16,15.97-.45c1.09-.35,1.55-.9,1.59-2.06.1-2.66.38-5.32.51-7.98.09-1.79-.08-1.92-1.86-1.92-8.97,0-17.94,0-26.91,0-2.25,0-2.26-.03-2.36-2.25-.08-1.74-.14-3.49-.33-5.22-.13-1.18.34-1.73,1.4-2.16,5.87-2.42,11.72-4.91,17.57-7.37.57-.24,1.13-.49,1.7-.74-.03-.08-.07-.17-.1-.25-6.4,0-12.8,0-19.19,0-2.26,0-2.27.01-2.61-2.16-.26-1.68-.52-3.35-.75-5.03-.24-1.77-.14-1.88,1.7-1.9,1.21-.01,2.42,0,3.64,0,12.36-.01,24.73-.03,37.09-.04,2.45,0,2.88-.24,2.5,2.58Z"/>
    </g>
  </g>
</svg>