<?xml version="1.0" encoding="UTF-8"?>
<svg id="Capa_2" data-name="Capa 2" xmlns="http://www.w3.org/2000/svg" viewBox="0 0 69.62 100">
  <defs>
    <style>
      .cls-1 {
        fill: #fff;
      }
    </style>
  </defs>
  <g id="Capa_1-2" data-name="Capa 1">
    <g>
      <path class="cls-1" d="m34.84,20.94c11.22,0,22.43,0,33.65,0,1.06,0,1.08,0,1.03,1.03-.22,4.56-.45,9.13-.67,13.69-.1,2.09-.19,4.18-.29,6.27-.26,5.4-.54,10.81-.8,16.21-.15,3.13-.28,6.27-.44,9.4-.21,4.22-.44,8.44-.65,12.67-.1,2-.2,4-.27,5.99-.02.51-.24.77-.69.96-6.46,2.71-12.91,5.43-19.36,8.15-3.48,1.47-6.96,2.93-10.41,4.45-.83.37-1.51.3-2.32-.04-4.94-2.09-9.9-4.14-14.86-6.19-4.98-2.07-9.95-4.13-14.94-6.18-.49-.2-.68-.48-.7-1.01-.17-4.41-.37-8.81-.57-13.22-.17-3.72-.36-7.45-.54-11.17-.23-4.84-.46-9.67-.69-14.51-.18-3.86-.37-7.72-.55-11.58-.22-4.61-.45-9.22-.66-13.83-.05-1.09-.02-1.09,1.08-1.09,11.22,0,22.43,0,33.65,0Zm.03,13.14h0c-5.03.01-10.06.01-15.09.01-1.75,0-3.5,0-5.26,0-.46,0-.74.13-.7.66.24,3.01.47,6.03.7,9.04.26,3.38.52,6.75.78,10.13.21,2.7.41,5.39.65,8.09.08.96.12.96,1.12.96,8.92,0,17.84,0,26.76.01,1.12,0,1.18.06,1.07,1.15-.26,2.58-.54,5.15-.78,7.73-.04.47-.27.66-.68.8-2.12.76-4.27,1.46-6.33,2.35-1.5.65-2.85.82-4.42.16-2.09-.88-4.29-1.51-6.45-2.23-.43-.14-.67-.39-.79-.84-.19-.73-.44-1.43-.65-2.16-.1-.34-.28-.48-.64-.48-2.28,0-4.55,0-6.83-.01-.43,0-.54.19-.5.6.28,2.67.55,5.34.8,8.01.06.58.3.94.88,1.15,1.77.65,3.52,1.36,5.28,2.04,3.5,1.36,7,2.72,10.49,4.08.38.15.73.15,1.12-.01,1.84-.79,3.69-1.55,5.54-2.32,2.94-1.23,5.85-2.51,8.81-3.69,2.51-1,2.49-.95,2.66-3.68.15-2.52.39-5.03.59-7.55.21-2.58.43-5.16.64-7.75.16-1.93.3-3.85.49-5.78.1-1.04.08-1.1-.95-1.1-5.96,0-11.92,0-17.88,0-3.62,0-7.24,0-10.85.01-.48,0-.82-.05-.86-.67-.16-2.7-.34-5.4-.57-8.09-.09-1.03-.09-1.08,1.04-1.08,4.21,0,8.42,0,12.62,0,5.8,0,11.6-.01,17.41,0,.65,0,.94-.18.98-.86.19-2.63.39-5.26.65-7.88.06-.64-.07-.83-.73-.83-6.71.02-13.43.01-20.14.01Z"/>
      <path class="cls-1" d="m40.2,4.99c-.2.47-.16.81-.16,1.15,0,2.64,0,5.28,0,7.92,0,.85-.04.89-.88.9-.73,0-1.46-.03-2.18,0-.62.03-.84-.2-.83-.83.02-3.71.01-7.41.01-11.12,0-.75.02-1.5,0-2.25-.02-.51.16-.74.7-.74,1.66.02,3.32,0,4.98-.02.48,0,.55.3.64.64.51,2,1.02,4.01,1.54,6.01.14.55.3,1.09.59,1.66.1-.33.2-.66.28-.99.57-2.22,1.15-4.45,1.7-6.68.12-.48.29-.66.83-.65,1.64.05,3.27.03,4.91,0,.48,0,.64.16.64.63,0,4.5-.01,9.01,0,13.51,0,.58-.21.83-.8.81-.8-.03-1.59-.03-2.39,0-.6.02-.79-.22-.79-.8.02-2.77,0-5.55,0-8.32,0-.25,0-.49-.16-.77-.21.79-.42,1.57-.62,2.36-.55,2.18-1.12,4.36-1.64,6.55-.17.71-.47,1.07-1.25.99-.61-.06-1.23-.04-1.84,0-.57.03-.79-.22-.92-.76-.72-2.91-1.47-5.82-2.22-8.73-.03-.13-.08-.25-.16-.49Z"/>
      <path class="cls-1" d="m14.35,7.54c0,2.21-.01,4.41,0,6.62,0,.59-.19.82-.79.8-1.09-.03-2.18-.03-3.27,0-.57.02-.76-.22-.75-.77.02-1.45-.01-2.91.02-4.37.01-.63-.18-.91-.85-.88-1.04.04-2.09.04-3.14,0-.58-.02-.81.18-.8.78.03,1.48,0,2.96.02,4.43.01.6-.21.81-.8.79-1.07-.03-2.14-.02-3.21,0C.26,14.97,0,14.79,0,14.22.01,9.74,0,5.26,0,.78,0,.23.21,0,.77.02c1.11.03,2.23.03,3.34,0,.51-.02.69.16.68.66-.02,1.23.01,2.46-.01,3.68-.01.55.17.79.74.77,1.11-.03,2.23-.02,3.34,0,.49,0,.7-.19.69-.69-.02-1.2.02-2.41-.01-3.61-.01-.59.12-.86.8-.82,1.06.07,2.14.05,3.2.01.64-.02.82.24.81.84-.02,2.23,0,4.46,0,6.68Z"/>
      <path class="cls-1" d="m25.34.02c2.09,0,4.19,0,6.28,0,.38,0,.62.06.62.5,0,.91,0,1.82.02,2.73,0,.45-.21.57-.64.56-1.09-.02-2.18.02-3.27,0-.6-.01-.76.23-.76.81.03,3.12.01,6.23.01,9.35,0,.95-.04.99-1.01.99-.96,0-1.91-.02-2.87,0-.62.02-.83-.21-.83-.83.02-3.14.01-6.28.01-9.42,0-.9,0-.91-.91-.92-1-.01-2-.03-3,0-.58.02-.77-.22-.75-.76.02-.73.05-1.46.01-2.18-.03-.61.18-.84.82-.84,2.09.03,4.19.01,6.28.01,0,0,0,0,0-.01Z"/>
      <path class="cls-1" d="m57.73,7.37c0-2.18.02-4.37-.01-6.55,0-.62.17-.84.82-.81.97.06,1.96.01,2.93.02.96,0,.96,0,.96.94,0,3.07,0,6.14,0,9.21,0,.92,0,.92.9.92,1.82,0,3.64.02,5.46-.01.6-.01.79.19.77.79-.03.79.04,1.59.07,2.38.02.49-.21.69-.7.69-3.5,0-7.01-.01-10.51,0-.56,0-.69-.27-.69-.76.01-2.27,0-4.55,0-6.82Z"/>
    </g>
  </g>
</svg>