<?xml version="1.0" encoding="UTF-8"?>
<svg id="Capa_2" data-name="Capa 2" xmlns="http://www.w3.org/2000/svg" viewBox="0 0 147.68 157.42">
  <defs>
    <style>
      .cls-1 {
        fill: #fff;
      }
    </style>
  </defs>
  <g id="Capa_1-2" data-name="Capa 1">
    <path class="cls-1" d="m75.92.04c5.2-.41,9.03,2.4,11.49,7.2,3.93,7.66,7.92,15.3,11.44,23.14,2.09,4.67,4.82,6.88,10.2,6.57,7.42-.44,14.9.09,22.34-.07,6.15-.13,11.14,1.82,14.18,7.3,3.2,5.76,2.7,11.75-1.02,16.91-5.02,6.96-10.21,13.92-16.21,20.02-6.55,6.66-9.83,13.31-6.95,22.88,2.03,6.74,2.45,13.99,3.43,21.03,1.02,7.26-1.22,13.46-6.96,18.07-5.82,4.68-12.16,4.32-18.7,1.41-6.8-3.02-13.77-5.68-20.53-8.8-3.45-1.59-6.16-1.2-9.18.99-7.89,5.75-15.95,11.27-23.92,16.9-5.05,3.57-10.47,5.46-16.17,1.96-6.4-3.93-8.12-10.05-6.91-17.25,1.51-8.97,2.75-17.98,4.42-26.92.91-4.86-.11-8.5-4.08-11.71-5.78-4.67-11.36-9.63-16.73-14.77-10.74-10.26-6.63-26.64,7.67-30.99,8.55-2.6,17.06-5.36,25.71-7.58,4.73-1.21,7.16-4.03,8.93-8.29,4.06-9.78,8.21-19.52,12.72-29.1C63.91,2.96,69.22.04,75.92.04Z"/>
  </g>
</svg>