<?xml version="1.0" encoding="UTF-8"?>
<svg id="Capa_2" data-name="Capa 2" xmlns="http://www.w3.org/2000/svg" viewBox="0 0 152.12 160">
  <defs>
    <style>
      .cls-1 {
        fill: #fff;
      }
    </style>
  </defs>
  <g id="Capa_1-2" data-name="Capa 1">
    <path class="cls-1" d="m93.93,160h-3.66c-.28-.11-.56-.2-.85-.26-.33-.08-.67-.11-.99-.21-.74-.23-1.47-.46-2.16-.82-.27-.14-.5-.33-.76-.46-.75-.37-1.4-.87-2.04-1.4-.7-.58-1.43-1.12-2.11-1.72-.78-.67-1.59-1.31-2.38-1.96-.72-.59-1.43-1.2-2.17-1.78-.47-.37-.92-.76-1.39-1.13-.76-.61-1.51-1.24-2.26-1.85-.57-.46-1.13-.92-1.69-1.39-.78-.65-1.56-1.3-2.35-1.94-.72-.59-1.44-1.2-2.18-1.77-.94-.73-1.83-1.53-2.76-2.27-.8-.63-1.58-1.27-2.45-1.81-.93-.57-1.91-1.03-2.95-1.35-.94-.29-1.9-.53-2.9-.52-.12,0-.24-.02-.36-.06-.2-.06-.4-.07-.6-.08-.63-.02-1.23.17-1.85.2-.27.01-.56.07-.84.14-.41.1-.83.11-1.23.25-.78.27-1.57.53-2.35.8-1.01.35-2.02.71-3.02,1.08-1.3.47-2.59.97-3.89,1.42-1.29.45-2.57.94-3.85,1.41-1.14.42-2.3.81-3.43,1.25-1.4.55-2.83,1.02-4.24,1.53-.94.34-1.88.69-2.82,1.03-1.09.4-2.19.79-3.28,1.19-.9.33-1.8.66-2.73.94-.51.15-1.01.3-1.54.38-.6.1-1.19.26-1.81.25-1.1-.02-2.19.08-3.29-.13-.44-.08-.89-.13-1.31-.26-1.35-.4-2.65-.92-3.83-1.74-1.01-.71-1.92-1.51-2.72-2.43-.96-1.11-1.7-2.38-2.23-3.75-.59-1.5-.95-3.04-.92-4.67.01-.76,0-1.52,0-2.28,0-.16,0-.33.03-.49.16-.78.26-1.57.47-2.34.2-.76.46-1.5.75-2.23.18-.46.39-.92.59-1.38.79-1.81,1.54-3.64,2.32-5.46.67-1.58,1.36-3.16,2.03-4.74.18-.41.32-.84.52-1.24.3-.61.51-1.25.81-1.86.17-.35.32-.72.47-1.08.45-1.07.89-2.15,1.35-3.22.37-.86.78-1.7,1.13-2.57.47-1.18.98-2.35,1.48-3.52.68-1.55,1.37-3.1,1.87-4.72.3-.95.59-1.91.6-2.93,0-.09,0-.2.04-.28.12-.31.11-.64.11-.96,0-.54,0-1.09,0-1.63,0-.14,0-.28-.03-.4-.18-.5-.15-1.04-.26-1.56-.15-.73-.35-1.45-.6-2.15-.33-.91-.76-1.8-1.28-2.63-.58-.95-1.2-1.88-1.76-2.83-.74-1.25-1.52-2.47-2.28-3.7-.65-1.05-1.34-2.07-1.95-3.14-.18-.32-.38-.63-.57-.94-.75-1.19-1.51-2.38-2.25-3.58-.44-.71-.88-1.43-1.32-2.15-.52-.84-1.06-1.67-1.58-2.51-.79-1.3-1.61-2.57-2.39-3.87-.51-.86-.92-1.75-1.26-2.68-.22-.61-.41-1.23-.5-1.88-.11-.82-.3-1.62-.28-2.45.01-.56,0-1.11,0-1.67,0-.15,0-.3.03-.45.18-.79.24-1.6.44-2.39.26-1,.6-1.97,1-2.92.21-.51.47-1,.73-1.49.6-1.13,1.3-2.21,2.13-3.17,1.43-1.65,3.05-3.12,4.99-4.18.93-.51,1.88-.95,2.88-1.3.7-.25,1.43-.42,2.16-.54.79-.13,1.57-.29,2.37-.28,1.83,0,3.66,0,5.49,0,.22,0,.44.03.65-.05.24-.09.48-.1.72-.1,4.1,0,8.19-.02,12.29-.03.15,0,.31.01.44-.03.33-.11.67-.11,1.01-.11,1.46,0,2.93,0,4.39-.02,1.46-.03,2.92.11,4.38-.14.46-.08.93-.09,1.4-.2,1.06-.23,2.09-.57,3.09-.98,1.1-.45,2.11-1.04,3.1-1.69.58-.38,1.13-.79,1.65-1.24.59-.52,1.12-1.1,1.68-1.66.14-.14.29-.29.41-.45.46-.59.9-1.19,1.36-1.78.75-.97,1.52-1.94,2.27-2.92.78-1.03,1.58-2.03,2.35-3.06.85-1.14,1.75-2.24,2.62-3.37,1.06-1.37,2.11-2.75,3.17-4.12.18-.24.35-.48.53-.72.48-.61.97-1.21,1.44-1.82.64-.84,1.27-1.69,1.92-2.52.66-.86,1.33-1.71,2-2.57.94-1.22,1.85-2.47,2.96-3.56.76-.74,1.52-1.47,2.39-2.07,1.05-.72,2.14-1.38,3.33-1.85.69-.28,1.39-.55,2.11-.74.77-.21,1.56-.36,2.36-.39.12,0,.24-.02.36-.06.22-.07.45-.09.68-.09.73,0,1.45.03,2.18.13.77.1,1.53.21,2.28.41,1.27.33,2.43.91,3.54,1.6.84.52,1.52,1.22,2.22,1.9.87.85,1.56,1.83,2.11,2.91.25.5.49,1,.68,1.52.21.57.44,1.14.53,1.75.07.43.14.85.22,1.28.09.44.19.87.29,1.31.18.8.29,1.62.47,2.42.27,1.13.48,2.28.69,3.42.13.72.3,1.43.4,2.15.05.33.11.67.17,1,.09.46.2.92.3,1.39.18.79.28,1.59.47,2.38.27,1.13.48,2.28.69,3.42.18,1,.42,1.98.56,2.99.05.32.08.65.17.96.3,1.07.43,2.17.66,3.26.23,1.07.45,2.15.74,3.21.34,1.25.86,2.43,1.58,3.51.4.6.79,1.2,1.3,1.71.67.65,1.34,1.3,2.11,1.84.68.48,1.41.86,2.16,1.21.81.38,1.68.6,2.53.87,1.12.36,2.25.68,3.38,1.04,1.13.36,2.28.69,3.42,1.03,1.5.45,2.99.96,4.5,1.38.72.2,1.41.47,2.12.68,1.05.31,2.11.59,3.14.98.56.21,1.15.32,1.71.5.45.15.89.36,1.35.45,1.05.22,2.06.59,3.07.91.94.29,1.91.51,2.81.95.47.23.98.39,1.44.65.78.44,1.5.96,2.2,1.52.76.61,1.4,1.32,1.97,2.1.63.87,1.18,1.78,1.57,2.79.35.91.69,1.82.82,2.8.05.37.15.74.16,1.12,0,.11.06.21.14.29v3.17c-.08.11-.13.23-.15.37-.05.67-.18,1.34-.31,2-.19.99-.54,1.93-.93,2.85-.51,1.2-1.14,2.34-1.9,3.4-.56.78-1.16,1.54-1.82,2.23-1.13,1.17-2.42,2.17-3.76,3.09-1.03.7-2.04,1.43-3.06,2.15-.9.63-1.79,1.27-2.69,1.9-1.35.95-2.71,1.9-4.05,2.86-.72.51-1.44,1.02-2.16,1.52-.61.43-1.22.85-1.83,1.28-1.13.8-2.26,1.6-3.38,2.4-1.13.8-2.24,1.61-3.39,2.38-.58.39-1.14.83-1.72,1.23-.97.65-1.91,1.34-2.79,2.1-1.06.93-2.01,1.97-2.82,3.13-.43.62-.86,1.25-1.21,1.92-.7,1.31-1.22,2.68-1.6,4.12-.2.73-.37,1.48-.44,2.23-.12,1.28-.34,2.55-.36,3.84,0,.08-.01.16-.04.24-.09.29-.11.59-.1.89.01.87-.23,1.72-.19,2.59,0,.07-.01.14-.04.2-.1.25-.1.5-.11.76,0,.34.04.68-.06,1.01-.08.28-.11.56-.1.84.02.91-.24,1.8-.19,2.71,0,.05,0,.11-.03.16-.13.35-.12.72-.12,1.09,0,.2.01.41-.03.61-.21.85-.11,1.73-.26,2.58-.1.58-.09,1.18-.17,1.77-.16,1.24-.26,2.48-.34,3.72-.06,1.01-.21,2.02-.28,3.03-.04.62-.07,1.24-.15,1.86-.07.54-.15,1.07-.15,1.62,0,.08-.01.16-.04.24-.16.48-.16.98-.25,1.48-.08.43-.15.85-.26,1.27-.34,1.3-.84,2.54-1.46,3.74-.57,1.1-1.27,2.11-2.05,3.08-.74.92-1.62,1.71-2.48,2.51-.24.23-.5.46-.78.64-.38.24-.75.49-1.12.74-.5.35-1.05.62-1.59.9-.48.25-.98.46-1.47.69-.76.35-1.55.56-2.36.71-.55.11-1.09.21-1.6.42Z"/>
  </g>
</svg>