<?xml version="1.0" encoding="UTF-8"?>
<svg id="Capa_2" data-name="Capa 2" xmlns="http://www.w3.org/2000/svg" viewBox="0 0 133 133">
  <defs>
    <style>
      .cls-1 {
        fill: #fff;
      }

      .cls-2 {
        fill: #001a6a;
      }

      .cls-3 {
        fill: #2443b8;
      }
    </style>
  </defs>
  <g id="Capa_1-2" data-name="Capa 1">
    <path class="cls-2" d="m133,66.5c0,36.73-29.77,66.5-66.5,66.5-16.54,0-31.68-6.04-43.31-16.04C8.99,104.77,0,86.69,0,66.5,0,29.77,29.77,0,66.5,0c31.42,0,57.76,21.79,64.7,51.09,1.18,4.94,1.8,10.1,1.8,15.41Z"/>
    <path class="cls-3" d="m133,66.5c0,36.73-29.77,66.5-66.5,66.5-16.54,0-31.68-6.04-43.31-16.04-.75-2.99-1.13-6.06-1.13-9.19,0-32.03,40.29-58,90-58,6.57,0,12.97.45,19.14,1.32,1.18,4.94,1.8,10.1,1.8,15.41Z"/>
    <g>
      <path class="cls-1" d="m56.99,83.53c-1.9,0-3.4-.47-4.49-1.4-1.09-.94-1.96-2.22-2.6-3.86-.64-1.64-1.24-3.5-1.8-5.59l-4.54-16.85c-.34-1.31-.27-2.53.23-3.67.5-1.14,1.48-1.9,2.95-2.27,1.37-.37,2.59-.28,3.65.28,1.06.56,1.78,1.54,2.15,2.95l4.21,15.4c.37,1.34.77,2.32,1.19,2.95.42.62,1.1.83,2.04.61.87-.22,1.34-.7,1.4-1.45.06-.75-.09-1.81-.47-3.18l-2.99-11.37c-.41-1.56-.35-2.91.16-4.05s1.54-1.88,3.06-2.22c1.56-.37,2.81-.18,3.77.58.95.76,1.6,1.83,1.94,3.21l3.79,14.93c.41,1.53.85,2.56,1.33,3.09.48.53,1.12.69,1.9.47.87-.25,1.29-.74,1.26-1.47-.03-.73-.14-1.8-.33-3.21-.28-2.18-.52-3.98-.73-5.38-.2-1.4-.36-2.57-.47-3.51-.11-.94-.16-1.79-.16-2.57,0-1.75.51-3.24,1.54-4.47,1.03-1.23,2.43-1.85,4.21-1.85s3.18.55,4.12,1.66c.94,1.11,1.4,2.63,1.4,4.56,0,1.25-.18,2.56-.54,3.93-.36,1.37-.71,2.67-1.05,3.88l-2.62,9.03c-.59,2.06-1.18,3.91-1.75,5.55-.58,1.64-1.35,2.93-2.32,3.88-.97.95-2.34,1.43-4.12,1.43-2.15,0-3.84-.67-5.05-2.01-1.22-1.34-2.15-3.54-2.81-6.6h-.33c-.62,3.06-1.45,5.26-2.48,6.6-1.03,1.34-2.59,2.01-4.68,2.01Z"/>
      <path class="cls-1" d="m100.45,49.47c3.71,0,6.75.69,9.1,2.08,2.36,1.39,4.1,3.35,5.24,5.9,1.14,2.54,1.71,5.56,1.71,9.05,0,5.87-1.26,10.17-3.79,12.92-2.53,2.75-6.4,4.12-11.6,4.12h-2.06c-1.53,0-2.95-.16-4.26-.47-1.31-.31-2.46-.88-3.46-1.71-1-.83-1.78-1.99-2.34-3.49-.56-1.5-.84-3.43-.84-5.8,0-2.21.3-4.13.91-5.76.61-1.62,1.33-2.92,2.18-3.88.84-.97,1.61-1.56,2.29-1.78l-.23-.89h-.8c-1.44,0-2.57-.46-3.39-1.38-.83-.92-1.26-2.16-1.29-3.72-.03-1.56.38-2.81,1.24-3.77.86-.95,2-1.43,3.44-1.43h7.95Zm-3.37,21.99c0,.65.15,1.11.44,1.36.3.25.74.37,1.33.37h2.53c1.59,0,2.82-.34,3.7-1.03.87-.69,1.49-1.57,1.85-2.64.36-1.08.54-2.22.54-3.44s-.18-2.39-.54-3.51c-.36-1.12-.98-2.04-1.85-2.76-.87-.72-2.11-1.08-3.7-1.08h-2.53c-.59,0-1.04.13-1.33.4-.3.27-.44.74-.44,1.43v10.9Z"/>
      <path class="cls-1" d="m16.5,82.73v-33.27h11.65c4.04,0,7.1.77,9.19,2.32,2.09,1.55,3.13,3.81,3.13,6.8,0,1.63-.42,3.07-1.26,4.31-.84,1.24-2,2.15-3.5,2.73,1.71.43,3.05,1.29,4.03,2.58s1.47,2.88,1.47,4.75c0,3.2-1.02,5.62-3.06,7.27-2.04,1.65-4.95,2.48-8.73,2.51h-12.93Zm6.85-19.33h5.07c3.46-.06,5.19-1.44,5.19-4.14,0-1.51-.44-2.59-1.31-3.26-.88-.66-2.26-.99-4.15-.99h-4.8v8.39Zm0,4.84v8.98h5.87c1.61,0,2.88-.38,3.78-1.15.91-.77,1.36-1.83,1.36-3.19,0-3.05-1.58-4.59-4.73-4.64h-6.28Z"/>
    </g>
  </g>
</svg>