<?xml version="1.0" encoding="UTF-8"?>
<svg id="Capa_2" data-name="Capa 2" xmlns="http://www.w3.org/2000/svg" viewBox="0 0 133.4 45.44">
  <defs>
    <style>
      .cls-1 {
        fill: #fff;
      }
    </style>
  </defs>
  <g id="Capa_1-2" data-name="Capa 1">
    <g>
      <path class="cls-1" d="m54.02,45.44c-2.54,0-4.54-.62-5.99-1.87-1.46-1.25-2.61-2.97-3.46-5.15-.85-2.18-1.65-4.67-2.4-7.46l-6.05-22.47c-.46-1.75-.35-3.38.31-4.9.67-1.52,1.98-2.53,3.93-3.03,1.83-.5,3.45-.37,4.87.37,1.41.75,2.37,2.06,2.87,3.93l5.62,20.54c.5,1.79,1.03,3.1,1.59,3.93.56.83,1.47,1.1,2.72.81,1.16-.29,1.79-.94,1.87-1.93.08-1-.12-2.41-.62-4.25l-4-15.17c-.54-2.08-.47-3.88.22-5.4s2.05-2.51,4.09-2.97c2.08-.5,3.76-.24,5.03.78,1.27,1.02,2.13,2.45,2.59,4.28l5.06,19.91c.54,2.04,1.13,3.41,1.78,4.12.64.71,1.49.92,2.53.62,1.16-.33,1.73-.99,1.69-1.97-.04-.98-.19-2.4-.44-4.28-.37-2.91-.7-5.31-.97-7.18-.27-1.87-.48-3.43-.62-4.68-.15-1.25-.22-2.39-.22-3.43,0-2.33.69-4.32,2.06-5.96,1.37-1.64,3.25-2.47,5.62-2.47s4.24.74,5.49,2.22c1.25,1.48,1.87,3.51,1.87,6.09,0,1.66-.24,3.41-.72,5.24-.48,1.83-.95,3.56-1.4,5.18l-3.5,12.05c-.79,2.75-1.57,5.21-2.34,7.4-.77,2.18-1.8,3.91-3.09,5.18-1.29,1.27-3.12,1.9-5.49,1.9-2.87,0-5.12-.89-6.74-2.68-1.62-1.79-2.87-4.72-3.75-8.8h-.44c-.83,4.08-1.94,7.01-3.31,8.8-1.37,1.79-3.45,2.68-6.24,2.68Z"/>
      <path class="cls-1" d="m111.99,0c4.95,0,9,.93,12.14,2.78,3.14,1.85,5.47,4.47,6.99,7.87,1.52,3.39,2.28,7.42,2.28,12.08,0,7.82-1.69,13.57-5.06,17.23-3.37,3.66-8.53,5.49-15.48,5.49h-2.75c-2.04,0-3.93-.21-5.68-.62-1.75-.42-3.29-1.18-4.62-2.28-1.33-1.1-2.37-2.65-3.12-4.65-.75-2-1.12-4.58-1.12-7.74,0-2.95.41-5.51,1.22-7.68.81-2.16,1.78-3.89,2.9-5.18,1.12-1.29,2.14-2.08,3.06-2.37l-.31-1.19h-1.06c-1.91,0-3.42-.61-4.53-1.84-1.1-1.23-1.68-2.88-1.72-4.96-.04-2.08.51-3.76,1.65-5.02C97.93.64,99.46,0,101.38,0h10.61Zm-4.49,29.34c0,.87.2,1.48.59,1.81.4.33.99.5,1.78.5h3.37c2.12,0,3.77-.46,4.93-1.37,1.16-.92,1.99-2.09,2.47-3.53.48-1.44.72-2.97.72-4.59s-.24-3.18-.72-4.68c-.48-1.5-1.3-2.73-2.47-3.68-1.17-.96-2.81-1.44-4.93-1.44h-3.37c-.79,0-1.38.18-1.78.53-.4.35-.59.99-.59,1.9v14.55Z"/>
      <path class="cls-1" d="m0,44.38V0h15.54c5.38,0,9.47,1.03,12.25,3.09,2.78,2.06,4.18,5.09,4.18,9.07,0,2.17-.56,4.09-1.68,5.75-1.12,1.66-2.67,2.87-4.66,3.64,2.28.57,4.07,1.72,5.38,3.44s1.97,3.84,1.97,6.34c0,4.27-1.36,7.5-4.08,9.69-2.72,2.19-6.6,3.31-11.64,3.35H0Zm9.14-25.79h6.77c4.61-.08,6.92-1.92,6.92-5.52,0-2.01-.58-3.46-1.75-4.34-1.17-.88-3.01-1.33-5.53-1.33h-6.4v11.19Zm0,6.46v11.98h7.83c2.15,0,3.84-.51,5.04-1.54,1.21-1.03,1.81-2.44,1.81-4.25,0-4.06-2.1-6.13-6.31-6.19h-8.38Z"/>
    </g>
  </g>
</svg>