<?xml version="1.0" encoding="UTF-8"?>
<svg id="Capa_2" data-name="Capa 2" xmlns="http://www.w3.org/2000/svg" viewBox="0 0 756.85 162.44">
  <defs>
    <style>
      .cls-1 {
        fill: #fff;
      }
    </style>
  </defs>
  <g id="Capa_1-2" data-name="Capa 1">
    <g>
      <g>
        <path class="cls-1" d="m2.1,71.09V0h24.9c8.63,0,15.17,1.65,19.63,4.96,4.46,3.3,6.69,8.15,6.69,14.53,0,3.48-.9,6.55-2.69,9.2-1.79,2.65-4.28,4.6-7.47,5.83,3.65.91,6.52,2.75,8.62,5.52s3.15,6.15,3.15,10.16c0,6.84-2.18,12.01-6.54,15.53-4.36,3.52-10.58,5.31-18.65,5.37H2.1Zm14.65-41.31h10.84c7.39-.13,11.08-3.08,11.08-8.84,0-3.22-.94-5.54-2.81-6.96-1.87-1.42-4.83-2.12-8.86-2.12h-10.25v17.92Zm0,10.35v19.19h12.55c3.45,0,6.14-.82,8.08-2.47,1.94-1.64,2.91-3.91,2.91-6.81,0-6.51-3.37-9.81-10.11-9.91h-13.43Z"/>
        <path class="cls-1" d="m106.05,56.45h-25.68l-4.88,14.65h-15.58L86.37,0h13.57l26.61,71.09h-15.58l-4.93-14.65Zm-21.73-11.87h17.77l-8.94-26.61-8.84,26.61Z"/>
        <path class="cls-1" d="m159.52,45.07h-11.67v26.03h-14.65V0h26.42c8.4,0,14.88,1.87,19.43,5.62,4.56,3.74,6.84,9.03,6.84,15.87,0,4.85-1.05,8.89-3.15,12.13s-5.28,5.82-9.55,7.74l15.38,29.05v.68h-15.72l-13.33-26.03Zm-11.67-11.87h11.82c3.68,0,6.53-.94,8.54-2.81,2.02-1.87,3.03-4.45,3.03-7.74s-.95-5.99-2.86-7.91-4.83-2.88-8.76-2.88h-11.77v21.34Z"/>
        <path class="cls-1" d="m197.02,71.09V0h24.9c8.63,0,15.17,1.65,19.63,4.96,4.46,3.3,6.69,8.15,6.69,14.53,0,3.48-.9,6.55-2.69,9.2-1.79,2.65-4.28,4.6-7.47,5.83,3.65.91,6.52,2.75,8.62,5.52s3.15,6.15,3.15,10.16c0,6.84-2.18,12.01-6.54,15.53-4.36,3.52-10.58,5.31-18.65,5.37h-27.64Zm14.65-41.31h10.84c7.39-.13,11.08-3.08,11.08-8.84,0-3.22-.94-5.54-2.81-6.96-1.87-1.42-4.83-2.12-8.86-2.12h-10.25v17.92Zm0,10.35v19.19h12.55c3.45,0,6.14-.82,8.08-2.47,1.94-1.64,2.91-3.91,2.91-6.81,0-6.51-3.37-9.81-10.11-9.91h-13.43Z"/>
        <path class="cls-1" d="m276.41,71.09h-14.65V0h14.65v71.09Z"/>
        <path class="cls-1" d="m347.8,71.09h-14.65l-28.52-46.78v46.78h-14.65V0h14.65l28.56,46.88V0h14.6v71.09Z"/>
        <path class="cls-1" d="m376.17,71.09h-14.65V0h14.65v71.09Z"/>
        <path class="cls-1" d="m387.98,71.09c-.37,0-.68-.12-.92-.36s-.36-.55-.36-.92v-23.2c0-.37.12-.68.36-.92s.55-.36.92-.36h6.6c1.63,0,3.07.36,4.32,1.07,1.25.72,2.23,1.7,2.94,2.95s1.06,2.71,1.06,4.36-.35,3.03-1.06,4.27c-.7,1.24-1.68,2.22-2.94,2.94-1.25.71-2.69,1.07-4.32,1.07h-5.31v7.82c0,.37-.12.68-.36.92-.24.24-.55.36-.92.36Zm1.29-11.58h5.31c1.12,0,2.12-.25,3-.74.88-.49,1.57-1.18,2.06-2.06.5-.88.74-1.88.74-3s-.25-2.19-.74-3.07-1.18-1.57-2.06-2.08-1.88-.76-3-.76h-5.31v11.71Z"/>
        <path class="cls-1" d="m418.8,71.42c-1.91,0-3.67-.33-5.28-.99-1.61-.66-3-1.58-4.17-2.77-1.18-1.19-2.09-2.58-2.74-4.19-.65-1.61-.97-3.37-.97-5.28s.32-3.64.97-5.25c.65-1.61,1.56-3,2.74-4.19,1.18-1.19,2.57-2.11,4.17-2.77,1.61-.66,3.37-.99,5.28-.99s3.64.33,5.25.99c1.61.66,3,1.58,4.19,2.77,1.19,1.19,2.11,2.58,2.76,4.19.65,1.61.97,3.36.97,5.25s-.33,3.67-.97,5.28c-.65,1.61-1.57,3-2.76,4.19-1.19,1.19-2.58,2.11-4.19,2.77-1.61.66-3.36.99-5.25.99Zm0-2.44c1.52,0,2.93-.27,4.22-.81s2.43-1.3,3.38-2.28c.96-.98,1.7-2.12,2.23-3.43.53-1.31.79-2.73.79-4.27s-.26-2.93-.79-4.24-1.27-2.45-2.23-3.43c-.96-.98-2.08-1.74-3.38-2.28s-2.71-.81-4.22-.81-2.96.27-4.26.81c-1.3.54-2.43,1.3-3.38,2.28-.96.98-1.7,2.12-2.23,3.43s-.79,2.72-.79,4.24.26,2.96.79,4.27c.53,1.31,1.27,2.45,2.23,3.43.96.98,2.08,1.74,3.38,2.28,1.3.54,2.72.81,4.26.81Z"/>
        <path class="cls-1" d="m438.57,71.09c-.37,0-.68-.12-.92-.36-.24-.24-.36-.55-.36-.92v-23.2c0-.37.12-.68.36-.92.24-.24.55-.36.92-.36h6.17c1.61,0,3.04.34,4.29,1.01s2.24,1.61,2.95,2.8c.71,1.2,1.07,2.58,1.07,4.14s-.36,2.83-1.07,3.99-1.7,2.08-2.95,2.74c-1.25.66-2.68.99-4.29.99h-4.88v8.81c0,.37-.12.68-.36.92s-.55.36-.92.36Zm1.29-12.57h4.88c1.12,0,2.12-.23,2.99-.68.87-.45,1.56-1.07,2.06-1.86s.76-1.69.76-2.71c0-1.08-.25-2.03-.76-2.85s-1.19-1.47-2.06-1.93-1.86-.69-2.99-.69h-4.88v10.72Zm12.51,12.57c-.29,0-.51-.05-.68-.17s-.31-.28-.45-.5l-6.34-10.1,2.57-.66,5.91,9.44c.33.53.39.99.18,1.39-.21.4-.61.59-1.2.59Z"/>
        <path class="cls-1" d="m456.06,47.66c-.35,0-.64-.11-.86-.33s-.33-.5-.33-.83c0-.35.11-.64.33-.86.22-.22.51-.33.86-.33h18.25c.35,0,.64.11.86.33.22.22.33.51.33.86,0,.33-.11.61-.33.83s-.51.33-.86.33h-18.25Zm9.11,23.43c-.35,0-.65-.13-.91-.38s-.38-.56-.38-.91v-24.49h2.57v24.49c0,.35-.12.65-.36.91s-.55.38-.92.38Z"/>
        <path class="cls-1" d="m478.53,71.09c-.35,0-.66-.13-.91-.38s-.38-.56-.38-.91v-23.2c0-.37.12-.68.36-.92.24-.24.55-.36.92-.36h15.48c.37,0,.68.12.92.35s.36.53.36.91c0,.33-.12.62-.36.86s-.55.36-.92.36h-14.19v9.11h10.33c.37,0,.68.12.92.36.24.24.36.54.36.89s-.12.65-.36.89c-.24.24-.55.36-.92.36h-10.33v10.4c0,.35-.12.65-.36.91s-.55.38-.92.38Z"/>
        <path class="cls-1" d="m511.83,71.42c-1.91,0-3.67-.33-5.28-.99-1.61-.66-3-1.58-4.17-2.77-1.18-1.19-2.09-2.58-2.74-4.19-.65-1.61-.97-3.37-.97-5.28s.32-3.64.97-5.25c.65-1.61,1.56-3,2.74-4.19,1.18-1.19,2.57-2.11,4.17-2.77,1.61-.66,3.37-.99,5.28-.99s3.64.33,5.25.99c1.61.66,3,1.58,4.19,2.77,1.19,1.19,2.11,2.58,2.76,4.19.65,1.61.97,3.36.97,5.25s-.33,3.67-.97,5.28c-.65,1.61-1.57,3-2.76,4.19-1.19,1.19-2.58,2.11-4.19,2.77-1.61.66-3.36.99-5.25.99Zm0-2.44c1.52,0,2.93-.27,4.22-.81s2.43-1.3,3.38-2.28c.96-.98,1.7-2.12,2.23-3.43.53-1.31.79-2.73.79-4.27s-.26-2.93-.79-4.24-1.27-2.45-2.23-3.43c-.96-.98-2.08-1.74-3.38-2.28s-2.71-.81-4.22-.81-2.96.27-4.26.81c-1.3.54-2.43,1.3-3.38,2.28-.96.98-1.7,2.12-2.23,3.43s-.79,2.72-.79,4.24.26,2.96.79,4.27c.53,1.31,1.27,2.45,2.23,3.43.96.98,2.08,1.74,3.38,2.28,1.3.54,2.72.81,4.26.81Z"/>
        <path class="cls-1" d="m531.6,71.09c-.35,0-.66-.12-.91-.36-.25-.24-.38-.55-.38-.92v-23.2c0-.35.13-.65.38-.91.25-.25.55-.38.91-.38s.65.13.91.38.38.56.38.91v22.04h12.9c.35,0,.65.12.91.35.25.23.38.52.38.87s-.13.64-.38.88c-.25.23-.56.35-.91.35h-14.19Z"/>
        <path class="cls-1" d="m552.49,71.09c-.37,0-.68-.12-.92-.36-.24-.24-.36-.55-.36-.92v-23.2c0-.37.12-.68.36-.92.24-.24.55-.36.92-.36s.68.12.92.36.36.55.36.92v23.2c0,.37-.12.68-.36.92s-.55.36-.92.36Z"/>
        <path class="cls-1" d="m572.29,71.42c-1.91,0-3.67-.33-5.28-.99-1.61-.66-3-1.58-4.17-2.77-1.18-1.19-2.09-2.58-2.74-4.19-.65-1.61-.97-3.37-.97-5.28s.32-3.64.97-5.25c.65-1.61,1.56-3,2.74-4.19,1.18-1.19,2.57-2.11,4.17-2.77,1.61-.66,3.37-.99,5.28-.99s3.64.33,5.25.99c1.61.66,3,1.58,4.19,2.77,1.19,1.19,2.11,2.58,2.76,4.19.65,1.61.97,3.36.97,5.25s-.33,3.67-.97,5.28c-.65,1.61-1.57,3-2.76,4.19-1.19,1.19-2.58,2.11-4.19,2.77-1.61.66-3.36.99-5.25.99Zm0-2.44c1.52,0,2.93-.27,4.22-.81s2.43-1.3,3.38-2.28c.96-.98,1.7-2.12,2.23-3.43.53-1.31.79-2.73.79-4.27s-.26-2.93-.79-4.24-1.27-2.45-2.23-3.43c-.96-.98-2.08-1.74-3.38-2.28s-2.71-.81-4.22-.81-2.96.27-4.26.81c-1.3.54-2.43,1.3-3.38,2.28-.96.98-1.7,2.12-2.23,3.43s-.79,2.72-.79,4.24.26,2.96.79,4.27c.53,1.31,1.27,2.45,2.23,3.43.96.98,2.08,1.74,3.38,2.28,1.3.54,2.72.81,4.26.81Z"/>
      </g>
      <path class="cls-1" d="m698.66,162.44h-3.66c-.28-.11-.56-.2-.85-.26-.33-.08-.67-.11-.99-.21-.74-.23-1.47-.46-2.16-.82-.27-.14-.5-.33-.76-.46-.75-.37-1.4-.87-2.04-1.4-.7-.58-1.43-1.12-2.11-1.72-.78-.67-1.59-1.31-2.38-1.96-.72-.59-1.43-1.2-2.17-1.78-.47-.37-.92-.76-1.39-1.13-.76-.61-1.51-1.24-2.26-1.85-.57-.46-1.13-.92-1.69-1.39-.78-.65-1.56-1.3-2.35-1.94-.72-.59-1.44-1.2-2.18-1.77-.94-.73-1.83-1.53-2.76-2.27-.8-.63-1.58-1.27-2.45-1.81-.93-.57-1.91-1.03-2.95-1.35-.94-.29-1.9-.53-2.9-.52-.12,0-.24-.02-.36-.06-.2-.06-.4-.07-.6-.08-.63-.02-1.23.17-1.85.2-.27.01-.56.07-.84.14-.41.1-.83.11-1.23.25-.78.27-1.57.53-2.35.8-1.01.35-2.02.71-3.02,1.08-1.3.47-2.59.97-3.89,1.42-1.29.45-2.57.94-3.85,1.41-1.14.42-2.3.81-3.43,1.25-1.4.55-2.83,1.02-4.24,1.53-.94.34-1.88.69-2.82,1.03-1.09.4-2.19.79-3.28,1.19-.9.33-1.8.66-2.73.94-.51.15-1.01.3-1.54.38-.6.1-1.19.26-1.81.25-1.1-.02-2.19.08-3.29-.13-.44-.08-.89-.13-1.31-.26-1.35-.4-2.65-.92-3.83-1.74-1.01-.71-1.92-1.51-2.72-2.43-.96-1.11-1.7-2.38-2.23-3.75-.59-1.5-.95-3.04-.92-4.67.01-.76,0-1.52,0-2.28,0-.16,0-.33.03-.49.16-.78.26-1.57.47-2.34.2-.76.46-1.5.75-2.23.18-.46.39-.92.59-1.38.79-1.81,1.54-3.64,2.32-5.46.67-1.58,1.36-3.16,2.03-4.74.18-.41.32-.84.52-1.24.3-.61.51-1.25.81-1.86.17-.35.32-.72.47-1.08.45-1.07.89-2.15,1.35-3.22.37-.86.78-1.7,1.13-2.57.47-1.18.98-2.35,1.48-3.52.68-1.55,1.37-3.1,1.87-4.72.3-.95.59-1.91.6-2.93,0-.09,0-.2.04-.28.12-.31.11-.64.11-.96,0-.54,0-1.09,0-1.63,0-.14,0-.28-.03-.4-.18-.5-.15-1.04-.26-1.56-.15-.73-.35-1.45-.6-2.15-.33-.91-.76-1.8-1.28-2.63-.58-.95-1.2-1.88-1.76-2.83-.74-1.25-1.52-2.47-2.28-3.7-.65-1.05-1.34-2.07-1.95-3.14-.18-.32-.38-.63-.57-.94-.75-1.19-1.51-2.38-2.25-3.58-.44-.71-.88-1.43-1.32-2.15-.52-.84-1.06-1.67-1.58-2.51-.79-1.3-1.61-2.57-2.39-3.87-.51-.86-.92-1.75-1.26-2.68-.22-.61-.41-1.23-.5-1.88-.11-.82-.3-1.62-.28-2.45.01-.56,0-1.11,0-1.67,0-.15,0-.3.03-.45.18-.79.24-1.6.44-2.39.26-1,.6-1.97,1-2.92.21-.51.47-1,.73-1.49.6-1.13,1.3-2.21,2.13-3.17,1.43-1.65,3.05-3.12,4.99-4.18.93-.51,1.88-.95,2.88-1.3.7-.25,1.43-.42,2.16-.54.79-.13,1.57-.29,2.37-.28,1.83,0,3.66,0,5.49,0,.22,0,.44.03.65-.05.24-.09.48-.1.72-.1,4.1,0,8.19-.02,12.29-.03.15,0,.31.01.44-.03.33-.11.67-.11,1.01-.11,1.46,0,2.93,0,4.39-.02,1.46-.03,2.92.11,4.38-.14.46-.08.93-.09,1.4-.2,1.06-.23,2.09-.57,3.09-.98,1.1-.45,2.11-1.04,3.1-1.69.58-.38,1.13-.79,1.65-1.24.59-.52,1.12-1.1,1.68-1.66.14-.14.29-.29.41-.45.46-.59.9-1.19,1.36-1.78.75-.97,1.52-1.94,2.27-2.92.78-1.03,1.58-2.03,2.35-3.06.85-1.14,1.75-2.24,2.62-3.37,1.06-1.37,2.11-2.75,3.17-4.12.18-.24.35-.48.53-.72.48-.61.97-1.21,1.44-1.82.64-.84,1.27-1.69,1.92-2.52.66-.86,1.33-1.71,2-2.57.94-1.22,1.85-2.47,2.96-3.56.76-.74,1.52-1.47,2.39-2.07,1.05-.72,2.14-1.38,3.33-1.85.69-.28,1.39-.55,2.11-.74.77-.21,1.56-.36,2.36-.39.12,0,.24-.02.36-.06.22-.07.45-.09.68-.09.73,0,1.45.03,2.18.13.77.1,1.53.21,2.28.41,1.27.33,2.43.91,3.54,1.6.84.52,1.52,1.22,2.22,1.9.87.85,1.56,1.83,2.11,2.91.25.5.49,1,.68,1.52.21.57.44,1.14.53,1.75.07.43.14.85.22,1.28.09.44.19.87.29,1.31.18.8.29,1.62.47,2.42.27,1.13.48,2.28.69,3.42.13.72.3,1.43.4,2.15.05.33.11.67.17,1,.09.46.2.92.3,1.39.18.79.28,1.59.47,2.38.27,1.13.48,2.28.69,3.42.18,1,.42,1.98.56,2.99.05.32.08.65.17.96.3,1.07.43,2.17.66,3.26.23,1.07.45,2.15.74,3.21.34,1.25.86,2.43,1.58,3.51.4.6.79,1.2,1.3,1.71.67.65,1.34,1.3,2.11,1.84.68.48,1.41.86,2.16,1.21.81.38,1.68.6,2.53.87,1.12.36,2.25.68,3.38,1.04,1.13.36,2.28.69,3.42,1.03,1.5.45,2.99.96,4.5,1.38.72.2,1.41.47,2.12.68,1.05.31,2.11.59,3.14.98.56.21,1.15.32,1.71.5.45.15.89.36,1.35.45,1.05.22,2.06.59,3.07.91.94.29,1.91.51,2.81.95.47.23.98.39,1.44.65.78.44,1.5.96,2.2,1.52.76.61,1.4,1.32,1.97,2.1.63.87,1.18,1.78,1.57,2.79.35.91.69,1.82.82,2.8.05.37.15.74.16,1.12,0,.11.06.21.14.29v3.17c-.08.11-.13.23-.15.37-.05.67-.18,1.34-.31,2-.19.99-.54,1.93-.93,2.85-.51,1.2-1.14,2.34-1.9,3.4-.56.78-1.16,1.54-1.82,2.23-1.13,1.17-2.42,2.17-3.76,3.09-1.03.7-2.04,1.43-3.06,2.15-.9.63-1.79,1.27-2.69,1.9-1.35.95-2.71,1.9-4.05,2.86-.72.51-1.44,1.02-2.16,1.52-.61.43-1.22.85-1.83,1.28-1.13.8-2.26,1.6-3.38,2.4-1.13.8-2.24,1.61-3.39,2.38-.58.39-1.14.83-1.72,1.23-.97.65-1.91,1.34-2.79,2.1-1.06.93-2.01,1.97-2.82,3.13-.43.62-.86,1.25-1.21,1.92-.7,1.31-1.22,2.68-1.6,4.12-.2.73-.37,1.48-.44,2.23-.12,1.28-.34,2.55-.36,3.84,0,.08-.01.16-.04.24-.09.29-.11.59-.1.89.01.87-.23,1.72-.19,2.59,0,.07-.01.14-.04.2-.1.25-.1.5-.11.76,0,.34.04.68-.06,1.01-.08.28-.11.56-.1.84.02.91-.24,1.8-.19,2.71,0,.05,0,.11-.03.16-.13.35-.12.72-.12,1.09,0,.2.01.41-.03.61-.21.85-.11,1.73-.26,2.58-.1.58-.09,1.18-.17,1.77-.16,1.24-.26,2.48-.34,3.72-.06,1.01-.21,2.02-.28,3.03-.04.62-.07,1.24-.15,1.86-.07.54-.15,1.07-.15,1.62,0,.08-.01.16-.04.24-.16.48-.16.98-.25,1.48-.08.43-.15.85-.26,1.27-.34,1.3-.84,2.54-1.46,3.74-.57,1.1-1.27,2.11-2.05,3.08-.74.92-1.62,1.71-2.48,2.51-.24.23-.5.46-.78.64-.38.24-.75.49-1.12.74-.5.35-1.05.62-1.59.9-.48.25-.98.46-1.47.69-.76.35-1.55.56-2.36.71-.55.11-1.09.21-1.6.42Z"/>
      <g>
        <path class="cls-1" d="m29.15,156.25c-4.07,0-7.27-1-9.6-3-2.33-2-4.18-4.75-5.55-8.25-1.37-3.5-2.65-7.48-3.85-11.95L.45,97.05c-.73-2.8-.57-5.42.5-7.85,1.07-2.43,3.17-4.05,6.3-4.85,2.93-.8,5.53-.6,7.8.6,2.27,1.2,3.8,3.3,4.6,6.3l9,32.9c.8,2.87,1.65,4.97,2.55,6.3.9,1.33,2.35,1.77,4.35,1.3,1.87-.47,2.87-1.5,3-3.1.13-1.6-.2-3.87-1-6.8l-6.4-24.3c-.87-3.33-.75-6.22.35-8.65s3.28-4.02,6.55-4.75c3.33-.8,6.02-.38,8.05,1.25,2.03,1.63,3.42,3.92,4.15,6.85l8.1,31.9c.87,3.27,1.82,5.47,2.85,6.6,1.03,1.13,2.38,1.47,4.05,1,1.87-.53,2.77-1.58,2.7-3.15-.07-1.57-.3-3.85-.7-6.85-.6-4.67-1.12-8.5-1.55-11.5-.43-3-.77-5.5-1-7.5-.23-2-.35-3.83-.35-5.5,0-3.73,1.1-6.92,3.3-9.55,2.2-2.63,5.2-3.95,9-3.95s6.8,1.18,8.8,3.55c2,2.37,3,5.62,3,9.75,0,2.67-.38,5.47-1.15,8.4-.77,2.93-1.52,5.7-2.25,8.3l-5.6,19.3c-1.27,4.4-2.52,8.35-3.75,11.85-1.23,3.5-2.88,6.27-4.95,8.3-2.07,2.03-5,3.05-8.8,3.05-4.6,0-8.2-1.43-10.8-4.3-2.6-2.87-4.6-7.57-6-14.1h-.7c-1.33,6.54-3.1,11.23-5.3,14.1-2.2,2.87-5.53,4.3-10,4.3Z"/>
        <path class="cls-1" d="m118.35,155.75c-3.27,0-6.38-.3-9.35-.9-2.97-.6-5.57-1.75-7.8-3.45-2.23-1.7-4-4.17-5.3-7.4-1.3-3.23-1.95-7.48-1.95-12.75,0-4.73.63-8.8,1.9-12.2,1.27-3.4,2.78-6.1,4.55-8.1,1.77-2,3.38-3.23,4.85-3.7l-.5-1.9h-1.7c-3.07,0-5.48-.98-7.25-2.95-1.77-1.97-2.68-4.65-2.75-8.05-.07-3.33.82-6,2.65-8,1.83-2,4.28-3,7.35-3h35.9c7.13,0,10.7,3.33,10.7,10,0,3-.87,5.4-2.6,7.2-1.73,1.8-4.43,2.7-8.1,2.7h-20.7c-2.47,0-3.7,1.43-3.7,4.3v7.5c3.33-.73,6.82-1.6,10.45-2.6,3.63-1,7.08-1.5,10.35-1.5s5.48.68,7.05,2.05c1.57,1.37,2.35,3.22,2.35,5.55s-.78,4.28-2.35,5.65c-1.57,1.37-3.92,2.08-7.05,2.15-3.27.07-6.73-.4-10.4-1.4-3.67-1-7.17-1.87-10.5-2.6v13.1c0,1.27.35,2.15,1.05,2.65s1.82.32,3.35-.55c3.33-1.93,6.6-3.48,9.8-4.65,3.2-1.17,6.33-1.75,9.4-1.75,4.33,0,7.62,1.13,9.85,3.4,2.23,2.27,3.35,5.23,3.35,8.9,0,3.93-1.18,6.97-3.55,9.1-2.37,2.13-6.18,3.2-11.45,3.2h-17.9Z"/>
        <path class="cls-1" d="m176.95,155.85c-3.07-.13-5.92-.57-8.55-1.3-2.63-.73-4.95-1.98-6.95-3.75-2-1.77-3.55-4.22-4.65-7.35-1.1-3.13-1.65-7.13-1.65-12s.65-8.83,1.95-12.3c1.3-3.47,2.85-6.23,4.65-8.3,1.8-2.07,3.43-3.33,4.9-3.8l-.5-1.9h-1.7c-3.07,0-5.48-.98-7.25-2.95-1.77-1.97-2.68-4.62-2.75-7.95-.07-3.33.82-6.02,2.65-8.05,1.83-2.03,4.28-3.05,7.35-3.05h27.5c7.2,0,12.4,1.72,15.6,5.15,3.2,3.43,4.8,7.88,4.8,13.35,0,4.4-1.02,8.07-3.05,11-2.03,2.93-5.08,4.7-9.15,5.3v1.5c4.4.2,7.98,1.72,10.75,4.55,2.77,2.83,4.15,7.02,4.15,12.55,0,6-1.73,10.75-5.2,14.25-3.47,3.5-9.17,5.22-17.1,5.15l-15.8-.1Zm-2.7-44.9c0,1.47.27,2.43.8,2.9.53.47,1.53.7,3,.7h9.2c2.53,0,4.47-.38,5.8-1.15,1.33-.77,2-2.28,2-4.55s-.67-3.87-2-4.6c-1.33-.73-3.27-1.1-5.8-1.1h-9.2c-1.47,0-2.47.2-3,.6-.53.4-.8,1.37-.8,2.9v4.3Zm0,20.1c0,1.47.28,2.47.85,3,.57.53,1.62.8,3.15.8h10.3c2.6,0,4.6-.46,6-1.4,1.4-.93,2.1-2.6,2.1-5s-.7-4.05-2.1-4.95-3.4-1.35-6-1.35h-10.3c-1.53,0-2.58.23-3.15.7-.57.47-.85,1.43-.85,2.9v5.3Z"/>
        <path class="cls-1" d="m263.85,83.15c7.93,0,14.42,1.48,19.45,4.45,5.03,2.97,8.77,7.17,11.2,12.6,2.43,5.43,3.65,11.88,3.65,19.35,0,12.53-2.7,21.73-8.1,27.6-5.4,5.87-13.67,8.8-24.8,8.8h-4.4c-3.27,0-6.3-.33-9.1-1-2.8-.67-5.27-1.88-7.4-3.65-2.13-1.77-3.8-4.25-5-7.45-1.2-3.2-1.8-7.33-1.8-12.4,0-4.73.65-8.83,1.95-12.3,1.3-3.47,2.85-6.23,4.65-8.3,1.8-2.07,3.43-3.33,4.9-3.8l-.5-1.9h-1.7c-3.07,0-5.48-.98-7.25-2.95-1.77-1.97-2.68-4.62-2.75-7.95-.07-3.33.82-6.02,2.65-8.05,1.83-2.03,4.28-3.05,7.35-3.05h17Zm-7.2,47c0,1.4.32,2.37.95,2.9.63.53,1.58.8,2.85.8h5.4c3.4,0,6.03-.73,7.9-2.2,1.87-1.47,3.18-3.35,3.95-5.65.77-2.3,1.15-4.75,1.15-7.35s-.38-5.1-1.15-7.5c-.77-2.4-2.08-4.37-3.95-5.9-1.87-1.53-4.5-2.3-7.9-2.3h-5.4c-1.27,0-2.22.28-2.85.85-.63.57-.95,1.58-.95,3.05v23.3Z"/>
        <path class="cls-1" d="m328.25,155.75c-3.27,0-6.38-.3-9.35-.9-2.97-.6-5.57-1.75-7.8-3.45-2.23-1.7-4-4.17-5.3-7.4-1.3-3.23-1.95-7.48-1.95-12.75,0-4.73.63-8.8,1.9-12.2,1.27-3.4,2.78-6.1,4.55-8.1,1.77-2,3.38-3.23,4.85-3.7l-.5-1.9h-1.7c-3.07,0-5.48-.98-7.25-2.95-1.77-1.97-2.68-4.65-2.75-8.05-.07-3.33.82-6,2.65-8,1.83-2,4.28-3,7.35-3h35.9c7.13,0,10.7,3.33,10.7,10,0,3-.87,5.4-2.6,7.2-1.73,1.8-4.43,2.7-8.1,2.7h-20.7c-2.47,0-3.7,1.43-3.7,4.3v7.5c3.33-.73,6.82-1.6,10.45-2.6,3.63-1,7.08-1.5,10.35-1.5s5.48.68,7.05,2.05c1.57,1.37,2.35,3.22,2.35,5.55s-.78,4.28-2.35,5.65c-1.57,1.37-3.92,2.08-7.05,2.15-3.27.07-6.73-.4-10.4-1.4-3.67-1-7.17-1.87-10.5-2.6v13.1c0,1.27.35,2.15,1.05,2.65s1.82.32,3.35-.55c3.33-1.93,6.6-3.48,9.8-4.65,3.2-1.17,6.33-1.75,9.4-1.75,4.33,0,7.62,1.13,9.85,3.4,2.23,2.27,3.35,5.23,3.35,8.9,0,3.93-1.18,6.97-3.55,9.1-2.37,2.13-6.18,3.2-11.45,3.2h-17.9Z"/>
        <path class="cls-1" d="m396.05,156.25c-3.73,0-7.48-.38-11.25-1.15-3.77-.77-7.23-1.9-10.4-3.4-3.17-1.5-5.72-3.33-7.65-5.5-1.93-2.17-2.9-4.68-2.9-7.55,0-3.67,1.17-6.6,3.5-8.8,2.33-2.2,5.07-3.23,8.2-3.1,2.47.07,4.93.58,7.4,1.55,2.47.97,4.98,1.92,7.55,2.85,2.57.93,5.15,1.4,7.75,1.4s4.4-.33,5.4-1c1-.67,1.5-1.57,1.5-2.7,0-1.33-.7-2.43-2.1-3.3-1.4-.87-3.17-1.53-5.3-2l-4.9-1.2c-5.07-1.2-9.6-2.55-13.6-4.05s-7.15-3.5-9.45-6-3.45-5.85-3.45-10.05c0-4.6,1.27-8.35,3.8-11.25,2.53-2.9,5.97-5.02,10.3-6.35,4.33-1.33,9.17-2,14.5-2s10.27.57,14.4,1.7c4.13,1.13,7.35,2.77,9.65,4.9,2.3,2.13,3.45,4.73,3.45,7.8,0,3.27-.88,5.82-2.65,7.65-1.77,1.83-4.12,2.75-7.05,2.75-1.93,0-3.95-.33-6.05-1-2.1-.67-4.3-1.32-6.6-1.95-2.3-.63-4.75-.95-7.35-.95-2.33,0-4.1.35-5.3,1.05-1.2.7-1.8,1.62-1.8,2.75,0,1.4.8,2.43,2.4,3.1,1.6.67,4.23,1.47,7.9,2.4l5.6,1.3c4.6,1.13,8.63,2.5,12.1,4.1,3.47,1.6,6.17,3.7,8.1,6.3,1.93,2.6,2.9,6,2.9,10.2,0,5.07-1.2,9.18-3.6,12.35-2.4,3.17-5.73,5.48-10,6.95-4.27,1.47-9.27,2.2-15,2.2Z"/>
        <path class="cls-1" d="m440.05,156.15c-3.07,0-5.57-.93-7.5-2.8-1.93-1.87-2.9-4.23-2.9-7.1v-52.9c0-2.93.95-5.4,2.85-7.4,1.9-2,4.42-3,7.55-3,3.33,0,5.95.98,7.85,2.95,1.9,1.97,2.85,4.38,2.85,7.25v53.1c0,2.87-1.02,5.23-3.05,7.1-2.03,1.87-4.58,2.8-7.65,2.8Z"/>
        <path class="cls-1" d="m482.55,156.55c-5.33,0-9.97-1.55-13.9-4.65-3.93-3.1-6.97-7.37-9.1-12.8-2.13-5.43-3.2-11.58-3.2-18.45,0-6.4.95-12.02,2.85-16.85,1.9-4.83,4.5-8.87,7.8-12.1,3.3-3.23,7.13-5.67,11.5-7.3,4.37-1.63,8.98-2.45,13.85-2.45,8.93,0,15.55,1.25,19.85,3.75s6.45,5.72,6.45,9.65c0,3.07-.79,5.77-2.35,8.1-1.57,2.33-3.92,3.5-7.05,3.5-2.13,0-4.15-.2-6.05-.6-1.9-.4-3.83-.78-5.8-1.15-1.97-.37-4.15-.55-6.55-.55-5.27,0-9.05,1.5-11.35,4.5s-3.45,6.77-3.45,11.3c0,3.67.75,6.67,2.25,9,1.5,2.33,3.5,4.05,6,5.15,2.5,1.1,5.28,1.65,8.35,1.65,2.53,0,4.9-.57,7.1-1.7,2.2-1.13,3.6-3.23,4.2-6.3h-4.9c-2.33,0-4.13-.72-5.4-2.15-1.27-1.43-1.9-3.28-1.9-5.55s.63-4.1,1.9-5.5c1.27-1.4,3.07-2.1,5.4-2.1h12c4.33,0,7.38,1.15,9.15,3.45,1.77,2.3,2.65,5.72,2.65,10.25v18.7c0,3.47-.93,6.1-2.8,7.9-1.87,1.8-4.33,2.7-7.4,2.7-3.27,0-5.83-.9-7.7-2.7-1.87-1.8-2.8-4.43-2.8-7.9v-6.2h-1.8c0,6.07-1.53,10.48-4.6,13.25-3.07,2.77-7.17,4.15-12.3,4.15h-.9Z"/>
        <path class="cls-1" d="m538.04,155.95c-3.33,0-5.87-1.03-7.6-3.1-1.73-2.07-2.6-4.83-2.6-8.3v-46.9c0-3.47.65-6.28,1.95-8.45,1.3-2.17,3-3.75,5.1-4.75,2.1-1,4.38-1.5,6.85-1.5,3.67,0,6.77.97,9.3,2.9,2.53,1.93,4.5,5.33,5.9,10.2l10.8,36.9h1.6v-38.4c0-3.53.9-6.32,2.7-8.35,1.8-2.03,4.37-3.05,7.7-3.05s6.05,1.02,7.75,3.05c1.7,2.03,2.55,4.82,2.55,8.35v45.2c0,5.6-1.23,9.73-3.7,12.4-2.47,2.67-5.93,4-10.4,4s-8.07-1.2-10.6-3.6c-2.53-2.4-4.47-5.93-5.8-10.6l-7.1-24.3c-.13-.67-.38-1.28-.75-1.85-.37-.57-.85-.85-1.45-.85-.73,0-1.23.28-1.5.85-.27.57-.4,1.18-.4,1.85v26.9c0,3.47-.87,6.23-2.6,8.3-1.73,2.07-4.3,3.1-7.7,3.1Z"/>
      </g>
    </g>
  </g>
</svg>