<?xml version="1.0" encoding="UTF-8"?>
<svg id="Capa_2" data-name="Capa 2" xmlns="http://www.w3.org/2000/svg" viewBox="0 0 381.41 115.74">
  <defs>
    <style>
      .cls-1 {
        fill: #fff;
      }
    </style>
  </defs>
  <g id="Capa_1-2" data-name="Capa 1">
    <g>
      <g>
        <path class="cls-1" d="m0,71.09V0h25.39c8.8,0,15.47,1.65,20.01,4.96,4.55,3.3,6.82,8.15,6.82,14.53,0,3.48-.91,6.55-2.74,9.2-1.83,2.65-4.36,4.6-7.62,5.83,3.72.91,6.65,2.75,8.79,5.52s3.21,6.15,3.21,10.16c0,6.84-2.22,12.01-6.67,15.53-4.45,3.52-10.79,5.31-19.02,5.37H0ZM14.94,29.79h11.05c7.53-.13,11.3-3.08,11.3-8.84,0-3.22-.95-5.54-2.86-6.96-1.91-1.42-4.92-2.12-9.04-2.12h-10.45v17.92Zm0,10.35v19.19h12.79c3.52,0,6.26-.82,8.24-2.47,1.97-1.64,2.96-3.91,2.96-6.81,0-6.51-3.44-9.81-10.31-9.91h-13.69Z"/>
        <path class="cls-1" d="m105.99,56.45h-26.19l-4.98,14.65h-15.88L85.93,0h13.84l27.13,71.09h-15.88l-5.03-14.65Zm-22.15-11.87h18.12l-9.11-26.61-9.01,26.61Z"/>
        <path class="cls-1" d="m160.51,45.07h-11.9v26.03h-14.94V0h26.93c8.56,0,15.17,1.87,19.81,5.62,4.65,3.74,6.97,9.03,6.97,15.87,0,4.85-1.07,8.89-3.21,12.13s-5.39,5.82-9.73,7.74l15.68,29.05v.68h-16.03l-13.59-26.03Zm-11.9-11.87h12.05c3.75,0,6.65-.94,8.71-2.81,2.06-1.87,3.09-4.45,3.09-7.74s-.97-5.99-2.91-7.91c-1.94-1.92-4.92-2.88-8.94-2.88h-12v21.34Z"/>
        <path class="cls-1" d="m198.74,71.09V0h25.39c8.8,0,15.47,1.65,20.01,4.96,4.55,3.3,6.82,8.15,6.82,14.53,0,3.48-.91,6.55-2.74,9.2-1.83,2.65-4.36,4.6-7.62,5.83,3.72.91,6.65,2.75,8.79,5.52s3.21,6.15,3.21,10.16c0,6.84-2.22,12.01-6.67,15.53-4.45,3.52-10.79,5.31-19.02,5.37h-28.18Zm14.94-41.31h11.05c7.53-.13,11.3-3.08,11.3-8.84,0-3.22-.95-5.54-2.86-6.96-1.91-1.42-4.92-2.12-9.04-2.12h-10.45v17.92Zm0,10.35v19.19h12.79c3.52,0,6.26-.82,8.24-2.47,1.97-1.64,2.96-3.91,2.96-6.81,0-6.51-3.44-9.81-10.31-9.91h-13.69Z"/>
        <path class="cls-1" d="m279.7,71.09h-14.94V0h14.94v71.09Z"/>
        <path class="cls-1" d="m352.48,71.09h-14.94l-29.07-46.78v46.78h-14.94V0h14.94l29.12,46.88V0h14.89v71.09Z"/>
        <path class="cls-1" d="m381.41,71.09h-14.94V0h14.94v71.09Z"/>
      </g>
      <g>
        <path class="cls-1" d="m262.62,115.74c-.32,0-.58-.09-.77-.27-.19-.18-.29-.43-.29-.74v-12.27c.02-1.35.36-2.57,1.02-3.65.66-1.08,1.55-1.94,2.68-2.56s2.4-.94,3.8-.94,2.74.32,3.87.95c1.14.63,2.04,1.5,2.7,2.59.66,1.09.99,2.33.99,3.72s-.32,2.6-.96,3.69-1.51,1.96-2.61,2.59c-1.1.63-2.35.95-3.74.95-1.21,0-2.31-.25-3.29-.74s-1.77-1.15-2.37-1.96v7.64c0,.31-.1.56-.29.74-.19.18-.44.27-.74.27Zm6.45-7.77c1.05,0,1.99-.23,2.82-.7.83-.47,1.49-1.11,1.96-1.94s.72-1.75.72-2.77-.24-1.97-.72-2.78-1.13-1.46-1.96-1.94c-.83-.48-1.77-.71-2.82-.71s-1.96.24-2.79.71c-.83.48-1.48,1.12-1.95,1.94-.47.81-.71,1.74-.71,2.78s.23,1.95.71,2.77c.47.82,1.12,1.47,1.95,1.94.83.47,1.76.7,2.79.7Z"/>
        <path class="cls-1" d="m287.46,109.78c-1.45,0-2.74-.31-3.87-.94-1.14-.62-2.03-1.48-2.68-2.57s-.97-2.33-.97-3.72.32-2.65.97-3.74,1.54-1.95,2.68-2.57c1.14-.62,2.43-.94,3.87-.94s2.73.31,3.86.94c1.13.62,2.02,1.48,2.67,2.57.65,1.09.98,2.34,1,3.74,0,1.39-.33,2.63-.99,3.72-.66,1.09-1.55,1.95-2.68,2.57-1.13.62-2.42.94-3.86.94Zm0-1.82c1.05,0,1.98-.23,2.82-.7.83-.47,1.48-1.11,1.95-1.92.47-.81.71-1.74.71-2.78s-.24-1.97-.71-2.79-1.12-1.47-1.95-1.94c-.83-.47-1.77-.7-2.82-.7s-1.99.23-2.82.7c-.83.47-1.48,1.11-1.96,1.94s-.72,1.75-.72,2.79.24,1.97.72,2.78c.48.82,1.13,1.46,1.96,1.92.83.47,1.77.7,2.82.7Z"/>
        <path class="cls-1" d="m300.08,109.65c-.32,0-.58-.09-.76-.26-.18-.17-.27-.42-.27-.73v-12.25c0-.31.09-.55.27-.73.18-.17.43-.26.76-.26s.58.09.76.26c.18.17.27.42.27.73v12.25c0,.31-.09.56-.27.73-.18.17-.43.26-.76.26Zm-.16-8.76c.05-1.08.35-2.04.88-2.89.53-.85,1.23-1.52,2.08-2,.86-.48,1.81-.73,2.86-.73.83,0,1.47.11,1.92.34.45.23.62.55.51.99-.07.26-.19.43-.37.52-.17.09-.38.12-.62.1s-.52-.04-.83-.05c-1.01-.09-1.91.01-2.69.3-.79.29-1.41.72-1.87,1.31-.46.59-.69,1.29-.69,2.11h-1.19Z"/>
        <path class="cls-1" d="m310.5,97.69c-.27,0-.5-.08-.68-.25-.18-.16-.27-.37-.27-.61,0-.26.09-.47.27-.64.18-.16.41-.25.68-.25h6.91c.27,0,.5.08.68.25.18.17.27.38.27.64,0,.24-.09.45-.27.61-.18.17-.41.25-.68.25h-6.91Zm6.74,11.96c-.96,0-1.81-.22-2.56-.65-.75-.43-1.34-1.03-1.77-1.78s-.65-1.62-.65-2.59v-12.71c0-.29.1-.54.29-.73s.44-.29.74-.29.56.1.76.29c.2.19.3.43.3.73v12.71c0,.88.27,1.61.81,2.17s1.24.84,2.09.84h.73c.29,0,.52.1.71.29.18.19.27.43.27.73s-.11.53-.32.71c-.22.18-.49.27-.81.27h-.57Z"/>
        <path class="cls-1" d="m321.45,97.69c-.29,0-.52-.08-.69-.25-.17-.16-.26-.37-.26-.61,0-.26.09-.47.26-.64.17-.16.4-.25.69-.25h7.07c.29,0,.52.08.69.25.17.17.26.38.26.64,0,.24-.09.45-.26.61-.17.17-.4.25-.69.25h-7.07Zm2.74,11.96c-.27,0-.51-.09-.71-.27-.2-.18-.3-.43-.3-.74v-13.18c0-1.21.22-2.28.65-3.2.43-.92,1.07-1.63,1.92-2.15.85-.51,1.89-.77,3.12-.77.31,0,.56.09.76.26.2.17.3.39.3.65s-.1.48-.3.65c-.2.17-.45.26-.76.26-.81,0-1.49.18-2.02.53-.53.36-.93.85-1.19,1.48s-.39,1.36-.39,2.17v13.29c0,.31-.09.56-.28.74-.19.18-.46.27-.8.27Z"/>
        <path class="cls-1" d="m338.46,109.78c-1.45,0-2.74-.31-3.87-.94-1.14-.62-2.03-1.48-2.68-2.57s-.97-2.33-.97-3.72.32-2.65.97-3.74,1.54-1.95,2.68-2.57c1.14-.62,2.43-.94,3.87-.94s2.73.31,3.86.94c1.13.62,2.02,1.48,2.67,2.57.65,1.09.98,2.34,1,3.74,0,1.39-.33,2.63-.99,3.72-.66,1.09-1.55,1.95-2.68,2.57-1.13.62-2.42.94-3.86.94Zm0-1.82c1.05,0,1.98-.23,2.82-.7.83-.47,1.48-1.11,1.95-1.92.47-.81.71-1.74.71-2.78s-.24-1.97-.71-2.79-1.12-1.47-1.95-1.94c-.83-.47-1.77-.7-2.82-.7s-1.99.23-2.82.7c-.83.47-1.48,1.11-1.96,1.94s-.72,1.75-.72,2.79.24,1.97.72,2.78c.48.82,1.13,1.46,1.96,1.92.83.47,1.77.7,2.82.7Z"/>
        <path class="cls-1" d="m353.24,109.65c-.72,0-1.37-.19-1.94-.57-.57-.38-1.01-.91-1.33-1.59-.32-.68-.47-1.46-.47-2.34v-14.82c0-.29.09-.53.29-.71.19-.18.44-.27.74-.27s.55.09.74.27c.19.18.29.42.29.71v14.82c0,.75.16,1.35.47,1.82.32.47.72.7,1.21.7h.68c.27,0,.49.09.65.27s.24.42.24.71-.11.53-.34.71c-.22.18-.52.27-.88.27h-.35Z"/>
        <path class="cls-1" d="m359.15,92.73c-.4,0-.74-.14-1.03-.42-.29-.28-.43-.62-.43-1.01,0-.43.15-.78.45-1.03.3-.25.64-.38,1.04-.38s.72.13,1.02.38c.3.25.45.59.45,1.03,0,.4-.14.74-.43,1.01s-.64.42-1.05.42Zm.03,16.93c-.32,0-.58-.09-.77-.27-.19-.18-.28-.43-.28-.74v-12.19c0-.31.09-.56.28-.74.19-.18.45-.27.77-.27s.56.09.75.27c.19.18.28.43.28.74v12.19c0,.31-.09.56-.28.74-.19.18-.44.27-.75.27Z"/>
        <path class="cls-1" d="m372.25,109.78c-1.45,0-2.73-.31-3.87-.94-1.14-.62-2.03-1.48-2.68-2.57-.65-1.09-.97-2.33-.97-3.72s.33-2.65.97-3.74c.65-1.09,1.54-1.95,2.68-2.57,1.14-.62,2.43-.94,3.87-.94s2.73.31,3.86.94,2.02,1.48,2.67,2.57.98,2.34,1,3.74c0,1.39-.33,2.63-.99,3.72-.66,1.09-1.55,1.95-2.68,2.57s-2.41.94-3.86.94Zm0-1.82c1.05,0,1.99-.23,2.82-.7.83-.47,1.48-1.11,1.95-1.92.47-.81.7-1.74.7-2.78s-.23-1.97-.7-2.79c-.47-.82-1.12-1.47-1.95-1.94s-1.77-.7-2.82-.7-1.99.23-2.82.7-1.49,1.11-1.96,1.94c-.48.82-.72,1.75-.72,2.79s.24,1.97.72,2.78c.48.82,1.13,1.46,1.96,1.92.83.47,1.77.7,2.82.7Z"/>
      </g>
      <g>
        <path class="cls-1" d="m12.93,112.58c-1.74,0-3.1-.41-4.1-1.23-1-.82-1.79-1.95-2.37-3.38-.58-1.44-1.13-3.07-1.64-4.9l-4.14-14.76c-.31-1.15-.24-2.22.21-3.22s1.35-1.66,2.69-1.99c1.25-.33,2.36-.25,3.33.25.97.49,1.62,1.35,1.96,2.58l3.84,13.49c.34,1.18.71,2.04,1.09,2.58.38.55,1,.72,1.86.53.8-.19,1.22-.62,1.28-1.27.06-.66-.09-1.58-.43-2.79l-2.73-9.96c-.37-1.37-.32-2.55.15-3.55.47-1,1.4-1.65,2.8-1.95,1.42-.33,2.57-.16,3.44.51.87.67,1.46,1.61,1.77,2.81l3.46,13.08c.37,1.34.78,2.24,1.22,2.71.44.46,1.02.6,1.73.41.8-.22,1.18-.65,1.15-1.29-.03-.64-.13-1.58-.3-2.81-.26-1.91-.48-3.48-.66-4.71-.19-1.23-.33-2.25-.43-3.07-.1-.82-.15-1.57-.15-2.26,0-1.53.47-2.83,1.41-3.92.94-1.08,2.22-1.62,3.84-1.62s2.9.49,3.76,1.46c.85.97,1.28,2.3,1.28,4,0,1.09-.17,2.24-.49,3.44-.33,1.2-.65,2.34-.96,3.4l-2.39,7.91c-.54,1.8-1.07,3.42-1.6,4.86-.53,1.43-1.23,2.57-2.11,3.4-.88.83-2.13,1.25-3.76,1.25-1.96,0-3.5-.59-4.61-1.76s-1.96-3.1-2.56-5.78h-.3c-.57,2.68-1.32,4.61-2.26,5.78s-2.36,1.76-4.27,1.76Z"/>
        <path class="cls-1" d="m51.03,112.37c-1.4,0-2.73-.12-3.99-.37-1.27-.25-2.38-.72-3.33-1.41-.95-.7-1.71-1.71-2.26-3.03-.56-1.33-.83-3.07-.83-5.23,0-1.94.27-3.61.81-5,.54-1.39,1.19-2.5,1.94-3.32.75-.82,1.44-1.33,2.07-1.52l-.21-.78h-.73c-1.31,0-2.34-.4-3.1-1.21-.75-.81-1.15-1.91-1.17-3.3-.03-1.37.35-2.46,1.13-3.28.78-.82,1.83-1.23,3.14-1.23h15.33c3.05,0,4.57,1.37,4.57,4.1,0,1.23-.37,2.21-1.11,2.95s-1.89,1.11-3.46,1.11h-8.84c-1.05,0-1.58.59-1.58,1.76v3.08c1.42-.3,2.91-.66,4.46-1.07s3.03-.62,4.42-.62,2.34.28,3.01.84c.67.56,1,1.32,1,2.28s-.33,1.76-1,2.32c-.67.56-1.67.85-3.01.88-1.4.03-2.88-.16-4.44-.57-1.57-.41-3.06-.76-4.48-1.07v5.37c0,.52.15.88.45,1.09s.78.13,1.43-.23c1.42-.79,2.82-1.43,4.19-1.91,1.37-.48,2.7-.72,4.01-.72,1.85,0,3.25.46,4.21,1.39.95.93,1.43,2.15,1.43,3.65,0,1.61-.51,2.86-1.52,3.73-1.01.88-2.64,1.31-4.89,1.31h-7.64Z"/>
        <path class="cls-1" d="m76.05,112.41c-1.31-.05-2.53-.23-3.65-.53-1.12-.3-2.11-.81-2.97-1.54-.85-.72-1.52-1.73-1.99-3.01-.47-1.28-.7-2.92-.7-4.92s.28-3.62.83-5.04c.55-1.42,1.22-2.56,1.99-3.4.77-.85,1.46-1.37,2.09-1.56l-.21-.78h-.73c-1.31,0-2.34-.4-3.1-1.21-.76-.81-1.15-1.89-1.17-3.26-.03-1.37.35-2.47,1.13-3.3.78-.83,1.83-1.25,3.14-1.25h11.75c3.08,0,5.3.7,6.66,2.11,1.37,1.41,2.05,3.23,2.05,5.47,0,1.8-.43,3.31-1.3,4.51-.87,1.2-2.17,1.93-3.91,2.17v.62c1.88.08,3.41.7,4.59,1.87,1.18,1.16,1.77,2.88,1.77,5.15,0,2.46-.74,4.41-2.22,5.84-1.48,1.43-3.92,2.14-7.3,2.11l-6.75-.04Zm-1.15-18.41c0,.6.11,1,.34,1.19.23.19.65.29,1.28.29h3.93c1.08,0,1.91-.16,2.48-.47.57-.31.85-.94.85-1.87s-.28-1.58-.85-1.89c-.57-.3-1.4-.45-2.48-.45h-3.93c-.63,0-1.05.08-1.28.25-.23.16-.34.56-.34,1.19v1.76Zm0,8.24c0,.6.12,1.01.36,1.23.24.22.69.33,1.35.33h4.4c1.11,0,1.96-.19,2.56-.57s.9-1.07.9-2.05-.3-1.66-.9-2.03-1.45-.55-2.56-.55h-4.4c-.66,0-1.1.1-1.35.29-.24.19-.36.59-.36,1.19v2.17Z"/>
        <path class="cls-1" d="m113.17,82.6c3.39,0,6.16.61,8.31,1.82,2.15,1.22,3.74,2.94,4.78,5.17s1.56,4.87,1.56,7.93c0,5.14-1.15,8.91-3.46,11.32-2.31,2.41-5.84,3.61-10.59,3.61h-1.88c-1.39,0-2.69-.14-3.89-.41-1.2-.27-2.25-.77-3.16-1.5s-1.62-1.74-2.13-3.05c-.51-1.31-.77-3.01-.77-5.08,0-1.94.28-3.62.83-5.04.55-1.42,1.22-2.56,1.99-3.4.77-.85,1.47-1.37,2.09-1.56l-.21-.78h-.73c-1.31,0-2.34-.4-3.1-1.21-.75-.81-1.15-1.89-1.17-3.26-.03-1.37.35-2.47,1.13-3.3.78-.83,1.83-1.25,3.14-1.25h7.26Zm-3.07,19.27c0,.57.13.97.41,1.19s.68.33,1.22.33h2.31c1.45,0,2.58-.3,3.37-.9.8-.6,1.36-1.37,1.69-2.32.33-.94.49-1.95.49-3.01s-.16-2.09-.49-3.08c-.33-.98-.89-1.79-1.69-2.42-.8-.63-1.92-.94-3.37-.94h-2.31c-.54,0-.95.12-1.22.35-.27.23-.41.65-.41,1.25v9.55Z"/>
        <path class="cls-1" d="m140.67,112.37c-1.39,0-2.73-.12-3.99-.37-1.27-.25-2.38-.72-3.33-1.41-.95-.7-1.71-1.71-2.26-3.03-.55-1.33-.83-3.07-.83-5.23,0-1.94.27-3.61.81-5,.54-1.39,1.19-2.5,1.94-3.32.75-.82,1.45-1.33,2.07-1.52l-.21-.78h-.73c-1.31,0-2.34-.4-3.1-1.21-.75-.81-1.15-1.91-1.17-3.3-.03-1.37.35-2.46,1.13-3.28.78-.82,1.83-1.23,3.14-1.23h15.33c3.05,0,4.57,1.37,4.57,4.1,0,1.23-.37,2.21-1.11,2.95s-1.89,1.11-3.46,1.11h-8.84c-1.05,0-1.58.59-1.58,1.76v3.08c1.42-.3,2.91-.66,4.46-1.07,1.55-.41,3.03-.62,4.42-.62s2.34.28,3.01.84c.67.56,1,1.32,1,2.28s-.33,1.76-1,2.32c-.67.56-1.67.85-3.01.88-1.4.03-2.88-.16-4.44-.57-1.57-.41-3.06-.76-4.48-1.07v5.37c0,.52.15.88.45,1.09s.78.13,1.43-.23c1.42-.79,2.82-1.43,4.19-1.91s2.7-.72,4.01-.72c1.85,0,3.25.46,4.21,1.39.95.93,1.43,2.15,1.43,3.65,0,1.61-.51,2.86-1.52,3.73s-2.64,1.31-4.89,1.31h-7.64Z"/>
        <path class="cls-1" d="m169.63,112.58c-1.6,0-3.2-.16-4.8-.47-1.61-.31-3.09-.78-4.44-1.39-1.35-.62-2.44-1.37-3.27-2.25-.83-.89-1.24-1.92-1.24-3.1,0-1.5.5-2.71,1.49-3.61,1-.9,2.16-1.33,3.5-1.27,1.05.03,2.11.24,3.16.63,1.05.4,2.13.79,3.22,1.17s2.2.57,3.31.57,1.88-.14,2.31-.41c.43-.27.64-.64.64-1.11,0-.55-.3-1-.9-1.35-.6-.36-1.35-.63-2.26-.82l-2.09-.49c-2.16-.49-4.1-1.04-5.81-1.66-1.71-.62-3.05-1.43-4.04-2.46s-1.47-2.4-1.47-4.12c0-1.89.54-3.42,1.62-4.61,1.08-1.19,2.55-2.06,4.4-2.6,1.85-.55,3.91-.82,6.19-.82s4.38.23,6.15.7c1.77.47,3.14,1.13,4.12,2.01.98.88,1.47,1.94,1.47,3.2,0,1.34-.38,2.39-1.13,3.14-.75.75-1.76,1.13-3.01,1.13-.83,0-1.69-.14-2.58-.41-.9-.27-1.84-.54-2.82-.8-.98-.26-2.03-.39-3.14-.39-1,0-1.75.14-2.26.43s-.77.66-.77,1.13c0,.57.34,1,1.02,1.27.68.27,1.81.6,3.37.98l2.39.53c1.96.46,3.69,1.02,5.17,1.68,1.48.66,2.63,1.52,3.46,2.58.82,1.07,1.24,2.46,1.24,4.18,0,2.08-.51,3.77-1.54,5.06-1.02,1.3-2.45,2.25-4.27,2.85-1.82.6-3.96.9-6.41.9Z"/>
        <path class="cls-1" d="m188.42,112.53c-1.31,0-2.38-.38-3.2-1.15-.83-.76-1.24-1.74-1.24-2.91v-21.69c0-1.2.41-2.21,1.22-3.03.81-.82,1.89-1.23,3.22-1.23,1.42,0,2.54.4,3.35,1.21.81.81,1.22,1.8,1.22,2.97v21.77c0,1.17-.43,2.15-1.3,2.91-.87.77-1.96,1.15-3.27,1.15Z"/>
        <path class="cls-1" d="m206.57,112.7c-2.28,0-4.26-.64-5.94-1.91-1.68-1.27-2.98-3.02-3.89-5.25-.91-2.23-1.37-4.75-1.37-7.56,0-2.62.41-4.93,1.22-6.91.81-1.98,1.92-3.63,3.33-4.96,1.41-1.33,3.05-2.32,4.91-2.99,1.86-.67,3.84-1,5.91-1,3.82,0,6.64.51,8.48,1.54,1.84,1.03,2.75,2.34,2.75,3.96,0,1.26-.33,2.36-1,3.32-.67.96-1.67,1.44-3.01,1.44-.91,0-1.77-.08-2.58-.25-.81-.16-1.64-.32-2.48-.47-.84-.15-1.77-.23-2.8-.23-2.25,0-3.86.62-4.85,1.84-.98,1.23-1.47,2.78-1.47,4.63,0,1.5.32,2.73.96,3.69.64.96,1.5,1.66,2.56,2.11,1.07.45,2.26.68,3.57.68,1.08,0,2.09-.23,3.03-.7.94-.46,1.54-1.33,1.79-2.58h-2.09c-1,0-1.77-.29-2.31-.88-.54-.59-.81-1.35-.81-2.28s.27-1.68.81-2.25c.54-.57,1.31-.86,2.31-.86h5.12c1.85,0,3.15.47,3.91,1.41.75.94,1.13,2.34,1.13,4.2v7.67c0,1.42-.4,2.5-1.2,3.24-.8.74-1.85,1.11-3.16,1.11-1.39,0-2.49-.37-3.29-1.11-.8-.74-1.2-1.82-1.2-3.24v-2.54h-.77c0,2.49-.66,4.3-1.96,5.43-1.31,1.13-3.06,1.7-5.25,1.7h-.38Z"/>
        <path class="cls-1" d="m230.27,112.45c-1.42,0-2.51-.42-3.25-1.27-.74-.85-1.11-1.98-1.11-3.4v-19.23c0-1.42.28-2.58.83-3.46.56-.89,1.28-1.54,2.18-1.95.9-.41,1.87-.61,2.93-.61,1.57,0,2.89.4,3.97,1.19,1.08.79,1.92,2.19,2.52,4.18l4.61,15.13h.68v-15.74c0-1.45.38-2.59,1.15-3.42.77-.83,1.86-1.25,3.29-1.25s2.58.42,3.31,1.25c.73.83,1.09,1.98,1.09,3.42v18.53c0,2.3-.53,3.99-1.58,5.08-1.05,1.09-2.54,1.64-4.44,1.64s-3.45-.49-4.53-1.48c-1.08-.98-1.91-2.43-2.48-4.35l-3.03-9.96c-.06-.27-.16-.53-.32-.76-.16-.23-.36-.35-.62-.35-.31,0-.53.12-.64.35-.11.23-.17.49-.17.76v11.03c0,1.42-.37,2.56-1.11,3.4-.74.85-1.84,1.27-3.29,1.27Z"/>
      </g>
    </g>
  </g>
</svg>