<?xml version="1.0" encoding="UTF-8"?>
<svg id="Capa_2" data-name="Capa 2" xmlns="http://www.w3.org/2000/svg" viewBox="0 0 754.75 244.93">
  <defs>
    <style>
      .cls-1 {
        fill: #fff;
      }
    </style>
  </defs>
  <g id="Capa_1-2" data-name="Capa 1">
    <g>
      <g>
        <path class="cls-1" d="m0,71.09V0h24.9c8.63,0,15.17,1.65,19.63,4.96,4.46,3.3,6.69,8.15,6.69,14.53,0,3.48-.9,6.55-2.69,9.2-1.79,2.65-4.28,4.6-7.47,5.83,3.65.91,6.52,2.75,8.62,5.52s3.15,6.15,3.15,10.16c0,6.84-2.18,12.01-6.54,15.53-4.36,3.52-10.58,5.31-18.65,5.37H0ZM14.65,29.79h10.84c7.39-.13,11.08-3.08,11.08-8.84,0-3.22-.94-5.54-2.81-6.96-1.87-1.42-4.83-2.12-8.86-2.12h-10.25v17.92Zm0,10.35v19.19h12.55c3.45,0,6.14-.82,8.08-2.47,1.94-1.64,2.91-3.91,2.91-6.81,0-6.51-3.37-9.81-10.11-9.91h-13.43Z"/>
        <path class="cls-1" d="m103.96,56.45h-25.68l-4.88,14.65h-15.58L84.28,0h13.57l26.61,71.09h-15.58l-4.93-14.65Zm-21.73-11.87h17.77l-8.94-26.61-8.84,26.61Z"/>
        <path class="cls-1" d="m157.42,45.07h-11.67v26.03h-14.65V0h26.42c8.4,0,14.88,1.87,19.43,5.62,4.56,3.74,6.84,9.03,6.84,15.87,0,4.85-1.05,8.89-3.15,12.13s-5.28,5.82-9.55,7.74l15.38,29.05v.68h-15.72l-13.33-26.03Zm-11.67-11.87h11.82c3.68,0,6.53-.94,8.54-2.81,2.02-1.87,3.03-4.45,3.03-7.74s-.95-5.99-2.86-7.91-4.83-2.88-8.76-2.88h-11.77v21.34Z"/>
        <path class="cls-1" d="m194.92,71.09V0h24.9c8.63,0,15.17,1.65,19.63,4.96,4.46,3.3,6.69,8.15,6.69,14.53,0,3.48-.9,6.55-2.69,9.2-1.79,2.65-4.28,4.6-7.47,5.83,3.65.91,6.52,2.75,8.62,5.52s3.15,6.15,3.15,10.16c0,6.84-2.18,12.01-6.54,15.53-4.36,3.52-10.58,5.31-18.65,5.37h-27.64Zm14.65-41.31h10.84c7.39-.13,11.08-3.08,11.08-8.84,0-3.22-.94-5.54-2.81-6.96-1.87-1.42-4.83-2.12-8.86-2.12h-10.25v17.92Zm0,10.35v19.19h12.55c3.45,0,6.14-.82,8.08-2.47,1.94-1.64,2.91-3.91,2.91-6.81,0-6.51-3.37-9.81-10.11-9.91h-13.43Z"/>
        <path class="cls-1" d="m274.32,71.09h-14.65V0h14.65v71.09Z"/>
        <path class="cls-1" d="m345.7,71.09h-14.65l-28.52-46.78v46.78h-14.65V0h14.65l28.56,46.88V0h14.6v71.09Z"/>
        <path class="cls-1" d="m374.07,71.09h-14.65V0h14.65v71.09Z"/>
        <path class="cls-1" d="m385.89,71.09c-.37,0-.68-.12-.92-.36s-.36-.55-.36-.92v-23.2c0-.37.12-.68.36-.92s.55-.36.92-.36h6.6c1.63,0,3.07.36,4.32,1.07,1.25.72,2.23,1.7,2.94,2.95s1.06,2.71,1.06,4.36-.35,3.03-1.06,4.27c-.7,1.24-1.68,2.22-2.94,2.94-1.25.71-2.69,1.07-4.32,1.07h-5.31v7.82c0,.37-.12.68-.36.92-.24.24-.55.36-.92.36Zm1.29-11.58h5.31c1.12,0,2.12-.25,3-.74.88-.49,1.57-1.18,2.06-2.06.5-.88.74-1.88.74-3s-.25-2.19-.74-3.07-1.18-1.57-2.06-2.08-1.88-.76-3-.76h-5.31v11.71Z"/>
        <path class="cls-1" d="m416.71,71.42c-1.91,0-3.67-.33-5.28-.99-1.61-.66-3-1.58-4.17-2.77-1.18-1.19-2.09-2.58-2.74-4.19-.65-1.61-.97-3.37-.97-5.28s.32-3.64.97-5.25c.65-1.61,1.56-3,2.74-4.19,1.18-1.19,2.57-2.11,4.17-2.77,1.61-.66,3.37-.99,5.28-.99s3.64.33,5.25.99c1.61.66,3,1.58,4.19,2.77,1.19,1.19,2.11,2.58,2.76,4.19.65,1.61.97,3.36.97,5.25s-.33,3.67-.97,5.28c-.65,1.61-1.57,3-2.76,4.19-1.19,1.19-2.58,2.11-4.19,2.77-1.61.66-3.36.99-5.25.99Zm0-2.44c1.52,0,2.93-.27,4.22-.81s2.43-1.3,3.38-2.28c.96-.98,1.7-2.12,2.23-3.43.53-1.31.79-2.73.79-4.27s-.26-2.93-.79-4.24-1.27-2.45-2.23-3.43c-.96-.98-2.08-1.74-3.38-2.28s-2.71-.81-4.22-.81-2.96.27-4.26.81c-1.3.54-2.43,1.3-3.38,2.28-.96.98-1.7,2.12-2.23,3.43s-.79,2.72-.79,4.24.26,2.96.79,4.27c.53,1.31,1.27,2.45,2.23,3.43.96.98,2.08,1.74,3.38,2.28,1.3.54,2.72.81,4.26.81Z"/>
        <path class="cls-1" d="m436.47,71.09c-.37,0-.68-.12-.92-.36-.24-.24-.36-.55-.36-.92v-23.2c0-.37.12-.68.36-.92.24-.24.55-.36.92-.36h6.17c1.61,0,3.04.34,4.29,1.01s2.24,1.61,2.95,2.8c.71,1.2,1.07,2.58,1.07,4.14s-.36,2.83-1.07,3.99-1.7,2.08-2.95,2.74c-1.25.66-2.68.99-4.29.99h-4.88v8.81c0,.37-.12.68-.36.92s-.55.36-.92.36Zm1.29-12.57h4.88c1.12,0,2.12-.23,2.99-.68.87-.45,1.56-1.07,2.06-1.86s.76-1.69.76-2.71c0-1.08-.25-2.03-.76-2.85s-1.19-1.47-2.06-1.93-1.86-.69-2.99-.69h-4.88v10.72Zm12.51,12.57c-.29,0-.51-.05-.68-.17s-.31-.28-.45-.5l-6.34-10.1,2.57-.66,5.91,9.44c.33.53.39.99.18,1.39-.21.4-.61.59-1.2.59Z"/>
        <path class="cls-1" d="m453.96,47.66c-.35,0-.64-.11-.86-.33s-.33-.5-.33-.83c0-.35.11-.64.33-.86.22-.22.51-.33.86-.33h18.25c.35,0,.64.11.86.33.22.22.33.51.33.86,0,.33-.11.61-.33.83s-.51.33-.86.33h-18.25Zm9.11,23.43c-.35,0-.65-.13-.91-.38s-.38-.56-.38-.91v-24.49h2.57v24.49c0,.35-.12.65-.36.91s-.55.38-.92.38Z"/>
        <path class="cls-1" d="m476.44,71.09c-.35,0-.66-.13-.91-.38s-.38-.56-.38-.91v-23.2c0-.37.12-.68.36-.92.24-.24.55-.36.92-.36h15.48c.37,0,.68.12.92.35s.36.53.36.91c0,.33-.12.62-.36.86s-.55.36-.92.36h-14.19v9.11h10.33c.37,0,.68.12.92.36.24.24.36.54.36.89s-.12.65-.36.89c-.24.24-.55.36-.92.36h-10.33v10.4c0,.35-.12.65-.36.91s-.55.38-.92.38Z"/>
        <path class="cls-1" d="m509.73,71.42c-1.91,0-3.67-.33-5.28-.99-1.61-.66-3-1.58-4.17-2.77-1.18-1.19-2.09-2.58-2.74-4.19-.65-1.61-.97-3.37-.97-5.28s.32-3.64.97-5.25c.65-1.61,1.56-3,2.74-4.19,1.18-1.19,2.57-2.11,4.17-2.77,1.61-.66,3.37-.99,5.28-.99s3.64.33,5.25.99c1.61.66,3,1.58,4.19,2.77,1.19,1.19,2.11,2.58,2.76,4.19.65,1.61.97,3.36.97,5.25s-.33,3.67-.97,5.28c-.65,1.61-1.57,3-2.76,4.19-1.19,1.19-2.58,2.11-4.19,2.77-1.61.66-3.36.99-5.25.99Zm0-2.44c1.52,0,2.93-.27,4.22-.81s2.43-1.3,3.38-2.28c.96-.98,1.7-2.12,2.23-3.43.53-1.31.79-2.73.79-4.27s-.26-2.93-.79-4.24-1.27-2.45-2.23-3.43c-.96-.98-2.08-1.74-3.38-2.28s-2.71-.81-4.22-.81-2.96.27-4.26.81c-1.3.54-2.43,1.3-3.38,2.28-.96.98-1.7,2.12-2.23,3.43s-.79,2.72-.79,4.24.26,2.96.79,4.27c.53,1.31,1.27,2.45,2.23,3.43.96.98,2.08,1.74,3.38,2.28,1.3.54,2.72.81,4.26.81Z"/>
        <path class="cls-1" d="m529.5,71.09c-.35,0-.66-.12-.91-.36-.25-.24-.38-.55-.38-.92v-23.2c0-.35.13-.65.38-.91.25-.25.55-.38.91-.38s.65.13.91.38.38.56.38.91v22.04h12.9c.35,0,.65.12.91.35.25.23.38.52.38.87s-.13.64-.38.88c-.25.23-.56.35-.91.35h-14.19Z"/>
        <path class="cls-1" d="m550.39,71.09c-.37,0-.68-.12-.92-.36-.24-.24-.36-.55-.36-.92v-23.2c0-.37.12-.68.36-.92.24-.24.55-.36.92-.36s.68.12.92.36.36.55.36.92v23.2c0,.37-.12.68-.36.92s-.55.36-.92.36Z"/>
        <path class="cls-1" d="m570.19,71.42c-1.91,0-3.67-.33-5.28-.99-1.61-.66-3-1.58-4.17-2.77-1.18-1.19-2.09-2.58-2.74-4.19-.65-1.61-.97-3.37-.97-5.28s.32-3.64.97-5.25c.65-1.61,1.56-3,2.74-4.19,1.18-1.19,2.57-2.11,4.17-2.77,1.61-.66,3.37-.99,5.28-.99s3.64.33,5.25.99c1.61.66,3,1.58,4.19,2.77,1.19,1.19,2.11,2.58,2.76,4.19.65,1.61.97,3.36.97,5.25s-.33,3.67-.97,5.28c-.65,1.61-1.57,3-2.76,4.19-1.19,1.19-2.58,2.11-4.19,2.77-1.61.66-3.36.99-5.25.99Zm0-2.44c1.52,0,2.93-.27,4.22-.81s2.43-1.3,3.38-2.28c.96-.98,1.7-2.12,2.23-3.43.53-1.31.79-2.73.79-4.27s-.26-2.93-.79-4.24-1.27-2.45-2.23-3.43c-.96-.98-2.08-1.74-3.38-2.28s-2.71-.81-4.22-.81-2.96.27-4.26.81c-1.3.54-2.43,1.3-3.38,2.28-.96.98-1.7,2.12-2.23,3.43s-.79,2.72-.79,4.24.26,2.96.79,4.27c.53,1.31,1.27,2.45,2.23,3.43.96.98,2.08,1.74,3.38,2.28,1.3.54,2.72.81,4.26.81Z"/>
      </g>
      <path class="cls-1" d="m696.56,162.44h-3.66c-.28-.11-.56-.2-.85-.26-.33-.08-.67-.11-.99-.21-.74-.23-1.47-.46-2.16-.82-.27-.14-.5-.33-.76-.46-.75-.37-1.4-.87-2.04-1.4-.7-.58-1.43-1.12-2.11-1.72-.78-.67-1.59-1.31-2.38-1.96-.72-.59-1.43-1.2-2.17-1.78-.47-.37-.92-.76-1.39-1.13-.76-.61-1.51-1.24-2.26-1.85-.57-.46-1.13-.92-1.69-1.39-.78-.65-1.56-1.3-2.35-1.94-.72-.59-1.44-1.2-2.18-1.77-.94-.73-1.83-1.53-2.76-2.27-.8-.63-1.58-1.27-2.45-1.81-.93-.57-1.91-1.03-2.95-1.35-.94-.29-1.9-.53-2.9-.52-.12,0-.24-.02-.36-.06-.2-.06-.4-.07-.6-.08-.63-.02-1.23.17-1.85.2-.27.01-.56.07-.84.14-.41.1-.83.11-1.23.25-.78.27-1.57.53-2.35.8-1.01.35-2.02.71-3.02,1.08-1.3.47-2.59.97-3.89,1.42-1.29.45-2.57.94-3.85,1.41-1.14.42-2.3.81-3.43,1.25-1.4.55-2.83,1.02-4.24,1.53-.94.34-1.88.69-2.82,1.03-1.09.4-2.19.79-3.28,1.19-.9.33-1.8.66-2.73.94-.51.15-1.01.3-1.54.38-.6.1-1.19.26-1.81.25-1.1-.02-2.19.08-3.29-.13-.44-.08-.89-.13-1.31-.26-1.35-.4-2.65-.92-3.83-1.74-1.01-.71-1.92-1.51-2.72-2.43-.96-1.11-1.7-2.38-2.23-3.75-.59-1.5-.95-3.04-.92-4.67.01-.76,0-1.52,0-2.28,0-.16,0-.33.03-.49.16-.78.26-1.57.47-2.34.2-.76.46-1.5.75-2.23.18-.46.39-.92.59-1.38.79-1.81,1.54-3.64,2.32-5.46.67-1.58,1.36-3.16,2.03-4.74.18-.41.32-.84.52-1.24.3-.61.51-1.25.81-1.86.17-.35.32-.72.47-1.08.45-1.07.89-2.15,1.35-3.22.37-.86.78-1.7,1.13-2.57.47-1.18.98-2.35,1.48-3.52.68-1.55,1.37-3.1,1.87-4.72.3-.95.59-1.91.6-2.93,0-.09,0-.2.04-.28.12-.31.11-.64.11-.96,0-.54,0-1.09,0-1.63,0-.14,0-.28-.03-.4-.18-.5-.15-1.04-.26-1.56-.15-.73-.35-1.45-.6-2.15-.33-.91-.76-1.8-1.28-2.63-.58-.95-1.2-1.88-1.76-2.83-.74-1.25-1.52-2.47-2.28-3.7-.65-1.05-1.34-2.07-1.95-3.14-.18-.32-.38-.63-.57-.94-.75-1.19-1.51-2.38-2.25-3.58-.44-.71-.88-1.43-1.32-2.15-.52-.84-1.06-1.67-1.58-2.51-.79-1.3-1.61-2.57-2.39-3.87-.51-.86-.92-1.75-1.26-2.68-.22-.61-.41-1.23-.5-1.88-.11-.82-.3-1.62-.28-2.45.01-.56,0-1.11,0-1.67,0-.15,0-.3.03-.45.18-.79.24-1.6.44-2.39.26-1,.6-1.97,1-2.92.21-.51.47-1,.73-1.49.6-1.13,1.3-2.21,2.13-3.17,1.43-1.65,3.05-3.12,4.99-4.18.93-.51,1.88-.95,2.88-1.3.7-.25,1.43-.42,2.16-.54.79-.13,1.57-.29,2.37-.28,1.83,0,3.66,0,5.49,0,.22,0,.44.03.65-.05.24-.09.48-.1.72-.1,4.1,0,8.19-.02,12.29-.03.15,0,.31.01.44-.03.33-.11.67-.11,1.01-.11,1.46,0,2.93,0,4.39-.02,1.46-.03,2.92.11,4.38-.14.46-.08.93-.09,1.4-.2,1.06-.23,2.09-.57,3.09-.98,1.1-.45,2.11-1.04,3.1-1.69.58-.38,1.13-.79,1.65-1.24.59-.52,1.12-1.1,1.68-1.66.14-.14.29-.29.41-.45.46-.59.9-1.19,1.36-1.78.75-.97,1.52-1.94,2.27-2.92.78-1.03,1.58-2.03,2.35-3.06.85-1.14,1.75-2.24,2.62-3.37,1.06-1.37,2.11-2.75,3.17-4.12.18-.24.35-.48.53-.72.48-.61.97-1.21,1.44-1.82.64-.84,1.27-1.69,1.92-2.52.66-.86,1.33-1.71,2-2.57.94-1.22,1.85-2.47,2.96-3.56.76-.74,1.52-1.47,2.39-2.07,1.05-.72,2.14-1.38,3.33-1.85.69-.28,1.39-.55,2.11-.74.77-.21,1.56-.36,2.36-.39.12,0,.24-.02.36-.06.22-.07.45-.09.68-.09.73,0,1.45.03,2.18.13.77.1,1.53.21,2.28.41,1.27.33,2.43.91,3.54,1.6.84.52,1.52,1.22,2.22,1.9.87.85,1.56,1.83,2.11,2.91.25.5.49,1,.68,1.52.21.57.44,1.14.53,1.75.07.43.14.85.22,1.28.09.44.19.87.29,1.31.18.8.29,1.62.47,2.42.27,1.13.48,2.28.69,3.42.13.72.3,1.43.4,2.15.05.33.11.67.17,1,.09.46.2.92.3,1.39.18.79.28,1.59.47,2.38.27,1.13.48,2.28.69,3.42.18,1,.42,1.98.56,2.99.05.32.08.65.17.96.3,1.07.43,2.17.66,3.26.23,1.07.45,2.15.74,3.21.34,1.25.86,2.43,1.58,3.51.4.6.79,1.2,1.3,1.71.67.65,1.34,1.3,2.11,1.84.68.48,1.41.86,2.16,1.21.81.38,1.68.6,2.53.87,1.12.36,2.25.68,3.38,1.04,1.13.36,2.28.69,3.42,1.03,1.5.45,2.99.96,4.5,1.38.72.2,1.41.47,2.12.68,1.05.31,2.11.59,3.14.98.56.21,1.15.32,1.71.5.45.15.89.36,1.35.45,1.05.22,2.06.59,3.07.91.94.29,1.91.51,2.81.95.47.23.98.39,1.44.65.78.44,1.5.96,2.2,1.52.76.61,1.4,1.32,1.97,2.1.63.87,1.18,1.78,1.57,2.79.35.91.69,1.82.82,2.8.05.37.15.74.16,1.12,0,.11.06.21.14.29v3.17c-.08.11-.13.23-.15.37-.05.67-.18,1.34-.31,2-.19.99-.54,1.93-.93,2.85-.51,1.2-1.14,2.34-1.9,3.4-.56.78-1.16,1.54-1.82,2.23-1.13,1.17-2.42,2.17-3.76,3.09-1.03.7-2.04,1.43-3.06,2.15-.9.63-1.79,1.27-2.69,1.9-1.35.95-2.71,1.9-4.05,2.86-.72.51-1.44,1.02-2.16,1.52-.61.43-1.22.85-1.83,1.28-1.13.8-2.26,1.6-3.38,2.4-1.13.8-2.24,1.61-3.39,2.38-.58.39-1.14.83-1.72,1.23-.97.65-1.91,1.34-2.79,2.1-1.06.93-2.01,1.97-2.82,3.13-.43.62-.86,1.25-1.21,1.92-.7,1.31-1.22,2.68-1.6,4.12-.2.73-.37,1.48-.44,2.23-.12,1.28-.34,2.55-.36,3.84,0,.08-.01.16-.04.24-.09.29-.11.59-.1.89.01.87-.23,1.72-.19,2.59,0,.07-.01.14-.04.2-.1.25-.1.5-.11.76,0,.34.04.68-.06,1.01-.08.28-.11.56-.1.84.02.91-.24,1.8-.19,2.71,0,.05,0,.11-.03.16-.13.35-.12.72-.12,1.09,0,.2.01.41-.03.61-.21.85-.11,1.73-.26,2.58-.1.58-.09,1.18-.17,1.77-.16,1.24-.26,2.48-.34,3.72-.06,1.01-.21,2.02-.28,3.03-.04.62-.07,1.24-.15,1.86-.07.54-.15,1.07-.15,1.62,0,.08-.01.16-.04.24-.16.48-.16.98-.25,1.48-.08.43-.15.85-.26,1.27-.34,1.3-.84,2.54-1.46,3.74-.57,1.1-1.27,2.11-2.05,3.08-.74.92-1.62,1.71-2.48,2.51-.24.23-.5.46-.78.64-.38.24-.75.49-1.12.74-.5.35-1.05.62-1.59.9-.48.25-.98.46-1.47.69-.76.35-1.55.56-2.36.71-.55.11-1.09.21-1.6.42Z"/>
      <g>
        <path class="cls-1" d="m260.76,244.4c-.35,0-.65-.13-.91-.38-.25-.25-.38-.56-.38-.91v-23.2c0-.37.13-.68.38-.92.25-.24.56-.36.91-.36.53,0,.91.22,1.16.66l11.12,22.11h-1.12l10.92-22.11c.26-.44.65-.66,1.15-.66.35,0,.65.12.89.36.24.24.36.55.36.92v23.2c0,.35-.12.65-.36.91-.24.25-.54.38-.89.38-.37,0-.69-.13-.94-.38s-.38-.56-.38-.91v-19.87l.56.03-9.73,19.9c-.24.42-.62.63-1.12.63-.55,0-.95-.26-1.19-.79l-9.8-19.6.66-.17v19.87c0,.35-.13.65-.38.91-.25.25-.56.38-.91.38Z"/>
        <path class="cls-1" d="m302.11,244.93c-2,0-3.78-.38-5.33-1.15-1.55-.77-2.76-1.84-3.63-3.2-.87-1.36-1.3-2.93-1.3-4.69v-15.97c0-.37.12-.68.36-.92.24-.24.55-.36.92-.36s.68.12.92.36c.24.24.36.55.36.92v15.97c0,1.3.32,2.44.97,3.43.65.99,1.56,1.77,2.72,2.33,1.17.56,2.5.84,3.99.84s2.78-.28,3.93-.84c1.14-.56,2.04-1.34,2.69-2.33.65-.99.97-2.13.97-3.43v-15.97c0-.37.12-.68.36-.92.24-.24.55-.36.92-.36.4,0,.71.12.94.36s.35.55.35.92v15.97c0,1.76-.43,3.32-1.3,4.69s-2.07,2.43-3.6,3.2c-1.53.77-3.28,1.15-5.26,1.15Z"/>
        <path class="cls-1" d="m326.27,244.4c-.35,0-.65-.13-.91-.38-.25-.25-.38-.56-.38-.91v-8.25l-8.98-14.22c-.22-.33-.3-.65-.25-.96.05-.31.19-.56.41-.76.22-.2.49-.3.82-.3.26,0,.48.06.64.17.17.11.31.26.45.46l8.91,14.36h-1.39l8.88-14.29c.15-.24.32-.42.51-.53.19-.11.41-.17.68-.17.31,0,.57.1.78.31.21.21.33.47.36.78.03.31-.05.62-.25.92l-9.01,14.22v8.25c0,.35-.13.65-.38.91-.25.25-.56.38-.91.38Z"/>
        <path class="cls-1" d="m351.21,244.4c-.37,0-.68-.12-.92-.36-.24-.24-.36-.55-.36-.92v-23.2c0-.37.12-.68.36-.92.24-.24.55-.36.92-.36h6.6c1.63,0,3.07.36,4.32,1.07,1.25.72,2.23,1.7,2.94,2.95s1.06,2.71,1.06,4.36-.35,3.03-1.06,4.27c-.7,1.24-1.68,2.22-2.94,2.94-1.25.71-2.69,1.07-4.32,1.07h-5.31v7.82c0,.37-.12.68-.36.92-.24.24-.55.36-.92.36Zm1.29-11.58h5.31c1.12,0,2.12-.25,3-.74.88-.49,1.57-1.18,2.06-2.06.5-.88.74-1.88.74-3s-.25-2.19-.74-3.07-1.18-1.57-2.06-2.08-1.88-.76-3-.76h-5.31v11.71Z"/>
        <path class="cls-1" d="m371.41,244.4c-.37,0-.68-.12-.92-.36-.24-.24-.36-.55-.36-.92v-23.2c0-.37.12-.68.36-.92.24-.24.55-.36.92-.36h6.17c1.61,0,3.04.34,4.29,1.01s2.24,1.61,2.95,2.8c.71,1.2,1.07,2.58,1.07,4.14s-.36,2.83-1.07,3.99c-.72,1.17-1.7,2.08-2.95,2.74-1.25.66-2.68.99-4.29.99h-4.88v8.81c0,.37-.12.68-.36.92-.24.24-.55.36-.92.36Zm1.29-12.57h4.88c1.12,0,2.12-.23,2.99-.68.87-.45,1.56-1.07,2.06-1.86.51-.79.76-1.69.76-2.71,0-1.08-.25-2.03-.76-2.85-.51-.83-1.19-1.47-2.06-1.93-.87-.46-1.86-.69-2.99-.69h-4.88v10.72Zm12.51,12.57c-.29,0-.51-.05-.68-.17s-.31-.28-.45-.5l-6.34-10.1,2.57-.66,5.91,9.44c.33.53.39.99.18,1.39-.21.4-.61.59-1.2.59Z"/>
        <path class="cls-1" d="m402.43,244.73c-1.91,0-3.67-.33-5.28-.99-1.61-.66-3-1.58-4.17-2.77-1.18-1.19-2.09-2.58-2.74-4.19-.65-1.61-.97-3.37-.97-5.28s.32-3.64.97-5.25c.65-1.61,1.56-3,2.74-4.19,1.18-1.19,2.57-2.11,4.17-2.77,1.61-.66,3.37-.99,5.28-.99s3.64.33,5.25.99c1.61.66,3,1.58,4.19,2.77,1.19,1.19,2.11,2.58,2.76,4.19.65,1.61.97,3.36.97,5.25s-.33,3.67-.97,5.28c-.65,1.61-1.57,3-2.76,4.19-1.19,1.19-2.58,2.11-4.19,2.77-1.61.66-3.36.99-5.25.99Zm0-2.44c1.52,0,2.93-.27,4.22-.81s2.43-1.3,3.38-2.28c.96-.98,1.7-2.12,2.23-3.43.53-1.31.79-2.73.79-4.27s-.26-2.93-.79-4.24-1.27-2.45-2.23-3.43c-.96-.98-2.08-1.74-3.38-2.28s-2.71-.81-4.22-.81-2.96.27-4.26.81c-1.3.54-2.43,1.3-3.38,2.28-.96.98-1.7,2.12-2.23,3.43s-.79,2.72-.79,4.24.26,2.96.79,4.27c.53,1.31,1.27,2.45,2.23,3.43.96.98,2.08,1.74,3.38,2.28,1.3.54,2.72.81,4.26.81Z"/>
        <path class="cls-1" d="m422.2,244.4c-.37,0-.68-.12-.92-.36-.24-.24-.36-.55-.36-.92v-23.2c0-.37.12-.68.36-.92.24-.24.55-.36.92-.36.4,0,.73.15.99.46l15.77,20.72v-19.9c0-.37.12-.68.36-.92s.55-.36.92-.36c.35,0,.65.12.91.36s.38.55.38.92v23.2c0,.37-.13.68-.38.92s-.56.36-.91.36c-.18,0-.35-.03-.53-.1-.18-.07-.32-.18-.43-.33l-15.81-20.72v19.87c0,.37-.13.68-.38.92s-.56.36-.91.36Z"/>
        <path class="cls-1" d="m446.52,220.97c-.35,0-.64-.11-.86-.33s-.33-.5-.33-.83c0-.35.11-.64.33-.86.22-.22.51-.33.86-.33h18.25c.35,0,.64.11.86.33.22.22.33.51.33.86,0,.33-.11.61-.33.83s-.51.33-.86.33h-18.25Zm9.11,23.43c-.35,0-.65-.13-.91-.38s-.38-.56-.38-.91v-24.49h2.57v24.49c0,.35-.12.65-.36.91s-.55.38-.92.38Z"/>
        <path class="cls-1" d="m480.01,244.73c-1.91,0-3.67-.33-5.28-.99-1.61-.66-3-1.58-4.17-2.77-1.18-1.19-2.09-2.58-2.74-4.19-.65-1.61-.97-3.37-.97-5.28s.32-3.64.97-5.25c.65-1.61,1.56-3,2.74-4.19,1.18-1.19,2.57-2.11,4.17-2.77,1.61-.66,3.37-.99,5.28-.99s3.64.33,5.25.99c1.61.66,3,1.58,4.19,2.77,1.19,1.19,2.11,2.58,2.76,4.19.65,1.61.97,3.36.97,5.25s-.33,3.67-.97,5.28c-.65,1.61-1.57,3-2.76,4.19-1.19,1.19-2.58,2.11-4.19,2.77-1.61.66-3.36.99-5.25.99Zm0-2.44c1.52,0,2.93-.27,4.22-.81s2.43-1.3,3.38-2.28c.96-.98,1.7-2.12,2.23-3.43.53-1.31.79-2.73.79-4.27s-.26-2.93-.79-4.24-1.27-2.45-2.23-3.43c-.96-.98-2.08-1.74-3.38-2.28s-2.71-.81-4.22-.81-2.96.27-4.26.81c-1.3.54-2.43,1.3-3.38,2.28-.96.98-1.7,2.12-2.23,3.43s-.79,2.72-.79,4.24.26,2.96.79,4.27c.53,1.31,1.27,2.45,2.23,3.43.96.98,2.08,1.74,3.38,2.28,1.3.54,2.72.81,4.26.81Z"/>
      </g>
    </g>
  </g>
</svg>