<?xml version="1.0" encoding="UTF-8"?>
<svg id="Capa_2" data-name="Capa 2" xmlns="http://www.w3.org/2000/svg" viewBox="0 0 381.41 108.7">
  <defs>
    <style>
      .cls-1 {
        fill: #fff;
      }
    </style>
  </defs>
  <g id="Capa_1-2" data-name="Capa 1">
    <g>
      <path class="cls-1" d="m0,71.09V0h25.39c8.8,0,15.47,1.65,20.01,4.96,4.55,3.3,6.82,8.15,6.82,14.53,0,3.48-.91,6.55-2.74,9.2-1.83,2.65-4.36,4.6-7.62,5.83,3.72.91,6.65,2.75,8.79,5.52s3.21,6.15,3.21,10.16c0,6.84-2.22,12.01-6.67,15.53-4.45,3.52-10.79,5.31-19.02,5.37H0ZM14.94,29.79h11.05c7.53-.13,11.3-3.08,11.3-8.84,0-3.22-.95-5.54-2.86-6.96-1.91-1.42-4.92-2.12-9.04-2.12h-10.45v17.92Zm0,10.35v19.19h12.79c3.52,0,6.26-.82,8.24-2.47,1.97-1.64,2.96-3.91,2.96-6.81,0-6.51-3.44-9.81-10.31-9.91h-13.69Z"/>
      <path class="cls-1" d="m105.99,56.45h-26.19l-4.98,14.65h-15.88L85.93,0h13.84l27.13,71.09h-15.88l-5.03-14.65Zm-22.15-11.87h18.12l-9.11-26.61-9.01,26.61Z"/>
      <path class="cls-1" d="m160.51,45.07h-11.9v26.03h-14.94V0h26.93c8.56,0,15.17,1.87,19.81,5.62,4.65,3.74,6.97,9.03,6.97,15.87,0,4.85-1.07,8.89-3.21,12.13s-5.39,5.82-9.73,7.74l15.68,29.05v.68h-16.03l-13.59-26.03Zm-11.9-11.87h12.05c3.75,0,6.65-.94,8.71-2.81,2.06-1.87,3.09-4.45,3.09-7.74s-.97-5.99-2.91-7.91-4.92-2.88-8.94-2.88h-12v21.34Z"/>
      <path class="cls-1" d="m198.74,71.09V0h25.39c8.8,0,15.47,1.65,20.01,4.96,4.55,3.3,6.82,8.15,6.82,14.53,0,3.48-.91,6.55-2.74,9.2-1.83,2.65-4.36,4.6-7.62,5.83,3.72.91,6.65,2.75,8.79,5.52s3.21,6.15,3.21,10.16c0,6.84-2.22,12.01-6.67,15.53-4.45,3.52-10.79,5.31-19.02,5.37h-28.18Zm14.94-41.31h11.05c7.53-.13,11.3-3.08,11.3-8.84,0-3.22-.95-5.54-2.86-6.96-1.91-1.42-4.92-2.12-9.04-2.12h-10.45v17.92Zm0,10.35v19.19h12.79c3.52,0,6.26-.82,8.24-2.47,1.97-1.64,2.96-3.91,2.96-6.81,0-6.51-3.44-9.81-10.31-9.91h-13.69Z"/>
      <path class="cls-1" d="m279.7,71.09h-14.94V0h14.94v71.09Z"/>
      <path class="cls-1" d="m352.48,71.09h-14.94l-29.07-46.78v46.78h-14.94V0h14.94l29.12,46.88V0h14.89v71.09Z"/>
      <path class="cls-1" d="m381.41,71.09h-14.94V0h14.94v71.09Z"/>
    </g>
    <g>
      <path class="cls-1" d="m259.8,108.51c-.53,0-.99-.18-1.37-.54s-.57-.8-.57-1.31.19-.98.58-1.34c.39-.36.84-.54,1.35-.54s.99.19,1.37.56.57.82.57,1.33-.18.92-.55,1.3c-.37.37-.83.56-1.38.56Z"/>
      <path class="cls-1" d="m274.54,108.16c-1.76,0-3.32-.39-4.68-1.17-1.37-.78-2.45-1.84-3.23-3.18-.79-1.34-1.18-2.86-1.18-4.54s.38-3.23,1.13-4.58c.75-1.34,1.79-2.41,3.1-3.18,1.31-.78,2.82-1.17,4.53-1.17,1.36,0,2.61.26,3.75.77,1.14.51,2.15,1.28,3.02,2.3.24.26.33.53.27.82-.07.29-.25.54-.57.75-.25.17-.52.23-.82.18-.3-.05-.56-.21-.78-.46-1.29-1.41-2.91-2.11-4.87-2.11-1.24,0-2.34.29-3.28.86-.94.58-1.68,1.37-2.2,2.37-.52,1-.78,2.16-.78,3.46s.28,2.42.83,3.42,1.33,1.79,2.33,2.37c1,.58,2.14.86,3.43.86.87,0,1.66-.11,2.38-.34.72-.22,1.36-.57,1.92-1.04.27-.21.54-.33.83-.35s.56.06.8.26c.27.23.42.5.45.8s-.07.55-.32.77c-1.62,1.43-3.64,2.14-6.07,2.14Z"/>
      <path class="cls-1" d="m294.54,108.16c-1.78,0-3.37-.38-4.77-1.15-1.4-.77-2.5-1.82-3.3-3.17s-1.2-2.87-1.2-4.58.4-3.26,1.2-4.61c.8-1.34,1.9-2.4,3.3-3.17,1.4-.77,2.99-1.15,4.77-1.15s3.36.38,4.75,1.15c1.39.77,2.48,1.82,3.28,3.17.8,1.34,1.21,2.88,1.23,4.61,0,1.71-.41,3.23-1.22,4.58-.81,1.34-1.91,2.4-3.3,3.17-1.39.77-2.97,1.15-4.75,1.15Zm0-2.24c1.29,0,2.44-.29,3.47-.86,1.02-.58,1.82-1.36,2.4-2.37.58-1,.87-2.14.87-3.42s-.29-2.43-.87-3.44c-.58-1.01-1.38-1.81-2.4-2.38-1.02-.58-2.18-.86-3.47-.86s-2.44.29-3.47.86c-1.02.58-1.83,1.37-2.42,2.38-.59,1.01-.88,2.16-.88,3.44s.29,2.42.88,3.42c.59,1,1.39,1.79,2.42,2.37,1.02.58,2.18.86,3.47.86Z"/>
      <path class="cls-1" d="m310.1,108c-.4,0-.72-.11-.95-.34s-.35-.52-.35-.88v-15.04c0-.36.12-.66.35-.9.23-.23.55-.35.95-.35.38,0,.68.12.92.35.23.24.35.53.35.9v15.04c0,.36-.12.66-.35.88s-.54.34-.92.34Zm11.7,0c-.38,0-.69-.11-.93-.34s-.37-.52-.37-.88v-9.22c0-1.51-.41-2.71-1.23-3.6-.82-.88-1.88-1.33-3.17-1.33-1.38,0-2.51.43-3.4,1.3-.89.86-1.33,1.99-1.33,3.38h-1.83c.04-1.36.36-2.58.95-3.63.59-1.06,1.39-1.88,2.42-2.48s2.18-.9,3.47-.9,2.47.3,3.48.9,1.8,1.44,2.37,2.53c.57,1.09.85,2.37.85,3.84v9.22c0,.36-.12.66-.35.88s-.54.34-.92.34Zm11.63,0c-.38,0-.69-.11-.93-.34-.25-.22-.37-.52-.37-.88v-9.22c0-1.51-.41-2.71-1.23-3.6-.82-.88-1.88-1.33-3.17-1.33-1.38,0-2.51.44-3.38,1.33-.88.89-1.31,2.06-1.28,3.54h-2.3c.02-1.43.34-2.69.97-3.78.62-1.09,1.48-1.93,2.57-2.53s2.32-.9,3.7-.9,2.47.3,3.48.9c1.01.6,1.8,1.44,2.37,2.53.57,1.09.85,2.37.85,3.84v9.22c0,.36-.12.66-.35.88s-.54.34-.92.34Z"/>
      <path class="cls-1" d="m340.97,108.51c-.53,0-.99-.18-1.37-.54s-.57-.8-.57-1.31.19-.98.58-1.34c.39-.36.84-.54,1.35-.54s.99.19,1.37.56.57.82.57,1.33-.18.92-.55,1.3c-.37.37-.83.56-1.38.56Z"/>
      <path class="cls-1" d="m355.6,108.16c-1.71,0-3.25-.39-4.6-1.17-1.36-.78-2.43-1.84-3.22-3.18-.79-1.34-1.18-2.86-1.18-4.54s.41-3.23,1.22-4.58c.81-1.34,1.92-2.41,3.32-3.18,1.4-.78,2.98-1.17,4.73-1.17s3.33.39,4.72,1.17c1.39.78,2.49,1.84,3.3,3.18.81,1.34,1.23,2.87,1.25,4.58l-1.03.77c0,1.54-.37,2.92-1.12,4.14-.75,1.23-1.76,2.2-3.03,2.91-1.28.71-2.73,1.07-4.35,1.07Zm.27-2.24c1.29,0,2.44-.29,3.45-.86,1.01-.58,1.81-1.37,2.4-2.38.59-1.01.88-2.15.88-3.41s-.29-2.42-.88-3.42c-.59-1-1.39-1.8-2.4-2.38-1.01-.59-2.16-.88-3.45-.88s-2.41.29-3.43.88c-1.02.59-1.83,1.38-2.43,2.38-.6,1-.9,2.14-.9,3.42s.3,2.4.9,3.41c.6,1.01,1.41,1.81,2.43,2.38,1.02.58,2.17.86,3.43.86Zm7.97,2.08c-.38,0-.69-.11-.93-.34-.24-.22-.37-.52-.37-.88v-5.47l.63-2.53,1.97.48v7.52c0,.36-.12.66-.37.88-.25.22-.56.34-.93.34Z"/>
      <path class="cls-1" d="m371.4,108c-.4,0-.71-.11-.93-.32-.22-.21-.33-.51-.33-.9v-15.07c0-.38.11-.68.33-.9.22-.21.53-.32.93-.32s.71.11.93.32c.22.21.33.51.33.9v15.07c0,.38-.11.68-.33.9-.22.21-.53.32-.93.32Zm-.2-10.78c.07-1.32.43-2.51,1.08-3.55.66-1.04,1.51-1.87,2.57-2.46,1.05-.6,2.23-.9,3.52-.9,1.02,0,1.81.14,2.37.42.56.28.77.68.63,1.22-.09.32-.24.53-.45.64s-.47.15-.77.13-.64-.04-1.02-.06c-1.25-.11-2.35.02-3.32.37-.97.35-1.73.89-2.3,1.62-.57.73-.85,1.59-.85,2.59h-1.47Z"/>
    </g>
    <g>
      <path class="cls-1" d="m12.45,108.58c-1.74,0-3.1-.41-4.1-1.23-1-.82-1.79-1.95-2.37-3.38-.58-1.44-1.13-3.07-1.64-4.9L.19,84.3c-.31-1.15-.24-2.22.21-3.22.46-1,1.35-1.66,2.69-1.99,1.25-.33,2.36-.25,3.33.25.97.49,1.62,1.35,1.96,2.58l3.84,13.49c.34,1.18.7,2.04,1.09,2.58.38.55,1,.72,1.86.53.8-.19,1.22-.62,1.28-1.27.06-.66-.09-1.58-.43-2.79l-2.73-9.96c-.37-1.37-.32-2.55.15-3.55s1.4-1.65,2.8-1.95c1.42-.33,2.57-.16,3.44.51.87.67,1.46,1.61,1.77,2.81l3.46,13.08c.37,1.34.78,2.24,1.22,2.71.44.46,1.02.6,1.73.41.8-.22,1.18-.65,1.15-1.29-.03-.64-.13-1.58-.3-2.81-.26-1.91-.48-3.48-.66-4.71-.19-1.23-.33-2.25-.43-3.07-.1-.82-.15-1.57-.15-2.26,0-1.53.47-2.83,1.41-3.92.94-1.08,2.22-1.62,3.84-1.62s2.9.49,3.76,1.46c.85.97,1.28,2.3,1.28,4,0,1.09-.16,2.24-.49,3.44-.33,1.2-.65,2.34-.96,3.4l-2.39,7.91c-.54,1.8-1.07,3.42-1.6,4.86-.53,1.43-1.23,2.57-2.11,3.4-.88.83-2.14,1.25-3.76,1.25-1.96,0-3.5-.59-4.61-1.76s-1.96-3.1-2.56-5.78h-.3c-.57,2.68-1.32,4.61-2.26,5.78-.94,1.17-2.36,1.76-4.27,1.76Z"/>
      <path class="cls-1" d="m50.54,108.37c-1.4,0-2.73-.12-3.99-.37-1.27-.25-2.38-.72-3.33-1.41-.95-.7-1.71-1.71-2.26-3.03-.56-1.33-.83-3.07-.83-5.23,0-1.94.27-3.61.81-5,.54-1.39,1.19-2.5,1.94-3.32.75-.82,1.44-1.33,2.07-1.52l-.21-.78h-.73c-1.31,0-2.34-.4-3.1-1.21-.75-.81-1.15-1.91-1.17-3.3-.03-1.37.35-2.46,1.13-3.28.78-.82,1.83-1.23,3.14-1.23h15.33c3.05,0,4.57,1.37,4.57,4.1,0,1.23-.37,2.21-1.11,2.95-.74.74-1.89,1.11-3.46,1.11h-8.84c-1.05,0-1.58.59-1.58,1.76v3.08c1.42-.3,2.91-.66,4.46-1.07s3.03-.62,4.42-.62,2.34.28,3.01.84c.67.56,1,1.32,1,2.28s-.33,1.76-1,2.32c-.67.56-1.67.85-3.01.88-1.4.03-2.88-.16-4.44-.57-1.57-.41-3.06-.76-4.48-1.07v5.37c0,.52.15.88.45,1.09s.78.13,1.43-.23c1.42-.79,2.82-1.43,4.19-1.91s2.7-.72,4.01-.72c1.85,0,3.25.46,4.21,1.39.95.93,1.43,2.15,1.43,3.65,0,1.61-.51,2.86-1.52,3.73s-2.64,1.31-4.89,1.31h-7.64Z"/>
      <path class="cls-1" d="m75.57,108.41c-1.31-.05-2.53-.23-3.65-.53-1.12-.3-2.11-.81-2.97-1.54-.85-.72-1.52-1.73-1.99-3.01-.47-1.28-.7-2.92-.7-4.92s.28-3.62.83-5.04c.56-1.42,1.22-2.56,1.99-3.4.77-.85,1.47-1.37,2.09-1.56l-.21-.78h-.73c-1.31,0-2.34-.4-3.1-1.21-.75-.81-1.15-1.89-1.17-3.26-.03-1.37.35-2.47,1.13-3.3.78-.83,1.83-1.25,3.14-1.25h11.75c3.07,0,5.3.7,6.66,2.11,1.37,1.41,2.05,3.23,2.05,5.47,0,1.8-.43,3.31-1.3,4.51-.87,1.2-2.17,1.93-3.91,2.17v.62c1.88.08,3.41.7,4.59,1.87,1.18,1.16,1.77,2.88,1.77,5.15,0,2.46-.74,4.41-2.22,5.84-1.48,1.43-3.92,2.14-7.3,2.11l-6.75-.04Zm-1.15-18.41c0,.6.11,1,.34,1.19.23.19.65.29,1.28.29h3.93c1.08,0,1.91-.16,2.48-.47.57-.31.85-.94.85-1.87s-.28-1.58-.85-1.89c-.57-.3-1.4-.45-2.48-.45h-3.93c-.63,0-1.05.08-1.28.25-.23.16-.34.56-.34,1.19v1.76Zm0,8.24c0,.6.12,1.01.36,1.23.24.22.69.33,1.35.33h4.4c1.11,0,1.96-.19,2.56-.57s.9-1.07.9-2.05-.3-1.66-.9-2.03-1.45-.55-2.56-.55h-4.4c-.66,0-1.1.1-1.35.29-.24.19-.36.59-.36,1.19v2.17Z"/>
      <path class="cls-1" d="m112.68,78.6c3.39,0,6.16.61,8.31,1.82,2.15,1.22,3.74,2.94,4.78,5.17,1.04,2.23,1.56,4.87,1.56,7.93,0,5.14-1.15,8.91-3.46,11.32-2.31,2.41-5.84,3.61-10.59,3.61h-1.88c-1.4,0-2.69-.14-3.89-.41-1.2-.27-2.25-.77-3.16-1.5-.91-.72-1.62-1.74-2.14-3.05-.51-1.31-.77-3.01-.77-5.08,0-1.94.28-3.62.83-5.04.56-1.42,1.22-2.56,1.99-3.4.77-.85,1.47-1.37,2.09-1.56l-.21-.78h-.73c-1.31,0-2.34-.4-3.1-1.21-.75-.81-1.15-1.89-1.17-3.26-.03-1.37.35-2.47,1.13-3.3.78-.83,1.83-1.25,3.14-1.25h7.26Zm-3.08,19.27c0,.57.13.97.41,1.19.27.22.68.33,1.22.33h2.31c1.45,0,2.58-.3,3.37-.9.8-.6,1.36-1.37,1.69-2.32.33-.94.49-1.95.49-3.01s-.16-2.09-.49-3.08c-.33-.98-.89-1.79-1.69-2.42-.8-.63-1.92-.94-3.37-.94h-2.31c-.54,0-.95.12-1.22.35-.27.23-.41.65-.41,1.25v9.55Z"/>
      <path class="cls-1" d="m140.19,108.37c-1.4,0-2.73-.12-3.99-.37-1.27-.25-2.38-.72-3.33-1.41-.95-.7-1.71-1.71-2.26-3.03-.56-1.33-.83-3.07-.83-5.23,0-1.94.27-3.61.81-5,.54-1.39,1.19-2.5,1.94-3.32.75-.82,1.44-1.33,2.07-1.52l-.21-.78h-.73c-1.31,0-2.34-.4-3.1-1.21-.75-.81-1.15-1.91-1.17-3.3-.03-1.37.35-2.46,1.13-3.28.78-.82,1.83-1.23,3.14-1.23h15.33c3.05,0,4.57,1.37,4.57,4.1,0,1.23-.37,2.21-1.11,2.95-.74.74-1.89,1.11-3.46,1.11h-8.84c-1.05,0-1.58.59-1.58,1.76v3.08c1.42-.3,2.91-.66,4.46-1.07s3.03-.62,4.42-.62,2.34.28,3.01.84c.67.56,1,1.32,1,2.28s-.33,1.76-1,2.32c-.67.56-1.67.85-3.01.88-1.4.03-2.88-.16-4.44-.57-1.57-.41-3.06-.76-4.48-1.07v5.37c0,.52.15.88.45,1.09s.78.13,1.43-.23c1.42-.79,2.82-1.43,4.19-1.91s2.7-.72,4.01-.72c1.85,0,3.25.46,4.21,1.39.95.93,1.43,2.15,1.43,3.65,0,1.61-.51,2.86-1.52,3.73s-2.64,1.31-4.89,1.31h-7.64Z"/>
      <path class="cls-1" d="m169.15,108.58c-1.6,0-3.2-.16-4.8-.47-1.61-.31-3.09-.78-4.44-1.39-1.35-.62-2.44-1.37-3.27-2.25-.83-.89-1.24-1.92-1.24-3.1,0-1.5.5-2.71,1.5-3.61,1-.9,2.16-1.33,3.5-1.27,1.05.03,2.11.24,3.16.63,1.05.4,2.13.79,3.22,1.17,1.1.38,2.2.57,3.31.57s1.88-.14,2.31-.41c.43-.27.64-.64.64-1.11,0-.55-.3-1-.9-1.35-.6-.36-1.35-.63-2.26-.82l-2.09-.49c-2.16-.49-4.1-1.04-5.81-1.66-1.71-.62-3.05-1.43-4.04-2.46-.98-1.03-1.47-2.4-1.47-4.12,0-1.89.54-3.42,1.62-4.61,1.08-1.19,2.55-2.06,4.4-2.6,1.85-.55,3.91-.82,6.19-.82s4.38.23,6.15.7c1.77.47,3.14,1.13,4.12,2.01.98.88,1.47,1.94,1.47,3.2,0,1.34-.38,2.39-1.13,3.14-.75.75-1.76,1.13-3.01,1.13-.83,0-1.69-.14-2.58-.41s-1.84-.54-2.82-.8c-.98-.26-2.03-.39-3.14-.39-1,0-1.75.14-2.26.43-.51.29-.77.66-.77,1.13,0,.57.34,1,1.02,1.27.68.27,1.81.6,3.37.98l2.39.53c1.96.46,3.69,1.02,5.17,1.68,1.48.66,2.63,1.52,3.46,2.58.83,1.07,1.24,2.46,1.24,4.18,0,2.08-.51,3.77-1.54,5.06-1.02,1.3-2.45,2.25-4.27,2.85-1.82.6-3.96.9-6.41.9Z"/>
      <path class="cls-1" d="m187.94,108.53c-1.31,0-2.38-.38-3.2-1.15-.83-.76-1.24-1.74-1.24-2.91v-21.69c0-1.2.41-2.21,1.22-3.03.81-.82,1.89-1.23,3.22-1.23,1.42,0,2.54.4,3.35,1.21.81.81,1.22,1.8,1.22,2.97v21.77c0,1.17-.43,2.15-1.3,2.91-.87.77-1.96,1.15-3.27,1.15Z"/>
      <path class="cls-1" d="m206.09,108.7c-2.28,0-4.26-.64-5.94-1.91-1.68-1.27-2.98-3.02-3.89-5.25-.91-2.23-1.37-4.75-1.37-7.56,0-2.62.41-4.93,1.22-6.91.81-1.98,1.92-3.63,3.33-4.96,1.41-1.33,3.05-2.32,4.91-2.99,1.86-.67,3.84-1,5.92-1,3.82,0,6.64.51,8.48,1.54,1.84,1.03,2.75,2.34,2.75,3.96,0,1.26-.33,2.36-1,3.32-.67.96-1.67,1.44-3.01,1.44-.91,0-1.77-.08-2.58-.25-.81-.16-1.64-.32-2.48-.47-.84-.15-1.77-.23-2.8-.23-2.25,0-3.86.62-4.85,1.84-.98,1.23-1.47,2.78-1.47,4.63,0,1.5.32,2.73.96,3.69.64.96,1.5,1.66,2.56,2.11,1.07.45,2.26.68,3.57.68,1.08,0,2.09-.23,3.03-.7.94-.46,1.54-1.33,1.79-2.58h-2.09c-1,0-1.77-.29-2.31-.88-.54-.59-.81-1.35-.81-2.28s.27-1.68.81-2.25c.54-.57,1.31-.86,2.31-.86h5.12c1.85,0,3.15.47,3.91,1.41.75.94,1.13,2.34,1.13,4.2v7.67c0,1.42-.4,2.5-1.2,3.24-.8.74-1.85,1.11-3.16,1.11-1.4,0-2.49-.37-3.29-1.11-.8-.74-1.2-1.82-1.2-3.24v-2.54h-.77c0,2.49-.66,4.3-1.96,5.43-1.31,1.13-3.06,1.7-5.25,1.7h-.38Z"/>
      <path class="cls-1" d="m229.79,108.45c-1.42,0-2.51-.42-3.25-1.27-.74-.85-1.11-1.98-1.11-3.4v-19.23c0-1.42.28-2.58.83-3.46.56-.89,1.28-1.54,2.18-1.95.9-.41,1.87-.61,2.93-.61,1.57,0,2.89.4,3.97,1.19,1.08.79,1.92,2.19,2.52,4.18l4.61,15.13h.68v-15.74c0-1.45.38-2.59,1.15-3.42.77-.83,1.86-1.25,3.29-1.25s2.58.42,3.31,1.25c.73.83,1.09,1.98,1.09,3.42v18.53c0,2.3-.53,3.99-1.58,5.08-1.05,1.09-2.53,1.64-4.44,1.64s-3.45-.49-4.53-1.48c-1.08-.98-1.91-2.43-2.48-4.35l-3.03-9.96c-.06-.27-.16-.53-.32-.76-.16-.23-.36-.35-.62-.35-.31,0-.53.12-.64.35-.11.23-.17.49-.17.76v11.03c0,1.42-.37,2.56-1.11,3.4-.74.85-1.84,1.27-3.29,1.27Z"/>
    </g>
  </g>
</svg>