<?xml version="1.0" encoding="UTF-8"?>
<svg id="Capa_2" data-name="Capa 2" xmlns="http://www.w3.org/2000/svg" viewBox="0 0 754.43 156.66">
  <defs>
    <style>
      .cls-1 {
        fill: #fff;
      }
    </style>
  </defs>
  <g id="Capa_1-2" data-name="Capa 1">
    <g>
      <path class="cls-1" d="m697.49,156.55h-3.58c-.27-.11-.55-.19-.83-.26-.32-.07-.65-.1-.97-.2-.72-.22-1.44-.45-2.12-.8-.26-.13-.49-.32-.75-.45-.73-.36-1.37-.85-2-1.37-.68-.57-1.39-1.1-2.07-1.68-.76-.66-1.55-1.28-2.33-1.92-.71-.58-1.4-1.18-2.12-1.74-.46-.36-.9-.74-1.36-1.11-.74-.6-1.47-1.21-2.21-1.81-.55-.45-1.11-.9-1.66-1.36-.76-.64-1.53-1.27-2.3-1.9-.71-.58-1.4-1.17-2.13-1.73-.92-.71-1.79-1.5-2.7-2.22-.78-.62-1.55-1.24-2.4-1.77-.91-.56-1.87-1.01-2.88-1.32-.92-.29-1.86-.52-2.84-.51-.12,0-.24-.02-.35-.06-.19-.06-.39-.07-.59-.08-.61-.02-1.2.17-1.81.2-.27.01-.55.07-.82.13-.4.1-.81.11-1.2.24-.76.26-1.53.51-2.3.78-.99.35-1.97.7-2.96,1.05-1.27.46-2.53.95-3.81,1.39-1.27.44-2.51.92-3.77,1.38-1.12.41-2.25.79-3.36,1.22-1.37.54-2.76,1-4.15,1.49-.92.33-1.84.67-2.76,1.01-1.07.39-2.14.77-3.21,1.17-.88.33-1.77.65-2.67.92-.49.15-.99.29-1.5.37-.59.09-1.17.25-1.77.24-1.07-.02-2.14.08-3.21-.12-.43-.08-.87-.13-1.28-.25-1.32-.39-2.59-.9-3.74-1.71-.99-.69-1.88-1.48-2.66-2.38-.94-1.09-1.66-2.33-2.19-3.67-.57-1.47-.93-2.98-.9-4.57.01-.74,0-1.49,0-2.23,0-.16,0-.32.03-.48.16-.76.26-1.54.46-2.29.2-.74.45-1.47.73-2.18.18-.45.38-.9.58-1.35.78-1.77,1.51-3.56,2.27-5.34.66-1.55,1.33-3.09,1.99-4.64.17-.4.31-.82.51-1.21.3-.59.5-1.23.79-1.82.17-.34.31-.7.46-1.06.44-1.05.87-2.11,1.32-3.15.36-.84.76-1.66,1.1-2.51.46-1.16.95-2.3,1.45-3.44.66-1.52,1.34-3.03,1.83-4.62.29-.93.58-1.87.59-2.87,0-.09,0-.19.04-.27.12-.31.11-.62.11-.94,0-.53,0-1.06,0-1.59,0-.13,0-.27-.03-.39-.17-.49-.15-1.02-.25-1.53-.15-.72-.34-1.42-.59-2.1-.33-.89-.75-1.76-1.25-2.57-.57-.93-1.17-1.83-1.72-2.77-.72-1.22-1.49-2.41-2.23-3.62-.63-1.03-1.31-2.02-1.91-3.07-.18-.31-.37-.61-.56-.92-.73-1.17-1.47-2.33-2.2-3.5-.43-.7-.86-1.4-1.29-2.1-.51-.82-1.04-1.63-1.54-2.46-.77-1.27-1.58-2.51-2.34-3.79-.5-.84-.9-1.71-1.23-2.62-.22-.6-.4-1.2-.49-1.84-.11-.8-.29-1.59-.27-2.4.01-.54,0-1.09,0-1.63,0-.15,0-.3.03-.44.17-.77.23-1.57.44-2.34.26-.98.59-1.92.98-2.85.21-.5.46-.98.71-1.46.59-1.11,1.27-2.16,2.08-3.1,1.4-1.62,2.98-3.05,4.88-4.09.91-.5,1.84-.93,2.82-1.28.69-.24,1.4-.41,2.12-.53.77-.13,1.53-.28,2.32-.28,1.79,0,3.58,0,5.37,0,.21,0,.43.03.63-.05.23-.09.47-.09.7-.09,4.01,0,8.02-.02,12.02-.02.15,0,.3.01.43-.03.32-.11.65-.1.98-.11,1.43,0,2.87,0,4.3-.02,1.43-.03,2.86.1,4.29-.13.45-.07.91-.09,1.37-.19,1.04-.23,2.04-.56,3.03-.96,1.07-.44,2.07-1.02,3.03-1.66.56-.37,1.11-.77,1.62-1.22.58-.51,1.1-1.07,1.64-1.62.14-.14.28-.28.4-.44.45-.58.88-1.16,1.33-1.74.74-.95,1.49-1.89,2.22-2.86.76-1,1.55-1.99,2.3-3,.83-1.12,1.71-2.19,2.56-3.29,1.04-1.34,2.07-2.69,3.1-4.03.18-.23.34-.47.52-.7.47-.59.94-1.18,1.41-1.78.63-.82,1.25-1.65,1.88-2.47.65-.84,1.31-1.67,1.95-2.51.92-1.19,1.81-2.42,2.9-3.48.74-.72,1.48-1.44,2.34-2.02,1.03-.71,2.09-1.35,3.25-1.81.68-.27,1.36-.54,2.06-.73.75-.2,1.52-.35,2.31-.38.12,0,.24-.02.35-.06.22-.07.44-.09.67-.09.71,0,1.42.03,2.14.12.75.1,1.5.21,2.23.4,1.24.32,2.38.89,3.46,1.56.82.51,1.49,1.19,2.17,1.86.85.83,1.52,1.79,2.07,2.85.25.49.47.98.67,1.49.21.56.43,1.11.52,1.71.07.42.14.83.22,1.25.08.43.19.85.28,1.28.17.79.28,1.59.46,2.37.26,1.11.47,2.23.67,3.35.13.7.3,1.4.4,2.11.05.32.1.65.17.98.09.45.19.9.29,1.36.18.77.27,1.56.46,2.33.26,1.11.47,2.23.68,3.35.18.97.41,1.94.55,2.92.05.31.08.63.17.94.3,1.05.42,2.13.65,3.19.22,1.05.44,2.1.73,3.14.33,1.22.84,2.37,1.55,3.43.39.58.77,1.18,1.28,1.67.65.64,1.31,1.27,2.07,1.8.67.47,1.38.84,2.11,1.18.79.37,1.65.58,2.48.85,1.1.35,2.21.67,3.3,1.02,1.11.36,2.23.68,3.34,1.01,1.47.44,2.92.94,4.41,1.35.7.19,1.38.46,2.08.66,1.03.3,2.07.58,3.07.95.55.2,1.12.31,1.68.49.44.14.87.35,1.32.44,1.03.21,2.01.58,3.01.89.92.29,1.87.5,2.75.93.46.22.96.38,1.41.63.77.43,1.47.94,2.15,1.49.74.6,1.37,1.29,1.92,2.05.62.85,1.16,1.74,1.53,2.73.34.89.67,1.78.8,2.74.05.37.15.72.15,1.1,0,.11.06.2.14.28v3.11c-.08.11-.13.23-.14.37-.05.66-.18,1.31-.31,1.96-.19.97-.53,1.89-.91,2.79-.5,1.18-1.12,2.29-1.86,3.33-.55.77-1.13,1.51-1.79,2.18-1.11,1.15-2.37,2.12-3.68,3.02-1.01.69-2,1.4-2.99,2.1-.88.62-1.75,1.24-2.63,1.86-1.32.93-2.65,1.86-3.96,2.8-.7.5-1.41,1-2.11,1.49-.6.42-1.2.83-1.79,1.26-1.1.78-2.21,1.56-3.31,2.34-1.1.78-2.19,1.58-3.31,2.33-.57.38-1.11.81-1.69,1.2-.94.64-1.87,1.31-2.73,2.06-1.04.91-1.97,1.93-2.76,3.07-.42.61-.84,1.23-1.19,1.88-.69,1.28-1.2,2.63-1.57,4.03-.19.72-.36,1.44-.43,2.18-.12,1.25-.34,2.5-.35,3.76,0,.08-.01.16-.04.24-.09.28-.1.57-.1.87.01.85-.23,1.68-.18,2.53,0,.06-.01.13-.04.19-.1.24-.1.49-.1.74,0,.33.03.67-.06.99-.08.27-.1.55-.1.83.02.89-.24,1.76-.18,2.65,0,.05,0,.11-.03.16-.13.34-.11.7-.12,1.06,0,.2.01.4-.03.59-.2.83-.1,1.69-.25,2.53-.1.57-.09,1.16-.17,1.74-.15,1.21-.26,2.43-.33,3.64-.06.99-.2,1.98-.28,2.97-.04.6-.07,1.22-.15,1.82-.07.53-.14,1.05-.14,1.58,0,.08-.01.16-.03.24-.16.47-.16.96-.25,1.44-.08.42-.15.84-.26,1.24-.33,1.27-.82,2.49-1.43,3.66-.56,1.07-1.25,2.07-2,3.01-.72.9-1.58,1.67-2.42,2.46-.24.22-.49.45-.77.63-.37.24-.73.48-1.09.72-.49.34-1.03.61-1.55.88-.47.25-.96.45-1.44.67-.74.34-1.52.55-2.31.7-.53.1-1.06.2-1.57.41Z"/>
      <g>
        <g>
          <path class="cls-1" d="m2.1,71.21V.11h24.9c8.63,0,15.17,1.65,19.63,4.96,4.46,3.3,6.69,8.15,6.69,14.53,0,3.48-.9,6.55-2.69,9.2-1.79,2.65-4.28,4.6-7.47,5.83,3.65.91,6.52,2.75,8.62,5.52s3.15,6.15,3.15,10.16c0,6.84-2.18,12.01-6.54,15.53-4.36,3.52-10.58,5.31-18.65,5.37H2.1Zm14.65-41.31h10.84c7.39-.13,11.08-3.08,11.08-8.84,0-3.22-.94-5.54-2.81-6.96-1.87-1.42-4.83-2.12-8.86-2.12h-10.25v17.92Zm0,10.35v19.19h12.55c3.45,0,6.14-.82,8.08-2.47,1.94-1.64,2.91-3.91,2.91-6.81,0-6.51-3.37-9.81-10.11-9.91h-13.43Z"/>
          <path class="cls-1" d="m106.05,56.56h-25.68l-4.88,14.65h-15.58L86.37.11h13.57l26.61,71.09h-15.58l-4.93-14.65Zm-21.73-11.87h17.77l-8.94-26.61-8.84,26.61Z"/>
          <path class="cls-1" d="m159.52,45.18h-11.67v26.03h-14.65V.11h26.42c8.4,0,14.88,1.87,19.43,5.62,4.56,3.74,6.84,9.03,6.84,15.87,0,4.85-1.05,8.89-3.15,12.13s-5.28,5.82-9.55,7.74l15.38,29.05v.68h-15.72l-13.33-26.03Zm-11.67-11.87h11.82c3.68,0,6.53-.94,8.54-2.81,2.02-1.87,3.03-4.45,3.03-7.74s-.95-5.99-2.86-7.91-4.83-2.88-8.76-2.88h-11.77v21.34Z"/>
          <path class="cls-1" d="m197.02,71.21V.11h24.9c8.63,0,15.17,1.65,19.63,4.96,4.46,3.3,6.69,8.15,6.69,14.53,0,3.48-.9,6.55-2.69,9.2-1.79,2.65-4.28,4.6-7.47,5.83,3.65.91,6.52,2.75,8.62,5.52s3.15,6.15,3.15,10.16c0,6.84-2.18,12.01-6.54,15.53-4.36,3.52-10.58,5.31-18.65,5.37h-27.64Zm14.65-41.31h10.84c7.39-.13,11.08-3.08,11.08-8.84,0-3.22-.94-5.54-2.81-6.96-1.87-1.42-4.83-2.12-8.86-2.12h-10.25v17.92Zm0,10.35v19.19h12.55c3.45,0,6.14-.82,8.08-2.47,1.94-1.64,2.91-3.91,2.91-6.81,0-6.51-3.37-9.81-10.11-9.91h-13.43Z"/>
          <path class="cls-1" d="m276.41,71.21h-14.65V.11h14.65v71.09Z"/>
          <path class="cls-1" d="m347.8,71.21h-14.65l-28.52-46.78v46.78h-14.65V.11h14.65l28.56,46.88V.11h14.6v71.09Z"/>
          <path class="cls-1" d="m376.17,71.21h-14.65V.11h14.65v71.09Z"/>
          <path class="cls-1" d="m387.98,71.21c-.37,0-.68-.12-.92-.36s-.36-.55-.36-.92v-23.2c0-.37.12-.68.36-.92s.55-.36.92-.36h6.6c1.63,0,3.07.36,4.32,1.07,1.25.72,2.23,1.7,2.94,2.95s1.06,2.71,1.06,4.36-.35,3.03-1.06,4.27c-.7,1.24-1.68,2.22-2.94,2.94-1.25.71-2.69,1.07-4.32,1.07h-5.31v7.82c0,.37-.12.68-.36.92-.24.24-.55.36-.92.36Zm1.29-11.58h5.31c1.12,0,2.12-.25,3-.74.88-.49,1.57-1.18,2.06-2.06.5-.88.74-1.88.74-3s-.25-2.19-.74-3.07-1.18-1.57-2.06-2.08-1.88-.76-3-.76h-5.31v11.71Z"/>
          <path class="cls-1" d="m418.8,71.54c-1.91,0-3.67-.33-5.28-.99-1.61-.66-3-1.58-4.17-2.77-1.18-1.19-2.09-2.58-2.74-4.19-.65-1.61-.97-3.37-.97-5.28s.32-3.64.97-5.25c.65-1.61,1.56-3,2.74-4.19,1.18-1.19,2.57-2.11,4.17-2.77,1.61-.66,3.37-.99,5.28-.99s3.64.33,5.25.99c1.61.66,3,1.58,4.19,2.77,1.19,1.19,2.11,2.58,2.76,4.19.65,1.61.97,3.36.97,5.25s-.33,3.67-.97,5.28c-.65,1.61-1.57,3-2.76,4.19-1.19,1.19-2.58,2.11-4.19,2.77-1.61.66-3.36.99-5.25.99Zm0-2.44c1.52,0,2.93-.27,4.22-.81s2.43-1.3,3.38-2.28c.96-.98,1.7-2.12,2.23-3.43.53-1.31.79-2.73.79-4.27s-.26-2.93-.79-4.24-1.27-2.45-2.23-3.43c-.96-.98-2.08-1.74-3.38-2.28s-2.71-.81-4.22-.81-2.96.27-4.26.81c-1.3.54-2.43,1.3-3.38,2.28-.96.98-1.7,2.12-2.23,3.43s-.79,2.72-.79,4.24.26,2.96.79,4.27c.53,1.31,1.27,2.45,2.23,3.43.96.98,2.08,1.74,3.38,2.28,1.3.54,2.72.81,4.26.81Z"/>
          <path class="cls-1" d="m438.57,71.21c-.37,0-.68-.12-.92-.36-.24-.24-.36-.55-.36-.92v-23.2c0-.37.12-.68.36-.92.24-.24.55-.36.92-.36h6.17c1.61,0,3.04.34,4.29,1.01s2.24,1.61,2.95,2.8c.71,1.2,1.07,2.58,1.07,4.14s-.36,2.83-1.07,3.99-1.7,2.08-2.95,2.74c-1.25.66-2.68.99-4.29.99h-4.88v8.81c0,.37-.12.68-.36.92s-.55.36-.92.36Zm1.29-12.57h4.88c1.12,0,2.12-.23,2.99-.68.87-.45,1.56-1.07,2.06-1.86s.76-1.69.76-2.71c0-1.08-.25-2.03-.76-2.85s-1.19-1.47-2.06-1.93-1.86-.69-2.99-.69h-4.88v10.72Zm12.51,12.57c-.29,0-.51-.05-.68-.17s-.31-.28-.45-.5l-6.34-10.1,2.57-.66,5.91,9.44c.33.53.39.99.18,1.39-.21.4-.61.59-1.2.59Z"/>
          <path class="cls-1" d="m456.06,47.78c-.35,0-.64-.11-.86-.33s-.33-.5-.33-.83c0-.35.11-.64.33-.86.22-.22.51-.33.86-.33h18.25c.35,0,.64.11.86.33.22.22.33.51.33.86,0,.33-.11.61-.33.83s-.51.33-.86.33h-18.25Zm9.11,23.43c-.35,0-.65-.13-.91-.38s-.38-.56-.38-.91v-24.49h2.57v24.49c0,.35-.12.65-.36.91s-.55.38-.92.38Z"/>
          <path class="cls-1" d="m478.53,71.21c-.35,0-.66-.13-.91-.38s-.38-.56-.38-.91v-23.2c0-.37.12-.68.36-.92.24-.24.55-.36.92-.36h15.48c.37,0,.68.12.92.35s.36.53.36.91c0,.33-.12.62-.36.86s-.55.36-.92.36h-14.19v9.11h10.33c.37,0,.68.12.92.36.24.24.36.54.36.89s-.12.65-.36.89c-.24.24-.55.36-.92.36h-10.33v10.4c0,.35-.12.65-.36.91s-.55.38-.92.38Z"/>
          <path class="cls-1" d="m511.83,71.54c-1.91,0-3.67-.33-5.28-.99-1.61-.66-3-1.58-4.17-2.77-1.18-1.19-2.09-2.58-2.74-4.19-.65-1.61-.97-3.37-.97-5.28s.32-3.64.97-5.25c.65-1.61,1.56-3,2.74-4.19,1.18-1.19,2.57-2.11,4.17-2.77,1.61-.66,3.37-.99,5.28-.99s3.64.33,5.25.99c1.61.66,3,1.58,4.19,2.77,1.19,1.19,2.11,2.58,2.76,4.19.65,1.61.97,3.36.97,5.25s-.33,3.67-.97,5.28c-.65,1.61-1.57,3-2.76,4.19-1.19,1.19-2.58,2.11-4.19,2.77-1.61.66-3.36.99-5.25.99Zm0-2.44c1.52,0,2.93-.27,4.22-.81s2.43-1.3,3.38-2.28c.96-.98,1.7-2.12,2.23-3.43.53-1.31.79-2.73.79-4.27s-.26-2.93-.79-4.24-1.27-2.45-2.23-3.43c-.96-.98-2.08-1.74-3.38-2.28s-2.71-.81-4.22-.81-2.96.27-4.26.81c-1.3.54-2.43,1.3-3.38,2.28-.96.98-1.7,2.12-2.23,3.43s-.79,2.72-.79,4.24.26,2.96.79,4.27c.53,1.31,1.27,2.45,2.23,3.43.96.98,2.08,1.74,3.38,2.28,1.3.54,2.72.81,4.26.81Z"/>
          <path class="cls-1" d="m531.6,71.21c-.35,0-.66-.12-.91-.36-.25-.24-.38-.55-.38-.92v-23.2c0-.35.13-.65.38-.91.25-.25.55-.38.91-.38s.65.13.91.38.38.56.38.91v22.04h12.9c.35,0,.65.12.91.35.25.23.38.52.38.87s-.13.64-.38.88c-.25.23-.56.35-.91.35h-14.19Z"/>
          <path class="cls-1" d="m552.49,71.21c-.37,0-.68-.12-.92-.36-.24-.24-.36-.55-.36-.92v-23.2c0-.37.12-.68.36-.92.24-.24.55-.36.92-.36s.68.12.92.36.36.55.36.92v23.2c0,.37-.12.68-.36.92s-.55.36-.92.36Z"/>
          <path class="cls-1" d="m572.29,71.54c-1.91,0-3.67-.33-5.28-.99-1.61-.66-3-1.58-4.17-2.77-1.18-1.19-2.09-2.58-2.74-4.19-.65-1.61-.97-3.37-.97-5.28s.32-3.64.97-5.25c.65-1.61,1.56-3,2.74-4.19,1.18-1.19,2.57-2.11,4.17-2.77,1.61-.66,3.37-.99,5.28-.99s3.64.33,5.25.99c1.61.66,3,1.58,4.19,2.77,1.19,1.19,2.11,2.58,2.76,4.19.65,1.61.97,3.36.97,5.25s-.33,3.67-.97,5.28c-.65,1.61-1.57,3-2.76,4.19-1.19,1.19-2.58,2.11-4.19,2.77-1.61.66-3.36.99-5.25.99Zm0-2.44c1.52,0,2.93-.27,4.22-.81s2.43-1.3,3.38-2.28c.96-.98,1.7-2.12,2.23-3.43.53-1.31.79-2.73.79-4.27s-.26-2.93-.79-4.24-1.27-2.45-2.23-3.43c-.96-.98-2.08-1.74-3.38-2.28s-2.71-.81-4.22-.81-2.96.27-4.26.81c-1.3.54-2.43,1.3-3.38,2.28-.96.98-1.7,2.12-2.23,3.43s-.79,2.72-.79,4.24.26,2.96.79,4.27c.53,1.31,1.27,2.45,2.23,3.43.96.98,2.08,1.74,3.38,2.28,1.3.54,2.72.81,4.26.81Z"/>
        </g>
        <g>
          <path class="cls-1" d="m29.15,156.36c-4.07,0-7.27-1-9.6-3-2.33-2-4.18-4.75-5.55-8.25-1.37-3.5-2.65-7.48-3.85-11.95L.45,97.16c-.73-2.8-.57-5.42.5-7.85,1.07-2.43,3.17-4.05,6.3-4.85,2.93-.8,5.53-.6,7.8.6,2.27,1.2,3.8,3.3,4.6,6.3l9,32.9c.8,2.87,1.65,4.97,2.55,6.3.9,1.33,2.35,1.77,4.35,1.3,1.87-.47,2.87-1.5,3-3.1.13-1.6-.2-3.87-1-6.8l-6.4-24.3c-.87-3.33-.75-6.22.35-8.65s3.28-4.02,6.55-4.75c3.33-.8,6.02-.38,8.05,1.25,2.03,1.63,3.42,3.92,4.15,6.85l8.1,31.9c.87,3.27,1.82,5.47,2.85,6.6,1.03,1.13,2.38,1.47,4.05,1,1.87-.53,2.77-1.58,2.7-3.15-.07-1.57-.3-3.85-.7-6.85-.6-4.67-1.12-8.5-1.55-11.5-.43-3-.77-5.5-1-7.5-.23-2-.35-3.83-.35-5.5,0-3.73,1.1-6.92,3.3-9.55,2.2-2.63,5.2-3.95,9-3.95s6.8,1.18,8.8,3.55c2,2.37,3,5.62,3,9.75,0,2.67-.38,5.47-1.15,8.4-.77,2.93-1.52,5.7-2.25,8.3l-5.6,19.3c-1.27,4.4-2.52,8.35-3.75,11.85-1.23,3.5-2.88,6.27-4.95,8.3-2.07,2.03-5,3.05-8.8,3.05-4.6,0-8.2-1.43-10.8-4.3-2.6-2.87-4.6-7.57-6-14.1h-.7c-1.33,6.54-3.1,11.23-5.3,14.1-2.2,2.87-5.53,4.3-10,4.3Z"/>
          <path class="cls-1" d="m118.35,155.86c-3.27,0-6.38-.3-9.35-.9-2.97-.6-5.57-1.75-7.8-3.45-2.23-1.7-4-4.17-5.3-7.4-1.3-3.23-1.95-7.48-1.95-12.75,0-4.73.63-8.8,1.9-12.2,1.27-3.4,2.78-6.1,4.55-8.1,1.77-2,3.38-3.23,4.85-3.7l-.5-1.9h-1.7c-3.07,0-5.48-.98-7.25-2.95-1.77-1.97-2.68-4.65-2.75-8.05-.07-3.33.82-6,2.65-8,1.83-2,4.28-3,7.35-3h35.9c7.13,0,10.7,3.33,10.7,10,0,3-.87,5.4-2.6,7.2-1.73,1.8-4.43,2.7-8.1,2.7h-20.7c-2.47,0-3.7,1.43-3.7,4.3v7.5c3.33-.73,6.82-1.6,10.45-2.6,3.63-1,7.08-1.5,10.35-1.5s5.48.68,7.05,2.05c1.57,1.37,2.35,3.22,2.35,5.55s-.78,4.28-2.35,5.65c-1.57,1.37-3.92,2.08-7.05,2.15-3.27.07-6.73-.4-10.4-1.4-3.67-1-7.17-1.87-10.5-2.6v13.1c0,1.27.35,2.15,1.05,2.65s1.82.32,3.35-.55c3.33-1.93,6.6-3.48,9.8-4.65,3.2-1.17,6.33-1.75,9.4-1.75,4.33,0,7.62,1.13,9.85,3.4,2.23,2.27,3.35,5.23,3.35,8.9,0,3.93-1.18,6.97-3.55,9.1-2.37,2.13-6.18,3.2-11.45,3.2h-17.9Z"/>
          <path class="cls-1" d="m176.95,155.96c-3.07-.13-5.92-.57-8.55-1.3-2.63-.73-4.95-1.98-6.95-3.75-2-1.77-3.55-4.22-4.65-7.35-1.1-3.13-1.65-7.13-1.65-12s.65-8.83,1.95-12.3c1.3-3.47,2.85-6.23,4.65-8.3,1.8-2.07,3.43-3.33,4.9-3.8l-.5-1.9h-1.7c-3.07,0-5.48-.98-7.25-2.95-1.77-1.97-2.68-4.62-2.75-7.95-.07-3.33.82-6.02,2.65-8.05,1.83-2.03,4.28-3.05,7.35-3.05h27.5c7.2,0,12.4,1.72,15.6,5.15,3.2,3.43,4.8,7.88,4.8,13.35,0,4.4-1.02,8.07-3.05,11-2.03,2.93-5.08,4.7-9.15,5.3v1.5c4.4.2,7.98,1.72,10.75,4.55,2.77,2.83,4.15,7.02,4.15,12.55,0,6-1.73,10.75-5.2,14.25-3.47,3.5-9.17,5.22-17.1,5.15l-15.8-.1Zm-2.7-44.9c0,1.47.27,2.43.8,2.9.53.47,1.53.7,3,.7h9.2c2.53,0,4.47-.38,5.8-1.15,1.33-.77,2-2.28,2-4.55s-.67-3.87-2-4.6c-1.33-.73-3.27-1.1-5.8-1.1h-9.2c-1.47,0-2.47.2-3,.6-.53.4-.8,1.37-.8,2.9v4.3Zm0,20.1c0,1.47.28,2.47.85,3,.57.53,1.62.8,3.15.8h10.3c2.6,0,4.6-.46,6-1.4,1.4-.93,2.1-2.6,2.1-5s-.7-4.05-2.1-4.95-3.4-1.35-6-1.35h-10.3c-1.53,0-2.58.23-3.15.7-.57.47-.85,1.43-.85,2.9v5.3Z"/>
          <path class="cls-1" d="m263.85,83.26c7.93,0,14.42,1.48,19.45,4.45,5.03,2.97,8.77,7.17,11.2,12.6,2.43,5.43,3.65,11.88,3.65,19.35,0,12.53-2.7,21.73-8.1,27.6-5.4,5.87-13.67,8.8-24.8,8.8h-4.4c-3.27,0-6.3-.33-9.1-1-2.8-.67-5.27-1.88-7.4-3.65-2.13-1.77-3.8-4.25-5-7.45-1.2-3.2-1.8-7.33-1.8-12.4,0-4.73.65-8.83,1.95-12.3,1.3-3.47,2.85-6.23,4.65-8.3,1.8-2.07,3.43-3.33,4.9-3.8l-.5-1.9h-1.7c-3.07,0-5.48-.98-7.25-2.95-1.77-1.97-2.68-4.62-2.75-7.95-.07-3.33.82-6.02,2.65-8.05,1.83-2.03,4.28-3.05,7.35-3.05h17Zm-7.2,47c0,1.4.32,2.37.95,2.9.63.53,1.58.8,2.85.8h5.4c3.4,0,6.03-.73,7.9-2.2,1.87-1.47,3.18-3.35,3.95-5.65.77-2.3,1.15-4.75,1.15-7.35s-.38-5.1-1.15-7.5c-.77-2.4-2.08-4.37-3.95-5.9-1.87-1.53-4.5-2.3-7.9-2.3h-5.4c-1.27,0-2.22.28-2.85.85-.63.57-.95,1.58-.95,3.05v23.3Z"/>
          <path class="cls-1" d="m328.25,155.86c-3.27,0-6.38-.3-9.35-.9-2.97-.6-5.57-1.75-7.8-3.45-2.23-1.7-4-4.17-5.3-7.4-1.3-3.23-1.95-7.48-1.95-12.75,0-4.73.63-8.8,1.9-12.2,1.27-3.4,2.78-6.1,4.55-8.1,1.77-2,3.38-3.23,4.85-3.7l-.5-1.9h-1.7c-3.07,0-5.48-.98-7.25-2.95-1.77-1.97-2.68-4.65-2.75-8.05-.07-3.33.82-6,2.65-8,1.83-2,4.28-3,7.35-3h35.9c7.13,0,10.7,3.33,10.7,10,0,3-.87,5.4-2.6,7.2-1.73,1.8-4.43,2.7-8.1,2.7h-20.7c-2.47,0-3.7,1.43-3.7,4.3v7.5c3.33-.73,6.82-1.6,10.45-2.6,3.63-1,7.08-1.5,10.35-1.5s5.48.68,7.05,2.05c1.57,1.37,2.35,3.22,2.35,5.55s-.78,4.28-2.35,5.65c-1.57,1.37-3.92,2.08-7.05,2.15-3.27.07-6.73-.4-10.4-1.4-3.67-1-7.17-1.87-10.5-2.6v13.1c0,1.27.35,2.15,1.05,2.65s1.82.32,3.35-.55c3.33-1.93,6.6-3.48,9.8-4.65,3.2-1.17,6.33-1.75,9.4-1.75,4.33,0,7.62,1.13,9.85,3.4,2.23,2.27,3.35,5.23,3.35,8.9,0,3.93-1.18,6.97-3.55,9.1-2.37,2.13-6.18,3.2-11.45,3.2h-17.9Z"/>
          <path class="cls-1" d="m396.05,156.36c-3.73,0-7.48-.38-11.25-1.15-3.77-.77-7.23-1.9-10.4-3.4-3.17-1.5-5.72-3.33-7.65-5.5-1.93-2.17-2.9-4.68-2.9-7.55,0-3.67,1.17-6.6,3.5-8.8,2.33-2.2,5.07-3.23,8.2-3.1,2.47.07,4.93.58,7.4,1.55,2.47.97,4.98,1.92,7.55,2.85,2.57.93,5.15,1.4,7.75,1.4s4.4-.33,5.4-1c1-.67,1.5-1.57,1.5-2.7,0-1.33-.7-2.43-2.1-3.3-1.4-.87-3.17-1.53-5.3-2l-4.9-1.2c-5.07-1.2-9.6-2.55-13.6-4.05s-7.15-3.5-9.45-6-3.45-5.85-3.45-10.05c0-4.6,1.27-8.35,3.8-11.25,2.53-2.9,5.97-5.02,10.3-6.35,4.33-1.33,9.17-2,14.5-2s10.27.57,14.4,1.7c4.13,1.13,7.35,2.77,9.65,4.9,2.3,2.13,3.45,4.73,3.45,7.8,0,3.27-.88,5.82-2.65,7.65-1.77,1.83-4.12,2.75-7.05,2.75-1.93,0-3.95-.33-6.05-1-2.1-.67-4.3-1.32-6.6-1.95-2.3-.63-4.75-.95-7.35-.95-2.33,0-4.1.35-5.3,1.05-1.2.7-1.8,1.62-1.8,2.75,0,1.4.8,2.43,2.4,3.1,1.6.67,4.23,1.47,7.9,2.4l5.6,1.3c4.6,1.13,8.63,2.5,12.1,4.1,3.47,1.6,6.17,3.7,8.1,6.3,1.93,2.6,2.9,6,2.9,10.2,0,5.07-1.2,9.18-3.6,12.35-2.4,3.17-5.73,5.48-10,6.95-4.27,1.47-9.27,2.2-15,2.2Z"/>
          <path class="cls-1" d="m440.05,156.26c-3.07,0-5.57-.93-7.5-2.8-1.93-1.87-2.9-4.23-2.9-7.1v-52.9c0-2.93.95-5.4,2.85-7.4,1.9-2,4.42-3,7.55-3,3.33,0,5.95.98,7.85,2.95,1.9,1.97,2.85,4.38,2.85,7.25v53.1c0,2.87-1.02,5.23-3.05,7.1-2.03,1.87-4.58,2.8-7.65,2.8Z"/>
          <path class="cls-1" d="m482.55,156.66c-5.33,0-9.97-1.55-13.9-4.65-3.93-3.1-6.97-7.37-9.1-12.8-2.13-5.43-3.2-11.58-3.2-18.45,0-6.4.95-12.02,2.85-16.85,1.9-4.83,4.5-8.87,7.8-12.1,3.3-3.23,7.13-5.67,11.5-7.3,4.37-1.63,8.98-2.45,13.85-2.45,8.93,0,15.55,1.25,19.85,3.75s6.45,5.72,6.45,9.65c0,3.07-.79,5.77-2.35,8.1-1.57,2.33-3.92,3.5-7.05,3.5-2.13,0-4.15-.2-6.05-.6-1.9-.4-3.83-.78-5.8-1.15-1.97-.37-4.15-.55-6.55-.55-5.27,0-9.05,1.5-11.35,4.5s-3.45,6.77-3.45,11.3c0,3.67.75,6.67,2.25,9,1.5,2.33,3.5,4.05,6,5.15,2.5,1.1,5.28,1.65,8.35,1.65,2.53,0,4.9-.57,7.1-1.7,2.2-1.13,3.6-3.23,4.2-6.3h-4.9c-2.33,0-4.13-.72-5.4-2.15-1.27-1.43-1.9-3.28-1.9-5.55s.63-4.1,1.9-5.5c1.27-1.4,3.07-2.1,5.4-2.1h12c4.33,0,7.38,1.15,9.15,3.45,1.77,2.3,2.65,5.72,2.65,10.25v18.7c0,3.47-.93,6.1-2.8,7.9-1.87,1.8-4.33,2.7-7.4,2.7-3.27,0-5.83-.9-7.7-2.7-1.87-1.8-2.8-4.43-2.8-7.9v-6.2h-1.8c0,6.07-1.53,10.48-4.6,13.25-3.07,2.77-7.17,4.15-12.3,4.15h-.9Z"/>
          <path class="cls-1" d="m538.04,156.06c-3.33,0-5.87-1.03-7.6-3.1-1.73-2.07-2.6-4.83-2.6-8.3v-46.9c0-3.47.65-6.28,1.95-8.45,1.3-2.17,3-3.75,5.1-4.75,2.1-1,4.38-1.5,6.85-1.5,3.67,0,6.77.97,9.3,2.9,2.53,1.93,4.5,5.33,5.9,10.2l10.8,36.9h1.6v-38.4c0-3.53.9-6.32,2.7-8.35,1.8-2.03,4.37-3.05,7.7-3.05s6.05,1.02,7.75,3.05c1.7,2.03,2.55,4.82,2.55,8.35v45.2c0,5.6-1.23,9.73-3.7,12.4-2.47,2.67-5.93,4-10.4,4s-8.07-1.2-10.6-3.6c-2.53-2.4-4.47-5.93-5.8-10.6l-7.1-24.3c-.13-.67-.38-1.28-.75-1.85-.37-.57-.85-.85-1.45-.85-.73,0-1.23.28-1.5.85-.27.57-.4,1.18-.4,1.85v26.9c0,3.47-.87,6.23-2.6,8.3-1.73,2.07-4.3,3.1-7.7,3.1Z"/>
        </g>
      </g>
    </g>
  </g>
</svg>