<?xml version="1.0" encoding="UTF-8"?>
<svg id="Capa_2" data-name="Capa 2" xmlns="http://www.w3.org/2000/svg" viewBox="0 0 133.4 60">
  <defs>
    <style>
      .cls-1 {
        fill: #fff;
      }
    </style>
  </defs>
  <g id="Capa_1-2" data-name="Capa 1">
    <g>
      <g>
        <path class="cls-1" d="m.55,59.88c-.16,0-.29-.04-.39-.13-.1-.09-.15-.2-.15-.35v-8.71c0-.14.05-.26.14-.35.09-.09.21-.14.35-.14h3.01c.5,0,.94.11,1.34.32.4.21.72.5.95.86.24.36.35.78.35,1.26,0,.45-.12.84-.36,1.19-.24.35-.55.61-.94.79.55.15,1,.43,1.34.84.34.41.51.93.51,1.55,0,.56-.13,1.06-.38,1.49-.26.43-.61.77-1.06,1.01-.45.24-.96.37-1.54.37H.55Zm.42-5.64h2.53c.5,0,.9-.14,1.23-.42s.48-.67.48-1.18-.16-.87-.48-1.13c-.32-.26-.73-.38-1.23-.38H.97v3.11Zm0,4.71h2.74c.4,0,.75-.08,1.05-.24.31-.16.54-.38.72-.67.17-.29.26-.63.26-1.03,0-.37-.09-.7-.26-.97-.17-.28-.41-.49-.72-.64-.31-.15-.66-.23-1.05-.23H.97v3.78Z"/>
        <path class="cls-1" d="m7.71,59.88c-.19,0-.33-.08-.41-.24-.08-.16-.09-.31-.02-.46l3.64-8.65c.09-.22.25-.33.47-.33s.37.11.46.33l3.65,8.66c.07.16.06.31-.03.46-.1.15-.23.22-.4.22-.1,0-.19-.02-.27-.07-.08-.05-.14-.12-.19-.22l-3.41-8.26h.38l-3.43,8.26c-.04.1-.1.17-.18.22-.08.05-.17.07-.27.07Zm.82-2.3l.37-.83h5.03l.37.83h-5.77Z"/>
        <path class="cls-1" d="m17.43,59.88c-.14,0-.26-.05-.35-.14-.09-.09-.14-.21-.14-.35v-8.71c0-.14.05-.26.14-.35.09-.09.21-.14.35-.14h2.32c.6,0,1.14.13,1.61.38.47.25.84.6,1.11,1.05.27.45.4.97.4,1.55s-.13,1.06-.4,1.5c-.27.44-.64.78-1.11,1.03s-1.01.37-1.61.37h-1.83v3.31c0,.14-.05.26-.14.35-.09.09-.21.14-.35.14Zm.48-4.72h1.83c.42,0,.79-.08,1.12-.25.33-.17.58-.4.77-.7.19-.3.28-.64.28-1.02,0-.4-.09-.76-.28-1.07-.19-.31-.45-.55-.77-.72-.33-.17-.7-.26-1.12-.26h-1.83v4.03Zm4.7,4.72c-.11,0-.19-.02-.25-.06-.06-.04-.12-.1-.17-.19l-2.38-3.79.97-.25,2.22,3.54c.12.2.15.37.07.52-.08.15-.23.22-.45.22Z"/>
        <path class="cls-1" d="m25.15,59.88c-.16,0-.29-.04-.39-.13-.1-.09-.15-.2-.15-.35v-8.71c0-.14.05-.26.14-.35.09-.09.21-.14.35-.14h3.01c.5,0,.94.11,1.34.32.4.21.72.5.95.86.24.36.35.78.35,1.26,0,.45-.12.84-.36,1.19-.24.35-.55.61-.94.79.55.15,1,.43,1.34.84.34.41.51.93.51,1.55,0,.56-.13,1.06-.38,1.49-.26.43-.61.77-1.06,1.01-.45.24-.96.37-1.54.37h-3.16Zm.42-5.64h2.53c.5,0,.9-.14,1.23-.42s.48-.67.48-1.18-.16-.87-.48-1.13c-.32-.26-.73-.38-1.23-.38h-2.53v3.11Zm0,4.71h2.74c.4,0,.75-.08,1.05-.24.31-.16.54-.38.72-.67.17-.29.26-.63.26-1.03,0-.37-.09-.7-.26-.97-.17-.28-.41-.49-.72-.64-.31-.15-.66-.23-1.05-.23h-2.74v3.78Z"/>
        <path class="cls-1" d="m33.7,59.88c-.14,0-.26-.05-.35-.14-.09-.09-.14-.21-.14-.35v-8.71c0-.14.05-.26.14-.35.09-.09.21-.14.35-.14s.26.05.35.14c.09.09.14.21.14.35v8.71c0,.14-.05.26-.14.35-.09.09-.21.14-.35.14Z"/>
        <path class="cls-1" d="m37.14,59.88c-.14,0-.26-.05-.35-.14-.09-.09-.14-.21-.14-.35v-8.71c0-.14.05-.26.14-.35.09-.09.21-.14.35-.14.15,0,.27.06.37.17l5.92,7.78v-7.47c0-.14.05-.26.14-.35.09-.09.21-.14.35-.14.13,0,.25.05.34.14.09.09.14.21.14.35v8.71c0,.14-.05.26-.14.35s-.21.14-.34.14c-.07,0-.13-.01-.2-.04-.07-.02-.12-.07-.16-.12l-5.93-7.78v7.46c0,.14-.05.26-.14.35-.1.09-.21.14-.34.14Z"/>
        <path class="cls-1" d="m47.36,59.88c-.14,0-.26-.05-.35-.14-.09-.09-.14-.21-.14-.35v-8.71c0-.14.05-.26.14-.35.09-.09.21-.14.35-.14s.26.05.35.14c.09.09.14.21.14.35v8.71c0,.14-.05.26-.14.35-.09.09-.21.14-.35.14Z"/>
        <path class="cls-1" d="m56.02,59.88c-.12,0-.22-.04-.3-.11-.09-.07-.15-.17-.18-.28l-2.54-8.59c-.06-.2-.05-.36.03-.5s.2-.2.38-.2c.1,0,.19.03.28.08.09.05.15.15.19.29l2.29,7.98h-.28l2.17-7.77c.02-.09.08-.16.17-.22.09-.06.18-.09.29-.09.1,0,.19.03.29.08.09.05.15.13.17.24l2.18,7.76h-.29l2.3-8.03c.06-.21.21-.32.47-.32.17,0,.29.07.36.2.07.14.07.3.02.49l-2.53,8.57c-.04.13-.11.23-.19.3-.09.07-.19.1-.3.1s-.22-.04-.3-.11c-.09-.07-.15-.17-.18-.28l-2.16-7.87h.3l-2.14,7.85c-.04.12-.11.22-.19.3-.09.07-.19.11-.3.11Z"/>
        <path class="cls-1" d="m66.06,59.88c-.14,0-.26-.05-.35-.14-.09-.09-.14-.21-.14-.35v-8.71c0-.14.05-.26.14-.35.09-.09.21-.14.35-.14h5.81c.13,0,.25.04.34.13.09.09.14.2.14.34,0,.12-.05.23-.14.32-.1.09-.21.14-.34.14h-5.33v3.42h3.88c.14,0,.26.05.35.14.09.09.14.2.14.33s-.05.24-.14.33c-.09.09-.21.14-.35.14h-3.88v3.46h5.33c.13,0,.25.05.34.14.09.09.14.2.14.32,0,.14-.05.25-.14.34-.1.09-.21.13-.34.13h-5.81Z"/>
        <path class="cls-1" d="m74.69,59.88c-.16,0-.29-.04-.39-.13-.1-.09-.15-.2-.15-.35v-8.71c0-.14.05-.26.14-.35.09-.09.21-.14.35-.14h3.01c.5,0,.94.11,1.34.32.4.21.72.5.95.86.24.36.35.78.35,1.26,0,.45-.12.84-.36,1.19-.24.35-.55.61-.94.79.55.15,1,.43,1.34.84.34.41.51.93.51,1.55,0,.56-.13,1.06-.38,1.49-.26.43-.61.77-1.06,1.01-.45.24-.96.37-1.54.37h-3.16Zm.42-5.64h2.53c.5,0,.9-.14,1.23-.42s.48-.67.48-1.18-.16-.87-.48-1.13c-.32-.26-.73-.38-1.23-.38h-2.53v3.11Zm0,4.71h2.74c.4,0,.75-.08,1.05-.24.31-.16.54-.38.72-.67.17-.29.26-.63.26-1.03,0-.37-.09-.7-.26-.97-.17-.28-.41-.49-.72-.64-.31-.15-.66-.23-1.05-.23h-2.74v3.78Z"/>
        <path class="cls-1" d="m86.87,59.88c-.14,0-.26-.05-.35-.14-.09-.09-.14-.21-.14-.35v-8.71c0-.14.05-.26.14-.35.09-.09.21-.14.35-.14h2.23c.71,0,1.36.12,1.95.35.59.24,1.1.57,1.53,1s.76.94,1,1.53c.24.59.35,1.23.35,1.95s-.12,1.36-.35,1.95c-.24.59-.57,1.1-1,1.54-.43.43-.94.77-1.53,1-.59.24-1.24.35-1.95.35h-2.23Zm.48-.87h1.75c.76,0,1.43-.17,2.01-.51.58-.34,1.04-.81,1.37-1.41.33-.6.5-1.28.5-2.05s-.17-1.45-.5-2.05c-.33-.6-.79-1.07-1.37-1.41-.58-.34-1.25-.51-2.01-.51h-1.75v7.94Z"/>
        <path class="cls-1" d="m96.41,59.88c-.14,0-.26-.05-.35-.14-.09-.09-.14-.21-.14-.35v-8.71c0-.14.05-.26.14-.35.09-.09.21-.14.35-.14h5.81c.13,0,.25.04.34.13.09.09.14.2.14.34,0,.12-.05.23-.14.32-.1.09-.21.14-.34.14h-5.33v3.42h3.88c.14,0,.26.05.35.14.09.09.14.2.14.33s-.05.24-.14.33c-.09.09-.21.14-.35.14h-3.88v3.46h5.33c.13,0,.25.05.34.14.09.09.14.2.14.32,0,.14-.05.25-.14.34-.1.09-.21.13-.34.13h-5.81Z"/>
        <path class="cls-1" d="m107.47,60c-.53,0-1.02-.08-1.47-.23-.45-.15-.84-.37-1.17-.65-.33-.28-.58-.61-.76-.98-.07-.13-.07-.25,0-.37.06-.11.17-.19.32-.23.12-.03.23-.02.34.04.11.06.2.14.25.26.12.24.31.45.55.64.24.19.52.34.85.44s.69.15,1.09.15c.44,0,.83-.07,1.16-.22.34-.14.6-.35.8-.63.19-.28.29-.61.29-1.01,0-.5-.19-.94-.56-1.3-.37-.36-.95-.59-1.75-.69-.97-.12-1.72-.42-2.27-.9-.54-.48-.82-1.08-.82-1.78,0-.5.13-.94.4-1.31.27-.37.64-.66,1.11-.86s1.01-.3,1.62-.3c.45,0,.87.07,1.24.22.37.14.7.33.97.57.28.24.5.49.68.77.08.13.11.26.08.38-.03.12-.1.22-.22.29-.12.06-.25.07-.38.02-.13-.04-.23-.12-.29-.24-.12-.19-.28-.37-.46-.54-.19-.17-.41-.3-.68-.4-.26-.1-.58-.15-.95-.16-.65,0-1.18.14-1.57.42-.4.28-.59.68-.59,1.21,0,.28.07.54.22.77s.39.44.74.61c.34.17.8.3,1.38.38,1.03.15,1.8.46,2.3.95.5.48.75,1.11.75,1.89,0,.45-.08.84-.24,1.19-.16.35-.39.64-.68.87-.29.24-.64.42-1.03.54s-.81.19-1.26.19Z"/>
        <path class="cls-1" d="m113.18,59.88c-.14,0-.26-.05-.35-.14-.09-.09-.14-.21-.14-.35v-8.71c0-.14.05-.26.14-.35.09-.09.21-.14.35-.14s.26.05.35.14c.09.09.14.21.14.35v8.71c0,.14-.05.26-.14.35-.09.09-.21.14-.35.14Z"/>
        <path class="cls-1" d="m120.49,60c-.67,0-1.29-.13-1.88-.38-.58-.26-1.09-.61-1.54-1.07-.44-.46-.79-.99-1.03-1.59-.25-.6-.37-1.24-.37-1.93s.12-1.32.37-1.91c.24-.6.59-1.13,1.03-1.58.44-.45.95-.81,1.54-1.07.58-.26,1.21-.39,1.89-.39.59,0,1.14.09,1.62.26.49.17.96.45,1.41.83.07.06.12.13.13.2.01.08,0,.15-.03.22-.03.07-.08.12-.15.16-.02.07-.06.12-.12.15-.07.03-.14.05-.23.04s-.17-.05-.25-.11c-.32-.28-.67-.49-1.05-.63-.38-.14-.82-.2-1.33-.2-.54,0-1.04.11-1.51.32-.47.21-.88.51-1.23.88-.36.37-.63.8-.84,1.29-.2.49-.3,1-.3,1.55s.1,1.09.3,1.57c.2.49.48.92.84,1.29s.77.66,1.23.87c.47.21.97.32,1.51.32.45,0,.88-.07,1.29-.22.4-.15.79-.36,1.15-.64.1-.08.2-.12.32-.1.11.02.21.07.29.15.08.08.12.19.12.32,0,.07,0,.13-.02.18-.02.05-.05.11-.11.17-.42.39-.89.66-1.41.82-.52.16-1.06.24-1.62.24Zm3.17-1.41l-.94-.2v-2.49h-1.93c-.14,0-.26-.04-.35-.12-.09-.08-.14-.19-.14-.31s.05-.22.14-.3c.09-.08.21-.12.35-.12h2.39c.14,0,.26.04.35.13.09.09.14.2.14.34v3.07Z"/>
        <path class="cls-1" d="m126.14,59.88c-.14,0-.26-.05-.35-.14-.09-.09-.14-.21-.14-.35v-8.71c0-.14.05-.26.14-.35.09-.09.21-.14.35-.14.15,0,.27.06.37.17l5.92,7.78v-7.47c0-.14.05-.26.14-.35.09-.09.21-.14.35-.14.13,0,.25.05.34.14.09.09.14.21.14.35v8.71c0,.14-.05.26-.14.35s-.21.14-.34.14c-.07,0-.13-.01-.2-.04-.07-.02-.12-.07-.16-.12l-5.93-7.78v7.46c0,.14-.05.26-.14.35-.1.09-.21.14-.34.14Z"/>
      </g>
      <g>
        <path class="cls-1" d="m54.02,45.44c-2.54,0-4.54-.62-5.99-1.87-1.46-1.25-2.61-2.97-3.46-5.15-.85-2.18-1.65-4.67-2.4-7.46l-6.05-22.47c-.46-1.75-.35-3.38.31-4.9.67-1.52,1.98-2.53,3.93-3.03,1.83-.5,3.45-.37,4.87.37,1.41.75,2.37,2.06,2.87,3.93l5.62,20.54c.5,1.79,1.03,3.1,1.59,3.93.56.83,1.47,1.1,2.72.81,1.16-.29,1.79-.94,1.87-1.93.08-1-.12-2.41-.62-4.25l-4-15.17c-.54-2.08-.47-3.88.22-5.4s2.05-2.51,4.09-2.97c2.08-.5,3.76-.24,5.03.78,1.27,1.02,2.13,2.45,2.59,4.28l5.06,19.91c.54,2.04,1.13,3.41,1.78,4.12.64.71,1.49.92,2.53.62,1.16-.33,1.73-.99,1.69-1.97-.04-.98-.19-2.4-.44-4.28-.37-2.91-.7-5.31-.97-7.18-.27-1.87-.48-3.43-.62-4.68-.15-1.25-.22-2.39-.22-3.43,0-2.33.69-4.32,2.06-5.96,1.37-1.64,3.25-2.47,5.62-2.47s4.24.74,5.49,2.22c1.25,1.48,1.87,3.51,1.87,6.09,0,1.66-.24,3.41-.72,5.24-.48,1.83-.95,3.56-1.4,5.18l-3.5,12.05c-.79,2.75-1.57,5.21-2.34,7.4-.77,2.18-1.8,3.91-3.09,5.18-1.29,1.27-3.12,1.9-5.49,1.9-2.87,0-5.12-.89-6.74-2.68-1.62-1.79-2.87-4.72-3.75-8.8h-.44c-.83,4.08-1.94,7.01-3.31,8.8-1.37,1.79-3.45,2.68-6.24,2.68Z"/>
        <path class="cls-1" d="m111.99,0c4.95,0,9,.93,12.14,2.78,3.14,1.85,5.47,4.47,6.99,7.87,1.52,3.39,2.28,7.42,2.28,12.08,0,7.82-1.69,13.57-5.06,17.23-3.37,3.66-8.53,5.49-15.48,5.49h-2.75c-2.04,0-3.93-.21-5.68-.62-1.75-.42-3.29-1.18-4.62-2.28-1.33-1.1-2.37-2.65-3.12-4.65-.75-2-1.12-4.58-1.12-7.74,0-2.95.41-5.51,1.22-7.68.81-2.16,1.78-3.89,2.9-5.18,1.12-1.29,2.14-2.08,3.06-2.37l-.31-1.19h-1.06c-1.91,0-3.42-.61-4.53-1.84-1.1-1.23-1.68-2.88-1.72-4.96-.04-2.08.51-3.76,1.65-5.02C97.93.64,99.46,0,101.38,0h10.61Zm-4.49,29.34c0,.87.2,1.48.59,1.81.4.33.99.5,1.78.5h3.37c2.12,0,3.77-.46,4.93-1.37,1.16-.92,1.99-2.09,2.47-3.53.48-1.44.72-2.97.72-4.59s-.24-3.18-.72-4.68c-.48-1.5-1.3-2.73-2.47-3.68-1.17-.96-2.81-1.44-4.93-1.44h-3.37c-.79,0-1.38.18-1.78.53-.4.35-.59.99-.59,1.9v14.55Z"/>
        <path class="cls-1" d="m0,44.38V0h15.54c5.38,0,9.47,1.03,12.25,3.09,2.78,2.06,4.18,5.09,4.18,9.07,0,2.17-.56,4.09-1.68,5.75-1.12,1.66-2.67,2.87-4.66,3.64,2.28.57,4.07,1.72,5.38,3.44s1.97,3.84,1.97,6.34c0,4.27-1.36,7.5-4.08,9.69-2.72,2.19-6.6,3.31-11.64,3.35H0Zm9.14-25.79h6.77c4.61-.08,6.92-1.92,6.92-5.52,0-2.01-.58-3.46-1.75-4.34-1.17-.88-3.01-1.33-5.53-1.33h-6.4v11.19Zm0,6.46v11.98h7.83c2.15,0,3.84-.51,5.04-1.54,1.21-1.03,1.81-2.44,1.81-4.25,0-4.06-2.1-6.13-6.31-6.19h-8.38Z"/>
      </g>
    </g>
  </g>
</svg>