<?xml version="1.0" encoding="UTF-8"?>
<svg id="Capa_2" data-name="Capa 2" xmlns="http://www.w3.org/2000/svg" viewBox="0 0 81.25 600">
  <defs>
    <style>
      .cls-1 {
        fill: #fff;
      }
    </style>
  </defs>
  <g id="Capa_1-2" data-name="Capa 1">
    <g>
      <path class="cls-1" d="m80.16,531.21v19.74l-49.2,29.19h49.2v19.86H1.09v-19.86l49.2-29.14H1.09v-19.8h79.07Z"/>
      <path class="cls-1" d="m42.25,448.9c7.71,0,14.54,1.49,20.48,4.47,5.94,2.98,10.51,7.21,13.71,12.7,3.2,5.49,4.81,11.74,4.81,18.75s-1.55,13.24-4.64,18.67c-3.09,5.43-7.52,9.66-13.28,12.7-5.76,3.04-12.36,4.63-19.82,4.78h-4.45c-7.75,0-14.58-1.48-20.5-4.44-5.92-2.96-10.49-7.2-13.71-12.73-3.22-5.53-4.83-11.82-4.83-18.87s1.59-13.2,4.78-18.67c3.19-5.47,7.72-9.72,13.6-12.76,5.88-3.04,12.63-4.57,20.23-4.61h3.64Zm-3.31,20.2c-7.85,0-13.82,1.37-17.89,4.1-4.07,2.73-6.11,6.65-6.11,11.74,0,9.96,7.17,15.22,21.51,15.78l5.81.06c7.75,0,13.7-1.34,17.87-4.02,4.16-2.68,6.24-6.66,6.24-11.94s-2.05-8.88-6.14-11.6c-4.09-2.72-9.97-4.09-17.65-4.13h-3.64Z"/>
      <path class="cls-1" d="m59.14,396.17c-2.79,0-4.96,1.03-6.52,3.08-1.56,2.06-3.17,5.67-4.83,10.83-1.66,5.17-3.28,9.39-4.83,12.67-5.03,10.67-11.95,16.01-20.75,16.01-4.38,0-8.24-1.33-11.59-3.99-3.35-2.66-5.96-6.42-7.82-11.29-1.87-4.86-2.8-10.33-2.8-16.41s1.01-11.23,3.04-15.92c2.03-4.69,4.91-8.34,8.66-10.95,3.75-2.6,8.03-3.9,12.84-3.9v19.8c-3.22,0-5.72,1.03-7.49,3.08-1.77,2.06-2.66,4.84-2.66,8.34s.75,6.35,2.25,8.4c1.5,2.06,3.41,3.08,5.73,3.08,2.03,0,3.87-1.13,5.51-3.39,1.65-2.26,3.35-6.24,5.11-11.94,1.76-5.69,3.65-10.37,5.67-14.03,4.92-8.9,11.71-13.35,20.37-13.35,6.91,0,12.35,2.72,16.29,8.15,3.94,5.43,5.92,12.88,5.92,22.35,0,6.67-1.15,12.72-3.45,18.13-2.3,5.41-5.45,9.48-9.45,12.22-4,2.73-8.61,4.1-13.82,4.1v-19.91c4.24,0,7.36-1.14,9.37-3.42,2.01-2.28,3.01-5.99,3.01-11.12,0-3.28-.68-5.88-2.04-7.78-1.36-1.9-3.27-2.86-5.73-2.86Z"/>
      <path class="cls-1" d="m42.25,296.38c7.71,0,14.54,1.49,20.48,4.47,5.94,2.98,10.51,7.21,13.71,12.7,3.2,5.49,4.81,11.74,4.81,18.75s-1.55,13.24-4.64,18.67c-3.09,5.43-7.52,9.66-13.28,12.7-5.76,3.04-12.36,4.63-19.82,4.78h-4.45c-7.75,0-14.58-1.48-20.5-4.44-5.92-2.96-10.49-7.2-13.71-12.73-3.22-5.53-4.83-11.82-4.83-18.87s1.59-13.2,4.78-18.67c3.19-5.47,7.72-9.72,13.6-12.76,5.88-3.04,12.63-4.57,20.23-4.61h3.64Zm-3.31,20.2c-7.85,0-13.82,1.37-17.89,4.1-4.07,2.73-6.11,6.65-6.11,11.74,0,9.96,7.17,15.22,21.51,15.78l5.81.06c7.75,0,13.7-1.34,17.87-4.02,4.16-2.68,6.24-6.66,6.24-11.94s-2.05-8.88-6.14-11.6c-4.09-2.72-9.97-4.09-17.65-4.13h-3.64Z"/>
      <path class="cls-1" d="m15.81,226.29v24.72h64.35v19.86H15.81v24.27H1.09v-68.85h14.72Z"/>
      <path class="cls-1" d="m52.19,187.31v10.75h27.97v19.86H1.09v-32.42c0-9.77,2.08-17.41,6.24-22.91,4.16-5.51,10.04-8.26,17.63-8.26,5.5,0,10.06,1.16,13.67,3.48,3.62,2.32,6.55,5.95,8.79,10.89l31.93-17.2h.82v21.27l-27.97,14.54Zm-14.66,10.75v-12.56c0-3.77-.95-6.61-2.86-8.51-1.91-1.9-4.56-2.86-7.98-2.86s-6.09.96-8.03,2.88-2.91,4.75-2.91,8.49v12.56h21.78Z"/>
      <path class="cls-1" d="m42.25,72.58c7.71,0,14.54,1.49,20.48,4.47,5.94,2.98,10.51,7.21,13.71,12.7,3.2,5.49,4.81,11.74,4.81,18.75s-1.55,13.24-4.64,18.67c-3.09,5.43-7.52,9.66-13.28,12.7-5.76,3.04-12.36,4.63-19.82,4.78h-4.45c-7.75,0-14.58-1.48-20.5-4.44-5.92-2.96-10.49-7.2-13.71-12.73-3.22-5.53-4.83-11.82-4.83-18.87s1.59-13.2,4.78-18.67c3.19-5.47,7.72-9.72,13.6-12.76,5.88-3.04,12.63-4.57,20.23-4.61h3.64Zm-3.31,20.2c-7.85,0-13.82,1.37-17.89,4.1-4.07,2.73-6.11,6.65-6.11,11.74,0,9.96,7.17,15.22,21.51,15.78l5.81.06c7.75,0,13.7-1.34,17.87-4.02,4.16-2.68,6.24-6.66,6.24-11.94s-2.05-8.88-6.14-11.6c-4.09-2.72-9.97-4.09-17.65-4.13h-3.64Z"/>
      <path class="cls-1" d="m59.14,19.86c-2.79,0-4.96,1.03-6.52,3.08-1.56,2.06-3.17,5.67-4.83,10.83-1.66,5.17-3.28,9.39-4.83,12.67-5.03,10.67-11.95,16.01-20.75,16.01-4.38,0-8.24-1.33-11.59-3.99-3.35-2.66-5.96-6.42-7.82-11.29-1.87-4.86-2.8-10.33-2.8-16.41s1.01-11.23,3.04-15.92C5.07,10.15,7.96,6.5,11.7,3.9,15.45,1.3,19.73,0,24.55,0v19.8c-3.22,0-5.72,1.03-7.49,3.08-1.77,2.06-2.66,4.84-2.66,8.34s.75,6.35,2.25,8.4c1.5,2.06,3.41,3.08,5.73,3.08,2.03,0,3.87-1.13,5.51-3.39s3.35-6.24,5.11-11.94c1.76-5.69,3.65-10.37,5.67-14.03C43.59,4.45,50.38,0,59.03,0c6.91,0,12.35,2.72,16.29,8.15,3.94,5.43,5.92,12.88,5.92,22.35,0,6.67-1.15,12.72-3.45,18.13-2.3,5.41-5.45,9.48-9.45,12.22-4,2.73-8.61,4.1-13.82,4.1v-19.91c4.24,0,7.36-1.14,9.37-3.42,2.01-2.28,3.01-5.99,3.01-11.12,0-3.28-.68-5.88-2.04-7.78-1.36-1.9-3.27-2.86-5.73-2.86Z"/>
    </g>
  </g>
</svg>