<?xml version="1.0" encoding="UTF-8"?>
<svg id="Capa_2" data-name="Capa 2" xmlns="http://www.w3.org/2000/svg" viewBox="0 0 381.89 121.47">
  <defs>
    <style>
      .cls-1, .cls-2, .cls-3 {
        fill: #fff;
      }

      .cls-2 {
        font-family: BagelFatOne-Regular, 'Bagel Fat One';
        font-size: 41px;
      }

      .cls-4 {
        letter-spacing: -.02em;
      }

      .cls-3 {
        font-family: Comfortaa-Regular, Comfortaa;
        font-size: 26px;
        font-variation-settings: 'wght' 400;
      }
    </style>
  </defs>
  <g id="Capa_1-2" data-name="Capa 1">
    <g>
      <g>
        <path class="cls-1" d="m.48,71.09V0h25.39c8.8,0,15.47,1.65,20.01,4.96,4.55,3.3,6.82,8.15,6.82,14.53,0,3.48-.91,6.55-2.74,9.2-1.83,2.65-4.36,4.6-7.62,5.83,3.72.91,6.65,2.75,8.79,5.52s3.21,6.15,3.21,10.16c0,6.84-2.22,12.01-6.67,15.53-4.45,3.52-10.79,5.31-19.02,5.37H.48ZM15.42,29.79h11.05c7.53-.13,11.3-3.08,11.3-8.84,0-3.22-.95-5.54-2.86-6.96-1.91-1.42-4.92-2.12-9.04-2.12h-10.45v17.92Zm0,10.35v19.19h12.79c3.52,0,6.26-.82,8.24-2.47,1.97-1.64,2.96-3.91,2.96-6.81,0-6.51-3.44-9.81-10.31-9.91h-13.69Z"/>
        <path class="cls-1" d="m106.47,56.45h-26.19l-4.98,14.65h-15.88L86.41,0h13.84l27.13,71.09h-15.88l-5.03-14.65Zm-22.15-11.87h18.12l-9.11-26.61-9.01,26.61Z"/>
        <path class="cls-1" d="m160.99,45.07h-11.9v26.03h-14.94V0h26.93c8.56,0,15.17,1.87,19.81,5.62,4.65,3.74,6.97,9.03,6.97,15.87,0,4.85-1.07,8.89-3.21,12.13s-5.39,5.82-9.73,7.74l15.68,29.05v.68h-16.03l-13.59-26.03Zm-11.9-11.87h12.05c3.75,0,6.65-.94,8.71-2.81,2.06-1.87,3.09-4.45,3.09-7.74s-.97-5.99-2.91-7.91c-1.94-1.92-4.92-2.88-8.94-2.88h-12v21.34Z"/>
        <path class="cls-1" d="m199.23,71.09V0h25.39c8.8,0,15.47,1.65,20.01,4.96,4.55,3.3,6.82,8.15,6.82,14.53,0,3.48-.91,6.55-2.74,9.2-1.83,2.65-4.36,4.6-7.62,5.83,3.72.91,6.65,2.75,8.79,5.52,2.14,2.77,3.21,6.15,3.21,10.16,0,6.84-2.22,12.01-6.67,15.53-4.45,3.52-10.79,5.31-19.02,5.37h-28.18Zm14.94-41.31h11.05c7.53-.13,11.3-3.08,11.3-8.84,0-3.22-.95-5.54-2.86-6.96-1.91-1.42-4.92-2.12-9.04-2.12h-10.45v17.92Zm0,10.35v19.19h12.79c3.52,0,6.26-.82,8.24-2.47,1.97-1.64,2.96-3.91,2.96-6.81,0-6.51-3.44-9.81-10.31-9.91h-13.69Z"/>
        <path class="cls-1" d="m280.18,71.09h-14.94V0h14.94v71.09Z"/>
        <path class="cls-1" d="m352.96,71.09h-14.94l-29.07-46.78v46.78h-14.94V0h14.94l29.12,46.88V0h14.89v71.09Z"/>
        <path class="cls-1" d="m381.89,71.09h-14.94V0h14.94v71.09Z"/>
      </g>
      <text class="cls-3" transform="translate(259.61 109.65) scale(1.04 1)"><tspan x="0" y="0">port</tspan><tspan class="cls-4" x="58.34" y="0">f</tspan><tspan x="67.34" y="0">olio</tspan></text>
      <text class="cls-2" transform="translate(0 112.45) scale(1.04 1)"><tspan x="0" y="0">WEB DESIGN</tspan></text>
    </g>
  </g>
</svg>