<?xml version="1.0" encoding="UTF-8"?>
<svg id="Capa_2" data-name="Capa 2" xmlns="http://www.w3.org/2000/svg" viewBox="0 0 112.53 100">
  <defs>
    <style>
      .cls-1 {
        fill: #fff;
      }
    </style>
  </defs>
  <g id="Capa_1-2" data-name="Capa 1">
    <g>
      <path class="cls-1" d="m36.89,100h-5.74c-5.55-1.83-8.21-5.95-9.15-11.47-.95-5.6-.4-11.13.89-16.58.55-2.34-.02-3.36-2.4-4.11-6.18-1.95-12.1-4.5-16.73-9.31-4.99-5.18-5-11.87,0-17.05,4.69-4.86,10.7-7.4,16.96-9.39,2.16-.69,2.73-1.67,2.21-3.8-1.09-4.43-1.62-8.94-1.32-13.51.45-6.67,2.43-12.4,9.55-14.78h5.74c6.99,2.14,12.86,6.09,18.06,11.12.94.91,1.69.91,2.63,0,5.21-5.02,11.08-8.98,18.07-11.12h5.74c5.55,1.83,8.21,5.95,9.15,11.47.95,5.6.4,11.13-.89,16.58-.55,2.34.02,3.36,2.4,4.11,6.18,1.95,12.1,4.5,16.73,9.31,4.99,5.18,5,11.88,0,17.05-4.69,4.86-10.7,7.4-16.96,9.39-2.16.69-2.73,1.67-2.21,3.8,1.09,4.43,1.62,8.94,1.32,13.51-.44,6.67-2.43,12.4-9.55,14.78h-5.74c-6.98-2.15-12.85-6.11-18.06-11.12-.94-.91-1.69-.91-2.63,0-5.21,5.01-11.08,8.98-18.06,11.12Zm19.52-67.94s0,.01,0,.02c-2.63,0-5.26.04-7.88-.01-1.67-.03-2.85.59-3.76,2.03-2.86,4.51-5.59,9.08-7.99,13.86-.71,1.41-.73,2.64-.02,4.06,2.39,4.78,5.12,9.35,7.98,13.86.91,1.43,2.05,2.07,3.74,2.06,5.17-.04,10.35-.04,15.53,0,1.67.01,2.85-.59,3.76-2.03,2.86-4.51,5.58-9.09,7.99-13.86.77-1.52.65-2.81-.09-4.28-2.09-4.12-4.55-8.03-6.8-12.06-1.56-2.79-3.54-4.04-6.73-3.69-1.89.21-3.82.04-5.73.04Zm-30.15,50.63c.15,1.5.22,3.02.46,4.5,1.19,7.43,5.26,9.7,12.27,6.88,4.73-1.91,8.59-5.12,12.39-8.4,1.02-.88,1.16-1.72.23-2.84-2.49-3-4.89-6.07-7.31-9.13-.68-.86-1.5-1.31-2.61-1.47-3.78-.53-7.56-1.12-11.32-1.77-1.43-.25-2.27.02-2.58,1.58-.7,3.52-1.37,7.03-1.52,10.64Zm59.94.99c-.08-4.45-.74-7.88-1.38-11.33-.32-1.73-1.12-2.19-2.82-1.87-3.6.68-7.22,1.24-10.84,1.7-1.39.18-2.36.74-3.17,1.83-1.47,1.98-2.94,3.97-4.53,5.85-4.65,5.45-4.09,4.16.58,8.21,3.45,2.99,7.24,5.5,11.71,6.73,5.1,1.41,8.63-.72,9.78-5.89.45-2.02.75-4.07.68-5.23ZM26.36,17.19c.03,3.6.71,7.11,1.39,10.63.32,1.67,1.18,1.97,2.72,1.69,3.68-.66,7.38-1.23,11.08-1.74,1.2-.16,2.07-.64,2.81-1.57,2.41-3.07,4.84-6.11,7.29-9.14.63-.77.97-1.53.13-2.29-4.75-4.28-9.61-8.46-16.11-9.82-4.12-.86-6.99.92-8.32,4.93-.78,2.36-1.04,4.82-.99,7.3Zm59.8,0c.06-1.68-.14-3.33-.43-4.99-1.13-6.49-4.98-8.8-11.18-6.64-5.23,1.82-9.38,5.3-13.48,8.85-1.09.94-.93,1.78-.05,2.84,2.39,2.88,4.69,5.83,7,8.76.71.9,1.48,1.56,2.71,1.74,3.86.54,7.71,1.13,11.55,1.8,1.52.27,2.2-.27,2.49-1.73.69-3.52,1.37-7.03,1.39-10.63Zm21.49,32.74c-.02-2.2-1.29-4.43-3.69-6.42-4.26-3.52-9.29-5.48-14.48-7.1-1.42-.44-2.01.23-2.47,1.46-1.32,3.5-2.7,6.97-4.08,10.45-.4,1-.54,1.97-.12,3.01,1.46,3.7,2.91,7.41,4.35,11.12.36.94.92,1.51,1.98,1.19,5.99-1.8,11.79-3.98,16.29-8.59,1.36-1.4,2.25-3.09,2.24-5.12Zm-77.62.04c-.05-.24-.06-.57-.17-.86-1.52-3.93-3.05-7.86-4.57-11.8-.46-1.19-1.35-1.17-2.36-.86-5.04,1.57-9.92,3.47-14.09,6.84-5.25,4.23-5.28,9.12-.08,13.34,4.22,3.43,9.18,5.35,14.3,6.94,1.42.44,2.02-.24,2.47-1.47,1.03-2.84,2.15-5.65,3.24-8.47.46-1.18,1.13-2.29,1.27-3.66Zm26.02-22.76s0,0,0,0c1.51,0,3.03,0,4.54,0,1.31,0,1.91-.48.93-1.69-1.35-1.67-2.77-3.29-4.17-4.92-.74-.86-1.49-.8-2.21.04-1.4,1.63-2.81,3.25-4.17,4.92-.8.98-.56,1.62.77,1.64,1.43.02,2.87,0,4.3,0Zm.05,45.57c-1.43,0-2.87-.01-4.3,0-1.25.01-1.68.57-.84,1.61,1.4,1.73,2.87,3.41,4.33,5.09.67.77,1.4.66,2.03-.07,1.45-1.69,2.92-3.37,4.31-5.11.73-.91.39-1.49-.76-1.51-1.59-.03-3.19,0-4.78-.01Zm-18.9-39.54c-1.46.26-3.5.63-5.54.99-1.6.28-1.9,1.21-1.36,2.61.69,1.78,1.36,3.58,2.05,5.36.52,1.34,1.1,1.44,1.85.12,1.46-2.56,2.96-5.1,4.46-7.64.62-1.04.59-1.67-1.45-1.44Zm37.96-.03c-1.54-.17-2.05.15-1.32,1.39,1.53,2.59,3.05,5.18,4.54,7.79.83,1.45,1.37.95,1.82-.22.69-1.77,1.34-3.55,2.03-5.32.62-1.58.04-2.4-1.56-2.67-1.95-.33-3.89-.68-5.52-.97Zm-37.49,33.64c1.18.1,1.78-.16,1.03-1.43-1.52-2.59-3.05-5.18-4.54-7.79-.79-1.39-1.35-1.06-1.83.18-.71,1.85-1.41,3.7-2.1,5.55-.5,1.34-.03,2.14,1.37,2.39,2.02.37,4.05.73,6.07,1.1Zm44.94-2.83c-.9-2.28-1.74-4.58-2.73-6.82-.43-.96-1.01-.4-1.36.21-1.6,2.73-3.2,5.46-4.78,8.2-.55.96-.1,1.37.86,1.21,2.26-.36,4.52-.78,6.77-1.21.79-.15,1.25-.65,1.25-1.59Z"/>
      <path class="cls-1" d="m66.12,49.99c0,5.68-4.08,9.82-9.72,9.85-5.82.03-9.98-4.06-9.98-9.83,0-5.77,4.15-9.88,9.96-9.85,5.65.03,9.74,4.16,9.74,9.83Z"/>
    </g>
  </g>
</svg>