<?xml version="1.0" encoding="UTF-8"?>
<svg id="Capa_2" data-name="Capa 2" xmlns="http://www.w3.org/2000/svg" viewBox="0 0 191.02 100">
  <defs>
    <style>
      .cls-1 {
        fill: #fff;
      }
    </style>
  </defs>
  <g id="Capa_1-2" data-name="Capa 1">
    <g>
      <path class="cls-1" d="m46.36,0c2.04.23,4.09.43,6.12.69,6.24.82,12.35,2.16,18.06,4.91,3.95,1.9,7.54,4.26,9.55,8.4.65,1.33.99,2.74.99,4.21,0,21.19.02,42.38-.01,63.57,0,4.21-2.37,7.22-5.56,9.61-5.1,3.82-11.04,5.65-17.18,6.93-3.68.77-7.4,1.3-11.16,1.48-.27.01-.54.13-.81.2h-11.65c-1.29-.39-2.64-.28-3.95-.42-6.94-.75-13.74-2.11-20.1-5.09-4.84-2.27-8.99-5.3-10.66-10.75V16.26c1.34-4.47,4.49-7.38,8.4-9.58C14.08,3.49,20.29,1.92,26.68.96,29.26.57,31.87.31,34.47,0c3.96,0,7.93,0,11.89,0Zm-5.85,28.91c2.62-.04,5.25-.01,7.87-.27,6.3-.62,12.49-1.71,18.33-4.28,2.12-.93,4.15-2.03,5.73-3.77,1.61-1.76,1.55-3.15-.06-4.89-.92-.99-2-1.76-3.16-2.43-3.39-1.97-7.08-3.16-10.88-4-8.54-1.91-17.18-2.34-25.89-1.53-5.13.48-10.17,1.34-15.05,3.03-2.83.98-5.63,2.07-7.9,4.13-2.95,2.68-2.86,4.37.3,6.85,2.16,1.69,4.62,2.81,7.19,3.7,7.61,2.63,15.49,3.55,23.5,3.47Zm-33.19,5.93c0,1.29.06,2.59-.01,3.88-.11,1.83.69,3.18,2.03,4.31,2.13,1.81,4.61,2.97,7.2,3.93,6.83,2.52,13.96,3.44,21.17,3.7,7.01.25,13.98-.31,20.82-1.92,4.31-1.01,8.52-2.32,12.17-4.94,1.49-1.07,2.97-2.25,3.01-4.31.07-3.11.02-6.23.04-9.34,0-.88-.31-.95-1.02-.54-3.6,2.09-7.5,3.44-11.51,4.42-9.67,2.36-19.47,2.92-29.36,1.98-8.27-.79-16.31-2.39-23.69-6.46-.72-.4-.84-.05-.84.56,0,1.58,0,3.15,0,4.73Zm0,21.66c0,1.25.07,2.51-.02,3.76-.14,2.03.8,3.48,2.29,4.69,1.75,1.42,3.75,2.39,5.81,3.23,6.76,2.76,13.88,3.75,21.09,4.08,8.4.38,16.73-.27,24.86-2.6,3.67-1.06,7.21-2.42,10.23-4.86,1.13-.91,2.08-2.01,2.11-3.53.07-3.19.03-6.39.05-9.58,0-.82-.38-.74-.91-.44-.92.5-1.84,1.02-2.8,1.45-7.99,3.58-16.46,4.94-25.12,5.31-5.49.23-10.99.11-16.46-.66-7.05-.99-13.92-2.55-20.2-6.06-.86-.48-.95-.13-.94.61.02,1.54,0,3.07,0,4.61Zm0,21.01c0,.61.08,1.23-.01,1.82-.57,3.61,1.5,5.65,4.27,7.28,2.63,1.55,5.45,2.65,8.39,3.43,8.07,2.16,16.27,2.91,24.61,2.48,5.31-.27,10.54-.91,15.68-2.25,3.74-.98,7.32-2.32,10.52-4.54,1.97-1.37,3.18-3.11,3-5.7-.15-2.13-.05-4.28-.02-6.43.01-.92-.14-1.17-1.06-.64-3.17,1.83-6.57,3.11-10.1,4.05-9.74,2.58-19.65,3.24-29.67,2.42-8.65-.71-17.06-2.31-24.76-6.56-.66-.37-.84-.19-.83.51.02,1.37,0,2.75,0,4.12Z"/>
      <path class="cls-1" d="m191.02,71.36c-3.27,0-6.55,0-9.82-.01-5.16-.02-8.57-3.12-9.16-8.28-.12-1.09-.18-2.17-.18-3.26,0-9.09,0-18.19,0-27.28,0-1.93.02-1.95,1.97-1.95,1.78,0,3.56.05,5.33-.02,1.12-.04,1.46.38,1.46,1.48-.03,8.08-.01,16.17-.02,24.25,0,.94.09,1.85.37,2.75.62,1.98,2.26,3.17,4.6,3.31,1.81.11,3.63.19,5.44.28v8.74Z"/>
      <path class="cls-1" d="m144.62,67.33c0-2.83.03-5.66-.02-8.49-.02-.99.34-1.38,1.34-1.35,1.62.05,3.24.04,4.85,0,.83-.01,1.18.33,1.15,1.16-.03.97-.01,1.94,0,2.91.02,1.27.25,1.41,1.44.91.94-.4,1.75-.99,2.45-1.75,4.76-5.12,4.65-13.44.11-18.78-5.2-6.11-14.07-4.66-18.16,1.97-2.92,4.73-2.99,10.28.01,14.48.9,1.26,2.04,2.3,3.34,3.14.61.39.9.84.89,1.57-.03,2.26,0,4.53-.02,6.79,0,1.23-.21,1.38-1.37.89-7.85-3.34-12.84-8.95-13.78-17.68-1.03-9.48,4.38-18.74,13.34-21.8,13.59-4.65,26.55,3.12,27.82,17.67.53,6.01-.78,11.39-4.54,16.13-2.58,3.26-5.79,5.63-9.86,6.68-.93.24-1.28.69-1.22,1.61.05.85-.02,1.7.01,2.55.03.84-.26,1.28-1.18,1.26-1.82-.04-3.64-.04-5.46,0-.92.02-1.18-.42-1.17-1.26.03-2.87.01-5.74,0-8.61Z"/>
      <path class="cls-1" d="m113.62,30.57c2.51,0,4.58.04,6.64-.02,1.07-.03,1.42.4,1.39,1.43-.06,1.7-.06,3.4,0,5.09.03,1.03-.4,1.4-1.37,1.29-2.9-.33-5.81-.3-8.72-.24-1.22.02-2.42.23-3.54.74-1.51.7-1.76,1.66-.81,2.99.84,1.17,2.01,1.98,3.11,2.87,3.23,2.61,6.69,4.97,9.45,8.13,1.62,1.86,2.89,3.91,3.29,6.38.72,4.44-1.35,8.3-5.63,10.56-1.93,1.02-4.01,1.53-6.18,1.56-3.76.05-7.52-.01-11.28.03-1.1.01-1.51-.35-1.47-1.47.07-1.9.04-3.8.01-5.7-.01-.84.33-1.18,1.16-1.12,1.93.13,3.87.19,5.8.37,2.36.22,4.69.02,6.99-.44,2.31-.47,2.73-1.83,1.17-3.61-2.17-2.47-4.9-4.34-7.35-6.51-3.56-3.15-6.77-6.52-7.86-11.37-.36-1.59-.6-3.19-.18-4.8.9-3.5,3.68-4.82,6.78-5.69,2.97-.83,6.03-.36,8.6-.48Z"/>
    </g>
  </g>
</svg>