<?xml version="1.0" encoding="UTF-8"?>
<svg id="Capa_2" data-name="Capa 2" xmlns="http://www.w3.org/2000/svg" xmlns:xlink="http://www.w3.org/1999/xlink" viewBox="0 0 450 450">
  <defs>
    <style>
      .cls-1 {
        fill: #e02176;
      }

      .cls-2 {
        fill: #fff;
      }

      .cls-3 {
        fill: #00a7bc;
      }

      .cls-4 {
        clip-path: url(#clippath);
      }

      .cls-5 {
        fill: none;
      }
    </style>
    <clipPath id="clippath">
      <rect class="cls-5" width="450" height="450"/>
    </clipPath>
  </defs>
  <g id="Capa_1-2" data-name="Capa 1">
    <g class="cls-4">
      <image width="5760" height="3840" transform="translate(-113.07 .16) scale(.12)" xlink:href="../../../ABCDinamico/imagenes/otros/graduados.jpg"/>
      <g>
        <rect class="cls-3" x="45.02" y="326.24" width="261.93" height="23.55"/>
        <rect class="cls-3" x="45.02" y="349.81" width="189.5" height="23.55"/>
        <g>
          <path class="cls-2" d="m49.73,345.09l4.41-13.85h4.39l4.41,13.85h-2.95l-3.84-12.52h.31l-3.82,12.52h-2.92Zm3.07-3.7l.66-2.42h5.76l.65,2.42h-7.06Z"/>
          <path class="cls-2" d="m64.18,345.09v-15.12h2.94v5.92h.14c.35-.39.76-.69,1.24-.89.47-.2,1-.3,1.57-.3.62,0,1.18.13,1.68.4.5.27.89.69,1.18,1.28.29.59.44,1.37.44,2.34v6.38h-2.94v-6.18c0-.63-.13-1.06-.38-1.3-.26-.23-.61-.35-1.06-.35-.22,0-.44.03-.67.08-.23.06-.44.15-.65.28-.2.13-.39.29-.55.47v6.99h-2.94Z"/>
          <path class="cls-2" d="m79.97,345.29c-1.01,0-1.88-.2-2.62-.58-.73-.39-1.3-.98-1.71-1.76-.4-.78-.61-1.76-.61-2.94s.2-2.17.59-2.96c.39-.79.95-1.37,1.69-1.76.73-.39,1.62-.58,2.66-.58s1.92.2,2.66.59c.74.39,1.3.98,1.69,1.76s.58,1.76.58,2.94-.2,2.16-.6,2.95c-.4.79-.97,1.37-1.7,1.76-.74.39-1.61.58-2.62.58Zm0-2.25c.41,0,.77-.09,1.06-.28s.52-.5.67-.94c.15-.44.23-1.04.23-1.81s-.08-1.39-.23-1.84-.38-.76-.67-.95c-.29-.18-.65-.28-1.06-.28s-.77.09-1.06.27c-.29.18-.52.49-.67.94-.15.44-.23,1.05-.23,1.82s.08,1.38.23,1.83c.15.44.38.76.67.95s.65.28,1.06.28Z"/>
          <path class="cls-2" d="m86.65,345.09v-10.24h2.41l.23,1.33h.15c.28-.51.66-.88,1.13-1.12.47-.23.98-.35,1.54-.35.15,0,.29,0,.44.02.15.01.27.03.38.06v2.7c-.15-.03-.32-.04-.49-.06s-.34-.02-.51-.02c-.29,0-.58.04-.87.11-.29.07-.57.18-.82.33-.26.15-.47.33-.64.54v6.71h-2.94Z"/>
          <path class="cls-2" d="m96.91,345.28c-1.04,0-1.84-.27-2.42-.82s-.87-1.26-.87-2.14c0-.96.33-1.71,1-2.26.66-.55,1.73-.87,3.21-.97l2.13-.18.33,1.65-2.16.18c-.56.04-.97.17-1.22.39-.25.22-.38.52-.38.9s.11.67.34.88c.23.2.56.3,1,.3.27,0,.55-.05.83-.15.28-.1.54-.27.78-.5v-3.73c0-.47-.08-.85-.23-1.12s-.4-.46-.74-.58c-.34-.11-.79-.17-1.34-.17-.39,0-.83.03-1.32.1-.49.07-.96.17-1.42.31v-2.26c.5-.14,1.04-.25,1.63-.32.59-.07,1.13-.1,1.65-.1,1.06,0,1.94.13,2.63.4.69.27,1.2.72,1.53,1.35.33.63.49,1.48.49,2.56v6.08h-2.42l-.21-1.02h-.13c-.3.41-.69.72-1.16.91s-.98.29-1.53.29Z"/>
          <path class="cls-2" d="m114.24,345.29c-1.27,0-2.32-.18-3.14-.55-.82-.37-1.43-.95-1.83-1.73s-.59-1.8-.59-3.03c0-1.13.18-2.09.55-2.88s.9-1.39,1.6-1.79c.7-.41,1.54-.61,2.54-.61s1.76.2,2.41.61c.65.41,1.14,1.01,1.48,1.81s.5,1.78.5,2.94v.78h-7.41v-1.71h5.14l-.47.18c0-.68-.06-1.22-.18-1.61-.12-.39-.31-.68-.56-.85s-.56-.26-.93-.26-.69.09-.95.26c-.26.17-.45.46-.58.85-.13.4-.19.93-.19,1.6v1.2c0,.62.09,1.12.27,1.5.18.38.49.64.93.8.44.16,1.05.24,1.82.24.4,0,.82-.03,1.25-.09.43-.06.86-.14,1.31-.24v2.24c-.54.12-1.05.21-1.54.26-.48.06-.96.08-1.43.08Z"/>
          <path class="cls-2" d="m122.39,345.29c-.59,0-1.15-.04-1.7-.11-.55-.07-1.06-.19-1.54-.34v-2.18c.49.14,1.01.25,1.55.33.54.08,1.09.12,1.64.12.67,0,1.14-.09,1.42-.27.27-.18.41-.43.41-.74,0-.25-.07-.44-.2-.58-.14-.13-.38-.24-.72-.3l-1.63-.3c-.96-.18-1.65-.51-2.08-1-.43-.49-.65-1.13-.65-1.95,0-.99.39-1.78,1.17-2.38.78-.6,1.98-.9,3.59-.9.49,0,.97.03,1.44.08.47.06.89.13,1.26.23v2.19c-.39-.11-.81-.19-1.25-.25s-.9-.09-1.36-.09c-.56,0-.99.05-1.3.15-.3.1-.51.22-.63.38-.12.16-.18.33-.18.5,0,.22.07.4.2.53.14.14.37.24.7.31l1.65.31c.9.17,1.58.48,2.04.93.46.45.69,1.12.69,2.01,0,1.02-.39,1.83-1.18,2.42-.78.59-1.9.88-3.34.88Z"/>
          <path class="cls-2" d="m133.11,345.09v-10.24h2.42l.2,1.05h.14c.36-.41.78-.71,1.25-.91.48-.2,1.01-.3,1.59-.3s1.14.13,1.62.39c.47.26.85.68,1.12,1.26.27.58.41,1.34.41,2.27v6.48h-2.89v-6.21c0-.62-.11-1.04-.34-1.28-.23-.23-.54-.35-.93-.35-.2,0-.4.03-.6.09-.2.06-.4.15-.58.28-.18.13-.34.29-.49.48v6.98h-2.94Zm11.63,0v-6.21c0-.62-.12-1.04-.37-1.28-.25-.23-.56-.35-.95-.35-.21,0-.42.03-.64.09-.22.06-.42.16-.61.3s-.35.32-.49.54l-.6-1.94c.46-.55.97-.95,1.54-1.2.57-.24,1.14-.36,1.71-.36.64,0,1.22.13,1.73.4s.91.69,1.2,1.29.44,1.37.44,2.34v6.37h-2.94Z"/>
          <path class="cls-2" d="m152.57,345.28c-1.04,0-1.84-.27-2.42-.82s-.87-1.26-.87-2.14c0-.96.33-1.71,1-2.26.66-.55,1.73-.87,3.21-.97l2.13-.18.33,1.65-2.16.18c-.56.04-.97.17-1.22.39-.25.22-.38.52-.38.9s.11.67.34.88c.23.2.56.3,1,.3.27,0,.55-.05.83-.15.28-.1.54-.27.78-.5v-3.73c0-.47-.08-.85-.23-1.12s-.4-.46-.74-.58c-.34-.11-.79-.17-1.34-.17-.39,0-.83.03-1.32.1-.49.07-.96.17-1.42.31v-2.26c.5-.14,1.04-.25,1.63-.32.59-.07,1.13-.1,1.65-.1,1.06,0,1.94.13,2.63.4.69.27,1.2.72,1.53,1.35.33.63.49,1.48.49,2.56v6.08h-2.42l-.21-1.02h-.13c-.3.41-.69.72-1.16.91s-.98.29-1.53.29Zm-.07-11.73l2.08-3.58h3.13l-2.53,3.58h-2.68Z"/>
          <path class="cls-2" d="m163.13,345.29c-.59,0-1.15-.04-1.7-.11-.55-.07-1.06-.19-1.54-.34v-2.18c.49.14,1.01.25,1.55.33.54.08,1.09.12,1.64.12.67,0,1.14-.09,1.42-.27.27-.18.41-.43.41-.74,0-.25-.07-.44-.2-.58-.14-.13-.38-.24-.72-.3l-1.63-.3c-.96-.18-1.65-.51-2.08-1-.43-.49-.65-1.13-.65-1.95,0-.99.39-1.78,1.17-2.38.78-.6,1.98-.9,3.59-.9.49,0,.97.03,1.44.08.47.06.89.13,1.26.23v2.19c-.39-.11-.81-.19-1.25-.25s-.9-.09-1.36-.09c-.56,0-.99.05-1.3.15-.3.1-.51.22-.63.38-.12.16-.18.33-.18.5,0,.22.07.4.2.53.14.14.37.24.7.31l1.65.31c.9.17,1.58.48,2.04.93.46.45.69,1.12.69,2.01,0,1.02-.39,1.83-1.18,2.42-.78.59-1.9.88-3.34.88Z"/>
          <path class="cls-2" d="m172.98,337.2v-2.35h7.25v2.35h-7.25Zm1.65,7.89v-10.98c0-.9.17-1.68.52-2.33s.86-1.14,1.54-1.49c.68-.35,1.5-.52,2.48-.52.27,0,.52,0,.76.03s.48.05.71.08v2.33c-.18-.03-.35-.05-.52-.06s-.34-.02-.51-.02c-.72,0-1.24.15-1.57.45-.33.3-.5.76-.5,1.4v11.11h-2.92Z"/>
          <path class="cls-2" d="m184.05,345.28c-1.04,0-1.84-.27-2.42-.82s-.87-1.26-.87-2.14c0-.96.33-1.71,1-2.26.66-.55,1.73-.87,3.21-.97l2.13-.18.33,1.65-2.16.18c-.56.04-.97.17-1.22.39-.25.22-.38.52-.38.9s.11.67.34.88c.23.2.56.3,1,.3.27,0,.55-.05.83-.15.28-.1.54-.27.78-.5v-3.73c0-.47-.08-.85-.23-1.12s-.4-.46-.74-.58c-.34-.11-.79-.17-1.34-.17-.39,0-.83.03-1.32.1-.49.07-.96.17-1.42.31v-2.26c.5-.14,1.04-.25,1.63-.32.59-.07,1.13-.1,1.65-.1,1.06,0,1.94.13,2.63.4.69.27,1.2.72,1.53,1.35.33.63.49,1.48.49,2.56v6.08h-2.42l-.21-1.02h-.13c-.3.41-.69.72-1.16.91s-.98.29-1.53.29Zm-.07-11.73l2.08-3.58h3.13l-2.53,3.58h-2.68Z"/>
          <path class="cls-2" d="m196.42,345.29c-1.13,0-2.08-.19-2.86-.58s-1.37-.97-1.78-1.75-.61-1.77-.61-2.96.22-2.2.66-2.98c.44-.78,1.07-1.37,1.9-1.75.83-.38,1.83-.57,3.01-.57.41,0,.81.02,1.18.06.38.04.73.1,1.07.18v2.36c-.31-.07-.62-.12-.93-.14-.3-.03-.61-.04-.92-.04-.68,0-1.23.1-1.66.29-.43.2-.75.51-.95.93-.21.42-.31.97-.31,1.64s.1,1.27.3,1.7c.2.43.5.74.89.93.39.19.89.28,1.48.28.32,0,.65-.03.98-.08.33-.05.71-.14,1.12-.26v2.37c-.37.12-.77.22-1.21.29-.44.07-.89.1-1.35.1Z"/>
          <path class="cls-2" d="m202,333.35c-.62,0-1.08-.14-1.37-.41s-.45-.65-.45-1.14.15-.88.45-1.15.76-.4,1.37-.4,1.08.13,1.38.4.44.65.44,1.15-.15.87-.44,1.14-.76.41-1.38.41Zm-1.47,11.74v-10.24h2.95v10.24h-2.95Z"/>
          <path class="cls-2" d="m205.69,345.09v-15.12h2.94v15.12h-2.94Z"/>
          <path class="cls-2" d="m220.59,345.29c-1.27,0-2.32-.18-3.14-.55-.82-.37-1.43-.95-1.83-1.73s-.59-1.8-.59-3.03c0-1.13.18-2.09.55-2.88s.9-1.39,1.6-1.79c.7-.41,1.54-.61,2.54-.61s1.76.2,2.41.61c.65.41,1.14,1.01,1.48,1.81s.5,1.78.5,2.94v.78h-7.41v-1.71h5.14l-.47.18c0-.68-.06-1.22-.18-1.61-.12-.39-.31-.68-.56-.85s-.56-.26-.93-.26-.69.09-.95.26c-.26.17-.45.46-.58.85-.13.4-.19.93-.19,1.6v1.2c0,.62.09,1.12.27,1.5.18.38.49.64.93.8.44.16,1.05.24,1.82.24.4,0,.82-.03,1.25-.09.43-.06.86-.14,1.31-.24v2.24c-.54.12-1.05.21-1.54.26-.48.06-.96.08-1.43.08Z"/>
          <path class="cls-2" d="m225.76,345.09v-10.24h2.42l.2,1.05h.14c.38-.39.82-.69,1.32-.9s1.05-.31,1.65-.31c.67,0,1.27.13,1.79.4.52.27.93.69,1.22,1.28s.44,1.37.44,2.33v6.38h-2.94v-6.21c0-.61-.13-1.04-.38-1.27s-.6-.36-1.05-.36c-.22,0-.45.03-.67.09-.23.06-.44.15-.65.27-.21.12-.39.28-.55.47v7h-2.94Z"/>
          <path class="cls-2" d="m241.87,345.29c-1.13,0-2.08-.19-2.86-.58s-1.37-.97-1.78-1.75-.61-1.77-.61-2.96.22-2.2.66-2.98c.44-.78,1.07-1.37,1.9-1.75.83-.38,1.83-.57,3.01-.57.41,0,.81.02,1.18.06.38.04.73.1,1.07.18v2.36c-.31-.07-.62-.12-.93-.14-.3-.03-.61-.04-.92-.04-.68,0-1.23.1-1.66.29-.43.2-.75.51-.95.93-.21.42-.31.97-.31,1.64s.1,1.27.3,1.7c.2.43.5.74.89.93.39.19.89.28,1.48.28.32,0,.65-.03.98-.08.33-.05.71-.14,1.12-.26v2.37c-.37.12-.77.22-1.21.29-.44.07-.89.1-1.35.1Z"/>
          <path class="cls-2" d="m250.44,345.29c-1.01,0-1.88-.2-2.62-.58-.73-.39-1.3-.98-1.71-1.76-.4-.78-.61-1.76-.61-2.94s.2-2.17.59-2.96c.39-.79.95-1.37,1.69-1.76.73-.39,1.62-.58,2.66-.58s1.92.2,2.66.59c.74.39,1.3.98,1.69,1.76s.58,1.76.58,2.94-.2,2.16-.6,2.95c-.4.79-.97,1.37-1.7,1.76-.74.39-1.61.58-2.62.58Zm0-2.25c.41,0,.77-.09,1.06-.28s.52-.5.67-.94c.15-.44.23-1.04.23-1.81s-.08-1.39-.23-1.84-.38-.76-.67-.95c-.29-.18-.65-.28-1.06-.28s-.77.09-1.06.27c-.29.18-.52.49-.67.94-.15.44-.23,1.05-.23,1.82s.08,1.38.23,1.83c.15.44.38.76.67.95s.65.28,1.06.28Z"/>
          <path class="cls-2" d="m257.12,345.09v-10.24h2.42l.2,1.05h.14c.38-.39.82-.69,1.32-.9s1.05-.31,1.65-.31c.67,0,1.27.13,1.79.4.52.27.93.69,1.22,1.28s.44,1.37.44,2.33v6.38h-2.94v-6.21c0-.61-.13-1.04-.38-1.27s-.6-.36-1.05-.36c-.22,0-.45.03-.67.09-.23.06-.44.15-.65.27-.21.12-.39.28-.55.47v7h-2.94Z"/>
          <path class="cls-2" d="m267.5,337.2v-2.35h7.26v2.35h-7.26Zm5.45,8.08c-1.22,0-2.16-.31-2.82-.92-.66-.62-.99-1.59-.99-2.92v-6.58l.54-3.61h2.41v9.73c0,.69.13,1.17.39,1.44.26.27.68.4,1.26.4.17,0,.33,0,.5-.03.17-.02.36-.05.57-.08v2.35c-.26.06-.56.12-.89.16-.33.04-.66.07-.98.07Z"/>
          <path class="cls-2" d="m276.24,345.09v-10.24h2.41l.23,1.33h.15c.28-.51.66-.88,1.13-1.12.47-.23.98-.35,1.54-.35.15,0,.29,0,.44.02.15.01.27.03.38.06v2.7c-.15-.03-.32-.04-.49-.06s-.34-.02-.51-.02c-.29,0-.58.04-.87.11-.29.07-.57.18-.82.33-.26.15-.47.33-.64.54v6.71h-2.94Z"/>
          <path class="cls-2" d="m286.5,345.28c-1.04,0-1.84-.27-2.42-.82s-.87-1.26-.87-2.14c0-.96.33-1.71,1-2.26.66-.55,1.73-.87,3.21-.97l2.13-.18.33,1.65-2.16.18c-.56.04-.97.17-1.22.39-.25.22-.38.52-.38.9s.11.67.34.88c.23.2.56.3,1,.3.27,0,.55-.05.83-.15.28-.1.54-.27.78-.5v-3.73c0-.47-.08-.85-.23-1.12s-.4-.46-.74-.58c-.34-.11-.79-.17-1.34-.17-.39,0-.83.03-1.32.1-.49.07-.96.17-1.42.31v-2.26c.5-.14,1.04-.25,1.63-.32.59-.07,1.13-.1,1.65-.1,1.06,0,1.94.13,2.63.4.69.27,1.2.72,1.53,1.35.33.63.49,1.48.49,2.56v6.08h-2.42l-.21-1.02h-.13c-.3.41-.69.72-1.16.91s-.98.29-1.53.29Z"/>
          <path class="cls-2" d="m294.08,345.09v-10.24h2.41l.23,1.33h.15c.28-.51.66-.88,1.13-1.12.47-.23.98-.35,1.54-.35.15,0,.29,0,.44.02.15.01.27.03.38.06v2.7c-.15-.03-.32-.04-.49-.06s-.34-.02-.51-.02c-.29,0-.58.04-.87.11-.29.07-.57.18-.82.33-.26.15-.47.33-.64.54v6.71h-2.94Z"/>
          <path class="cls-2" d="m50.7,367.55v-15.12h2.94v15.12h-2.94Z"/>
          <path class="cls-2" d="m58.62,367.74c-1.04,0-1.84-.27-2.42-.82s-.87-1.26-.87-2.14c0-.96.33-1.71,1-2.26.66-.55,1.73-.87,3.21-.97l2.13-.18.33,1.65-2.16.18c-.56.04-.97.17-1.22.39-.25.22-.38.52-.38.9s.11.67.34.88c.23.2.56.3,1,.3.27,0,.55-.05.83-.15.28-.1.54-.27.78-.5v-3.73c0-.47-.08-.85-.23-1.12s-.4-.46-.74-.58c-.34-.11-.79-.17-1.34-.17-.39,0-.83.03-1.32.1-.49.07-.96.17-1.42.31v-2.26c.5-.14,1.04-.25,1.63-.32.59-.07,1.13-.1,1.65-.1,1.06,0,1.94.13,2.63.4.69.27,1.2.72,1.53,1.35.33.63.49,1.48.49,2.56v6.08h-2.42l-.21-1.02h-.13c-.3.41-.69.72-1.16.91s-.98.29-1.53.29Z"/>
          <path class="cls-2" d="m75.65,367.75c-1.13,0-2.08-.19-2.86-.58s-1.37-.97-1.78-1.75-.61-1.77-.61-2.96.22-2.2.66-2.98c.44-.78,1.07-1.37,1.9-1.75.83-.38,1.83-.57,3.01-.57.41,0,.81.02,1.18.06.38.04.73.1,1.07.18v2.36c-.31-.07-.62-.12-.93-.14-.3-.03-.61-.04-.92-.04-.68,0-1.23.1-1.66.29-.43.2-.75.51-.95.93-.21.42-.31.97-.31,1.64s.1,1.27.3,1.7c.2.43.5.74.89.93.39.19.89.28,1.48.28.32,0,.65-.03.98-.08.33-.05.71-.14,1.12-.26v2.37c-.37.12-.77.22-1.21.29-.44.07-.89.1-1.35.1Z"/>
          <path class="cls-2" d="m82.52,367.74c-1.04,0-1.84-.27-2.42-.82s-.87-1.26-.87-2.14c0-.96.33-1.71,1-2.26.66-.55,1.73-.87,3.21-.97l2.13-.18.33,1.65-2.16.18c-.56.04-.97.17-1.22.39-.25.22-.38.52-.38.9s.11.67.34.88c.23.2.56.3,1,.3.27,0,.55-.05.83-.15.28-.1.54-.27.78-.5v-3.73c0-.47-.08-.85-.23-1.12s-.4-.46-.74-.58c-.34-.11-.79-.17-1.34-.17-.39,0-.83.03-1.32.1-.49.07-.96.17-1.42.31v-2.26c.5-.14,1.04-.25,1.63-.32.59-.07,1.13-.1,1.65-.1,1.06,0,1.94.13,2.63.4.69.27,1.2.72,1.53,1.35.33.63.49,1.48.49,2.56v6.08h-2.42l-.21-1.02h-.13c-.3.41-.69.72-1.16.91s-.98.29-1.53.29Z"/>
          <path class="cls-2" d="m90.1,367.55v-10.24h2.41l.23,1.33h.15c.28-.51.66-.88,1.13-1.12.47-.23.98-.35,1.54-.35.15,0,.29,0,.44.02.15.01.27.03.38.06v2.7c-.15-.03-.32-.04-.49-.06s-.34-.02-.51-.02c-.29,0-.58.04-.87.11-.29.07-.57.18-.82.33-.26.15-.47.33-.64.54v6.71h-2.94Z"/>
          <path class="cls-2" d="m97.6,367.55v-10.24h2.41l.23,1.33h.15c.28-.51.66-.88,1.13-1.12.47-.23.98-.35,1.54-.35.15,0,.29,0,.44.02.15.01.27.03.38.06v2.7c-.15-.03-.32-.04-.49-.06s-.34-.02-.51-.02c-.29,0-.58.04-.87.11-.29.07-.57.18-.82.33-.26.15-.47.33-.64.54v6.71h-2.94Z"/>
          <path class="cls-2" d="m110.19,367.75c-1.27,0-2.32-.18-3.14-.55-.82-.37-1.43-.95-1.83-1.73s-.59-1.8-.59-3.03c0-1.13.18-2.09.55-2.88s.9-1.39,1.6-1.79c.7-.41,1.54-.61,2.54-.61s1.76.2,2.41.61c.65.41,1.14,1.01,1.48,1.81s.5,1.78.5,2.94v.78h-7.41v-1.71h5.14l-.47.18c0-.68-.06-1.22-.18-1.61-.12-.39-.31-.68-.56-.85s-.56-.26-.93-.26-.69.09-.95.26c-.26.17-.45.46-.58.85-.13.4-.19.93-.19,1.6v1.2c0,.62.09,1.12.27,1.5.18.38.49.64.93.8.44.16,1.05.24,1.82.24.4,0,.82-.03,1.25-.09.43-.06.86-.14,1.31-.24v2.24c-.54.12-1.05.21-1.54.26-.48.06-.96.08-1.43.08Z"/>
          <path class="cls-2" d="m115.35,367.55v-10.24h2.41l.23,1.33h.15c.28-.51.66-.88,1.13-1.12.47-.23.98-.35,1.54-.35.15,0,.29,0,.44.02.15.01.27.03.38.06v2.7c-.15-.03-.32-.04-.49-.06s-.34-.02-.51-.02c-.29,0-.58.04-.87.11-.29.07-.57.18-.82.33-.26.15-.47.33-.64.54v6.71h-2.94Z"/>
          <path class="cls-2" d="m125.61,367.74c-1.04,0-1.84-.27-2.42-.82s-.87-1.26-.87-2.14c0-.96.33-1.71,1-2.26.66-.55,1.73-.87,3.21-.97l2.13-.18.33,1.65-2.16.18c-.56.04-.97.17-1.22.39-.25.22-.38.52-.38.9s.11.67.34.88c.23.2.56.3,1,.3.27,0,.55-.05.83-.15.28-.1.54-.27.78-.5v-3.73c0-.47-.08-.85-.23-1.12s-.4-.46-.74-.58c-.34-.11-.79-.17-1.34-.17-.39,0-.83.03-1.32.1-.49.07-.96.17-1.42.31v-2.26c.5-.14,1.04-.25,1.63-.32.59-.07,1.13-.1,1.65-.1,1.06,0,1.94.13,2.63.4.69.27,1.2.72,1.53,1.35.33.63.49,1.48.49,2.56v6.08h-2.42l-.21-1.02h-.13c-.3.41-.69.72-1.16.91s-.98.29-1.53.29Z"/>
          <path class="cls-2" d="m140.61,367.74c-1.04,0-1.84-.27-2.42-.82s-.87-1.26-.87-2.14c0-.96.33-1.71,1-2.26.66-.55,1.73-.87,3.21-.97l2.13-.18.33,1.65-2.16.18c-.56.04-.97.17-1.22.39-.25.22-.38.52-.38.9s.11.67.34.88c.23.2.56.3,1,.3.27,0,.55-.05.83-.15.28-.1.54-.27.78-.5v-3.73c0-.47-.08-.85-.23-1.12s-.4-.46-.74-.58c-.34-.11-.79-.17-1.34-.17-.39,0-.83.03-1.32.1-.49.07-.96.17-1.42.31v-2.26c.5-.14,1.04-.25,1.63-.32.59-.07,1.13-.1,1.65-.1,1.06,0,1.94.13,2.63.4.69.27,1.2.72,1.53,1.35.33.63.49,1.48.49,2.56v6.08h-2.42l-.21-1.02h-.13c-.3.41-.69.72-1.16.91s-.98.29-1.53.29Z"/>
          <path class="cls-2" d="m151.88,367.74c-.75,0-1.44-.17-2.07-.52-.63-.35-1.14-.9-1.52-1.65-.38-.75-.57-1.72-.57-2.92s.21-2.19.63-3.01,1.04-1.44,1.86-1.86,1.82-.63,3.03-.63c.22,0,.42,0,.62.02s.38.03.55.06v-4.79h2.95v15.12h-2.48l-.18-1.08h-.15c-.28.37-.64.68-1.1.91-.46.23-.98.35-1.58.35Zm.86-2.44c.31,0,.62-.06.92-.17.3-.11.55-.29.76-.53v-5.06c-.16-.04-.35-.07-.56-.09-.21-.02-.42-.03-.62-.03-.84,0-1.48.23-1.91.69-.43.46-.64,1.23-.64,2.31,0,.74.09,1.32.26,1.74.17.42.41.71.72.88s.66.26,1.06.26Z"/>
          <path class="cls-2" d="m164.66,367.75c-1.27,0-2.32-.18-3.14-.55-.82-.37-1.43-.95-1.83-1.73s-.59-1.8-.59-3.03c0-1.13.18-2.09.55-2.88s.9-1.39,1.6-1.79c.7-.41,1.54-.61,2.54-.61s1.76.2,2.41.61c.65.41,1.14,1.01,1.48,1.81s.5,1.78.5,2.94v.78h-7.41v-1.71h5.14l-.47.18c0-.68-.06-1.22-.18-1.61-.12-.39-.31-.68-.56-.85s-.56-.26-.93-.26-.69.09-.95.26c-.26.17-.45.46-.58.85-.13.4-.19.93-.19,1.6v1.2c0,.62.09,1.12.27,1.5.18.38.49.64.93.8.44.16,1.05.24,1.82.24.4,0,.82-.03,1.25-.09.43-.06.86-.14,1.31-.24v2.24c-.54.12-1.05.21-1.54.26-.48.06-.96.08-1.43.08Z"/>
          <path class="cls-2" d="m174.62,367.75c-1.13,0-2.08-.19-2.86-.58s-1.37-.97-1.78-1.75-.61-1.77-.61-2.96.22-2.2.66-2.98c.44-.78,1.07-1.37,1.9-1.75.83-.38,1.83-.57,3.01-.57.41,0,.81.02,1.18.06.38.04.73.1,1.07.18v2.36c-.31-.07-.62-.12-.93-.14-.3-.03-.61-.04-.92-.04-.68,0-1.23.1-1.66.29-.43.2-.75.51-.95.93-.21.42-.31.97-.31,1.64s.1,1.27.3,1.7c.2.43.5.74.89.93.39.19.89.28,1.48.28.32,0,.65-.03.98-.08.33-.05.71-.14,1.12-.26v2.37c-.37.12-.77.22-1.21.29-.44.07-.89.1-1.35.1Z"/>
          <path class="cls-2" d="m182.13,367.72c-.68,0-1.28-.13-1.8-.4-.52-.26-.93-.69-1.24-1.28-.3-.59-.45-1.36-.45-2.32v-6.41h2.95v6.2c0,.61.13,1.04.38,1.28.26.24.59.37,1,.37.2,0,.42-.03.64-.09.22-.06.44-.16.65-.28s.38-.28.52-.47v-7.01h2.96v10.24h-2.44l-.19-1.03h-.13c-.38.4-.82.7-1.3.9-.49.2-1.01.3-1.55.3Z"/>
          <path class="cls-2" d="m192.72,367.74c-1.04,0-1.84-.27-2.42-.82s-.87-1.26-.87-2.14c0-.96.33-1.71,1-2.26.66-.55,1.73-.87,3.21-.97l2.13-.18.33,1.65-2.16.18c-.56.04-.97.17-1.22.39-.25.22-.38.52-.38.9s.11.67.34.88c.23.2.56.3,1,.3.27,0,.55-.05.83-.15.28-.1.54-.27.78-.5v-3.73c0-.47-.08-.85-.23-1.12s-.4-.46-.74-.58c-.34-.11-.79-.17-1.34-.17-.39,0-.83.03-1.32.1-.49.07-.96.17-1.42.31v-2.26c.5-.14,1.04-.25,1.63-.32.59-.07,1.13-.1,1.65-.1,1.06,0,1.94.13,2.63.4.69.27,1.2.72,1.53,1.35.33.63.49,1.48.49,2.56v6.08h-2.42l-.21-1.02h-.13c-.3.41-.69.72-1.16.91s-.98.29-1.53.29Z"/>
          <path class="cls-2" d="m203.99,367.74c-.75,0-1.44-.17-2.07-.52-.63-.35-1.14-.9-1.52-1.65-.38-.75-.57-1.72-.57-2.92s.21-2.19.63-3.01,1.04-1.44,1.86-1.86,1.82-.63,3.03-.63c.22,0,.42,0,.62.02s.38.03.55.06v-4.79h2.95v15.12h-2.48l-.18-1.08h-.15c-.28.37-.64.68-1.1.91-.46.23-.98.35-1.58.35Zm.86-2.44c.31,0,.62-.06.92-.17.3-.11.55-.29.76-.53v-5.06c-.16-.04-.35-.07-.56-.09-.21-.02-.42-.03-.62-.03-.84,0-1.48.23-1.91.69-.43.46-.64,1.23-.64,2.31,0,.74.09,1.32.26,1.74.17.42.41.71.72.88s.66.26,1.06.26Z"/>
          <path class="cls-2" d="m214.44,367.74c-1.04,0-1.84-.27-2.42-.82s-.87-1.26-.87-2.14c0-.96.33-1.71,1-2.26.66-.55,1.73-.87,3.21-.97l2.13-.18.33,1.65-2.16.18c-.56.04-.97.17-1.22.39-.25.22-.38.52-.38.9s.11.67.34.88c.23.2.56.3,1,.3.27,0,.55-.05.83-.15.28-.1.54-.27.78-.5v-3.73c0-.47-.08-.85-.23-1.12s-.4-.46-.74-.58c-.34-.11-.79-.17-1.34-.17-.39,0-.83.03-1.32.1-.49.07-.96.17-1.42.31v-2.26c.5-.14,1.04-.25,1.63-.32.59-.07,1.13-.1,1.65-.1,1.06,0,1.94.13,2.63.4.69.27,1.2.72,1.53,1.35.33.63.49,1.48.49,2.56v6.08h-2.42l-.21-1.02h-.13c-.3.41-.69.72-1.16.91s-.98.29-1.53.29Z"/>
          <path class="cls-2" d="m223.49,367.71c-.57,0-1.04-.16-1.39-.49-.35-.33-.53-.76-.53-1.32s.17-1,.52-1.33c.35-.32.81-.49,1.41-.49s1.06.17,1.4.5c.34.33.51.77.51,1.32s-.17.98-.52,1.31-.81.5-1.39.5Z"/>
        </g>
        <rect class="cls-1" x="45.02" y="296.64" width="360" height="25.59"/>
        <g>
          <path class="cls-2" d="m56.82,317.18c-1.29,0-2.42-.26-3.39-.77-.97-.51-1.72-1.3-2.26-2.35-.54-1.05-.81-2.38-.81-3.98s.27-2.93.81-3.98c.54-1.05,1.29-1.83,2.25-2.35s2.1-.77,3.39-.77,2.45.26,3.41.77c.96.51,1.71,1.3,2.24,2.35.53,1.05.8,2.38.8,3.98s-.27,2.92-.8,3.98c-.53,1.05-1.28,1.84-2.25,2.35-.97.52-2.1.77-3.41.77Zm0-2.46c.7,0,1.31-.15,1.82-.46s.9-.8,1.16-1.47.4-1.56.4-2.65-.13-2.06-.4-2.74c-.27-.69-.66-1.19-1.17-1.5-.51-.31-1.11-.47-1.81-.47s-1.3.15-1.79.45c-.5.3-.89.79-1.16,1.46s-.41,1.56-.41,2.66.13,2.07.4,2.75c.27.69.65,1.18,1.15,1.49.5.31,1.1.46,1.8.46Z"/>
          <path class="cls-2" d="m64.28,309.11v-2.35h7.25v2.35h-7.25Zm1.65,7.89v-10.98c0-.9.17-1.68.52-2.33s.86-1.14,1.54-1.49c.68-.35,1.5-.52,2.48-.52.27,0,.52,0,.76.03s.48.05.71.08v2.33c-.18-.03-.35-.05-.52-.06s-.34-.02-.51-.02c-.72,0-1.24.15-1.57.45-.33.3-.5.76-.5,1.4v11.11h-2.92Z"/>
          <path class="cls-2" d="m77.68,317.2c-1.27,0-2.32-.18-3.14-.55-.82-.37-1.43-.95-1.83-1.73s-.59-1.8-.59-3.03c0-1.13.18-2.09.55-2.88s.9-1.39,1.6-1.79c.7-.41,1.54-.61,2.54-.61s1.76.2,2.41.61c.65.41,1.14,1.01,1.48,1.81s.5,1.78.5,2.94v.78h-7.41v-1.71h5.14l-.47.18c0-.68-.06-1.22-.18-1.61-.12-.39-.31-.68-.56-.85s-.56-.26-.93-.26-.69.09-.95.26c-.26.17-.45.46-.58.85-.13.4-.19.93-.19,1.6v1.2c0,.62.09,1.12.27,1.5.18.38.49.64.93.8.44.16,1.05.24,1.82.24.4,0,.82-.03,1.25-.09.43-.06.86-.14,1.31-.24v2.24c-.54.12-1.05.21-1.54.26-.48.06-.96.08-1.43.08Z"/>
          <path class="cls-2" d="m82.85,317v-10.24h2.41l.23,1.33h.15c.28-.51.66-.88,1.13-1.12.47-.23.98-.35,1.54-.35.15,0,.29,0,.44.02.15.01.27.03.38.06v2.7c-.15-.03-.32-.04-.49-.06s-.34-.02-.51-.02c-.29,0-.58.04-.87.11-.29.07-.57.18-.82.33-.26.15-.47.33-.64.54v6.71h-2.94Z"/>
          <path class="cls-2" d="m89.4,309.11v-2.35h7.26v2.35h-7.26Zm5.45,8.08c-1.22,0-2.16-.31-2.82-.92-.66-.62-.99-1.59-.99-2.92v-6.58l.54-3.61h2.41v9.73c0,.69.13,1.17.39,1.44.26.27.68.4,1.26.4.17,0,.33,0,.5-.03.17-.02.36-.05.57-.08v2.35c-.26.06-.56.12-.89.16-.33.04-.66.07-.98.07Z"/>
          <path class="cls-2" d="m100.91,317.19c-1.04,0-1.84-.27-2.42-.82s-.87-1.26-.87-2.14c0-.96.33-1.71,1-2.26.66-.55,1.73-.87,3.21-.97l2.13-.18.33,1.65-2.16.18c-.56.04-.97.17-1.22.39-.25.22-.38.52-.38.9s.11.67.34.88c.23.2.56.3,1,.3.27,0,.55-.05.83-.15.28-.1.54-.27.78-.5v-3.73c0-.47-.08-.85-.23-1.12s-.4-.46-.74-.58c-.34-.11-.79-.17-1.34-.17-.39,0-.83.03-1.32.1-.49.07-.96.17-1.42.31v-2.26c.5-.14,1.04-.25,1.63-.32.59-.07,1.13-.1,1.65-.1,1.06,0,1.94.13,2.63.4.69.27,1.2.72,1.53,1.35.33.63.49,1.48.49,2.56v6.08h-2.42l-.21-1.02h-.13c-.3.41-.69.72-1.16.91s-.98.29-1.53.29Z"/>
          <path class="cls-2" d="m111.47,317.2c-.59,0-1.15-.04-1.7-.11-.55-.07-1.06-.19-1.54-.34v-2.18c.49.14,1.01.25,1.55.33.54.08,1.09.12,1.64.12.67,0,1.14-.09,1.42-.27.27-.18.41-.43.41-.74,0-.25-.07-.44-.2-.58-.14-.13-.38-.24-.72-.3l-1.63-.3c-.96-.18-1.65-.51-2.08-1-.43-.49-.65-1.13-.65-1.95,0-.99.39-1.78,1.17-2.38.78-.6,1.98-.9,3.59-.9.49,0,.97.03,1.44.08.47.06.89.13,1.26.23v2.19c-.39-.11-.81-.19-1.25-.25s-.9-.09-1.36-.09c-.56,0-.99.05-1.3.15-.3.1-.51.22-.63.38-.12.16-.18.33-.18.5,0,.22.07.4.2.53.14.14.37.24.7.31l1.65.31c.9.17,1.58.48,2.04.93.46.45.69,1.12.69,2.01,0,1.02-.39,1.83-1.18,2.42-.78.59-1.9.88-3.34.88Z"/>
          <path class="cls-2" d="m125.88,317.19c-.75,0-1.44-.17-2.07-.52-.63-.35-1.14-.9-1.52-1.65-.38-.75-.57-1.72-.57-2.92s.21-2.19.63-3.01,1.04-1.44,1.86-1.86,1.82-.63,3.03-.63c.22,0,.42,0,.62.02s.38.03.55.06v-4.79h2.95v15.12h-2.48l-.18-1.08h-.15c-.28.37-.64.68-1.1.91-.46.23-.98.35-1.58.35Zm.86-2.44c.31,0,.62-.06.92-.17.3-.11.55-.29.76-.53v-5.06c-.16-.04-.35-.07-.56-.09-.21-.02-.42-.03-.62-.03-.84,0-1.48.23-1.91.69-.43.46-.64,1.23-.64,2.31,0,.74.09,1.32.26,1.74.17.42.41.71.72.88s.66.26,1.06.26Z"/>
          <path class="cls-2" d="m138.66,317.2c-1.27,0-2.32-.18-3.14-.55-.82-.37-1.43-.95-1.83-1.73s-.59-1.8-.59-3.03c0-1.13.18-2.09.55-2.88s.9-1.39,1.6-1.79c.7-.41,1.54-.61,2.54-.61s1.76.2,2.41.61c.65.41,1.14,1.01,1.48,1.81s.5,1.78.5,2.94v.78h-7.41v-1.71h5.14l-.47.18c0-.68-.06-1.22-.18-1.61-.12-.39-.31-.68-.56-.85s-.56-.26-.93-.26-.69.09-.95.26c-.26.17-.45.46-.58.85-.13.4-.19.93-.19,1.6v1.2c0,.62.09,1.12.27,1.5.18.38.49.64.93.8.44.16,1.05.24,1.82.24.4,0,.82-.03,1.25-.09.43-.06.86-.14,1.31-.24v2.24c-.54.12-1.05.21-1.54.26-.48.06-.96.08-1.43.08Z"/>
          <path class="cls-2" d="m148.61,317v-13.85h9.61v2.43h-6.64v8.98h6.74v2.43h-9.71Zm1.79-5.87v-2.43h6.88v2.43h-6.88Z"/>
          <path class="cls-2" d="m163.77,317.19c-.75,0-1.44-.17-2.07-.52-.63-.35-1.14-.9-1.52-1.65-.38-.75-.57-1.72-.57-2.92s.21-2.19.63-3.01,1.04-1.44,1.86-1.86,1.82-.63,3.03-.63c.22,0,.42,0,.62.02s.38.03.55.06v-4.79h2.95v15.12h-2.48l-.18-1.08h-.15c-.28.37-.64.68-1.1.91-.46.23-.98.35-1.58.35Zm.86-2.44c.31,0,.62-.06.92-.17.3-.11.55-.29.76-.53v-5.06c-.16-.04-.35-.07-.56-.09-.21-.02-.42-.03-.62-.03-.84,0-1.48.23-1.91.69-.43.46-.64,1.23-.64,2.31,0,.74.09,1.32.26,1.74.17.42.41.71.72.88s.66.26,1.06.26Z"/>
          <path class="cls-2" d="m174.86,317.17c-.68,0-1.28-.13-1.8-.4-.52-.26-.93-.69-1.24-1.28-.3-.59-.45-1.36-.45-2.32v-6.41h2.95v6.2c0,.61.13,1.04.38,1.28.26.24.59.37,1,.37.2,0,.42-.03.64-.09.22-.06.44-.16.65-.28s.38-.28.52-.47v-7.01h2.96v10.24h-2.44l-.19-1.03h-.13c-.38.4-.82.7-1.3.9-.49.2-1.01.3-1.55.3Z"/>
          <path class="cls-2" d="m187.47,317.2c-1.13,0-2.08-.19-2.86-.58s-1.37-.97-1.78-1.75-.61-1.77-.61-2.96.22-2.2.66-2.98c.44-.78,1.07-1.37,1.9-1.75.83-.38,1.83-.57,3.01-.57.41,0,.81.02,1.18.06.38.04.73.1,1.07.18v2.36c-.31-.07-.62-.12-.93-.14-.3-.03-.61-.04-.92-.04-.68,0-1.23.1-1.66.29-.43.2-.75.51-.95.93-.21.42-.31.97-.31,1.64s.1,1.27.3,1.7c.2.43.5.74.89.93.39.19.89.28,1.48.28.32,0,.65-.03.98-.08.33-.05.71-.14,1.12-.26v2.37c-.37.12-.77.22-1.21.29-.44.07-.89.1-1.35.1Z"/>
          <path class="cls-2" d="m194.35,317.19c-1.04,0-1.84-.27-2.42-.82s-.87-1.26-.87-2.14c0-.96.33-1.71,1-2.26.66-.55,1.73-.87,3.21-.97l2.13-.18.33,1.65-2.16.18c-.56.04-.97.17-1.22.39-.25.22-.38.52-.38.9s.11.67.34.88c.23.2.56.3,1,.3.27,0,.55-.05.83-.15.28-.1.54-.27.78-.5v-3.73c0-.47-.08-.85-.23-1.12s-.4-.46-.74-.58c-.34-.11-.79-.17-1.34-.17-.39,0-.83.03-1.32.1-.49.07-.96.17-1.42.31v-2.26c.5-.14,1.04-.25,1.63-.32.59-.07,1.13-.1,1.65-.1,1.06,0,1.94.13,2.63.4.69.27,1.2.72,1.53,1.35.33.63.49,1.48.49,2.56v6.08h-2.42l-.21-1.02h-.13c-.3.41-.69.72-1.16.91s-.98.29-1.53.29Z"/>
          <path class="cls-2" d="m206.72,317.2c-1.13,0-2.08-.19-2.86-.58s-1.37-.97-1.78-1.75-.61-1.77-.61-2.96.22-2.2.66-2.98c.44-.78,1.07-1.37,1.9-1.75.83-.38,1.83-.57,3.01-.57.41,0,.81.02,1.18.06.38.04.73.1,1.07.18v2.36c-.31-.07-.62-.12-.93-.14-.3-.03-.61-.04-.92-.04-.68,0-1.23.1-1.66.29-.43.2-.75.51-.95.93-.21.42-.31.97-.31,1.64s.1,1.27.3,1.7c.2.43.5.74.89.93.39.19.89.28,1.48.28.32,0,.65-.03.98-.08.33-.05.71-.14,1.12-.26v2.37c-.37.12-.77.22-1.21.29-.44.07-.89.1-1.35.1Z"/>
          <path class="cls-2" d="m212.3,305.27c-.62,0-1.08-.14-1.37-.41s-.45-.65-.45-1.14.15-.88.45-1.15.76-.4,1.37-.4,1.08.13,1.38.4.44.65.44,1.15-.15.87-.44,1.14-.76.41-1.38.41Zm-1.47,11.74v-10.24h2.95v10.24h-2.95Z"/>
          <path class="cls-2" d="m220.45,317.2c-1.01,0-1.88-.2-2.62-.58-.73-.39-1.3-.98-1.71-1.76-.4-.78-.61-1.76-.61-2.94s.2-2.17.59-2.96c.39-.79.95-1.37,1.69-1.76.73-.39,1.62-.58,2.66-.58s1.92.2,2.66.59c.74.39,1.3.98,1.69,1.76s.58,1.76.58,2.94-.2,2.16-.6,2.95c-.4.79-.97,1.37-1.7,1.76-.74.39-1.61.58-2.62.58Zm0-2.25c.41,0,.77-.09,1.06-.28s.52-.5.67-.94c.15-.44.23-1.04.23-1.81s-.08-1.39-.23-1.84-.38-.76-.67-.95c-.29-.18-.65-.28-1.06-.28s-.77.09-1.06.27c-.29.18-.52.49-.67.94-.15.44-.23,1.05-.23,1.82s.08,1.38.23,1.83c.15.44.38.76.67.95s.65.28,1.06.28Zm-1.34-9.48l2.08-3.58h3.13l-2.53,3.58h-2.68Z"/>
          <path class="cls-2" d="m227.13,317v-10.24h2.42l.2,1.05h.14c.38-.39.82-.69,1.32-.9s1.05-.31,1.65-.31c.67,0,1.27.13,1.79.4.52.27.93.69,1.22,1.28s.44,1.37.44,2.33v6.38h-2.94v-6.21c0-.61-.13-1.04-.38-1.27s-.6-.36-1.05-.36c-.22,0-.45.03-.67.09-.23.06-.44.15-.65.27-.21.12-.39.28-.55.47v7h-2.94Z"/>
          <path class="cls-2" d="m246.67,317.18c-.67,0-1.33-.05-1.99-.15s-1.27-.25-1.83-.44v-2.47c.38.13.79.24,1.24.33.44.09.88.16,1.32.21.44.05.86.07,1.25.07.92,0,1.57-.14,1.95-.43s.57-.68.57-1.18c0-.44-.14-.78-.42-1.02s-.8-.46-1.57-.66l-1.04-.27c-1.2-.31-2.1-.78-2.72-1.43-.61-.65-.92-1.5-.92-2.56,0-1.32.47-2.35,1.42-3.09.95-.75,2.37-1.12,4.27-1.12.62,0,1.21.04,1.77.11.56.07,1.05.17,1.49.29v2.48c-.43-.14-.92-.24-1.46-.32s-1.08-.11-1.62-.11c-.72,0-1.28.07-1.7.2-.42.13-.72.32-.9.56-.18.24-.27.52-.27.84,0,.4.12.72.38.95.25.24.71.45,1.38.63l1.03.27c.89.22,1.62.52,2.19.87.57.36,1,.79,1.28,1.31.28.52.42,1.14.42,1.85,0,.88-.22,1.64-.66,2.28-.44.64-1.07,1.13-1.89,1.47s-1.81.51-2.96.51Z"/>
          <path class="cls-2" d="m257.18,317.17c-.68,0-1.28-.13-1.8-.4-.52-.26-.93-.69-1.24-1.28-.3-.59-.45-1.36-.45-2.32v-6.41h2.95v6.2c0,.61.13,1.04.38,1.28.26.24.59.37,1,.37.2,0,.42-.03.64-.09.22-.06.44-.16.65-.28s.38-.28.52-.47v-7.01h2.96v10.24h-2.44l-.19-1.03h-.13c-.38.4-.82.7-1.3.9-.49.2-1.01.3-1.55.3Z"/>
          <path class="cls-2" d="m265,321.12v-14.36h2.47l.18,1.09h.14c.3-.38.67-.68,1.12-.91.45-.23.97-.34,1.57-.34.75,0,1.43.17,2.06.51.63.34,1.13.89,1.51,1.63.38.75.57,1.72.57,2.93s-.21,2.19-.62,3.01c-.41.81-1.03,1.43-1.85,1.86-.82.42-1.84.64-3.04.64-.2,0-.41,0-.61-.02-.2-.02-.39-.03-.57-.05v4.01h-2.94Zm4.12-6.2c.85,0,1.49-.23,1.92-.69.43-.46.64-1.23.64-2.31,0-.74-.08-1.32-.25-1.75s-.41-.72-.72-.88c-.31-.17-.67-.25-1.08-.25-.31,0-.61.06-.91.17-.3.11-.55.29-.77.52v5.08c.16.03.35.05.56.08.21.03.42.04.62.04Z"/>
          <path class="cls-2" d="m281.47,317.2c-1.27,0-2.32-.18-3.14-.55-.82-.37-1.43-.95-1.83-1.73s-.59-1.8-.59-3.03c0-1.13.18-2.09.55-2.88s.9-1.39,1.6-1.79c.7-.41,1.54-.61,2.54-.61s1.76.2,2.41.61c.65.41,1.14,1.01,1.48,1.81s.5,1.78.5,2.94v.78h-7.41v-1.71h5.14l-.47.18c0-.68-.06-1.22-.18-1.61-.12-.39-.31-.68-.56-.85s-.56-.26-.93-.26-.69.09-.95.26c-.26.17-.45.46-.58.85-.13.4-.19.93-.19,1.6v1.2c0,.62.09,1.12.27,1.5.18.38.49.64.93.8.44.16,1.05.24,1.82.24.4,0,.82-.03,1.25-.09.43-.06.86-.14,1.31-.24v2.24c-.54.12-1.05.21-1.54.26-.48.06-.96.08-1.43.08Z"/>
          <path class="cls-2" d="m286.63,317v-10.24h2.41l.23,1.33h.15c.28-.51.66-.88,1.13-1.12.47-.23.98-.35,1.54-.35.15,0,.29,0,.44.02.15.01.27.03.38.06v2.7c-.15-.03-.32-.04-.49-.06s-.34-.02-.51-.02c-.29,0-.58.04-.87.11-.29.07-.57.18-.82.33-.26.15-.47.33-.64.54v6.71h-2.94Z"/>
          <path class="cls-2" d="m295.6,305.27c-.62,0-1.08-.14-1.37-.41s-.45-.65-.45-1.14.15-.88.45-1.15.76-.4,1.37-.4,1.08.13,1.38.4.44.65.44,1.15-.15.87-.44,1.14-.76.41-1.38.41Zm-1.47,11.74v-10.24h2.95v10.24h-2.95Z"/>
          <path class="cls-2" d="m303.75,317.2c-1.01,0-1.88-.2-2.62-.58-.73-.39-1.3-.98-1.71-1.76-.4-.78-.61-1.76-.61-2.94s.2-2.17.59-2.96c.39-.79.95-1.37,1.69-1.76.73-.39,1.62-.58,2.66-.58s1.92.2,2.66.59c.74.39,1.3.98,1.69,1.76s.58,1.76.58,2.94-.2,2.16-.6,2.95c-.4.79-.97,1.37-1.7,1.76-.74.39-1.61.58-2.62.58Zm0-2.25c.41,0,.77-.09,1.06-.28s.52-.5.67-.94c.15-.44.23-1.04.23-1.81s-.08-1.39-.23-1.84-.38-.76-.67-.95c-.29-.18-.65-.28-1.06-.28s-.77.09-1.06.27c-.29.18-.52.49-.67.94-.15.44-.23,1.05-.23,1.82s.08,1.38.23,1.83c.15.44.38.76.67.95s.65.28,1.06.28Z"/>
          <path class="cls-2" d="m310.43,317v-10.24h2.41l.23,1.33h.15c.28-.51.66-.88,1.13-1.12.47-.23.98-.35,1.54-.35.15,0,.29,0,.44.02.15.01.27.03.38.06v2.7c-.15-.03-.32-.04-.49-.06s-.34-.02-.51-.02c-.29,0-.58.04-.87.11-.29.07-.57.18-.82.33-.26.15-.47.33-.64.54v6.71h-2.94Z"/>
          <path class="cls-2" d="m322.71,317v-13.54c.41-.09.85-.18,1.32-.25.47-.07.95-.13,1.45-.17.5-.04,1-.06,1.51-.06,1.96,0,3.44.36,4.44,1.08s1.49,1.84,1.49,3.37c0,.99-.23,1.81-.7,2.47-.47.67-1.14,1.17-2,1.5-.87.34-1.9.5-3.1.5-.27,0-.51,0-.74-.02-.23-.01-.46-.03-.7-.04v5.14h-2.96Zm4.46-7.35c1,0,1.74-.17,2.22-.52.48-.35.72-.91.72-1.68,0-.52-.1-.94-.3-1.27-.2-.33-.51-.57-.93-.73-.41-.15-.94-.23-1.57-.23-.32,0-.61.01-.87.04-.26.03-.51.06-.75.11v4.2c.17.01.34.03.5.04s.32.03.48.03c.16,0,.34,0,.53,0Zm3.61,7.35l-4.41-6.4h3.22l4.47,6.4h-3.28Z"/>
          <path class="cls-2" d="m340.42,317.2c-1.27,0-2.32-.18-3.14-.55-.82-.37-1.43-.95-1.83-1.73s-.59-1.8-.59-3.03c0-1.13.18-2.09.55-2.88s.9-1.39,1.6-1.79c.7-.41,1.54-.61,2.54-.61s1.76.2,2.41.61c.65.41,1.14,1.01,1.48,1.81s.5,1.78.5,2.94v.78h-7.41v-1.71h5.14l-.47.18c0-.68-.06-1.22-.18-1.61-.12-.39-.31-.68-.56-.85s-.56-.26-.93-.26-.69.09-.95.26c-.26.17-.45.46-.58.85-.13.4-.19.93-.19,1.6v1.2c0,.62.09,1.12.27,1.5.18.38.49.64.93.8.44.16,1.05.24,1.82.24.4,0,.82-.03,1.25-.09.43-.06.86-.14,1.31-.24v2.24c-.54.12-1.05.21-1.54.26-.48.06-.96.08-1.43.08Z"/>
          <path class="cls-2" d="m349.21,321.31c-.53,0-1.09-.03-1.67-.1s-1.16-.17-1.72-.32v-2.33c.57.16,1.13.27,1.67.35.54.08,1.04.11,1.5.11.99,0,1.71-.19,2.16-.56.44-.37.67-1,.67-1.87v-.67h-.14c-.29.36-.66.64-1.1.85-.44.2-.95.3-1.52.3-.69,0-1.34-.17-1.93-.52-.6-.35-1.08-.89-1.45-1.62-.37-.73-.55-1.67-.55-2.82,0-1.77.47-3.13,1.42-4.07s2.39-1.41,4.32-1.41c.44,0,.89.02,1.34.07.46.04.9.11,1.34.19s.84.19,1.21.31v8.86c0,1.85-.46,3.19-1.37,4.02-.91.83-2.31,1.24-4.18,1.24Zm.96-6.67c.3,0,.6-.05.89-.15s.54-.25.75-.45v-5.04c-.16-.04-.34-.07-.55-.09-.21-.03-.42-.04-.65-.04-.81,0-1.43.23-1.86.69-.44.46-.65,1.22-.65,2.29,0,.72.09,1.28.26,1.69.17.41.41.7.72.86s.68.24,1.1.24Z"/>
          <path class="cls-2" d="m358.43,305.27c-.62,0-1.08-.14-1.37-.41s-.45-.65-.45-1.14.15-.88.45-1.15.76-.4,1.37-.4,1.08.13,1.38.4.44.65.44,1.15-.15.87-.44,1.14-.76.41-1.38.41Zm-1.47,11.74v-10.24h2.95v10.24h-2.95Z"/>
          <path class="cls-2" d="m366.58,317.2c-1.01,0-1.88-.2-2.62-.58-.73-.39-1.3-.98-1.71-1.76-.4-.78-.61-1.76-.61-2.94s.2-2.17.59-2.96c.39-.79.95-1.37,1.69-1.76.73-.39,1.62-.58,2.66-.58s1.92.2,2.66.59c.74.39,1.3.98,1.69,1.76s.58,1.76.58,2.94-.2,2.16-.6,2.95c-.4.79-.97,1.37-1.7,1.76-.74.39-1.61.58-2.62.58Zm0-2.25c.41,0,.77-.09,1.06-.28s.52-.5.67-.94c.15-.44.23-1.04.23-1.81s-.08-1.39-.23-1.84-.38-.76-.67-.95c-.29-.18-.65-.28-1.06-.28s-.77.09-1.06.27c-.29.18-.52.49-.67.94-.15.44-.23,1.05-.23,1.82s.08,1.38.23,1.83c.15.44.38.76.67.95s.65.28,1.06.28Zm-1.34-9.48l2.08-3.58h3.13l-2.53,3.58h-2.68Z"/>
          <path class="cls-2" d="m373.26,317v-10.24h2.42l.2,1.05h.14c.38-.39.82-.69,1.32-.9s1.05-.31,1.65-.31c.67,0,1.27.13,1.79.4.52.27.93.69,1.22,1.28s.44,1.37.44,2.33v6.38h-2.94v-6.21c0-.61-.13-1.04-.38-1.27s-.6-.36-1.05-.36c-.22,0-.45.03-.67.09-.23.06-.44.15-.65.27-.21.12-.39.28-.55.47v7h-2.94Z"/>
          <path class="cls-2" d="m394.44,317.18c-.8,0-1.52-.12-2.18-.37-.66-.25-1.22-.64-1.69-1.18-.47-.54-.84-1.23-1.1-2.07-.26-.84-.39-1.85-.39-3.03,0-1.7.26-3.11.78-4.23s1.27-1.95,2.25-2.5c.98-.55,2.18-.82,3.6-.82.52,0,1.01.03,1.48.09.47.06.9.17,1.3.33v2.32c-.41-.15-.83-.26-1.28-.32-.45-.07-.9-.1-1.36-.1-.87,0-1.59.16-2.16.48s-.99.8-1.27,1.46c-.28.66-.42,1.49-.42,2.5v1.25c0,.78.06,1.43.17,1.95.11.52.28.92.5,1.22.22.3.47.51.77.64.3.13.63.2,1,.2.39,0,.75-.07,1.05-.22s.55-.37.72-.67.26-.7.26-1.17-.09-.87-.28-1.17c-.18-.31-.45-.53-.78-.68-.34-.14-.73-.22-1.18-.22-.33,0-.65.04-.98.11-.32.08-.64.2-.93.36-.3.17-.57.38-.82.64v-2.12c.36-.38.85-.67,1.45-.88s1.22-.31,1.86-.31c.84,0,1.59.15,2.24.44s1.18.75,1.56,1.37c.38.62.57,1.41.57,2.37,0,.91-.2,1.69-.59,2.33-.39.65-.94,1.14-1.65,1.48-.71.34-1.55.51-2.53.51Z"/>
        </g>
      </g>
    </g>
  </g>
</svg>