<?xml version="1.0" encoding="UTF-8"?>
<svg id="Capa_2" data-name="Capa 2" xmlns="http://www.w3.org/2000/svg" viewBox="0 0 149.77 62.03">
  <defs>
    <style>
      .cls-1 {
        fill: #fff;
      }

      .cls-2 {
        fill: #c22bf5;
      }

      .cls-3 {
        fill: #761ccc;
      }

      .cls-4 {
        fill: #037ae1;
      }

      .cls-5 {
        fill: #41b2fa;
      }
    </style>
  </defs>
  <g id="Capa_1-2" data-name="Capa 1">
    <g>
      <g>
        <path class="cls-3" d="m149.77,31.01c0,.65-.25,1.31-.75,1.81l-28.46,28.46c-.5.5-1.15.75-1.81.75l4.02-17.97c-1.34-1.64-1.77-3.78-3.02-5.5-2.22-3.05-4.77-5.53-8.62-6.38-.64-.14-1.31-.5-1.68-1.16v-.02h40.32Z"/>
        <path class="cls-4" d="m149.77,31.01h-40.32v-.02c.38-.65,1.05-1.02,1.68-1.16,3.84-.84,6.4-3.33,8.62-6.38,1.25-1.72,1.68-3.85,3.02-5.5L118.76,0c.65,0,1.31.25,1.81.75l28.46,28.46c.5.5.75,1.15.75,1.81Z"/>
        <path class="cls-2" d="m122.77,44.06l-4.02,17.97c-.65,0-1.31-.25-1.81-.75l-28.46-28.46c-.5-.5-.75-1.15-.75-1.81h21.71v.02c.38.65,1.05,1.02,1.68,1.16,3.84.84,6.4,3.33,8.62,6.38,1.25,1.72,1.68,3.86,3.02,5.5Z"/>
        <path class="cls-5" d="m122.77,17.97c-1.34,1.65-1.77,3.78-3.02,5.5-2.22,3.05-4.77,5.54-8.62,6.38-.64.14-1.31.5-1.68,1.16v.02h-21.71c0-.65.25-1.31.75-1.81L116.95.75c.5-.5,1.15-.75,1.81-.75l4.02,17.97Z"/>
        <path class="cls-1" d="m122.77,17.36c-1.4,1.72-1.85,3.96-3.16,5.75-1.29,1.78-2.85,3.47-4.7,4.74-.94.65-1.96,1.18-3.04,1.58s-2.39.44-3.05,1.57c0,0,0,.03,0,.03.77,1.34,2.83,1.41,4.14,2.02,2.78,1.3,4.85,3.41,6.64,5.86,1.31,1.8,1.76,4.03,3.16,5.75h.03c1.4-1.72,1.85-3.96,3.16-5.75,2.32-3.19,5-5.79,9.02-6.67.67-.15,1.37-.53,1.76-1.21,0,0,0-.03,0-.03-.56-.97-1.64-1.14-2.62-1.43-3.48-1.02-6.07-3.59-8.16-6.45-1.31-1.8-1.76-4.03-3.16-5.75"/>
      </g>
      <g>
        <path class="cls-1" d="m.11,56.82l1.21-.59c.36.81,1.16,1.25,2.27,1.25s1.93-.52,1.93-1.44c0-1.04-.95-1.22-2.06-1.43-1.42-.28-3.17-.74-3.17-2.73,0-1.56,1.42-2.73,3.19-2.73,1.43,0,2.7.67,3.26,1.96l-1.19.62c-.38-.77-1.09-1.25-2.13-1.25-.95,0-1.72.56-1.72,1.36,0,1.01.99,1.23,2.13,1.46,1.4.28,3.11.74,3.11,2.73,0,1.65-1.47,2.8-3.36,2.8-1.58,0-2.91-.71-3.47-2Z"/>
        <path class="cls-1" d="m9.14,53.96c0-2.72,2.11-4.83,4.83-4.83s4.8,2.12,4.8,4.83-2.1,4.87-4.8,4.87-4.83-2.12-4.83-4.87Zm8.17,0c0-1.95-1.47-3.47-3.33-3.47s-3.36,1.53-3.36,3.47,1.48,3.52,3.36,3.52,3.33-1.54,3.33-3.52Z"/>
        <path class="cls-1" d="m23.07,57.35h4.66v1.32h-4.78c-.95,0-1.32-.49-1.32-1.29v-8.1h1.43v8.07Z"/>
        <path class="cls-1" d="m29.78,54.59v-5.31h1.43v5.27c0,1.86.79,2.9,2.44,2.9s2.44-1.04,2.44-2.9v-5.27h1.43v5.31c0,2.61-1.23,4.2-3.87,4.2s-3.87-1.6-3.87-4.2Z"/>
        <path class="cls-1" d="m46.93,50.6h-2.89v8.07h-1.43v-8.07h-2.87v-1.32h7.19v1.32Z"/>
        <path class="cls-1" d="m50.85,49.28v9.38h-1.43v-9.38h1.43Z"/>
        <path class="cls-1" d="m53.69,53.96c0-2.72,2.12-4.83,4.83-4.83s4.8,2.12,4.8,4.83-2.1,4.87-4.8,4.87-4.83-2.12-4.83-4.87Zm8.17,0c0-1.95-1.47-3.47-3.33-3.47s-3.36,1.53-3.36,3.47,1.49,3.52,3.36,3.52,3.33-1.54,3.33-3.52Z"/>
        <path class="cls-1" d="m66.08,58.67v-8.21c0-.85.56-1.34,1.27-1.34.57,0,.97.22,1.23.71l3.95,7.38c.04.13.07.18.15.18.06,0,.07-.03.07-.11v-8h1.36v8.22c0,.85-.6,1.33-1.25,1.33-.53,0-.99-.22-1.26-.73l-3.94-7.4c-.03-.11-.06-.17-.13-.17-.08,0-.11.06-.11.17v7.96h-1.36Z"/>
        <path class="cls-1" d="m77.04,56.82l1.21-.59c.36.81,1.16,1.25,2.27,1.25s1.93-.52,1.93-1.44c0-1.04-.95-1.22-2.06-1.43-1.42-.28-3.17-.74-3.17-2.73,0-1.56,1.42-2.73,3.19-2.73,1.43,0,2.7.67,3.26,1.96l-1.19.62c-.38-.77-1.09-1.25-2.13-1.25-.95,0-1.72.56-1.72,1.36,0,1.01,1,1.23,2.13,1.46,1.4.28,3.11.74,3.11,2.73,0,1.65-1.47,2.8-3.36,2.8-1.58,0-2.91-.71-3.47-2Z"/>
      </g>
      <g>
        <path class="cls-1" d="m0,43.45V8.61h12.51c4.48,0,7.89.82,10.23,2.46s3.5,4.03,3.5,7.15c0,1.8-.42,3.34-1.24,4.62s-2.05,2.22-3.66,2.82c1.82.48,3.21,1.37,4.19,2.68s1.46,2.9,1.46,4.79c0,3.41-1.08,5.98-3.24,7.69-2.16,1.71-5.36,2.59-9.61,2.62H0Zm8.4-20.31h4.38c1.83-.02,3.14-.35,3.92-1.01.78-.66,1.17-1.62,1.17-2.9,0-1.47-.42-2.53-1.27-3.18-.85-.65-2.21-.97-4.09-.97h-4.12v8.06Zm0,5.5v8.35h5.5c1.52,0,2.68-.35,3.49-1.04.81-.69,1.22-1.67,1.22-2.93,0-2.9-1.44-4.36-4.33-4.38h-5.89Z"/>
        <path class="cls-1" d="m58.31,15.1h-10.46v28.35h-8.4V15.1h-10.26v-6.48h29.12v6.48Z"/>
        <path class="cls-1" d="m70.25,36.99h14.62v6.46h-23.02V8.61h8.4v28.38Z"/>
      </g>
    </g>
  </g>
</svg>