<?xml version="1.0" encoding="UTF-8"?>
<svg id="Capa_2" data-name="Capa 2" xmlns="http://www.w3.org/2000/svg" viewBox="0 0 114.49 48.98">
  <defs>
    <style>
      .cls-1, .cls-2 {
        fill: #fff;
      }

      .cls-2 {
        stroke: #fff;
        stroke-miterlimit: 10;
        stroke-width: .46px;
      }
    </style>
  </defs>
  <g id="Capa_1-2" data-name="Capa 1">
    <g>
      <g>
        <path class="cls-1" d="m10.45,33.68c0-2.63,0-5.25,0-7.88,0-.12,0-.25-.03-.37-.02-.06-.01-.16-.11-.15-.1,0-.15.07-.16.17-.01.24-.04.48-.04.72,0,1.56.02,3.12-.02,4.67-.03,1.55,0,3.1-.05,4.65-.04,1.27-.02,2.54-.04,3.81-.02,2.23-.03,4.47-.05,6.7,0,.5-.11.99-.31,1.44-.29.67-.84,1.06-1.55,1.21-.14.03-.27.11-.42.11-.65,0-1.19-.21-1.68-.65-.69-.62-.97-1.38-.96-2.28.09-6.71.03-13.43.05-20.14,0-2.63,0-5.25,0-7.88,0-.12,0-.23-.03-.35-.05-.19-.2-.2-.34-.21-.16,0-.2.12-.2.26,0,.4,0,.79,0,1.19,0,2.39.02,4.78-.01,7.17-.01.9-.3,1.74-.88,2.45-.5.62-1.55.87-2.25.51-.83-.41-1.31-1.08-1.32-2.03-.02-1.64-.02-3.29-.03-4.93,0-.8-.02-1.61,0-2.41.04-1.37,0-2.74.03-4.11.01-.54.06-1.1.25-1.61.19-.49.39-.99.71-1.43.46-.64,1.01-1.16,1.65-1.6.48-.33.98-.62,1.5-.88.63-.3,1.26-.58,1.9-.84.76-.31,1.5-.66,2.25-.99.67-.29,1.33-.59,1.99-.89.52-.24,1.05-.45,1.57-.69.51-.24,1.04-.44,1.56-.67.67-.3,1.36-.57,2.02-.87.69-.31,1.39-.38,2.11-.19.39.1.74.31,1.08.55.3.22.48.52.73.77.08.08.11.19.15.29.24.54.42,1.09.4,1.7-.03.9.02,1.81-.02,2.71-.04.93-.05,1.85-.02,2.78.06,1.57.02,3.15.02,4.72,0,1.39.01,2.77-.06,4.16-.04.76-.36,1.43-1.13,1.79-.42.2-.83.28-1.26.18-.39-.09-.74-.28-1.04-.57-.6-.55-.66-1.25-.63-1.99.05-1.19.02-2.38.04-3.57.03-1.99.06-3.97.04-5.96,0-.11,0-.22-.05-.32-.06-.11-.15-.16-.27-.15-.11.01-.18.09-.2.2-.02.09-.02.19-.02.28,0,1.31-.02,2.62.01,3.93.07,2.71.02,5.42.03,8.13.01,3.8.02,7.6,0,11.4,0,.95-.02,1.9-.03,2.84,0,1.11.04,2.23-.03,3.33-.05.82-.39,1.54-1.14,1.97-.42.24-.9.42-1.4.33-.82-.14-1.47-.54-1.92-1.28-.31-.52-.41-1.06-.41-1.64,0-2.54,0-5.08,0-7.62Z"/>
        <path class="cls-1" d="m10.06,4.26c.06,2.02-1.61,3.61-3.59,3.6-2.04,0-3.67-1.63-3.67-3.63,0-1.96,1.68-3.67,3.72-3.65,1.83.02,3.64,1.71,3.54,3.68Z"/>
      </g>
      <g>
        <g>
          <path class="cls-2" d="m39.92.23c1.11,0,3.9.06,5,1.69.71,1.02.75,3.4.44,4.15-.38,1.02-1.06,1.36-2.02,1.79,1.08.23,1.98.42,2.5,1.69.38,1,.38,3.48-.38,4.59-1.04,1.5-3.75,1.56-4.69,1.56h-14.26V.23h13.42Zm-1.44,6.27c.67,0,1.75.08,2.17-.6.27-.44.21-.98.04-1.25-.42-.75-1.73-.63-2.33-.63h-7.17v2.48h7.29Zm2.75,4.88c.13-.25.13-1.06,0-1.31-.42-.79-1.77-.67-2.36-.67h-7.67v2.52h8.19c.6,0,1.48.1,1.85-.54Z"/>
          <path class="cls-2" d="m53.1.23v15.48h-4.69V.23h4.69Z"/>
          <path class="cls-2" d="m60.35.23v11.69h10.57v3.79h-15.26V.23h4.69Z"/>
          <path class="cls-2" d="m77.62.23v11.69h10.57v3.79h-15.26V.23h4.69Z"/>
          <path class="cls-2" d="m94.79.23v15.48h-4.69V.23h4.69Z"/>
          <path class="cls-2" d="m113.97.23v3.79h-12.05v2.44h11.44v3.1h-11.44v2.36h12.34v3.79h-17.03V.23h16.74Z"/>
        </g>
        <g>
          <path class="cls-2" d="m42.49,21.09v3.62h-11.51v2.33h10.92v2.96h-10.92v2.26h11.79v3.62h-16.26v-14.78h15.99Z"/>
          <path class="cls-2" d="m49.52,21.09v14.78h-4.48v-14.78h4.48Z"/>
          <path class="cls-2" d="m56.43,21.09v11.16h10.1v3.62h-14.58v-14.78h4.48Z"/>
          <path class="cls-2" d="m72.82,21.09v14.78h-4.48v-14.78h4.48Z"/>
          <path class="cls-2" d="m88.57,26.2c-.11-1.32-.66-1.47-1.87-1.49h-5.01c-.62,0-1.54-.11-1.95.66-.15.24-.11.86.02,1.1.42.66,1.74.61,2.66.61l5.49.13c1.36.06,4.19-.18,5.21,1.71.62,1.17.57,3.85-.17,5.05-1.14,1.89-4.5,1.91-6.02,1.91h-7.38c-.88,0-2.88-.13-3.87-1.58-.48-.73-.53-2.31-.51-3.29h4.42c.11,1.36.9,1.25,1.74,1.25h5.25c.62,0,1.93.04,2.33-.46.18-.24.18-.73,0-1.14-.29-.61-1.45-.51-2.72-.55l-5.84-.13c-1.43-.02-3.84.02-4.75-1.74-.62-1.16-.62-4.28.06-5.43,1.12-1.87,3.27-1.71,5.34-1.71h7.64c1.19,0,2.96.22,3.85,1.62.51.75.46,2.74.46,3.49h-4.39Z"/>
          <path class="cls-2" d="m100.44,21.09v5.31h9.34v-5.31h4.48v14.78h-4.48v-5.62h-9.34v5.62h-4.48v-14.78h4.48Z"/>
        </g>
        <g>
          <path class="cls-2" d="m26.5,48.7v-7.39h9.53v1.26h-6.77v1.91h5.63v1.17h-5.63v3.06h-2.76Z"/>
          <path class="cls-2" d="m40.81,41.3h2.8l5.21,7.39h-2.84l-1.18-1.84h-5.21l-1.18,1.84h-2.84l5.23-7.39Zm3.35,4.54l-1.95-3.05-1.96,3.05h3.91Z"/>
          <path class="cls-2" d="m53.13,43.95v4.75h-2.76v-7.39h2.2l7.33,4.87v-4.86h2.76v7.38h-2.3l-7.23-4.75Z"/>
          <path class="cls-2" d="m65.62,48.7v-7.39h6.01c.65,0,1.25.07,1.8.21.55.14,1.02.33,1.43.56s.72.5.95.79c.23.29.34.59.34.9,0,.42-.19.81-.56,1.19-.37.37-.89.68-1.54.92-.65.24-1.43.35-2.32.35h-3.36v2.48h-2.76Zm2.76-3.74h3.2c.33,0,.63-.05.9-.15.27-.1.48-.24.64-.42.16-.18.24-.39.24-.63,0-.26-.09-.48-.27-.66s-.41-.32-.7-.41c-.29-.09-.6-.14-.93-.14h-3.08v2.4Z"/>
          <path class="cls-2" d="m80.9,41.3h2.8l5.21,7.39h-2.84l-1.18-1.84h-5.21l-1.18,1.84h-2.84l5.23-7.39Zm3.35,4.54l-1.95-3.05-1.96,3.05h3.91Z"/>
          <path class="cls-2" d="m95.82,48.75c-.92,0-1.79-.1-2.61-.29-.82-.19-1.54-.46-2.16-.81s-1.1-.74-1.45-1.2c-.35-.46-.52-.95-.52-1.49,0-.51.17-.98.52-1.43s.83-.84,1.46-1.18,1.36-.61,2.2-.8c.84-.19,1.75-.29,2.74-.29,1.33,0,2.47.15,3.43.44.95.29,1.67.69,2.15,1.17l-2.06.79c-.36-.37-.86-.65-1.51-.84-.65-.19-1.35-.29-2.11-.29-.6,0-1.15.07-1.64.2-.49.13-.92.31-1.28.54-.36.23-.64.49-.83.79-.19.3-.29.61-.29.95,0,.35.1.68.31.98.21.3.5.56.88.78s.82.4,1.33.53,1.07.19,1.68.19c.72,0,1.41-.1,2.07-.29.66-.19,1.28-.48,1.85-.85v1.42c-1.19.67-2.57,1-4.15,1Zm3.96-2.8h-2.86v-1.05h5.13v3.8h-2.28v-2.75Z"/>
          <path class="cls-2" d="m114.26,47.44v1.26h-9.85v-7.39h9.67v1.26h-6.91v1.78h5.97v1.17h-5.97v1.93h7.09Z"/>
        </g>
      </g>
    </g>
  </g>
</svg>