<?xml version="1.0" encoding="UTF-8"?>
<svg id="Capa_2" data-name="Capa 2" xmlns="http://www.w3.org/2000/svg" viewBox="0 0 187.92 30">
  <defs>
    <style>
      .cls-1 {
        fill: #534741;
      }
    </style>
  </defs>
  <g id="Capa_2-2" data-name="Capa 2">
    <g id="Capa_1-2" data-name="Capa 1-2">
      <g>
        <g>
          <path class="cls-1" d="m26.5,11.51h-1.42c-.07-1.08-.23-1.97-.48-2.69s-.61-1.29-1.07-1.72c-.46-.43-1.02-.73-1.68-.89-.66-.17-1.43-.25-2.31-.25s-1.55.02-2.06.05-.91.09-1.19.17-.46.18-.54.31-.13.3-.13.5v17.29c0,.7.05,1.31.15,1.81.1.51.3.92.61,1.24.31.32.76.56,1.35.73s1.37.26,2.34.28v1.32H6.24v-1.32c.99-.02,1.78-.12,2.38-.28s1.05-.41,1.37-.73.53-.73.63-1.24.15-1.11.15-1.81V6.99c0-.2-.04-.36-.12-.5s-.24-.24-.48-.31c-.24-.08-.59-.13-1.04-.17-.45-.03-1.04-.05-1.77-.05-.79,0-1.55.04-2.28.12-.73.08-1.36.3-1.91.66-.55.36-1,.91-1.34,1.65-.34.74-.52,1.78-.54,3.12H0l.33-7.26h25.84s.33,7.26.33,7.26Z"/>
          <path class="cls-1" d="m36.37,15.6c1.41,0,2.54-.04,3.4-.13s1.52-.27,2-.54c.47-.27.81-.68,1.01-1.2s.35-1.24.46-2.15h1.22v9.67h-1.22c-.13-.88-.31-1.58-.53-2.11-.22-.53-.57-.93-1.06-1.2-.48-.27-1.14-.45-1.96-.53s-1.93-.12-3.32-.12v6.8c0,.7.09,1.3.28,1.78.19.48.5.87.94,1.17s1.02.51,1.75.63c.73.12,1.62.18,2.67.18,1.25,0,2.31-.09,3.18-.26.87-.18,1.59-.48,2.16-.92s1.03-1.03,1.39-1.77c.35-.74.65-1.67.89-2.79h1.32l-.53,7.56h-22.37v-1.32c.73-.02,1.32-.09,1.78-.2.46-.11.81-.3,1.06-.56.24-.26.41-.64.5-1.12.09-.48.13-1.11.13-1.88v-15.25c0-.77-.04-1.39-.12-1.86-.08-.47-.23-.85-.45-1.12-.22-.27-.53-.46-.94-.56s-.94-.17-1.6-.21v-1.32h20.86l.23,6.47h-1.42c-.13-.92-.34-1.69-.63-2.29s-.68-1.09-1.19-1.45c-.51-.36-1.16-.62-1.96-.76s-1.79-.21-2.95-.21h-3.73c-.57,0-.92.07-1.06.21s-.2.48-.2,1.01v8.38-.03Z"/>
          <path class="cls-1" d="m68.64,21.97h-9.34c-1.04,2.33-1.55,3.95-1.55,4.85,0,.66.25,1.08.74,1.25.5.18,1.24.26,2.23.26v1.32h-9.04v-1.32c.53-.07.98-.15,1.37-.26.38-.11.73-.26,1.02-.46.3-.2.55-.46.78-.78.22-.32.43-.71.63-1.17l8.68-21.75h2.44l7.89,19.27c.46,1.12.85,2,1.17,2.64s.66,1.13,1.02,1.47c.36.34.78.58,1.25.71s1.08.23,1.83.3v1.35h-12.47v-1.35c1.06-.04,1.82-.15,2.28-.33s.69-.53.69-1.06c0-.31-.08-.7-.23-1.19-.15-.48-.36-1.08-.63-1.78l-.76-1.98h0Zm-8.58-1.97h7.85l-3.79-10h-.13s-3.93,10-3.93,10Z"/>
          <path class="cls-1" d="m102.69,29.66h-22.74v-1.32c.73-.02,1.32-.09,1.78-.2s.81-.3,1.06-.56c.24-.26.41-.64.5-1.12.09-.48.13-1.11.13-1.88v-15.25c0-.77-.04-1.39-.12-1.86-.08-.47-.23-.85-.45-1.12-.22-.27-.53-.46-.94-.56s-.94-.17-1.6-.21v-1.32h11.39v1.32c-.75.02-1.35.09-1.8.2-.45.11-.8.31-1.04.59-.24.29-.4.68-.48,1.19-.08.51-.12,1.18-.12,2.01v13.83c0,.92.09,1.68.28,2.26s.51,1.03.97,1.35,1.08.54,1.85.66c.77.12,1.73.18,2.87.18,1.28,0,2.34-.08,3.2-.23s1.58-.45,2.16-.87c.58-.43,1.05-1.01,1.4-1.73.35-.73.65-1.67.89-2.84h1.32l-.53,7.49h.02Z"/>
          <path class="cls-1" d="m147.07,19.43c0,1.87-.2,3.47-.61,4.8-.41,1.33-1.04,2.43-1.9,3.28-.86.86-1.96,1.48-3.32,1.88-1.35.4-2.98.59-4.87.59-3.54,0-6.13-.74-7.77-2.23-1.64-1.48-2.46-3.86-2.46-7.11v-9.04c0-.86-.01-1.58-.03-2.16s-.06-1.07-.1-1.47-.1-.72-.18-.97-.17-.47-.28-.64c-.2-.31-.48-.52-.86-.63s-.95-.17-1.72-.17v-1.32h11.85v1.32c-.92,0-1.61.05-2.05.15s-.78.29-1.02.58c-.15.18-.28.39-.38.64s-.18.58-.23.99c-.06.41-.09.91-.12,1.5-.02.59-.03,1.32-.03,2.18v8.65c0,2.51.53,4.36,1.6,5.56,1.07,1.2,2.71,1.8,4.93,1.8,4.53,0,6.8-2.52,6.8-7.56v-7.62c0-.92-.02-1.72-.05-2.38s-.09-1.22-.17-1.68-.18-.85-.3-1.15-.27-.56-.45-.76c-.31-.31-.7-.53-1.19-.68-.48-.14-1.15-.21-2.01-.21v-1.32h10.69v1.32c-.81,0-1.44.06-1.88.18s-.78.34-1.02.64c-.18.2-.32.46-.43.78-.11.32-.2.71-.26,1.19-.07.47-.12,1.04-.15,1.7s-.05,1.45-.05,2.38v7h.02Z"/>
          <path class="cls-1" d="m170.31,23.49l7.62-19.24h9.64v1.32c-.73,0-1.31.07-1.77.21-.45.14-.8.4-1.04.78-.24.37-.4.89-.48,1.53-.08.64-.12,1.47-.12,2.46v12.8c0,1.1.04,1.97.13,2.61s.26,1.13.53,1.48c.26.35.64.58,1.14.69s1.15.18,1.96.2v1.32h-12.41v-1.32c.81-.02,1.47-.09,1.96-.21.5-.12.88-.35,1.16-.68.27-.33.46-.8.54-1.4s.13-1.42.13-2.46v-15.44h-.17l-8.88,21.85h-2.44l-9.17-21.85h-.13v15.21c0,1.1.04,1.97.13,2.61.09.64.26,1.13.53,1.48.26.35.64.58,1.14.69s1.15.18,1.96.2v1.32h-10.16v-1.32c.81-.02,1.47-.09,1.98-.21.51-.12.9-.35,1.17-.68s.46-.8.54-1.4.13-1.42.13-2.46v-13.27c0-.92-.04-1.69-.13-2.31-.09-.62-.25-1.11-.49-1.47s-.59-.62-1.04-.76c-.45-.14-1.05-.21-1.8-.21v-1.32h10l7.69,19.24h.15Z"/>
        </g>
        <path class="cls-1" d="m111.09,24.45c.04-.22.03-.38.03-.55,0-1.17.08-2.33.13-3.49.02-.36.02-.72.03-1.09.04-1.15.05-2.31.09-3.46.03-.84-.03-1.68-.09-2.56-.11.3-.22.57-.36.82-.23.41-.51.77-.92,1.02-.61.37-1.32.26-1.69-.27-.15-.21-.23-.46-.24-.72-.03-.56.07-1.09.29-1.6.02-.05.06-.1.05-.16-.42.34-.83.69-1.33.9-.36.15-.72.22-1.11.16-.54-.09-.92-.53-.95-1.08-.04-.75.35-1.28.83-1.77.16-.17.36-.3.53-.46-.45.08-.9.1-1.36.09-.42-.01-.81-.13-1.17-.36-.64-.43-.7-1.27-.14-1.8.39-.36.86-.55,1.35-.71.23-.07.47-.13.75-.19-.34-.13-.64-.25-.92-.41-.36-.2-.68-.44-.92-.79-.19-.28-.29-.58-.24-.92.08-.6.5-.96,1.13-1.05.6-.08,1.17.06,1.74.22.05.01.1.06.18.03-.1-.13-.19-.25-.28-.37-.33-.47-.55-.97-.55-1.56,0-.9.64-1.3,1.43-1.14.71.15,1.27.57,1.76,1.1.03.03.06.07.11.12-.02-.19-.05-.35-.06-.51-.04-.37,0-.72.12-1.07.27-.77,1.28-1.17,1.98-.41.38.41.61.9.75,1.44.03.13.07.26.11.43.1-.43.23-.8.42-1.15.14-.26.31-.5.52-.72.33-.33.73-.49,1.19-.35.49.15.69.54.78,1.02.1.54.06,1.08-.1,1.6-.01.04-.02.07-.03.15.23-.23.44-.44.68-.6.44-.31.89-.55,1.45-.53s.99.44,1.02,1c.04.79-.33,1.38-.85,1.91-.03.03-.07.06-.1.09,0,0-.01.02-.03.04.45-.11.89-.18,1.34-.15.37.02.73.11,1.04.33.64.48.62,1.34-.03,1.86-.47.38-1.03.57-1.6.74-.03,0-.06.02-.13.04.35.09.67.18.97.31.38.16.73.36,1.01.67.45.49.57,1.37-.24,1.78-.23.12-.48.19-.73.22-.67.07-1.31-.07-1.98-.23.31.24.59.47.83.74.36.41.6.87.63,1.42.04.69-.42,1.18-1.12,1.22-.73.04-1.32-.27-1.89-.66-.31-.21-.59-.45-.85-.77.1.43.19.84.21,1.25.03.47-.02.93-.22,1.35-.42.87-1.43,1.04-2.12.37-.05-.05-.1-.11-.19-.2.04,3.11-.12,6.16-.31,9.21.33-.78.57-1.59.69-2.42.2-1.3.66-2.49,1.53-3.49.57-.66,1.24-1.21,2-1.66.89-.52,1.82-.91,2.82-1.16.16-.04.32-.06.48-.05.27,0,.4.16.34.43-.03.11-.07.21-.13.31-.56.95-.98,1.98-1.42,2.99-.26.6-.56,1.19-.94,1.73-.66.93-1.54,1.56-2.59,1.96-.43.17-.87.29-1.31.4-.43.1-.69.38-.88.75-.28.57-.39,1.18-.43,1.81-.08,1,.02,1.99.14,2.99.03.25.11.5.1.76,0,.23-.1.37-.28.4-.19.04-.35-.05-.43-.26-.16-.39-.18-.81-.25-1.23-.15-.92-.16-1.87-.4-2.78-.18-.68-.41-1.34-.97-1.82-.32-.28-.67-.53-1.03-.78-.57-.4-1.15-.77-1.64-1.26-.72-.71-1.25-1.55-1.68-2.46-.41-.88-.83-1.74-1.34-2.56-.1-.16-.16-.33-.03-.5.12-.15.29-.17.47-.13.84.16,1.6.52,2.33.94.91.53,1.74,1.15,2.42,1.96.7.82,1.1,1.77,1.32,2.82.17.82.27,1.65.44,2.51h.04Zm-1.18-1.18c-.24-.73-.6-1.35-1.04-1.92-.51-.66-1.06-1.28-1.65-1.86-.12-.12-.24-.23-.29-.4-.04-.12-.03-.24.09-.32.11-.08.23-.08.34,0,.08.06.16.12.23.19.69.69,1.34,1.42,1.89,2.23.22.32.43.65.64.99-.06-.24-.14-.47-.21-.71-.33-1.02-.9-1.89-1.69-2.61-.93-.84-1.98-1.47-3.15-1.89-.06-.02-.11-.06-.2-.05.18.29.36.56.5.85.32.64.63,1.28.96,1.91.49.92,1.14,1.72,1.99,2.33.54.39,1.1.75,1.6,1.24v.02Zm6.99-10.21c.48,0,.72-.3.61-.75-.06-.24-.17-.46-.31-.66-.68-.97-1.64-1.59-2.64-2.17-.06-.04-.1-.02-.14.04-.18.26-.4.48-.67.65-.08.05-.07.1-.03.17.08.12.16.24.24.36.48.65.95,1.3,1.6,1.79.4.3.84.53,1.33.57h0Zm-2.97.61c0-.1,0-.2-.02-.3-.12-.95-.46-1.82-.84-2.69-.04-.09-.08-.12-.18-.08-.31.1-.64.14-.97.13-.12,0-.16.04-.15.16.01.27.01.55.04.82.06.72.14,1.44.35,2.14.1.33.23.64.49.88.37.35.89.26,1.11-.2.13-.27.18-.56.17-.86Zm-8.62-4.11c1.16.01,2.34-.4,3.43-.83.08-.03.09-.08.07-.16-.06-.25-.12-.51-.11-.78,0-.12-.06-.13-.16-.14-.76-.07-1.51,0-2.26.12-.54.09-1.07.22-1.57.45-.21.1-.42.2-.57.4-.19.25-.14.54.11.71.1.07.21.11.32.14.26.07.52.08.74.08h0Zm7.86,13.09c.68-.17,1.34-.36,1.95-.72.99-.58,1.64-1.44,2.16-2.43.38-.73.68-1.5,1.05-2.24.02-.04.05-.07.02-.14-1.89,1.7-3.67,3.48-5.18,5.52h0Zm-6.52-20.29s0,.07.02.12c.12.64.48,1.16.88,1.65.49.6,1.14,1.03,1.72,1.53.08.07.12.04.18-.02.19-.22.42-.4.67-.55.09-.05.07-.1.03-.17-.11-.19-.21-.38-.32-.57-.45-.74-.93-1.44-1.62-1.99-.3-.24-.61-.45-1-.5-.33-.04-.55.14-.55.5h0Zm-1.37,2.34c-.21,0-.43.02-.62.13-.26.15-.34.42-.19.69.07.13.18.24.3.33.41.34.89.55,1.38.73.81.29,1.65.37,2.5.41.1,0,.15-.04.17-.14.03-.16.07-.32.15-.46.05-.09.02-.14-.05-.2-.58-.45-1.19-.82-1.87-1.09-.56-.22-1.14-.39-1.75-.41h-.02Zm.42,7.53c0,.43.26.65.63.59.46-.07.86-.27,1.23-.54.81-.59,1.42-1.37,1.99-2.18.06-.08.05-.13-.02-.2-.15-.15-.28-.31-.38-.49-.06-.1-.12-.11-.21-.05-.23.13-.46.25-.69.38-.78.44-1.53.93-2.11,1.63-.23.27-.41.57-.43.87h-.01Zm3.02,1.62v.15c.04.56.49.8.97.51.09-.05.17-.12.25-.19.22-.22.38-.48.52-.75.44-.87.61-1.81.67-2.77,0-.09-.03-.13-.12-.15-.26-.05-.5-.14-.75-.24-.07-.03-.12-.03-.16.05-.34.57-.7,1.13-.96,1.74-.22.53-.41,1.07-.43,1.65h.01Zm9.49-3.93c.27,0,.55-.01.8-.12.39-.16.46-.53.15-.82-.13-.12-.27-.23-.44-.31-1.16-.58-2.4-.76-3.67-.82-.1,0-.12.04-.13.13-.02.26-.04.51-.14.75-.05.13-.01.18.1.23.36.15.72.32,1.09.47.71.29,1.45.48,2.22.5h.02Zm-2.81-2.69c.22,0,.43-.02.65-.03.74-.06,1.47-.2,2.16-.47.31-.12.61-.27.86-.51.32-.31.26-.66-.15-.85-.06-.03-.13-.05-.19-.06-.35-.1-.7-.08-1.04-.01-.96.19-1.85.55-2.7,1.04q-.28.16-.18.46c.05.14,0,.34.13.41.13.08.3.02.46.02Zm2.04-4.32c0-.37-.25-.57-.61-.51-.21.04-.4.13-.58.25-1.01.66-1.71,1.6-2.38,2.57-.05.07-.05.12.02.17.16.13.29.28.4.45.04.07.09.06.15.02.51-.32,1.03-.62,1.51-.99.46-.35.89-.73,1.21-1.21.16-.24.25-.49.28-.75Zm-5.01,1.32c0,.29.11.48.34.56.35.12.06.02.09.03.11.05.24.14.34.12.11-.02.14-.19.21-.29.46-.7.81-1.45.97-2.28.08-.42.14-.85,0-1.27s-.43-.49-.76-.19c-.23.21-.39.47-.54.74-.44.82-.6,1.72-.65,2.57h0Zm-.75-.32c-.02-.59-.06-1.15-.21-1.7-.13-.48-.33-.94-.7-1.3-.27-.27-.63-.21-.79.13-.04.07-.06.16-.08.24-.1.4-.06.8.01,1.19.15.78.48,1.49.85,2.19.04.08.09.1.18.07.18-.06.36-.09.54-.1.12,0,.16-.07.16-.17.02-.19.03-.39.04-.56h0Zm1.35,18.01c1.52-2.17,3.46-3.92,5.46-5.63h-.05c-.81.28-1.6.62-2.35,1.05-1.76,1.03-2.65,2.63-3.06,4.57h0Z"/>
      </g>
    </g>
  </g>
</svg>