<?xml version="1.0" encoding="UTF-8"?>
<svg id="Capa_2" data-name="Capa 2" xmlns="http://www.w3.org/2000/svg" xmlns:xlink="http://www.w3.org/1999/xlink" viewBox="0 0 16.07 38.76">
  <defs>
    <style>
      .cls-1 {
        fill: #fff;
      }

      .cls-2 {
        filter: url(#drop-shadow-1);
      }
    </style>
    <filter id="drop-shadow-1" filterUnits="userSpaceOnUse">
      <feOffset dx="4.01" dy="4.01"/>
      <feGaussianBlur result="blur" stdDeviation="0"/>
      <feFlood flood-color="#00294a" flood-opacity="1"/>
      <feComposite in2="blur" operator="in"/>
      <feComposite in="SourceGraphic"/>
    </filter>
  </defs>
  <g id="Capa_1-2" data-name="Capa 1">
    <g class="cls-2">
      <g>
        <path class="cls-1" d="m8.43,26.62c0-2.11,0-4.22,0-6.33,0-.1,0-.2-.02-.3-.02-.05-.01-.13-.09-.12-.08,0-.12.05-.13.14-.01.19-.03.39-.03.58,0,1.25.01,2.51-.01,3.76-.03,1.25,0,2.49-.04,3.74-.03,1.02-.02,2.04-.03,3.06-.02,1.8-.03,3.59-.04,5.39,0,.4-.09.8-.25,1.16-.24.54-.68.86-1.25.98-.12.02-.22.09-.34.09-.52,0-.96-.17-1.36-.52-.55-.5-.78-1.11-.77-1.83.07-5.4.03-10.8.04-16.2,0-2.11,0-4.22,0-6.33,0-.09,0-.19-.03-.28-.04-.16-.16-.16-.28-.17-.13,0-.16.09-.16.21,0,.32,0,.64,0,.96,0,1.92.02,3.85,0,5.77,0,.72-.24,1.4-.71,1.97-.41.5-1.25.7-1.82.41-.67-.33-1.05-.87-1.06-1.63-.02-1.32-.02-2.65-.02-3.97,0-.65-.02-1.29,0-1.94.03-1.1,0-2.2.03-3.31.01-.44.04-.88.2-1.29.15-.4.32-.79.57-1.15.37-.51.81-.93,1.33-1.29.39-.27.79-.5,1.21-.7.5-.24,1.02-.46,1.54-.68.61-.25,1.21-.53,1.82-.79.54-.24,1.07-.47,1.61-.72.42-.19.85-.36,1.27-.55.41-.19.84-.35,1.26-.54.54-.24,1.09-.46,1.63-.7.56-.25,1.12-.31,1.7-.15.32.08.6.25.87.45.24.17.39.42.59.62.07.07.09.15.12.23.19.44.34.88.32,1.37-.02.73.01,1.45-.02,2.18-.03.75-.04,1.49-.02,2.23.05,1.27.02,2.53.02,3.8,0,1.11.01,2.23-.05,3.34-.03.61-.29,1.15-.91,1.44-.34.16-.67.22-1.01.14-.32-.07-.59-.23-.84-.46-.48-.44-.53-1.01-.51-1.6.04-.96.02-1.92.03-2.87.02-1.6.05-3.19.03-4.79,0-.09,0-.17-.04-.26-.05-.09-.12-.13-.22-.12-.09,0-.15.07-.16.16-.01.07-.02.15-.02.22,0,1.05-.02,2.11.01,3.16.06,2.18.02,4.36.02,6.54,0,3.06.01,6.12,0,9.17,0,.76-.02,1.53-.02,2.29,0,.89.03,1.79-.02,2.68-.04.66-.31,1.24-.92,1.58-.34.19-.72.34-1.13.27-.66-.11-1.19-.44-1.55-1.03-.25-.42-.33-.85-.33-1.32,0-2.04,0-4.09,0-6.13Z"/>
        <path class="cls-1" d="m8.12,2.96c.05,1.62-1.3,2.91-2.9,2.9-1.65,0-2.96-1.31-2.96-2.92C2.26,1.36,3.62-.02,5.26,0c1.47.02,2.94,1.38,2.86,2.96Z"/>
      </g>
    </g>
  </g>
</svg>