<?xml version="1.0" encoding="UTF-8"?>
<svg id="Capa_2" data-name="Capa 2" xmlns="http://www.w3.org/2000/svg" xmlns:xlink="http://www.w3.org/1999/xlink" viewBox="0 0 112.59 38.76">
  <defs>
    <style>
      .cls-1, .cls-2 {
        fill: #fff;
      }

      .cls-2 {
        stroke: #fff;
        stroke-miterlimit: 10;
        stroke-width: .46px;
      }

      .cls-3 {
        filter: url(#drop-shadow-1);
      }
    </style>
    <filter id="drop-shadow-1" filterUnits="userSpaceOnUse">
      <feOffset dx="4" dy="4"/>
      <feGaussianBlur result="blur" stdDeviation="0"/>
      <feFlood flood-color="#00294a" flood-opacity="1"/>
      <feComposite in2="blur" operator="in"/>
      <feComposite in="SourceGraphic"/>
    </filter>
  </defs>
  <g id="Capa_1-2" data-name="Capa 1">
    <g class="cls-3">
      <g>
        <path class="cls-2" d="m37.53.98c1.06,0,3.73.06,4.77,1.62.68.97.72,3.25.42,3.97-.37.97-1.01,1.3-1.93,1.71,1.03.22,1.89.4,2.39,1.62.37.95.37,3.32-.37,4.39-.99,1.43-3.58,1.49-4.48,1.49h-13.62V.98h12.81Zm-1.38,5.98c.64,0,1.67.07,2.07-.57.26-.42.2-.94.04-1.19-.4-.72-1.65-.61-2.22-.61h-6.85v2.37h6.96Zm2.62,4.66c.13-.24.13-1.01,0-1.25-.4-.75-1.69-.64-2.26-.64h-7.32v2.4h7.82c.57,0,1.41.09,1.76-.51Z"/>
        <path class="cls-2" d="m50.11.98v14.78h-4.48V.98h4.48Z"/>
        <path class="cls-2" d="m57.03.98v11.16h10.1v3.62h-14.57V.98h4.48Z"/>
        <path class="cls-2" d="m73.52.98v11.16h10.1v3.62h-14.57V.98h4.48Z"/>
        <path class="cls-2" d="m89.91.98v14.78h-4.48V.98h4.48Z"/>
        <path class="cls-2" d="m108.23.98v3.62h-11.51v2.33h10.92v2.96h-10.92v2.26h11.79v3.62h-16.26V.98h15.99Z"/>
        <path class="cls-2" d="m40.59,23v3.62h-11.51v2.33h10.92v2.96h-10.92v2.26h11.79v3.62h-16.26v-14.78h15.99Z"/>
        <path class="cls-2" d="m47.61,23v14.78h-4.48v-14.78h4.48Z"/>
        <path class="cls-2" d="m54.53,23v11.16h10.1v3.62h-14.58v-14.78h4.48Z"/>
        <path class="cls-2" d="m70.92,23v14.78h-4.48v-14.78h4.48Z"/>
        <path class="cls-2" d="m86.67,28.1c-.11-1.32-.66-1.47-1.87-1.49h-5.01c-.62,0-1.54-.11-1.95.66-.15.24-.11.86.02,1.1.42.66,1.74.61,2.66.61l5.49.13c1.36.06,4.19-.18,5.21,1.71.62,1.17.57,3.85-.17,5.05-1.14,1.89-4.5,1.91-6.02,1.91h-7.38c-.88,0-2.88-.13-3.87-1.58-.48-.73-.53-2.31-.51-3.29h4.42c.11,1.36.9,1.25,1.74,1.25h5.25c.62,0,1.93.04,2.33-.46.18-.24.18-.73,0-1.14-.29-.61-1.45-.51-2.72-.55l-5.84-.13c-1.43-.02-3.84.02-4.75-1.74-.62-1.16-.62-4.28.06-5.43,1.12-1.87,3.27-1.71,5.34-1.71h7.64c1.19,0,2.96.22,3.85,1.62.51.75.46,2.74.46,3.49h-4.39Z"/>
        <path class="cls-2" d="m98.53,23v5.31h9.34v-5.31h4.48v14.78h-4.48v-5.62h-9.34v5.62h-4.48v-14.78h4.48Z"/>
      </g>
      <g>
        <path class="cls-1" d="m8.41,26.62c0-2.11,0-4.22,0-6.33,0-.1,0-.2-.02-.3-.02-.05-.01-.13-.09-.12-.08,0-.12.05-.13.14-.01.19-.03.39-.03.58,0,1.25.01,2.51-.01,3.76-.03,1.25,0,2.49-.04,3.74-.03,1.02-.02,2.04-.03,3.06-.02,1.8-.03,3.59-.04,5.39,0,.4-.09.8-.25,1.16-.24.54-.67.86-1.25.98-.12.02-.22.09-.34.09-.52,0-.96-.17-1.35-.52-.55-.5-.78-1.11-.77-1.83.07-5.4.03-10.8.04-16.2,0-2.11,0-4.22,0-6.33,0-.09,0-.19-.03-.28-.04-.16-.16-.16-.28-.17-.13,0-.16.09-.16.21,0,.32,0,.64,0,.96,0,1.92.02,3.85,0,5.77,0,.72-.24,1.4-.71,1.97-.41.5-1.24.7-1.81.41-.66-.33-1.05-.87-1.06-1.63-.02-1.32-.02-2.65-.02-3.97,0-.65-.01-1.29,0-1.94.03-1.1,0-2.2.03-3.31.01-.44.04-.88.2-1.29.15-.4.31-.79.57-1.15.37-.51.81-.93,1.33-1.29.39-.27.79-.5,1.21-.7.5-.24,1.02-.46,1.53-.68.61-.25,1.21-.53,1.81-.79.54-.24,1.07-.47,1.6-.72.42-.19.85-.36,1.26-.55.41-.19.84-.35,1.26-.54.54-.24,1.09-.46,1.63-.7.55-.25,1.12-.31,1.7-.15.32.08.6.25.87.45.24.17.39.42.59.62.07.07.08.15.12.23.19.44.34.88.32,1.37-.02.73.01,1.45-.02,2.18-.03.75-.04,1.49-.02,2.23.05,1.27.02,2.53.02,3.8,0,1.11.01,2.23-.05,3.34-.03.61-.29,1.15-.91,1.44-.33.16-.66.22-1.01.14-.32-.07-.59-.23-.84-.46-.48-.44-.53-1.01-.5-1.6.04-.96.02-1.92.03-2.87.02-1.6.05-3.19.03-4.79,0-.09,0-.17-.04-.26-.05-.09-.12-.13-.21-.12-.09,0-.15.07-.16.16-.01.07-.02.15-.02.22,0,1.05-.02,2.11.01,3.16.06,2.18.02,4.36.02,6.54,0,3.06.01,6.12,0,9.17,0,.76-.02,1.53-.02,2.29,0,.89.03,1.79-.02,2.68-.04.66-.31,1.24-.92,1.58-.34.19-.72.34-1.13.27-.66-.11-1.19-.44-1.54-1.03-.25-.42-.33-.85-.33-1.32,0-2.04,0-4.09,0-6.13Z"/>
        <path class="cls-1" d="m8.1,2.96c.05,1.62-1.29,2.91-2.89,2.9-1.64,0-2.95-1.31-2.95-2.92C2.25,1.36,3.61-.02,5.24,0c1.47.02,2.93,1.38,2.85,2.96Z"/>
      </g>
    </g>
  </g>
</svg>