<?xml version="1.0" encoding="UTF-8"?>
<svg id="Capa_2" data-name="Capa 2" xmlns="http://www.w3.org/2000/svg" viewBox="0 0 578.12 1022.43">
  <defs>
    <style>
      .cls-1 {
        fill: #fff;
      }

      .cls-2 {
        fill: #ff9474;
      }

      .cls-3 {
        fill: #1a1a1a;
      }
    </style>
  </defs>
  <g id="Capa_1-2" data-name="Capa 1">
    <path class="cls-3" d="m308.61,0c18.59,6.78,25.84,17.57,26.74,40.13.23,5.82-.07,11.66.09,17.48.04,1.51.42,3.55,1.43,4.41,4.07,3.42,5.27,7.96,4.33,12.61-1.27,6.29-3.47,12.4-5.52,18.51-.43,1.28-1.77,2.92-2.94,3.16-6,1.24-6.21,6-6.19,10.36.05,8.98.42,17.97,1.14,26.92.41,5.15,4.4,8.11,8.63,10.27,6.36,3.26,12.87,6.21,19.34,9.25,6.92,3.25,12.65,7.83,17.17,14.09,1.1,1.52,3.68,2.82,5.55,2.78,30.35-.63,52.27,13.52,62.78,42.06,3.87,10.51,5.72,21.78,8.23,32.77.69,3.02,2.05,5.04,4.08,7.43,6.52,7.67,13.91,15.26,17.95,24.24,7.19,15.94,15.37,30.48,27.31,43.7,15.61,17.29,24.03,39.1,31.88,61.04,6.7,18.72,15.46,36.7,23.18,55.05,2.38,5.65,4.29,11.49,6.52,17.2,3.68,9.42,7.15,18.94,11.25,28.18,4.59,10.33,8.1,20.5,5.87,32.21-1.54,8.12-1.39,16.56-2.08,24.84-.15,1.81-.15,3.93-1.1,5.3-1.65,2.4-3.78,5.74-6.07,6.05-2.34.32-5.15-2.47-7.69-4.01-1.24-.76-2.28-2.44-3.51-2.54-4.45-.36-5.7-3.17-6.56-6.89-.48-2.08-1.88-3.92-2.68-5.95-.75-1.91-1.6-3.9-1.73-5.89-.08-1.32.79-2.91,1.66-4.06,6.8-8.94,7.66-17.67-1.31-26.54-.27,4.72-.14,9.27-.9,13.67-.71,4.17-1.88,8.42-3.77,12.16-1,1.97-4.22,4.32-6.02,4.02-2.46-.41-5.8-2.79-6.5-5.03-1.82-5.8-2.42-11.99-3.47-18.02-1.17-6.68-1.79-13.51-3.61-20-2.09-7.49-2.42-14.38,2.59-20.8-11.74-18.33-24.92-34.92-43.83-46.49-17.68-10.82-30.56-26.01-37.37-45.92-1.02-2.98-2.55-5.78-3.65-8.73-2.95-7.9-7.26-14.65-13.63-20.49-9.88-9.05-17.41-20.07-22.95-32.44-7.42,11.19-14.02,22.77-22.23,33.07-8.25,10.36-11.56,21.26-9.8,34.2,1.14,8.4,2.06,16.89,2.12,25.35.06,8.23-1.29,16.45-1.66,24.7-.18,4-.55,8.46.91,12,13.16,31.82,20.9,65.07,27.5,98.72,3.34,17.05,8.45,33.77,11.64,50.84,5.34,28.58,7.12,57.74-2.77,85.35-6.38,17.81-2.57,34.28-1.18,51.45.88,10.94,3.99,21.14,8.31,31.13,14.91,34.51,15.67,69.87,6.87,106.03-4.55,18.7-8.39,37.6-11.65,56.56-4.94,28.7,6.2,52.36,24.51,73.56,3.43,3.97,6.83,8.3,8.85,13.06,3.36,7.92.07,14.34-8.19,16.68-15.3,4.34-30.93,4.67-46.47,1.66-9.86-1.91-14.29-8.99-14.58-18.66-7.81-2.02-10.28-5.16-9.59-13.18.38-4.44,1.48-8.85,2.56-13.19,1.29-5.17,1.33-10.18-.79-15.12-2.61-6.06-2.68-12.23-1.02-18.56,5.12-19.48,2.39-38.87-2.63-57.69-4.04-15.16-10.21-29.8-16.1-44.4-9.4-23.31-11.05-47.42-8.67-72.07.4-4.14.52-8.37,1.56-12.36,2.16-8.28-.02-14.96-4.44-22.27-11.64-19.25-17.7-40.82-22.33-62.64-3.4-16.05-5.37-32.4-8.17-48.59-1.98-11.46-4.02-22.92-6.54-34.26-1.99-8.95-1.01-17.48,1.87-25.98.78-2.31,1.48-4.65,2.37-7.48h-28.41c-.21,1.05-.43,1.45-.32,1.66,7.74,13.77,4.53,27.89,1.87,42.22-4.1,22.04-6.63,44.41-11.46,66.28-3.92,17.77-9.81,35.16-15.68,52.44-2.58,7.62-7.4,14.46-10.89,21.8-1.07,2.25-1.68,5.02-1.52,7.49,1.54,24.04,5.51,48.26-.82,72.01-3.91,14.69-9.84,28.88-15.41,43.08-7.38,18.79-11.01,38.33-11.99,58.33-.33,6.68.9,13.57,2.33,20.17,1.45,6.72,1.94,13.25-.67,19.58-2.49,6.03-2.48,11.85-.78,18.02,1.23,4.45,2.53,9.08,2.51,13.62-.02,4.7-.79,9.92-7.52,10.42-.72.05-1.67,1.43-1.94,2.36-3.92,13.3-8.03,17.12-21.29,18.26-12.99,1.12-25.95.52-38.69-2.64-9.51-2.36-13.4-9.93-8.74-18.58,2.72-5.05,6.68-9.48,10.39-13.94,10.6-12.73,18.73-26.78,21.78-43.17,2.65-14.27.86-28.59-1.99-42.64-3.8-18.71-8.63-37.22-12.44-55.93-6.45-31.58-2.84-62.36,9.95-91.78,6.7-15.41,9.26-31.45,11.02-47.84.3-2.81.64-5.62,1.18-8.39,1.4-7.24.13-13.83-2.55-20.83-7.75-20.19-9.29-41.42-8.16-62.86,1.23-23.41,6.63-45.92,13.9-68.17,3.11-9.52,3.58-19.88,5.53-29.81,5.42-27.59,12-54.88,23.41-80.73,1.72-3.9,1.94-7.44.63-11.51-4.07-12.61-1.58-25.39-.57-38.12.55-6.96,1.05-13.94,1.23-20.92.17-6.49-1.99-12.22-5.77-17.65-8.93-12.79-17.44-25.87-26.37-39.21-1.34,2.44-2.42,5.18-4.15,7.41-6.29,8.16-12.12,16.83-19.41,24.01-7.98,7.87-13.72,16.85-16.94,27.21-6.89,22.14-21.09,38.5-40.11,50.52-16.38,10.36-28.47,24.3-38.99,40.08-1.69,2.53-1.18,4.45-.43,7.23,1.25,4.64,1.95,9.75,1.41,14.49-1.18,10.34-3.21,20.6-5.06,30.86-.67,3.72-1.22,7.66-2.88,10.97-3.21,6.4-9.28,6.57-12.48.23-2.18-4.31-3.3-9.3-4.13-14.12-.65-3.83-.13-7.86-.13-12.27-8.77,8.39-9.67,14.89-3.76,24.29.71,1.13,1.77,2.12,2.16,3.33.66,2,1.98,5.06,1.14,6.04-3.44,3.98-2.8,9.77-5.72,13.28-3.44,4.14-8.54,7.12-13.37,9.81-3.32,1.85-6.63.16-8.17-3.41-1.04-2.41-1.82-5.06-2.04-7.67-.94-11.6-2.7-23.29-2.06-34.82.42-7.65,4.18-15.18,6.86-22.61,2.24-6.23,5.12-12.22,7.63-18.36,9.6-23.5,19.32-46.96,28.69-70.56,5.02-12.64,8.7-25.85,14.27-38.23,8.73-19.36,19.57-37.46,36.83-50.81,1.28-.99,1.65-3.14,2.45-4.75,5.9-11.86,11.52-23.88,17.86-35.49,2.16-3.96,5.81-7.37,9.42-10.2,3.27-2.56,4.27-5.48,4.65-9.31,1.45-14.53,5.05-28.58,12.25-41.3,12.2-21.57,30.78-33.08,55.89-32.88,4.32.03,7-.99,9.99-4.46,3.92-4.55,9.07-8.29,14.25-11.45,6.07-3.71,12.71-6.51,19.18-9.56,6.86-3.23,10.5-8.42,10.48-16.09-.03-9.12.16-18.24-.18-27.35-.06-1.5-2.19-3.06-3.59-4.34-1.32-1.2-3.39-1.75-4.35-3.13-5.09-7.29-8.31-15.32-6.61-24.35.48-2.57,3.04-4.72,4.44-7.18.71-1.25,1.35-2.75,1.39-4.16.25-8.47-.3-17.01.58-25.4,1.61-15.37,8.04-27.67,24.12-32.57h41.98Zm106.15,240.92c-11.07-6.99-18.73-15.45-25.59-24.73-4.15-5.61-8.13-11.39-12.69-16.66-18.17-20.99-41.32-27.45-67.94-21.83-10.3,2.17-16.95,9.9-17.04,18.4-.19,19.29-.34,38.6.14,57.89.23,9.25,4.76,16.28,13.87,20.07,10.46,4.36,21.38,5.82,32.54,6.64,16.41,1.21,30.44-3.69,42.13-15.34,2.82-2.81,5.85-5.45,8.94-7.97,7.64-6.24,14.09-14.25,25.65-16.48Zm-249.84-1.08c6.98,4.86,13.89,9.31,20.38,14.3,4.86,3.74,9.07,8.33,13.78,12.28,7.42,6.22,15.1,12.18,25.13,13.48,15.61,2.02,30.87.32,45.68-5.03,12.9-4.67,16.78-10.14,16.88-23.84.12-16.48.16-32.96.14-49.43-.02-13.58-5.3-21.15-18.59-23.64-22.13-4.15-42.87-.53-59.93,15.33-6.17,5.74-11.62,12.4-16.62,19.21-7.83,10.67-16.16,20.7-26.85,27.35Zm89.37-146.07c.26,11.17,5.05,20.54,12.91,28.54,14.6,14.86,30.25,14.6,44.55-.55,7.62-8.07,11.66-17.55,12.36-29.11,6.8,2.37,8.87-2.04,10.37-6.66,1.16-3.6,2.03-7.39,2.33-11.15.64-8.12-.72-9.4-8.85-9.22-.42-2.2-.85-4.47-1.28-6.73-2.09-10.99-4.83-21.72-11.71-30.92-2.06-2.76-4.29-3.71-7.68-2.81-12.12,3.21-24.31,3.64-36.45.17-3.91-1.12-7.29-.29-9.02,3.2-3.44,6.93-6.69,14.01-9.28,21.28-1.75,4.92-2.25,10.29-3.31,15.46l-.98-1.01c-2.49,1.34-6.23,2.06-7.26,4.13-4.37,8.75,3.36,23.49,13.31,25.4Zm99.15,367.9c-2.72,9.07-5.15,17.16-7.59,25.26-9.97,33.07-20.31,66.04-29.76,99.25-4.69,16.5-7.6,33.54-4.51,50.8,2.28,12.75,5.25,25.38,7.95,38.05,6.36,29.86,17.7,57.6,37.26,81.26,12.95,15.66,18.54,33.49,19.62,53.24,1.9,34.64.87,69.22-1.77,103.78-.58,7.56-1.25,15.11-1.9,22.9,2.71.18,5.12.35,7.76.52.19-1.7.42-2.98.45-4.28,1.3-44.09,2.23-88.19,4.06-132.26.71-17.06,3-34.1,5.43-51.03,1.91-13.3,5.33-26.37,7.68-39.62,1.07-6.01,1.18-12.18,1.77-18.83-4.58,2.8-8.06,4.93-11.64,7.12.89,3.6,1.84,7.12,2.61,10.67,1.9,8.74,2.34,17.52-.38,26.15-3.35,10.62-11.41,13.65-21.07,8.1-6.09-3.5-9.92-8.85-11.65-15.55-.97-3.78-1.3-7.73-1.97-11.98-7.41,4.18-12.84.82-17.4-4.28-2.85-3.18-5.41-6.84-7.23-10.69-4.86-10.3-8.02-21.17-8.3-32.65-.91-38.04,3.49-75.39,15.5-111.62,7.75-23.37,15.07-46.81,17.88-71.42.87-7.6,1.27-15.07-2.82-22.92Zm-129.49.09c-.6-.02-1.19-.03-1.79-.05-.43,5.2-1.54,10.45-1.18,15.59,1.34,19.15,5.36,37.86,11.22,56.09,12.66,39.39,22.62,79.24,23.86,120.88.55,18.37-.38,36.31-11.65,51.99-5.45,7.58-11.13,14.64-22.39,8.8-.18,2.73-.18,4.88-.49,6.99-1.52,10.37-6,18.68-16.49,22.39-7.6,2.69-13.33.35-16.07-7.16-1.73-4.75-3.04-10.02-2.91-15.02.22-8.34,1.74-16.64,2.69-24.82-2.89-1.72-6.23-3.7-10.96-6.51,1.53,11.75,2.02,22.73,4.52,33.23,6.31,26.47,10.39,53.15,11.1,80.35,1.09,41.93,2.27,83.85,3.45,125.77.06,2.08.45,4.16.72,6.53,2.96-.22,5.39-.39,8.06-.59-.63-4.7-1.36-8.94-1.74-13.21-3.11-34.69-3.83-69.45-3.01-104.25.6-25.48,6.64-48.82,24.3-68.45,6.03-6.7,10.48-15,14.81-23.01,10.44-19.31,16.42-40.24,20.69-61.64,2.98-14.95,7.78-29.77,6.06-45.27-1.32-11.87-2.5-23.94-5.65-35.39-7.65-27.84-16.38-55.39-24.74-83.03-4.06-13.43-8.27-26.81-12.41-40.21Zm249.02-126.81c-2.44-24.17-8.73-47.18-20.92-68.43-5.98-10.43-15.07-16.62-26.18-20.16-12.8-4.07-22.95,1.85-24.42,15.02-2.92,26.13,4.34,49.32,22.22,68.78,10.03,10.92,21.51,19.83,36.77,22.31,8.57,1.39,11.62-.89,12.49-9.58.26-2.63.04-5.3.04-7.96Zm-294.93-64.4c-.43-3.63-.65-7.3-1.34-10.88-1.82-9.36-7.49-14.16-17.08-13.96-3.9.08-8.02.79-11.6,2.28-11.9,4.95-20.74,13.55-25.31,25.54-5.62,14.7-10.92,29.6-15,44.77-2.19,8.14-2.11,17.04-2,25.59.1,7.65,3.45,10.23,11.06,8.74,5.94-1.17,12.17-2.92,17.25-6.06,28.15-17.38,43.03-42.69,44.02-76.02Zm38.39,212.25c-.58-.13-1.17-.25-1.75-.38-4.46,9.94-10.21,19.51-13.13,29.88-9.07,32.25-12.46,65.22-8.96,98.7,1.72,16.46,8.29,31.12,16.8,45.99,4.7-8.87,9.3-16.94,13.34-25.28,8.14-16.81,9.78-35.06,11-53.33.46-6.93,1.58-14.14.25-20.8-5-25.11-15.74-48.87-17.55-74.79Zm152.28,174.77c32.47-47.4,15.83-146.06-7.73-173.87-.36,3.05-.69,5.99-1.07,8.92-2.6,20.04-8.97,39.09-15.15,58.2-1.2,3.71-1.92,7.82-1.74,11.7.46,10.12,1.62,20.2,2.35,30.31,1.72,23.61,10.63,44.61,23.33,64.74Zm-186.93,277.81c-1.73-34.15-5.06-67.48-15.43-100.49-.27,1.2-.49,1.67-.46,2.13,1.78,28.04,3.81,56.07,5.25,84.13.43,8.4.25,17.07-1.37,25.29-3.28,16.65-11.8,30.87-23.03,43.55-3.28,3.7-6.43,7.69-8.78,12.02-3.78,6.94-1.62,11.42,6.08,13.37,12.21,3.1,24.7,3.81,37.15,2.48,12.01-1.28,15.96-5.72,17.77-17.68.26-1.72.87-3.38,1.42-5.42,1.85,1.03,3.24,1.79,5.48,3.03.82-2.4,2.14-4.47,2.1-6.5-.09-3.95-.48-8.01-1.58-11.78-2.18-7.43-2.17-14.52.11-22.02,1.52-5.01,1.38-10.53,2.03-16.34-4.11,0-6.77.2-9.39-.04-7.27-.65-14.56-1.27-21.77-2.34-2.54-.38-5.76-1.48-3.78-5.82,2.65.78,5.11,1.51,8.21,2.43Zm196.35,59.3c.63,3.31,1.31,6.67,1.9,10.05,1.22,6.93,5.54,10.86,12.22,12.14,14.48,2.76,28.86,1.4,43.07-1.8,6.05-1.37,8.3-5.75,5.65-11.4-2.14-4.57-5.17-8.93-8.6-12.65-10.79-11.73-18.55-25.11-23.23-40.27-1.43-4.65-2.13-9.53-2.99-13.49-6.36,1.24-12.46,2.69-18.63,3.52-4.1.55-8.33.47-12.47.17-3.45-.24-5.33,1.29-5.15,4.33.29,4.9,1.44,9.74,1.92,14.64.48,4.86,1.03,9.79.74,14.64-.34,5.77-1.77,11.47-2.23,17.24-.13,1.59,1.17,3.83,2.52,4.79.73.52,2.93-1.01,5.26-1.92Zm-91.73-468.59c.1-1.73.19-2.68.2-3.62.14-34.59.29-69.18.4-103.77.03-8.63-4.76-17.03-10.99-18.46-7.64-1.75-15.4-2.95-23.25-4.42-6.2,14.25-5.99,15.33-4.36,30.83,2.28,21.71,5.76,43.1,13.03,63.78,4.9,13.96,12.36,26.01,24.98,35.66Zm5.26-.98c9.15-6.68,15.57-14.21,19.78-23.8,11.97-27.32,16.9-56.19,19.18-85.62.59-7.64-.99-15.07-4.45-20.73-6.9,1.65-12.89,3.76-19.04,4.41-10.89,1.16-18.7,11.03-16.56,21.91.41,2.09.82,4.24.82,6.36.04,30.77,0,61.55,0,92.32,0,1.43.14,2.87.26,5.16Zm93.76-2.09c-.55.3-1.09.6-1.64.9.78,3.54,1.6,7.07,2.33,10.62,5.12,24.8,6.04,49.78,3.47,74.95-1.58,15.46-6.79,29.7-13.72,43.46-5.31,10.54-4.42,21.34-.18,31.88,3.38,8.38,10.55,10.21,17.73,4.66,2.68-2.07,5.21-4.89,6.62-7.93,2.98-6.45,6.2-13.06,7.53-19.95,6.74-35.11,4.68-69.89-6.74-103.78-4.03-11.97-10.2-23.22-15.39-34.79Zm-191.22-.54c-.22-.09-.44-.19-.66-.28-.66,1.04-1.39,2.05-1.98,3.13-19.89,35.88-26.22,74.63-23.72,115.05.98,15.84,4.52,31.23,13,45.06,2.74,4.47,6.68,7.25,11.88,6.87,5.37-.4,8.58-4.23,10.13-9.11,3.15-9.87,4.23-19.76-.45-29.59-3.35-7.04-7.2-13.97-9.49-21.36-8.53-27.46-7.04-55.5-3.51-83.51,1.11-8.81,3.17-17.5,4.8-26.25Zm45.77,51.57l-1.11.15c-.13,1.22-.23,2.45-.4,3.66-1.81,12.66-3.22,25.39-5.56,37.95-2.79,14.98-11.14,27.66-18.5,40.65-2.92,5.14-4.09,10.44-3.6,16.26.34,3.98.36,7.99.75,11.96.84,8.65,3.69,16.57,9.6,23.08,5.34,5.9,9.75,6.24,15.31.68,3.24-3.23,5.99-7.16,8.16-11.2,5.12-9.57,6.94-20.08,7.16-30.81.53-26.42-3.15-52.41-8.52-78.21-.99-4.75-2.19-9.45-3.29-14.17Zm98.48-1.47c-.23.02-.46.03-.69.05-.27.93-.59,1.84-.81,2.78-6.1,25.61-9.67,51.58-10.22,77.9-.28,13.16.49,26.39,5.87,38.62,2.69,6.11,6.49,11.94,10.77,17.09,3.96,4.76,7.33,4.33,11.98.1,5.74-5.22,9.12-11.85,10.37-19.4,2.36-14.25,1.63-27.79-6.78-40.6-9.11-13.88-14.42-29.44-16.42-46.05-1.22-10.18-2.71-20.33-4.09-30.49Zm-116.04-394.17c-5.52-1.27-9.54-2.23-13.57-3.13-23.96-5.32-47.61,4.21-61.25,24.62-6.09,9.11-9.71,19.22-12.04,29.82-1.55,7.1-2.74,14.28-4.18,21.87,6.34-3.14,11.47-6.31,17.03-8.32,14.76-5.34,26.1-14.68,35.37-27.2,10.52-14.22,20.2-29.43,38.64-37.67Zm134.74,0c12.35,6.05,20.37,15.31,27.87,25.11,4.34,5.68,8.16,11.85,13.09,16.95,6.05,6.26,12.41,12.62,19.75,17.15,8.5,5.25,18.2,8.56,27.62,12.83.05-.93.23-1.88.13-2.79-1.83-15.78-5.5-31.04-13.32-45.05-6.75-12.1-16.57-20.64-29.84-24.97-14.72-4.81-29.4-4.2-45.3.77Zm-51.37,370.96c.87-2.05,2.12-4.38,2.89-6.87,5.42-17.61,10.9-35.2,16.07-52.88,6.06-20.72,15.38-39.25,33.22-52.53,5.44-4.05,8.37-9.84,9.69-16.39,3.48-17.3.05-34.32-1.82-51.59-4.09,4.72-7.8,9.12-11.64,13.41-4.76,5.32-10.19,10.15-14.27,15.94-2.74,3.88-5.16,9.08-5.11,13.66.22,19.35-3.7,38.02-8.22,56.57-5.66,23.25-12.17,46.21-33.38,61.08-.94.66-1.77,2.16-1.81,3.3-.2,4.93-.08,9.87-.08,14.62,5.11.6,9.49,1.11,14.46,1.69Zm-48.25-432.76l-1.63.81c0,7.3-.19,14.6.05,21.89.29,8.78-1.68,16.8-6.92,23.94-2.19,2.99-4.33,6.02-6.94,9.66,12.67-1.74,24.27-1.44,35.88,4.39-6.88-16.12-15.25-30.78-14.45-48.31,1.56,1.35,2.56,2.98,3.14,4.74,3.33,10.08,6.05,20.38,9.97,30.22,3.2,8.02,7.78,15.48,12.27,24.21,12.27-18.46,18.67-37.68,24.07-57.71.9,2.01,2.23,4.42,1.7,6.31-2.63,9.38-5.63,18.65-8.74,27.89-1.17,3.47-2.96,6.72-4.09,9.23,10.89-.95,21.64-1.89,32.58-2.85-.54-.79-1.15-1.91-1.96-2.88-7.57-8.99-10.45-19.31-9.82-31.02.35-6.49-.59-13.05-1.04-21.26-8.7,12.5-18.49,21.52-32.7,21.59-14.33.06-23.92-9.14-31.37-20.83Zm-45.69,252.97c-.29,4.32-.7,9.43-.97,14.55-.51,9.79-1.44,19.59-1.25,29.36.22,10.92,4.28,20.2,13.58,27,11.76,8.6,19.58,20.41,24.26,34.02,5.71,16.64,10.59,33.55,15.98,50.3,2.67,8.3,5.68,16.5,8.35,24.21,5.57-.31,10.11-.56,14.9-.82,0-3.81-.23-7.15.06-10.44.33-3.77-.77-6.32-3.85-8.86-8.79-7.23-16.52-15.47-21.02-26.22-11.23-26.81-17.2-54.89-18.03-83.8-.32-11.27-3.97-19.84-11.45-27.55-7-7.22-13.83-14.6-20.58-21.74Zm-19.28,566.1c0-1.84.05-3.48,0-5.12-1.55-47.75-2.24-95.54-5.01-143.22-1.42-24.38-6.56-48.55-10.02-72.81-.51.04-1.02.08-1.54.11-.16.75-.39,1.5-.47,2.25-2.28,22-5.18,43.96-6.58,66.02-.91,14.37-.57,28.98.95,43.3,1.19,11.3,5.91,22.19,7.51,33.49,3.32,23.51,5.72,47.16,8.22,70.78.46,4.34,1.4,6.75,6.95,5.19Zm198.82.47c.81-9.48,1.7-18.39,2.31-27.32,1.42-20.92,3.3-41.78,9.69-61.88,6.83-21.49,7.47-43.43,5.61-65.61-1.42-16.88-2.94-33.76-4.48-50.63-.46-5.04-1.11-10.06-1.67-15.09-1.33,1.9-1.77,3.77-2.1,5.65-3.42,19.78-8.72,39.45-9.84,59.36-2.81,50.13-3.74,100.37-5.41,150.56-.05,1.62,0,3.23,0,4.97h5.9Zm142.59-494.39c5.61-36.57-26.18-120.42-49.71-130.19.73,6.79,1.65,13.36,2.11,19.97,1.56,22.39,7.21,43.57,18.61,62.99,9.32,15.87,19,31.52,28.53,47.26.04.06.3,0,.46-.02ZM93.92,311.07c-25.36,12.84-56.69,96.23-49.08,127.17,8.65-13.19,17.84-27.12,26.92-41.12,1.89-2.92,3.49-6.05,5.03-9.17,8.94-18.12,13.52-37.39,15.05-57.47.49-6.37,1.35-12.71,2.08-19.41Zm459.1,137.04c-5.64,2.71-11.35,5.37-16.99,8.18-9.5,4.74-12.42,11.86-9.92,22.26,1.59,6.58,2.59,13.32,3.6,20.03.82,5.42,1.04,10.93,2,16.32.31,1.71,2.15,3.15,3.3,4.71,1.36-1.28,3.32-2.33,3.94-3.9,1.26-3.2,2.21-6.64,2.5-10.05.4-4.62-.17-9.33.17-13.96.15-2.07,1.5-4.05,2.3-6.07,1.97,1.18,4.56,1.91,5.78,3.62,3.47,4.86,6.6,9.99,9.4,15.27,1.57,2.96,2.88,6.36,3.14,9.65.66,8.61.43,17.29,1.11,25.89.17,2.18,2.43,4.2,3.72,6.29,1.42-2.06,3.04-4.02,4.19-6.23.56-1.08.26-2.61.33-3.94.31-6.15.63-12.3.9-18.45.28-6.45,2.36-13.52.42-19.23-5.78-17.07-13.15-33.6-19.91-50.39Zm-527.45-.19c-6.14,14.6-12.65,28.92-18.12,43.64-2.17,5.84-2.62,12.52-2.78,18.84-.21,7.78.67,15.59,1.14,23.38.17,2.81.09,5.75.91,8.38.54,1.75,2.46,3.06,3.77,4.57,1.24-1.51,3.41-2.93,3.55-4.53.63-7.26,1.26-14.61.82-21.86-.85-14.07,8.96-23.04,15.32-33.62,1.66-2.76,4.63-1.87,5.52,1.34.69,2.49.49,5.21.77,7.82.71,6.51,1.21,13.07,2.37,19.5.29,1.62,2.77,2.84,4.25,4.24,1.24-1.84,2.53-3.64,3.67-5.54.31-.52.14-1.3.25-1.96,1.88-11.94,3.68-23.9,5.68-35.82,1.43-8.47-1.42-15-9.07-19.17-5.97-3.25-12.1-6.2-18.04-9.23Zm320.91,302.16c-.34,1.11-.76,2.14-.97,3.21-3.5,18.11-4.17,36.33-1.89,54.62,1.47,11.79,4.45,23.18,10.2,33.67,2.91,5.31,6.42,5.4,9.86.51.67-.95,1.31-1.95,1.76-3.01,10.71-24.8,8.23-48.67-5.63-71.44-3.75-6.16-8.72-11.56-13.33-17.57Zm-114.25-1.54c-4.3,5.62-8.41,10.37-11.84,15.58-15.91,24.22-19.5,49.69-6.89,76.48.93,1.97,3.29,4.5,5.03,4.53,1.86.03,4.44-2.21,5.51-4.13,2.31-4.18,4.18-8.69,5.67-13.24,8.46-25.88,6.16-52.14,2.52-79.22ZM330.36,55.58c.32-12.98,1.56-26.08-5.15-38.18-3.32-5.99-7.99-10.15-14.64-11.93-14.12-3.79-28.54-2.92-42.56-.6-19.46,3.22-24.51,31.79-20.25,47.78.44-1.35.82-2.21.99-3.1,1.85-9.61,5.17-18.54,11.75-26.03,2.13-2.42,4.22-3.54,7.77-2.83,11.23,2.26,22.38,4.41,34.04,1.43,11.55-2.96,13.92-1.31,19.45,9.35.76,1.47,1.55,2.96,2.08,4.52,2.22,6.51,4.35,13.06,6.52,19.59ZM125.13,378.52c-20.82.17-38.12,8.77-50.43,22.99-11.41,13.18-18.73,29.97-27.37,45.44-2.87,5.14-1.8,6.39,3.91,8.52,1.5-2.36,3.01-4.74,4.52-7.11,9.23-14.59,21.5-26.01,35.93-35.38,13.51-8.77,24.9-19.75,33.45-34.47Zm326.9-.3c3.57,4.94,6.05,9.85,9.84,13.32,8.55,7.83,17.26,15.67,26.82,22.16,11.79,8.01,21.57,17.64,29.49,29.34,2.95,4.35,5.87,8.73,8.93,13.27,1.88-1.33,3.46-2.46,5.4-3.83-7.35-19.38-17.9-36.7-30.96-52.56-.52-.63-1.23-1.11-1.88-1.64-13.54-10.94-28.25-19.23-47.65-20.06Zm-200.61-28.93c-3.17,12.14-1.88,23.18.39,34.1.56,2.67,2.3,6,4.5,7.24,6.88,3.89,14.56,5.62,22.52,4.89,5.79-.53,7.76-2.91,7.88-8.82.14-6.97.23-13.95.15-20.92-.1-9.28-2.22-11.13-11.62-11.38-8.12-.22-16.77,2.13-23.82-5.11Zm18.53,256.31c.48-.53.82-.73.88-.99.52-2.26.92-4.56,1.48-6.81,3.48-13.95,3.99-27.29-1.99-41.26-7.02-16.41-11.76-33.8-17.48-50.77-4.02-11.93-7.37-24.15-12.25-35.72-3.05-7.24-8.39-13.52-12.7-20.22-.78.37-1.55.75-2.33,1.12,14.43,51.56,35.52,101.25,44.39,154.65Zm57.71-254.85c-5.29,1.36-9.74,2.95-14.33,3.56-4.41.59-8.95.09-13.43.19-5.6.12-8.22,2.51-8.38,8.21-.23,8.29-.45,16.62.11,24.88.16,2.32,2.75,6.01,4.75,6.41,8.53,1.69,17.2,1.59,25.11-2.88,1.45-.82,2.82-2.47,3.41-4.04,4.64-12.21,5.02-24.72,2.76-36.33Zm-20.45,255.3c.74-2.17,1.11-3.03,1.33-3.93,4.58-18.85,8.45-37.91,13.86-56.52,8.33-28.67,17.73-57.03,26.6-85.54.85-2.72,1.18-5.6,1.75-8.4l-1.69-1.08c-.29.77-.39,1.72-.91,2.28-10.44,11.36-15.66,25.36-19.72,39.8-6.48,23-12.15,46.25-22.14,68.08-3.89,8.49-4.76,17.15-2.76,26.23,1.28,5.82,2.28,11.7,3.69,19.09Zm-15.87-277.81c-.16,0-.32,0-.47,0,0,3.82-.08,7.64.02,11.45.18,7.09,1.93,9.42,9.01,9.85,5.74.35,11.63.09,17.3-.83,8.51-1.39,13.22-7.27,13.65-15.87.13-2.65-.15-5.31,0-7.96.32-5.64-2.57-8.92-7.75-9.88-8.78-1.63-17.64-2.89-26.49-4.16-3.6-.52-5.22,1.54-5.26,4.95-.05,4.15-.01,8.29-.01,12.44Zm-4.55,1.18s-.06,0-.09,0c0-4.48-.04-8.96.01-13.44.05-4.09-1.91-5.8-5.91-5.21-5.74.84-11.52,1.49-17.2,2.6-14.33,2.78-17.45,4.03-15.44,22.72.07.66.18,1.32.34,1.96,1.35,5.45,4.66,9.69,10.11,10.48,6.98,1.01,14.18,1.11,21.25.8,4.69-.2,7.35-3.26,6.99-8.46-.26-3.8-.05-7.63-.05-11.45Zm80.84,106.32c-9.62,5.59-11.97,13.39-9.31,23.73,6.72,26.19,21,48.42,36.13,70.37-6.25-32.24-13.37-64.22-26.81-94.1Zm-80.98-145.75c.19-11.35-2.13-13.13-13.25-10.65-7.93,1.77-15.91,3.29-23.85,5.03-1.33.29-3.38.89-3.67,1.8-2.07,6.5-3.98,13.21-1.14,19.91,1.62,3.82,4.3,6.77,9.26,5.65,7.76-1.76,15.56-3.39,23.31-5.19,6.33-1.47,8.55-4.02,9.3-10.57.23-1.97.03-3.98.03-5.97Zm4.56.42c-.16,12.76,1.04,14.28,13.72,16.93,6.02,1.26,12.1,2.2,18.09,3.58,7.01,1.62,10.45-.53,10.64-7.77.13-5.12-.45-10.29-1.18-15.37-.18-1.22-2.04-2.82-3.4-3.15-7.74-1.88-15.59-3.27-23.34-5.13-11.68-2.8-14.38-.86-14.53,10.9Zm-80.15,144.34c-13.5,29.13-19.51,59.59-26.07,90.93,1.42-.92,1.99-1.08,2.18-1.44,8.45-15.63,17.19-31.11,25.13-47,3.52-7.04,5.83-14.79,7.82-22.44.78-3.02-.11-6.98-1.5-9.92-1.64-3.48-4.63-6.33-7.56-10.13Zm-2.86-96.79c2.81,13.9,5.62,27.21,15.14,37.8,7.37,8.19,14.93,16.2,22.33,24.21.16-.37.8-1.37,1.05-2.46,2.52-10.82.99-21.12-4.62-30.65-2.86-4.86-6.92-9.06-9.46-14.05-5.1-10-14.51-12.1-24.44-14.85Zm5.57-41.23c3,20.05,18.34,53.01,31.38,64.04.04-7.11,3.27-13.39.11-20.3-2.92-6.39-2.88-13.27-.58-19.95,1.03-2.99,2.52-5.64-.68-8.38-2.34-2-3.8-5.51-6.4-6.65-7.57-3.32-15.51-5.78-23.83-8.77Zm150.63.38c-8.16,2.86-16.17,5.42-23.97,8.5-4.88,1.93-8.35,10.62-6.7,15.62,2.05,6.23,2.36,12.63-.25,18.51-3.2,7.21,0,14.05-.84,21.72,13.68-11.87,29.68-46.9,31.76-64.35Zm-158.42,391.31c-2.49,2.08-5.87,4.87-9.21,7.7-.85.72-1.93,1.44-2.34,2.4-5.1,11.92-5.7,24.16-1.8,36.47,1.52,4.8,5.07,6.41,9.81,5.4,11.24-2.39,19.43-20.76,13.99-30.85-3.81-7.07-7.14-14.4-10.45-21.12Zm126.34-288.83c5.26-5.77,9.5-11.91,15.11-16.29,14.94-11.69,18.08-28.59,22-44.72-15.29.89-22.53,11.86-29.99,23.08-7.88,11.85-11.06,24.13-7.12,37.94Zm39.18,288.71c-2.63,5.89-5.1,12.53-8.47,18.68-5.45,9.96-1.45,26.05,8.35,31.57,7.72,4.35,13.43,2.08,15.22-6.49,2.24-10.76,1.71-21.43-2.6-31.71-.5-1.18-1.13-2.46-2.06-3.28-3.63-3.2-7.4-6.24-10.44-8.78ZM181.13,255.84c3.16,12.46,1.05,24.52-1.93,36.49-1.41,5.66-.72,10.78,2.48,15.69,7.08,10.86,14.03,21.79,21.07,32.67.52.8,1.28,1.43,1.94,2.14.24-2.01-.18-3.58-.56-5.15-4.88-20.01-10.1-40.11-10.04-60.76.04-10.77-6.96-15.07-12.95-21.08Zm216.19.96l-1.3-.73c-1.66,1.79-3.07,3.94-5.02,5.3-4.87,3.39-5.85,8.19-6.51,13.66-1.81,14.98-3.89,29.94-6.33,44.83-1.23,7.52-3.49,14.87-5.28,22.3.36.18.72.35,1.09.53,8.12-12.87,16.52-25.59,24.16-38.74,1.7-2.92,1.47-7.5.87-11.11-1.99-11.95-4.94-23.79-1.68-36.03Zm8.3,677.07c2.3-33.67,4.61-67.45,6.92-101.23-11.92,33.16-14.28,67.62-16.61,102.44,1.95-.33,3.4-.63,4.85-.81,1.49-.18,2.99-.25,4.83-.4Zm-237.35-184.73c-19.18,40.56-19.16,81.8-4.45,124.76-3.75-42.59-2.1-83.78,4.45-124.76ZM451.14,254.36c-.44.37-.88.74-1.32,1.12.11.31.15.66.34.92,16.51,23.46,24.04,50.17,27.67,78.11,1.04,8,1.16,16.77-7.71,22.14,7.73,8.66,15.27,17.09,23.59,26.4-.2-1.81-.13-2.32-.32-2.72-6.62-14.19-10.22-29.07-10.81-44.73-.89-23.72-7.47-45.82-19.84-66.06-3.3-5.4-7.7-10.13-11.59-15.17Zm-40.16,498.94c4.75,39.08,6.5,78.17,3.87,117.41,12.66-39.66,14.26-78.94-3.87-117.41ZM127.23,255.82c-1.25,1.14-2.38,1.97-3.29,3-14.86,16.83-22.82,36.82-26.25,58.69-2.09,13.27-2.96,26.75-5.32,39.97-1.44,8.04-4.68,15.76-7.53,24.98,8.12-9.3,15.35-17.58,22.02-25.21-1.83-2.85-4.33-5.09-4.72-7.66-1.08-6.97-2.92-14.44-1.47-21.06,3.29-15.01,7.79-29.84,12.95-44.34,3.45-9.69,8.87-18.67,13.61-28.38Zm199.87-113.12c1.09,12.55,5.7,22.26,14.5,28.61,8.62,6.22,18.39,1.62,27.94-.28-10.1-15.45-28.37-17.31-42.44-28.33Zm-118.86,28.04c10.57,1.41,21.13,7.98,30.91-2.07,6.85-7.04,12.34-19.4,10.72-24.72-13.64,9.05-30.95,12.36-41.63,26.79Zm278.05,212.77c.34-.45.67-.91,1.01-1.36-6.89-7.36-13.75-14.74-20.69-22.04-.76-.8-1.86-1.42-2.92-1.76-7.61-2.4-15.25-4.7-22.64-6.96,2.33,5.56,4.73,11.69,7.5,17.65.71,1.54,2.45,3.36,3.97,3.64,11.73,2.14,23.5,3.97,33.77,10.83Zm-350.78-31.14c-7.26,1.94-14.54,3.87-21.8,5.85-.77.21-1.62.57-2.15,1.14-6.94,7.46-13.83,14.97-20.73,22.47.29.38.57.76.86,1.14,10.21-7.1,22.02-8.52,33.79-10.21,1.22-.18,2.69-1.76,3.24-3.04,2.45-5.79,4.61-11.71,6.78-17.35Zm70.09,542.93c.26-.02.52-.05.78-.07,4.41-15.03,8.82-30.06,13.24-45.14-11.36.16-9.96-11.23-14.03-18.01v63.21Zm166.59,2.61v-64.38c-3.1,7.42-4.58,15.85-13.84,16.78,4.49,15.44,8.95,30.79,13.84,47.6Zm-35.06-612.31c.57,4.98,1.16,10.18,1.76,15.49,6.95-2.49,13.6-5.01,20.35-7.26,7.55-2.52,8.78-4.6,7.05-11.56-9.62,1.1-19.12,2.18-29.16,3.33Zm-96.19-.06c-10.04-1.05-19.64-2.06-29.24-3.07-.8,7.74-.84,7.85,6.19,10.72,6.73,2.74,13.57,5.22,20.8,7.98.76-5.31,1.51-10.5,2.25-15.63Zm298.09,164.09c13.09-4.68,13.24-4.97,8.28-17.29-.8-2-1.65-3.99-2.56-5.94-2.33-5.01-4.7-10-7.06-15-.22.11-.45.23-.67.34.66,12.52,1.33,25.04,2.01,37.89Zm-499.7-.52c.56-12.28,1.1-24.29,1.64-36.29-3.83,6.61-7.01,13.44-10.01,20.35-4.73,10.88-4.2,11.96,7.29,15.93.29.1.64.01,1.08.01Zm182.87-111.88c-2.4-6.38-4.57-12.27-6.81-18.13-2.28-5.97-4.58-7.22-11.58-6.15,1.19,5.85,2.28,11.71,3.63,17.52.29,1.23,1.29,2.87,2.34,3.24,4.01,1.4,8.18,2.36,12.43,3.52Zm132.99,1.08c3.84-1.4,6.78-2.37,9.63-3.57,1.76-.74,4.48-1.51,4.88-2.84,1.99-6.65,3.36-13.48,4.95-20.25-.37-.3-.74-.6-1.11-.9-3.17,1.99-7.63,3.25-9.26,6.11-3.64,6.38-5.87,13.57-9.08,21.44Zm23.41-46.1c-8.62,2.46-10.85,8.74-11.11,16.13,11.65-.04,9.23-9.36,11.11-16.13Zm-89.26-14.64c2.25-1.08,4.72-2.26,7.18-3.44-2.41-3.43-4.82-6.87-6.98-9.94-2.61,3.37-5.18,6.69-7.74,9.98,2.41,1.09,4.92,2.22,7.54,3.4Zm90.21-4.66c-7.89,4.49-9.8,8.97-8.29,17.56,10.09-2.13,6.43-10.55,8.29-17.56Zm-180.6.21c.25,13.27,1.56,15.96,8.41,17.24-1.22-6.44,1.25-14.53-8.41-17.24Zm1.86,19.92c-.44,10.51,1.62,13.72,9.7,14.91.16-7.21-2.31-12.67-9.7-14.91Zm82.78,106.13c1.96,2.75,3.72,5.21,5.59,7.83,1.68-2.93,3.21-5.58,4.8-8.37-1.64-1.23-3.05-2.29-4.48-3.36-1.12.82-2.01,1.53-2.97,2.16-.92.6-1.89,1.12-2.95,1.74Zm273.38,113.34c-2.71,5.43-4.91,9.83-7.11,14.23l1.39.68c4.41-3.44,7.52-7.48,5.71-14.92Zm-529.19,13.96c-2.17-4.26-4.34-8.52-6.63-13.02-1.45,7.32-.12,10.43,6.63,13.02Zm530.33,12.14v-9.71c-5.23,4.98-5.25,7.44,0,9.71Zm-538.4.64c4.52-2.41,4.49-6.09,0-9.98v9.98Z"/>
    <path class="cls-1" d="m414.75,240.92c-11.55,2.23-18,10.23-25.65,16.48-3.09,2.52-6.11,5.16-8.94,7.97-11.69,11.64-25.72,16.55-42.13,15.34-11.16-.82-22.08-2.28-32.54-6.64-9.11-3.79-13.64-10.83-13.87-20.07-.48-19.29-.33-38.59-.14-57.89.08-8.5,6.74-16.23,17.04-18.4,26.63-5.62,49.77.83,67.94,21.83,4.56,5.27,8.54,11.05,12.69,16.66,6.86,9.28,14.52,17.73,25.59,24.73Z"/>
    <path class="cls-1" d="m164.92,239.84c10.69-6.66,19.01-16.69,26.85-27.35,5-6.81,10.45-13.47,16.62-19.21,17.06-15.86,37.8-19.48,59.93-15.33,13.3,2.49,18.57,10.07,18.59,23.64.03,16.48-.02,32.96-.14,49.43-.1,13.71-3.98,19.17-16.88,23.84-14.81,5.36-30.07,7.06-45.68,5.03-10.03-1.3-17.71-7.25-25.13-13.48-4.71-3.96-8.92-8.54-13.78-12.28-6.49-4.99-13.4-9.44-20.38-14.3Z"/>
    <path class="cls-1" d="m254.29,93.77c-9.94-1.91-17.68-16.65-13.31-25.4,1.03-2.07,4.77-2.79,7.26-4.13l.98,1.01c1.06-5.17,1.56-10.54,3.31-15.46,2.59-7.28,5.84-14.35,9.28-21.28,1.73-3.49,5.1-4.32,9.02-3.2,12.15,3.47,24.34,3.05,36.45-.17,3.39-.9,5.62.06,7.68,2.81,6.89,9.21,9.62,19.93,11.71,30.92.43,2.26.86,4.53,1.28,6.73,8.12-.18,9.49,1.1,8.85,9.22-.3,3.76-1.17,7.55-2.33,11.15-1.49,4.62-3.57,9.03-10.37,6.66-.7,11.56-4.74,21.04-12.36,29.11-14.31,15.15-29.96,15.41-44.55.55-7.86-8-12.66-17.37-12.91-28.54Z"/>
    <path class="cls-1" d="m353.43,461.67c4.09,7.85,3.69,15.31,2.82,22.92-2.81,24.6-10.13,48.05-17.88,71.42-12.02,36.23-16.42,73.58-15.5,111.62.28,11.47,3.44,22.34,8.3,32.65,1.82,3.85,4.38,7.51,7.23,10.69,4.56,5.09,9.99,8.45,17.4,4.28.68,4.26,1,8.2,1.97,11.98,1.73,6.7,5.56,12.05,11.65,15.55,9.65,5.55,17.72,2.52,21.07-8.1,2.72-8.62,2.28-17.41.38-26.15-.77-3.55-1.73-7.07-2.61-10.67,3.58-2.19,7.06-4.32,11.64-7.12-.59,6.64-.7,12.82-1.77,18.83-2.35,13.24-5.77,26.32-7.68,39.62-2.43,16.93-4.72,33.97-5.43,51.03-1.83,44.07-2.75,88.17-4.06,132.26-.04,1.29-.27,2.58-.45,4.28-2.64-.18-5.04-.34-7.76-.52.65-7.8,1.32-15.35,1.9-22.9,2.65-34.56,3.67-69.15,1.77-103.78-1.08-19.75-6.68-37.59-19.62-53.24-19.56-23.66-30.9-51.39-37.26-81.26-2.7-12.67-5.67-25.3-7.95-38.05-3.09-17.27-.18-34.31,4.51-50.8,9.45-33.22,19.79-66.18,29.76-99.25,2.44-8.09,4.87-16.19,7.59-25.26Z"/>
    <path class="cls-1" d="m223.94,461.76c4.14,13.4,8.35,26.79,12.41,40.21,8.36,27.65,17.09,55.19,24.74,83.03,3.15,11.46,4.33,23.52,5.65,35.39,1.72,15.5-3.08,30.33-6.06,45.27-4.27,21.39-10.24,42.33-20.69,61.64-4.34,8.02-8.78,16.31-14.81,23.01-17.66,19.63-23.7,42.96-24.3,68.45-.82,34.8-.1,69.56,3.01,104.25.38,4.27,1.11,8.51,1.74,13.21-2.67.2-5.09.37-8.06.59-.27-2.37-.66-4.45-.72-6.53-1.18-41.92-2.36-83.85-3.45-125.77-.71-27.21-4.78-53.89-11.1-80.35-2.5-10.5-2.99-21.48-4.52-33.23,4.72,2.8,8.07,4.79,10.96,6.51-.96,8.18-2.48,16.49-2.69,24.82-.13,4.99,1.18,10.26,2.91,15.02,2.74,7.51,8.48,9.85,16.07,7.16,10.49-3.71,14.97-12.02,16.49-22.39.31-2.11.31-4.26.49-6.99,11.26,5.84,16.94-1.22,22.39-8.8,11.27-15.68,12.2-33.61,11.65-51.99-1.25-41.63-11.2-81.49-23.86-120.88-5.86-18.23-9.88-36.94-11.22-56.09-.36-5.15.74-10.39,1.18-15.59.6.02,1.19.03,1.79.05Z"/>
    <path class="cls-1" d="m472.96,334.95c0,2.65.22,5.33-.04,7.96-.87,8.69-3.92,10.97-12.49,9.58-15.26-2.48-26.74-11.39-36.77-22.31-17.88-19.46-25.14-42.66-22.22-68.78,1.47-13.17,11.62-19.1,24.42-15.02,11.11,3.53,20.2,9.73,26.18,20.16,12.2,21.25,18.48,44.26,20.92,68.43Z"/>
    <path class="cls-1" d="m178.03,270.55c-.99,33.33-15.87,58.64-44.02,76.02-5.08,3.14-11.31,4.89-17.25,6.06-7.61,1.5-10.96-1.09-11.06-8.74-.11-8.55-.19-17.45,2-25.59,4.08-15.18,9.38-30.07,15-44.77,4.58-11.98,13.41-20.58,25.31-25.54,3.58-1.49,7.7-2.2,11.6-2.28,9.58-.2,15.26,4.6,17.08,13.96.7,3.58.91,7.25,1.34,10.88Z"/>
    <path class="cls-1" d="m216.42,482.8c1.81,25.92,12.55,49.67,17.55,74.79,1.33,6.66.21,13.87-.25,20.8-1.22,18.27-2.85,36.52-11,53.33-4.04,8.34-8.64,16.42-13.34,25.28-8.51-14.87-15.08-29.53-16.8-45.99-3.5-33.49-.11-66.45,8.96-98.7,2.92-10.37,8.67-19.94,13.13-29.88.58.13,1.17.25,1.75.38Z"/>
    <path class="cls-1" d="m368.7,657.57c-12.7-20.14-21.62-41.14-23.33-64.74-.73-10.11-1.89-20.19-2.35-30.31-.18-3.88.54-7.98,1.74-11.7,6.18-19.11,12.55-38.16,15.15-58.2.38-2.93.7-5.87,1.07-8.92,23.56,27.81,40.2,126.47,7.73,173.87Z"/>
    <path class="cls-1" d="m181.77,935.38c-3.1-.92-5.56-1.64-8.21-2.43-1.97,4.35,1.24,5.45,3.78,5.82,7.21,1.07,14.5,1.69,21.77,2.34,2.62.23,5.27.04,9.39.04-.66,5.81-.51,11.33-2.03,16.34-2.28,7.49-2.29,14.58-.11,22.02,1.11,3.77,1.49,7.84,1.58,11.78.05,2.03-1.27,4.1-2.1,6.5-2.24-1.24-3.63-2.01-5.48-3.03-.54,2.04-1.16,3.7-1.42,5.42-1.81,11.96-5.76,16.39-17.77,17.68-12.45,1.33-24.94.62-37.15-2.48-7.7-1.95-9.86-6.43-6.08-13.37,2.35-4.32,5.5-8.32,8.78-12.02,11.24-12.68,19.75-26.9,23.03-43.55,1.62-8.21,1.8-16.89,1.37-25.29-1.45-28.06-3.47-56.09-5.25-84.13-.03-.45.19-.92.46-2.13,10.37,33.02,13.7,66.34,15.43,100.49Z"/>
    <path class="cls-1" d="m378.12,994.67c-2.33.91-4.54,2.44-5.26,1.92-1.35-.97-2.65-3.2-2.52-4.79.46-5.77,1.89-11.47,2.23-17.24.29-4.85-.26-9.78-.74-14.64-.48-4.9-1.63-9.74-1.92-14.64-.18-3.04,1.7-4.58,5.15-4.33,4.14.29,8.37.38,12.47-.17,6.18-.83,12.27-2.29,18.63-3.52.86,3.96,1.56,8.84,2.99,13.49,4.68,15.16,12.44,28.55,23.23,40.27,3.43,3.72,6.46,8.08,8.6,12.65,2.64,5.65.4,10.03-5.65,11.4-14.21,3.21-28.6,4.57-43.07,1.8-6.68-1.28-10.99-5.21-12.22-12.14-.6-3.38-1.28-6.74-1.9-10.05Z"/>
    <path class="cls-2" d="m286.39,526.08c-12.63-9.65-20.08-21.7-24.98-35.66-7.27-20.69-10.75-42.08-13.03-63.78-1.63-15.51-1.83-16.58,4.36-30.83,7.85,1.47,15.61,2.67,23.25,4.42,6.23,1.42,11.02,9.82,10.99,18.46-.11,34.59-.26,69.18-.4,103.77,0,.95-.1,1.9-.2,3.62Z"/>
    <path class="cls-2" d="m291.65,525.1c-.12-2.29-.26-3.72-.26-5.16,0-30.77.03-61.55,0-92.32,0-2.12-.41-4.26-.82-6.36-2.14-10.88,5.67-20.75,16.56-21.91,6.15-.66,12.14-2.76,19.04-4.41,3.45,5.67,5.04,13.1,4.45,20.73-2.28,29.44-7.2,58.31-19.18,85.62-4.2,9.59-10.63,17.12-19.78,23.8Z"/>
    <path class="cls-1" d="m385.41,523.02c5.19,11.58,11.36,22.83,15.39,34.79,11.42,33.89,13.49,68.67,6.74,103.78-1.32,6.89-4.54,13.51-7.53,19.95-1.4,3.03-3.94,5.85-6.62,7.93-7.18,5.55-14.35,3.72-17.73-4.66-4.25-10.54-5.13-21.34.18-31.88,6.93-13.76,12.14-27.99,13.72-43.46,2.57-25.17,1.65-50.15-3.47-74.95-.73-3.55-1.55-7.08-2.33-10.62.55-.3,1.09-.6,1.64-.9Z"/>
    <path class="cls-1" d="m194.18,522.48c-1.63,8.75-3.69,17.44-4.8,26.25-3.53,28.01-5.02,56.05,3.51,83.51,2.3,7.39,6.14,14.32,9.49,21.36,4.68,9.84,3.61,19.72.45,29.59-1.56,4.88-4.77,8.71-10.13,9.11-5.2.38-9.14-2.4-11.88-6.87-8.48-13.83-12.02-29.22-13-45.06-2.51-40.42,3.82-79.17,23.72-115.05.6-1.08,1.32-2.08,1.98-3.13.22.09.44.19.66.28Z"/>
    <path class="cls-1" d="m239.95,574.05c1.1,4.72,2.3,9.42,3.29,14.17,5.37,25.79,9.04,51.78,8.52,78.21-.22,10.73-2.03,21.25-7.16,30.81-2.17,4.05-4.92,7.97-8.16,11.2-5.56,5.56-9.97,5.22-15.31-.68-5.91-6.51-8.75-14.43-9.6-23.08-.39-3.97-.41-7.98-.75-11.96-.5-5.81.68-11.11,3.6-16.26,7.37-13,15.72-25.67,18.5-40.65,2.33-12.56,3.75-25.29,5.56-37.95.17-1.22.27-2.44.4-3.66l1.11-.15Z"/>
    <path class="cls-1" d="m338.43,572.58c1.37,10.16,2.86,20.31,4.09,30.49,1.99,16.61,7.31,32.17,16.42,46.05,8.41,12.81,9.14,26.35,6.78,40.6-1.25,7.55-4.63,14.18-10.37,19.4-4.65,4.23-8.02,4.66-11.98-.1-4.28-5.14-8.08-10.98-10.77-17.09-5.39-12.23-6.15-25.46-5.87-38.62.55-26.32,4.12-52.29,10.22-77.9.22-.94.54-1.86.81-2.78.23-.02.46-.03.69-.05Z"/>
    <path class="cls-1" d="m222.39,178.41c-18.44,8.23-28.11,23.45-38.64,37.67-9.27,12.53-20.61,21.87-35.37,27.2-5.56,2.01-10.69,5.18-17.03,8.32,1.43-7.58,2.62-14.76,4.18-21.87,2.32-10.6,5.95-20.71,12.04-29.82,13.64-20.41,37.29-29.95,61.25-24.62,4.03.9,8.06,1.85,13.57,3.13Z"/>
    <path class="cls-1" d="m357.13,178.41c15.89-4.97,30.58-5.57,45.3-.77,13.27,4.33,23.09,12.87,29.84,24.97,7.81,14.01,11.48,29.27,13.32,45.05.11.91-.08,1.86-.13,2.79-9.43-4.27-19.13-7.58-27.62-12.83-7.33-4.53-13.69-10.89-19.75-17.15-4.93-5.1-8.75-11.28-13.09-16.95-7.5-9.8-15.52-19.06-27.87-25.11Z"/>
    <path class="cls-1" d="m305.76,549.37c-4.97-.58-9.35-1.09-14.46-1.69,0-4.75-.11-9.69.08-14.62.05-1.14.87-2.64,1.81-3.3,21.21-14.87,27.71-37.83,33.38-61.08,4.52-18.56,8.44-37.22,8.22-56.57-.05-4.58,2.37-9.77,5.11-13.66,4.08-5.79,9.5-10.62,14.27-15.94,3.84-4.28,7.55-8.68,11.64-13.41,1.86,17.27,5.3,34.29,1.82,51.59-1.32,6.55-4.25,12.35-9.69,16.39-17.84,13.27-27.15,31.81-33.22,52.53-5.17,17.68-10.64,35.27-16.07,52.88-.77,2.49-2.02,4.82-2.89,6.87Z"/>
    <path class="cls-1" d="m257.51,116.6c7.45,11.69,17.03,20.9,31.37,20.83,14.22-.06,24-9.09,32.7-21.59.45,8.21,1.39,14.77,1.04,21.26-.63,11.71,2.25,22.03,9.82,31.02.81.96,1.43,2.08,1.96,2.88-10.94.96-21.69,1.9-32.58,2.85,1.13-2.51,2.93-5.76,4.09-9.23,3.11-9.23,6.11-18.51,8.74-27.89.53-1.89-.8-4.3-1.7-6.31-5.4,20.03-11.8,39.25-24.07,57.71-4.49-8.73-9.08-16.19-12.27-24.21-3.92-9.84-6.65-20.14-9.97-30.22-.58-1.76-1.57-3.39-3.14-4.74-.81,17.54,7.56,32.19,14.45,48.31-11.61-5.83-23.21-6.12-35.88-4.39,2.61-3.64,4.74-6.67,6.94-9.66,5.24-7.14,7.21-15.15,6.92-23.94-.24-7.29-.05-14.59-.05-21.89l1.63-.81Z"/>
    <path class="cls-1" d="m211.82,369.58c6.74,7.14,13.58,14.52,20.58,21.74,7.47,7.71,11.12,16.28,11.45,27.55.83,28.91,6.8,56.99,18.03,83.8,4.5,10.75,12.23,18.99,21.02,26.22,3.08,2.54,4.18,5.08,3.85,8.86-.29,3.29-.06,6.63-.06,10.44-4.79.26-9.33.51-14.9.82-2.67-7.71-5.68-15.9-8.35-24.21-5.39-16.75-10.28-33.66-15.98-50.3-4.67-13.62-12.49-25.42-24.26-34.02-9.3-6.8-13.36-16.08-13.58-27-.19-9.78.74-19.58,1.25-29.36.26-5.12.68-10.22.97-14.55Z"/>
    <path class="cls-1" d="m192.54,935.68c-5.56,1.55-6.5-.86-6.95-5.19-2.5-23.62-4.9-47.27-8.22-70.78-1.6-11.29-6.31-22.19-7.51-33.49-1.51-14.32-1.86-28.93-.95-43.3,1.4-22.06,4.3-44.02,6.58-66.02.08-.76.31-1.5.47-2.25.51-.04,1.02-.08,1.54-.11,3.46,24.26,8.6,48.43,10.02,72.81,2.77,47.68,3.47,95.47,5.01,143.22.05,1.64,0,3.27,0,5.12Z"/>
    <path class="cls-1" d="m391.36,936.15h-5.9c0-1.73-.05-3.35,0-4.97,1.67-50.19,2.6-100.43,5.41-150.56,1.12-19.91,6.42-39.58,9.84-59.36.33-1.88.76-3.75,2.1-5.65.56,5.03,1.21,10.05,1.67,15.09,1.53,16.87,3.06,33.75,4.48,50.63,1.86,22.18,1.23,44.12-5.61,65.61-6.39,20.1-8.27,40.96-9.69,61.88-.61,8.93-1.5,17.84-2.31,27.32Z"/>
    <path class="cls-1" d="m533.95,441.75c-.16,0-.42.08-.46.02-9.53-15.74-19.21-31.39-28.53-47.26-11.4-19.42-17.05-40.61-18.61-62.99-.46-6.6-1.38-13.17-2.11-19.97,23.53,9.78,55.32,93.62,49.71,130.19Z"/>
    <path class="cls-1" d="m93.92,311.07c-.73,6.7-1.59,13.04-2.08,19.41-1.53,20.08-6.11,39.35-15.05,57.47-1.54,3.13-3.14,6.25-5.03,9.17-9.08,14-18.27,27.93-26.92,41.12-7.61-30.94,23.71-114.33,49.08-127.17Z"/>
    <path class="cls-1" d="m553.02,448.11c6.77,16.79,14.13,33.32,19.91,50.39,1.93,5.71-.14,12.78-.42,19.23-.27,6.15-.59,12.3-.9,18.45-.07,1.33.23,2.86-.33,3.94-1.15,2.21-2.77,4.17-4.19,6.23-1.3-2.09-3.55-4.11-3.72-6.29-.68-8.61-.45-17.28-1.11-25.89-.25-3.29-1.57-6.69-3.14-9.65-2.8-5.27-5.94-10.41-9.4-15.27-1.22-1.71-3.81-2.44-5.78-3.62-.8,2.02-2.15,4-2.3,6.07-.34,4.63.23,9.34-.17,13.96-.3,3.41-1.25,6.85-2.5,10.05-.62,1.57-2.58,2.62-3.94,3.9-1.14-1.56-2.99-3-3.3-4.71-.96-5.39-1.18-10.9-2-16.32-1.01-6.71-2.02-13.44-3.6-20.03-2.51-10.41.42-17.53,9.92-22.26,5.64-2.81,11.35-5.47,16.99-8.18Z"/>
    <path class="cls-1" d="m25.57,447.92c5.94,3.02,12.07,5.98,18.04,9.23,7.65,4.17,10.5,10.69,9.07,19.17-2.01,11.92-3.8,23.88-5.68,35.82-.1.66.06,1.45-.25,1.96-1.14,1.89-2.43,3.7-3.67,5.54-1.48-1.4-3.96-2.63-4.25-4.24-1.17-6.43-1.67-12.99-2.37-19.5-.28-2.61-.08-5.34-.77-7.82-.89-3.21-3.86-4.1-5.52-1.34-6.36,10.58-16.18,19.55-15.32,33.62.44,7.25-.19,14.6-.82,21.86-.14,1.6-2.31,3.03-3.55,4.53-1.3-1.51-3.23-2.83-3.77-4.57-.81-2.64-.74-5.57-.91-8.38-.47-7.79-1.34-15.6-1.14-23.38.17-6.32.61-13.01,2.78-18.84,5.47-14.71,11.98-29.04,18.12-43.64Z"/>
    <path class="cls-1" d="m346.48,750.08c4.61,6,9.58,11.41,13.33,17.57,13.86,22.77,16.35,46.64,5.63,71.44-.46,1.06-1.1,2.06-1.76,3.01-3.44,4.89-6.95,4.8-9.86-.51-5.75-10.49-8.73-21.89-10.2-33.67-2.28-18.29-1.61-36.51,1.89-54.62.21-1.08.63-2.11.97-3.21Z"/>
    <path class="cls-1" d="m232.23,748.54c3.64,27.08,5.94,53.34-2.52,79.22-1.49,4.56-3.36,9.06-5.67,13.24-1.06,1.92-3.65,4.16-5.51,4.13-1.74-.03-4.1-2.56-5.03-4.53-12.6-26.79-9.02-52.26,6.89-76.48,3.42-5.21,7.54-9.96,11.84-15.58Z"/>
    <path class="cls-1" d="m330.36,55.58c-2.16-6.53-4.3-13.08-6.52-19.59-.53-1.56-1.32-3.05-2.08-4.52-5.53-10.67-7.91-12.31-19.45-9.35-11.66,2.99-22.82.83-34.04-1.43-3.55-.72-5.64.4-7.77,2.83-6.58,7.49-9.9,16.42-11.75,26.03-.17.89-.55,1.75-.99,3.1-4.25-15.99.8-44.56,20.25-47.78,14.02-2.32,28.43-3.19,42.56.6,6.65,1.78,11.33,5.94,14.64,11.93,6.71,12.11,5.47,25.2,5.15,38.18Z"/>
    <path class="cls-1" d="m125.13,378.52c-8.55,14.72-19.94,25.69-33.45,34.47-14.43,9.37-26.7,20.79-35.93,35.38-1.5,2.38-3.02,4.75-4.52,7.11-5.71-2.14-6.78-3.38-3.91-8.52,8.65-15.47,15.96-32.26,27.37-45.44,12.31-14.22,29.61-22.82,50.43-22.99Z"/>
    <path class="cls-1" d="m452.03,378.21c19.4.83,34.11,9.12,47.65,20.06.65.52,1.36,1,1.88,1.64,13.06,15.86,23.61,33.18,30.96,52.56-1.94,1.37-3.53,2.5-5.4,3.83-3.06-4.54-5.98-8.91-8.93-13.27-7.92-11.7-17.7-21.33-29.49-29.34-9.56-6.49-18.27-14.33-26.82-22.16-3.8-3.47-6.28-8.38-9.84-13.32Z"/>
    <path class="cls-2" d="m251.42,349.28c7.06,7.24,15.7,4.9,23.82,5.11,9.4.25,11.52,2.1,11.62,11.38.07,6.97,0,13.95-.15,20.92-.12,5.91-2.1,8.29-7.88,8.82-7.96.73-15.65-1.01-22.52-4.89-2.2-1.24-3.94-4.58-4.5-7.24-2.27-10.92-3.56-21.96-.39-34.1Z"/>
    <path class="cls-1" d="m269.96,605.59c-8.87-53.4-29.97-103.09-44.39-154.65.78-.37,1.55-.75,2.33-1.12,4.31,6.71,9.65,12.98,12.7,20.22,4.88,11.57,8.23,23.78,12.25,35.72,5.71,16.97,10.45,34.36,17.48,50.77,5.98,13.97,5.46,27.31,1.99,41.26-.56,2.25-.96,4.54-1.48,6.81-.06.26-.4.46-.88.99Z"/>
    <path class="cls-2" d="m327.67,350.74c2.26,11.61,1.89,24.12-2.76,36.33-.6,1.57-1.96,3.22-3.41,4.04-7.91,4.47-16.58,4.57-25.11,2.88-2-.4-4.59-4.09-4.75-6.41-.56-8.26-.34-16.59-.11-24.88.16-5.7,2.77-8.08,8.38-8.21,4.48-.1,9.03.4,13.43-.19,4.58-.61,9.04-2.2,14.33-3.56Z"/>
    <path class="cls-1" d="m307.22,606.05c-1.42-7.39-2.42-13.27-3.69-19.09-2-9.08-1.12-17.74,2.76-26.23,9.99-21.84,15.67-45.09,22.14-68.08,4.07-14.44,9.29-28.44,19.72-39.8.52-.56.62-1.51.91-2.28l1.69,1.08c-.57,2.8-.91,5.68-1.75,8.4-8.87,28.51-18.27,56.87-26.6,85.54-5.41,18.61-9.28,37.67-13.86,56.52-.22.9-.59,1.77-1.33,3.93Z"/>
    <path class="cls-2" d="m291.35,328.23c0-4.15-.04-8.3.01-12.44.04-3.42,1.66-5.47,5.26-4.95,8.85,1.27,17.7,2.53,26.49,4.16,5.18.96,8.07,4.24,7.75,9.88-.15,2.64.13,5.31,0,7.96-.43,8.61-5.14,14.49-13.65,15.87-5.67.92-11.56,1.18-17.3.83-7.08-.44-8.83-2.76-9.01-9.85-.1-3.81-.02-7.63-.02-11.45.16,0,.32,0,.47,0Z"/>
    <path class="cls-2" d="m286.8,329.42c0,3.82-.21,7.65.05,11.45.36,5.2-2.3,8.25-6.99,8.46-7.07.31-14.26.21-21.25-.8-5.45-.79-8.76-5.03-10.11-10.48-.16-.64-.27-1.3-.34-1.96-2.01-18.69,1.11-19.93,15.44-22.72,5.69-1.1,11.47-1.76,17.2-2.6,4.01-.59,5.96,1.12,5.91,5.21-.05,4.48-.01,8.96-.01,13.44.03,0,.06,0,.09,0Z"/>
    <path class="cls-1" d="m367.65,435.74c13.44,29.89,20.56,61.86,26.81,94.1-15.13-21.95-29.4-44.18-36.13-70.37-2.65-10.34-.3-18.14,9.31-23.73Z"/>
    <path class="cls-2" d="m286.67,289.99c0,1.99.19,4.01-.03,5.97-.75,6.56-2.97,9.1-9.3,10.57-7.75,1.8-15.55,3.43-23.31,5.19-4.96,1.12-7.64-1.83-9.26-5.65-2.84-6.7-.93-13.41,1.14-19.91.29-.91,2.33-1.51,3.67-1.8,7.93-1.74,15.92-3.27,23.85-5.03,11.12-2.48,13.44-.69,13.25,10.65Z"/>
    <path class="cls-2" d="m291.23,290.41c.14-11.76,2.85-13.7,14.53-10.9,7.74,1.86,15.6,3.25,23.34,5.13,1.36.33,3.22,1.93,3.4,3.15.73,5.08,1.31,10.25,1.18,15.37-.18,7.24-3.62,9.39-10.64,7.77-5.99-1.38-12.07-2.33-18.09-3.58-12.68-2.65-13.88-4.17-13.72-16.93Z"/>
    <path class="cls-1" d="m211.08,434.75c2.93,3.8,5.92,6.65,7.56,10.13,1.38,2.94,2.28,6.9,1.5,9.92-1.99,7.65-4.3,15.4-7.82,22.44-7.94,15.88-16.68,31.37-25.13,47-.19.36-.76.52-2.18,1.44,6.56-31.34,12.57-61.8,26.07-90.93Z"/>
    <path class="cls-1" d="m208.22,337.96c9.93,2.75,19.35,4.86,24.44,14.85,2.54,4.99,6.6,9.19,9.46,14.05,5.61,9.53,7.15,19.83,4.62,30.65-.25,1.09-.89,2.09-1.05,2.46-7.4-8.01-14.97-16.02-22.33-24.21-9.52-10.59-12.33-23.9-15.14-37.8Z"/>
    <path class="cls-1" d="m213.79,296.73c8.32,2.99,16.26,5.45,23.83,8.77,2.6,1.14,4.06,4.65,6.4,6.65,3.2,2.74,1.71,5.39.68,8.38-2.3,6.68-2.34,13.56.58,19.95,3.15,6.9-.07,13.19-.11,20.3-13.04-11.03-28.38-43.99-31.38-64.04Z"/>
    <path class="cls-1" d="m364.42,297.11c-2.08,17.45-18.08,52.48-31.76,64.35.84-7.67-2.36-14.51.84-21.72,2.61-5.89,2.3-12.29.25-18.51-1.65-5,1.82-13.69,6.7-15.62,7.8-3.08,15.8-5.64,23.97-8.5Z"/>
    <path class="cls-1" d="m206,688.42c3.3,6.72,6.64,14.05,10.45,21.12,5.44,10.1-2.75,28.47-13.99,30.85-4.74,1.01-8.29-.6-9.81-5.4-3.9-12.32-3.3-24.55,1.8-36.47.41-.96,1.48-1.67,2.34-2.4,3.34-2.83,6.71-5.62,9.21-7.7Z"/>
    <path class="cls-1" d="m332.34,399.59c-3.94-13.8-.76-26.08,7.12-37.94,7.46-11.22,14.7-22.19,29.99-23.08-3.93,16.13-7.06,33.03-22,44.72-5.61,4.39-9.85,10.52-15.11,16.29Z"/>
    <path class="cls-1" d="m371.52,688.29c3.04,2.53,6.81,5.57,10.44,8.78.93.82,1.57,2.1,2.06,3.28,4.31,10.28,4.85,20.95,2.6,31.71-1.79,8.58-7.5,10.84-15.22,6.49-9.8-5.52-13.81-21.61-8.35-31.57,3.37-6.15,5.84-12.8,8.47-18.68Z"/>
    <path class="cls-1" d="m181.13,255.84c6,6.01,12.99,10.31,12.95,21.08-.07,20.64,5.15,40.75,10.04,60.76.38,1.57.8,3.14.56,5.15-.65-.71-1.42-1.34-1.94-2.14-7.04-10.88-14-21.81-21.07-32.67-3.2-4.91-3.89-10.03-2.48-15.69,2.98-11.97,5.1-24.03,1.93-36.49Z"/>
    <path class="cls-1" d="m397.32,256.8c-3.27,12.25-.31,24.08,1.68,36.03.6,3.61.82,8.19-.87,11.11-7.64,13.15-16.04,25.87-24.16,38.74-.36-.18-.72-.35-1.09-.53,1.79-7.43,4.05-14.78,5.28-22.3,2.44-14.89,4.52-29.85,6.33-44.83.66-5.47,1.64-10.27,6.51-13.66,1.96-1.36,3.36-3.51,5.02-5.3l1.3.73Z"/>
    <path class="cls-1" d="m405.62,933.87c-1.84.15-3.35.22-4.83.4-1.46.18-2.9.48-4.85.81,2.33-34.82,4.68-69.29,16.61-102.44-2.31,33.78-4.62,67.56-6.92,101.23Z"/>
    <path class="cls-1" d="m168.27,749.14c-6.55,40.98-8.2,82.17-4.45,124.76-14.71-42.96-14.73-84.2,4.45-124.76Z"/>
    <path class="cls-1" d="m451.14,254.36c3.89,5.04,8.29,9.77,11.59,15.17,12.37,20.24,18.95,42.34,19.84,66.06.59,15.66,4.2,30.55,10.81,44.73.18.4.12.91.32,2.72-8.32-9.31-15.86-17.74-23.59-26.4,8.88-5.37,8.75-14.14,7.71-22.14-3.62-27.93-11.16-54.65-27.67-78.11-.18-.26-.23-.61-.34-.92.44-.37.88-.74,1.32-1.12Z"/>
    <path class="cls-1" d="m410.98,753.29c18.13,38.47,16.53,77.75,3.87,117.41,2.63-39.25.87-78.33-3.87-117.41Z"/>
    <path class="cls-1" d="m127.23,255.82c-4.74,9.72-10.16,18.7-13.61,28.38-5.16,14.5-9.66,29.32-12.95,44.34-1.45,6.62.39,14.09,1.47,21.06.4,2.56,2.89,4.81,4.72,7.66-6.67,7.63-13.9,15.91-22.02,25.21,2.85-9.22,6.09-16.94,7.53-24.98,2.36-13.22,3.23-26.69,5.32-39.97,3.44-21.87,11.4-41.86,26.25-58.69.91-1.03,2.04-1.87,3.29-3Z"/>
    <path class="cls-1" d="m327.1,142.7c14.07,11.02,32.33,12.88,42.44,28.33-9.55,1.9-19.32,6.5-27.94.28-8.8-6.35-13.41-16.06-14.5-28.61Z"/>
    <path class="cls-1" d="m208.25,170.74c10.67-14.43,27.99-17.74,41.63-26.79,1.62,5.32-3.87,17.68-10.72,24.72-9.78,10.05-20.34,3.48-30.91,2.07Z"/>
    <path class="cls-1" d="m486.29,383.5c-10.27-6.86-22.05-8.69-33.77-10.83-1.52-.28-3.25-2.1-3.97-3.64-2.77-5.96-5.17-12.09-7.5-17.65,7.39,2.26,15.03,4.56,22.64,6.96,1.06.33,2.16.96,2.92,1.76,6.94,7.31,13.8,14.69,20.69,22.04-.34.45-.67.91-1.01,1.36Z"/>
    <path class="cls-1" d="m135.52,352.36c-2.18,5.65-4.33,11.56-6.78,17.35-.54,1.28-2.01,2.87-3.24,3.04-11.77,1.69-23.58,3.11-33.79,10.21-.29-.38-.57-.76-.86-1.14,6.9-7.5,13.79-15.01,20.73-22.47.52-.56,1.38-.93,2.15-1.14,7.26-1.98,14.54-3.91,21.8-5.85Z"/>
    <path class="cls-1" d="m205.61,895.3v-63.21c4.07,6.78,2.67,18.17,14.03,18.01-4.42,15.08-8.83,30.11-13.24,45.14-.26.02-.52.05-.78.07Z"/>
    <path class="cls-1" d="m372.21,897.9c-4.89-16.81-9.35-32.16-13.84-47.6,9.26-.93,10.73-9.36,13.84-16.78v64.38Z"/>
    <path class="cls-1" d="m337.15,285.59c10.04-1.15,19.54-2.23,29.16-3.33,1.73,6.96.5,9.04-7.05,11.56-6.74,2.25-13.4,4.77-20.35,7.26-.6-5.3-1.2-10.5-1.76-15.49Z"/>
    <path class="cls-1" d="m240.96,285.53c-.74,5.13-1.48,10.32-2.25,15.63-7.22-2.76-14.06-5.24-20.8-7.98-7.03-2.87-6.99-2.98-6.19-10.72,9.6,1.01,19.2,2.01,29.24,3.07Z"/>
    <path class="cls-1" d="m539.05,449.62c-.68-12.85-1.34-25.37-2.01-37.89.22-.11.45-.23.67-.34,2.36,5,4.73,9.99,7.06,15,.91,1.96,1.76,3.94,2.56,5.94,4.95,12.32,4.81,12.61-8.28,17.29Z"/>
    <path class="cls-1" d="m39.35,449.1c-.44,0-.79.09-1.08-.01-11.49-3.97-12.03-5.06-7.29-15.93,3.01-6.91,6.19-13.73,10.01-20.35-.54,12.01-1.09,24.01-1.64,36.29Z"/>
    <path class="cls-1" d="m222.21,337.22c-4.25-1.16-8.42-2.12-12.43-3.52-1.05-.37-2.05-2.01-2.34-3.24-1.35-5.8-2.44-11.66-3.63-17.52,7-1.07,9.3.17,11.58,6.15,2.24,5.86,4.42,11.75,6.81,18.13Z"/>
    <path class="cls-1" d="m355.21,338.3c3.22-7.87,5.44-15.06,9.08-21.44,1.63-2.87,6.09-4.13,9.26-6.11.37.3.74.6,1.11.9-1.59,6.77-2.96,13.6-4.95,20.25-.4,1.32-3.11,2.09-4.88,2.84-2.85,1.2-5.79,2.16-9.63,3.57Z"/>
    <path class="cls-1" d="m378.61,292.21c-1.88,6.77.54,16.09-11.11,16.13.26-7.39,2.49-13.67,11.11-16.13Z"/>
    <path class="cls-1" d="m289.35,277.57c-2.61-1.18-5.13-2.31-7.54-3.4,2.55-3.29,5.12-6.61,7.74-9.98,2.16,3.07,4.57,6.51,6.98,9.94-2.46,1.18-4.93,2.36-7.18,3.44Z"/>
    <path class="cls-1" d="m379.56,272.9c-1.86,7.01,1.79,15.43-8.29,17.56-1.5-8.6.4-13.08,8.29-17.56Z"/>
    <path class="cls-1" d="m198.96,273.11c9.66,2.7,7.19,10.8,8.41,17.24-6.85-1.28-8.16-3.96-8.41-17.24Z"/>
    <path class="cls-1" d="m200.83,293.04c7.39,2.24,9.87,7.7,9.7,14.91-8.08-1.2-10.15-4.41-9.7-14.91Z"/>
    <path class="cls-1" d="m283.61,399.17c1.06-.62,2.03-1.13,2.95-1.74.95-.63,1.85-1.34,2.97-2.16,1.43,1.07,2.84,2.13,4.48,3.36-1.6,2.78-3.12,5.43-4.8,8.37-1.87-2.62-3.63-5.08-5.59-7.83Z"/>
    <path class="cls-1" d="m556.99,512.51c1.81,7.43-1.3,11.47-5.71,14.92l-1.39-.68c2.2-4.4,4.4-8.8,7.11-14.23Z"/>
    <path class="cls-1" d="m27.8,526.46c-6.75-2.59-8.08-5.7-6.63-13.02,2.29,4.5,4.46,8.76,6.63,13.02Z"/>
    <path class="cls-1" d="m558.13,538.61c-5.25-2.27-5.23-4.73,0-9.71v9.71Z"/>
    <path class="cls-1" d="m19.73,539.24v-9.98c4.49,3.88,4.52,7.57,0,9.98Z"/>
  </g>
</svg>