<?xml version="1.0" encoding="UTF-8"?>
<svg id="Capa_2" data-name="Capa 2" xmlns="http://www.w3.org/2000/svg" viewBox="0 0 300 428.62">
  <defs>
    <style>
      .cls-1 {
        fill: #1f6bff;
      }
    </style>
  </defs>
  <g id="Capa_1-2" data-name="Capa 1">
    <path class="cls-1" d="m274.42,176.23c-.5-1.14-.74-2.86-3.32-2.46-.72,4.99-1.22,10.16-2.23,15.23-2.41,12.09-4.84,24.25-13.42,33.86-2.36,2.65-4.96,6.77-8.6,5.78-3.23-.88-1.21-5.72-2.41-8.59-.23-.54-.15-1.2-.24-1.79-6.62-42.47-24.56-79.05-56.66-108.13-14.79-13.4-25.02-29.32-29.23-49-3.98-18.56-2.73-36.86,1.98-55.08.47-1.8,2.31-4.04.29-5.56-1.77-1.33-3.83.43-5.64,1.15-5.44,2.17-10.73,4.66-15.68,7.83-32.72,20.9-47.12,51.29-46.01,89.52.43,14.75.53,29.46-2.47,43.98-3.38,16.36-9.01,31.79-19.19,45.31-2.82,3.75-4.71,5.16-7.55-.17-2.63-4.95-5.92-9.66-9.52-13.98-7.75-9.32-17.06-16.56-29.13-19.56-1.34-.33-2.83-.97-3.98.29-1.27,1.38.09,2.59.5,3.87.86,2.68,1.88,5.33,2.47,8.06,2.79,12.94-1.59,24.74-6.28,36.36-8.49,21.03-15.49,42.37-17.37,65.2-2.31,28.06.54,55.27,13,80.82,29.77,61.04,116.29,91.74,180.12,74.91,28.93-7.63,60.25-28.76,78.96-52.14,16.52-20.64,24.77-46.25,26.65-72.41,3.11-43.21-7.61-84.02-25.05-123.27Z"/>
  </g>
</svg>