<?xml version="1.0" encoding="UTF-8"?>
<svg id="Capa_2" data-name="Capa 2" xmlns="http://www.w3.org/2000/svg" viewBox="0 0 567.34 1022.3">
  <defs>
    <style>
      .cls-1 {
        fill: #fff;
      }

      .cls-2 {
        fill: #ff9474;
      }

      .cls-3 {
        fill: #1a1a1a;
      }
    </style>
  </defs>
  <g id="Capa_1-2" data-name="Capa 1">
    <path class="cls-3" d="m295.11,0c10.34,2.3,19.04,7.31,26.38,15.02,10.13,10.65,10.62,23.48,9.07,36.89-.17,1.48-.34,2.99-.74,4.42-.92,3.29-.55,5.54,1.93,8.69,4.74,6.03,4.2,13.59,1.07,20.4-1.76,3.82-4.38,7.51-7.42,10.41-3.8,3.61-5.83,7.4-5.51,12.68.52,8.47.51,16.97,1.23,25.42.16,1.83,2.09,4.11,3.82,5.09,7.53,4.25,15.54,7.67,22.88,12.19,7.76,4.77,14.93,10.5,22.44,15.69,1.53,1.06,3.47,2.28,5.17,2.22,31.98-1.05,61.74,21.49,66.31,56.68,1.4,10.75,3.88,19.3,12.75,27.07,12.36,10.82,18.47,26.22,21.99,42.28,1.96,8.96,5.8,16.09,12.91,22.66,17.48,16.16,27.44,37.27,35.13,59.54,7.8,22.59,15.25,45.29,26.29,66.68,3.53,6.83,3.62,15.39,5.63,23.06,2.98,11.4,6.42,22.69,9.38,34.09,2.26,8.71,1.99,17.44-.88,26.07-1.57,4.72-2.74,9.58-4.27,14.32-2.21,6.82-7.43,10.92-13.54,13.91-4.57,2.24-7.69.06-8.19-4.97-.17-1.69-.72-3.6-1.74-4.9-3.22-4.11-3.26-7.95-.44-12.35,5.36-8.35,6.44-17.59,5.06-27.49-2.75.73-5.27,1.39-7.54,1.99-1.16,5.42-1.77,10.92-3.64,15.96-.95,2.55-3.83,5.27-6.44,6.14-6.52,2.18-10.29-2.02-9.77-8.83.75-9.73.51-19.53,1.05-29.28.32-5.73.55-11.68,2.26-17.07,2.38-7.53,2.33-13.54-2.91-20.29-7.45-9.59-15.96-17.77-25.51-25.12-14.72-11.33-28.36-23.78-37.83-40.05-3-5.15-5.98-10.46-7.93-16.06-5.31-15.26-13.26-28.91-23.24-41.51-7.86-9.93-13.74-20.98-18.04-33.19-5.42,19.96-17.34,35.9-30.02,51.39-.73.9-1.52,1.87-1.85,2.95-1.28,4.21-3.51,8.51-3.34,12.7.72,17.77,2.17,35.52,3.36,53.27.06.83.29,1.66.24,2.48-1.44,22.51,5.09,43.68,11,64.93,5.73,20.61,8.15,41.73,10.16,62.93,1.68,17.72,3.33,35.44,5.23,53.13,2.61,24.32-1.17,48.09-5.6,71.86-2.18,11.71-5.13,23.56-5.05,35.33.1,15.21,3,30.25,9.17,44.6,8.48,19.72,13.96,40.38,12.08,62.08-1.32,15.21-4.55,30.25-6.14,45.45-2.86,27.45-5.51,54.93-7.54,82.45-1.81,24.45,11.98,40.24,31.47,52,4.38,2.64,6.98,5.33,6.44,10.54-.53,5.14-3.89,7.88-8.41,8.55-8.69,1.29-17.48,1.92-26.22,2.82-1.64.17-3.58-.21-4.89.53-7.87,4.45-16.4,3.87-24.87,3.5-8.23-.36-13.24-4.34-13.44-12.46-.21-8.69,1.42-17.41,2.13-26.13.21-2.56.91-5.65-.18-7.64-3.3-6.04-3.92-12.13-2.79-18.77,2.23-13.05.29-25.93-3.03-38.51-6.42-24.41-13.19-48.72-20.07-73.01-1.01-3.58-3.37-6.78-5.16-10.13-6.8-12.69-5.46-25.99-3.31-39.47,2.1-13.12,3.84-26.29,5.53-39.47.26-2.02-.08-4.51-1.08-6.24-9.38-16.18-12.53-34.61-18.94-51.85-6.78-18.25-9.26-37.31-11.96-56.42-2.99-21.2-6.98-42.25-10.5-63.37-.42-2.54-.59-5.12-1.8-7.75-.97,5.94-1.99,11.86-2.89,17.81-2.05,13.62-3.84,27.28-6.11,40.86-3.09,18.47-5.69,37.09-10.09,55.26-4.06,16.75-10.21,32.98-15.46,49.44-.35,1.1-.64,2.31-1.28,3.23-10.45,14.84-7.72,30.92-4.57,47.08,1.33,6.85,2.72,13.71,3.58,20.62,1.6,12.85-.53,24.75-7.36,36.27-4.13,6.96-5.88,15.48-7.96,23.49-5.91,22.83-11.7,45.69-16.95,68.68-1.3,5.69-.67,11.91-.35,17.86.46,8.75,2.45,17.54-2.75,25.75-.8,1.27-.22,3.5-.06,5.27.8,9.06,2.35,18.12,2.31,27.18-.03,8.22-4.51,12.03-12.63,12.46-8.29.44-16.64,1.19-24.36-3.28-1.44-.83-3.54-.58-5.34-.73-8.11-.67-16.24-1.23-24.34-2.02-1.94-.19-3.9-.91-5.69-1.72-7.52-3.42-8.66-10.32-2.03-15.07,11.39-8.15,21.11-17.9,28.79-29.47,2.69-4.06,4.85-9.53,4.67-14.26-.97-25.59-2.13-51.19-4.43-76.69-1.79-19.84-5.7-39.48-8.04-59.28-2.73-23.11,3.37-44.79,11.68-66.11,8.93-22.92,11.84-46.22,5.73-70.72-7.31-29.34-10.53-59.2-6.97-89.55,3.02-25.76,4.6-51.72,8.55-77.32,2.95-19.14,9.03-37.78,12.99-56.8,2.26-10.84,3.33-21.95,4.5-32.99,1.14-10.75,1.78-21.55,2.52-32.34.36-5.31.3-10.65.67-15.95.93-13.39-2.69-24.86-11.57-35.39-10.77-12.77-18.75-27.41-22.77-44.53-.75,1.2-1.39,1.88-1.64,2.69-3.99,12.91-10.79,24.27-19.35,34.61-8.49,10.24-14.14,22.01-18.79,34.32-7.2,19.08-18.44,35.32-34.15,48.37-6.4,5.32-13.5,9.91-19.36,15.75-8.32,8.29-16.16,17.15-23.37,26.41-1.84,2.37-1.61,7.54-.48,10.79,2.96,8.55,3.73,16.93,2.62,25.94-.76,6.14.67,12.55,1.2,18.83.18,2.15.74,4.27.85,6.42.16,3.25-.05,6.41-3.92,7.71-4.05,1.36-8.07,1.12-10.1-2.81-2.24-4.33-3.47-9.2-4.93-13.9-.47-1.52-.28-3.26-.39-4.95-2.92-.77-5.6-1.47-8.68-2.28-.72,9.49-.11,18.37,4.76,26.62,4.25,7.2,4.04,8.07-.9,14.58-.71.94-.97,2.37-1.05,3.6-.39,5.54-3.28,7.46-8.21,4.91-6.02-3.11-10.88-7.32-13.44-14.05-6.37-16.73-7.58-33.32-1.96-50.68,3.97-12.26,6.09-25.12,9.22-37.67.92-3.68,1.95-7.5,3.8-10.76,11.14-19.69,17.69-41.16,24.78-62.43,6.9-20.68,16-40.15,30.59-56.66,1.87-2.12,3.59-4.59,5.91-6.05,7.44-4.7,9.9-12.03,11.59-19.98,2.75-12.95,6.72-25.48,14.99-36.05,4.07-5.2,8.59-10.24,13.73-14.33,3.73-2.96,5.05-5.91,5.11-10.42.2-14.29,3.86-27.74,12.18-39.43,12.67-17.83,30.28-27.06,52.15-27.67,4.39-.12,7.56-1.54,11.2-3.96,10.89-7.28,22.1-14.12,33.57-20.46,13.5-7.46,13.67-7.16,14.22-22.43.1-2.83.27-5.66.25-8.49-.05-7.44-.39-14.06-7.41-19.7-7.44-5.98-9.97-15.13-7.32-24.93.34-1.27.62-2.95,1.54-3.61,4.89-3.56,2.69-8.02,2.19-12.5-.74-6.73-1.96-13.69-1.03-20.28,2.18-15.44,12.75-24.19,26.54-29.68,2.58-1.03,5.16-2.08,7.74-3.12,8.66,0,17.32,0,25.99,0Zm-56.34,40.33c-.4.06-.81.12-1.21.18,3.15,15.42,5.56,31.05,9.79,46.16,1.87,6.67,7.27,12.43,11.49,18.29.9,1.25,4,2.1,5.48,1.54,11.33-4.27,22.77-4.2,34.33-1.56,9.08,2.08,9.19,2.16,14.44-5.81,1.09-1.66,2.11-3.4,2.95-5.19,7.64-16.22,9.68-33.69,11.24-51.24,1.49-16.8-8.07-27.24-21.47-34.5-9.77-5.3-20.91-5.25-31.71-3.81-9.61,1.28-17.99,4.62-25.31,12.24-6.79,7.06-10.83,13.99-10.03,23.68Zm-31.2,467.13c.52.06,1.04.11,1.55.17,0,5.82-.27,11.66.05,17.47.81,14.37,6.95,23.45,18.13,26.23,5.27,1.31,10.86,2.14,16.27,1.98,20.54-.62,34.76-13.72,36.02-30.59,1.12-15.06,1.87-30.24,1.28-45.31-.81-20.87-11.26-36.82-28.58-48.25-1.23-.81-3.52-1.13-4.82-.56-17.11,7.51-30.48,18.85-34.28,38.01-2.67,13.46-3.8,27.23-5.62,40.86Zm77.83-11.23c.53,0,1.06.02,1.6.03,0,8.47-.29,16.95.08,25.41.43,10.02,5.04,17.99,12.96,24.22,11.3,8.88,24.12,8.52,37.09,6.03,11.85-2.27,18.77-10.49,19.99-22.34,1.8-17.62.96-35.07-1.57-52.64-3.25-22.52-14.72-38.33-35.25-47.75-1.45-.67-3.82-1.28-4.87-.58-13.44,8.98-25.07,19.92-28.27,36.38-1.97,10.14-1.25,20.81-1.74,31.24Zm-118.03-211.28c.02-.1-.22.38-.17.82,1.55,14.09,5.84,27.29,13.55,39.2,8.76,13.53,18.11,26.68,26.65,40.34,9.97,15.93,19.65,32.11,21.08,51.59.04.57.59,1.1.88,1.6,3.04-.57,5.84-1.09,8.95-1.68-1.12-1.87-1.93-3.12-2.66-4.42-9.32-16.77-10-33.13,2.27-48.91,2.24-2.89,4.22-5.98,6.41-8.9,9.68-12.87,16.64-27.14,22.12-42.22,1.51-4.15,1.3-7.7-.79-11.8-3.62-7.07-6.39-14.58-9.54-21.9-.63-1.46-1.33-2.88-1.89-4.1-9.74,3.42-18.96,5.8-28.84,3.97-1.72-.32-3.98-.36-5.35.49-7.31,4.57-15.36,6.45-23.75,6.56-9.56.13-19.14-.4-28.94-.66Zm169.32,133.33c3.87-25.81,18.68-50.14,33.9-72.93,7.19-10.76,15.08-21.11,21.45-32.33,4.96-8.72,7.49-18.62,7.52-29.07-.91.1-1.39.14-1.87.21-14.41,2.12-28.96,3.33-42.9-1.63-6.85-2.43-13.13-5.45-20.57-3.21-1.34.4-3.01.05-4.45-.3-5.75-1.39-11.46-2.9-17.1-4.35-4.04,9.05-8.39,18.17-12.1,27.55-.99,2.5-.61,5.97.2,8.67,4.6,15.38,11.44,29.69,20.99,42.71,4.51,6.14,8.68,12.58,12.48,19.19,4.14,7.2,5.18,15.16,2.81,23.15-2.15,7.24-5.02,14.27-7.66,21.65,2.16.21,4.58.44,7.3.71Zm-132.83,396.84c-2.66,10.07-8.03,16.82-16.59,20.52-3.54,1.53-4.7,3.49-4.29,7.12,2.58,22.95,4.24,46.04,7.82,68.83,3.37,21.46,4.19,42.64-.05,63.93-.32,1.59-1.9,2.93-2.89,4.38-.25-1.64-.93-3.34-.69-4.9,2.36-15.33,3.93-30.68,2.1-46.19-.15-1.31-.53-2.59-.8-3.88-1.3,3.25-1,6.58-2.04,9.42-4.45,12.2-9.28,24.26-14.02,36.35-.29.73-1,1.32-1.55,1.93-9.21,10.2-17.19,21.6-29.64,28.54-4.53,2.53-4.23,5.36.1,8.35,1.48,1.03,3.18,2.14,4.9,2.36,8.31,1.08,16.65,1.88,25.26,2.8v-6.5c1.31.79,2.36,1.09,2.86,1.78,6.57,9.12,16.06,9.1,25.7,8.06,6.56-.71,9.01-3.47,9.2-10.19.15-5.13.14-10.37-.74-15.39-1.81-10.28-5.04-20.38-3.35-30.98.31-1.95,1.82-3.7,2.89-5.78,1.27-19.05,1.83-38.84,4.1-58.44,2.3-19.92,8.71-38.78,20.36-55.73-18.63-1.54-19.9-2.7-28.63-26.4Zm157.83,141.91c.89,10.6.44,20.58-1.86,30.56-1.22,5.29-1.79,10.83-1.89,16.27-.21,11.31,1.26,12.96,12.45,14.22,8.59.97,16.71.12,22.13-8.08.74-1.12,2.28-1.7,4.62-3.37-.59,3.33-.88,5-1.31,7.46,8.21-.69,15.97-1.24,23.7-2.06,1.74-.19,3.49-1.12,5.04-2.05,5.19-3.11,5.21-7.35-.25-10.01-13.8-6.72-22.52-18.4-30.53-30.75-1.46-2.26-1.66-5.31-2.59-7.95-.91-2.57-1.5-5.45-3.1-7.53-6.84-8.87-9.97-18.66-8.55-29.84.12-.96.02-1.95.02-2.92-.62-.02-1.23-.04-1.85-.06-.42,9.16-1.43,18.35-1.11,27.49.34,9.44,2.02,18.84,2.96,28.27.1,1.04-.81,2.19-1.25,3.29-.76-.89-1.96-1.68-2.19-2.69-.7-3.07-1.25-6.21-1.47-9.35-.79-11.59-2.68-23.28-1.81-34.76,1.19-15.69,4.97-31.17,6.81-46.84,1.76-15.01,2.53-30.15,3.53-45.24.11-1.68-.63-4.46-1.79-5.01-8.94-4.25-15.71-10.26-18.02-21.9-4.94,16.13-9.9,30.2-30.1,26.45,2.24,3.27,4.22,6.12,6.16,8.99,11.07,16.45,13.72,35.66,16.21,54.47,2.26,17.06,1.6,34.51,2.23,51.78.03.8.12,1.59.19,2.46,1.24-.45,2.22-.81,3.62-1.31ZM198.7,169.22c7.58,3.5,13.39,6.28,19.3,8.81,1.16.5,2.82.34,4.11-.03,19.99-5.71,39.94-6.08,59.93.03,1.12.34,2.55.28,3.67-.1,19.65-6.62,39.29-4.87,58.95-.13,1.37.33,3.04,1,4.16.53,6.17-2.58,12.21-5.46,18.63-8.4-7.72-7.83-16.65-13.43-26.26-18.12-6.86-3.35-13.9-6.49-20.31-10.58-10.46-6.66-18.02-15.65-19.76-28.59-.19-1.38-1.82-3.31-3.15-3.68-9.31-2.58-18.76-2.96-28.01.11-1.74.58-3.65,2.9-4.09,4.74-2.56,10.87-8.07,19.85-17.34,25.9-7.9,5.15-16.6,9.07-24.75,13.86-8.23,4.84-16.22,10.09-25.08,15.64Zm40.97,572.86c2.1-4.15,3.84-6.92,4.94-9.92,2.58-7.01,5.02-14.08,7.22-21.21,8.27-26.8,17.47-53.28,13.64-82.31-2.8-21.23-3.65-42.71-5.46-64.08-.27-3.19-1.03-6.34-1.46-8.93-7.97.82-15.02,1.55-21.37,2.2-15.85,61.19-10.53,121.95,2.48,184.24Zm87.12-.34c.39-.05.77-.11,1.16-.16,1.63-10.14,3.51-20.25,4.84-30.43,4.2-32.13,9.8-64.23,5.43-96.82-2.43-18.12-5.28-36.18-8.13-54.23-.17-1.06-1.98-2.52-3.15-2.64-6.24-.68-12.51-.98-19.6-1.48-.43,3.38-1.05,7.07-1.36,10.79-1.6,19.06-2.93,38.14-4.74,57.18-1.5,15.67-2.18,31.36,2.09,46.6,5.51,19.66,11.86,39.09,18.04,58.55,1.38,4.35,3.6,8.43,5.43,12.64Zm57.31-8.99c-.64-12.75-1.52-25.32-1.85-37.9-.75-28.58-.52-57.21-6.05-85.45-2.76-14.08-6.43-27.85-13.36-40.52-6.22-11.37-18.34-16.19-29.26-11.44.65,4.44,1.2,9.04,2,13.6,4.68,26.34,9.84,52.61,8.15,79.64-.24,3.8,1.25,7.8,2.39,11.57,2.51,8.25,5.56,16.34,7.96,24.62,5.36,18.5,17.16,32.65,30.02,45.88Zm-201.57.93c3.15-3.74,6.12-7.45,9.28-10.99,7.14-8.02,13.12-16.77,16.76-26.93,4.8-13.42,9.57-26.86,13.98-40.42.99-3.04.6-6.57.6-9.88,0-6.64-.93-13.38-.12-19.91,2.56-20.59,5.72-41.11,8.72-61.65,1.07-7.33.28-8.62-7.23-8.39-3.02.09-6.25,1.09-8.94,2.51-6.22,3.26-10.51,8.54-13.6,14.82-8.79,17.86-13.31,37.03-14.63,56.6-2.35,34.59-3.27,69.28-4.8,104.24Zm-57.31-493.65c14.52-2.73,27.68-5.06,40.78-7.7,25.47-5.13,46.73-19.33,68.67-32.07.1-.06.09-.3.13-.46-10.23-15.98-31.43-28.61-49.03-26.78-23.27,2.42-42.61,12.67-52.07,35.44-4.19,10.09-5.8,21.25-8.49,31.57Zm206.04-39.74c18.56,10.86,36.15,21.55,55.59,28.66,4.02,1.47,8.32,2.27,12.54,3.1,12.49,2.47,25.55,2.33,37.33,8.11.91.45,1.99.56,4.29,1.19-2.51-10.66-3.87-20.63-7.22-29.88-8.56-23.62-27.38-35.73-51.07-38.02-21.43-2.07-37.86,9.64-51.45,26.85Zm-107.09-19.63c.02.61.03,1.21.05,1.82,1.66,1.36,3.29,2.75,4.98,4.07,8.12,6.34,13.14,13.99,13.21,24.92.13,22.35,7.23,43.11,16.19,63.25,6.74,15.15,13.97,30.08,20.98,45.1.36.77.73,1.53,1.32,2.74.32-.97.52-1.28.52-1.59-.16-44.42-.41-88.83-.39-133.25,0-5.4-2.26-7.73-7.11-8.03-9.93-.63-19.88-1.46-29.82-1.39-6.65.05-13.29,1.52-19.94,2.35Zm47.08,131.32c-5.55,15.48-12.13,28.66-20.81,40.75-3.88,5.4-7.88,10.73-11.56,16.26-4.52,6.8-7.23,14.13-6.12,22.57,1.95,14.79,9.32,26,21.65,34.24,10.41,6.95,18.75,15.89,24.9,26.84.48.86,1.16,1.61,2.52,3.48,0-2.83,0-4.27,0-5.72-.14-35.95-.73-71.91-.17-107.85.18-11.57-5.7-19.93-10.41-30.56Zm73.21-130.88c-18.49-3.48-35.94-4.88-53.49-.68-3.5.84-5.14,2.03-5.13,6.16.12,37.46-.03,74.92-.1,112.38-.01,7.85,0,15.71,0,23.84.55-.52,1.03-.78,1.21-1.18,6.33-13.9,12.78-27.75,18.92-41.74,9.35-21.32,19.27-42.52,18.61-66.64-.33-12.22,4.94-21.38,15.03-28.01,1.48-.97,2.74-2.27,4.95-4.13Zm-48.28,130.23c-3.58,6.96-6.7,12.8-9.57,18.77-.89,1.85-1.53,4.05-1.51,6.08.26,36.61.63,73.21.97,109.81.02,2.36,0,4.72,0,7.78,5.31-6.64,9.41-12.74,14.5-17.86,5.72-5.76,12.34-10.62,18.55-15.89,16.03-13.6,19.32-34.88,7.92-52.26-3.83-5.84-8.14-11.35-12.04-17.14-8.01-11.87-14.49-24.52-18.82-39.3Zm-180.94,41.99c1.68-.94,2.24-1.22,2.77-1.56,22.55-14.48,37.45-34.41,43.47-60.73,1.12-4.89,2.16-9.54-1.49-14.06-1.48-1.84-2.02-4.52-2.7-6.9-2.99-10.58-2.67-21.25-.17-32.32-22.32,1.76-41.26,9.19-51.85,29.57-5.67,10.91-8.81,23.14-13.01,34.81-.95,2.64-1.52,5.41-1.97,7.02,11.65-11.88,23.73-24.21,36.72-37.46,8.16,29.7-4.58,54.64-11.78,81.64Zm293.97-115.62c.47,2.1.88,3.83,1.23,5.56,2.41,11.97.76,23.37-4.3,34.48-1.33,2.93-2.17,6.65-1.68,9.76,3.36,21.46,14.88,38.54,30.16,53.25,4.32,4.16,9.81,7.1,14.76,10.6.33-.31.67-.62,1-.92-3.72-12.64-7.73-25.2-11.07-37.94-3.45-13.13-3.42-26.36.82-41.19,12.75,13.31,24.61,25.69,36.21,37.8-.34.7-.04.38-.1.16-4.09-15.76-8.12-31.49-17.21-45.41-11.72-17.96-29.19-24.51-49.82-26.16Zm-246.87,570.08c.82,5.56,1.28,11.2,2.56,16.66,1.36,5.81,5.69,8.81,11.61,9.07,11.99.53,21.78-8.24,24.52-22.39,2.47-12.7,5.09-25.41,6.71-38.23,1.29-10.16,1.51-20.49,1.56-30.75.02-5.56-2.57-10.55-8.22-12.56-6-2.13-10.62.82-14.43,5.29-1.18,1.39-2.44,2.78-3.29,4.37-11.5,21.41-20.33,43.63-21.01,68.54Zm242.01-4.2c-1.62-24.07-10.15-45.68-21.97-66.19-1.06-1.83-2.55-3.53-4.16-4.91-6.94-5.97-16.36-3.74-19.31,4.92-1.35,3.97-2.12,8.57-1.59,12.68,2.62,20.23,5.66,40.4,8.77,60.56,1.53,9.89,6.94,17.07,16.25,21.12,9.56,4.16,17.46.72,19.89-9.44,1.45-6.07,1.46-12.47,2.12-18.73Zm-80.13,8.37c.77,5.24.93,9.96,2.21,14.36,2.62,8.98,8.66,12.41,17.57,10.03,7.2-1.92,10.35-8.01,12.61-14.38,2.95-8.32,2.9-16.94,1.77-25.63-1.82-14-3.35-28.04-5.27-42.03-.69-5.02-4.09-8.56-8.82-9.89-4.51-1.27-7.13,2.37-8.92,5.72-1.66,3.09-2.68,6.62-3.45,10.07-.83,3.71-.94,7.58-1.51,11.36-2.06,13.62-4.17,27.23-6.19,40.37Zm-117.03-4.02c1.57,5.46,3.12,12.91,5.89,19.87,2.21,5.53,6.49,9.78,13.26,9.59,7.54-.2,12.54-4.69,13.8-11.5,1.48-8.02,2.17-16.47,1.38-24.55-1.21-12.34-4.39-24.49-5.86-36.82-.57-4.77-1.26-9.11-3.99-13.01-2.34-3.33-4.16-7.6-9.4-6.8-5.13.78-6.59,5.05-8.13,9.13-.35.93-.63,1.91-.75,2.89-1.99,16.31-3.95,32.63-6.19,51.19Zm-19.67-526.43c.05.31.11.63.16.94,9.12-1.57,18.29-2.91,27.33-4.82,3.57-.76,6.31-3.11,5.14-7.64-2.37-9.17-5.89-17.6-13.8-23.57-5.7-4.3-11.15-8.95-16.93-13.13-1.25-.9-3.56-.95-5.21-.59-6.11,1.31-12.21,2.78-18.2,4.57-1.69.51-3.92,2.04-4.34,3.54-2.79,9.98-2.68,19.9.96,29.81,2.63,7.16,7.1,10.88,14.92,10.45,3.3-.18,6.64.27,9.96.44Zm192.03.33c.03-.33.06-.66.1-1,4,0,8-.12,11.99.03,5.09.19,8.51-1.97,10.71-6.54,5.04-10.48,5.95-21.29,3.11-32.52-.82-3.25-2.67-4.37-5.92-4.87-6.04-.93-11.96-2.61-17.96-3.76-1.41-.27-3.34-.17-4.42.61-6.06,4.4-12.02,8.94-17.83,13.66-5.7,4.64-9.44,10.6-11.34,17.78-2.25,8.49-1.16,11.43,7.43,13.36,7.89,1.77,16.08,2.22,24.14,3.25Zm-199.54,400.19c.74-1.22,1.01-1.47,1.03-1.73,1.1-21.23,1.28-42.57,3.53-63.68,2-18.73,7.39-36.79,18.16-52.81,1.76-2.62,3.3-6.08,3.24-9.11-.3-16.7-1.13-33.38-1.8-50.61-10.56,12.4-27.55,69.27-30.93,102.18-2.62,25.44,1.8,50.16,6.78,75.76Zm183.1-176.33c-.24,3.3-.52,6.6-.73,9.91-.79,12.26-1.77,24.52-2.17,36.8-.1,3.09.98,6.73,2.74,9.29,7.16,10.44,11.81,21.91,14.91,34.04,6.46,25.3,8.15,51.13,8.06,77.13,0,1.51,0,3.02,0,4.52.45,0,.9,0,1.35,0,4.08-23.6,8.65-47.04,6.07-71.39-3.75-35.39-14.38-68.58-30.23-100.3Zm179.36,46.18c1.02.32,1.32.5,1.62.49.31,0,.66-.12.93-.29,6.74-4.13,11.36-9.51,13.48-17.57,3.41-12.96,6.81-25.51,1.81-38.98-3.68-9.92-6.06-20.33-8.97-30.53-.56-1.96-.9-3.99-1.41-6.32-8.4,3.42-16.09,6.48-23.72,9.72-1.11.47-2.39,1.57-2.74,2.66-1.42,4.39-3.29,8.84-3.57,13.36-.79,12.74-.85,25.52-1.27,38.28-.12,3.77,1.85,4.35,4.74,3.18,1.11-.45,2.37-1.56,2.74-2.65,2.17-6.41,5.96-12.88.33-19.47-.3-.35-.04-1.19-.04-1.82,4.27.3,8.24.57,13.35.93-4.76-8.99-8.55-16.46-7.79-25.47,1.41.69,2.78,1.63,2.98,2.77,1.43,8.11,5.63,14.69,10.41,21.22,8.43,11.5,13.41,23.83,5.26,37.75-1.84,3.14-4.03,6.08-6.02,9.14-.73,1.12-1.36,2.3-2.12,3.61Zm-520.04.64l1.18-.98c-1.25-1.81-2.57-3.57-3.73-5.43-7.78-12.49-11.95-24.93-2.43-38.82,5.85-8.53,12.79-16.76,14-27.79.09-.86,1.96-1.52,3-2.28.61.45,1.22.91,1.84,1.36-2.81,7.63-5.63,15.26-8.73,23.67h14.11c-1.91,2.75-4.48,4.79-4.21,6.34.92,5.31,2.57,10.54,4.55,15.57.47,1.2,3.29,1.47,5.03,2.17.4-1.65,1.24-3.32,1.14-4.94-.46-6.95-1.41-13.88-1.77-20.83-.29-5.64.33-11.34-.05-16.97-.54-8.01-2.36-15.21-11.77-17.85-6.1-1.71-11.87-4.6-17.48-6.84-3.11,11.27-5.28,22.09-9.11,32.3-6.31,16.82-4.31,32.85,2.01,48.97,2.41,6.16,7.73,8.86,12.44,12.37Zm103-270.31c-.58-.26-1.15-.53-1.73-.79-8.04,8.01-16.59,15.59-23.95,24.18-4.88,5.7-8.39,12.68-11.87,19.42-3.1,6-2.26,12.32,1.15,18.09,3.01,5.09,7.89,7.69,13.64,7.85,5.11.14,7.25-4.16,9.23-8,6.98-13.58,10.94-28.06,12.46-43.21.58-5.82.73-11.69,1.07-17.53Zm360.6,72.05c-.29.16-.59.32-.88.48.91,3.45,1.8,6.92,2.74,10.36,6.98,25.46,17.87,48.93,35.14,69.18,5.5,6.45,11.13,12.82,16.09,19.67,2.53,3.5,4.58,2.56,7.53,1.35,3.48-1.42,2.68-3.59,1.6-6.04-.94-2.13-1.7-4.34-2.79-6.39-14.71-27.82-31.17-54.52-51.26-78.85-2.7-3.27-5.44-6.51-8.16-9.77Zm-43.88-72.96c-1.77,10.76-.11,20.73,1.89,30.65,2.36,11.76,5.64,23.22,12.44,33.31,3.69,5.47,6.55,6.16,12.74,3.68,7.17-2.87,11.52-8.56,10.77-16.13-.51-5.12-1.98-10.47-4.36-15.02-7.79-14.84-20.64-25.28-33.47-36.5Zm-360.72,72.49c-18.86,18.89-62.81,87.78-63.97,99.89,6.98,4.15,6.93,4.11,11.75-2.16,2.53-3.29,4.95-6.76,7.94-9.59,9.43-8.92,16.22-19.65,22.6-30.82,10.11-17.71,17.51-36.37,21.67-57.32Zm445.2,109.49c-1.79-15.11-8-28.43-17.84-39.7-12.45-14.26-25.35-28.19-38.84-41.47-6.69-6.58-15.13-11.39-22.78-17-.41.43-.81.86-1.22,1.29.53,1.68.99,3.4,1.61,5.04,8.27,21.94,23.46,38.41,41.79,52.27,14.65,11.08,28.16,23.13,37.29,39.57Zm-405.43-95.07c-.46-.35-.93-.7-1.39-1.04-8.93,4.39-17.59,9.14-24.36,16.78-9.16,10.34-17.74,21.33-27.88,30.61-9.45,8.64-16.85,18.39-22.3,29.67-2.67,5.52-3.99,11.69-5.93,17.57.55.29,1.11.59,1.66.88,10.59-21.61,30.69-33.59,47.69-48.82,8.93-8,16.34-17.88,23.55-27.57,3.95-5.31,6.03-12,8.96-18.07Zm116.4-163.07c-15.89,8.21-30.96,16-46.45,24.01,14.11,11.07,30.07,19.67,33.04,39.43,8.25-20.53,15.57-40.69,13.42-63.44Zm91.69.17c-2.12,22.48,4.59,42.26,13.64,63.12,3.26-20.34,19.28-28.14,32.28-39.04-15.16-7.95-30.21-15.84-45.91-24.08Zm-243.63,111.63c-28.09,23.14-38.53,55.49-47.66,88.54,4.83-7.12,9.04-14.65,14.12-21.53,9.28-12.57,19.12-24.72,28.61-37.13,1.2-1.57,2.74-4.12,2.23-5.52-2.69-7.33-1.26-14.03,1.85-20.73.51-1.1.57-2.41.85-3.62Zm396.58-.47c-.42.2-.83.39-1.25.59.5,1.5,1.29,2.98,1.46,4.51.64,5.84,1.9,11.79,1.32,17.54-.37,3.71-.03,6.11,2.44,8.72,14.44,15.27,27.05,31.94,38.06,49.83,1.26,2.05,2.48,4.13,3.72,6.2-8.57-32.78-19.48-64.25-45.75-87.39Zm-119.87,50.19c-.33-.26-.66-.53-.99-.79-5.61,12.25-11.43,24.41-16.69,36.8-1.71,4.02-2.08,8.66-2.71,13.06-.17,1.2.54,3.19,1.49,3.77,7.53,4.61,15.22,8.97,23.52,13.79-1.54-22.16-3.08-44.4-4.62-66.64Zm-1.32,123.23c6.1-10.08,9.16-29.47,6.43-40.9-.97-4.05-2.57-8.5-5.3-11.49-9.25-10.16-20.95-15.61-34.95-15.28-1.81.04-3.61.69-5.41,1.06-.33.47-.66.95-.99,1.42,29,12.28,39.6,35.71,40.21,65.19Zm-115.64-65.32c-.41-.57-.83-1.14-1.24-1.71-1.74-.18-3.48-.45-5.23-.53-13.69-.61-25.06,4.56-34.06,14.59-2.64,2.94-4.76,6.89-5.7,10.72-2.9,11.81-.34,23.41,2.7,34.87.67,2.54,1.61,5.01,2.42,7.51l1.68.34c-.59-30.11,10.62-53.19,39.42-65.79Zm-45.64,10.76c6.33-7.42,13.23-11.77,21.09-14.89,1.52-.6,2.92-2.94,3.28-4.71.44-2.17,0-4.64-.52-6.88-3.33-14.3-11.03-26.61-18.15-39.17-.59-1.03-1.38-1.94-1.66-2.34-1.31,22.08-2.63,44.39-4.03,67.98Zm189.96,512.77c2.27-35.79,4.58-71.5,11.09-106.8-2.29,4.09-4.62,8.11-6.23,12.4-3.37,8.96-7.11,17.89-9.31,27.17-2.45,10.3-3.36,20.96-4.93,31.47-.12.82-.37,2.28-.13,2.38,5.46,2.24,2.39,6.8,2.45,10.11.16,8.48,2.05,16.23,7.06,23.28Zm-119.95-320.25c.47-.01.95-.03,1.42-.04,1.48-30.88,11.43-60.88,9.15-91.33-3.45,3.9-6.58,9.12-11.17,12.19-4.91,3.28-5.88,6.4-5.32,11.99,1.82,18.03,2.82,36.14,4.24,54.21.34,4.34,1.1,8.66,1.67,12.98Zm16.51-89.77c-.63,29.7,5.72,59.26,9.96,89.07.76-.53.97-.99,1.01-1.47,1.86-23.54,3.71-47.08,5.48-70.62.07-.97-.37-2.3-1.06-2.94-5.09-4.78-10.31-9.44-15.39-14.04Zm-108.95,410.18c5.98-15.91,10.38-32.16,7.11-49.8-3.19-17.23-4.72-34.88-15.73-49.27,2.86,32.86,5.74,65.97,8.62,99.07ZM67.35,408.06c15.33-15.96,29.11-32.96,41.57-52.89-8.99,1.34-15.82-.46-22.03-5.99-5.36,20.54-9.93,40.51-19.53,58.88Zm111.29,144.79c.92-.65,1.31-.77,1.4-1,6.65-17.16,13.28-34.32,19.88-51.49.41-1.07.99-2.32.79-3.35-1.94-9.76-4.03-19.49-6.07-29.23-9.87,27.46-13.94,55.74-15.99,85.07Zm318.98-146.04c-6.37-19.1-12.77-38.3-18.72-56.14-6.24,1.71-12.57,3.44-19.33,5.28,10.21,18.63,23.78,35.37,38.05,50.86Zm-110.43,146.71c-1.43-29.1-5.37-57.61-15.14-85.91-2.18,9.15-4.35,17.38-6,25.72-.48,2.43.01,5.33.9,7.7,6.17,16.43,12.56,32.77,18.88,49.14.43,1.12.9,2.24,1.36,3.35Zm-151.25,195.45c-4.36-27.76-8.66-55.16-12.94-82.38-10.97,21.31-3.85,68.31,12.94,82.38Zm95.02-1.05c7.3-6.97,12.44-13.72,14.22-22.53,3.13-15.44,3.21-31.03,1.8-46.62-.34-3.76-2.03-7.39-3.3-11.73-4.28,27.19-8.41,53.47-12.73,80.88Zm-134.62-22.71c13.7.07,16.67,9.41,17,20.68,3.41-2.5,6.27-4.6,9.52-6.98-8.29-13.58-6.68-29.49-8.45-44.13-5.98,10.07-11.94,20.1-18.08,30.43Zm56.05-453.76c-4.24-13.38-8.2-25.86-11.77-37.1-4.07,12.71-8.51,26.56-13.27,41.4,8.22-1.41,16.57-2.84,25.04-4.3Zm117.57,453.63c-6.23-10.32-12.18-20.18-18.33-30.35-.98,14.95-.26,30-7.47,43.52,3.13,1.7,5.98,3.24,9.18,4.98,1.06-10.2,5.42-17.44,16.62-18.15Zm-30.4-449.45c-4.69-14.13-9.02-27.19-13-39.16-3.77,10.6-7.99,22.46-12.53,35.22,8.89,1.37,17.39,2.69,25.53,3.95Zm-89.17-143.37c6.55-6.07,9.8-12.78,11.87-19.42-4.24-3.64-7.93-6.8-11.87-10.19v29.61Zm64.96.52c.4-.34.8-.68,1.2-1.02v-29.17c-4.1,3.6-7.88,6.91-12.73,11.17,3.54,5.85,7.54,12.43,11.53,19.02Zm122.93,217.64c4.39,11.21,15.2,13.24,23.68,18.24-2.85-4.72-5.69-9.44-8.64-14.32-6.65,4.94-9.58-2.75-15.04-3.92Zm-324.85,5.06c-2.82,4.75-5.39,9.07-7.96,13.38,8.76-4.49,18.94-7.08,23.37-18.5-5.53,2.58-8.57,9.21-15.41,5.12Zm64.83,482.91c-3.33-.28-6.3-.54-9.91-.84,4.14,8.37,7.98,16.12,11.82,23.88.26-.07.52-.13.77-.2-.88-7.47-1.76-14.94-2.68-22.84ZM244.33,93.79c-2.02-9.77-3.88-18.81-5.83-28.22-6.42,7.59-3.93,19.7,5.83,28.22ZM20.1,513.57c-6.73,8.96-1.94,25.65,8.8,26.83-5.64-8.6-9.32-17.11-8.8-26.83Zm366.17,344.97c.26.1.52.19.78.29,3.44-7.2,6.88-14.39,10.57-22.09-2.86.39-4.52.92-6.12.77-3.03-.28-4.15.94-4.26,3.87-.21,5.72-.63,11.44-.96,17.16Zm-58.16-792.58c-2.17,9.75-4.21,18.95-6.33,28.52,9.33-7.65,12.11-19.61,6.33-28.52Zm210.99,474.59c9.37-2.35,14.12-17.81,8.57-24.33-2.72,7.72-5.58,15.84-8.57,24.33Zm-198.59,319.66c-.38.15-.76.3-1.14.45,3.77,14.41,7.53,28.82,11.3,43.23.39-.1.78-.21,1.18-.31-3.09-14.63-5.32-29.49-11.33-43.37Zm-112.81,1.14c-.64-.18-1.29-.36-1.93-.54-3.79,14.57-7.57,29.15-11.36,43.72l1.69.45c3.86-14.55,7.73-29.09,11.59-43.64ZM39.78,446.09c-.24-.15-.48-.3-.72-.44-3.08,4.25-6.16,8.49-9.53,13.12,2.3,1.13,3.96,1.94,5.65,2.76,1.64-5.53,3.12-10.48,4.59-15.44Zm497.57,12.29c-3.49-4.61-6.55-8.64-9.61-12.68-.21.12-.41.24-.62.36,1.42,5.11,2.84,10.23,4.34,15.65,2.12-1.2,3.82-2.17,5.88-3.34Zm-326.87,97.76c2.69-1.54,4.92-2.83,7.42-4.27-2.42-2.04-4.59-3.87-7.42-6.26v10.53Zm137.87-4.26c2.84,1.3,5.18,2.38,7.44,3.41v-9.87c-2.78,2.41-4.85,4.21-7.44,6.46Z"/>
    <path class="cls-1" d="m238.77,40.33c-.8-9.69,3.24-16.62,10.03-23.68,7.32-7.61,15.7-10.96,25.31-12.24,10.8-1.44,21.94-1.49,31.71,3.81,13.39,7.26,22.96,17.7,21.47,34.5-1.56,17.55-3.6,35.02-11.24,51.24-.85,1.8-1.86,3.53-2.95,5.19-5.26,7.97-5.36,7.89-14.44,5.81-11.55-2.65-23-2.71-34.33,1.56-1.48.56-4.59-.29-5.48-1.54-4.22-5.87-9.62-11.62-11.49-18.29-4.24-15.12-6.64-30.74-9.79-46.16.4-.06.81-.12,1.21-.18Z"/>
    <path class="cls-1" d="m207.57,507.46c1.82-13.63,2.95-27.4,5.62-40.86,3.8-19.16,17.17-30.5,34.28-38.01,1.3-.57,3.59-.25,4.82.56,17.32,11.43,27.77,27.38,28.58,48.25.58,15.07-.16,30.25-1.28,45.31-1.26,16.88-15.47,29.98-36.02,30.59-5.41.16-10.99-.67-16.27-1.98-11.19-2.78-17.33-11.86-18.13-26.23-.33-5.8-.05-11.64-.05-17.47-.52-.06-1.04-.11-1.55-.17Z"/>
    <path class="cls-1" d="m285.4,496.23c.49-10.43-.23-21.1,1.74-31.24,3.2-16.46,14.84-27.4,28.27-36.38,1.05-.7,3.42-.09,4.87.58,20.52,9.42,32,25.23,35.25,47.75,2.53,17.57,3.38,35.02,1.57,52.64-1.21,11.85-8.13,20.07-19.99,22.34-12.97,2.49-25.79,2.85-37.09-6.03-7.92-6.23-12.53-14.2-12.96-24.22-.37-8.45-.08-16.94-.08-25.41-.53,0-1.06-.02-1.6-.03Z"/>
    <path class="cls-1" d="m167.36,284.95c9.8.25,19.38.78,28.94.66,8.39-.11,16.44-1.99,23.75-6.56,1.37-.86,3.63-.81,5.35-.49,9.88,1.83,19.11-.56,28.84-3.97.56,1.22,1.27,2.64,1.89,4.1,3.14,7.32,5.92,14.82,9.54,21.9,2.09,4.09,2.3,7.64.79,11.8-5.48,15.08-12.43,29.35-22.12,42.22-2.2,2.92-4.17,6.02-6.41,8.9-12.27,15.79-11.59,32.15-2.27,48.91.72,1.3,1.53,2.56,2.66,4.42-3.1.58-5.91,1.11-8.95,1.68-.29-.5-.84-1.03-.88-1.6-1.43-19.48-11.11-35.66-21.08-51.59-8.55-13.66-17.9-26.81-26.65-40.34-7.71-11.92-12-25.11-13.55-39.2-.05-.45.19-.92.17-.82Z"/>
    <path class="cls-1" d="m336.68,418.28c-2.73-.26-5.14-.5-7.3-.71,2.64-7.37,5.52-14.4,7.66-21.65,2.37-7.98,1.33-15.95-2.81-23.15-3.8-6.61-7.97-13.04-12.48-19.19-9.55-13.02-16.38-27.33-20.99-42.71-.81-2.71-1.19-6.17-.2-8.67,3.71-9.38,8.06-18.5,12.1-27.55,5.64,1.45,11.36,2.97,17.1,4.35,1.44.35,3.11.7,4.45.3,7.45-2.24,13.73.78,20.57,3.21,13.95,4.96,28.49,3.75,42.9,1.63.48-.07.96-.11,1.87-.21-.03,10.45-2.57,20.36-7.52,29.07-6.37,11.22-14.27,21.57-21.45,32.33-15.22,22.79-30.04,47.13-33.9,72.93Z"/>
    <path class="cls-1" d="m203.85,815.12c8.73,23.7,10.01,24.86,28.63,26.4-11.65,16.96-18.05,35.81-20.36,55.73-2.26,19.59-2.83,39.39-4.1,58.44-1.08,2.08-2.58,3.84-2.89,5.78-1.69,10.6,1.54,20.71,3.35,30.98.89,5.02.89,10.26.74,15.39-.19,6.72-2.64,9.48-9.2,10.19-9.64,1.04-19.13,1.07-25.7-8.06-.5-.69-1.55-.99-2.86-1.78v6.5c-8.6-.92-16.95-1.72-25.26-2.8-1.71-.22-3.41-1.34-4.9-2.36-4.33-2.99-4.63-5.83-.1-8.35,12.45-6.95,20.43-18.34,29.64-28.54.56-.62,1.26-1.2,1.55-1.93,4.74-12.09,9.57-24.15,14.02-36.35,1.04-2.84.74-6.17,2.04-9.42.27,1.29.64,2.58.8,3.88,1.83,15.51.25,30.86-2.1,46.19-.24,1.56.44,3.26.69,4.9.99-1.46,2.58-2.79,2.89-4.38,4.25-21.3,3.43-42.47.05-63.93-3.58-22.79-5.24-45.88-7.82-68.83-.41-3.63.75-5.59,4.29-7.12,8.56-3.7,13.93-10.45,16.59-20.52Z"/>
    <path class="cls-1" d="m361.68,957.03c-1.39.5-2.37.86-3.62,1.31-.07-.86-.16-1.66-.19-2.46-.63-17.28.02-34.72-2.23-51.78-2.49-18.8-5.14-38.01-16.21-54.47-1.94-2.88-3.92-5.72-6.16-8.99,20.2,3.75,25.16-10.32,30.1-26.45,2.31,11.64,9.08,17.64,18.02,21.9,1.16.55,1.9,3.33,1.79,5.01-1,15.1-1.77,30.23-3.53,45.24-1.84,15.67-5.62,31.15-6.81,46.84-.87,11.48,1.02,23.17,1.81,34.76.21,3.14.76,6.28,1.47,9.35.23,1.01,1.43,1.8,2.19,2.69.44-1.1,1.35-2.24,1.25-3.29-.94-9.43-2.63-18.82-2.96-28.27-.33-9.14.68-18.32,1.11-27.49.62.02,1.23.04,1.85.06,0,.97.11,1.96-.02,2.92-1.43,11.18,1.71,20.97,8.55,29.84,1.6,2.08,2.2,4.96,3.1,7.53.93,2.64,1.13,5.69,2.59,7.95,8.01,12.35,16.73,24.03,30.53,30.75,5.46,2.66,5.44,6.9.25,10.01-1.55.93-3.3,1.86-5.04,2.05-7.73.82-15.49,1.37-23.7,2.06.43-2.45.73-4.13,1.31-7.46-2.34,1.66-3.88,2.25-4.62,3.37-5.42,8.19-13.54,9.05-22.13,8.08-11.18-1.26-12.66-2.91-12.45-14.22.1-5.44.67-10.97,1.89-16.27,2.3-9.98,2.75-19.96,1.86-30.56Z"/>
    <path class="cls-1" d="m198.7,169.22c8.86-5.55,16.85-10.8,25.08-15.64,8.15-4.79,16.84-8.71,24.75-13.86,9.28-6.04,14.78-15.03,17.34-25.9.43-1.85,2.35-4.17,4.09-4.74,9.25-3.07,18.7-2.69,28.01-.11,1.32.37,2.96,2.3,3.15,3.68,1.74,12.94,9.3,21.93,19.76,28.59,6.41,4.09,13.45,7.23,20.31,10.58,9.61,4.69,18.54,10.28,26.26,18.12-6.42,2.94-12.46,5.82-18.63,8.4-1.12.47-2.79-.2-4.16-.53-19.66-4.75-39.3-6.49-58.95.13-1.12.38-2.55.44-3.67.1-19.98-6.11-39.94-5.74-59.93-.03-1.28.37-2.94.53-4.11.03-5.91-2.53-11.72-5.32-19.3-8.81Z"/>
    <path class="cls-1" d="m239.67,742.08c-13.01-62.29-18.33-123.05-2.48-184.24,6.35-.65,13.4-1.38,21.37-2.2.43,2.59,1.19,5.74,1.46,8.93,1.81,21.36,2.66,42.85,5.46,64.08,3.82,29.02-5.38,55.51-13.64,82.31-2.2,7.13-4.64,14.2-7.22,21.21-1.1,3-2.84,5.76-4.94,9.92Z"/>
    <path class="cls-1" d="m326.79,741.74c-1.83-4.21-4.05-8.29-5.43-12.64-6.19-19.46-12.53-38.89-18.04-58.55-4.27-15.24-3.59-30.93-2.09-46.6,1.82-19.04,3.14-38.12,4.74-57.18.31-3.72.93-7.41,1.36-10.79,7.09.49,13.37.8,19.6,1.48,1.17.13,2.98,1.59,3.15,2.64,2.85,18.05,5.7,36.11,8.13,54.23,4.37,32.59-1.23,64.68-5.43,96.82-1.33,10.18-3.21,20.29-4.84,30.43-.39.05-.77.11-1.16.16Z"/>
    <path class="cls-1" d="m384.09,732.75c-12.85-13.23-24.66-27.38-30.02-45.88-2.4-8.28-5.44-16.37-7.96-24.62-1.15-3.77-2.63-7.77-2.39-11.57,1.69-27.03-3.48-53.3-8.15-79.64-.81-4.55-1.36-9.15-2-13.6,10.93-4.74,23.05.07,29.26,11.44,6.93,12.67,10.6,26.45,13.36,40.52,5.53,28.24,5.3,56.87,6.05,85.45.33,12.58,1.21,25.15,1.85,37.9Z"/>
    <path class="cls-1" d="m182.53,733.68c1.53-34.96,2.46-69.65,4.8-104.24,1.33-19.56,5.84-38.74,14.63-56.6,3.09-6.28,7.37-11.56,13.6-14.82,2.7-1.41,5.92-2.41,8.94-2.51,7.51-.23,8.3,1.05,7.23,8.39-3,20.54-6.16,41.06-8.72,61.65-.81,6.53.12,13.27.12,19.91,0,3.31.39,6.84-.6,9.88-4.42,13.55-9.18,26.99-13.98,40.42-3.63,10.16-9.62,18.91-16.76,26.93-3.16,3.55-6.13,7.25-9.28,10.99Z"/>
    <path class="cls-1" d="m125.21,240.03c2.69-10.32,4.3-21.48,8.49-31.57,9.46-22.77,28.79-33.01,52.07-35.44,17.6-1.83,38.8,10.8,49.03,26.78-.04.16-.03.4-.13.46-21.94,12.73-43.2,26.94-68.67,32.07-13.1,2.64-26.26,4.97-40.78,7.7Z"/>
    <path class="cls-1" d="m331.25,200.29c13.6-17.2,30.02-28.92,51.45-26.85,23.7,2.29,42.51,14.4,51.07,38.02,3.35,9.25,4.71,19.22,7.22,29.88-2.31-.62-3.38-.74-4.29-1.19-11.78-5.78-24.83-5.64-37.33-8.11-4.22-.84-8.52-1.63-12.54-3.1-19.44-7.11-37.03-17.8-55.59-28.66Z"/>
    <path class="cls-1" d="m224.16,180.66c6.64-.83,13.29-2.3,19.94-2.35,9.94-.07,19.89.76,29.82,1.39,4.84.31,7.11,2.64,7.11,8.03-.02,44.42.23,88.83.39,133.25,0,.31-.19.62-.52,1.59-.59-1.22-.96-1.98-1.32-2.74-7.01-15.03-14.23-29.96-20.98-45.1-8.96-20.14-16.06-40.9-16.19-63.25-.06-10.92-5.09-18.58-13.21-24.92-1.69-1.32-3.32-2.71-4.98-4.07-.02-.61-.03-1.21-.05-1.82Z"/>
    <path class="cls-1" d="m271.24,311.99c4.71,10.63,10.59,18.98,10.41,30.56-.56,35.94.03,71.9.17,107.85,0,1.45,0,2.89,0,5.72-1.37-1.87-2.04-2.62-2.52-3.48-6.15-10.94-14.5-19.88-24.9-26.84-12.32-8.23-19.7-19.45-21.65-34.24-1.11-8.44,1.6-15.77,6.12-22.57,3.68-5.54,7.68-10.86,11.56-16.26,8.68-12.1,15.26-25.28,20.81-40.75Z"/>
    <path class="cls-1" d="m344.45,181.11c-2.21,1.86-3.47,3.16-4.95,4.13-10.09,6.63-15.36,15.79-15.03,28.01.65,24.12-9.26,45.32-18.61,66.64-6.14,13.99-12.58,27.84-18.92,41.74-.18.4-.67.66-1.21,1.18,0-8.13-.01-15.98,0-23.84.07-37.46.23-74.92.1-112.38-.01-4.12,1.63-5.32,5.13-6.16,17.56-4.19,35-2.8,53.49.68Z"/>
    <path class="cls-1" d="m296.17,311.34c4.33,14.78,10.81,27.43,18.82,39.3,3.91,5.79,8.22,11.3,12.04,17.14,11.4,17.38,8.11,38.66-7.92,52.26-6.21,5.27-12.83,10.13-18.55,15.89-5.09,5.12-9.19,11.22-14.5,17.86,0-3.06.02-5.42,0-7.78-.34-36.6-.72-73.21-.97-109.81-.01-2.03.62-4.23,1.51-6.08,2.87-5.97,5.99-11.81,9.57-18.77Z"/>
    <path class="cls-1" d="m115.23,353.33c7.2-26.99,19.93-51.94,11.78-81.64-12.99,13.25-25.08,25.58-36.72,37.46.44-1.61,1.02-4.38,1.97-7.02,4.19-11.67,7.34-23.9,13.01-34.81,10.6-20.39,29.54-27.81,51.85-29.57-2.5,11.08-2.81,21.74.17,32.32.67,2.38,1.21,5.07,2.7,6.9,3.65,4.52,2.61,9.17,1.49,14.06-6.02,26.32-20.92,46.26-43.47,60.73-.52.34-1.09.61-2.77,1.56Z"/>
    <path class="cls-1" d="m409.2,237.71c20.63,1.65,38.1,8.2,49.82,26.16,9.09,13.92,13.12,29.65,17.21,45.41.06.22-.24.54.1-.16-11.6-12.12-23.46-24.49-36.21-37.8-4.25,14.82-4.27,28.06-.82,41.19,3.34,12.74,7.35,25.3,11.07,37.94-.33.31-.67.62-1,.92-4.95-3.5-10.44-6.44-14.76-10.6-15.28-14.71-26.8-31.79-30.16-53.25-.49-3.11.34-6.83,1.68-9.76,5.06-11.11,6.71-22.51,4.3-34.48-.35-1.74-.76-3.46-1.23-5.56Z"/>
    <path class="cls-2" d="m162.34,807.8c.68-24.91,9.51-47.13,21.01-68.54.85-1.59,2.11-2.98,3.29-4.37,3.81-4.47,8.44-7.42,14.43-5.29,5.65,2.01,8.25,7,8.22,12.56-.04,10.26-.27,20.59-1.56,30.75-1.63,12.82-4.24,25.53-6.71,38.23-2.75,14.15-12.54,22.92-24.52,22.39-5.92-.26-10.24-3.27-11.61-9.07-1.28-5.45-1.74-11.1-2.56-16.66Z"/>
    <path class="cls-2" d="m404.35,803.6c-.66,6.25-.68,12.66-2.12,18.73-2.42,10.17-10.32,13.6-19.89,9.44-9.31-4.05-14.72-11.23-16.25-21.12-3.11-20.16-6.15-40.33-8.77-60.56-.53-4.11.23-8.71,1.59-12.68,2.95-8.66,12.37-10.88,19.31-4.92,1.61,1.39,3.1,3.08,4.16,4.91,11.83,20.51,20.36,42.12,21.97,66.19Z"/>
    <path class="cls-2" d="m324.22,811.97c2.02-13.14,4.14-26.75,6.19-40.37.57-3.78.69-7.64,1.51-11.36.77-3.45,1.79-6.98,3.45-10.07,1.79-3.35,4.41-6.99,8.92-5.72,4.73,1.33,8.13,4.87,8.82,9.89,1.92,13.99,3.45,28.03,5.27,42.03,1.13,8.69,1.18,17.31-1.77,25.63-2.26,6.37-5.42,12.46-12.61,14.38-8.91,2.37-14.94-1.05-17.57-10.03-1.28-4.4-1.44-9.13-2.21-14.36Z"/>
    <path class="cls-2" d="m207.19,807.95c2.24-18.56,4.2-34.88,6.19-51.19.12-.98.4-1.96.75-2.89,1.54-4.08,3-8.35,8.13-9.13,5.25-.8,7.06,3.47,9.4,6.8,2.74,3.89,3.42,8.24,3.99,13.01,1.47,12.33,4.66,24.47,5.86,36.82.79,8.08.1,16.53-1.38,24.55-1.25,6.81-6.26,11.3-13.8,11.5-6.77.18-11.05-4.06-13.26-9.59-2.78-6.96-4.33-14.42-5.89-19.87Z"/>
    <path class="cls-1" d="m187.52,281.53c-3.32-.17-6.66-.62-9.96-.44-7.82.42-12.29-3.3-14.92-10.45-3.64-9.91-3.76-19.83-.96-29.81.42-1.5,2.65-3.04,4.34-3.54,5.99-1.79,12.08-3.26,18.2-4.57,1.65-.35,3.96-.31,5.21.59,5.78,4.18,11.22,8.83,16.93,13.13,7.91,5.96,11.43,14.4,13.8,23.57,1.17,4.53-1.56,6.89-5.14,7.64-9.05,1.91-18.21,3.25-27.33,4.82-.05-.31-.11-.63-.16-.94Z"/>
    <path class="cls-1" d="m379.54,281.86c-8.06-1.03-16.25-1.48-24.14-3.25-8.59-1.93-9.68-4.87-7.43-13.36,1.9-7.18,5.65-13.14,11.34-17.78,5.8-4.73,11.77-9.26,17.83-13.66,1.07-.78,3.01-.88,4.42-.61,6.01,1.15,11.93,2.83,17.96,3.76,3.25.5,5.1,1.62,5.92,4.87,2.83,11.24,1.93,22.04-3.11,32.52-2.2,4.57-5.62,6.74-10.71,6.54-3.99-.15-7.99-.03-11.99-.03-.03.33-.06.66-.1,1Z"/>
    <path class="cls-1" d="m180,682.05c-4.98-25.6-9.4-50.32-6.78-75.76,3.39-32.92,20.37-89.78,30.93-102.18.67,17.22,1.5,33.91,1.8,50.61.05,3.04-1.48,6.49-3.24,9.11-10.77,16.02-16.16,34.08-18.16,52.81-2.25,21.11-2.43,42.44-3.53,63.68-.01.26-.29.51-1.03,1.73Z"/>
    <path class="cls-1" d="m363.1,505.72c15.86,31.72,26.48,64.91,30.23,100.3,2.58,24.35-1.99,47.79-6.07,71.39-.45,0-.9,0-1.35,0,0-1.51,0-3.02,0-4.52.08-26-1.6-51.82-8.06-77.13-3.1-12.14-7.75-23.6-14.91-34.04-1.75-2.56-2.84-6.2-2.74-9.29.4-12.28,1.39-24.53,2.17-36.8.21-3.3.48-6.61.73-9.91Z"/>
    <path class="cls-1" d="m542.46,551.9c.76-1.3,1.39-2.49,2.12-3.61,1.99-3.06,4.17-6,6.02-9.14,8.16-13.92,3.17-26.25-5.26-37.75-4.79-6.53-8.99-13.11-10.41-21.22-.2-1.15-1.57-2.09-2.98-2.77-.76,9.01,3.03,16.49,7.79,25.47-5.11-.36-9.08-.63-13.35-.93,0,.63-.26,1.47.04,1.82,5.64,6.6,1.84,13.06-.33,19.47-.37,1.09-1.63,2.2-2.74,2.65-2.89,1.16-4.87.59-4.74-3.18.42-12.76.48-25.54,1.27-38.28.28-4.52,2.15-8.97,3.57-13.36.35-1.08,1.62-2.18,2.74-2.66,7.62-3.23,15.32-6.3,23.72-9.72.52,2.33.85,4.36,1.41,6.32,2.91,10.2,5.29,20.61,8.97,30.53,5,13.47,1.6,26.01-1.81,38.98-2.12,8.07-6.74,13.44-13.48,17.57-.27.17-.62.28-.93.29-.3,0-.59-.17-1.62-.49Z"/>
    <path class="cls-1" d="m22.41,552.54c-4.7-3.51-10.02-6.21-12.44-12.37-6.32-16.12-8.32-32.15-2.01-48.97,3.83-10.21,6-21.03,9.11-32.3,5.61,2.24,11.38,5.13,17.48,6.84,9.41,2.64,11.22,9.84,11.77,17.85.38,5.63-.24,11.33.05,16.97.36,6.96,1.31,13.88,1.77,20.83.11,1.61-.73,3.29-1.14,4.94-1.74-.7-4.56-.97-5.03-2.17-1.98-5.02-3.63-10.26-4.55-15.57-.27-1.55,2.3-3.59,4.21-6.34h-14.11c3.1-8.41,5.91-16.04,8.73-23.67-.61-.45-1.22-.91-1.84-1.36-1.04.75-2.9,1.42-3,2.28-1.21,11.03-8.15,19.26-14,27.79-9.52,13.89-5.35,26.34,2.43,38.82,1.16,1.86,2.48,3.62,3.73,5.43l-1.18.98Z"/>
    <path class="cls-1" d="m125.41,282.23c-.34,5.84-.49,11.71-1.07,17.53-1.52,15.15-5.48,29.63-12.46,43.21-1.98,3.84-4.12,8.14-9.23,8-5.74-.16-10.62-2.76-13.64-7.85-3.41-5.76-4.25-12.09-1.15-18.09,3.48-6.74,6.99-13.72,11.87-19.42,7.36-8.6,15.91-16.17,23.95-24.18.58.26,1.15.53,1.73.79Z"/>
    <path class="cls-1" d="m486.01,354.28c2.72,3.26,5.46,6.5,8.16,9.77,20.09,24.33,36.55,51.02,51.26,78.85,1.08,2.05,1.84,4.27,2.79,6.39,1.08,2.45,1.87,4.61-1.6,6.04-2.95,1.21-5,2.15-7.53-1.35-4.96-6.85-10.59-13.22-16.09-19.67-17.27-20.25-28.16-43.72-35.14-69.18-.94-3.45-1.83-6.91-2.74-10.36.3-.16.59-.32.88-.48Z"/>
    <path class="cls-1" d="m442.13,281.32c12.83,11.22,25.68,21.66,33.47,36.5,2.39,4.54,3.86,9.9,4.36,15.02.75,7.57-3.6,13.26-10.77,16.13-6.19,2.48-9.04,1.79-12.74-3.68-6.81-10.09-10.08-21.55-12.44-33.31-2-9.92-3.65-19.89-1.89-30.65Z"/>
    <path class="cls-1" d="m81.41,353.81c-4.16,20.95-11.56,39.61-21.67,57.32-6.38,11.17-13.17,21.9-22.6,30.82-2.99,2.83-5.41,6.3-7.94,9.59-4.82,6.27-4.78,6.31-11.75,2.16,1.16-12.11,45.1-81.01,63.97-99.89Z"/>
    <path class="cls-1" d="m526.61,463.3c-9.12-16.43-22.64-28.49-37.29-39.57-18.33-13.86-33.52-30.33-41.79-52.27-.62-1.65-1.08-3.36-1.61-5.04.41-.43.81-.86,1.22-1.29,7.65,5.61,16.09,10.42,22.78,17,13.49,13.28,26.39,27.21,38.84,41.47,9.84,11.26,16.05,24.59,17.84,39.7Z"/>
    <path class="cls-1" d="m121.18,368.23c-2.92,6.07-5.01,12.76-8.96,18.07-7.2,9.69-14.61,19.57-23.55,27.57-17,15.23-37.1,27.21-47.69,48.82-.55-.29-1.11-.59-1.66-.88,1.93-5.88,3.26-12.05,5.93-17.57,5.45-11.28,12.86-21.03,22.3-29.67,10.14-9.28,18.72-20.28,27.88-30.61,6.77-7.63,15.42-12.39,24.36-16.78.46.35.93.7,1.39,1.04Z"/>
    <path class="cls-1" d="m237.58,205.15c2.15,22.75-5.16,42.91-13.42,63.44-2.96-19.76-18.93-28.36-33.04-39.43,15.49-8,30.56-15.8,46.45-24.01Z"/>
    <path class="cls-1" d="m329.26,205.32c15.7,8.23,30.75,16.13,45.91,24.08-13,10.9-29.02,18.71-32.28,39.04-9.05-20.86-15.76-40.64-13.64-63.12Z"/>
    <path class="cls-1" d="m85.63,316.95c-.27,1.21-.33,2.52-.85,3.62-3.11,6.7-4.54,13.4-1.85,20.73.51,1.4-1.04,3.95-2.23,5.52-9.48,12.42-19.33,24.57-28.61,37.13-5.08,6.88-9.29,14.41-14.12,21.53,9.13-33.04,19.57-65.39,47.66-88.54Z"/>
    <path class="cls-1" d="m482.21,316.48c26.27,23.15,37.18,54.62,45.75,87.39-1.24-2.07-2.46-4.14-3.72-6.2-11.01-17.89-23.62-34.57-38.06-49.83-2.47-2.61-2.81-5.01-2.44-8.72.58-5.75-.67-11.69-1.32-17.54-.17-1.54-.96-3.01-1.46-4.51.42-.2.83-.39,1.25-.59Z"/>
    <path class="cls-1" d="m362.34,366.67c1.54,22.24,3.09,44.48,4.62,66.64-8.3-4.82-15.99-9.18-23.52-13.79-.95-.58-1.66-2.58-1.49-3.77.63-4.41,1-9.04,2.71-13.06,5.26-12.4,11.08-24.55,16.69-36.8.33.26.66.53.99.79Z"/>
    <path class="cls-1" d="m361.02,489.9c-.61-29.48-11.21-52.91-40.21-65.19.33-.47.66-.95.99-1.42,1.8-.37,3.6-1.02,5.41-1.06,14-.33,25.69,5.11,34.95,15.28,2.72,2.99,4.33,7.44,5.3,11.49,2.72,11.43-.33,30.82-6.43,40.9Z"/>
    <path class="cls-1" d="m245.38,424.58c-28.8,12.6-40.01,35.68-39.42,65.79l-1.68-.34c-.81-2.5-1.75-4.97-2.42-7.51-3.04-11.46-5.6-23.06-2.7-34.87.94-3.83,3.05-7.78,5.7-10.72,9.01-10.02,20.37-15.19,34.06-14.59,1.75.08,3.49.35,5.23.53.41.57.83,1.14,1.24,1.71Z"/>
    <path class="cls-1" d="m199.74,435.34c1.4-23.59,2.72-45.89,4.03-67.98.28.39,1.08,1.3,1.66,2.34,7.13,12.56,14.82,24.87,18.15,39.17.52,2.23.96,4.7.52,6.88-.36,1.76-1.75,4.1-3.28,4.71-7.86,3.11-14.77,7.47-21.09,14.89Z"/>
    <path class="cls-1" d="m389.7,948.11c-5.01-7.05-6.9-14.8-7.06-23.28-.06-3.31,3.02-7.88-2.45-10.11-.24-.1,0-1.57.13-2.38,1.56-10.51,2.48-21.17,4.93-31.47,2.2-9.27,5.94-18.2,9.31-27.17,1.61-4.29,3.94-8.31,6.23-12.4-6.51,35.3-8.82,71.01-11.09,106.8Z"/>
    <path class="cls-1" d="m269.75,627.86c-.57-4.33-1.33-8.64-1.67-12.98-1.42-18.07-2.42-36.18-4.24-54.21-.56-5.59.41-8.71,5.32-11.99,4.58-3.07,7.72-8.29,11.17-12.19,2.28,30.45-7.67,60.45-9.15,91.33-.47.01-.95.03-1.42.04Z"/>
    <path class="cls-1" d="m286.25,538.09c5.08,4.61,10.3,9.26,15.39,14.04.69.65,1.13,1.98,1.06,2.94-1.77,23.54-3.63,47.08-5.48,70.62-.04.48-.25.94-1.01,1.47-4.24-29.81-10.59-59.37-9.96-89.07Z"/>
    <path class="cls-1" d="m177.3,948.27c-2.88-33.1-5.76-66.21-8.62-99.07,11.02,14.39,12.54,32.05,15.73,49.27,3.27,17.64-1.13,33.89-7.11,49.8Z"/>
    <path class="cls-1" d="m67.35,408.06c9.6-18.37,14.17-38.34,19.53-58.88,6.22,5.53,13.05,7.33,22.03,5.99-12.45,19.93-26.24,36.93-41.57,52.89Z"/>
    <path class="cls-1" d="m178.64,552.85c2.06-29.34,6.13-57.61,15.99-85.07,2.05,9.74,4.13,19.47,6.07,29.23.2,1.03-.38,2.28-.79,3.35-6.6,17.17-13.23,34.33-19.88,51.49-.09.24-.48.36-1.4,1Z"/>
    <path class="cls-1" d="m497.63,406.81c-14.27-15.49-27.84-32.22-38.05-50.86,6.76-1.85,13.08-3.58,19.33-5.28,5.95,17.84,12.35,37.04,18.72,56.14Z"/>
    <path class="cls-1" d="m387.2,553.52c-.45-1.12-.92-2.23-1.36-3.35-6.32-16.37-12.72-32.72-18.88-49.14-.89-2.37-1.38-5.27-.9-7.7,1.65-8.33,3.82-16.57,6-25.72,9.77,28.3,13.71,56.82,15.14,85.91Z"/>
    <path class="cls-1" d="m235.94,748.97c-16.79-14.07-23.9-61.07-12.94-82.38,4.27,27.22,8.58,54.62,12.94,82.38Z"/>
    <path class="cls-1" d="m330.96,747.92c4.31-27.42,8.45-53.69,12.73-80.88,1.26,4.35,2.96,7.98,3.3,11.73,1.41,15.59,1.32,31.18-1.8,46.62-1.78,8.8-6.92,15.56-14.22,22.53Z"/>
    <path class="cls-1" d="m196.33,725.21c6.14-10.33,12.09-20.35,18.08-30.43,1.77,14.64.16,30.55,8.45,44.13-3.25,2.38-6.11,4.48-9.52,6.98-.33-11.27-3.3-20.62-17-20.68Z"/>
    <path class="cls-1" d="m252.38,271.45c-8.47,1.45-16.82,2.89-25.04,4.3,4.76-14.84,9.2-28.69,13.27-41.4,3.56,11.24,7.52,23.72,11.77,37.1Z"/>
    <path class="cls-1" d="m369.95,725.08c-11.2.7-15.56,7.95-16.62,18.15-3.2-1.74-6.05-3.28-9.18-4.98,7.21-13.52,6.49-28.56,7.47-43.52,6.14,10.17,12.09,20.03,18.33,30.35Z"/>
    <path class="cls-1" d="m339.55,275.63c-8.13-1.26-16.64-2.57-25.53-3.95,4.54-12.76,8.76-24.62,12.53-35.22,3.97,11.98,8.31,25.03,13,39.16Z"/>
    <path class="cls-1" d="m250.38,132.26v-29.61c3.95,3.38,7.63,6.55,11.87,10.19-2.07,6.63-5.33,13.35-11.87,19.42Z"/>
    <path class="cls-1" d="m315.34,132.78c-3.99-6.59-7.98-13.17-11.53-19.02,4.85-4.26,8.62-7.57,12.73-11.17v29.17c-.4.34-.8.68-1.2,1.02Z"/>
    <path class="cls-1" d="m438.27,350.41c5.46,1.17,8.39,8.86,15.04,3.92,2.94,4.88,5.79,9.6,8.64,14.32-8.47-4.99-19.29-7.03-23.68-18.24Z"/>
    <path class="cls-1" d="m113.42,355.47c6.84,4.09,9.88-2.54,15.41-5.12-4.43,11.42-14.6,14.02-23.37,18.5,2.57-4.32,5.13-8.64,7.96-13.38Z"/>
    <path class="cls-1" d="m178.26,838.38c.93,7.9,1.81,15.37,2.68,22.84-.26.07-.52.13-.77.2-3.84-7.75-7.68-15.51-11.82-23.88,3.61.31,6.58.56,9.91.84Z"/>
    <path class="cls-1" d="m244.33,93.79c-9.75-8.52-12.24-20.63-5.83-28.22,1.94,9.41,3.81,18.45,5.83,28.22Z"/>
    <path class="cls-1" d="m20.1,513.57c-.52,9.72,3.15,18.23,8.8,26.83-10.73-1.18-15.52-17.87-8.8-26.83Z"/>
    <path class="cls-1" d="m386.26,858.53c.33-5.72.76-11.44.96-17.16.11-2.94,1.22-4.15,4.26-3.87,1.6.15,3.27-.38,6.12-.77-3.68,7.7-7.13,14.9-10.57,22.09-.26-.1-.52-.19-.78-.29Z"/>
    <path class="cls-1" d="m328.1,65.95c5.78,8.9,2.99,20.87-6.33,28.52,2.12-9.57,4.17-18.76,6.33-28.52Z"/>
    <path class="cls-1" d="m539.09,540.54c2.99-8.5,5.85-16.61,8.57-24.33,5.55,6.53.8,21.98-8.57,24.33Z"/>
    <path class="cls-1" d="m340.5,860.2c6.01,13.88,8.24,28.73,11.33,43.37-.39.1-.78.21-1.18.31-3.77-14.41-7.53-28.82-11.3-43.23.38-.15.76-.3,1.14-.45Z"/>
    <path class="cls-1" d="m227.68,861.34c-3.86,14.55-7.73,29.09-11.59,43.64l-1.69-.45c3.79-14.57,7.57-29.15,11.36-43.72.64.18,1.29.36,1.93.54Z"/>
    <path class="cls-1" d="m39.78,446.09c-1.48,4.96-2.95,9.92-4.59,15.44-1.69-.83-3.35-1.64-5.65-2.76,3.36-4.63,6.44-8.88,9.53-13.12.24.15.48.3.72.44Z"/>
    <path class="cls-1" d="m537.34,458.38c-2.06,1.17-3.76,2.14-5.88,3.34-1.51-5.43-2.92-10.54-4.34-15.65.21-.12.41-.24.62-.36,3.06,4.03,6.11,8.07,9.61,12.68Z"/>
    <path class="cls-1" d="m210.47,556.14v-10.53c2.83,2.39,5,4.22,7.42,6.26-2.5,1.44-4.73,2.72-7.42,4.27Z"/>
    <path class="cls-1" d="m348.34,551.88c2.59-2.25,4.66-4.05,7.44-6.46v9.87c-2.26-1.04-4.6-2.11-7.44-3.41Z"/>
  </g>
</svg>