<?xml version="1.0" encoding="UTF-8"?>
<svg id="Capa_2" data-name="Capa 2" xmlns="http://www.w3.org/2000/svg" viewBox="0 0 600 391.14">
  <defs>
    <style>
      .cls-1 {
        fill: #fff;
      }
    </style>
  </defs>
  <g id="Capa_1-2" data-name="Capa 1">
    <g>
      <g>
        <path class="cls-1" d="m330.86,180.42c0,1.88.02,3.75,0,5.63-.11,7.62-.68,15.17-3.65,22.32-3.4,8.2-9.09,13.81-18,15.73-.78.17-1.52.5-3.07,1.03,1.88,1.07,3.13,2.15,4.57,2.53,5.49,1.43,7.09,5.54,7.03,10.4-.12,8.51-.68,17.02-.99,25.53-.08,2.28-1.67,1.75-2.93,1.75-18.9.02-37.81.02-56.71.02-13.95,0-27.9-.04-41.85.06-2.1.02-3.33-.7-4.5-2.34-2.63-3.69-3.87-7.36-2.39-12.03,2.36-7.47,4.15-15.11,6.19-22.67.14-.52.36-1.02.5-1.43,6.21,1.46,12.26,3.11,18.4,4.28,13.08,2.48,26.2,3,39.13-.9,11.1-3.35,17.25-10.71,18.03-22.28.93-13.73-2.22-26.52-10.28-37.89-.53-.74-1.18-1.4-1.73-2.13-.38-.5-.69-1.06-1.02-1.6-.27.17-.54.35-.82.52.58,1.83,1.1,3.67,1.73,5.48,3.27,9.24,6.26,18.55,6.49,28.46.15,6.37-.02,12.72-4.9,17.71-4.19,4.28-9.74,5.46-15.3,5.82-15.64,1.01-29.99-2.91-42.35-12.74-3.31-2.63-5.91-6.21-8.63-9.52-1.4-1.7-1.52-3.56-.15-5.75,1.42-2.27,2.14-5.01,3.01-7.59.25-.74-.05-1.66-.51-2.75-6.55,8.48-13.51,16.26-24.49,19.95,3.7,1.88,6.71.71,9.69.51.73-.05,1.44-.2,2.16-.31,2.31-.35,3,.76,3.11,2.95.44,8.8-1.14,17.27-3.83,25.6-3.25,10.08-8.12,19.34-13.84,28.19-1.1,1.7-2.34,2.43-4.46,2.42-14.59-.08-29.18-.02-43.77,0-5.19.01-5.05.01-5.86-5.15-1.73-11.01-2.01-22.09-1.57-33.18.51-12.95,3.44-25.3,10.34-36.5.67-1.08.89-2.59.91-3.91.09-10.09,1.36-19.95,6.58-28.8,7.73-13.1,19.09-20.91,34.39-22.66.58-.07,1.29-.21,1.66-.59,6.43-6.76,14.23-11.66,22.72-15.08,14.93-6,20-18.52,23.01-32.66,1.53-7.2-1-13.94-2.49-20.78-2.3-10.55-3.65-21.16-1.04-31.82,4.48-18.26,16.65-28.78,34.56-32.78,15.25-3.41,29.99-.72,44.23,5.22,9.6,4,18.61,8.93,26.16,16.3,4.84,4.72,2.82,7.28-1.56,10.17-2.08,1.37-2.38,2.37-1.77,4.54,1.69,6.05,2.29,12.21,1.23,18.47-.65,3.85-2.14,7.11-5.43,9.46-.58.41-1.03,1.7-.84,2.39,1.26,4.56,2.77,9.06,4.09,13.61.48,1.65.9,3.36.97,5.07.16,3.51-1.55,5.16-5.15,5.13-1.63-.01-3.26-.27-5.12-.44-.35,4.28.06,9.08-5.6,10.48,2.6,5.06,2.43,5.6-1.34,9.7-.86.94-1.37,2.55-1.39,3.86-.12,6.48-5.51,11.36-11.81,9.63-10.36-2.84-20.19-7.21-28.58-14.01-2.92-2.36-4.64-6.2-6.91-9.36-.65,2.51-.08,5.17.89,7.79,2.14,5.77,6.26,9.9,11.45,12.87,2.44,1.39,2.42,2.78,1.7,5.11-1.12,3.63-1.87,7.39-2.6,11.13-.15.76.26,2.04.83,2.39.49.3,1.78-.16,2.39-.68,3.2-2.68,6.83-2.25,10.12-.89,5.45,2.25,10.82,4.82,15.89,7.8,2.14,1.26,3.99.7,5.98.84,7.29.48,13.92,2.89,20.01,6.82,9.42,6.08,16.05,14.33,19.21,25.18.45,1.56,1.11,2.27,2.9,2.59,9.57,1.72,17.4,6.49,23.42,14.14,2.85,3.62,4.22,7.78,4.47,12.43.36,6.74,1.03,13.47,1.59,20.2.04.53.18,1.13.48,1.55.42.6,1.03,1.06,1.55,1.58.37-.64.94-1.25,1.06-1.94.88-4.84.79-10.07,2.69-14.45,2.62-6.04,6.28-11.78,10.28-17.05,8-10.51,14.55-21.64,17.48-34.32,4.43,0,8.65.3,12.81-.09,4.04-.38,8.02-1.48,12.35-2.32.05.84.15,1.79.16,2.73.02,8.35.2,16.71-.02,25.05-.54,20.91-5.08,40.73-16.83,58.42-2.63,3.95-5.64,7.66-8.48,11.47-4.44,5.94-10.73,7.08-17.44,6.1-21.37-3.14-41.11-10.7-58.97-22.88-5.91-4.03-11.15-8.88-14.94-15.04,10.71-14.94,13.43-30.78,7.02-47.79-.57-.01-1.13-.03-1.7-.04Zm-58.49-118.4c.26-.04.51-.08.77-.12.18-.57.45-1.13.51-1.72.45-4.06-1.26-7.43-4.59-9.17-3.8-1.99-8.77-1.32-12,1.6-7.61,6.87-7.73,19.43-.29,27.39,2.44,2.61,5.08,4.81,8.93,4.51.65-.05,1.72-.74,1.75-1.19.06-.84-.38-1.8-.84-2.57-.23-.38-.96-.45-1.45-.69-6.91-3.41-10.21-14.49-6.21-20.91,1.38-2.22,3.3-3.78,6.01-3.71,2.78.07,4.76,1.6,6.01,4.1.43.85.94,1.66,1.42,2.48Zm-40.37,92.49c.09-5.75-1.81-10.56-6.55-13.94-4.07-2.9-10.09-3.92-13.37-2.27,9.24,2.3,15.62,7.9,19.92,16.22Z"/>
        <path class="cls-1" d="m382.62,116.05c-.41-23.16,18.53-42.48,41.68-42.62,23.94-.14,42.78,18.19,42.59,42.46-.18,23.11-16.05,41.84-42.04,41.9-26.49.06-42.41-20.21-42.23-41.75Zm41.81-21.73c-12.77.11-21.23,10.01-21.08,22.27.15,12.18,10.04,21.63,21.94,21.32,13.24-.34,21.97-12,21.31-23.49-.66-11.45-10.3-20.45-22.17-20.11Z"/>
        <path class="cls-1" d="m425.07,102.17c7.79.01,13.87,5.97,13.88,13.6,0,8.05-6.3,14.45-14.18,14.39-7.74-.06-13.48-6.17-13.47-14.33.02-7.78,5.96-13.67,13.77-13.66Z"/>
      </g>
      <g>
        <path class="cls-1" d="m0,295.95h62.88v16.02H18.16v23.23h42.45v16.15H18.16v38.45H0v-93.86Z"/>
        <path class="cls-1" d="m77.17,295.95h36.71c18.16,0,30.44,11.48,30.44,27.37,0,14.82-9.88,24.97-25.23,26.97l31.37,39.52h-22.03l-30.04-39.25h-3.07v39.25h-18.16v-93.86Zm18.16,14.82v25.63h16.96c8.95,0,14.02-4.81,14.02-12.82,0-7.21-5.07-12.82-14.02-12.82h-16.96Z"/>
        <path class="cls-1" d="m160.75,295.95h64.62v16.02h-46.46v22.16h42.45v15.49h-42.45v24.16h47.13v16.02h-65.28v-93.86Z"/>
        <path class="cls-1" d="m241.12,295.95h64.62v16.02h-46.46v22.16h42.46v15.49h-42.46v24.16h47.13v16.02h-65.29v-93.86Z"/>
        <path class="cls-1" d="m315.09,342.81c0-27.1,21.49-48.33,49.13-48.33,15.49,0,28.97,6.14,37.52,16.56l-12.28,12.28c-5.87-7.74-14.82-11.88-25.37-11.88-17.89,0-30.44,12.68-30.44,31.24s12.42,31.64,29.37,31.64c14.82,0,24.56-7.21,27.37-20.43l-28.44-.27v-15.75h47.8v2.54c0,33.64-19.36,50.73-46.59,50.73s-48.06-21.36-48.06-48.33Z"/>
        <path class="cls-1" d="m445,349.88l-33.91-53.94h20.96l22.16,36.45,22.16-36.45h20.69l-33.78,53.14v40.72h-18.29v-39.92Z"/>
        <path class="cls-1" d="m505.74,295.95h12.82l34.31,55,34.31-55h12.82v93.86h-18.02v-55.94l-22.96,36.71h-12.28l-22.83-36.85v56.07h-18.16v-93.86Z"/>
      </g>
    </g>
  </g>
</svg>