<?xml version="1.0" encoding="UTF-8"?>
<svg id="Capa_2" data-name="Capa 2" xmlns="http://www.w3.org/2000/svg" viewBox="0 0 45.22 45.72">
  <defs>
    <style>
      .cls-1 {
        fill: #7e532b;
      }
    </style>
  </defs>
  <g id="Capa_1-2" data-name="Capa 1">
    <g>
      <g>
        <line class="cls-1" x1="3.18" y1="2.54" x2="43.18" y2="42.54"/>
        <g>
          <path class="cls-1" d="m41.29,44.43c.26-.22.8-.79.64-.74l-.98.9.34-.16Z"/>
          <path class="cls-1" d="m42.64,42.3c-.52.39-1.4,1.1-2.21,2.01.97-.83.61-.44,1.75-1.44.17-.05-.2.4-.55.74.26-.22-.12.3.5-.26.65-.8.58-.92-.12-.43.18-.23.45-.45.63-.62Z"/>
          <path class="cls-1" d="m38.42,35.17l-.07.15c.05-.07.07-.12.07-.15Z"/>
          <path class="cls-1" d="m35.42,31.14s.15-.08.24-.16c-.09.04-.16.07-.24.16Z"/>
          <path class="cls-1" d="m35.85,29.51s-.02.07-.03.1c.07-.1.11-.16.03-.1Z"/>
          <path class="cls-1" d="m38.42,35.17l.2-.39c-.31.3-.18.27-.2.39Z"/>
          <path class="cls-1" d="m39.6,43.78c.07-.03.17-.1.3-.2-.06.02-.11.04-.15.05-.05.05-.1.09-.15.14Z"/>
          <path class="cls-1" d="m40.73,35.96l.03.03c.11-.1.25-.22.4-.36l-.43.33Z"/>
          <path class="cls-1" d="m42.06,37.01c0-.06-.8.72-1.15,1.06.34-.31.52-.45.6-.49.15-.15.33-.34.55-.57Z"/>
          <path class="cls-1" d="m42.55,40.29l.14-.08s-.09.04-.14.08Z"/>
          <path class="cls-1" d="m40.05,34.94c.12-.12.22-.23.27-.3-.1.1-.19.2-.27.3Z"/>
          <path class="cls-1" d="m.82,7.65c.06-.06.09-.09.14-.14-.09.07-.15.13-.14.14Z"/>
          <path class="cls-1" d="m3.38,2.34l.06-.02c.15-.15.3-.29.45-.44l-.51.46Z"/>
          <path class="cls-1" d="m35.78,27.39s0,.01-.01.02c.12-.06.09-.06.01-.02Z"/>
          <path class="cls-1" d="m25.11,17.9c-.6.82-1.1.73-1.72,1.69.29-.33,1.4-1.08,1.72-1.69Z"/>
          <path class="cls-1" d="m39.67,43.64s-.05-.02-.06-.04c0,.05.01.06.06.04Z"/>
          <path class="cls-1" d="m23.39,19.58s0,0,0,0l-.06.09s.04-.07.06-.1Z"/>
          <path class="cls-1" d="m32.77,25.34c-.13.15-.23.26-.32.37.08-.08.17-.19.32-.37Z"/>
          <path class="cls-1" d="m33.52,28.36l.06-.15c-.05.09-.06.13-.06.15Z"/>
          <path class="cls-1" d="m30.67,25.48c.04-.09.14-.2,0-.13-.04.04-.06.08-.09.11.12-.1.19-.13.09.02Z"/>
          <path class="cls-1" d="m29.64,24.47c-.06.07-.09.12-.14.18.03,0,.05,0,.08-.01l.07-.17Z"/>
          <path class="cls-1" d="m4.3,10.37c.2-.25.43-.51.67-.76-.55.58-.9.63-.67.76Z"/>
          <path class="cls-1" d="m40.04,43.33c-.21.19-.31.29-.37.31.02,0,.05,0,.08,0,.12-.12.23-.23.3-.3Z"/>
          <path class="cls-1" d="m24.35,31.71l-.04-.28c-.03.12-.01.22.04.28Z"/>
          <path class="cls-1" d="m11.72,17.56l-.13.06s.03.02.13-.06Z"/>
          <path class="cls-1" d="m23.71,31.07c.25-.31.38-.5.46-.64-.07.06-.13.1-.22.19l-.23.45Z"/>
          <path class="cls-1" d="m4.98,9.6s0,0,0,0c0,0,0,0,0,0Z"/>
          <path class="cls-1" d="m2.02,10.42c.13.18,1.1-.95,1.73-1.52.48-.11-.68.85-1.16,1.45.39-.16,1.44-1.03,1.48-.91-.17.18-.21.26-.45.45.95-.71.4.32,1.59-.58-.08.1-.16.2-.24.28.5-.55,1.03-1.08,1.41-1.46.09.05.79-.53.13.18-.02-.06-.3.21-.53.4l.37-.22c-.92,1.05-.44.24-1.17.97.46-.18,1.44-.83,1.27-.44-.94.98-.58.07-1.29,1.07l.2-.53c-1.39,1.64,0-.21-1.5,1.53-.06.5.74-.24.68.26.58-.48.77-.81,1.36-1.29,1.27-.65-2.17,2.66-.66,1.61.7-.58,1.94-1.77,1.46-.97l-1.14,1.03c.11.32,1.68-1.44,1.18-.49-.47.39-.53.19-.62.35-.71,1,.72-.51.83-.4l-.94.99c.38.08,1.32-.37,1.75-.29-.3.27-.64.53-.88.88.8-.16.56.79.3,1.67l.95-.71s-.32.43-.51.56c-.2.43.53-.52.92-.79.13,0-.39.57-.68.77.91-.49,2.12-.92,1.45.19l-.29.2c-.16.51,1.9-1.51,1.28-.57l-.18.12c.02.73,1.19.39.22,1.93,1.25-1.14-.16.9,1.53-.74-.61,1.04-.97,1.28-1.23,2.13,0,.16,1.16-.92,1.43-1l-.87.87,1.05-.78-.97,1.11.32-.13c.01-.09.31-.47.57-.72.54-.25-.25.96-.7,1.41l1.08-.39c-.36.34-.54.41-.81.58,1.07-.71-.88.95.1.31.18-.22.53-.51.71-.68-.44.61-.26.81.11.73l-.63.57c.1.41.83.25,1.1.55.18-.38,1.24-1.4,1.43-1.42l-.89.95c.62-.51.26-.44,1.07-1.02,0,.21-.98,1.12-1.34,1.36l.45-.19c-.27.28-.44.4-.8.74.63-.52-.7,1.15.37.23l-.27.28c.28.29.73.11,1.01.3.8-.79.71-.52,1.43-1.1-.08.43-.52,1.24-.24,1.38.54-.25.72-.63,1.25-1.04-.71.74-.44.87-1.07,1.29.37.13.46.17,1.36-.1.26-.33.35-.5.62-.73.18-.06-.17.43-.53.77l-.09.06c1.44-.73-1.3,2.93.49,1.7l-.09.06,1.08-.5c0,.26-.63.46-.97,1.01,1.52-.89.32.67,1.39.13-1.94,2.34.86.56-.23,2.2l.49-.52c.56-.42-.2.37-.27.54.38-.4.38-.53.69-.76,1.2-.01.49,1.96.64,3.02.09.36,2.73-2.48,1.81-1l-1.01.85c1.57-.67.88.95,2.27.44-.24.19-.52.47-.56.42-.59.77.31.38.87-.18,0,.13-.49.52-.72.84-.31.49,1.1-.63.47.09-.1.12-.25.19-.32.23.39-.27.2.37.92-.48-.21.54.66-.03.33.56.96-.79-.14.7,1.13-.51-1.29,1.27-.74,1.32-.04.82-.42.35-.31.49-.89.99.14.1.48-.03,1.12-.71-1.31,1.75,1.67-.79-.17,1.29,1.04-.33,1.83-.47,2.45-.46-1.29,1.26-.48-.22-1.8,1.13.83-.22,2.1-1.15,2.09-.54-.1.25-.6.51-.84.7.83-.22.47.7,1.43.27-.12.12-.28.22-.4.29.09.01-.06.31.51-.28l-.21.11c.76-.93,1.97-1.55,2.42-1.98-1.75,1.57-.15.68-2.4,2.64.14-.07.46-.31.84-.7-.06.16-.27.41-.77.8.5-.13,1.05-.81,1.21-.63-.28.28-.42.35-.77.67.63-.46,1.27-.92,1.18-.54-.18.16-.38.4-.42.35.33.16,1.88-1.03,1.63-.23-1.3,1.14-.31.49-1.35,1.56l.46-.17.45-.57c.11.15.99-.51.76-.05l-.53.34.44.04.26-.54c.67-.41,1.32-1.35,1.2-.89-.14.07.12.14-.44.83,0,0,0,0,0,0,.4-.27.82-.56.65-.2-.31.36-1.19,1.15-1.4,1.39.95-.82.55.06,1.56-.8-.25.19-.8.75-.91.87l.77-.66c-.17.29-.27.41-.72.84.05.31,1.28-1.4.92-.61-.07.04-.17.16-.32.23-.09.51.87-.04.71.51-1,1.12-.43.09-1.26,1.05.48.09,1.86-.69,1.88-.16l.07-.17c1.54-1.46-.54.94.31.38-.15.08-.88.79-.7.63-.05.43.75.01,1.51-.17l-.42.35c-.23.45.09.49.04.78.42-.35.43-.22.94-.82-1.83,2.56,1.88-.48.38,1.68-.04-.03-.43.24-.4.28l.63-.08c.63-.68.36-.43.81-1,.42-.35.8-.57.87-.51-.56.31-1.05,1.05-1.36,1.47.19-.21.43-.41.63-.62-1.02,1.31,1.34-1.29.75-.31l-.35.33c.25-.1.77-.49.75-.31-.72.79-.43.27-1.06.89.16.07,1.65-1.21,1-.36-.26.16-.33.1-.59.26-.78,1-.54.79-.6,1.01v-.03s-.2.59-.2.59l.19-.29c2.11-1.83.65-.07,2.13-1.18-1.41,1.04-.74.68-1.61,1.52-.19.29-.38.63-.64.85.78-.6-.39.69.74-.19-.27.28.07.12-.64.8.33-.1.45-.51.81-.84,1.12-.76-.72,1.56.83.53.75-.31,1.73-1.2,2.39-1.46-.37.51-1.06.95-1.06.95-.29.52-.13.53.29.32-.26.22-.44.45-.72.79.16.01,1.06-.95.77-.43-.33.29-.84.76-1.19,1.02.35-.15.97-.57,1.32-.71-.45.51-.79.67-1.14.94.33-.1.74-.13,1.53-.86l.2-.35c.08,0-.63.68-.8.78-.7.5.12-.41.39-.69l.25-.1c1.54-1.69-.56-.04-.61-.28l1.24-1.11-1.13.82c.27-.34.91-1.02,1.16-1.12.47-.69-.51.32.04-.42.09-.11.15-.16.21-.2l-.45.25c.27-.23.81-.85.71-.61.49-.87-1.18.58-.36-.38l.09-.06c-.66.14-.89.84-2.1,1.66l2-2.26-.89.84c0-.06.02-.18.37-.51-.69.49-.36.39-.97.89.66-.92-.72.01.62-1.39-.7.61-.38.63-.98.95,1.44-1.52-.41.09.15-.7.8-.73.51-.21,1.07-1.01-1.36,1.22.05-.51-.29-.36-1.03,1.02-.64.21-1.15.39.36-.33.25-.88.47-1.4l.18-.17c-1.07,1.01-1.03.65-1.36.75.63-.62.89-.84,1.23-1.06l-.11-.1c-.36.31-.57.45-.76.5l.8-.75c-.19-.1-1.21.62-.88-.08-.73.71-1.87,2.17-2.55,2.45.38-.4,1.05-1.08,1.26-1.18-.07.03-.39.26-.25.06l.74-.58c.2-.37-.6.51-.6.38.56-.56.35-.45.8-.88.07-.04-.17.29.07.1.02-.18.26-.6.65-1.05-.31.32-.75.75-.88.77-.19-.1.62-.72.82-1.09-.42.35-.11-.14-.95.69-.04-.05.34-.44.55-.69-.44.29-.46-.25-1.26.73l-.04.08s-.03.01-.05.02h0s0,0,0,0c-1.08.58-.04-.99-.64-.87l.28-.28c-.47.17-.51-.14-1.22.36-.04-.04.41-.61.76-.93-.32.1-.65.4-.35-.22.6-.37.39-.47.47-.24.1-.39.51-.87-.41-.26.77-.66.79-1.01.51-.87l-.41.61c-.18.03-.19-.1-.19-.23l.98-.9c.85-1.44-2.48,1.41-.79-.73-.74.58-.3.62-1.14,1.32,0-.26,1.2-1.76,1.16-1.8.33-.71-1.55,1.2-1.39.65-.31.36-1.18,1.28-1.65,1.45-.01-.26,1.24-1.58,1.6-1.76.06,0-.03.13-.14.24.17-.08.37-.16.68-.58l-.35.32c.27-.41.05-.56.65-1.07-.42.22-.6.51-.69.76.31-.66-.26-.29-.11-.8-.16.21-.52.63-.55.6.15-.68-.75.52-1.08.49.41-.61,1.26-1.19.65-.94.24-.46.87-.91,1.18-1.14-.81.48.12-.73.14-.95l.36-.18c-.21.11-.25.06-.29.02l-.62.72c.07-.17.03-.21.31-.49-.49.39-1.08,1.16-1.78,1.65.27-.41-.57.16.29-.75-.09.52.87-.92,1.2-.88-.14.07-.18.02-.11-.14.09-.11.19-.18.26-.21.59-1-1.1.91-1.29.68.53-.48.9-1,.76-.93.08.1-.8.88-1.26,1.18.26-.53-.44.14-.46.03l-.1.26c-.53.47-.53.34-.78.4.38-.4.36-.18.49-.39-.99.78.68-1.15-.06-.7.27-.41.94-.95,1.11-1.24-.82.49.51-.87-.2-.5-.62.72-.45.57-1.23,1.1l.76-.19-1.16.8c.08.1.61-.24.54-.08-.64.46-.46.3-.98.91.9-1.13-.82.36-.27-.46l1.68-1.67c.54-.95-1.22.5-1.06-.19l-.21.38c-.7.63-.26-.07-.61.11.57-.55.72-.81,1.03-1.19-.41.42-.16-.23-1.29.86l.62-.85c.09-.51-1.83,1.35-1.85.95.67-.55.97-1.03,1.54-1.33-.06-.07-.02-.24-.41.15.31-.39-.94.56-.48-.03-.27.22-.87.79-.9.67.1-.12.28-.28.28-.28-.28.28-.5.26-1.05.94,1.53-1.95-.72-.46.6-2.14-.34.04-.7.04-.87-.06.18-.16.28-.28.25-.19.33-.71-1.72,1.49-1.35.7.79-1.01.6-.38.88-.78,1.81-1.87-.51,0,.42-1.22l.14-.07c.51-.73-.96.43-1.01.12,0,0,.17-.15.28-.28-1.06.81-1.6.89-2.03.98.77-.67.46-.3,1.16-1.07-.18.03-1.15,1.2-1.51,1.25.34-.44.58-.9,1.34-1.69l.19.1c.93-1.08-.22-.15-.12-.41l.45-.43c-.37-.08-1.48,1.03-1.64.71l-.31.36c-1.23.97.51-.73-.44-.04l1.08-1.16c-.36.18-1.38.78-1.75.83.92-.74,1.52-.98,2.12-1.36-.08-.09-.37-.21-.97.3.14-.07.46-.3.32-.1-.98.77-1.55,1.07-1.7.88,2.2-2.13.1-.99,1.66-2.8-1.1.5-.26-.94-.74-1.16-1.56,1.81-.15-.05-1.86,1.7-.19.03-.2-.03-.09-.15l.78-1.28c.44-.56.46-.3.84-.7-.05-.31.66-.81,1-1.39-.59.64-.95.82-.81.49l-.65.94c-1.17.67,1.23-1.67.07-1.01l.62-.46c-.45.19-.47-.49-1.98.77.18-.22.62-.73.8-.79-.1-.52-2.17.79-1.55-.31l.45-.4c-.18.06-.89.69-.54.2.18-.17.45-.4.44-.45-.18.12-.89.59-.72.26l.54-.41c.25-.86-1.62.7-2.17.73,1.25-1.24,1.41-1.89,1.5-2.21l.18-.17c-.2-.51-1.63.43-2.44.6,1.15-1.55-.12-1.25.31-2.33-.18.28-.98.96-1.16,1.03.18-.33-1.07.65.08-.48v.05c1.07-1.18.61-1.04.52-1.19l-1.51,1.47c1.85-2.49-1.64-.04.13-2.16-.45.3-.54.2-.99.49l.81-.8c0-.42-.02-.63-.47-.7l.63-.52c-.1-.2-2.5,2.12-2.68,2.03l1.15-1.24c-.28-.24.51-1.55-.83-.73.18-.17.53-.51.62-.52-.09-.15.34-1.28-1.26.4,1.07-1.07-.16-.37-.78-.04l.81-.77c-1.13.89-1.4,1.16-1.85,1.27.06-.14.6-.67.45-.41.28-.54-.85.64-.59.07l.56-.44c-.07-.2-.33.09-.99.6-.4.23-.06-.45.64-1.19-.45.42-1.11.92-.98.64.26-.28.45-.42.55-.49.31-.76-1.25.58-.63-.35.26-.26.38-.41.44-.5.16.2.26.39.19.43.73-.73.71-1,1.83-1.89-.66.43-2.05,1.42-1.85.94.06-.08.13-.15.23-.27l.1-.07c.04-.1-.06-.07-.21.03.07-.16.13-.28.1-.34.58-.62.16-.49.12-.59-.79.8-.76.58-1.32,1.32.05-.07.11-.08.19-.07.03-.01.06-.01.11-.05-.02.02-.05.04-.07.06.07.02.15.07.23.13-.46.35-.86.63-.5.11-.55.47-1.11.96-1.38,1.18,1.01-1.21,1.42-2,2.08-2.71-.67.23-.81-.22-2.44,1.13-.25.13.36-.5.57-.76.19-.11.21-.05.44-.24-.51.26-.52-.22-1.59.79.31-.63,1.05-.87.66-.92l.35-.29c1.24-2.09-3.36,1.97-1.69-.64-.1.16-.14.24-.31.42.41-1.48-2-.22-1.03-2.25.15-.45-.53.2-1.13.61l.82-.89-1.14.83c-.95.5,1.71-2.48.06-1.4l-.54.61c0-.21-.66.02.02-.63-.12.09-.63.56-.37.23l.44-.45-1.02.52c.13-.52,1.8-1.74,1.61-2.11-.28.07-1.6,1-1.86,1.34.02.06-.17.39-.61.84l-.33.14C2.11,3.61.69,4.89,0,6.04l.97-.64-.59.69-.18-.1c-.52.68.06.2.48-.11-.33.35-.54.61-.63.77l1.42-1.1c-.5.54-1.1.95-1.27,1.34.66-.51,1.08-1.23,1.59-1.49-.52.68-1.03,1.14-.43.72-.33.35-.56.55-.75.66.49-.32.39.05,1.13-.61-.66.82.47.09-.79,1.32.32-.27,1.12-.83,1.25-.81-1.63,1.35.19.37-1.44,1.93,1.44-1.24.96-.23,1.89-.79-.12.1-.35.29-.3.21,0,.21-.38.65-.57.97,1.12-1.1,1.53-1.19,2.3-1.79-.94,1.19-1.38,1.23-2.36,2.29.89-.9,1.11-.68,1.82-1.47-.57.76-.24.4-1.11,1.37,1.4-1.37.32-.15,1.25-.92-.55.82-1.26,1.33-.69,1.06-.35.5-.98.85-.98.85Zm6,1.21s-.01.01-.02.02c-.05-.01-.09-.02-.12-.03.03,0,.06.01.14.01Zm.32.29c0-.07-.05-.12-.1-.16.26-.29.56-.56.57-.51-.2.17-.29.4-.47.67Zm4.87-6.15c.16-.06.02.11-.14.28-.04,0-.09,0-.18.01-.03.03-.07.06-.1.09.16-.15.3-.28.42-.38Z"/>
          <path class="cls-1" d="m12.07,6.72s-.06.04-.08.04c-.06.08-.11.15-.15.21.09-.08.18-.16.27-.23-.01,0-.02-.01-.04-.01Z"/>
          <path class="cls-1" d="m38.34,35.34v-.02s-.04.07-.09.13c.03-.04.06-.07.09-.1Z"/>
          <polygon class="cls-1" points="10.99 17.62 11.19 17.42 10.99 17.57 10.99 17.62"/>
          <path class="cls-1" d="m37.28,39.74c-.07.07-.13.15-.18.22.05-.05.11-.13.18-.22Z"/>
          <path class="cls-1" d="m37.82,40.64l-.18.38c.12-.21.16-.31.18-.38Z"/>
          <path class="cls-1" d="m37.98,41.58c.15-.13.25-.24.35-.33,0,0,0,0,0,0l-.36.34Z"/>
          <path class="cls-1" d="m28.24,33.71s-.03,0-.06.01c-.2.1-.11.08.06-.01Z"/>
          <path class="cls-1" d="m32.72,34.48c-.17.12-.34.23-.46.29-.01.11,0,.16.46-.29Z"/>
          <path class="cls-1" d="m24.36,31.75s0,0,.01-.01c0,0-.01-.01-.02-.02v.03Z"/>
          <path class="cls-1" d="m32.15,34.63c-.11.2-.04.21.11.14.01-.09.05-.22-.11-.14Z"/>
          <path class="cls-1" d="m40.02,44.34v.06c.05-.05.09-.09.12-.12l-.12.06Z"/>
          <path class="cls-1" d="m40.14,44.28l.12-.06s-.03-.02-.12.06Z"/>
          <path class="cls-1" d="m40.53,44.08l-.26.14s.02.08.26-.14Z"/>
          <path class="cls-1" d="m39.65,43.24l-.3.28c.06-.06.16-.15.3-.28Z"/>
          <path class="cls-1" d="m39.34,43.11c-.01.12-.48.75-.23.64l.24-.22c-.46.39.53-.86,0-.42Z"/>
          <path class="cls-1" d="m41.98,38.61l-.04.42c.27-.34.64-.8.8-.78.68-1.15-.64.74-.76.37Z"/>
          <path class="cls-1" d="m41.85,37.59c.24-.04.44-.45.62-.62-.34.22-.43.27-.62.62Z"/>
          <path class="cls-1" d="m37.67,33.4l.73-.71c-.18.03-.28.28-.73.71Z"/>
          <polygon class="cls-1" points="33.13 36.34 32.75 36.87 33.45 36.24 33.13 36.34"/>
          <polygon class="cls-1" points="37.81 30.72 37.95 30.65 37.55 30.78 37.81 30.72"/>
          <path class="cls-1" d="m30.53,23.95l-.87.91c.21-.11,1.22-1.1.87-.91Z"/>
          <path class="cls-1" d="m26.59,21.82c.41-.48.61-.85.12-.47,0,.13-.27.54-.12.47Z"/>
          <polygon class="cls-1" points="18.94 11.28 19.3 11.04 18.94 11.17 18.94 11.28"/>
        </g>
      </g>
      <g>
        <line class="cls-1" x1="3.18" y1="42.54" x2="43.18" y2="2.54"/>
        <g>
          <path class="cls-1" d="m45.06,4.43c-.22-.26-.79-.8-.74-.64l.9.98-.16-.34Z"/>
          <path class="cls-1" d="m42.93,3.08c.39.52,1.1,1.4,2.01,2.21-.83-.97-.44-.61-1.44-1.75-.05-.17.4.2.74.55-.22-.26.3.12-.26-.5-.8-.65-.92-.58-.43.12-.23-.18-.45-.45-.62-.63Z"/>
          <path class="cls-1" d="m35.8,7.3l.15.07c-.07-.05-.12-.07-.15-.07Z"/>
          <path class="cls-1" d="m31.77,10.3s-.08-.15-.16-.24c.04.09.07.16.16.24Z"/>
          <path class="cls-1" d="m30.14,9.86s.07.02.1.03c-.1-.07-.16-.11-.1-.03Z"/>
          <path class="cls-1" d="m35.8,7.3l-.39-.2c.3.31.27.18.39.2Z"/>
          <path class="cls-1" d="m44.41,6.12c-.03-.07-.1-.17-.2-.3.02.06.04.11.05.15.05.05.09.1.14.15Z"/>
          <path class="cls-1" d="m36.59,4.99l.03-.03c-.1-.11-.22-.25-.36-.4l.33.43Z"/>
          <path class="cls-1" d="m37.64,3.65c-.06,0,.72.8,1.06,1.15-.31-.34-.45-.52-.49-.6-.15-.15-.34-.33-.57-.55Z"/>
          <path class="cls-1" d="m40.92,3.17l-.08-.14s.04.09.08.14Z"/>
          <path class="cls-1" d="m35.57,5.67c-.12-.12-.23-.22-.3-.27.1.1.2.19.3.27Z"/>
          <path class="cls-1" d="m8.29,44.9c-.06-.06-.09-.09-.14-.14.07.09.13.15.14.14Z"/>
          <path class="cls-1" d="m2.97,42.34l-.02-.06c-.15-.15-.29-.3-.44-.45l.46.51Z"/>
          <path class="cls-1" d="m28.02,9.94s.01,0,.02.01c-.06-.12-.06-.09-.02-.01Z"/>
          <path class="cls-1" d="m18.53,20.61c.82.6.73,1.1,1.69,1.72-.33-.29-1.08-1.4-1.69-1.72Z"/>
          <path class="cls-1" d="m44.27,6.05s-.02.05-.04.06c.05,0,.06-.01.04-.06Z"/>
          <path class="cls-1" d="m20.22,22.33s0,0,0,0l.09.06s-.07-.04-.1-.06Z"/>
          <path class="cls-1" d="m25.97,12.95c.15.13.26.23.37.32-.08-.08-.19-.17-.37-.32Z"/>
          <path class="cls-1" d="m28.99,12.2l-.15-.06c.09.05.13.06.15.06Z"/>
          <path class="cls-1" d="m26.11,15.05c-.09-.04-.2-.14-.13,0,.04.04.08.06.11.09-.1-.12-.13-.19.02-.09Z"/>
          <path class="cls-1" d="m25.1,16.08c.07.06.12.09.18.14,0-.03,0-.05-.01-.07l-.17-.07Z"/>
          <path class="cls-1" d="m11,41.42c-.25-.2-.51-.43-.76-.67.58.55.63.9.76.67Z"/>
          <path class="cls-1" d="m43.96,5.68c.19.21.29.31.31.37,0-.02,0-.05,0-.08-.12-.12-.23-.23-.3-.3Z"/>
          <path class="cls-1" d="m32.35,21.37l-.28.04c.12.03.22.01.28-.04Z"/>
          <path class="cls-1" d="m18.19,34l.06.13s.02-.03-.06-.13Z"/>
          <path class="cls-1" d="m31.7,22.01c-.31-.25-.5-.38-.64-.46.06.07.1.13.19.22l.45.23Z"/>
          <path class="cls-1" d="m10.23,40.74s0,0,0,0c0,0,0,0,0,0Z"/>
          <path class="cls-1" d="m11.05,43.7c.18-.13-.95-1.1-1.52-1.73-.11-.48.85.68,1.45,1.16-.16-.39-1.03-1.44-.91-1.48.18.17.26.21.45.45-.71-.95.32-.4-.58-1.59.1.08.2.16.28.24-.55-.5-1.08-1.03-1.46-1.41.05-.09-.53-.79.18-.13-.06.02.21.3.4.53l-.22-.37c1.05.92.24.44.97,1.17-.18-.46-.83-1.44-.44-1.27.98.94.07.58,1.07,1.29l-.53-.2c1.64,1.39-.21,0,1.53,1.5.5.06-.24-.74.26-.68-.48-.58-.81-.77-1.29-1.36-.65-1.27,2.66,2.17,1.61.66-.58-.7-1.77-1.94-.97-1.46l1.03,1.14c.32-.11-1.44-1.68-.49-1.18.39.47.19.53.35.62,1,.71-.51-.72-.4-.83l.99.94c.08-.38-.37-1.32-.29-1.75.27.3.53.64.88.88-.16-.8.79-.56,1.67-.3l-.71-.95s.43.32.56.51c.43.2-.52-.53-.79-.92,0-.13.57.39.77.68-.49-.91-.92-2.12.19-1.45l.2.29c.51.16-1.51-1.9-.57-1.28l.12.18c.73-.02.39-1.19,1.93-.22-1.14-1.25.9.16-.74-1.53,1.04.61,1.28.97,2.13,1.23.16,0-.92-1.16-1-1.43l.87.87-.78-1.05,1.11.97-.13-.32c-.09-.01-.47-.31-.72-.57-.25-.54.96.25,1.41.7l-.39-1.08c.34.36.41.54.58.81-.71-1.07.95.88.31-.1-.22-.18-.51-.53-.68-.71.61.44.81.26.73-.11l.57.63c.41-.1.25-.83.55-1.1-.38-.18-1.4-1.24-1.42-1.43l.95.89c-.51-.62-.44-.26-1.02-1.07.21,0,1.12.98,1.36,1.34l-.19-.45c.28.27.4.44.74.8-.52-.63,1.15.7.23-.37l.28.27c.29-.28.11-.73.3-1.01-.79-.8-.52-.71-1.1-1.43.43.08,1.24.52,1.38.24-.25-.54-.63-.72-1.04-1.25.74.71.87.44,1.29,1.07.13-.37.17-.46-.1-1.36-.33-.26-.5-.35-.73-.62-.06-.18.43.17.77.53l.06.09c-.73-1.44,2.93,1.3,1.7-.49l.06.09-.5-1.08c.26,0,.46.63,1.01.97-.89-1.52.67-.32.13-1.39,2.34,1.94.56-.86,2.2.23l-.52-.49c-.42-.56.37.2.54.27-.4-.38-.53-.38-.76-.69-.01-1.2,1.96-.49,3.02-.64.36-.09-2.48-2.73-1-1.81l.85,1.01c-.67-1.57.95-.88.44-2.27.19.24.47.52.42.56.77.59.38-.31-.18-.87.13,0,.52.49.84.73.49.31-.63-1.1.09-.47.12.1.19.25.23.32-.27-.39.37-.2-.48-.92.54.21-.03-.66.56-.33-.79-.96.7.14-.51-1.13,1.27,1.29,1.32.74.82.04.35.42.49.31.99.89.1-.14-.03-.48-.71-1.12,1.75,1.31-.79-1.67,1.29.17-.33-1.04-.47-1.83-.46-2.45,1.26,1.29-.22.48,1.13,1.8-.22-.83-1.15-2.1-.54-2.09.25.1.51.6.7.84-.22-.83.7-.47.27-1.43.12.12.22.28.29.4.01-.09.31.06-.28-.51l.11.21c-.93-.76-1.55-1.97-1.98-2.42,1.57,1.75.68.15,2.64,2.4-.07-.14-.31-.46-.7-.84.16.06.41.27.8.77-.13-.5-.81-1.05-.63-1.21.28.28.35.42.67.77-.46-.63-.92-1.27-.54-1.18.16.18.4.38.35.42.16-.33-1.03-1.88-.23-1.63,1.14,1.3.49.31,1.56,1.35l-.17-.46-.57-.45c.15-.11-.51-.99-.05-.76l.34.53.04-.44-.54-.26c-.41-.67-1.35-1.32-.89-1.2.07.14.14-.12.83.44,0,0,0,0,0,0-.27-.4-.56-.82-.2-.65.36.31,1.15,1.19,1.39,1.4-.82-.95.06-.55-.8-1.56.19.25.75.8.87.91l-.66-.77c.29.17.41.27.84.72.31-.05-1.4-1.28-.61-.92.04.07.16.17.23.32.51.09-.04-.87.51-.71,1.12,1,.09.43,1.05,1.26.09-.48-.69-1.86-.16-1.88l-.17-.07c-1.46-1.54.94.54.38-.31.08.15.79.88.63.7.43.05.01-.75-.17-1.51l.35.42c.45.23.49-.09.78-.04-.35-.42-.22-.43-.82-.94,2.56,1.83-.48-1.88,1.68-.38-.03.04.24.43.28.4l-.08-.63c-.68-.63-.43-.36-1-.81-.35-.42-.57-.8-.51-.87.31.56,1.05,1.05,1.47,1.36-.21-.19-.41-.43-.62-.63,1.31,1.02-1.29-1.34-.31-.75l.33.35c-.1-.25-.49-.77-.31-.75.79.72.27.43.89,1.06.07-.16-1.21-1.65-.36-1,.16.26.1.33.26.59,1,.78.79.54,1.01.6h-.03s.59.2.59.2l-.29-.19c-1.83-2.11-.07-.65-1.18-2.13,1.04,1.41.68.74,1.52,1.61.29.19.63.38.85.64-.6-.78.69.39-.19-.74.28.27.12-.07.8.64-.1-.33-.51-.45-.84-.81-.76-1.12,1.56.72.53-.83-.31-.75-1.2-1.73-1.46-2.39.51.37.95,1.06.95,1.06.52.29.53.13.32-.29.22.26.45.44.79.72.01-.16-.95-1.06-.43-.77.29.33.76.84,1.02,1.19-.15-.35-.57-.97-.71-1.32.51.45.67.79.94,1.14-.1-.33-.13-.74-.86-1.53l-.35-.2c0-.08.68.63.78.8.5.7-.41-.12-.69-.39l-.1-.25c-1.69-1.54-.04.56-.28.61l-1.11-1.24.82,1.13c-.34-.27-1.02-.91-1.12-1.16-.69-.47.32.51-.42-.04-.11-.09-.16-.15-.2-.21l.25.45c-.23-.27-.85-.81-.61-.71-.87-.49.58,1.18-.38.36l-.06-.09c.14.66.84.89,1.66,2.1l-2.26-2,.84.89c-.06,0-.18-.02-.51-.37.49.69.39.36.89.97-.92-.66.01.72-1.39-.62.61.7.63.38.95.98-1.52-1.44.09.41-.7-.15-.73-.8-.21-.51-1.01-1.07,1.22,1.36-.51-.05-.36.29,1.02,1.03.21.64.39,1.15-.33-.36-.88-.25-1.4-.47l-.17-.18c1.01,1.07.65,1.03.75,1.36-.62-.63-.84-.89-1.06-1.23l-.1.11c.31.36.45.57.5.76l-.75-.8c-.1.19.62,1.21-.08.88.71.73,2.17,1.87,2.45,2.55-.4-.38-1.08-1.05-1.18-1.26.03.07.26.39.06.25l-.58-.74c-.37-.2.51.6.38.6-.56-.56-.45-.35-.88-.8-.04-.07.29.17.1-.07-.18-.02-.6-.26-1.05-.65.32.31.75.75.77.88-.1.19-.72-.62-1.09-.82.35.42-.14.11.69.95-.05.04-.44-.34-.69-.55.29.44-.25.46.73,1.26l.08.04s.01.03.02.05h0s0,0,0,0c.58,1.08-.99.04-.87.64l-.28-.28c.17.47-.14.51.36,1.22-.04.04-.61-.41-.93-.76.1.32.4.65-.22.35-.37-.6-.47-.39-.24-.47-.39-.1-.87-.51-.26.41-.66-.77-1.01-.79-.87-.51l.61.41c.03.18-.1.19-.23.19l-.9-.98c-1.44-.85,1.41,2.48-.73.79.58.74.62.3,1.32,1.14-.26,0-1.76-1.2-1.8-1.16-.71-.33,1.2,1.55.65,1.39.36.31,1.28,1.18,1.45,1.65-.26.01-1.58-1.24-1.76-1.6,0-.06.13.03.24.14-.08-.17-.16-.37-.58-.68l.32.35c-.41-.27-.56-.05-1.07-.65.22.42.51.6.76.69-.66-.31-.29.26-.8.11.21.16.63.52.6.55-.68-.15.52.75.49,1.08-.61-.41-1.19-1.26-.94-.65-.46-.24-.91-.87-1.14-1.18.48.81-.73-.12-.95-.14l-.18-.36c.11.21.06.25.02.29l.72.62c-.17-.07-.21-.03-.49-.31.39.49,1.16,1.08,1.65,1.78-.41-.27.16.57-.75-.29.52.09-.92-.87-.88-1.2.07.14.02.18-.14.11-.11-.09-.18-.19-.21-.26-1-.59.91,1.1.68,1.29-.48-.53-1-.9-.93-.76.1-.08.88.8,1.18,1.26-.53-.26.14.44.03.46l.26.1c.47.53.34.53.4.78-.4-.38-.18-.36-.39-.49.78.99-1.15-.68-.7.06-.41-.27-.95-.94-1.24-1.11.49.82-.87-.51-.5.2.72.62.57.45,1.1,1.23l-.19-.76.8,1.16c.1-.08-.24-.61-.08-.54.46.64.3.46.91.98-1.13-.9.36.82-.46.27l-1.67-1.68c-.95-.54.5,1.22-.19,1.06l.38.21c.63.7-.07.26.11.61-.55-.57-.81-.72-1.19-1.03.42.41-.23.16.86,1.29l-.85-.62c-.51-.09,1.35,1.83.95,1.85-.55-.67-1.03-.97-1.33-1.54-.07.06-.24.02.15.41-.39-.31.56.94-.03.48.22.27.79.87.67.9-.12-.1-.28-.28-.28-.28.28.28.26.5.94,1.05-1.95-1.53-.46.72-2.14-.6.04.34.04.7-.06.87-.16-.18-.28-.28-.19-.25-.71-.33,1.49,1.72.7,1.35-1.01-.79-.38-.6-.78-.88-1.87-1.81,0,.51-1.22-.42l-.07-.14c-.73-.51.43.96.12,1.01,0,0-.15-.17-.28-.28.81,1.06.89,1.6.98,2.03-.67-.77-.3-.46-1.07-1.16.03.18,1.2,1.15,1.25,1.51-.44-.34-.9-.58-1.69-1.34l.1-.19c-1.08-.93-.15.22-.41.12l-.43-.45c-.08.37,1.03,1.48.71,1.64l.36.31c.97,1.23-.73-.51-.04.44l-1.16-1.08c.18.36.78,1.38.83,1.75-.74-.92-.98-1.52-1.36-2.12-.09.08-.21.37.3.97-.07-.14-.3-.46-.1-.32.77.98,1.07,1.55.88,1.7-2.13-2.2-.99-.1-2.8-1.66.5,1.1-.94.26-1.16.74,1.81,1.56-.05.15,1.7,1.86.03.19-.03.2-.15.09l-1.28-.78c-.56-.44-.3-.46-.7-.84-.31.05-.81-.66-1.39-1,.64.59.82.95.49.81l.94.65c.67,1.17-1.67-1.23-1.01-.07l-.46-.62c.19.45-.49.47.77,1.98-.22-.18-.73-.62-.79-.8-.52.1.79,2.17-.31,1.55l-.4-.45c.06.18.69.89.2.54-.17-.18-.4-.45-.45-.44.12.18.59.89.26.72l-.41-.54c-.86-.25.7,1.62.73,2.17-1.24-1.25-1.89-1.41-2.21-1.5l-.17-.18c-.51.2.43,1.63.6,2.44-1.55-1.15-1.25.12-2.33-.31.28.18.96.98,1.03,1.16-.33-.18.65,1.07-.48-.08h.05c-1.18-1.07-1.04-.61-1.19-.52l1.47,1.51c-2.49-1.85-.04,1.64-2.16-.13.3.45.2.54.49.99l-.8-.81c-.42,0-.63.02-.7.47l-.52-.63c-.2.1,2.12,2.5,2.03,2.68l-1.24-1.15c-.24.28-1.55-.51-.73.83-.17-.18-.51-.53-.52-.62-.15.09-1.28-.34.4,1.26-1.07-1.07-.37.16-.04.78l-.77-.81c.89,1.13,1.16,1.4,1.27,1.85-.14-.06-.67-.6-.41-.45-.54-.28.64.85.07.59l-.44-.56c-.2.07.09.33.6.99.23.4-.45.06-1.19-.64.42.45.92,1.11.64.98-.28-.26-.42-.45-.49-.55-.76-.31.58,1.25-.35.63-.26-.26-.41-.38-.5-.44.2-.16.39-.26.43-.19-.73-.73-1-.71-1.89-1.83.43.66,1.42,2.05.94,1.85-.08-.06-.15-.13-.27-.23l-.07-.1c-.1-.04-.07.06.03.21-.16-.07-.28-.13-.34-.1-.62-.58-.49-.16-.59-.12.8.79.58.76,1.32,1.32-.07-.05-.08-.11-.07-.19-.01-.03-.01-.06-.05-.11.02.02.04.05.06.07.02-.07.07-.15.13-.23.35.46.63.86.11.5.47.55.96,1.11,1.18,1.38-1.21-1.01-2-1.42-2.71-2.08.23.67-.22.81,1.13,2.44.13.25-.5-.36-.76-.57-.11-.19-.05-.21-.24-.44.26.51-.22.52.79,1.59-.63-.31-.87-1.05-.92-.66l-.29-.35c-2.09-1.24,1.97,3.36-.64,1.69.16.1.24.14.42.31-1.48-.41-.22,2-2.25,1.03-.45-.15.2.53.61,1.13l-.89-.82.83,1.14c.5.95-2.48-1.71-1.4-.06l.61.54c-.21,0,.02.66-.63-.02.09.12.56.63.23.37l-.45-.44.52,1.02c-.52-.13-1.74-1.8-2.11-1.61.07.28,1,1.6,1.34,1.86.06-.02.39.17.84.61l.14.33c1.3,1.33,2.57,2.76,3.73,3.44l-.64-.97.69.59-.1.18c.68.52.2-.06-.11-.48.35.33.61.54.77.63l-1.1-1.42c.54.5.95,1.1,1.34,1.27-.51-.66-1.23-1.08-1.49-1.59.68.52,1.14,1.03.72.43.35.33.55.56.66.75-.32-.49.05-.39-.61-1.13.82.66.09-.47,1.32.79-.27-.32-.83-1.12-.81-1.25,1.35,1.63.37-.19,1.93,1.44-1.24-1.44-.23-.96-.79-1.89.1.12.29.35.21.3.21,0,.65.38.97.57-1.1-1.12-1.19-1.53-1.79-2.3,1.19.94,1.23,1.38,2.29,2.36-.9-.89-.68-1.11-1.47-1.82.76.57.4.24,1.37,1.11-1.37-1.4-.15-.32-.92-1.25.82.55,1.33,1.26,1.06.69.5.35.85.98.85.98Zm1.21-6s.01.01.02.02c-.01.05-.02.09-.03.12,0-.03.01-.06.01-.14Zm.29-.32c-.07,0-.12.05-.16.1-.29-.26-.56-.56-.51-.57.17.2.4.29.67.47Zm-6.15-4.87c-.06-.16.11-.02.28.14,0,.04,0,.09.01.18.03.03.06.07.09.1-.15-.16-.28-.3-.38-.42Z"/>
          <path class="cls-1" d="m7.35,33.64s.04.06.04.08c.08.06.15.11.21.15-.08-.09-.16-.18-.23-.27,0,.01-.01.02-.01.04Z"/>
          <path class="cls-1" d="m35.97,7.38h-.02s.07.04.13.09c-.04-.03-.07-.06-.1-.09Z"/>
          <polygon class="cls-1" points="18.25 34.73 18.05 34.53 18.2 34.73 18.25 34.73"/>
          <path class="cls-1" d="m40.37,8.44c.07.07.15.13.22.18-.05-.05-.13-.11-.22-.18Z"/>
          <path class="cls-1" d="m41.27,7.9l.38.18c-.2-.12-.31-.16-.38-.18Z"/>
          <path class="cls-1" d="m42.22,7.74c-.13-.15-.24-.25-.33-.35,0,0,0,0,0,0l.34.36Z"/>
          <path class="cls-1" d="m34.35,17.48s0,.03.01.06c.1.2.08.11-.01-.06Z"/>
          <path class="cls-1" d="m35.11,13c.12.17.23.34.29.46.11.01.16,0-.29-.46Z"/>
          <path class="cls-1" d="m32.38,21.36s0,0-.01-.01c0,0-.01.01-.02.02h.03Z"/>
          <path class="cls-1" d="m35.26,13.57c.2.11.21.04.14-.11-.09-.01-.22-.05-.14.11Z"/>
          <path class="cls-1" d="m44.98,5.7h.06c-.05-.05-.09-.09-.12-.12l.06.12Z"/>
          <path class="cls-1" d="m44.91,5.58l-.06-.12s-.02.03.06.12Z"/>
          <path class="cls-1" d="m44.71,5.19l.14.26s.08-.02-.14-.26Z"/>
          <path class="cls-1" d="m43.88,6.07l.28.3c-.06-.06-.15-.16-.28-.3Z"/>
          <path class="cls-1" d="m43.74,6.37c.12.01.75.48.64.23l-.22-.24c.39.46-.86-.53-.42,0Z"/>
          <path class="cls-1" d="m39.24,3.74l.42.04c-.34-.27-.8-.64-.78-.8-1.15-.68.74.64.37.76Z"/>
          <path class="cls-1" d="m38.22,3.87c-.04-.24-.45-.44-.62-.62.22.34.27.43.62.62Z"/>
          <path class="cls-1" d="m34.03,8.05l-.71-.73c.03.18.28.28.71.73Z"/>
          <polygon class="cls-1" points="36.97 12.59 37.5 12.97 36.87 12.27 36.97 12.59"/>
          <polygon class="cls-1" points="31.35 7.91 31.28 7.77 31.41 8.17 31.35 7.91"/>
          <path class="cls-1" d="m24.58,15.19l.91.87c-.11-.21-1.1-1.22-.91-.87Z"/>
          <path class="cls-1" d="m22.45,19.13c-.48-.41-.85-.61-.47-.12.13,0,.54.27.47.12Z"/>
          <polygon class="cls-1" points="11.91 26.78 11.67 26.42 11.8 26.78 11.91 26.78"/>
        </g>
      </g>
    </g>
  </g>
</svg>