<?xml version="1.0" encoding="UTF-8"?>
<svg id="Capa_2" data-name="Capa 2" xmlns="http://www.w3.org/2000/svg" viewBox="0 0 35.47 38">
  <defs>
    <style>
      .cls-1 {
        fill: #7e532b;
      }
    </style>
  </defs>
  <g id="Capa_1-2" data-name="Capa 1">
    <g>
      <rect class="cls-1" x="3.24" y="2" width="8" height="34"/>
      <g>
        <path class="cls-1" d="m9.9,36c.17.04.56.02.49-.1l-.66-.09.18.19Z"/>
        <path class="cls-1" d="m11.13,35.18c-.32-.14-.88-.31-1.49-.22.64.14.37.18,1.13.33.08.12-.21.21-.46.19.17.04-.15.19.27.26.51-.16.53-.36.11-.57.15-.05.32,0,.44,0Z"/>
        <path class="cls-1" d="m12.16,23.27l-.08.08s.07-.05.08-.08Z"/>
        <path class="cls-1" d="m12.53,15.89c.02.06.08.08.14.08-.04-.05-.08-.1-.14-.08Z"/>
        <path class="cls-1" d="m13.26,14.63s-.03.05-.05.07c.06-.03.09-.06.05-.07Z"/>
        <path class="cls-1" d="m12.16,23.27l.21-.2c-.22-.01-.16.1-.21.2Z"/>
        <path class="cls-1" d="m9.53,33.54s.09.08.17.11c-.03-.03-.05-.07-.07-.1-.04,0-.07,0-.1,0Z"/>
        <path class="cls-1" d="m12.7,26.52v.06c.08.02.17.03.27.05l-.27-.11Z"/>
        <path class="cls-1" d="m12.8,29.02c.02-.06-.54-.08-.78-.1.23.03.34.07.39.12.11,0,.23,0,.4-.03Z"/>
        <path class="cls-1" d="m11.81,32.98l.08.07s-.05-.05-.08-.07Z"/>
        <path class="cls-1" d="m12.82,24.73c.08,0,.16-.01.2-.02-.07,0-.14,0-.2.02Z"/>
        <path class="cls-1" d="m8.34,33.36s0,.07,0,.1c.01-.06.02-.1,0-.1Z"/>
        <polygon class="cls-1" points="11.24 36.15 11.2 36.18 11.19 36.49 11.24 36.15"/>
        <path class="cls-1" d="m13.98,12.32h-.01c.06.07.05.04.01,0Z"/>
        <path class="cls-1" d="m.91,4.57c.5-.3.65.66,1.2.18-.22.05-.88-.63-1.2-.18Z"/>
        <path class="cls-1" d="m9.61,33.47s-.01-.07,0-.1c-.02.05-.02.08,0,.1Z"/>
        <path class="cls-1" d="m2.11,4.76h0s.05-.04.05-.04c-.02.02-.04.03-.06.04Z"/>
        <path class="cls-1" d="m13.64,7.01c-.1.01-.17.03-.25.05.06,0,.13-.01.25-.05Z"/>
        <path class="cls-1" d="m12.84,10.97l.08-.1c-.05.04-.07.07-.08.1Z"/>
        <path class="cls-1" d="m12.84,4.81c.04-.08.12-.12.05-.22-.03.01-.05.03-.07.04.08.03.11.08.02.18Z"/>
        <path class="cls-1" d="m12.84,1.61c-.04.05-.08.09-.11.14l.03.08.08-.22Z"/>
        <path class="cls-1" d="m5.6,33.26c-.17.11-.34.22-.51.33.4-.24.54-.25.51-.33Z"/>
        <path class="cls-1" d="m9.85,33.54c-.14-.01-.21-.03-.24-.06,0,.02.02.05.03.07.08,0,.16,0,.21,0Z"/>
        <path class="cls-1" d="m8.41,5.19s.06-.04.08-.06c-.05.03-.08.05-.08.06Z"/>
        <path class="cls-1" d="m5.52,19.26l.07.08s0-.06-.07-.08Z"/>
        <path class="cls-1" d="m8.41,5.02c.2-.11.31-.19.39-.25-.05.02-.09.05-.14.08-.08.06-.16.12-.24.18Z"/>
        <path class="cls-1" d="m5.09,33.59h0s0,0,0,0Z"/>
        <path class="cls-1" d="m6.44,32.81c-.41.53-.61.78-.89,1.15-.32.21.39-.54.69-.92-.12.13-.45.45-.7.66-.11.1-.19.15-.18.12.12-.12.17-.17.32-.3-.29.24-.3.17-.33.13-.03-.05-.07-.08-.44.08.07-.05.13-.09.18-.13-.37.24-.75.49-1.01.64-.01-.09-.47.05.02-.25-.01.07.18-.03.33-.08-.07,0-.14.01-.21.01.69-.44.24,0,.75-.29-.23.02-.8,0-.6-.22.68-.23.23.21.83-.16-.09.08-.17.17-.26.26,1.07-.6-.07.1,1.07-.52.2-.13-.35.04-.15-.11-.38.03-.56.11-.94.13-.68-.29,1.71-.3.8-.75-.45-.12-1.31-.17-.86-.52l.77.12c.08-.45-1.1-.26-.59-.73.3.08.25.35.35.28.61-.3-.44-.22-.44-.45l.68-.05c-.11-.48-.6-1-.72-1.53.2.03.42.12.62,0-.34-.67.08-1.42.49-2.07l-.59-.25c0-.06.27-.11.38-.04.22-.25-.37-.01-.6-.13-.04-.14.34-.19.51-.1-.5-.44-1.07-1.26-.44-1.73l.17.09c.24-.36-1.2-.41-.66-.75l.1.06c.25-.79-.28-1.66.6-2.26-.85-.11.38-.78-.8-.83.58-.45.79-.32,1.19-.95.05-.17-.74-.25-.86-.46h.62s-.65-.29-.65-.29l.74-.15-.16-.2c-.04.08-.28.17-.45.15-.28-.31.43-.75.75-.75l-.52-.72c.25.02.33.14.49.23-.63-.39.65-.07.07-.42-.14.05-.37-.03-.49-.03.37-.18.38-.58.22-.88l.42.06c.11-.54-.2-1.13-.2-1.74-.2.22-.93.17-1.01-.01l.65-.07c-.4-.11-.25.18-.74-.05.08-.23.74-.15.95-.02l-.23-.27c.19-.02.3.05.55.06-.4-.11.65-.47-.05-.63l.19-.02c0-.6-.22-.88-.25-1.37-.56,0-.44-.2-.89-.35.18-.36.62-.76.57-1.2-.28-.31-.48-.09-.81-.23.51-.02.46-.46.83-.23-.08-.52-.1-.67-.52-1.33-.21.07-.3.15-.48.11-.08-.12.21-.27.46-.26l.05.03c-.77-.74,1.49-1.71.43-2.3l.05.03-.56-.61c.09-.28.39.17.7-.04-.43-.33-.4-.59-.33-.84.03-.12.08-.24.07-.37,0-.11-.05-.09-.19-.17.76,0,.73.03.63-.08-.09-.08-.26-.32.22,0l-.36-.26c-.35-.29.2.12.29.18-.28-.23-.32-.23-.51-.4-.07-.12-.11-.21-.11-.28.15,0,.46.17.66.37.21.21.3.45.29.58.37.1.24-1.84.8-.99l-.17.66c1.36-.79.83.03,1.48-.64-.11.15-.22.35-.24.35-.25.48.08.02.43-.37,0,.04-.27.35-.42.55-.24.28.61-.58.24-.16l-.03.03s-.04.04-.07.07c-.04.04-.1.09-.13.12.03-.02.05-.05.09-.08.09-.06-.05.12.42-.31-.26.29.25,0-.08.3.31-.16.24-.06.19,0-.04.06-.05.09.38-.06-.9.37-.73.36-.3.39-.27.02-.28.08-.66.1,0,.02.05.03.15.04.1.07.26.13.49.1-1.08.46.87.92-.52,1.18.49.74.82,1.43,1.03,2.09-.9-.02-.09-.74-1.04-.71.37.63,1.15,1,.93,1.62-.12.16-.39-.09-.55-.15.37.63-.08,1.22.41,1.78-.08,0-.18-.06-.24-.12.03.11-.13.26.28.25l-.11-.11c.6-.18,1.24.44,1.56.46-1.18-.19-.3.56-1.78.26.08.07.27.16.55.15-.08.11-.24.14-.55.03.22.4.66.26.65.62-.2,0-.28-.07-.51-.11.39.18.77.36.61.67-.12-.02-.28.02-.27-.07.06.52,1.03.89.66,1.46-.86-.17-.28.19-1.03.23l.22.31.36-.12c-.01.27.53.51.29.74l-.31-.2.14.51.28-.29c.38.27.94-.03.74.33-.08-.07,0,.27-.45.41h0c.24.13.49.27.3.47-.24.05-.83-.04-.98,0,.62.13.17.63.84.8-.16-.06-.55-.06-.63-.04l.51.11c-.16.12-.24.14-.55.12-.09.38.95-.12.54.33-.04-.03-.12-.02-.19-.09-.21.45.32.87.07,1.28-.75.12-.18-.36-.82-.22.14.59.9,1.23.72,1.8l.08-.11c1.06.08-.52.43-.02.72-.08-.07-.59-.09-.47-.07-.17.39.26.8.59,1.4l-.27-.07c-.24.23-.14.61-.26.86.27.07.23.22.62.13-1.55.77.83,1.47-.46,2.16,0-.08-.24-.2-.24-.13l.25.58c.46-.05.28-.08.64-.2.27.07.49.24.49.38-.31-.26-.74,0-1,.12.14-.02.3.02.44.01-.82.3.93.05.38.47l-.24-.02c.12.16.44.3.38.47-.53.07-.25-.17-.69-.18.03.24,1.01.47.48.68-.15-.1-.15-.24-.3-.34-.63.23-.47.26-.57.43v-.02s-.27.4-.27.4l.17-.1c1.39.3.25.6,1.17,1-.86-.39-.5-.06-1.11-.09-.17.1-.36.26-.53.21.49.19-.38.31.33.58-.19.01-.02.2-.51.16.15.24.34-.06.58-.04.67.38-.81.89.11,1.43.38.47,1.03.55,1.36.99-.31.15-.71-.12-.71-.12-.29.24-.23.41-.01.64-.17-.05-.31,0-.53.07.05.18.71.12.42.35-.22-.04-.57-.09-.78-.18.18.21.54.42.72.64-.34.06-.52-.13-.74-.21.15.24.31.63.85.71l.19-.16c.03.09-.46.05-.56-.02-.42-.21.19-.3.38-.31l.12.16c1.14-.16-.18-.62-.12-.93l.83.13-.69-.32c.22-.07.68-.11.81.04.41-.22-.3-.2.16-.39.07-.02.11-.01.14,0l-.25-.22c.17.04.59-.04.47.1.48-.39-.62-.63,0-.78l.05.03c-.28-.54-.61-.05-1.33-.46l1.51-.27-.61-.05c.02-.06.07-.17.31-.15-.42-.21-.27.04-.66-.09.56-.27-.26-.75.71-.81-.46-.1-.36.26-.68-.03,1.05-.08-.18-.33.3-.58.54.08.25.31.74.06-.91-.15.2-.48.02-.69-.73,0-.3-.45-.54-.8.24.02.4-.66.66-.98h.12c-.73-.05-.6-.39-.75-.63.44,0,.61.05.81.19v-.23c-.24-.05-.36-.13-.45-.27l.55.06c-.03-.31-.65-.62-.28-1.01-.51-.02-1.43.31-1.77-.1.28-.02.75-.03.86.08-.04-.04-.23-.13-.11-.2l.47.17c.2-.18-.39-.09-.35-.24.39,0,.28-.11.6-.09.04.04-.16.12,0,.18.07-.16.31-.36.6-.42-.22.01-.53,0-.58-.12-.03-.31.48-.1.68-.28-.27-.07,0-.27-.58-.27,0-.09.28-.11.44-.14-.26-.16-.07-.74-.7-.56l-.04.04s-.01-.02-.03-.03h0s0,0,0,0c-.59-.52.33-1.08.08-1.59h.2c-.23-.31-.13-.68-.56-.9,0-.09.36-.21.6-.18-.15-.23-.37-.26-.04-.6.34.24.31-.08.25.24.17-.3.49-.37-.05-.7.51.11.64-.23.49-.37l-.36.21c-.07-.16-.03-.31.01-.45l.67.08c.81-.62-1.38-1.13-.02-1.6-.47-.17-.33.34-.87.19.09-.29,1.04-.59,1.05-.68.37-.39-.97-.37-.72-.78-.24.05-.87.1-1.09-.21.09-.29,1-.35,1.19-.17.02.07-.06.1-.14.1.09.09.19.21.45.1l-.24-.04c.24-.14.22-.54.61-.44-.23-.22-.39-.09-.51.07.34-.37.01-.58.24-.95-.13.06-.41.12-.41.06.29-.56-.45-.24-.55-.62.36-.21.86.08.56-.3.24-.23.63-.05.82.04-.46-.35.3-.65.38-.84l.19.18c-.11-.11-.11-.2-.11-.29l-.48.1c.08-.11.09-.2.28-.2-.31-.11-.79.08-1.21-.13.24-.14-.26-.43.37-.48-.21.45.63-.05.73.33-.08-.07-.07-.16.01-.27.07-.02.13.02.17.04.56-.43-.71-.2-.7-.64.35.06.67-.1.6-.18,0,.18-.59.09-.86-.08.28-.29-.21-.31-.17-.46l-.13.17c-.35-.06-.31-.2-.42-.4.28-.02.19.18.31.11-.62-.22.65-.5.23-.81.24-.14.67-.01.83-.14-.46-.34.49-.37.11-.74-.48.1-.36.12-.83-.13l.34.6-.69-.38c0,.18.3.38.22.49-.39-.18-.27-.16-.67-.08.72-.25-.42-.49.07-.77h1.18c.53-.42-.61-.75-.31-1.31l-.21.18c-.47-.07-.07-.34-.26-.52.39.02.54-.1.78-.17-.29,0,.03-.41-.76-.46l.52-.25c.21-.45-1.12-.51-.99-.94.43.13.71-.07,1.02.22,0-.14.08-.27-.2-.28.25-.04-.53-.53-.16-.73-.17-.07-.59-.03-.55-.25.08-.04.2-.04.2-.04-.2.03-.27-.27-.7.01.62-.41.59-.87.55-1.24-.04-.39-.11-.7.42-1.36-.12-.32-.23-.67-.27-.97-.08,0-.13.01-.19.02.14-.12.19-.2.23-.16-.24-.37-1.36,1.13-1.53.72.19-.64.58-.35.58-.59.48-.65.21-.61-.11-.49-.34.11-.71.29-.73-.09l.16-.08c-.06-.22-.37-.1-.68.07-.32.17-.65.38-.91.33,0,0,.06-.11.06-.2-.55.66-1.23.88-1.56,1.07.11-.51.16-.27.1-.79-.16.07.05.83-.28.97-.11-.28-.34-.52-.37-1.07l.31-.03c-.16-.71-.4.02-.56-.1l.02-.31c-.23.05-.35.27-.48.47-.15.2-.33.38-.66.36l.1.24c-.2.78-.38-.44-.6.14l-.35-.79c-.23.19-.59.76-.86.91-.14-.59.26-.88.51-1.23-.28,0-.95.06-.85.45.06-.08.09-.27.26-.15-.02.62-.14.93-.58.91-.7-1-1.2-.86-1.85-.97-.06.23-.19.37-.6.17.28.77.22,1.19.1,1.67-.12.47-.3.99-.25,1.65,1.19-.13.03.37,1.26.53.08.24.06.32-.02.34-.24.19-.49.51-.73.64-.36.12-.27-.16-.54-.15-.09.38-.52.16-.84.41.44-.05.63.13.46.35l.56-.3c.65.53-1.03.45-.38.99l-.38-.17c.23.27,0,1,.97,1.27-.14.05-.48.11-.56,0-.15.65,1.05,1.45.44,1.95l-.3-.05c.09.12.56.21.26.36-.12,0-.3-.05-.32,0,.1.06.52.32.35.48l-.34-.14c-.39.63.82.97,1.02,1.51-.88,0-1.17.5-1.31.75h-.12c-.11.73.73,1.25,1.08,1.93-.96.42-.4,1.44-.94,2.12.16-.1.69.02.77.14-.18.16.61.44-.2.42l.02-.06c-.79.12-.58.45-.6.71l1.06.04c-1.54.67.56,1.76-.81,2.13.26.16.26.36.53.52h-.57c-.14.44-.22.67-.08,1.22l-.4-.11c-.04.31,1.63.4,1.67.68l-.85.09c.01.55-.73,1.1.04,1.64-.12,0-.37-.02-.4-.11-.02.26-.57,1,.59.9-.76,0-.07.56.26.86l-.56-.05c.71.25.91.26,1.1.61-.07.08-.45.07-.3-.04-.29.27.53.21.23.55l-.36-.12c-.04.28.15.26.56.42.22.18-.14.54-.64.58.31.04.72.19.57.36-.19.02-.31-.04-.37-.07-.38.47.65.7.1,1.03-.18,0-.28.03-.33.05.01-.38.04-.68.08-.65-.51,0-.6.3-1.31.06.39.24,1.23.66.99.96-.05.01-.1.03-.18.04l-.06-.03c-.05.07,0,.13.08.19-.08.09-.15.15-.15.24-.42.03-.23.35-.25.5.56-.01.47.19.94,0-.04.02-.07-.03-.09-.13-.02-.02-.02-.05-.06-.06h.05c-.02-.09-.03-.22-.04-.37.29.12.53.24.21.41.36.08.73.16.91.21-.78.21-1.21.61-1.69.66.32.46.21,1.09,1.26,1.38.14.13-.3.15-.47.2-.11-.08-.09-.17-.24-.21.27.16.11,1.09.84,1-.33.51-.68-.14-.56.49l-.23-.03c-.59.86-.12,1.37.31,1.61.43.31.82.32.06,1.73.09-.19.14-.28.26-.41l-.07.24c.5.25,1.46.09,2.24,0,.8-.1,1.48-.13,2.19.37.32.21.35-.26.55-.62l.07.6.33-.7c.47-.51.81,1.48,1.41.52l-.08-.41c.21.08.68-.24.64.23.02-.07.07-.42.15-.21v.32s.53-.54.53-.54c.41.23-.06,1.25.53,1.32.22-.12.63-.92.55-1.13-.09-.02-.23-.2-.23-.51l.2-.16c.04-.93.19-1.88-.3-2.54l-.34.57-.11-.45.29-.03c-.16-.42-.27-.05-.39.21-.03-.24-.08-.41-.14-.5l-.34.89c-.04-.36.15-.72-.08-.92-.16.41.15.82-.11,1.09-.17-.42-.12-.77-.31-.41-.03-.24.01-.39.09-.5-.17.29-.46.12-.55.62-.17-.52-.58.14-.57-.75-.05.21-.3.69-.46.73.29-1.06-.59-.06-.52-1.19-.11.47-.3.58-.51.63-.11.03-.22.04-.33.08-.1.04-.08.11-.14.24.01-.08.04-.23.04-.18-.06-.08-.04-.36-.03-.54-.13.78-.3.96-.57,1.45.15-.76.39-.92.57-1.65-.18.64-.33.63-.53,1.16.13-.47.03-.23.33-.88-.53.98-.12.17-.54.77.21-.48.59-.92.31-.62.1-.15.23-.31.33-.44.08-.11.16-.21.16-.21Zm-1.71-3.43h.01c.01.07.02.12.03.16,0-.03-.02-.08-.04-.16Zm0-.64c-.02.08-.03.17-.02.28-.19.02-.39,0-.38-.07.13.03.24-.12.41-.21Zm-3.9,1.34c-.08-.1.03-.13.15-.15,0,.05.03.1.07.18.02,0,.05,0,.07.01-.11,0-.21-.02-.28-.04Z"/>
        <path class="cls-1" d="m1.57,30.27s.04.02.04.04c.05-.02.09-.04.13-.06l-.18-.04v.05Z"/>
        <path class="cls-1" d="m12.07,23.36h.01s-.04,0-.08.01c.03,0,.04,0,.07-.01Z"/>
        <polygon class="cls-1" points="5.8 19.96 5.66 19.97 5.78 20.02 5.8 19.96"/>
        <path class="cls-1" d="m10.14,26.86s-.1.02-.14.05c.04,0,.09-.02.14-.05Z"/>
        <path class="cls-1" d="m10.02,28.37l-.2.21c.11-.09.17-.16.2-.21Z"/>
        <path class="cls-1" d="m9.74,29.53c.1.01.17.02.24.02h0s-.25-.02-.25-.02Z"/>
        <path class="cls-1" d="m9.08,11.05s-.01-.03-.03-.04c-.11-.11-.07-.03.03.04Z"/>
        <path class="cls-1" d="m10.39,16.55c-.1-.06-.2-.12-.27-.18-.04.1-.05.17.27.18Z"/>
        <polygon class="cls-1" points="8.4 5.19 8.41 5.19 8.41 5.19 8.4 5.19"/>
        <path class="cls-1" d="m10.13,16.12c-.11.1-.09.18,0,.26.04-.08.1-.17,0-.26Z"/>
        <path class="cls-1" d="m9.48,34.57l-.02.06s.07,0,.09,0l-.07-.06Z"/>
        <path class="cls-1" d="m9.55,34.64l.07.06s0-.05-.07-.06Z"/>
        <path class="cls-1" d="m9.76,34.83l-.14-.13s-.02.1.14.13Z"/>
        <path class="cls-1" d="m9.74,33.04l-.2-.02s.11.02.2.02Z"/>
        <path class="cls-1" d="m9.68,32.57c-.05.11-.43.28-.31.44h.16c-.3-.06.49-.33.15-.44Z"/>
        <path class="cls-1" d="m12.2,30.62l-.16.39c.22-.07.51-.16.56.02.65-.49-.49.1-.4-.41Z"/>
        <path class="cls-1" d="m12.52,29.4c.1.21.32,0,.44,0-.2-.13-.25-.17-.44,0Z"/>
        <path class="cls-1" d="m12.52,20.62l.51.02c-.07-.16-.2,0-.51-.02Z"/>
        <polygon class="cls-1" points="9.88 18.94 9.56 19.09 10.03 19.17 9.88 18.94"/>
        <polygon class="cls-1" points="13.52 17.95 13.59 18.02 13.41 17.75 13.52 17.95"/>
        <path class="cls-1" d="m13.34,1.87l-.63.47c.11.09.82-.28.63-.47Z"/>
        <path class="cls-1" d="m5.87.54c-.13-.31-.47-.52-.57-.21.23.04.48.29.57.21Z"/>
        <polygon class="cls-1" points=".75 18.28 .54 18.15 .71 18.39 .75 18.28"/>
      </g>
    </g>
    <g>
      <rect class="cls-1" x="24.24" y="2" width="8" height="34"/>
      <g>
        <path class="cls-1" d="m25.57,2c-.17-.04-.56-.02-.49.1l.66.09-.18-.19Z"/>
        <path class="cls-1" d="m24.34,2.82c.32.14.88.31,1.49.22-.64-.14-.37-.18-1.13-.33-.08-.12.21-.21.46-.19-.17-.04.15-.19-.27-.26-.51.16-.53.36-.11.57-.15.05-.32,0-.44,0Z"/>
        <path class="cls-1" d="m23.31,14.73l.08-.08s-.07.05-.08.08Z"/>
        <path class="cls-1" d="m22.94,22.11c-.02-.06-.08-.08-.14-.08.04.05.08.1.14.08Z"/>
        <path class="cls-1" d="m22.22,23.37s.03-.05.05-.07c-.06.03-.09.06-.05.07Z"/>
        <path class="cls-1" d="m23.31,14.73l-.21.2c.22.01.16-.1.21-.2Z"/>
        <path class="cls-1" d="m25.94,4.46s-.09-.08-.17-.11c.03.03.05.07.07.1.04,0,.07,0,.1,0Z"/>
        <path class="cls-1" d="m22.77,11.48v-.06c-.08-.02-.17-.03-.27-.05l.27.11Z"/>
        <path class="cls-1" d="m22.67,8.98c-.02.06.54.08.78.1-.23-.03-.34-.07-.39-.12-.11,0-.23,0-.4.03Z"/>
        <path class="cls-1" d="m23.66,5.02l-.08-.07s.05.05.08.07Z"/>
        <path class="cls-1" d="m22.65,13.27c-.08,0-.16.01-.2.02.07,0,.14,0,.2-.02Z"/>
        <path class="cls-1" d="m27.13,4.64s0-.07,0-.1c-.01.06-.02.1,0,.1Z"/>
        <polygon class="cls-1" points="24.24 1.85 24.28 1.82 24.28 1.51 24.24 1.85"/>
        <path class="cls-1" d="m21.49,25.68h.01c-.06-.07-.05-.04-.01,0Z"/>
        <path class="cls-1" d="m34.56,33.43c-.5.3-.65-.66-1.2-.18.22-.05.88.63,1.2.18Z"/>
        <path class="cls-1" d="m25.86,4.53s.01.07,0,.1c.02-.05.02-.08,0-.1Z"/>
        <path class="cls-1" d="m33.36,33.24h0s-.05.04-.05.04c.02-.02.04-.03.06-.04Z"/>
        <path class="cls-1" d="m21.83,30.99c.1-.01.17-.03.25-.05-.06,0-.13.01-.25.05Z"/>
        <path class="cls-1" d="m22.63,27.03l-.08.1c.05-.04.07-.07.08-.1Z"/>
        <path class="cls-1" d="m22.63,33.19c-.04.08-.12.12-.05.22.03-.01.05-.03.07-.04-.08-.03-.11-.08-.02-.18Z"/>
        <path class="cls-1" d="m22.63,36.39c.04-.05.08-.09.11-.14l-.03-.08-.08.22Z"/>
        <path class="cls-1" d="m29.87,4.74c.17-.11.34-.22.51-.33-.4.24-.54.25-.51.33Z"/>
        <path class="cls-1" d="m25.62,4.46c.14.01.21.03.24.06,0-.02-.02-.05-.03-.07-.08,0-.16,0-.21,0Z"/>
        <path class="cls-1" d="m27.06,32.81s-.06.04-.08.06c.05-.03.08-.05.08-.06Z"/>
        <path class="cls-1" d="m29.95,18.74l-.07-.08s0,.06.07.08Z"/>
        <path class="cls-1" d="m27.06,32.98c-.2.11-.31.19-.39.25.05-.02.09-.05.14-.08.08-.06.16-.12.24-.18Z"/>
        <path class="cls-1" d="m30.38,4.41h0s0,0,0,0Z"/>
        <path class="cls-1" d="m29.03,5.19c.41-.53.61-.78.89-1.15.32-.21-.39.54-.69.92.12-.13.45-.45.7-.66.11-.1.19-.15.18-.12-.12.12-.17.17-.32.3.29-.24.3-.17.33-.13.03.05.07.08.44-.08-.07.05-.13.09-.18.13.37-.24.75-.49,1.01-.64.01.09.47-.05-.02.25.01-.07-.18.03-.33.08.07,0,.14-.01.21-.01-.69.44-.24,0-.75.29.23-.02.8,0,.6.22-.68.23-.23-.21-.83.16.09-.08.17-.17.26-.26-1.07.6.07-.1-1.07.52-.2.13.35-.04.15.11.38-.03.56-.11.94-.13.68.29-1.71.3-.8.75.45.12,1.31.17.86.52l-.77-.12c-.08.45,1.1.26.59.73-.3-.08-.25-.35-.35-.28-.61.3.44.22.44.45l-.68.05c.11.48.6,1,.72,1.53-.2-.03-.42-.12-.62,0,.34.67-.08,1.42-.49,2.07l.59.25c0,.06-.27.11-.38.04-.22.25.37.01.6.13.04.14-.34.19-.51.1.5.44,1.07,1.26.44,1.73l-.17-.09c-.24.36,1.2.41.66.75l-.1-.06c-.25.79.28,1.66-.6,2.26.85.11-.38.78.8.83-.58.45-.79.32-1.19.95-.05.17.74.25.86.46h-.62s.65.29.65.29l-.74.15.16.2c.04-.08.28-.17.45-.15.28.31-.43.75-.75.75l.52.72c-.25-.02-.33-.14-.49-.23.63.39-.65.07-.07.42.14-.05.37.03.49.03-.37.18-.38.58-.22.88l-.42-.06c-.11.54.2,1.13.2,1.74.2-.22.93-.17,1.01.01l-.65.07c.4.11.25-.18.74.05-.08.23-.74.15-.95.02l.23.27c-.19.02-.3-.05-.55-.06.4.11-.65.47.05.63l-.19.02c0,.6.22.88.25,1.37.56,0,.44.2.89.35-.18.36-.62.76-.57,1.2.28.31.48.09.81.23-.51.02-.46.46-.83.23.08.52.1.67.52,1.33.21-.07.3-.15.48-.11.08.12-.21.27-.46.26l-.05-.03c.77.74-1.49,1.71-.43,2.3l-.05-.03.56.61c-.09.28-.39-.17-.7.04.43.33.4.59.33.84-.03.12-.08.24-.07.37,0,.11.05.09.19.17-.76,0-.73-.03-.63.08.09.08.26.32-.22,0l.36.26c.35.29-.2-.12-.29-.18.28.23.32.23.51.4.07.12.11.21.11.28-.15,0-.46-.17-.66-.37-.21-.21-.3-.45-.29-.58-.37-.1-.24,1.84-.8.99l.17-.66c-1.36.79-.83-.03-1.48.64.11-.15.22-.35.24-.35.25-.48-.08-.02-.43.37,0-.04.27-.35.42-.55.24-.28-.61.58-.24.16l.03-.03s.04-.04.07-.07c.04-.04.1-.09.13-.12-.03.02-.05.05-.09.08-.09.06.05-.12-.42.31.26-.29-.25,0,.08-.3-.31.16-.24.06-.19,0,.04-.06.05-.09-.38.06.9-.37.73-.36.3-.39.27-.02.28-.08.66-.1,0-.02-.05-.03-.15-.04-.1-.07-.26-.13-.49-.1,1.08-.46-.87-.92.52-1.18-.49-.74-.82-1.43-1.03-2.09.9.02.09.74,1.04.71-.37-.63-1.15-1-.93-1.62.12-.16.39.09.55.15-.37-.63.08-1.22-.41-1.78.08,0,.18.06.24.12-.03-.11.13-.26-.28-.25l.11.11c-.6.18-1.24-.44-1.56-.46,1.18.19.3-.56,1.78-.26-.08-.07-.27-.16-.55-.15.08-.11.24-.14.55-.03-.22-.4-.66-.26-.65-.62.2,0,.28.07.51.11-.39-.18-.77-.36-.61-.67.12.02.28-.02.27.07-.06-.52-1.03-.89-.66-1.46.86.17.28-.19,1.03-.23l-.22-.31-.36.12c.01-.27-.53-.51-.29-.74l.31.2-.14-.51-.28.29c-.38-.27-.94.03-.74-.33.08.07,0-.27.45-.41h0c-.24-.13-.49-.27-.3-.47.24-.05.83.04.98,0-.62-.13-.17-.63-.84-.8.16.06.55.06.63.04l-.51-.11c.16-.12.24-.14.55-.12.09-.38-.95.12-.54-.33.04.03.12.02.19.09.21-.45-.32-.87-.07-1.28.75-.12.18.36.82.22-.14-.59-.9-1.23-.72-1.8l-.08.11c-1.06-.08.52-.43.02-.72.08.07.59.09.47.07.17-.39-.26-.8-.59-1.4l.27.07c.24-.23.14-.61.26-.86-.27-.07-.23-.22-.62-.13,1.55-.77-.83-1.47.46-2.16,0,.08.24.2.24.13l-.25-.58c-.46.05-.28.08-.64.2-.27-.07-.49-.24-.49-.38.31.26.74,0,1-.12-.14.02-.3-.02-.44-.01.82-.3-.93-.05-.38-.47l.24.02c-.12-.16-.44-.3-.38-.47.53-.07.25.17.69.18-.03-.24-1.01-.47-.48-.68.15.1.15.24.3.34.63-.23.47-.26.57-.43v.02s.27-.4.27-.4l-.17.1c-1.39-.3-.25-.6-1.17-1,.86.39.5.06,1.11.09.17-.1.36-.26.53-.21-.49-.19.38-.31-.33-.58.19-.01.02-.2.51-.16-.15-.24-.34.06-.58.04-.67-.38.81-.89-.11-1.43-.38-.47-1.03-.55-1.36-.99.31-.15.71.12.71.12.29-.24.23-.41.01-.64.17.05.31,0,.53-.07-.05-.18-.71-.12-.42-.35.22.04.57.09.78.18-.18-.21-.54-.42-.72-.64.34-.06.52.13.74.21-.15-.24-.31-.63-.85-.71l-.19.16c-.03-.09.46-.05.56.02.42.21-.19.3-.38.31l-.12-.16c-1.14.16.18.62.12.93l-.83-.13.69.32c-.22.07-.68.11-.81-.04-.41.22.3.2-.16.39-.07.02-.11.01-.14,0l.25.22c-.17-.04-.59.04-.47-.1-.48.39.62.63,0,.78l-.05-.03c.28.54.61.05,1.33.46l-1.51.27.61.05c-.02.06-.07.17-.31.15.42.21.27-.04.66.09-.56.27.26.75-.71.81.46.1.36-.26.68.03-1.05.08.18.33-.3.58-.54-.08-.25-.31-.74-.06.91.15-.2.48-.02.69.73,0,.3.45.54.8-.24-.02-.4.66-.66.98h-.12c.73.05.6.39.75.63-.44,0-.61-.05-.81-.19v.23c.24.05.36.13.45.27l-.55-.06c.03.31.65.62.28,1.01.51.02,1.43-.31,1.77.1-.28.02-.75.03-.86-.08.04.04.23.13.11.2l-.47-.17c-.2.18.39.09.35.24-.39,0-.28.11-.6.09-.04-.04.16-.12,0-.18-.07.16-.31.36-.6.42.22-.01.53,0,.58.12.03.31-.48.1-.68.28.27.07,0,.27.58.27,0,.09-.28.11-.44.14.26.16.07.74.7.56l.04-.04s.01.02.03.03h0s0,0,0,0c.59.52-.33,1.08-.08,1.59h-.2c.23.31.13.68.56.9,0,.09-.36.21-.6.18.15.23.37.26.04.6-.34-.24-.31.08-.25-.24-.17.3-.49.37.05.7-.51-.11-.64.23-.49.37l.36-.21c.07.16.03.31-.01.45l-.67-.08c-.81.62,1.38,1.13.02,1.6.47.17.33-.34.87-.19-.09.29-1.04.59-1.05.68-.37.39.97.37.72.78.24-.05.87-.1,1.09.21-.09.29-1,.35-1.19.17-.02-.07.06-.1.14-.1-.09-.09-.19-.21-.45-.1l.24.04c-.24.14-.22.54-.61.44.23.22.39.09.51-.07-.34.37-.01.58-.24.95.13-.06.41-.12.41-.06-.29.56.45.24.55.62-.36.21-.86-.08-.56.3-.24.23-.63.05-.82-.04.46.35-.3.65-.38.84l-.19-.18c.11.11.11.2.11.29l.48-.1c-.08.11-.09.2-.28.2.31.11.79-.08,1.21.13-.24.14.26.43-.37.48.21-.45-.63.05-.73-.33.08.07.07.16-.01.27-.07.02-.13-.02-.17-.04-.56.43.71.2.7.64-.35-.06-.67.1-.6.18,0-.18.59-.09.86.08-.28.29.21.31.17.46l.13-.17c.35.06.31.2.42.4-.28.02-.19-.18-.31-.11.62.22-.65.5-.23.81-.24.14-.67.01-.83.14.46.34-.49.37-.11.74.48-.1.36-.12.83.13l-.34-.6.69.38c0-.18-.3-.38-.22-.49.39.18.27.16.67.08-.72.25.42.49-.07.77h-1.18c-.53.42.61.75.31,1.31l.21-.18c.47.07.07.34.26.52-.39-.02-.54.1-.78.17.29,0-.03.41.76.46l-.52.25c-.21.45,1.12.51.99.94-.43-.13-.71.07-1.02-.22,0,.14-.08.27.2.28-.25.04.53.53.16.73.17.07.59.03.55.25-.08.04-.2.04-.2.04.2-.03.27.27.7-.01-.62.41-.59.87-.55,1.24.04.39.11.7-.42,1.36.12.32.23.67.27.97.08,0,.13-.01.19-.02-.14.12-.19.2-.23.16.24.37,1.36-1.13,1.53-.72-.19.64-.58.35-.58.59-.48.65-.21.61.11.49.34-.11.71-.29.73.09l-.16.08c.06.22.37.1.68-.07.32-.17.65-.38.91-.33,0,0-.06.11-.06.2.55-.66,1.23-.88,1.56-1.07-.11.51-.16.27-.1.79.16-.07-.05-.83.28-.97.11.28.34.52.37,1.07l-.31.03c.16.71.4-.02.56.1l-.02.31c.23-.05.35-.27.48-.47.15-.2.33-.38.66-.36l-.1-.24c.2-.78.38.44.6-.14l.35.79c.23-.19.59-.76.86-.91.14.59-.26.88-.51,1.23.28,0,.95-.06.85-.45-.06.08-.09.27-.26.15.02-.62.14-.93.58-.91.7,1,1.2.86,1.85.97.06-.23.19-.37.6-.17-.28-.77-.22-1.19-.1-1.67.12-.47.3-.99.25-1.65-1.19.13-.03-.37-1.26-.53-.08-.24-.06-.32.02-.34.24-.19.49-.51.73-.64.36-.12.27.16.54.15.09-.38.52-.16.84-.41-.44.05-.63-.13-.46-.35l-.56.3c-.65-.53,1.03-.45.38-.99l.38.17c-.23-.27,0-1-.97-1.27.14-.05.48-.11.56,0,.15-.65-1.05-1.45-.44-1.95l.3.05c-.09-.12-.56-.21-.26-.36.12,0,.3.05.32,0-.1-.06-.52-.32-.35-.48l.34.14c.39-.63-.82-.97-1.02-1.51.88,0,1.17-.5,1.31-.75h.12c.11-.73-.73-1.25-1.08-1.93.96-.42.4-1.44.94-2.12-.16.1-.69-.02-.77-.14.18-.16-.61-.44.2-.42l-.02.06c.79-.12.58-.45.6-.71l-1.06-.04c1.54-.67-.56-1.76.81-2.13-.26-.16-.26-.36-.53-.52h.57c.14-.44.22-.67.08-1.22l.4.11c.04-.31-1.63-.4-1.67-.68l.85-.09c-.01-.55.73-1.1-.04-1.64.12,0,.37.02.4.11.02-.26.57-1-.59-.9.76,0,.07-.56-.26-.86l.56.05c-.71-.25-.91-.26-1.1-.61.07-.08.45-.07.3.04.29-.27-.53-.21-.23-.55l.36.12c.04-.28-.15-.26-.56-.42-.22-.18.14-.54.64-.58-.31-.04-.72-.19-.57-.36.19-.02.31.04.37.07.38-.47-.65-.7-.1-1.03.18,0,.28-.03.33-.05-.01.38-.04.68-.08.65.51,0,.6-.3,1.31-.06-.39-.24-1.23-.66-.99-.96.05-.01.1-.03.18-.04l.06.03c.05-.07,0-.13-.08-.19.08-.09.15-.15.15-.24.42-.03.23-.35.25-.5-.56.01-.47-.19-.94,0,.04-.02.07.03.09.13.02.02.02.05.06.06h-.05c.02.09.03.22.04.37-.29-.12-.53-.24-.21-.41-.36-.08-.73-.16-.91-.21.78-.21,1.21-.61,1.69-.66-.32-.46-.21-1.09-1.26-1.38-.14-.13.3-.15.47-.2.11.08.09.17.24.21-.27-.16-.11-1.09-.84-1,.33-.51.68.14.56-.49l.23.03c.59-.86.12-1.37-.31-1.61-.43-.31-.82-.32-.06-1.73-.09.19-.14.28-.26.41l.07-.24c-.5-.25-1.46-.09-2.24,0-.8.1-1.48.13-2.19-.37-.32-.21-.35.26-.55.62l-.07-.6-.33.7c-.47.51-.81-1.48-1.41-.52l.08.41c-.21-.08-.68.24-.64-.23-.02.07-.07.42-.15.21v-.32s-.53.54-.53.54c-.41-.23.06-1.25-.53-1.32-.22.12-.63.92-.55,1.13.09.02.23.2.23.51l-.2.16c-.04.93-.19,1.88.3,2.54l.34-.57.11.45-.29.03c.16.42.27.05.39-.21.03.24.08.41.14.5l.34-.89c.04.36-.15.72.08.92.16-.41-.15-.82.11-1.09.17.42.12.77.31.41.03.24-.01.39-.09.5.17-.29.46-.12.55-.62.17.52.58-.14.57.75.05-.21.3-.69.46-.73-.29,1.06.59.06.52,1.19.11-.47.3-.58.51-.63.11-.03.22-.04.33-.08.1-.04.08-.11.14-.24-.01.08-.04.23-.04.18.06.08.04.36.03.54.13-.78.3-.96.57-1.45-.15.76-.39.92-.57,1.65.18-.64.33-.63.53-1.16-.13.47-.03.23-.33.88.53-.98.12-.17.54-.77-.21.48-.59.92-.31.62-.1.15-.23.31-.33.44-.08.11-.16.21-.16.21Zm1.71,3.43h-.01c-.01-.07-.02-.12-.03-.16,0,.03.02.08.04.16Zm0,.64c.02-.08.03-.17.02-.28.19-.02.39,0,.38.07-.13-.03-.24.12-.41.21Zm3.9-1.34c.08.1-.03.13-.15.15,0-.05-.03-.1-.07-.18-.02,0-.05,0-.07-.01.11,0,.21.02.28.04Z"/>
        <path class="cls-1" d="m33.9,7.73s-.04-.02-.04-.04c-.05.02-.09.04-.13.06l.18.04v-.05Z"/>
        <path class="cls-1" d="m23.4,14.64h-.01s.04,0,.08-.01c-.03,0-.04,0-.07.01Z"/>
        <polygon class="cls-1" points="29.67 18.04 29.81 18.04 29.69 17.98 29.67 18.04"/>
        <path class="cls-1" d="m25.33,11.14s.1-.02.14-.05c-.04,0-.09.02-.14.05Z"/>
        <path class="cls-1" d="m25.45,9.63l.2-.21c-.11.09-.17.16-.2.21Z"/>
        <path class="cls-1" d="m25.73,8.47c-.1-.01-.17-.02-.24-.02h0s.25.02.25.02Z"/>
        <path class="cls-1" d="m26.39,26.95s.01.03.03.04c.11.11.07.03-.03-.04Z"/>
        <path class="cls-1" d="m25.08,21.45c.1.06.2.12.27.18.04-.1.05-.17-.27-.18Z"/>
        <polygon class="cls-1" points="27.07 32.81 27.06 32.81 27.06 32.81 27.07 32.81"/>
        <path class="cls-1" d="m25.34,21.89c.11-.1.09-.18,0-.26-.04.08-.1.17,0,.26Z"/>
        <path class="cls-1" d="m25.99,3.43l.02-.06s-.07,0-.09,0l.07.06Z"/>
        <path class="cls-1" d="m25.92,3.36l-.07-.06s0,.05.07.06Z"/>
        <path class="cls-1" d="m25.71,3.17l.14.13s.02-.1-.14-.13Z"/>
        <path class="cls-1" d="m25.73,4.97l.2.02s-.11-.02-.2-.02Z"/>
        <path class="cls-1" d="m25.79,5.43c.05-.11.43-.28.31-.44h-.16c.3.06-.49.33-.15.44Z"/>
        <path class="cls-1" d="m23.27,7.39l.16-.39c-.22.07-.51.16-.56-.02-.65.49.49-.1.4.41Z"/>
        <path class="cls-1" d="m22.95,8.6c-.1-.21-.32,0-.44,0,.2.13.25.17.44,0Z"/>
        <path class="cls-1" d="m22.95,17.38l-.51-.02c.07.16.2,0,.51.02Z"/>
        <polygon class="cls-1" points="25.6 19.06 25.91 18.91 25.44 18.83 25.6 19.06"/>
        <polygon class="cls-1" points="21.95 20.06 21.88 19.98 22.06 20.26 21.95 20.06"/>
        <path class="cls-1" d="m22.13,36.13l.63-.47c-.11-.09-.82.28-.63.47Z"/>
        <path class="cls-1" d="m29.6,37.46c.13.31.47.52.57.21-.23-.04-.48-.29-.57-.21Z"/>
        <polygon class="cls-1" points="34.72 19.73 34.93 19.85 34.76 19.61 34.72 19.73"/>
      </g>
    </g>
  </g>
</svg>