<?xml version="1.0" encoding="UTF-8"?>
<svg id="Capa_2" data-name="Capa 2" xmlns="http://www.w3.org/2000/svg" viewBox="0 0 27.09 33.49">
  <defs>
    <style>
      .cls-1 {
        fill: #7e532b;
      }
    </style>
  </defs>
  <g id="Capa_1-2" data-name="Capa 1">
    <g>
      <polygon class="cls-1" points="3.03 31.6 3.03 4.82 22.62 18.21 3.03 31.6"/>
      <g>
        <path class="cls-1" d="m2.28,30.5c.06.16.3.47.35.35l-.31-.59-.04.24Z"/>
        <path class="cls-1" d="m3.57,31.1c-.08-.34-.27-.88-.68-1.34.26.6.08.39.4,1.1-.05.12-.28-.07-.4-.28.06.16-.22-.03-.03.35.4.34.56.26.48-.19.11.1.18.26.24.37Z"/>
        <path class="cls-1" d="m12.84,26.01l-.1-.03s.07.03.1.03Z"/>
        <path class="cls-1" d="m18.43,22.63s-.01.11.02.16c.01-.06.02-.12-.02-.16Z"/>
        <path class="cls-1" d="m19.76,22.61s-.05,0-.08,0c.06.04.09.05.08,0Z"/>
        <path class="cls-1" d="m12.84,26.01l.26.07c-.11-.19-.16-.08-.26-.07Z"/>
        <path class="cls-1" d="m3.87,28.96s0,.12.02.2c0-.04.02-.08.03-.11-.02-.03-.03-.06-.05-.09Z"/>
        <path class="cls-1" d="m10.77,28.08l-.04.03c.03.07.07.15.12.25l-.07-.28Z"/>
        <path class="cls-1" d="m9.01,29.41c.05,0-.25-.48-.37-.7.11.21.14.32.13.38.06.09.14.19.24.32Z"/>
        <path class="cls-1" d="m5.56,30.57v.1s0-.06,0-.1Z"/>
        <path class="cls-1" d="m12.14,27.29c.05.07.1.12.13.15-.04-.06-.08-.11-.13-.15Z"/>
        <path class="cls-1" d="m5.67,29.04s-.07,0-.1,0c.06.01.1.02.1,0Z"/>
        <polygon class="cls-1" points="2.89 31.6 2.86 31.56 2.54 31.55 2.89 31.6"/>
        <path class="cls-1" d="m23.2,21.13s-.01,0-.03,0c-.01.09.02.05.03,0Z"/>
        <path class="cls-1" d="m10.8,7.31c-.11.53-.65.34-.7.98.1-.2.73-.56.7-.98Z"/>
        <path class="cls-1" d="m3.96,28.99s.04-.04.07-.06c-.04,0-.07.03-.07.06Z"/>
        <path class="cls-1" d="m10.1,8.29h0s0,.07,0,.07c0-.03,0-.04,0-.07Z"/>
        <path class="cls-1" d="m24.15,16.35c-.11.04-.18.08-.25.13.07-.02.15-.05.25-.13Z"/>
        <path class="cls-1" d="m23.48,19.56l.21-.05c-.11.02-.17.03-.21.05Z"/>
        <path class="cls-1" d="m20.89,15.08c-.02-.07.02-.13-.12-.14-.02.02-.02.04-.03.06.09-.03.16-.03.15.08Z"/>
        <path class="cls-1" d="m18.9,13.72s-.02.08-.04.11h.07s-.03-.11-.03-.11Z"/>
        <path class="cls-1" d="m5.4,23.29c-.16.04-.33.07-.51.09.4-.03.54.25.51-.09Z"/>
        <path class="cls-1" d="m4.05,29.22c-.07-.12-.1-.19-.09-.23-.01.02-.03.04-.03.06.04.07.09.14.13.17Z"/>
        <path class="cls-1" d="m17.22,17.94s.02-.05.03-.08c-.03.05-.04.07-.03.08Z"/>
        <path class="cls-1" d="m5.32,10.59l.07.04s0-.01-.07-.04Z"/>
        <path class="cls-1" d="m16.92,17.73c.07-.19.09-.32.08-.42-.03.03-.07.05-.11.1l.03.32Z"/>
        <path class="cls-1" d="m4.89,23.38h0s0,0,0,0Z"/>
        <path class="cls-1" d="m6.22,25.36c.02-.29-.72-.13-1.15-.2-.21-.34.54-.16.92-.27-.2-.21-.87-.38-.84-.54.12-.01.17-.04.32,0-.59-.23-.03-.67-.77-.93.07-.02.13-.03.18-.03-.37.04-.75.05-1.01.04-.01-.13-.47-.24.02-.29-.01.08.18.09.33.12l-.21-.13c.69-.12.24.18.75.18-.23-.26-.8-.57-.6-.77.68-.04.23.47.83.2l-.26.31c1.07-.24-.07.19,1.07-.03.2-.41-.35-.46-.15-.87-.38-.09-.56.03-.94-.06-.68-.58,1.71-.46.8-.88-.45-.11-1.31-.15-.86-.46l.77.1c.08-.4-1.1-.23-.59-.64.3.07.25.31.35.25.61-.27-.44-.19-.44-.4l.68-.04c-.11-.42-.6-.89-.72-1.35.2.03.42.11.62,0-.34-.59.08-1.26.49-1.83l-.59-.22c0-.05.27-.09.38-.04.22-.22-.37-.01-.6-.12-.04-.13.34-.17.51-.09-.5-.39-1.07-1.11-.44-1.52l.17.08c.24-.32-1.2-.36-.66-.66l.1.06c.25-.7-.28-1.46.6-2-.85-.1.38-.69-.8-.73.29-.2.49-.27.67-.36.09-.05.17-.1.25-.17.04-.04.08-.08.13-.13.04,0,.09-.02.14-.03.05-.01-.74-.11-.86-.23l.62.11c-.22-.06-.43-.14-.65-.23.25.04.49.1.74.16l-.16-.09s-.28-.05-.45-.11c-.28-.24.43-.09.75.11-.17-.13-.35-.29-.52-.49.25.18.33.27.49.39-.63-.51.65.45.07-.02-.14-.1-.37-.29-.49-.39.37.24.38.2.22-.03l.42.44c.11.08-.2-.36-.2-.48-.2-.26-.93-1.3-1.01-1.49l.65.94c-.4-.65-.25-.3-.74-1.13.08,0,.74,1.1.95,1.44l-.23-.41c.19.31.3.48.55.88-.4-.69.65,1.05-.05-.16l.19.34s-.03-.07-.06-.16c-.05-.11-.11-.28-.09-.29-.45-.99-.32-.75-.61-1.5.26.39.6,1.16.64,1.14-.06-.38-.19-.71-.29-1.18.23.78.3.77.38,1.27.08-.04.06-.08.21-.48-.03-.28-.07-.42-.07-.63.05-.07.12.34.12.64v.06c.1-.39.27.18.27.58.02.42-.12.69.19.25l-.03.04c.06-.07.13-.13.21-.19.06-.07.23-.06.35-.1.16.21-.34.23-.37.6.96-.38.69.62,1.41.42-.55,1.46,1.15.66,1.02,1.74l.18-.31c.3-.22.01.26.05.38.14-.24.06-.34.24-.46,1.15.27,1.58,1.71,2.33,2.61.29.31,1.23-1.39,1.18-.39l-.49.46c1.13-.19,1.39.98,2.44.89-.13.1-.24.26-.3.21-.13.49.51.38.74.06.08.11-.18.31-.22.52-.02.33.7-.26.51.18-.03.07-.13.1-.17.11.22-.13.4.34.62-.17.1.39.62.13.64.53.24-.21.31-.08.38.03.1.12.05.1.34-.23-.53.73-.38.62.02.38-.23.18-.19.21-.51.45.03,0,.21-.08.63-.35-.45.35-.24.23,0,.18.23-.06.47-.07-.33.22.67-.13,1.37-.05,1.95.09-1.48.08-.38-.15-1.8.03.48-.02,1.46,0,1.82.1.02.03-.02.06-.15.09-.26.03-.63-.04-.89-.05.25.05.13.11.05.16-.08.05-.12.09.12.22-.11-.03-.21-.07-.29-.1.01.03-.23,0,.3.13l-.11-.06c.42.07.8.19,1.09.33.29.14.49.29.67.36-1.34-.51-.63.07-2.21-.64.07.04.27.15.58.27-.13,0-.31-.08-.63-.24.15.17.63.37.49.45-.19-.11-.24-.17-.47-.3.35.23.61.52.34.5-.09-.08-.24-.17-.21-.19-.09.13.42.96-.17.91-.36-.8-.3-.14-.75-.74l-.1.34.29.24c-.2.12-.07.69-.38.61l-.03-.35-.29.37.37.09c.02.45.55.77.18.77.01-.1-.2.13-.55-.17h0c.04.26.08.54-.17.48-.17-.17-.44-.7-.55-.82.26.58-.36.46-.11,1.09-.05-.16-.27-.48-.32-.54l.21.47c-.18-.07-.24-.13-.4-.4-.33.11.62.72.07.61,0-.05-.05-.11-.04-.21-.45.05-.45.7-.89.7-.51-.56.16-.33-.3-.79-.36.41-.39,1.36-.91,1.5l.12.02c.54.92-.61-.22-.54.34,0-.1-.26-.53-.21-.43-.38.06-.44.62-.69,1.19l-.1-.26c-.31-.09-.52.19-.78.21.1.26-.03.3.26.58-1.44-.9-.6,1.42-1.83.69.06-.04,0-.29-.04-.26l-.28.5c.29.36.21.19.51.43.1.26.1.52,0,.59.02-.38-.42-.61-.65-.77.09.11.15.26.24.37-.69-.53.49.79-.13.54l-.12-.21c-.04.18.03.52-.13.54-.35-.41-.02-.29-.26-.66-.15.14.23,1.07-.22.73-.01-.17.09-.25.08-.42-.52-.4-.45-.26-.64-.25h.02s-.45-.03-.45-.03l.17.09c.57,1.3-.29.51-.07,1.46-.21-.91-.24-.44-.56-.96-.17-.09-.39-.17-.45-.33.14.5-.45-.16-.24.56-.12-.15-.16.08-.4-.34-.09.25.23.25.36.46.1.74-1.1-.23-.98.8-.13.54.18,1.13.05,1.62-.28-.18-.31-.65-.31-.65-.33-.12-.43.01-.47.31-.06-.16-.18-.26-.35-.41-.1.13.31.65-.02.53-.09-.2-.25-.51-.31-.74-.05.25,0,.66-.06.91-.23-.25-.2-.49-.26-.71-.09.25-.29.57-.04,1.05l.22.08c-.05.07-.29-.36-.3-.47-.09-.45.33,0,.45.16l-.04.18c.76.87.35-.46.62-.56l.37.75-.16-.73c.17.15.47.51.43.68.4.23-.02-.34.38-.06.06.05.07.09.08.12l.02-.31c.07.17.36.47.19.43.56.2.11-.83.57-.38v.06c.24-.5-.3-.53-.41-1.33l1.05,1.11-.31-.53c.05,0,.16-.03.28.18-.08-.45-.18-.2-.31-.59.51.32.4-.59.99.19-.19-.43-.39-.17-.36-.58.65.82.14-.31.59-.04.25.48-.08.36.37.64-.41-.83.46-.08.52-.32-.4-.6.16-.48.28-.85.12.21.7,0,1.09.06l.06.11c-.37-.64-.05-.69.05-.94.24.37.31.53.32.76l.17-.12c-.09-.22-.11-.36-.05-.5l.27.48c.21-.18.08-.84.58-.73-.27-.43-1.03-1.02-.92-1.51.17.22.45.6.43.75,0-.05-.04-.25.08-.19l.14.47c.25.08-.15-.37-.02-.4.22.33.24.18.4.45,0,.05-.18-.07-.14.08.16-.02.43.07.65.29-.14-.18-.3-.44-.24-.54.21-.18.34.34.59.42-.1-.26.2-.13-.13-.62.07-.04.23.18.35.29-.03-.29.5-.43.01-.86h-.05s0-.03,0-.05h0s0,0,0,0c.05-.74.97-.26,1.21-.73l.11.16c.1-.34.42-.45.34-.91.07-.04.36.19.46.4.09-.24-.02-.44.41-.34.02.4.23.21-.03.33.32-.01.55.22.48-.39.2.47.53.41.55.21l-.36-.19c.08-.14.21-.18.34-.21l.32.59c.91.36.04-1.7,1.16-.82-.14-.47-.43-.1-.63-.62.26-.07,1.02.57,1.08.53.49.11-.28-.99.16-.98-.17-.17-.57-.67-.47-1.01.26-.07.82.65.79.89-.04.05-.11,0-.15-.06-.02.12-.05.26.18.42l-.11-.21c.24.13.51-.09.67.28.03-.3-.15-.37-.34-.39.46.1.43-.28.83-.28-.12-.08-.32-.28-.27-.31.27,0,.3-.17.25-.32-.06-.16-.17-.34-.02-.5.45.13.49.71.69.21.43,0,.52.4.54.63.08-.61,1.05-.35,1.42-.5l-.08.29c.05-.17.18-.25.3-.34l-.57-.19c.21-.04.33-.12.51,0-.16-.27-.83-.39-1-.79.4.02.18-.44.91-.17-.75.25.74.26.36.64.02-.1.14-.18.36-.24.1.02.12.08.12.12,1.2-.14-.51-.52.03-.86.35.19.94.17.95.07-.25.16-.82-.15-.98-.37.68-.13.08-.31.28-.4l-.36.09c-.41-.15-.21-.23-.17-.39.41.06.09.17.33.15-.32-.16.02-.19.44-.26.41-.06.91-.14.75-.29.54-.08,1.07.08,1.48,0-.33-.33,1.3-.3,1.13-.64-.78.07-.81.09-1.05-.01-.12-.02-.29-.05-.52-.09l.25.09c-.02.12-.05.25-.09.39-.23-.12-.49-.23-.76-.32-.19.12.11.29-.14.36-.45-.17-.28-.13-1.02-.11.96-.07.54-.22.45-.32-.2-.05-.3-.11-.11-.17l2.03-.04c.19-.19-.32-.35-.85-.5-.54-.15-1.08-.27-1.19-.52-.03.06-.06.12-.1.18-.76.05-.46-.24-.92-.32.55-.1.62-.23.84-.37-.36.11-.47-.35-1.47-.08.12-.13.23-.26.34-.4-.31-.47-1.77.15-2.02-.18.54-.15.58-.46,1.2-.41-.16-.12-.25-.26-.5-.1.11-.22-.9.03-.72-.3-.21.07-.55.34-.68.21.04-.07.15-.14.15-.14-.15.13-.43.03-.62.43.27-.56-.14-.82-.38-.92-.25-.11-.5-.21-.34-.74-.3-.05-.65-.13-.88-.25.08-.09.11-.16.13-.1-.08-.5-.82.82-.91.25.19-.64.37-.17.4-.44.69-1.1-.49-.12-.29-.9l.1-.03c.08-.48-.69.13-.91-.14,0,0,.08-.09.11-.16-.56.42-1.04.36-1.41.33.37-.36.27-.14.51-.6-.16-.02-.43.71-.75.67.08-.28.05-.6.34-1.07l.24.13c.29-.67-.3-.18-.35-.36l.19-.25c-.4-.15-.85.5-1.18.2l-.1.22c-.64.51.08-.48-.45-.14l.39-.69c-.24.07-.89.31-1.22.27.46-.39.91-.45,1.28-.62-.13-.09-.48-.26-.77.02.1-.03.27-.14.26,0-.51.4-.9.51-1.15.32.91-1.23-.46-.78.02-1.9-.78.15-.78-.83-1.37-1.12-.48,1.11-.18-.08-.83.95-.17-.02-.21-.07-.17-.14l.03-.86c.11-.36.27-.14.41-.38-.22-.27.18-.51.18-.9-.21.39-.45.45-.51.21l-.1.62c-.75.27.25-1.07-.5-.81l.34-.23c-.09,0-.15,0-.28-.06-.17-.08-.35-.18-.54-.26-.38-.15-.8-.21-1.11.17,0-.18.01-.57.2-.55-.41-.37-.96-.43-1.39-.47-.45-.06-.79-.11-1.12-.71l.03-.34c-.15,0-.19.55-.42.03-.01-.16.01-.35-.07-.43-.07.07-.29.44-.52.07l.08-.35c-.46-.55-.74-.49-.89-.26-.16.23-.22.62-.43.59-.5-1.41-1.33-2.32-1.79-2.81l-.08-.21C1.01-.11.72-.05.57.16c.23.88.5,1.76.66,2.47-.48-.5-.58-.08-.63.46-.05.55-.04,1.19-.31,1.46.16,0,.69.77.77,1.03-.18.07.61,1.2-.2.41l.02-.07c-.79-.56-.58.2-.6.59l1.06.84c-.77-.1-.63.76-.47,1.39.16.67.34,1.17-.35,1.35.26.29.26.59.53.83l-.57-.02c-.14.45-.22.61-.08,1.11L0,11.9c-.04.28,1.63.35,1.67.61l-.85.08c.01.48-.73.97.04,1.45-.12,0-.37-.02-.4-.1-.02.23-.57.88.59.8-.76,0-.07.5.26.76l-.56-.04c.71.22.91.23,1.1.53-.07.07-.45.06-.3-.03-.29.24.53.19.23.48l-.36-.11c-.04.25.15.23.56.37.22.16-.14.47-.64.51.31.03.72.17.57.32-.19.02-.31-.03-.37-.06-.38.42.65.62.1.91-.18,0-.28.02-.33.05.01-.33.04-.6.08-.57-.51,0-.6.27-1.31.05.39.22,1.23.58.99.84-.05.01-.1.03-.18.03l-.06-.03c-.05.06,0,.11.08.17-.08.08-.15.14-.15.22-.42.03-.23.31-.25.44.56-.01.47.16.94,0-.04.02-.07-.03-.09-.11-.02-.02-.02-.04-.06-.06h.05c-.02-.08-.03-.19-.04-.32.29.11.53.22.21.36.36.07.73.15.91.19-.78.18-1.21.54-1.69.58.32.41.21.96,1.26,1.22.14.12-.3.13-.47.18-.11-.07-.09-.15-.24-.18.27.23.11.69.84.74-.33.29-.68-.16-.56.24l-.23-.05c-1.18.79,1.88,1.29.37,2.16.09-.06.14-.09.26-.1-.67,1,.63,2.06-.43,3.05-.21.28.26.31.62.48l-.6.06.7.29c.51.41-1.48.72-.52,1.24l.41-.07c-.08.19.24.6-.23.57.07.02.42.06.21.14h-.32s.54.47.54.47c-.23.36-1.25-.06-1.32.47.12.19.92.55,1.13.48.02-.08.2-.2.51-.21l.16.18c.93.03,1.88.17,2.54-.27l-.57-.3.45-.1.03.26c.42-.15.05-.24-.21-.34.24-.02.41-.07.5-.13l-.89-.3c.36-.04.72.13.92-.07-.41-.14-.82.13-1.09-.1.42-.15.77-.1.41-.27.24-.02.39.01.5.08-.29-.15-.12-.4-.62-.48.52-.15-.14-.51.75-.5-.21-.05-.69-.27-.73-.41,1.06.26.06-.52,1.19-.46-.95-.19-.42-.68-.95-1.02.08.02.23.06.18.09.08-.19.36-.24.54-.36-.78-.02-.96-.32-1.45-.48.76-.23.92.14,1.65.07-.64.01-.63-.4-1.16-.32.47-.18.23-.15.88-.24-.98-.03-.17-.16-.77-.31.48-.26.92-.07.62-.35.3-.13.65.12.65.12Zm-1.69-6.68h.01c.01.06.02.11.03.14,0-.03-.02-.07-.04-.14Zm0-.56c-.02.07-.03.15-.02.24-.19.02-.39,0-.38-.06.13.03.24-.1.41-.19Zm-3.9,1.19c-.08-.09.03-.12.15-.13,0,.04.03.09.07.16.02,0,.05,0,.07.01-.11,0-.21-.02-.28-.04Z"/>
        <path class="cls-1" d="m1.36,19.46s.04.02.04.04c.05-.02.09-.04.13-.05l-.18-.03v.05Z"/>
        <path class="cls-1" d="m12.73,25.98h.02s-.04-.02-.07-.05c.02.02.03.03.05.05Z"/>
        <polygon class="cls-1" points="5.6 10.83 5.45 10.8 5.58 10.84 5.6 10.83"/>
        <path class="cls-1" d="m9.08,26.14s-.07-.07-.11-.1c.02.03.07.06.11.1Z"/>
        <path class="cls-1" d="m7.91,26.79l-.27-.06c.13.05.21.06.27.06Z"/>
        <path class="cls-1" d="m6.9,27.14c.04.09.08.15.12.21h0s-.12-.21-.12-.21Z"/>
        <path class="cls-1" d="m18.33,18.52s0,0-.02-.01c-.12-.05-.08-.02.02.01Z"/>
        <path class="cls-1" d="m16.75,21.2c-.01-.11-.03-.22-.02-.31-.1.01-.16.04.02.31Z"/>
        <polygon class="cls-1" points="17.21 17.95 17.22 17.94 17.22 17.94 17.21 17.95"/>
        <path class="cls-1" d="m16.92,20.77c-.13-.04-.18.02-.19.12.08,0,.18,0,.19-.12Z"/>
        <path class="cls-1" d="m3.08,29.44h-.05s.04.07.05.09v-.09Z"/>
        <path class="cls-1" d="m3.07,29.52v.09s.03-.03,0-.09Z"/>
        <path class="cls-1" d="m3.05,29.79l.02-.18s-.08.03-.02.18Z"/>
        <path class="cls-1" d="m4.35,28.88l-.1-.18s.05.1.1.18Z"/>
        <path class="cls-1" d="m4.66,28.6c-.11.02-.45-.22-.49-.04l.08.14c-.12-.29.53.23.41-.1Z"/>
        <path class="cls-1" d="m7.51,29.71l-.38.06c.17.15.4.34.3.47.73.29-.35-.35.08-.53Z"/>
        <path class="cls-1" d="m8.57,29.36c-.1.19.18.26.24.37-.01-.23-.02-.29-.24-.37Z"/>
        <path class="cls-1" d="m14.98,24.99l.27.43c.08-.14-.11-.16-.27-.43Z"/>
        <polygon class="cls-1" points="14.71 21.97 14.42 21.78 14.63 22.21 14.71 21.97"/>
        <polygon class="cls-1" points="17.49 24.48 17.48 24.58 17.57 24.29 17.49 24.48"/>
        <path class="cls-1" d="m19.46,13.5l-.32.54c.14-.04.56-.61.32-.54Z"/>
        <path class="cls-1" d="m14.45,10.86c.13-.29.11-.55-.14-.35.08.11.05.38.14.35Z"/>
        <polygon class="cls-1" points=".54 7.26 .33 6.92 .51 7.41 .54 7.26"/>
      </g>
    </g>
  </g>
</svg>