<?xml version="1.0" encoding="UTF-8"?>
<svg id="Capa_2" data-name="Capa 2" xmlns="http://www.w3.org/2000/svg" viewBox="0 0 70 61.32">
  <defs>
    <style>
      .cls-1 {
        fill: #fff;
      }
    </style>
  </defs>
  <g id="Capa_1-2" data-name="Capa 1">
    <path class="cls-1" d="m70,19.11c-.11,6.6-2.01,12.06-5.45,17.03-3.08,4.45-6.76,8.33-10.78,11.93-5.56,4.97-11.65,9.21-18.05,13.02-.54.32-.94.29-1.47-.03-5.35-3.23-10.51-6.71-15.33-10.7-5.55-4.59-10.64-9.63-14.42-15.8C.69,28.35-1.19,21.58.81,14.36,2.93,6.64,8.13,1.86,16.03.27c3.97-.8,7.71.26,11.21,2.15,2.78,1.5,5.21,3.47,7.28,5.87.43.5.64.37,1.03-.05,2.99-3.26,6.45-5.88,10.69-7.27,6.22-2.05,11.83-.59,16.73,3.5,4.69,3.91,6.92,9.08,7.03,14.65Z"/>
  </g>
</svg>