<?xml version="1.0" encoding="UTF-8"?>
<svg id="Capa_2" data-name="Capa 2" xmlns="http://www.w3.org/2000/svg" viewBox="0 0 60 68.4">
  <defs>
    <style>
      .cls-1 {
        fill: #fff;
      }
    </style>
  </defs>
  <g id="Capa_1-2" data-name="Capa 1">
    <g>
      <path class="cls-1" d="m44.87,43.68c0,.57-.31.93-.73,1.25-3.27,2.5-6.54,5-9.81,7.5-.54.41-1.1.81-1.62,1.25-.67.57-1.34.58-2.09.15-1.94-1.1-3.87-2.23-5.74-3.46-4.03-2.67-7.75-5.72-11.06-9.25-3.73-3.97-6.8-8.4-9.12-13.34-1.66-3.52-2.86-7.2-3.68-11.01-.09-.44,0-.63.44-.82,3.61-1.59,6.86-3.74,9.86-6.29,1.74-1.48,3.29-3.12,4.71-4.91.27-.34.49-.28.8-.12,3.14,1.56,6.05,3.46,8.77,5.68,3.73,3.05,6.91,6.61,9.63,10.57,3.73,5.45,6.49,11.38,8.4,17.7.42,1.38.8,2.77,1.1,4.18.07.31.11.62.17.92Zm-25.18-26.48c-4.06,0-7.32,3.21-7.33,7.24-.01,4.02,3.25,7.35,7.24,7.36,4.05.02,7.34-3.25,7.35-7.3,0-4.06-3.2-7.29-7.26-7.3Z"/>
      <path class="cls-1" d="m41.99,26.94c1.86.24,3.67.78,5.41,1.58,4.42,2.02,7.85,5.2,10.7,9.06.57.77,1.11,1.57,1.62,2.38.53.82.27,1.38-.68,1.55-3.78.66-7.57,1.31-11.35,1.96-.7.12-1.08-.16-1.25-.85-1.19-5.03-2.82-9.91-5.13-14.54-.37-.73-.11-1.17.67-1.13Z"/>
      <path class="cls-1" d="m30.41,55.92c0,.25-.12.46-.22.68-1.24,2.68-2.48,5.36-3.72,8.04-.37.8-.74,1.61-1.11,2.41-.33.7-1.06.85-1.57.29-3.21-3.49-5.79-7.36-7.2-11.93-.86-2.78-1.21-5.62-.84-8.52.04-.32.08-.64.43-.77.35-.14.59.06.83.29,3.79,3.63,8.13,6.47,12.82,8.8.32.16.57.34.6.72Z"/>
      <path class="cls-1" d="m0,6.65c-.05-1.8.1-3.66.34-5.51C.46.28.87-.09,1.66.02c4.2.61,8.28,1.65,12.2,3.29.64.27.65.28.22.8-2.76,3.36-6.09,6.04-9.81,8.26-.98.59-1.99,1.13-3.04,1.59-.62.27-.68.25-.76-.41C.17,11.29-.04,9.01,0,6.65Z"/>
      <path class="cls-1" d="m46.13,48.64c.32-.03.57.18.8.48,1.45,1.89,2.9,3.77,4.36,5.66,1.29,1.66,2.57,3.33,3.87,4.98.56.71.53,1.3-.13,1.82-.62.49-1.21.41-1.76-.3-1.44-1.85-2.86-3.71-4.29-5.56-1.31-1.7-2.61-3.39-3.92-5.09-.29-.38-.45-.78-.21-1.23.25-.46.64-.76,1.27-.76Z"/>
      <path class="cls-1" d="m54.13,67.15c0,.47-.41.98-.95,1.18-.51.18-.89.03-1.21-.39-2.22-2.88-4.44-5.76-6.67-8.64-.58-.75-1.16-1.48-1.72-2.24-.43-.57-.34-1.19.2-1.61.61-.48,1.24-.42,1.7.17,2.76,3.56,5.51,7.13,8.26,10.69.19.25.39.5.4.83Z"/>
      <path class="cls-1" d="m38.04,54.75c.42,0,.68.16.9.44,1.93,2.5,3.86,4.99,5.79,7.48.85,1.09,1.69,2.19,2.53,3.29.5.66.44,1.29-.16,1.73-.65.48-1.24.38-1.76-.3-2.73-3.53-5.46-7.06-8.19-10.59-.3-.39-.48-.79-.24-1.28.24-.49.65-.73,1.13-.78Z"/>
    </g>
  </g>
</svg>