<?xml version="1.0" encoding="UTF-8"?>
<svg id="Capa_2" data-name="Capa 2" xmlns="http://www.w3.org/2000/svg" viewBox="0 0 65 65.06">
  <defs>
    <style>
      .cls-1 {
        fill: #fff;
      }
    </style>
  </defs>
  <g id="Capa_1-2" data-name="Capa 1">
    <path class="cls-1" d="m6.23,46.57c0-4.27-.05-8.55.02-12.82.03-1.98-.54-3.05-2.69-3.58-3.98-.98-4.79-4.16-1.61-6.78C11.09,15.84,20.41,8.5,29.67,1.1c1.95-1.56,3.95-1.4,5.86.13,9.09,7.27,18.24,14.48,27.23,21.87,3.53,2.9,2.82,6.03-1.53,7.12-2.3.57-2.46,1.93-2.45,3.76.02,8.23.02,16.46,0,24.68-.02,5.27-1.09,6.32-6.43,6.37-3.1.03-6.2.05-9.29-.07-2.84-.11-4.62-1.39-4.6-4.54.02-2.99-.05-5.98-.15-8.97-.12-3.82-2.44-6.26-5.85-6.23-3.37.03-5.61,2.5-5.72,6.36-.08,2.99-.16,5.98-.15,8.97.01,3-1.72,4.29-4.4,4.39-3.63.14-7.27.16-10.9.03-3.52-.12-4.84-1.4-4.95-4.95-.15-4.48-.04-8.97-.04-13.46-.02,0-.03,0-.05,0Z"/>
  </g>
</svg>