<?xml version="1.0" encoding="UTF-8"?>
<svg id="Capa_2" data-name="Capa 2" xmlns="http://www.w3.org/2000/svg" viewBox="0 0 476.86 543.91">
  <defs>
    <style>
      .cls-1 {
        fill: #fff;
      }

      .cls-2 {
        fill: #d21625;
      }
    </style>
  </defs>
  <g id="Capa_1-2" data-name="Capa 1">
    <g>
      <path class="cls-2" d="m469.16,136.2c-42.56-42.51-85.1-85.05-127.64-127.59-5.7-5.7-12.37-8.45-20.58-8.44C228.12.28,135.3.58,42.48,0,18.94-.14-.16,19.53,0,42.61c.55,76.32.21,152.65.21,228.97s-.02,154.31.02,231.46c.01,22.28,18.49,40.84,40.73,40.84,131.81.04,263.62.04,395.44,0,22.27,0,40.42-18.14,40.42-40.39.03-116.15.01-232.3.04-348.44,0-7.4-2.47-13.62-7.7-18.85ZM126.31,322.56c-8.34.8-16.65.77-24.95.59-4.94-.11-6.28,1.7-6.18,6.38.27,11.66-.06,23.33.17,34.99.08,4.23-1.01,6.05-5.57,5.82-6.65-.34-13.33-.29-19.99-.02-4.04.16-5.14-1.45-5.12-5.26.13-22.16.06-44.32.06-66.48s.09-43.99-.08-65.98c-.03-4.24,1.06-5.88,5.59-5.83,17.99.24,35.99-.05,53.98.16,23.98.29,41.12,13.46,45.47,35.56,6.25,31.73-11.03,56.99-43.38,60.07Zm170.02,24.73c-12.94,16.19-30.61,22.38-50.58,22.85-16.32.39-32.65-.02-48.97.19-3.93.05-4.86-1.63-4.84-5.03.06-10.49-.01-20.99-.02-31.48-.01-11.81,0-23.61,0-35.42-.01-21.47-.04-42.94.01-64.42.02-7.1.11-7.11,7.12-7.11,15.49,0,30.99-.31,46.47.09,24.35.63,44.39,9.61,57,31.56,15.07,26.25,12.32,65.6-6.19,88.77Zm122.14-99.25c.24,3.88-1.28,4.73-4.91,4.67-14.16-.2-28.32-.1-42.48-.08-6.76,0-6.78.04-6.79,6.55-.02,7.5.15,15-.06,22.49-.11,3.98,1.5,5.22,5.3,5.18,13.16-.14,26.33.06,39.49-.12,3.91-.05,5.36,1.24,5.18,5.19-.25,5.48-.23,10.99,0,16.48.15,3.7-1.2,4.97-4.9,4.91-12.49-.16-24.99-.06-37.49-.05q-7.5,0-7.52,7.76c0,14.16.01,28.32,0,42.48q-.01,6.74-6.97,6.75c-5.67,0-11.33.01-17,0q-6.46-.02-6.47-6.72c-.01-21.82-.01-43.64-.01-65.47s.12-43.31-.09-64.97c-.04-4.65,1.1-6.38,6.08-6.33,24.15.24,48.31.23,72.47,0,4.86-.04,6.51,1.51,6.18,6.28-.34,4.98-.3,10.01-.01,14.99Zm13.1-109.41c-24.98,0-49.96.03-74.94-.01-15.16-.03-22.78-7.67-22.79-22.69,0-25.98,0-51.96.03-77.94,0-1.59-.52-3.29.2-4.35,34.96,34.99,69.93,69.99,104.9,104.99h-7.4Z"/>
      <path class="cls-1" d="m438.97,138.63h-7.4c-24.98,0-49.96.03-74.94-.01-15.16-.03-22.78-7.67-22.79-22.69,0-25.98,0-51.96.03-77.94,0-1.59-.52-3.29.2-4.35,34.96,34.99,69.93,69.99,104.9,104.99Z"/>
      <path class="cls-1" d="m418.47,248.04c.24,3.88-1.28,4.73-4.91,4.67-14.16-.2-28.32-.1-42.48-.08-6.76,0-6.78.04-6.79,6.55-.02,7.5.15,15-.06,22.49-.11,3.98,1.5,5.22,5.3,5.18,13.16-.14,26.33.06,39.49-.12,3.91-.05,5.36,1.24,5.18,5.19-.25,5.48-.23,10.99,0,16.48.15,3.7-1.2,4.97-4.9,4.91-12.49-.16-24.99-.06-37.49-.05q-7.5,0-7.52,7.76c0,14.16.01,28.32,0,42.48q-.01,6.74-6.97,6.75c-5.67,0-11.33.01-17,0q-6.46-.02-6.47-6.72c-.01-21.82-.01-43.64-.01-65.47s.12-43.31-.09-64.97c-.04-4.65,1.1-6.38,6.08-6.33,24.15.24,48.31.23,72.47,0,4.86-.04,6.51,1.51,6.18,6.28-.34,4.98-.3,10.01-.01,14.99Z"/>
      <path class="cls-1" d="m296.33,347.29c-12.94,16.19-30.61,22.38-50.58,22.85-16.32.39-32.65-.02-48.97.19-3.93.05-4.86-1.63-4.84-5.03.06-10.49-.01-20.99-.02-31.48-.01-11.81,0-23.61,0-35.42-.01-21.47-.04-42.94.01-64.42.02-7.1.11-7.11,7.12-7.11,15.49,0,30.99-.31,46.47.09,24.35.63,44.39,9.61,57,31.56,15.07,26.25,12.32,65.6-6.19,88.77Z"/>
      <path class="cls-1" d="m126.31,322.56c-8.34.8-16.65.77-24.95.59-4.94-.11-6.28,1.7-6.18,6.38.27,11.66-.06,23.33.17,34.99.08,4.23-1.01,6.05-5.57,5.82-6.65-.34-13.33-.29-19.99-.02-4.04.16-5.14-1.45-5.12-5.26.13-22.16.06-44.32.06-66.48s.09-43.99-.08-65.98c-.03-4.24,1.06-5.88,5.59-5.83,17.99.24,35.99-.05,53.98.16,23.98.29,41.12,13.46,45.47,35.56,6.25,31.73-11.03,56.99-43.38,60.07Z"/>
      <path class="cls-2" d="m222.61,306.57c-.77-14.69,1.08-32.51.32-50.33-.09-2.18.08-4.03,3.04-3.96,6.99.15,14.07-.43,20.97.41,17.13,2.08,28,12.29,31.56,29.4,2.57,12.35,2.53,24.81-.72,37.09-3.97,15.01-17.01,25.26-32.48,25.72-5.82.17-11.65.32-17.47.63-3.9.21-5.32-1.53-5.27-5.33.13-10.16.04-20.33.04-33.63Z"/>
      <path class="cls-2" d="m110.7,252.26c3,0,6-.05,9,0,11.95.22,19.97,8.58,20.83,21.67.77,11.63-6.6,21.14-17.91,22.75-7.6,1.09-15.28.94-22.94.89-3.14-.02-4.45-1.29-4.43-4.51.1-12.16.09-24.32,0-36.48-.03-3.23,1.29-4.5,4.46-4.38,3.66.14,7.33.03,10.99.03v.03Z"/>
    </g>
  </g>
</svg>