<?xml version="1.0" encoding="UTF-8"?>
<svg id="Capa_2" data-name="Capa 2" xmlns="http://www.w3.org/2000/svg" viewBox="0 0 40 39.98">
  <defs>
    <style>
      .cls-1 {
        fill: #d4145a;
      }

      .cls-2 {
        fill: #ed1e79;
      }

      .cls-3 {
        fill: #ff0;
      }
    </style>
  </defs>
  <g id="Capa_1-2" data-name="Capa 1">
    <g>
      <ellipse class="cls-3" cx="20.23" cy="20.34" rx="15.9" ry="13.93"/>
      <path class="cls-2" d="m40,19.99c-.1,11.15-8.91,20-20.02,19.99C8.8,39.97-.02,31.05,0,19.97.02,8.79,8.94-.02,20.02,0c11.09.02,19.89,8.85,19.98,19.99Zm-31.71-.01c0,1.95.04,3.9-.01,5.85-.04,1.53,1.21,2.64,2.64,2.62,3.87-.04,7.75-.01,11.62-.01,1.6,0,2.65-1.04,2.66-2.65,0-3.87,0-7.75,0-11.62,0-1.58-1.07-2.63-2.64-2.63-3.89,0-7.78.02-11.66-.01-1.44-.01-2.66,1.14-2.62,2.61.05,1.95.01,3.9.01,5.85Zm23.4.01c0-1.88,0-3.77,0-5.65,0-.54-.28-.69-.74-.42-1.29.74-2.57,1.5-3.86,2.23-.38.21-.55.47-.54.92.02,1.93.02,3.87,0,5.8,0,.47.16.75.57.98,1.26.7,2.51,1.44,3.76,2.16.57.33.82.19.82-.48,0-1.85,0-3.69,0-5.54Z"/>
      <circle class="cls-1" cx="16.76" cy="20" r="3.08"/>
    </g>
  </g>
</svg>