<?xml version="1.0" encoding="UTF-8"?>
<svg id="Capa_2" data-name="Capa 2" xmlns="http://www.w3.org/2000/svg" viewBox="0 0 100 114.26">
  <defs>
    <style>
      .cls-1 {
        fill: #fff;
      }
    </style>
  </defs>
  <g id="Capa_1-2" data-name="Capa 1">
    <g>
      <path class="cls-1" d="m49.97,92.82c-4.59,0-9.18-.02-13.76,0-4.45.03-7.27,2.87-7.31,7.36-.03,4.03-.05,8.06.01,12.09.02,1.35-.38,1.85-1.8,1.83-5.52-.07-11.04.02-16.55-.05-5.82-.06-10.3-4.77-10.54-10.6-.37-9.23,2.38-17.25,8.98-23.77,4.39-4.34,9.73-6.98,15.82-8.1,1.33-.24,2.51-.07,3.73.61,14.06,7.81,28.22,7.88,42.37.29,1.65-.89,3.15-1.14,4.94-.78,14.01,2.81,24.02,14.98,24.12,29.28.03,3.63-.27,7.06-3.03,9.8-2.13,2.11-4.65,3.25-7.65,3.26-5.33.02-10.66-.05-15.99.04-1.76.03-2.24-.64-2.21-2.29.08-3.97.05-7.94.01-11.9-.04-4.1-2.92-7.03-7.02-7.08-4.71-.05-9.42-.01-14.13-.01Z"/>
      <path class="cls-1" d="m89.44,35.66c0,3.29.04,6.57-.01,9.86-.06,3.19-1.4,4.56-4.58,4.52-1.51-.02-2.34.47-3.01,1.84-9.19,18.75-32.21,24.16-48.89,15.2-6.43-3.46-11.37-8.32-14.58-14.88-.74-1.52-1.59-2.25-3.38-2.18-2.82.12-4.24-1.11-4.3-3.95-.14-7-.13-14.01-.03-21.01.04-2.54,1.55-3.87,4.1-3.78,1.81.06,2.78-.61,3.58-2.21C28.01-.19,52.45-5.14,69.34,5.49c5.44,3.42,9.56,8.03,12.42,13.75.73,1.46,1.57,2.1,3.27,2.04,2.87-.1,4.32,1.39,4.39,4.34.08,3.35.02,6.7.02,10.04Zm-39.48-13.93c-5.45,0-10.91,0-16.36,0-.19,0-.37,0-.56.02-5.76.28-9.4,4.07-9.41,9.79,0,1.55-.01,3.1.01,4.65.16,9.65,7.07,18.13,16.55,20.04,5.14,1.04,10.38.47,15.57.4,8.45-.11,14.53-4.27,18.48-11.65,2.79-5.19,2.28-10.81,1.96-16.37-.07-1.28-.85-2.44-1.77-3.42-2.15-2.29-4.81-3.45-7.94-3.46-5.51-.02-11.03,0-16.54,0Z"/>
      <path class="cls-1" d="m43.07,107.98c0,.56.06,1.12-.01,1.67-.18,1.43.77,3.57-.51,4.14-1.83.83-4.13.36-6.23.17-.77-.07-.8-.86-.81-1.48-.01-3.03-.09-6.07.04-9.1.11-2.52,1.84-4.08,4.04-3.94,2.1.14,3.44,1.77,3.47,4.26.02,1.42,0,2.85,0,4.27Z"/>
      <path class="cls-1" d="m60.69,106.96c-2.09.01-3.71-1.64-3.71-3.78,0-2.13,1.66-3.79,3.73-3.76,2.11.04,3.75,1.7,3.74,3.77-.01,2.1-1.66,3.75-3.76,3.76Z"/>
    </g>
  </g>
</svg>