<?xml version="1.0" encoding="UTF-8"?>
<svg id="Capa_2" data-name="Capa 2" xmlns="http://www.w3.org/2000/svg" viewBox="0 0 521.96 60.32">
  <defs>
    <style>
      .cls-1 {
        fill: #fff;
      }

      .cls-2 {
        fill: #29abe2;
      }
    </style>
  </defs>
  <g id="Capa_1-2" data-name="Capa 1">
    <path class="cls-2" d="m42.23,17.12v.23c0,.39-.05,1.01-.16,1.86-.1.85-.27,1.75-.51,2.7-.23.95-.52,1.87-.86,2.75-.34.89-.74,1.58-1.21,2.07-.44.44-1.04.74-1.78.9s-1.45.35-2.13.59c-.55.21-1.13.48-1.74.82-.61.34-1.22.66-1.84.98-.61.31-1.22.59-1.84.82-.61.23-1.21.35-1.78.35-.39,0-.83-.1-1.31-.29-.48-.2-.93-.51-1.35-.96-.42-.44-.76-1.02-1.04-1.72s-.41-1.58-.41-2.62c0-.65.03-1.33.08-2.03.05-.7.08-1.39.08-2.07,0-.73-.06-1.56-.18-2.48-.12-.92-.28-1.79-.49-2.6-.21-.81-.44-1.49-.7-2.05-.26-.56-.55-.84-.86-.84-.23,0-.5.05-.8.16-.3.1-.64.16-1.04.16-.47,0-.83-.05-1.07-.16-.25-.1-.45-.21-.61-.33s-.3-.23-.43-.33c-.13-.1-.31-.16-.55-.16-.62,0-1.1.14-1.43.41-.33.27-.57.64-.72,1.11s-.28,1-.37,1.6c-.09.6-.23,1.21-.41,1.84-.13.44-.37.94-.7,1.48-.34.55-.59,1.12-.74,1.72-.21.6-.38,1.26-.51,1.97-.13.72-.31,1.45-.55,2.21-.21.65-.45,1.47-.72,2.46-.27.99-.54,2.03-.8,3.12-.26,1.09-.48,2.19-.66,3.28-.18,1.09-.27,2.06-.27,2.89,0,1.2.39,2.36,1.17,3.5s1.8,2.08,3.05,2.83c.36.21.88.38,1.54.53.66.14,1.29.36,1.89.64.57.29,1.07.57,1.48.84.42.27.86.52,1.33.74.47.22,1.02.4,1.66.55.64.14,1.46.21,2.48.21.94,0,1.89-.1,2.87-.29s1.91-.45,2.79-.76c.88-.31,1.69-.66,2.42-1.05.73-.39,1.31-.78,1.76-1.17.16-.13.41-.41.76-.84s.76-.88,1.23-1.35.99-.89,1.56-1.27c.57-.38,1.18-.57,1.84-.57.13,0,.33.03.61.1.27.07.55.2.82.39s.51.48.72.84c.21.37.31.83.31,1.41,0,.76-.1,1.54-.31,2.34-.21.81-.31,1.58-.31,2.3,0,.31.01.7.04,1.17.03.47.04.92.04,1.37,0,.91-.28,1.84-.84,2.77-.56.94-1.54,1.91-2.95,2.93-.44.31-.99.59-1.64.84-.65.25-1.28.55-1.88.92-.62.39-1.29.78-1.99,1.17s-1.26.59-1.68.59c-.39,0-.79-.05-1.21-.16-.42-.1-.89-.16-1.41-.16-.83,0-1.65.03-2.44.08-.79.05-1.61.08-2.44.08-.42,0-.88,0-1.39-.02-.51-.01-1.02-.04-1.54-.08-.52-.04-1.04-.08-1.54-.14-.51-.05-.97-.12-1.39-.2-.31-.03-.67-.06-1.07-.1-.4-.04-.8-.08-1.19-.12s-.74-.08-1.04-.12c-.3-.04-.5-.08-.61-.14-.18-.08-.35-.22-.51-.43-.16-.21-.32-.45-.49-.72-.17-.27-.35-.55-.55-.82s-.44-.53-.72-.76c-.31-.23-.66-.4-1.05-.49-.39-.09-.7-.24-.94-.45-.31-.42-.67-.87-1.07-1.37-.4-.49-.79-.95-1.15-1.37-.42-.65-.74-1.33-.98-2.03s-.55-1.28-.94-1.72c-.16-.16-.37-.31-.64-.45-.27-.14-.57-.3-.88-.47-.31-.17-.62-.35-.92-.55-.3-.2-.55-.42-.76-.68-.1-.08-.25-.29-.45-.62-.2-.34-.39-.69-.59-1.05-.2-.36-.37-.68-.51-.96-.14-.27-.21-.38-.21-.33,0-.16.06-.36.18-.61.12-.25.25-.5.41-.76.16-.26.29-.52.41-.78.12-.26.18-.48.18-.66,0-.44-.07-.84-.2-1.19-.13-.35-.22-.75-.27-1.19,0-.88.04-2.04.12-3.46.08-1.42.2-2.94.37-4.55.17-1.61.38-3.24.62-4.86.25-1.63.54-3.11.88-4.43.29-1.04.61-2.11.98-3.2.36-1.09.55-2.12.55-3.09,0-.34-.03-.68-.08-1.02-.05-.34-.08-.68-.08-1.02,0-.7.21-1.25.62-1.64.42-.39.92-.74,1.52-1.04.6-.3,1.24-.59,1.91-.88.68-.29,1.28-.69,1.8-1.21.13-.16.23-.38.31-.66.08-.29.14-.57.2-.86.05-.29.1-.57.16-.84.05-.27.14-.47.27-.61.08-.1.19-.17.33-.2.14-.03.31-.05.51-.08.2-.03.42-.07.66-.14.25-.06.5-.18.76-.33.26-.16.46-.32.61-.49.14-.17.28-.32.41-.45s.29-.23.47-.31c.18-.08.43-.1.74-.08.29,0,.58.01.88.04.3.03.57.04.8.04.39,0,.8-.01,1.23-.04.43-.03.87-.04,1.31-.04.73,0,1.33.08,1.8.23s.88.33,1.25.53c.36.2.72.4,1.05.61.34.21.77.37,1.29.47.7.13,1.41.2,2.13.21.72.01,1.41.03,2.09.04.68.01,1.35.07,2.01.16.66.09,1.31.27,1.93.53.36.16.75.44,1.15.84.4.4.84.79,1.31,1.15.44.34.92.63,1.43.88.51.25.87.51,1.07.8.16.29.29.72.41,1.29.12.57.29,1.05.53,1.45.23.42.53.85.88,1.31.35.46.7.94,1.04,1.45.34.51.62,1.05.86,1.64s.38,1.21.43,1.86Z"/>
    <path class="cls-2" d="m87.27,40.55c-.05.73-.18,1.42-.39,2.07-.21.65-.31,1.3-.31,1.95,0,.31.03.72.08,1.21.05.5.08,1.03.08,1.6,0,.99-.23,1.88-.7,2.66s-1.07,1.51-1.8,2.19c-.73.68-1.54,1.33-2.44,1.97-.9.64-1.79,1.3-2.68,1.97-.62.5-1.15.99-1.56,1.48-.42.49-.9.94-1.45,1.33s-1.24.71-2.07.96c-.83.25-1.99.37-3.48.37-.81,0-1.63-.06-2.48-.18-.85-.12-1.69-.25-2.52-.41-.83-.16-1.63-.29-2.4-.41-.77-.12-1.48-.18-2.13-.18-.55,0-1.07.05-1.56.16-.5.1-.99.16-1.48.16-.21,0-.57-.08-1.09-.25-.52-.17-1.08-.4-1.68-.7-.6-.3-1.2-.66-1.8-1.09-.6-.43-1.09-.92-1.48-1.46-.37-.49-.59-1.02-.68-1.58-.09-.56-.27-1.1-.53-1.62-.37-.65-.84-1.28-1.43-1.88-.59-.6-1.1-1.31-1.54-2.15-.39-.75-.73-1.67-1.02-2.73-.29-1.07-.61-2.12-.98-3.16-.47-1.38-.93-2.62-1.39-3.71-.46-1.09-.68-2.02-.68-2.77,0-.86.12-1.78.35-2.75s.55-1.89.94-2.73c.39-.85.84-1.54,1.35-2.09s1.04-.82,1.58-.82c.29,0,.59.05.9.16.31.1.64.16.98.16.44-.05.81-.18,1.11-.39.3-.21.62-.31.96-.31s.82.06,1.45.18,1.27.27,1.93.45c.66.18,1.29.37,1.88.55.59.18,1.02.35,1.31.51.42.21.86.57,1.33,1.09.47.52.9,1.09,1.29,1.72s.72,1.28.98,1.95c.26.68.39,1.28.39,1.8,0,.29-.01.58-.04.88-.03.3-.04.59-.04.88,0,.52.09,1.05.27,1.58.18.53.34,1.13.47,1.78.1.73.18,1.42.21,2.07.04.65.1,1.26.18,1.82.08.56.19,1.09.33,1.58.14.5.4.96.76,1.41.52.68,1.25,1.22,2.19,1.62.94.4,1.86.61,2.77.61.57,0,1.04-.09,1.39-.27.35-.18.66-.4.92-.66s.51-.53.76-.8c.25-.27.54-.51.88-.72.52-.31,1.02-.55,1.48-.72.47-.17.88-.39,1.25-.66.36-.27.65-.64.86-1.11.21-.47.31-1.16.31-2.07,0-.73-.14-1.5-.41-2.32s-.45-1.65-.53-2.48c-.08-.73-.13-1.35-.16-1.86-.03-.51-.07-.99-.14-1.45-.07-.46-.18-.91-.33-1.37-.16-.46-.43-.98-.82-1.58-.1-.1-.34-.37-.7-.8-.37-.43-.79-.88-1.27-1.35-.48-.47-1-.89-1.54-1.27-.55-.38-1.05-.57-1.52-.57-.21,0-.41.01-.61.04-.2.03-.4.04-.61.04-.83,0-1.69-.18-2.56-.55-.87-.36-1.76-.81-2.68-1.35-.91-.53-1.84-1.1-2.77-1.7-.94-.6-1.88-1.13-2.81-1.6-.78-.39-1.66-.75-2.64-1.09-.98-.34-1.89-.72-2.75-1.13-.86-.42-1.58-.9-2.15-1.46-.57-.56-.86-1.26-.86-2.09,0-.16.03-.47.1-.94.06-.47.15-1.01.25-1.62.1-.61.23-1.28.39-1.99.16-.72.34-1.41.55-2.07.21-.66.42-1.27.64-1.82.22-.55.46-.98.72-1.29.36-.44.83-.87,1.39-1.29.56-.42,1.11-.79,1.66-1.11.55-.33,1.04-.59,1.46-.78s.71-.29.84-.29c.23,0,.46.02.68.06.22.04.45.06.68.06.49,0,.92-.06,1.27-.18s.66-.27.94-.45c.27-.18.54-.36.8-.53.26-.17.56-.32.9-.45.44-.18.98-.28,1.62-.29.64-.01,1.27-.08,1.89-.21.73-.16,1.65-.34,2.75-.57,1.11-.22,2.23-.43,3.36-.62s2.19-.36,3.18-.49c.99-.13,1.73-.18,2.23-.16.26,0,.54.07.84.2.3.13.53.42.68.86.34.23.73.4,1.17.51.44.1.81.27,1.09.51.39.34.8.78,1.23,1.33s.84,1.02,1.23,1.41.74.74,1.04,1.04c.3.3.55.59.74.86s.34.56.43.86c.09.3.14.66.14,1.07,0,.83-.09,1.64-.27,2.42-.18.78-.49,1.48-.92,2.09-.43.61-1,1.11-1.72,1.48-.72.38-1.62.57-2.71.57-.65,0-1.35-.07-2.11-.21-.76-.14-1.43-.33-2.03-.57-.31-.1-.62-.27-.94-.51s-.62-.47-.94-.72c-.31-.25-.64-.49-.98-.72-.34-.23-.7-.42-1.09-.55-.39-.13-.9-.25-1.52-.37s-1.27-.21-1.93-.29-1.31-.14-1.93-.2c-.62-.05-1.15-.08-1.56-.08-.55,0-1.08.03-1.6.1-.52.07-.98.2-1.39.39-.4.2-.74.46-1,.8-.26.34-.39.78-.39,1.33,0,.31.06.59.18.82s.29.45.51.64c.22.2.5.4.84.61.34.21.73.46,1.17.74.39.26.77.55,1.15.86.38.31.75.61,1.13.9.38.29.76.56,1.15.82.39.26.79.47,1.21.62.49.16,1.01.25,1.54.29.53.04,1.01.1,1.43.18,1.54.37,2.97.89,4.32,1.58,1.34.69,2.58,1.49,3.73,2.4,1.15.91,2.18,1.89,3.11,2.95.92,1.05,1.74,2.13,2.44,3.22.34.55.61,1.04.82,1.46.21.43.36.86.47,1.29.1.43.17.89.2,1.39.03.5.04,1.09.04,1.8,0,.81.08,1.59.23,2.34.16.76.23,1.43.23,2.03Z"/>
    <path class="cls-2" d="m132.3,40.55c-.05.73-.18,1.42-.39,2.07-.21.65-.31,1.3-.31,1.95,0,.31.03.72.08,1.21.05.5.08,1.03.08,1.6,0,.99-.23,1.88-.7,2.66s-1.07,1.51-1.8,2.19c-.73.68-1.54,1.33-2.44,1.97-.9.64-1.79,1.3-2.68,1.97-.62.5-1.15.99-1.56,1.48-.42.49-.9.94-1.45,1.33s-1.24.71-2.07.96c-.83.25-1.99.37-3.48.37-.81,0-1.63-.06-2.48-.18-.85-.12-1.69-.25-2.52-.41-.83-.16-1.63-.29-2.4-.41-.77-.12-1.48-.18-2.13-.18-.55,0-1.07.05-1.56.16-.5.1-.99.16-1.48.16-.21,0-.57-.08-1.09-.25-.52-.17-1.08-.4-1.68-.7-.6-.3-1.2-.66-1.8-1.09-.6-.43-1.09-.92-1.48-1.46-.37-.49-.59-1.02-.68-1.58-.09-.56-.27-1.1-.53-1.62-.37-.65-.84-1.28-1.43-1.88-.59-.6-1.1-1.31-1.54-2.15-.39-.75-.73-1.67-1.02-2.73-.29-1.07-.61-2.12-.98-3.16-.47-1.38-.93-2.62-1.39-3.71-.46-1.09-.68-2.02-.68-2.77,0-.86.12-1.78.35-2.75s.55-1.89.94-2.73c.39-.85.84-1.54,1.35-2.09s1.04-.82,1.58-.82c.29,0,.59.05.9.16.31.1.64.16.98.16.44-.05.81-.18,1.11-.39.3-.21.62-.31.96-.31s.82.06,1.45.18,1.27.27,1.93.45c.66.18,1.29.37,1.88.55.59.18,1.02.35,1.31.51.42.21.86.57,1.33,1.09.47.52.9,1.09,1.29,1.72s.72,1.28.98,1.95c.26.68.39,1.28.39,1.8,0,.29-.01.58-.04.88-.03.3-.04.59-.04.88,0,.52.09,1.05.27,1.58.18.53.34,1.13.47,1.78.1.73.18,1.42.21,2.07.04.65.1,1.26.18,1.82.08.56.19,1.09.33,1.58.14.5.4.96.76,1.41.52.68,1.25,1.22,2.19,1.62.94.4,1.86.61,2.77.61.57,0,1.04-.09,1.39-.27.35-.18.66-.4.92-.66s.51-.53.76-.8c.25-.27.54-.51.88-.72.52-.31,1.02-.55,1.48-.72.47-.17.88-.39,1.25-.66.36-.27.65-.64.86-1.11.21-.47.31-1.16.31-2.07,0-.73-.14-1.5-.41-2.32s-.45-1.65-.53-2.48c-.08-.73-.13-1.35-.16-1.86-.03-.51-.07-.99-.14-1.45-.07-.46-.18-.91-.33-1.37-.16-.46-.43-.98-.82-1.58-.1-.1-.34-.37-.7-.8-.37-.43-.79-.88-1.27-1.35-.48-.47-1-.89-1.54-1.27-.55-.38-1.05-.57-1.52-.57-.21,0-.41.01-.61.04-.2.03-.4.04-.61.04-.83,0-1.69-.18-2.56-.55-.87-.36-1.76-.81-2.68-1.35-.91-.53-1.84-1.1-2.77-1.7-.94-.6-1.88-1.13-2.81-1.6-.78-.39-1.66-.75-2.64-1.09-.98-.34-1.89-.72-2.75-1.13-.86-.42-1.58-.9-2.15-1.46-.57-.56-.86-1.26-.86-2.09,0-.16.03-.47.1-.94.06-.47.15-1.01.25-1.62.1-.61.23-1.28.39-1.99.16-.72.34-1.41.55-2.07.21-.66.42-1.27.64-1.82.22-.55.46-.98.72-1.29.36-.44.83-.87,1.39-1.29.56-.42,1.11-.79,1.66-1.11.55-.33,1.04-.59,1.46-.78s.71-.29.84-.29c.23,0,.46.02.68.06.22.04.45.06.68.06.49,0,.92-.06,1.27-.18s.66-.27.94-.45c.27-.18.54-.36.8-.53.26-.17.56-.32.9-.45.44-.18.98-.28,1.62-.29.64-.01,1.27-.08,1.89-.21.73-.16,1.65-.34,2.75-.57,1.11-.22,2.23-.43,3.36-.62s2.19-.36,3.18-.49c.99-.13,1.73-.18,2.23-.16.26,0,.54.07.84.2.3.13.53.42.68.86.34.23.73.4,1.17.51.44.1.81.27,1.09.51.39.34.8.78,1.23,1.33s.84,1.02,1.23,1.41.74.74,1.04,1.04c.3.3.55.59.74.86s.34.56.43.86c.09.3.14.66.14,1.07,0,.83-.09,1.64-.27,2.42-.18.78-.49,1.48-.92,2.09-.43.61-1,1.11-1.72,1.48-.72.38-1.62.57-2.71.57-.65,0-1.35-.07-2.11-.21-.76-.14-1.43-.33-2.03-.57-.31-.1-.62-.27-.94-.51s-.62-.47-.94-.72c-.31-.25-.64-.49-.98-.72-.34-.23-.7-.42-1.09-.55-.39-.13-.9-.25-1.52-.37s-1.27-.21-1.93-.29-1.31-.14-1.93-.2c-.62-.05-1.15-.08-1.56-.08-.55,0-1.08.03-1.6.1-.52.07-.98.2-1.39.39-.4.2-.74.46-1,.8-.26.34-.39.78-.39,1.33,0,.31.06.59.18.82s.29.45.51.64c.22.2.5.4.84.61.34.21.73.46,1.17.74.39.26.77.55,1.15.86.38.31.75.61,1.13.9.38.29.76.56,1.15.82.39.26.79.47,1.21.62.49.16,1.01.25,1.54.29.53.04,1.01.1,1.43.18,1.54.37,2.97.89,4.32,1.58,1.34.69,2.58,1.49,3.73,2.4,1.15.91,2.18,1.89,3.11,2.95.92,1.05,1.74,2.13,2.44,3.22.34.55.61,1.04.82,1.46.21.43.36.86.47,1.29.1.43.17.89.2,1.39.03.5.04,1.09.04,1.8,0,.81.08,1.59.23,2.34.16.76.23,1.43.23,2.03Z"/>
    <g>
      <path class="cls-1" d="m171.85,58.21c-3.5-.99-6.13-2.61-7.9-4.88-1.77-2.26-2.65-5.25-2.65-8.97v-5.9c0-4.8-2.1-7.21-6.29-7.21v-4.3c4.19,0,6.29-2.39,6.29-7.18v-6.17c.04-3.62.92-6.54,2.65-8.76,1.73-2.22,4.36-3.84,7.9-4.85l1.13,3.41c-4.13,1.32-6.2,4.77-6.2,10.35v5.99c0,4.49-1.65,7.61-4.95,9.37,3.3,1.78,4.95,4.93,4.95,9.46v6.11c.06,5.44,2.12,8.81,6.2,10.11l-1.13,3.41Z"/>
      <path class="cls-1" d="m219.95,31.67c0,4.88-1.12,8.82-3.35,11.8-2.23,2.99-5.26,4.48-9.07,4.48s-6.96-1.24-9.19-3.71v15.45h-5.49V15.27h5.01l.27,3.56c2.23-2.77,5.34-4.15,9.31-4.15s6.9,1.45,9.15,4.36c2.24,2.91,3.37,6.95,3.37,12.13v.5Zm-5.49-.62c0-3.62-.77-6.47-2.31-8.57-1.54-2.1-3.66-3.14-6.35-3.14-3.32,0-5.81,1.47-7.47,4.42v15.33c1.64,2.93,4.15,4.39,7.53,4.39,2.63,0,4.72-1.04,6.27-3.13,1.55-2.09,2.33-5.18,2.33-9.3Z"/>
      <path class="cls-1" d="m232.88,47.36h-5.49V1.81h5.49v45.55Z"/>
      <path class="cls-1" d="m261.47,47.36c-.32-.63-.57-1.76-.77-3.38-2.55,2.65-5.6,3.97-9.13,3.97-3.16,0-5.76-.89-7.78-2.68-2.03-1.79-3.04-4.06-3.04-6.81,0-3.34,1.27-5.94,3.81-7.78,2.54-1.85,6.11-2.77,10.72-2.77h5.34v-2.52c0-1.92-.57-3.44-1.72-4.58-1.15-1.14-2.84-1.71-5.07-1.71-1.96,0-3.6.49-4.92,1.48-1.32.99-1.99,2.18-1.99,3.59h-5.52c0-1.6.57-3.15,1.71-4.64,1.14-1.49,2.68-2.67,4.63-3.54,1.95-.87,4.09-1.3,6.42-1.3,3.7,0,6.59.92,8.69,2.77,2.1,1.85,3.18,4.39,3.26,7.64v14.77c0,2.95.38,5.29,1.13,7.03v.47h-5.75Zm-9.1-4.18c1.72,0,3.35-.44,4.89-1.33s2.66-2.05,3.35-3.47v-6.58h-4.3c-6.72,0-10.08,1.97-10.08,5.9,0,1.72.57,3.06,1.72,4.03,1.15.97,2.62,1.45,4.42,1.45Z"/>
      <path class="cls-1" d="m284.75,39.32l7.47-24.05h5.87l-12.9,37.04c-2,5.34-5.17,8.01-9.52,8.01l-1.04-.09-2.05-.39v-4.45l1.48.12c1.86,0,3.31-.38,4.34-1.13,1.04-.75,1.89-2.13,2.57-4.12l1.22-3.26-11.45-31.73h5.99l8.01,24.05Z"/>
      <path class="cls-1" d="m301.3,31.05c0-5,1.16-8.98,3.47-11.94,2.31-2.96,5.38-4.43,9.19-4.43s6.97,1.38,9.16,4.15l.27-3.56h5.01v31.32c0,4.15-1.23,7.42-3.69,9.82-2.46,2.39-5.77,3.59-9.92,3.59-2.31,0-4.58-.49-6.79-1.48-2.21-.99-3.9-2.34-5.07-4.06l2.85-3.29c2.35,2.91,5.23,4.36,8.63,4.36,2.67,0,4.75-.75,6.24-2.25,1.49-1.5,2.24-3.62,2.24-6.35v-2.76c-2.19,2.53-5.19,3.8-8.99,3.8s-6.8-1.51-9.12-4.54c-2.32-3.02-3.48-7.15-3.48-12.37Zm5.52.62c0,3.62.74,6.46,2.22,8.53,1.48,2.07,3.56,3.1,6.23,3.1,3.46,0,6-1.57,7.62-4.72v-14.65c-1.68-3.06-4.2-4.6-7.56-4.6-2.67,0-4.76,1.04-6.26,3.11-1.5,2.08-2.25,5.15-2.25,9.22Z"/>
      <path class="cls-1" d="m352.19,20.2c-.83-.14-1.73-.21-2.7-.21-3.6,0-6.04,1.53-7.32,4.6v22.78h-5.49V15.27h5.34l.09,3.71c1.8-2.87,4.35-4.3,7.65-4.3,1.07,0,1.88.14,2.43.42v5.1Z"/>
      <path class="cls-1" d="m355.18,31.02c0-3.14.62-5.97,1.85-8.48,1.24-2.51,2.96-4.45,5.16-5.81,2.2-1.36,4.72-2.05,7.55-2.05,4.37,0,7.9,1.51,10.6,4.54s4.05,7.05,4.05,12.07v.39c0,3.12-.6,5.93-1.79,8.41-1.2,2.48-2.91,4.41-5.13,5.8-2.22,1.38-4.78,2.08-7.67,2.08-4.35,0-7.87-1.51-10.57-4.54s-4.05-7.03-4.05-12.01v-.39Zm5.52.65c0,3.56.83,6.42,2.48,8.57,1.65,2.16,3.86,3.23,6.63,3.23s5-1.09,6.64-3.28c1.64-2.18,2.46-5.24,2.46-9.18,0-3.52-.84-6.37-2.51-8.56-1.67-2.18-3.89-3.28-6.66-3.28s-4.89,1.08-6.55,3.23c-1.66,2.16-2.49,5.24-2.49,9.25Z"/>
      <path class="cls-1" d="m411.08,44.19c-2.14,2.51-5.27,3.77-9.4,3.77-3.42,0-6.03-.99-7.81-2.98-1.79-1.99-2.69-4.93-2.71-8.82V15.27h5.49v20.73c0,4.86,1.98,7.3,5.93,7.3,4.19,0,6.98-1.56,8.36-4.69V15.27h5.49v32.09h-5.22l-.12-3.17Z"/>
      <path class="cls-1" d="m429.94,15.27l.18,4.03c2.45-3.08,5.65-4.63,9.61-4.63,6.78,0,10.2,3.83,10.26,11.48v21.2h-5.49v-21.23c-.02-2.31-.55-4.02-1.59-5.13-1.04-1.11-2.65-1.66-4.85-1.66-1.78,0-3.34.47-4.69,1.42-1.34.95-2.39,2.19-3.14,3.74v22.86h-5.49V15.27h5.19Z"/>
      <path class="cls-1" d="m456.93,31.05c0-4.92,1.17-8.88,3.5-11.88,2.33-3,5.39-4.49,9.16-4.49s6.73,1.29,8.93,3.86V1.81h5.49v45.55h-5.04l-.27-3.44c-2.19,2.69-5.25,4.03-9.16,4.03s-6.75-1.52-9.09-4.57c-2.34-3.04-3.51-7.02-3.51-11.92v-.42Zm5.49.62c0,3.64.75,6.48,2.25,8.54,1.5,2.06,3.58,3.08,6.23,3.08,3.48,0,6.02-1.56,7.62-4.69v-14.74c-1.64-3.02-4.16-4.54-7.56-4.54-2.69,0-4.78,1.04-6.29,3.11-1.5,2.08-2.25,5.15-2.25,9.22Z"/>
      <path class="cls-1" d="m503.96,54.8c4.01-1.29,6.09-4.56,6.23-9.82v-6.52c0-4.57,1.79-7.68,5.37-9.34-3.58-1.62-5.37-4.73-5.37-9.34v-6.02c0-5.58-2.07-9.02-6.2-10.35l1.13-3.41c3.5.99,6.13,2.59,7.89,4.82,1.76,2.22,2.65,5.17,2.67,8.82v6.23c0,4.73,2.1,7.09,6.29,7.09v4.3c-4.19,0-6.29,2.4-6.29,7.21v5.99c0,3.72-.89,6.69-2.68,8.93-1.79,2.23-4.41,3.84-7.87,4.83l-1.16-3.41Z"/>
    </g>
  </g>
</svg>