<?xml version="1.0" encoding="UTF-8"?>
<svg id="Capa_2" data-name="Capa 2" xmlns="http://www.w3.org/2000/svg" viewBox="0 0 770.39 125.98">
  <defs>
    <style>
      .cls-1 {
        fill: #fff;
      }
    </style>
  </defs>
  <g id="Capa_1-2" data-name="Capa 1">
    <g>
      <path class="cls-1" d="m462.72,63.09c0-18.82.13-37.64-.09-56.46-.06-4.95,1.44-6.76,6.57-6.53,15.29.7,30.61-.69,45.9,1.01,25.24,2.81,45.07,21.75,48.89,46.85,1.85,12.17,1.46,24.23-1.33,36.17-5.16,22.11-22.93,37.61-46.51,40.7-16.42,2.15-32.93.52-49.38,1.02-4.47.14-4.03-2.99-4.04-5.8-.04-9.49-.02-18.99-.02-28.48,0-9.49,0-18.99,0-28.48Zm26.33-.04c0,5.66,0,11.31,0,16.97s.18,11.32-.07,16.97c-.17,3.81.95,5.53,5.05,5.24,4.3-.3,8.65-.03,12.97-.07,14.61-.13,24.71-7.92,28.26-21.98,2.55-10.12,2.95-20.37.91-30.63-2.75-13.84-12.05-22.52-25.82-24.86-5.32-.9-10.61-.52-15.9-.88-4.05-.27-5.58,1.05-5.49,5.3.25,11.31.09,22.62.09,33.94Z"/>
      <path class="cls-1" d="m137.74,62.81c0-18.83.12-37.66-.08-56.49-.05-4.82,1.58-6.41,6.37-6.21,16.13.67,32.35-1.27,48.4,1.11,16.91,2.51,30.13,10.71,34.46,28.16,4.41,17.76-.54,35.45-17.77,44.54-3.45,1.82-2.31,3.63-1.09,5.99,6.97,13.45,13.91,26.93,20.81,40.42,2.64,5.16,2.43,5.48-3.28,5.52-6.33.04-12.67-.13-18.99.06-3.13.09-4.82-1.13-6.12-3.92-5.54-11.93-11.5-23.67-16.77-35.71-1.86-4.26-4.19-5.59-8.63-5.45-13.09.41-10.84-1.56-11.01,11.24-.13,9.5-.2,19,.04,28.49.11,4.22-1.49,5.58-5.53,5.35-4.65-.26-9.33-.05-13.99-.06-6.77-.02-6.81-.02-6.81-7.05-.02-18.66,0-37.32,0-55.99Zm26.31-21.56c0,4.65.07,9.31-.03,13.96-.06,2.66.85,4.04,3.72,3.97,4.48-.12,9,.24,13.45-.14,15.41-1.32,20.65-7.49,19.23-22.2-.57-5.86-4.14-10.27-9.85-11.81-7.84-2.1-15.86-.95-23.8-1.09-2.57-.05-2.72,1.92-2.71,3.86,0,4.49,0,8.97,0,13.46Z"/>
      <path class="cls-1" d="m678.34,62.88c0-18.82.13-37.63-.09-56.45-.05-4.65,1.13-6.55,6.11-6.33,15.95.69,31.95-.94,47.88,1.05,17.86,2.23,32.07,13.46,35.05,29.4,3.16,16.87-.36,32.01-17.74,42.39-3.62,2.16-3.39,3.82-1.69,7.02,7.17,13.52,14.12,27.16,21.08,40.8,2.37,4.64,2.11,5.02-2.94,5.07-6.33.06-12.66-.12-18.98.07-3.24.1-5.17-.94-6.58-3.99-5.57-12.09-11.56-23.98-17-36.13-1.71-3.83-3.89-5.04-7.94-4.97-11.47.2-11.47.03-11.47,11.3,0,8.99.01,17.98,0,26.97q-.01,6.73-6.98,6.75c-4,0-7.99.01-11.99,0-6.68-.02-6.71-.03-6.71-6.52-.01-18.82,0-37.63,0-56.45Zm25.71-21.47c0,4.65,0,9.3,0,13.95,0,1.71.05,3.63,2.34,3.67,8.93.16,18.01,1.12,26.41-3.02,6.66-3.28,8.96-9.68,7.55-19.86-.84-6.05-4.65-9.85-11.45-11.44-7.22-1.68-14.55-.55-21.82-.82-2.46-.09-3.05,1.47-3.03,3.57.03,4.65,0,9.3,0,13.95Z"/>
      <path class="cls-1" d="m393.27,97.84c-5.5,0-11.01.19-16.49-.07-3.32-.16-4.76,1.23-5.59,4.23-1.85,6.74-4.02,13.38-5.82,20.13-.74,2.75-2.18,3.8-4.94,3.74-5.83-.11-11.66-.01-17.5-.03-6.13-.02-6.17-.04-4.33-5.7,8.11-25,16.27-49.99,24.37-75,4.25-13.14,8.54-26.27,12.51-39.49,1.28-4.27,3.44-5.76,7.85-5.56,7.48.34,15,.22,22.49.05,3.22-.07,4.74,1.19,5.7,4.22,12.4,38.83,24.88,77.64,37.42,116.43,1.14,3.52.83,5.28-3.49,5.12-6.32-.23-12.66-.15-18.99-.02-2.79.06-4.27-1.06-5.06-3.69-2.05-6.85-4.35-13.64-6.31-20.51-.83-2.91-2.3-4.01-5.33-3.9-5.49.21-11,.06-16.49.06Zm.23-67.39c-.33-.04-.66-.08-.99-.12-4.24,14.1-8.42,28.21-12.76,42.28-.9,2.91.27,3.56,2.8,3.55,6.98-.03,13.95-.12,20.93.05,3.25.08,3.61-1.27,2.79-3.92-4.28-13.94-8.52-27.89-12.77-41.84Z"/>
      <path class="cls-1" d="m247.76,62.96c0-18.65-.02-37.31,0-55.96,0-6.72.11-6.8,6.6-6.81,21.15-.01,42.31.12,63.45-.1,4.82-.05,6.62,1.51,6.23,6.29-.31,3.8-.34,7.68,0,11.48.46,5.01-1.76,6.17-6.38,6.07-12.49-.26-24.98.05-37.47-.16-4.11-.07-5.7,1.25-5.5,5.41.26,5.48.33,11,.01,16.48-.26,4.55,1.63,5.66,5.86,5.57,11.15-.24,22.32.06,33.47-.15,4.07-.08,5.8,1.25,5.61,5.4-.21,4.49-.15,8.99-.02,13.49.1,3.58-1.3,4.99-5.02,4.94-11.49-.17-22.99.09-34.47-.13-4.17-.08-5.62,1.37-5.44,5.47.25,5.82.25,11.66.01,17.48-.17,4.07,1.22,5.56,5.42,5.49,13.15-.22,26.32.04,39.47-.15,4.06-.06,5.76,1.19,5.49,5.39-.28,4.48-.14,8.99-.06,13.49.05,2.73-1.11,3.89-3.86,3.88-23.15-.04-46.3-.05-69.45,0-4.53.01-3.92-3.22-3.92-5.94-.05-17.49-.03-34.98-.03-52.46,0-1.5,0-3,0-4.5Z"/>
      <path class="cls-1" d="m582.34,63c0-18.83.12-37.67-.09-56.5-.05-4.59,1.04-6.47,6.06-6.42,21.33.24,42.66.23,63.99,0,4.75-.05,6.14,1.66,5.84,6.1-.29,4.31-.3,8.68,0,12.99.28,3.88-1.3,4.79-4.91,4.74-12.83-.18-25.67.14-38.49-.17-4.76-.12-6.1,1.55-5.83,6.04.33,5.48.25,11,.03,16.49-.15,3.66,1.1,5.01,4.86,4.95,11.5-.18,23,.05,34.5-.12,3.59-.05,5.16.84,4.89,4.75-.34,4.81-.28,9.67-.03,14.49.18,3.5-1.06,4.63-4.55,4.58-11.5-.17-23,.07-34.5-.14-3.91-.07-5.35,1.18-5.19,5.14.26,6.16.25,12.34,0,18.49-.15,3.83,1.44,4.83,5.02,4.79,13.16-.15,26.33.07,39.5-.13,4.17-.06,5.69,1.45,5.47,5.52-.23,4.32-.11,8.66-.07,13,.03,2.84-1.05,4.27-4.12,4.26-22.83-.06-45.66-.08-68.5,0-4.12.01-3.9-2.63-3.9-5.37,0-19.17,0-38.33,0-57.5Z"/>
    </g>
    <g>
      <path class="cls-1" d="m.05,62.9C.05,45.23.13,27.55,0,9.87-.04,4.52,4.39-.03,9.84,0c21.5.13,43,.06,64.5.04,1.9,0,3.45.64,4.77,1.96,9.85,9.85,19.71,19.71,29.56,29.55,1.21,1.21,1.78,2.65,1.78,4.36,0,26.9,0,53.81,0,80.71,0,5.15-4.2,9.35-9.36,9.36-30.53,0-61.06,0-91.59,0-5.15,0-9.43-4.3-9.43-9.46,0-17.87,0-35.74,0-53.61Zm44.4,6.21c0,2.73,0,5.47,0,8.2,0,2.43.02,4.86,0,7.29,0,.79.21,1.18,1.12,1.17,3.78-.05,7.56.05,11.34-.04,4.63-.11,8.72-1.54,11.72-5.29,4.29-5.37,4.93-14.48,1.43-20.56-2.92-5.09-7.56-7.16-13.2-7.31-3.59-.09-7.18-.02-10.76-.02-1.62,0-1.65,0-1.65,1.65-.01,4.97,0,9.95,0,14.92Zm-29.46.04c0,5.13.01,10.27-.01,15.4,0,.88.25,1.25,1.19,1.22,1.54-.06,3.09-.07,4.63,0,1.06.05,1.31-.37,1.29-1.35-.05-2.7.02-5.4-.04-8.1-.02-1.08.29-1.5,1.43-1.48,1.92.04,3.85.05,5.78-.14,7.49-.72,11.5-6.56,10.05-13.91-1.01-5.12-4.98-8.17-10.53-8.24-4.17-.05-8.34.02-12.5-.04-1.05-.01-1.3.37-1.29,1.35.04,5.09.02,10.19.02,15.28Zm62.33-.12c0,5.05,0,10.11,0,15.16q0,1.55,1.5,1.56c1.31,0,2.62,0,3.94,0q1.61,0,1.61-1.56c0-3.28,0-6.56,0-9.84q0-1.8,1.74-1.8c2.89,0,5.79-.03,8.68.01.86.01,1.17-.28,1.13-1.14-.05-1.27-.06-2.55,0-3.82.04-.91-.29-1.21-1.2-1.2-3.05.04-6.1,0-9.14.03-.88,0-1.25-.28-1.23-1.2.05-1.74,0-3.47.01-5.21,0-1.51,0-1.52,1.57-1.52,3.28,0,6.56-.03,9.84.02.84.01,1.19-.18,1.14-1.08-.07-1.15-.08-2.32,0-3.47.08-1.11-.31-1.46-1.43-1.45-5.59.05-11.19.05-16.78,0-1.15-.01-1.42.39-1.41,1.47.05,5.02.02,10.03.02,15.05Zm24.35-36.93c-8.1-8.11-16.2-16.21-24.3-24.32-.17.25-.05.64-.05,1.01,0,6.02,0,12.04,0,18.05,0,3.48,1.77,5.25,5.28,5.26,5.79.01,11.57,0,17.36,0,.6,0,1.21,0,1.71,0Z"/>
      <path class="cls-1" d="m51.56,71.01c-.18-3.4.25-7.53.07-11.66-.02-.5.02-.93.7-.92,1.62.04,3.26-.1,4.86.1,3.97.48,6.48,2.85,7.31,6.81.6,2.86.59,5.75-.17,8.59-.92,3.48-3.94,5.85-7.52,5.96-1.35.04-2.7.07-4.05.15-.9.05-1.23-.35-1.22-1.23.03-2.35.01-4.71.01-7.79Z"/>
      <path class="cls-1" d="m25.64,58.43c.69,0,1.39-.01,2.08,0,2.77.05,4.62,1.99,4.82,5.02.18,2.69-1.53,4.9-4.15,5.27-1.76.25-3.54.22-5.31.21-.73,0-1.03-.3-1.03-1.05.02-2.82.02-5.63,0-8.45,0-.75.3-1.04,1.03-1.01.85.03,1.7,0,2.55,0h0Z"/>
    </g>
  </g>
</svg>