<?xml version="1.0" encoding="UTF-8"?>
<svg id="Capa_2" data-name="Capa 2" xmlns="http://www.w3.org/2000/svg" viewBox="0 0 410.93 52.04">
  <defs>
    <style>
      .cls-1, .cls-2 {
        fill: #fff;
      }

      .cls-3 {
        letter-spacing: -.04em;
      }

      .cls-2 {
        font-family: Comfortaa-Regular, Comfortaa;
        font-size: 42px;
        font-variation-settings: 'wght' 400;
      }
    </style>
  </defs>
  <g id="Capa_1-2" data-name="Capa 1">
    <g>
      <path class="cls-1" d="m64.99,7.83c.01,5.23,0,10.45,0,15.68s.01,10.24,0,15.36c0,1.89-.68,2.26-2.26,1.35-3.48-2.01-6.94-4.05-10.45-6.01-1.14-.64-1.6-1.42-1.58-2.72.07-5.37.07-10.74.01-16.11-.01-1.24.44-1.96,1.5-2.54,3.59-2.03,7.15-4.11,10.71-6.18,1.29-.75,2.05-.33,2.07,1.17Z"/>
      <path class="cls-1" d="m46.97,7.34C46.97,2.94,44.01.04,39.65.04,28.86.03,18.07.11,7.28,0,3.28-.04-.11,3.18,0,7.24c.15,5.4.04,10.82.04,16.24s.11,10.82-.04,16.24c-.12,4.23,3.36,7.31,7.34,7.29,10.74-.11,21.5-.04,32.25-.04,4.45,0,7.37-2.89,7.38-7.36.01-10.76.01-21.51-.01-32.27Zm-23.4,24.72c-4.72,0-8.55-3.82-8.55-8.55s3.83-8.53,8.55-8.53,8.55,3.82,8.55,8.53-3.83,8.55-8.55,8.55Z"/>
    </g>
    <text class="cls-2" transform="translate(90.33 39.9)"><tspan class="cls-3" x="0" y="0">S</tspan><tspan x="26.12" y="0">TREAM-HUB</tspan></text>
  </g>
</svg>