<?xml version="1.0" encoding="UTF-8"?>
<svg id="Capa_2" data-name="Capa 2" xmlns="http://www.w3.org/2000/svg" viewBox="0 0 40 35.37">
  <defs>
    <style>
      .cls-1 {
        fill: #fff;
      }
    </style>
  </defs>
  <g id="Capa_1-2" data-name="Capa 1">
    <path class="cls-1" d="m25.01,24.01c-3.2,0-6.39,0-9.59,0-.68,0-.69.01-.53.68.4,1.69.66,1.89,2.37,1.89,5.14,0,10.29,0,15.43,0,2.09,0,3.72,1.23,4.31,3.22.69,2.33-.81,4.89-3.19,5.45-2.51.58-4.97-1.03-5.38-3.5-.11-.64-.09-1.27.08-1.9.09-.32.06-.47-.32-.47-2.89,0-5.78.01-8.68,0-.48,0-.36.25-.29.53.77,3.2-2.03,6.09-5.23,5.35-1.77-.41-2.93-1.55-3.31-3.34-.38-1.78.16-3.29,1.6-4.42.34-.26.37-.46.25-.86-.45-1.62-.83-3.25-1.22-4.88-1.21-5.06-2.42-10.13-3.62-15.19-.22-.92-.43-1.83-.65-2.75-.18-.75-.47-.99-1.24-.99-1.39,0-2.78,0-4.17,0-.91,0-1.42-.37-1.6-1.08C-.17.91.4.05,1.26.03,3,0,4.74-.03,6.48.05c1.48.07,2.82,1.31,3.21,2.82.21.8.4,1.61.57,2.42.06.29.2.41.49.4.16,0,.32,0,.48,0,8.8,0,17.61,0,26.41,0,.27,0,.54,0,.81,0,1.13.03,1.73.78,1.47,1.89-.35,1.53-.72,3.05-1.09,4.57-.83,3.48-1.66,6.96-2.49,10.44-.26,1.1-.67,1.42-1.82,1.42-3.18,0-6.36,0-9.54,0Zm-1.06-15.51c-.97,0-1.95.01-2.92,0-.33,0-.45.09-.42.44.12,1.38.22,2.77.31,4.15.03.38.28.37.54.37,1.64,0,3.29-.01,4.93,0,.42,0,.57-.16.6-.54.09-1.3.2-2.61.31-3.91.03-.37-.09-.52-.48-.51-.96.02-1.92,0-2.87,0Zm9.56,0c-.96,0-1.92.01-2.87,0-.36,0-.51.1-.53.48-.09,1.35-.21,2.7-.34,4.05-.04.38.14.43.45.42,1.68,0,3.35-.01,5.03,0,.33,0,.48-.12.56-.44.31-1.37.64-2.73.98-4.1.08-.33-.02-.42-.34-.42-.97.01-1.95,0-2.92,0Zm-19.08,0c-.99,0-1.98,0-2.97,0-.3,0-.4.09-.32.4.34,1.38.66,2.76.99,4.14.07.3.23.42.54.42,1.69,0,3.38-.01,5.07,0,.35,0,.42-.12.39-.45-.12-1.35-.23-2.7-.31-4.05-.02-.37-.19-.45-.52-.45-.96,0-1.92,0-2.87,0Zm9.56,7.76c-.77,0-1.53,0-2.3,0-.34,0-.51.1-.47.47.12,1.35.23,2.7.34,4.05.02.31.14.45.48.44,1.29-.01,2.59-.01,3.88,0,.34,0,.43-.14.45-.45.1-1.37.21-2.73.34-4.1.03-.35-.13-.41-.41-.41-.77,0-1.53,0-2.3,0Zm7.53,4.95c.64,0,1.28,0,1.92,0,.25,0,.42-.05.49-.34.32-1.4.65-2.8.99-4.19.07-.29,0-.42-.31-.42-1.57,0-3.13,0-4.7,0-.27,0-.41.12-.43.39-.1,1.35-.2,2.71-.31,4.06-.03.37.1.52.48.51.62-.02,1.25,0,1.87,0Zm-15.8-4.95c-.77,0-1.53,0-2.3,0-.36,0-.5.11-.41.49.33,1.36.66,2.73.98,4.1.07.29.23.38.51.38,1.28,0,2.55,0,3.83,0,.32,0,.47-.1.44-.44-.12-1.33-.24-2.67-.33-4-.03-.43-.23-.53-.61-.51-.7.02-1.4,0-2.11,0Zm17.03,13.13c-.88,0-1.57.7-1.57,1.58,0,.9.74,1.62,1.66,1.61.8,0,1.55-.77,1.55-1.58,0-.92-.72-1.62-1.65-1.61Zm-17.76,3.16c.93,0,1.6-.67,1.59-1.59,0-.89-.69-1.57-1.57-1.57-.9,0-1.64.71-1.64,1.58,0,.89.71,1.59,1.62,1.59Z"/>
  </g>
</svg>