<?xml version="1.0" encoding="UTF-8"?><svg id="Capa_2" xmlns="http://www.w3.org/2000/svg" width="39.97" height="40" viewBox="0 0 39.97 40"><defs><style>.cls-1{fill:#fff;}</style></defs><g id="Capa_1-2"><g><path class="cls-1" d="m19.91,0c5.48.07,10.38,1.71,14.24,5.73,3.34,3.49,5.4,7.64,5.76,12.54.42,5.78-1.29,10.84-5.17,15.13-3.26,3.61-7.38,5.67-12.16,6.35-3.63.52-7.14-.09-10.48-1.56-1.13-.5-2.18-.6-3.36-.27-2.41.69-4.84,1.29-7.27,1.92-.15.04-.31.08-.47.1-.79.14-.99-.04-.79-.82.64-2.49,1.26-4.99,1.98-7.46.36-1.21.24-2.27-.26-3.42C-1.4,20.7-.36,13.66,4.61,7.19,7.8,3.03,12.22.94,17.32.13c.29-.05.58-.11.88-.12.57-.02,1.14,0,1.71,0Zm-.1,3.56c-.32,0-.64,0-.96,0-.34.01-.68.02-1.02.07-3.82.58-7.04,2.28-9.74,5.08-4.74,4.89-5.85,12.81-2.51,18.74.72,1.28.87,2.55.45,3.93-.3.98-.58,1.97-.84,2.96-.17.64,0,.81.65.64,1.08-.28,2.18-.51,3.23-.89,1.28-.46,2.41-.29,3.6.34,2.58,1.37,5.34,2.01,8.29,1.8,3.97-.28,7.44-1.74,10.31-4.48,3.69-3.54,5.41-7.9,5.06-13.04-.27-3.91-1.75-7.29-4.47-10.09-3.28-3.38-7.3-5.12-12.04-5.07Z"/><path class="cls-1" d="m25,29.43c-2.43.06-4.34-.89-6.19-2.02-3.46-2.12-6.08-5.05-8.07-8.56-1.45-2.57-1.24-5.07.52-7.19,1.42-1.72,3.37-1.41,4.22.67.26.63.48,1.29.81,1.88.67,1.18.46,2.22-.35,3.22-.88,1.1-.88,1.14-.07,2.3,1.38,1.98,3.13,3.54,5.33,4.58,1.12.53,1.5.44,2.31-.5.3-.35.59-.7.88-1.05.4-.49.91-.6,1.47-.34,1.18.55,2.34,1.12,3.51,1.68.71.34.89.91.78,1.64-.23,1.57-1.09,2.62-2.53,3.21-.9.37-1.84.51-2.62.48Z"/></g></g></svg>