<?xml version="1.0" encoding="UTF-8"?>
<svg id="Capa_2" data-name="Capa 2" xmlns="http://www.w3.org/2000/svg" viewBox="0 0 40 39.94">
  <defs>
    <style>
      .cls-1 {
        fill: #fff;
      }
    </style>
  </defs>
  <g id="Capa_1-2" data-name="Capa 1">
    <g id="Capa_1-2" data-name="Capa 1-2">
      <g>
        <path class="cls-1" d="m20.06.01c2.87,0,5.74-.07,8.61.12,3.81.27,7.11,1.55,9.3,4.91,1.21,1.87,1.75,3.99,1.86,6.19.27,5.02.15,10.05.1,15.07-.01,1.61-.07,3.22-.45,4.82-1.1,4.66-4.17,7.59-8.9,8.43-1.71.3-3.44.34-5.15.35-3.62.04-7.25.04-10.87,0-1.91-.02-3.84-.04-5.72-.47-4.74-1.1-7.5-4.1-8.42-8.82C.05,28.88.05,27.08.03,25.29,0,21.76,0,18.22.03,14.67c.02-1.96.02-3.92.47-5.85C1.62,4.09,4.6,1.34,9.34.4,11.04.06,12.76.08,14.49.04,16.34,0,18.2.04,20.05.04V.01ZM3.84,19.94h-.02v6.34c0,.97.04,1.94.12,2.91.34,3.91,2.94,6.49,6.86,6.84,2.54.22,5.09.15,7.64.2,2.7.06,5.4-.05,8.08-.07.92,0,1.85-.02,2.77-.14,2.45-.32,4.52-1.29,5.76-3.55.76-1.39,1.02-2.94,1.06-4.5.11-4.57.15-9.15.04-13.72-.02-1.16-.04-2.32-.14-3.49-.35-3.87-2.95-6.46-6.82-6.81-2.52-.22-5.05-.15-7.56-.21-2.79-.06-5.56.05-8.35.07-.89,0-1.77.02-2.65.15-2.42.32-4.47,1.29-5.72,3.52-.76,1.37-1.04,2.89-1.06,4.42-.05,2.67-.01,5.35-.01,8.02h0Z"/>
        <path class="cls-1" d="m20.02,9.72c5.62,0,10.23,4.59,10.25,10.2,0,5.76-4.56,10.35-10.3,10.35s-10.25-4.6-10.25-10.27,4.59-10.27,10.3-10.27Zm6.54,10.31c.01-3.59-2.94-6.59-6.51-6.6-3.6-.01-6.59,2.91-6.61,6.5-.02,3.62,2.94,6.62,6.55,6.64,3.59,0,6.56-2.95,6.59-6.52h-.01Z"/>
        <path class="cls-1" d="m33.08,9.32c.01,1.34-1.12,2.5-2.46,2.51-1.29,0-2.45-1.11-2.47-2.42-.04-1.31,1.12-2.5,2.46-2.51,1.29,0,2.46,1.14,2.47,2.42Z"/>
      </g>
    </g>
  </g>
</svg>