<?xml version="1.0" encoding="UTF-8"?><svg id="Capa_2" xmlns="http://www.w3.org/2000/svg" width="32" height="31.98" viewBox="0 0 32 31.98"><defs><style>.cls-1{fill:#fff;}</style></defs><g id="Capa_1-2"><g><path class="cls-1" d="m16.05,0c2.3,0,4.59-.06,6.89.1,3.05.22,5.69,1.24,7.44,3.93.97,1.5,1.4,3.19,1.49,4.95.22,4.02.12,8.04.08,12.06-.01,1.29-.06,2.58-.36,3.86-.88,3.73-3.34,6.07-7.12,6.75-1.37.24-2.75.27-4.12.28-2.9.03-5.8.03-8.7,0-1.53-.02-3.07-.03-4.58-.38-3.79-.88-6-3.28-6.74-7.06C.04,23.1.04,21.66.02,20.23c-.03-2.83-.03-5.66,0-8.5.02-1.57.02-3.14.38-4.68C1.29,3.26,3.68,1.06,7.47.31,8.83.04,10.21.05,11.59.02c1.48-.03,2.97,0,4.45,0ZM3.07,15.95s-.01,0-.02,0c0,1.69,0,3.38,0,5.07,0,.78.03,1.55.1,2.33.27,3.13,2.35,5.19,5.49,5.47,2.03.18,4.07.12,6.11.16,2.16.05,4.32-.04,6.47-.06.74,0,1.48-.02,2.22-.11,1.96-.26,3.62-1.03,4.61-2.84.61-1.11.82-2.35.85-3.6.09-3.66.12-7.32.03-10.98-.02-.93-.03-1.86-.11-2.79-.28-3.1-2.36-5.17-5.46-5.45-2.02-.18-4.04-.12-6.05-.17-2.23-.05-4.45.04-6.68.06-.71,0-1.42.02-2.12.12-1.94.26-3.58,1.03-4.58,2.82-.61,1.1-.83,2.31-.85,3.54-.04,2.14-.01,4.28-.01,6.42Z"/><path class="cls-1" d="m16.02,7.77c4.5,0,8.19,3.67,8.2,8.16,0,4.61-3.65,8.28-8.24,8.28-4.53,0-8.2-3.68-8.2-8.22,0-4.56,3.67-8.22,8.24-8.22Zm5.23,8.25c.01-2.87-2.35-5.27-5.21-5.28-2.88-.01-5.27,2.33-5.29,5.2-.02,2.9,2.35,5.3,5.24,5.31,2.87,0,5.25-2.36,5.27-5.22Z"/><path class="cls-1" d="m26.47,7.45c.01,1.07-.9,2-1.97,2.01-1.03,0-1.96-.89-1.98-1.94-.03-1.05.9-2,1.97-2.01,1.03,0,1.97.91,1.98,1.94Z"/></g></g></svg>