<?xml version="1.0" encoding="UTF-8"?>
<svg id="Capa_2" data-name="Capa 2" xmlns="http://www.w3.org/2000/svg" viewBox="0 0 100 93.67">
  <defs>
    <style>
      .cls-1 {
        fill: #fff;
      }
    </style>
  </defs>
  <g id="Capa_1-2" data-name="Capa 1">
    <g>
      <path class="cls-1" d="m38.25.18c-5.54.84-9.7,3.46-12.52,7.83-4.18,6.52-4.14,14.46-3.96,17.46.09,1.32-3.4,1.76-4.31,1.8-2.01.09-4.03-.69-5.53-2-1.96-1.72-3.07-4.29-3.31-6.9-.18-1.87.03-3.86-.93-5.46-1.82-3.01-6.65-2.35-7.56,1.04-.42,1.53.09,3.16.78,4.59,3.18,6.69,10.54,11.17,18,10.39,1.23-.1,2.22-.35,2.89-.53.21,10.62,0,18.01-.65,22.15-3.42-.35-6.06-.39-7.91-.1-4.28.65-6.13,2.85-5.56,6.61.26,1.71,1.15,3.1,2.66,4.15,1.52,1.05,3.14,1.44,4.84,1.18,4.22-.65,7.39-2.46,9.48-5.49.77.22,2.13.62,4.07,1.21s3.24.96,3.88,1.13c.43.12,1.25.34,2.48.64-.04-.16-.09-.3-.12-.45-.1-.39-.21-.79-.29-1.21-.09-.44-.18-.89-.25-1.36-.09-.57-.16-1.15-.18-1.71-.03-.18-.04-.36-.05-.53v-.18c-.01-.27,0-.54-.01-.8,0-.36,0-.73.01-1.08-1.93-.31-4.25-.7-6.93-1.17,1.82-5.28,2.53-13.68,2.11-25.21,5.23-2.02,9.64-4.67,13.24-7.98,1.83-1.78,3.18-3.81,4.07-6.15.89-2.32,1.14-4.79.75-7.35-.58-3.83-3.64-5.3-9.18-4.46l-.04-.05ZM16,58.42c-1.32.21-2.45.04-3.37-.49-.92-.54-1.45-1.26-1.6-2.19-.14-.93.23-1.44,1.13-1.57s3.37.32,7.44,1.4c-1.08,1.71-2.28,2.67-3.61,2.88v-.03Zm22.94-41.49c-2.39,2.62-5.63,4.71-9.7,6.29,0-12.76,2.68-19.55,8.02-20.35,2.45-.38,3.93,1.21,4.47,4.79.54,3.58-.38,6.64-2.78,9.29h-.01Z"/>
      <path class="cls-1" d="m78.72,36.66c-.91-3.09-5.11-2.62-5.69.39-.25,1.22.23,2.46.23,3.71,0,.31-.03.64-.09.93-.56,2.79-3.62,4.6-6.41,4.25h-.09c-.73-4.33-2.4-7.69-4.99-10.06-2.58-2.37-5.15-3.36-7.68-2.97-2.53.39-4.63,1.37-6.26,3-4.1.62-7.15,3.06-9.14,7.35-1.53,3.26-2.3,6.54-2.24,9.84,0,.26,0,.53.01.8-.01.05-.03.12,0,.17.01.18.03.36.05.54.05.56.09,1.14.18,1.71.08.48.16.92.26,1.36.08.4.18.82.29,1.21.1.43.23.86.38,1.26.13.42.29.8.43,1.19.1.27.22.56.34.83.13.27.25.52.38.78h0c.13.27.27.52.39.77.13.27.3.53.48.78.14.23.3.47.44.69.14.26.32.48.51.71.14.18.3.39.47.57.18.26.4.51.62.73,0,0,0,.03.01.03.25.27.52.53.79.78.26.25.52.48.8.69.29.22.56.4.84.58.47.3.95.54,1.45.75.19.09.39.17.6.22.19.08.43.14.62.21.22.08.43.1.66.14.92.16,1.69.22,1.69.22,1.06.08,2.04.05,2.71.01-.12-.82-.23-1.63-.34-2.48-.12-.95-.22-1.88-.32-2.8-2.46-.88-3.83-2.28-4.46-3.05-.99-1.18-1.41-2.33-2.01-3.83-.64-1.57-1.08-3.2-1.35-4.93l-.06-.47c-.35-2.39-.45-4.51-.32-6.36.03-.32.06-.61.09-.91.04-.22.06-.43.09-.64.05-.26.09-.51.16-.73.05-.27.12-.54.19-.79.44-1.66,1.14-2.98,2.11-4.03-.03.08-.04.16-.06.22-.04.16-.08.29-.1.43-.32,1.54-.35,3.26-.06,5.16.16,1,.52,1.93,1.09,2.78.58.86,1.4,1.63,2.43,2.36.18.12.36.25.57.38,2.37,1.48,5.1,2,8.11,1.54l3.54-.74c.05.36.1.82.06,1.35-.03.47-.1.87-.18,1.19.18-.05.45-.12.77-.08.86.12,1.36.88,1.62,1.27.25.38.48.86.71,1.97.3,1.4.32,2.52.32,2.85.03,1.08-.04,2.61-.38,4.45.43-.49.84-1.02,1.22-1.62,2.5-3.9,2.3-8.42,1.91-14.03h0c.39-.25.77-.44,1.12-.69.23-.14.47-.29.69-.43.31-.22.64-.43.93-.64,1.83-1.25,3.23-2.48,4.25-3.45,2.55-2.46,5.36-5.15,4.64-7.48v.03Zm-19.35,11.8c-2.22.34-4.31-.12-6.21-1.37-1.92-1.28-3.07-3.11-3.45-5.55-.17-1.1-.03-2.15.4-3.15,0-.04.01-.06.03-.09.44-1.05,1.22-1.66,2.26-1.82,2.13-.32,3.85.77,5.21,3.26,1.35,2.48,2.35,5.33,2.97,8.55l-1.19.18h-.01Z"/>
      <path class="cls-1" d="m55.57,85.4l-1.1-11.17c-1.08-7.06-1.34-10.96-.78-11.71.56-.77,1.58-1.91,3.06-3.45,1.48-1.54,2.61-2.37,3.36-2.49s1.26-.05,1.49.18.42.74.54,1.53c.43,2.84.25,5.8-.56,8.88-.06,6.21.21,11.27.8,15.15.6,3.88,1.52,5.73,2.78,5.55,1.52-.23,3.09-1.82,4.73-4.77,1.63-2.94,3.09-7.19,4.33-12.7-.42-6.68-.48-10.31-.19-10.89.29-.58,1.04-1.67,2.28-3.28,1.23-1.61,2.33-2.48,3.29-2.63s1.62,1.04,2.01,3.54c.1.66.12,1.97.04,3.94-.06,1.97-.27,3.41-.6,4.34-.04,2.01-1.12,18.35,3.22,18.12.7-.04,1.32-.45,1.85-.91,3.8-3.24,4.62-8.7,7.07-13.06.77-1.35,1.8-2.7,3.29-3.13,1.92-.54,4.33,1.32,3.22,3.37-.69,1.25-1.63.87-2.74.96-1.43.12-2.61.64-3.53,1.76-1.06,1.28-1.57,2.92-2.14,4.49-1.34,3.67-3.09,7.2-5.21,10.48-1.98,3.06-5.78,4.72-9.08,2.31-.53-.39-.99-1.78-1.35-4.15-.36-2.37-.66-5.02-.91-7.95-1.43,4.81-3.01,8.53-4.76,11.21-1.75,2.66-3.93,4.19-6.54,4.59-2.61.4-4.44-.03-5.51-1.28-1.06-1.26-1.85-3.53-2.36-6.82h-.03Z"/>
    </g>
  </g>
</svg>