<?xml version="1.0" encoding="UTF-8"?><svg id="Capa_2" xmlns="http://www.w3.org/2000/svg" width="20mm" height="19.8mm" viewBox="0 0 56.69 56.14"><defs><style>.cls-1{fill:#1d1d1b;}</style></defs><g id="Capa_1-2"><g><g><path class="cls-1" d="m23.93.09c-2.94.45-5.15,1.84-6.64,4.16-2.22,3.46-2.19,7.67-2.1,9.26.05.7-1.8.94-2.28.96-1.07.05-2.14-.36-2.93-1.06-1.04-.92-1.63-2.28-1.75-3.66-.1-.99.01-2.05-.5-2.9-.96-1.6-3.53-1.25-4.01.55-.22.81.05,1.68.41,2.44,1.69,3.55,5.59,5.92,9.55,5.51.65-.06,1.18-.19,1.53-.28.11,5.64,0,9.56-.34,11.75-1.82-.19-3.21-.21-4.2-.06-2.27.34-3.25,1.51-2.95,3.51.14.91.61,1.64,1.41,2.2.81.56,1.67.76,2.57.63,2.24-.34,3.92-1.31,5.03-2.91.41.12,1.13.33,2.16.64s1.72.51,2.06.6c.23.06.66.18,1.31.34-.02-.08-.05-.16-.06-.24-.06-.21-.11-.42-.15-.64-.05-.23-.1-.47-.13-.72-.05-.3-.08-.61-.1-.91-.01-.1-.02-.19-.03-.28v-.1c0-.14,0-.29,0-.43,0-.19,0-.39,0-.57-1.03-.17-2.26-.37-3.67-.62.96-2.8,1.34-7.26,1.12-13.38,2.77-1.07,5.11-2.48,7.03-4.23.97-.94,1.69-2.02,2.16-3.26.47-1.23.61-2.54.4-3.9-.31-2.03-1.93-2.81-4.87-2.37l-.02-.03Zm-11.81,30.9c-.7.11-1.3.02-1.79-.26-.49-.29-.77-.67-.85-1.16s.12-.76.6-.83,1.79.17,3.95.74c-.57.91-1.21,1.42-1.91,1.53h0Zm12.17-22.03c-1.27,1.39-2.99,2.5-5.15,3.34,0-6.77,1.42-10.37,4.25-10.8,1.3-.2,2.08.64,2.37,2.54s-.2,3.52-1.47,4.93h0Z"/><path class="cls-1" d="m45.4,19.45c-.48-1.64-2.71-1.39-3.02.21-.13.65.12,1.31.12,1.97,0,.17-.01.34-.05.5-.3,1.48-1.92,2.44-3.4,2.26h-.05c-.39-2.3-1.27-4.08-2.65-5.34-1.37-1.26-2.73-1.78-4.07-1.58s-2.46.73-3.32,1.59c-2.17.33-3.79,1.62-4.85,3.9-.81,1.73-1.22,3.47-1.19,5.22,0,.14,0,.28,0,.43,0,.03-.01.06,0,.09,0,.1.01.19.03.29.03.3.05.61.1.91.04.25.08.49.14.72.04.21.1.43.15.64.06.23.12.45.2.67.07.22.15.43.23.63.06.14.12.3.18.44.07.14.13.28.2.41h0c.07.14.14.28.21.41.07.14.16.28.25.41.08.12.16.25.23.36.08.14.17.25.27.38.08.1.16.21.25.3.1.14.21.27.33.39,0,0,0,.01,0,.01.13.14.28.28.42.41.14.13.28.25.43.36.15.12.3.21.45.31.25.16.5.29.77.4.1.05.21.09.32.12.1.04.23.08.33.11.12.04.23.06.35.08.49.08.89.12.89.12.56.04,1.08.03,1.44,0-.06-.43-.12-.87-.18-1.31-.06-.5-.12-1-.17-1.49-1.31-.47-2.03-1.21-2.37-1.62-.52-.63-.75-1.24-1.07-2.03-.34-.83-.57-1.7-.72-2.61l-.03-.25c-.19-1.27-.24-2.39-.17-3.37.01-.17.03-.32.05-.48.02-.12.03-.23.05-.34.03-.14.05-.27.08-.39.03-.14.06-.29.1-.42.23-.88.61-1.58,1.12-2.14-.01.04-.02.08-.03.12-.02.08-.04.15-.06.23-.17.82-.19,1.73-.03,2.74.08.53.28,1.03.58,1.47.31.45.74.87,1.29,1.25.1.06.19.13.3.2,1.26.78,2.7,1.06,4.3.82l1.88-.39c.03.19.06.43.03.72-.01.25-.06.46-.1.63.1-.03.24-.06.41-.04.45.06.72.47.86.67.13.2.25.45.38,1.05.16.74.17,1.33.17,1.51.01.57-.02,1.38-.2,2.36.23-.26.45-.54.65-.86,1.33-2.07,1.22-4.47,1.01-7.45h0c.21-.13.41-.23.59-.36.12-.08.25-.15.36-.23.17-.12.34-.23.5-.34.97-.66,1.71-1.31,2.26-1.83,1.36-1.31,2.84-2.73,2.46-3.97h0Zm-10.27,6.28c-1.18.18-2.28-.06-3.3-.73-1.02-.68-1.63-1.65-1.83-2.94-.09-.58-.01-1.14.21-1.67,0-.02,0-.03.01-.05.23-.56.65-.88,1.2-.96,1.13-.17,2.04.41,2.77,1.73.72,1.31,1.25,2.83,1.58,4.53l-.63.1h0Z"/><path class="cls-1" d="m33.12,45.31l-.58-5.92c-.57-3.74-.71-5.81-.41-6.21.3-.41.84-1.01,1.62-1.83s1.38-1.26,1.78-1.32.67-.03.79.1.22.39.29.81c.23,1.51.13,3.08-.3,4.71-.03,3.3.11,5.98.43,8.04s.81,3.04,1.47,2.94c.81-.12,1.64-.96,2.51-2.53.87-1.56,1.64-3.81,2.3-6.74-.22-3.54-.25-5.47-.1-5.78.15-.31.55-.89,1.21-1.74.65-.85,1.24-1.31,1.75-1.4s.86.55,1.07,1.88c.06.35.06,1.05.02,2.09-.03,1.05-.14,1.81-.32,2.31-.02,1.07-.59,9.74,1.71,9.61.37-.02.7-.24.98-.48,2.02-1.72,2.45-4.62,3.75-6.93.41-.72.96-1.43,1.75-1.66,1.02-.29,2.3.7,1.71,1.79-.36.66-.87.46-1.45.51-.76.06-1.38.34-1.87.94-.56.68-.83,1.55-1.14,2.38-.71,1.95-1.64,3.82-2.77,5.56-1.05,1.62-3.07,2.5-4.82,1.22-.28-.21-.52-.94-.72-2.2s-.35-2.66-.48-4.22c-.76,2.55-1.6,4.53-2.53,5.95-.93,1.41-2.08,2.22-3.47,2.44s-2.35-.01-2.92-.68c-.56-.67-.98-1.87-1.25-3.62h-.01Z"/></g><path class="cls-1" d="m.68,43.48c-.21,1.54-.43,3.08-.64,4.63-.1.77-.03.83.75.77,1.82-.14,3.63-.26,5.44-.46,2.13-.23,4.04.27,5.78,1.49,1.73,1.21,3.49,2.37,5.17,3.64,2.84,2.15,5.86,3.14,9.48,2.28,2.7-.65,5.48-.92,8.22-1.34.74-.12,1.44-.33,2.11-.65.27-.13.61-.17.83-.47.23-.32.28-.81.11-1.15-.27-.54-1.02-.67-1.54-.72-2.8-.33-4.46.58-6.98.34-1.41-.14-2.53-.61-2.83-.74-.51-.21-1.29-.57-3.13-1.72-.05-.03-.63-.39-1.31-.95-.51-.41-.74-.66-.72-.95.01-.19.14-.41.32-.5.43-.21,1.05.34,1.82.95.15.12,1.85,1.44,3.7,2.36.39.19,1.09.54,2,.53.35,0,.71-.06,1.07-.16,1.46-.43,1.74-1.78.61-2.81-.76-.69-1.67-1.2-2.52-1.78-2.54-1.77-4.9-3.75-7.18-5.85-2.88-2.64-6.32-4.03-10.25-4.07-1.53-.02-3.01.36-4.4.93-1.31.54-2.66.77-4.05.89-.7.06-1.11.45-1.21,1.17-.21,1.44-.41,2.9-.61,4.34h-.01Z"/></g></g></svg>