<?xml version="1.0" encoding="UTF-8"?>
<svg id="Capa_2" data-name="Capa 2" xmlns="http://www.w3.org/2000/svg" viewBox="0 0 54.51 107.05">
  <defs>
    <style>
      .cls-1 {
        fill: #a5a4a3;
      }

      .cls-2 {
        fill: #141414;
      }
    </style>
  </defs>
  <g id="Capa_1-2" data-name="Capa 1">
    <g>
      <path class="cls-2" d="m7.98,106.44c-.65-.24-1.29-.64-2-.2.18-.15.32-.38.07-.52-.45-.25-.86-.16-1.1.34-1.48-1.3-2.98-2.59-4.01-4.31.21.05.45.05.49-.19.05-.31-.17-.45-.47-.45.04-.38.31-.85-.37-.97.8-.99.27-2.12.27-3.16.03-29.12.02-58.24,0-87.36,0-.5.19-1.04-.21-1.51-.39.59-.2,1.24-.2,1.85-.02,8.65-.02,17.3-.01,25.95,0,21.39.02,42.79.04,64.18-.75-.41-.39-1.14-.39-1.69-.02-29.91-.01-59.82,0-89.73,0-.65-.23-1.43.69-1.73.07.08.13.16.2.23,0-.1,0-.2.01-.3-.46-2.02.73-3.13,2.25-4.06.32-.15.57-.36.68-.71.98-.45,1.6-1.47,2.71-1.72.74,1.21,1.77.26,2.62.27,7.38.09,14.76,0,22.14.1,5.11.07,10.23-.4,15.33.27.33.04.71.03.78-.45,2.24.54,3.65,2.34,5.43,3.58.42.29.61.55.52,1.02-.8.92-.23,1.66.31,2.4,1.14.17.65,1.07.65,1.63.03,12.39.02,24.79.01,37.18,0,17.53-.02,35.05-.03,52.58-.57-.37-.28-.95-.28-1.42-.02-8.36-.02-16.72-.02-25.08,0-20.87,0-41.74-.03-62.61,0-.6.27-1.32-.4-1.92-.59,1.43-.03,2.73-.03,4.02-.02,26.98-.03,53.96.03,80.95,0,2.64-.47,5.27-.1,7.91-.77,2.13-1.89,3.92-4.26,4.55-.37.29-1.46-.21-1.05.95-1.14.73-2.31-.33-3.46.05-.39-.06-.78-.16-1.18-.16-6.52,0-13.03-.03-19.55.01-5.36.03-10.71-.22-16.06.22ZM3.21,53.33c0,15.05,0,30.11,0,45.16,0,3.06,2.12,5.43,5.23,5.41,12.28-.05,24.56.02,36.84,0,3.71,0,6.01-2.49,6.01-6.27,0-10.21,0-20.42,0-30.63,0-19.15,0-38.3,0-57.44,0-2.72-.84-4.91-3.62-6.05-1.46-.6-2.93-.23-4.39-.38-1.44-.15-2.46.26-3.07,1.75-.73,1.8-2.12,2.49-4.17,2.45-6.17-.13-12.34-.09-18.5-.02-1.79.02-3.07-.44-3.67-2.27-.47-1.45-1.69-1.85-3.06-1.9-.81-.03-1.61,0-2.42,0-3.09,0-5.17,2.08-5.17,5.21,0,15,0,29.99,0,44.99Z"/>
      <path class="cls-1" d="m53.54,100.81c-.37-2.64.1-5.27.1-7.91-.06-26.98-.05-53.96-.03-80.95,0-1.29-.56-2.59.03-4.02.67.61.4,1.33.4,1.92.02,20.87.02,41.74.03,62.61,0,8.36,0,16.72.02,25.08,0,.47-.28,1.04.28,1.42-.12.26-.24.53-.35.79-.46.19-.17.75-.49,1v.05Z"/>
      <path class="cls-1" d="m.48,100.09c-.01-21.39-.03-42.79-.04-64.18,0-8.65,0-17.3.01-25.95,0-.61-.19-1.25.2-1.85.4.48.21,1.02.21,1.51.01,29.12.02,58.24,0,87.36,0,1.04.53,2.17-.27,3.16,0,0-.11-.06-.11-.06Z"/>
      <path class="cls-1" d="m47.5.58c-.07.48-.45.49-.78.45-5.1-.67-10.22-.2-15.33-.27-7.38-.1-14.76,0-22.14-.1-.85-.01-1.88.94-2.62-.27.62-.1,1.24-.2,1.87-.29.57.04,1.14.12,1.71.12,8.22,0,16.43-.01,24.65,0,3.61,0,7.23.08,10.84.12.56.36,1.37-1.11,1.81.24Z"/>
      <path class="cls-2" d="m45.69.34c-3.61-.04-7.23-.12-10.84-.12-8.22-.02-16.43,0-24.65,0-.57,0-1.14-.08-1.71-.12,12.04,0,24.08-.02,36.12,0,.35,0,.82-.24,1.07.26Z"/>
      <path class="cls-1" d="m7.98,106.44c5.35-.44,10.71-.19,16.06-.22,6.52-.04,13.03-.02,19.55-.01.39,0,.78.11,1.18.16,0,0,.05.15.05.15l-.11.12c-12.23,0-24.45-.02-36.68-.02l-.09-.07.04-.11Z"/>
      <path class="cls-2" d="m8.04,106.61c12.23,0,24.45.02,36.68.02-.24.64-.79.33-1.18.33-11.39.02-22.78.03-34.16,0-.45,0-1.05.3-1.34-.37Z"/>
      <path class="cls-1" d="m53.75,7.58c-.55-.74-1.11-1.48-.31-2.4,0,0-.06-.02-.06-.02,0,.27-.05.57.3.69-.16.58.65,1.13.07,1.73Z"/>
      <path class="cls-1" d="m4.94,106.06c.25-.51.66-.59,1.1-.34.25.14.12.36-.07.52-.39.2-.76.3-1.03-.17Z"/>
      <path class="cls-1" d="m48.23,106.31c-.41-1.16.68-.66,1.05-.95.04.61-.38.6-.81.59l-.3.37s.05-.01.05-.01Z"/>
      <path class="cls-1" d="m.95,101.12c.3,0,.52.14.47.45-.04.24-.28.24-.49.19-.39-.23-.23-.43.02-.64Z"/>
      <path class="cls-1" d="m3.92,2.11c-.11.35-.36.56-.68.71-.13-.58.11-.8.68-.71Z"/>
      <path class="cls-2" d="m53.53,100.76c.32-.26.03-.81.49-1,0,.32.02.64.03.96-.11.1-.22.21-.34.31-.06-.09-.12-.18-.18-.27Z"/>
      <path class="cls-2" d="m53.68,5.85c-.35-.12-.29-.42-.3-.69.63,0,.22.45.3.69Z"/>
      <polygon class="cls-2" points="48.62 .56 48.74 .5 48.73 .63 48.62 .56"/>
      <path class="cls-1" d="m.99,6.87c0,.1,0,.2-.01.3-.07-.08-.13-.16-.2-.23,0,0,.08-.11.08-.11l.13.05Z"/>
      <path class="cls-1" d="m53.71,101.03c.11-.1.22-.21.34-.31.05.28.02.47-.34.31Z"/>
      <path class="cls-2" d="m48.18,106.32l.3-.37c-.03.18.09.48-.3.37Z"/>
    </g>
  </g>
</svg>