<?xml version="1.0" encoding="UTF-8"?>
<svg id="Capa_2" data-name="Capa 2" xmlns="http://www.w3.org/2000/svg" viewBox="0 0 100 100">
  <defs>
    <style>
      .cls-1 {
        fill: #fff;
      }
    </style>
  </defs>
  <g id="Capa_1-2" data-name="Capa 1">
    <path class="cls-1" d="m100,.12v99.73c-.67.04-1.3.11-1.93.11-32.04,0-64.08,0-96.13.03-1.46,0-1.95-.35-1.94-1.88C.04,66.04.04,33.97,0,1.89,0,.37.46,0,1.93,0c32.04.04,64.08.03,96.13.03.59,0,1.17.05,1.94.09Zm-40.71,82.58c1.6,1.84,2.84,3.63,4.44,5.02,5.57,4.86,15.5,5.84,22.05,2.34,3.78-2.02,5.95-5.2,6.39-9.42.57-5.46-1.19-10.02-5.99-12.95-2.75-1.68-5.78-2.91-8.66-4.38-1.49-.76-3.03-1.48-4.38-2.45-1.45-1.05-1.77-2.69-1.32-4.38.48-1.76,1.82-2.64,3.57-2.85,2.24-.27,4.15.4,5.6,2.2.44.55.86,1.11,1.31,1.7,2.44-1.58,4.79-3.1,7.12-4.61-3.04-5.53-8.16-8.11-14.61-7.51-6.34.59-10.86,4.09-12.08,9.35-1.4,6,.89,11.43,6.34,14.79,1.58.97,3.3,1.7,4.97,2.51,2.1,1.02,4.26,1.94,6.31,3.05,1.78.96,2.77,2.53,2.44,4.62-.34,2.19-1.92,3.29-3.91,3.74-4.03.93-7.49-.12-10.2-3.32-.53-.63-1.02-1.3-1.57-2.01-2.5,1.45-4.93,2.86-7.85,4.56Zm-14.21-36.67c0,.89,0,1.54,0,2.19,0,9.42,0,18.85,0,28.27,0,1.08.02,2.17-.12,3.24-.23,1.77-1,3.22-2.88,3.75-2.69.77-5-.04-6.65-2.33-.49-.68-.92-1.39-1.46-2.21-2.56,1.55-5.04,3.05-7.57,4.58,2.71,5.51,7.07,8.12,12.84,8.56,8.13.62,13.7-3.36,14.99-10.75.25-1.41.24-2.87.24-4.31.02-9.66.01-19.33.01-28.99,0-.64,0-1.28,0-2h-9.4Z"/>
  </g>
</svg>