<?xml version="1.0" encoding="UTF-8"?>
<svg id="Capa_2" data-name="Capa 2" xmlns="http://www.w3.org/2000/svg" viewBox="0 0 301.71 182.59">
  <defs>
    <style>
      .cls-1 {
        fill: #2b2b2a;
      }

      .cls-2 {
        fill: #0f0f0f;
      }

      .cls-3 {
        fill: #fff;
      }

      .cls-4 {
        fill: #7d7c7b;
      }

      .cls-5 {
        fill: #d4d4d3;
      }

      .cls-6 {
        fill: #eee;
      }
    </style>
  </defs>
  <g id="Capa_1-2" data-name="Capa 1">
    <g>
      <path class="cls-2" d="m25.57,85.03c-.04-11.17-.08-22.34-.11-33.5-.01-4.54,0-9.08.02-13.63.81-.53.47-1.36.47-2.05.04-9.22.04-18.44.05-27.65,0-.43.22-.94-.33-1.23.02-.33.04-.67.06-1,1.22-.56,1.3-1.92,2-2.83.24-.22.48-.44.72-.66,1.51-.88,3.21-1.21,4.85-1.72.75.01,1.5.04,2.25.04,54.31,0,108.62,0,162.93,0,23.78,0,47.56.03,71.33.04,1.39.43,2.78.86,4.17,1.29,0,0,0,0,0,0,2.39,2.33,2.95,5.26,2.95,8.46,0,42.2.03,84.4.05,126.59,0,9.11-.03,18.21-.04,27.32-1.1,0-2.19.02-3.29.02-81.36,0-162.71,0-244.07,0q-3.11,0-3.22,3.17c0,.21-.06.42-.1.62-.23-1.5-.21-2.98-.24-4.47-.01-.52.27-1.22-.58-1.41-.05-5.88.05-11.76.04-17.64-.01-6.05-.04-12.11-.06-18.17-.03-8.82,0-17.64.02-26.46.32-.15.32-.3,0-.44.05-4.88.1-9.75.15-14.63,0,0,.08-.05.08-.05,0,0-.09,0-.09,0Zm5.73,74.96c-.08.26.01.36.28.31.35.01.69.04,1.04.04,79.12,0,158.24,0,237.36.05,1.54,0,1.58-.61,1.58-1.78-.02-48.82-.03-97.63.03-146.45,0-1.74-.4-2.12-2.13-2.12-65.62.05-131.23.04-196.85.04-13.68,0-27.35.03-41.03.05-.25-.05-.35.04-.29.3-.01.35-.03.69-.03,1.04,0,29.66,0,59.32.01,88.98,0,19.85.02,39.7.03,59.55Z"/>
      <path class="cls-1" d="m25.43,162.41c.85.2.57.89.58,1.41.03,1.49.01,2.98.24,4.47.03-.21.09-.42.1-.62q.12-3.17,3.22-3.17c81.36,0,162.71,0,244.07,0,1.1,0,2.19-.01,3.29-.02.05.27.1.54.14.81.18.56-.36,1.4.64,1.63,0,.35,0,.7,0,1.06-.7.06-.61.59-.63,1.05-.11.11-.21.22-.32.33-1.19-.19-2.37-.35-3.59-.35-81.81.02-163.62.01-245.42,0-.82,0-1.6.12-2.37.35-.05-2.32-.17-4.63.05-6.95Z"/>
      <path class="cls-2" d="m25.38,169.36c.77-.24,1.55-.35,2.37-.35,81.81.01,163.62.02,245.42,0,1.22,0,2.4.16,3.59.35-.02.11-.03.22-.04.33-.35.04-.69.09-1.04.13-.58-.02-1.15-.05-1.73-.05-24.01,0-48.01-.02-72.02-.01-9,0-18,.04-27,.06-15.01,0-30.02-.02-45.03-.03-.24.02-.49.04-.73.06-.75-.04-1.49-.1-2.24-.1-11.37,0-22.74,0-34.1.01-22.16.01-44.32.02-66.48.03-.34-.03-.67-.07-1.01-.1-.05-.11-.05-.22.01-.33Z"/>
      <path class="cls-1" d="m32.96.06C65.86.04,98.75,0,131.64,0c44.61,0,89.22,0,133.83,0,1.56,0,3.12.03,4.67.05-.12.12-.24.24-.36.36-32.08,0-64.16,0-96.24,0-46.74,0-93.47,0-140.21,0-.12-.13-.25-.25-.37-.38Z"/>
      <path class="cls-4" d="m277.08,165.29c-.05-.27-.09-.54-.14-.81.01-9.11.05-18.21.04-27.32-.02-42.2-.05-84.4-.05-126.59,0-3.2-.56-6.13-2.95-8.46,2.62.75,3.22,2.97,3.78,5.22-.55.46-.26,1.08-.26,1.61-.03,6.35-.02,12.7-.02,19.04,0,44.95,0,89.91-.02,134.86,0,.82.34,1.73-.38,2.45Z"/>
      <path class="cls-2" d="m277.08,165.29c.72-.72.38-1.63.38-2.45.02-44.95.02-89.91.02-134.86,0-6.35,0-12.7.02-19.04,0-.53-.29-1.15.26-1.61.02,26.14.04,52.28.04,78.41,0,26.48-.02,52.97-.03,79.45,0,.58-.04,1.15-.06,1.73-1-.23-.46-1.07-.64-1.63Z"/>
      <path class="cls-5" d="m4.17,177.33c-.64-.15-1.33-.17-1.68-.89-.2-.42-.24-.4-.66.17-.08-.74.03-1.6-1.07-1.7-.08-1.61-.18-3.22.3-4.8,0,0,.02-.15.02-.15,1.77.06,3.55.13,5.32.19,0,1.3-.46,2.68-.27,3.86.31,1.9-.86,2.5-1.97,3.33Z"/>
      <path class="cls-5" d="m300.64,175.6c-.73.03-.99.79-1.59,1.02-.66-.07-1.69.07-1.75-.66-.15-1.86-.66-3.79.39-5.58.74-.76,1.86.09,2.6-.63.76-.09,1.4.05,1.42.98.02,1.24-.03,2.49,0,3.73.02.76-.6.86-1.06,1.15Z"/>
      <path class="cls-4" d="m25.66,6.96c.55.29.33.8.33,1.23,0,9.22-.01,18.44-.05,27.65,0,.69.34,1.52-.47,2.05-.08-.26-.23-.52-.23-.79,0-9.6,0-19.19.01-28.79,0-.47-.22-1.06.41-1.36Z"/>
      <path class="cls-6" d="m300.29,169.74c-.74.72-1.87-.12-2.61.63-2.67-.08-5.33-.16-8-.24-.63-.03-1.25-.09-1.88-.09-4.05,0-8.1-.1-12.13.3,0-.18.01-.35.02-.53.35-.04.69-.09,1.04-.13.57.56.62.07.72-.35,6.97,0,13.93,0,20.9.03.65,0,1.4-.29,1.94.37Z"/>
      <path class="cls-6" d="m6.4,170.14c-1.77-.06-3.55-.13-5.32-.19.18-.7.75-.59,1.26-.59,7.18,0,14.36,0,21.54.01.5,0,1,.21,1.49.32.34.03.67.07,1.01.1l.02.56c-4.65-.56-9.32-.28-13.99-.24-2,0-4,.01-6.01.02Z"/>
      <path class="cls-4" d="m32.96.06c.12.13.25.25.37.38-.01.1-.02.21-.04.31-1.64.5-3.34.83-4.85,1.72.97-1.81,2.79-2.01,4.51-2.41Z"/>
      <path class="cls-4" d="m269.78.42c.12-.12.24-.24.36-.36,1.43.4,3.2.15,3.83,2.05-1.39-.43-2.78-.86-4.17-1.29,0-.13-.02-.27-.02-.4Z"/>
      <path class="cls-1" d="m1.06,170.1c-.48,1.58-.37,3.19-.3,4.8-.02.05-.03.11-.05.16-.02.05-.03.11-.04.17-1.08-.77-.8-4.45.39-5.13Z"/>
      <path class="cls-4" d="m27.73,3.12c-.71.92-.79,2.28-2,2.83.46-1.09.16-2.72,2-2.83Z"/>
      <path class="cls-2" d="m277.09,169.03c.02-.46-.07-.99.63-1.05.21.43-.17.67-.31.98-.1.03-.21.05-.32.07Z"/>
      <path class="cls-5" d="m277.09,169.03c.11-.01.21-.04.32-.07.02.13.03.25.05.38-.09.42-.15.91-.72.35,0-.11.02-.22.04-.33.11-.11.21-.22.32-.33Z"/>
      <path class="cls-4" d="m25.43,99.71c.32.15.32.3,0,.44,0-.15,0-.3,0-.44Z"/>
      <polygon class="cls-5" points="25.57 85.03 25.66 85.04 25.58 85.08 25.57 85.03"/>
      <path class="cls-5" d="m269.78.42c0,.13.02.27.02.4-23.78-.02-47.56-.04-71.33-.04-54.31,0-108.62,0-162.93,0-.75,0-1.5-.02-2.25-.04.02-.1.03-.21.04-.31,46.74,0,93.47,0,140.21,0,32.08,0,64.16,0,96.24,0Z"/>
      <path class="cls-5" d="m31.29,159.99c.09.1.18.21.28.31-.26.05-.36-.05-.28-.31Z"/>
      <path class="cls-5" d="m31.57,10.13l-.29.3c-.07-.26.04-.35.29-.3Z"/>
      <path class="cls-4" d="m6.4,170.14c2,0,4-.01,6.01-.02-.85.83-.94,1.87-.96,2.99-.02.77-.29,1.6-.66,2.28-.57,1.06-.07,1.18.79,1.22,2.88.1,5.75.32,8.63.32,63.88.03,127.77.07,191.65.02,25.62-.02,51.24.35,76.85-.29.58-.01,1.16-.01,1.73-.07.43-.04.95-.37.71-.75-1.11-1.76-.44-3.94-1.46-5.7,2.67.08,5.33.16,8,.24-1.04,1.79-.53,3.72-.39,5.58.06.73,1.09.6,1.75.66-1.58,1.22-3.51,1.56-5.37,2.02-2.6.65-5.22,1.23-7.93,1.11-.21-.24-.48-.29-.78-.26-5.27.54-10.56.65-15.86.65-81.17-.03-162.34-.03-243.5-.03-.55,0-1.16-.22-1.63.29-.6.14-1.2.14-1.8-.03-.67-.94-1.34-.88-2.01.01-4.37-.4-8.73-.83-13.01-1.92-1.06-.27-1.91-1-2.99-1.14,1.11-.83,2.27-1.43,1.97-3.33-.19-1.18.26-2.56.27-3.86Z"/>
      <path class="cls-5" d="m281.59,180.44c.06,1.3-1.03,1.53-1.85,1.65-4.75.7-9.52.56-14.28.17-1.58-.13-3.23-.16-4.74,0-4.5.47-8.95-.44-13.43-.1-4.25.31-8.53-.21-12.77.08-4.04.28-8.08.12-12.09.12-4.63,0-9.28-.26-13.92-.14-3.72.1-7.46.15-11.17.16-3.79,0-7.61.05-11.42-.13-3.33-.16-6.71.04-10.05.1-2.79.05-5.62-.14-8.44-.17-4.78-.04-9.56-.01-14.34-.01-32,0-64.01,0-96.01,0-9.32,0-18.65,0-27.97,0-.82,0-1.6-.02-2.26-.61-.51-.45.21-.49.21-.76.44-.04.89-.08,1.33-.12.94.73,1.9.68,2.86.04l.98-.02c.13.29.27.3.4,0,1.61-.03,3.22-.09,4.83-.08,7.15.02,14.29.07,21.44.11.13.27.26.28.38,0,.68-.16,1.36-.16,2.04,0,.25.41.49.41.74,0,.33,0,.66,0,.99,0,.71.62,1.42.62,2.13,0,1.37-.17,2.74-.17,4.11,0,.48.56.96.56,1.43,0,.45-.15.89-.15,1.34,0,.36.52.73.52,1.09,0,.44-.15.89-.15,1.33,0,.59.61,1.19.6,1.78,0,.45-.15.89-.15,1.34,0,.36.52.72.52,1.09,0,.45-.14.9-.14,1.34,0,.59.57,1.19.58,1.78,0,3.45-.18,6.89-.17,10.34,0,1.29.65,2.57.65,3.86,0,.21,0,.43,0,.64,0,.59.6,1.19.6,1.78,0,1.37-.15,2.74-.17,4.1,0,.41.59,1.04.39,1.59.39,7.85.01,15.69.01,23.54,0,.55,0,1.18.2,1.59-.4.33,0,.66,0,.99,0,1.52.65,3.04.66,4.56,0,.33-.14.65-.14.98,0,.59.61,1.19.61,1.79,0,.79-.16,1.58-.18,2.37,0,1.17.64,2.35.66,3.52,0,1.02-.15,2.04-.18,3.06,0,.6.61,1.19.61,1.79,0,1.02-.17,2.04-.18,3.06,0,1.52.66,3.04.66,4.56,0,.56-.16,1.12-.15,1.68,0,.59.6,1.19.6,1.78,0,.44-.15.89-.16,1.33,0,1.52.67,3.04.65,4.55,0,.33,0,.66,0,.99,0,2.33.65,4.65.66,6.98,0,3.22-.17,6.43-.17,9.65.01.83.61,1.65.63,2.47-.01.21,0,.43,0,.64,0,1.17.63,2.34.63,3.51,0,1.37-.18,2.74-.17,4.11,0,1.52.65,3.03.65,4.55,0,.33,0,.66,0,1,0,.71.6,1.41.6,2.12,0,.45-.15.89-.15,1.34,0,.24.41.49.41.73,0,.56-.15,1.13-.15,1.69,0,.36.51.72.51,1.08,0,1.37-.17,2.74-.17,4.11,0,.59.6,1.19.6,1.78,0,.56-.16,1.12-.15,1.68,0,2.09.66,4.19.66,6.28,0,.56-.15,1.12-.16,1.68,0,.59.59,1.18.58,1.78,0,1.25-.18,2.51-.17,3.76,0,1.4.64,2.8.64,4.2,0h1c.36.54.92.39,1.42.39,2.53.01,5.06.01,7.6,0,.5,0,1.06.14,1.42-.39.79-.16,1.59-.16,2.38,0,.94.6,1.88.6,2.81,0,2.29-.15,4.59-.16,6.88,0,1.4.64,2.8.63,4.2,0,.45-.14.9-.13,1.35,0,.36.5.71.5,1.07,0,2.53-.17,5.06-.17,7.58,0,.25.42.49.41.73,0,2.07-.31,4.16.23,6.22-.21.82.97,1.62,1.04,2.4-.03,1.04-.18,2.08-.18,3.13-.04Z"/>
      <path class="cls-1" d="m63.05,180.72c-.33,0-.66,0-.99,0-.25,0-.49,0-.74,0-.68-.16-1.36-.16-2.04,0-.13,0-.26,0-.38,0-7.15-.04-14.29-.08-21.44-.11-1.61,0-3.22.05-4.83.08-.13,0-.27,0-.4,0-.33,0-.65.01-.98.02-.95-.01-1.91-.03-2.86-.04-.44.04-.89.08-1.33.12-1.03-.13-2.06-.27-3.08-.4.47-.52,1.08-.29,1.63-.29,81.17,0,162.34,0,243.5.03,5.3,0,10.59-.1,15.86-.65.3-.03.57.02.78.26-1.3.77-2.88-.16-4.16.69-1.04-.15-2.09-.14-3.13.04-.8.01-1.6.02-2.4.03-2.06.44-4.16-.1-6.22.21-.24,0-.49,0-.73,0-2.53-.16-5.06-.16-7.58,0-.36,0-.71,0-1.07,0-.45-.14-.9-.15-1.35,0-1.4,0-2.8,0-4.2,0-2.29-.16-4.59-.15-6.88,0-.94,0-1.88,0-2.81,0-.79-.16-1.59-.16-2.38,0-3.48,0-6.95,0-10.43,0-.33,0-.67,0-1,0-1.4,0-2.8,0-4.2,0-1.25-.16-2.51-.17-3.76,0-.59,0-1.19,0-1.78,0-.56-.15-1.12-.14-1.68,0-2.09,0-4.19,0-6.28,0-.56-.15-1.12-.16-1.68,0-.59,0-1.19,0-1.78,0-1.37-.17-2.74-.17-4.11,0-.36,0-.72,0-1.08,0-.56-.16-1.13-.16-1.69,0-.24,0-.49,0-.73,0-.45-.15-.9-.14-1.34,0-.71,0-1.41,0-2.12,0-.33,0-.66,0-1,0h-4.55c-1.37-.18-2.74-.19-4.11,0-1.17,0-2.34,0-3.51,0-.21,0-.43,0-.64,0-.82,0-1.65,0-2.47.01-3.22-.18-6.43-.18-9.65-.01-2.33,0-4.65,0-6.98,0-.33,0-.66,0-.99,0-1.52,0-3.04,0-4.55,0-.44-.15-.89-.15-1.33,0-.59,0-1.19,0-1.78,0-.56-.16-1.12-.16-1.68,0-1.52,0-3.04,0-4.56,0-1.02-.18-2.04-.17-3.06,0-.6,0-1.19,0-1.79,0-1.02-.18-2.04-.16-3.06,0-1.17,0-2.35,0-3.52,0-.79-.18-1.58-.16-2.37,0-.6,0-1.19,0-1.79,0-.33-.14-.65-.14-.98,0-1.52,0-3.04,0-4.56,0-.33,0-.66,0-.99,0-8.91,0-17.81,0-26.72,0-1.37-.17-2.74-.15-4.1,0-.59,0-1.19,0-1.78,0-.21,0-.43,0-.64,0-1.29,0-2.57,0-3.86,0-3.45-.17-6.89-.18-10.34,0-.59,0-1.18,0-1.78,0-.45-.15-.89-.15-1.34,0-.36,0-.72,0-1.09,0-.45-.14-.89-.14-1.34,0-.59,0-1.19,0-1.78,0-.44-.15-.89-.15-1.33,0-.36,0-.73,0-1.09,0-.45-.15-.89-.15-1.34,0-.48,0-.96,0-1.43,0-1.37-.18-2.74-.17-4.11,0-.71,0-1.42,0-2.13,0Z"/>
      <path class="cls-1" d="m20.17,180.38c.66-.89,1.33-.95,2.01-.01-.67,0-1.34,0-2.01.01Z"/>
      <path class="cls-5" d="m289.69,170.13c1.03,1.75.35,3.94,1.46,5.7.24.38-.28.71-.71.75-.57.06-1.15.06-1.73.07-25.62.64-51.23.27-76.85.29-63.88.05-127.77,0-191.65-.02-2.88,0-5.75-.22-8.63-.32-.86-.03-1.37-.16-.79-1.22.37-.68.64-1.51.66-2.28.03-1.13.11-2.16.96-2.99,4.66-.05,9.33-.32,13.99.24,8.19,0,16.39.01,24.58.03,25.91.03,51.81.07,77.72.12.63,0,.4-.39.5-.66.24-.02.49-.04.73-.06.26.93,1.03.57,1.59.58,14.59.01,29.19,0,43.78,0,7.5,0,15,.02,22.5.01,25.96,0,51.92-.02,77.89-.03,4.04-.4,8.09-.3,12.13-.3.63,0,1.25.06,1.88.09Zm-159.08,2.68s.09.06.14.09c-.05-.03-.1-.06-.15-.09-.12-.12-.23-.23-.35-.35-.12-.12-.23-.23-.35-.35-.05-.03-.1-.05-.15-.08.05.02.1.05.15.07.12.12.23.23.35.35.12.12.23.23.35.35Zm43.28,0c.12-.11.23-.23.35-.34.12-.12.23-.23.35-.35.29-.15.35-.41.35-.7.14-.11.42-.17.15-.42-.05.14-.09.29-.14.43-.28.15-.35.41-.36.7-.12.12-.23.23-.35.35-.11.12-.23.23-.34.35l-.08.14s.05-.1.08-.15Zm-1.03.7c-.29,0-.54.07-.69.35-12.67.84-25.36.03-38.04.51.16.11.32.17.49.17,11.77,0,23.54,0,35.3,0,.82,0,1.59-.15,2.25-.69.29,0,.55-.06.69-.34.03-.05.06-.1.08-.14-.03.05-.05.1-.08.15Zm-40.06.54s-.03-.09-.06-.1c-.04-.01-.09,0-.13.01.03.05.06.1.09.16l.11-.07Zm-1.13-.27s.07-.05.11-.08c-.03-.03-.08-.1-.09-.09-.05.03-.1.08-.14.13.04.02.08.03.12.05Z"/>
      <path class="cls-3" d="m129.19,169.84c-.1.26.12.66-.5.66-25.91-.06-51.81-.09-77.72-.12-8.19-.01-16.39-.02-24.58-.03,0-.19-.01-.38-.02-.56,22.16-.01,44.32-.02,66.48-.03,11.37,0,22.74-.01,34.1-.01.75,0,1.49.07,2.24.1Z"/>
      <path class="cls-3" d="m275.68,170.34c-25.96.01-51.92.02-77.89.03-7.5,0-15,0-22.5-.01-.11-.18-.22-.37-.34-.55,9-.02,18-.06,27-.06,24.01,0,48.01,0,72.02.01.58,0,1.15.04,1.73.05,0,.18-.01.35-.02.53Z"/>
      <path class="cls-6" d="m174.95,169.81c.11.18.22.37.34.55-14.59,0-29.19.01-43.78,0-.56,0-1.33.36-1.59-.58,15.01,0,30.02.02,45.03.03Z"/>
      <path class="cls-6" d="m102.53,180.73c8.91,0,17.81,0,26.72,0-.41.59-1.04.39-1.59.4-7.85.01-15.69.01-23.54,0-.55,0-1.18.2-1.59-.39Z"/>
      <path class="cls-6" d="m232.39,180.74c3.48,0,6.95,0,10.43,0-.36.53-.92.39-1.42.39-2.53.01-5.06.01-7.6,0-.5,0-1.06.15-1.42-.39Z"/>
      <path class="cls-6" d="m166.25,180.73c2.33,0,4.65,0,6.98,0-2.32.67-4.65.66-6.98,0Z"/>
      <path class="cls-6" d="m213.69,180.73c2.09,0,4.19,0,6.28,0-2.09.65-4.19.66-6.28,0Z"/>
      <path class="cls-6" d="m276.06,180.51c.8-.01,1.6-.02,2.4-.03-.79,1.08-1.59,1.01-2.4.03Z"/>
      <path class="cls-6" d="m193.61,180.73h4.55c-1.52.65-3.03.65-4.55,0Z"/>
      <path class="cls-6" d="m151.35,180.72c1.52,0,3.04,0,4.56,0-1.52.66-3.04.66-4.56,0Z"/>
      <path class="cls-6" d="m160.7,180.72c1.52,0,3.04,0,4.55,0-1.52.64-3.04.66-4.55,0Z"/>
      <path class="cls-6" d="m130.23,180.73c1.52,0,3.04,0,4.56,0-1.52.66-3.04.65-4.56,0Z"/>
      <path class="cls-6" d="m254.9,180.73c1.4,0,2.8,0,4.2,0-1.4.62-2.8.63-4.2,0Z"/>
      <path class="cls-6" d="m227.2,180.73c1.4,0,2.8,0,4.2,0-1.4.63-2.8.63-4.2,0Z"/>
      <path class="cls-6" d="m92.14,180.73c1.29,0,2.57,0,3.86,0-1.29.65-2.57.65-3.86,0Z"/>
      <path class="cls-6" d="m139.93,180.73c1.17,0,2.35,0,3.52,0-1.17.67-2.35.65-3.52,0Z"/>
      <path class="cls-6" d="m185.99,180.73c1.17,0,2.34,0,3.51,0-1.17.63-2.34.63-3.51,0Z"/>
      <path class="cls-6" d="m28.39,180.68c.95.01,1.91.03,2.86.04-.96.63-1.92.68-2.86-.04Z"/>
      <path class="cls-6" d="m245.21,180.73c.94,0,1.88,0,2.81,0-.94.6-1.88.6-2.81,0Z"/>
      <path class="cls-6" d="m182.88,180.74c.82,0,1.65,0,2.47-.01-.82.64-1.64.62-2.47.01Z"/>
      <path class="cls-6" d="m63.05,180.72c.71,0,1.42,0,2.13,0-.71.61-1.42.62-2.13,0Z"/>
      <path class="cls-6" d="m199.15,180.73c.71,0,1.41,0,2.12,0-.71.6-1.41.6-2.12,0Z"/>
      <path class="cls-6" d="m157.59,180.73c.59,0,1.19,0,1.78,0-.59.6-1.19.6-1.78,0Z"/>
      <path class="cls-6" d="m96.64,180.73c.59,0,1.19,0,1.78,0-.59.6-1.19.6-1.78,0Z"/>
      <path class="cls-6" d="m221.65,180.73c.59,0,1.19,0,1.78,0-.6.58-1.19.59-1.78,0Z"/>
      <path class="cls-6" d="m210.23,180.73c.59,0,1.19,0,1.78,0-.59.6-1.19.6-1.78,0Z"/>
      <path class="cls-6" d="m135.77,180.72c.6,0,1.19,0,1.79,0-.6.6-1.19.61-1.79,0Z"/>
      <path class="cls-6" d="m146.51,180.72c.6,0,1.19,0,1.79,0-.6.61-1.19.61-1.79,0Z"/>
      <path class="cls-6" d="m74.48,180.72c.59,0,1.19,0,1.78,0-.6.6-1.19.6-1.78,0Z"/>
      <path class="cls-6" d="m80.02,180.74c.59,0,1.18,0,1.78,0-.59.58-1.18.58-1.78,0Z"/>
      <path class="cls-6" d="m69.29,180.73c.48,0,.96,0,1.43,0-.48.56-.95.57-1.43,0Z"/>
      <path class="cls-6" d="m72.06,180.73c.36,0,.73,0,1.09,0-.36.52-.73.52-1.09,0Z"/>
      <path class="cls-6" d="m77.6,180.73c.36,0,.72,0,1.09,0-.36.52-.72.52-1.09,0Z"/>
      <path class="cls-6" d="m260.45,180.74c.36,0,.71,0,1.07,0-.36.5-.71.5-1.07,0Z"/>
      <path class="cls-6" d="m205.04,180.73c.36,0,.72,0,1.08,0-.36.51-.72.51-1.08,0Z"/>
      <path class="cls-6" d="m61.32,180.73c.25,0,.49,0,.74,0-.24.41-.49.41-.74,0Z"/>
      <path class="cls-6" d="m202.61,180.73c.24,0,.49,0,.73,0-.25.41-.49.41-.73,0Z"/>
      <path class="cls-6" d="m269.1,180.73c.24,0,.49,0,.73,0-.24.41-.49.43-.73,0Z"/>
      <path class="cls-6" d="m32.23,180.7c.13,0,.27,0,.4,0-.14.3-.27.28-.4,0Z"/>
      <path class="cls-6" d="m58.9,180.73c.13,0,.26,0,.38,0-.13.28-.26.27-.38,0Z"/>
      <path class="cls-6" d="m172.16,173.85c-.65.54-1.43.69-2.25.69-11.77,0-23.54,0-35.3,0-.16,0-.33-.06-.49-.17,12.68-.49,25.37.32,38.04-.51,0,0,0,0,0,0Z"/>
      <path class="cls-3" d="m174.94,171.42c.05-.14.09-.29.14-.43.28.25,0,.32-.15.42,0,0,0,0,0,0Z"/>
      <path class="cls-6" d="m174.59,172.12c0-.29.08-.55.36-.7,0,0,0,0,0,0,0,.29-.06.56-.35.7,0,0,0,0,0,0Z"/>
      <path class="cls-6" d="m132.8,174.05l-.11.07c-.03-.05-.06-.1-.09-.16.04,0,.09-.03.13-.01.03.01.04.06.06.1Z"/>
      <path class="cls-6" d="m172.85,173.51c-.15.29-.41.34-.69.34,0,0,0,0,0,0,.15-.28.41-.34.69-.35h0Z"/>
      <path class="cls-6" d="m131.67,173.77s-.08-.03-.12-.05c.05-.04.09-.09.14-.13,0,0,.06.06.09.09-.04.03-.07.05-.11.08Z"/>
      <path class="cls-6" d="m130.26,172.47c-.12-.12-.23-.23-.35-.35h0c.12.12.23.24.35.35,0,0,0,0,0,0Z"/>
      <path class="cls-6" d="m173.89,172.82c.11-.12.23-.23.34-.35h0c-.12.11-.23.22-.35.34,0,0,0,0,0,0Z"/>
      <path class="cls-6" d="m129.92,172.12c-.05-.02-.1-.05-.15-.07.05.03.1.05.15.08,0,0,0,0,0,0Z"/>
      <path class="cls-6" d="m174.24,172.47c.12-.12.23-.23.35-.35,0,0,0,0,0,0-.12.12-.23.23-.35.35,0,0,0,0,0,0Z"/>
      <path class="cls-6" d="m130.61,172.81c-.12-.12-.23-.23-.35-.35,0,0,0,0,0,0,.12.12.23.23.35.35h0Z"/>
      <path class="cls-6" d="m172.85,173.51s.05-.1.08-.15c-.03.05-.06.1-.08.14,0,0,0,0,0,0Z"/>
      <path class="cls-6" d="m173.89,172.81s-.05.1-.08.15c.03-.05.06-.09.08-.14,0,0,0,0,0,0Z"/>
      <path class="cls-6" d="m130.6,172.82s.1.06.15.09c-.05-.03-.09-.06-.14-.09,0,0,0,0,0,0Z"/>
    </g>
  </g>
</svg>