<?xml version="1.0" encoding="UTF-8"?>
<svg id="Capa_2" data-name="Capa 2" xmlns="http://www.w3.org/2000/svg" viewBox="0 0 1075 56.6">
  <defs>
    <style>
      .cls-1 {
        fill: #fff;
      }

      .cls-2 {
        fill: none;
      }
    </style>
  </defs>
  <g id="Capa_1-2" data-name="Capa 1">
    <g>
      <g id="Capa_1-2" data-name="Capa 1-2">
        <g>
          <path class="cls-1" d="m173.71,24.73v7.1c-2.14,6.67-6.78,11.22-12.56,14.8-2.76,1.71-5.65,3.13-8.67,4.28-14.13,5.38-28.75,6.69-43.68,4.95-9.54-1.11-18.73-3.47-27.19-8.17-6.58-3.66-12-8.4-14.4-15.86v-7.1c2.07-6.4,6.41-10.93,11.97-14.4,1.73-1.08,3.53-2.08,5.37-2.97C93.76,2.93,103.6.9,113.73.25c15-.96,29.58.83,43.28,7.43,7.57,3.65,13.94,8.62,16.7,17.06h0Zm-16.22-.62c.06-4.59-2.48-7.49-7.09-7.75-3.69-.2-7.41-.05-11.11-.14-1.83-.05-2.67.69-3,2.51-1.35,7.36-2.83,14.7-4.26,22.03-.23,1.15-.72,2.57,1.09,2.73,1.6.14,3.55.8,4.3-1.66.55-1.82-.12-4.31,1.78-5.36,1.69-.94,3.88-.25,5.83-.39.39-.03.79-.03,1.18-.06,6.55-.43,11.19-5.35,11.27-11.94v.02Zm-47.76.04c.07-4.64-2.42-7.53-7.04-7.78-3.85-.21-7.72-.08-11.58-.12-1.27-.01-2.13.47-2.38,1.79-1.54,7.89-3.08,15.78-4.62,23.66-.18.88.01,1.52.98,1.82,2.56.8,4.25-.16,4.78-2.79.17-.85.37-1.7.49-2.55.2-1.43,1-2.02,2.4-2.02,1.89,0,3.79,0,5.68-.11,6.61-.4,11.2-5.25,11.29-11.89h0Zm11.85-3.91c4.96,0,5.51.68,4.58,5.57-.53,2.79-1.06,5.57-1.56,8.37-.1.58-.49,1.24.14,1.77,1.31,1.09,5.08-.14,5.45-1.84.62-2.85,1.15-5.72,1.69-8.58,1.39-7.34-.1-9.17-7.52-9.28-3.61-.05-5.2-1.83-4.75-5.32.08-.67.45-1.42-.29-1.97-1.47-1.09-4.79.06-5.15,1.84-1.53,7.65-3.02,15.31-4.52,22.97-.16.8-.24,1.57.61,2.09,1.86,1.14,4.53.05,4.97-2.1.68-3.32,1.3-6.65,1.95-9.98.46-2.36,1.93-3.54,4.41-3.54h0Z"/>
          <path class="cls-1" d="m142.81,32.39c-3.31.04-3.47-.12-2.86-3.46.42-2.32.92-4.63,1.38-6.94.14-.7.22-1.56,1.04-1.71,2.74-.51,5.5-.55,8.01.9,1.02.59,1.23,1.74,1.27,2.9.19,5.39-2.82,8.23-8.83,8.31h0Z"/>
          <path class="cls-1" d="m95.12,32.39c-3.38.05-3.56-.15-2.95-3.42.44-2.32.93-4.63,1.39-6.95.12-.62.24-1.25.8-1.65,1.05-.76,6.68-.35,8.06.61,1.92,1.33,1.62,3.29,1.29,5.15-.79,4.4-3.3,6.18-8.59,6.26Z"/>
        </g>
      </g>
      <g id="Capa_1-2-2" data-name="Capa 1-2">
        <g>
          <path class="cls-1" d="m475.36,6.69c-.1.56-.25.85-.85.84-.79-.02-1.58,0-2.38,0-.71,0-1.43-.01-2.13,0-.58.02-.88-.22-.85-.81.01-.24.01-.49,0-.74-.03-.58.2-.84.81-.86.46-.02,1.18.28,1.34-.21.13-.4-.53-.78-.9-1.07-.99-.78-1.42-1.73-1.27-2.99.07-.57.24-.85.84-.85,1.51.02,3,.02,4.52,0,.64,0,.89.3.86.91-.01.22-.02.44,0,.66.08.78-.27,1.1-1.05,1.05-.34-.02-.85-.18-1,.14-.18.4.34.63.6.86.93.83,1.69,1.68,1.45,3.08h.01Z"/>
          <path class="cls-1" d="m466.43,6.93c-.03.46-.32.6-.72.6h-2.39c-.77,0-1.54,0-2.3,0-.56.01-.81-.24-.78-.8.01-.25.02-.5,0-.74-.05-.65.27-.87.88-.87.44,0,1.11.24,1.27-.19.14-.38-.48-.74-.83-1.02-.98-.8-1.53-1.73-1.35-3.05.08-.56.23-.86.83-.85,1.53.01,3.07,0,4.61,0,.56,0,.8.27.78.81v.49c0,1.26-.01,1.27-1.29,1.28-.08,0-.16-.01-.24,0-.23.03-.57-.11-.65.18-.07.25.24.4.41.57.28.27.53.57.84.78,1.05.7.98,1.75.92,2.8h.01Z"/>
          <path class="cls-1" d="m457.52,6.42c-.01,1.04-.08,1.11-1.14,1.11-1.37,0-2.74-.02-4.11.01-.72.02-.98-.28-.96-.98.03-.93,0-1.86,0-2.8h0c0-.98,0-1.97,0-2.96,0-.55.25-.8.8-.8,1.53,0,3.07,0,4.6,0,.55,0,.77.24.8.79.1,1.75.06,1.81-1.69,1.81h-.74c-1.15.01-1.18.05-1.19,1.22,0,1.29.01,1.31,1.34,1.31h.98c1.26,0,1.29.03,1.28,1.29h0Z"/>
          <path class="cls-1" d="m482.54,11.22h-19.18c-6.39,0-12.9.01-19.34-.01-.76,0-1.02.2-.94.98.25,2.37.45,4.75.67,7.12.46,5.05.92,10.1,1.38,15.15.53,5.68,1.08,11.36,1.57,17.04.06.75.31,1.11,1.05,1.31,3.66.96,7.37,1.79,10.95,2.99,3.16,1.05,6.12,1.04,9.27,0,3.59-1.19,7.29-2.01,10.95-3,.48-.13.94-.23,1-.89.43-4.83.88-9.66,1.32-14.5.41-4.48.83-8.95,1.24-13.43.36-3.9.72-7.81,1.06-11.71.09-1.03.05-1.04-1.01-1.04h0Zm-6.65,9.65c-.12.89-.17,1.81-.18,2.7,0,.67-.28,1.04-.9,1.3-3.32,1.38-6.63,2.79-9.94,4.19-.29.12-.58.26-.94.42.38.22.69.14.98.14,2.94,0,5.87,0,8.81,0,1.4,0,1.43,0,1.32,1.39-.36,4.51-.76,9.01-1.11,13.52-.05.62-.31.92-.89,1.08-2.99.81-5.98,1.64-8.96,2.48-.52.15-1.02.14-1.53-.01-2.87-.84-5.73-1.7-8.61-2.5-.77-.22-1.06-.63-1.12-1.38-.14-1.97-.31-3.94-.49-5.9-.05-.55.14-.83.72-.82,1.21.01,2.42.01,3.62,0,.5,0,.76.22.8.72.06.82.16,1.64.22,2.46.04.54.29.86.83.96.22.04.42.11.64.17,3.02.81,6.03.73,9.04-.25.62-.2.88-.51.9-1.17.06-1.51.22-3.01.29-4.52.05-1.01-.05-1.09-1.05-1.09h-15.23c-1.27,0-1.28-.02-1.34-1.27-.05-.98-.08-1.97-.19-2.95-.07-.67.19-.98.79-1.22,3.32-1.37,6.63-2.78,9.94-4.17.32-.14.64-.28.96-.42-.02-.05-.04-.1-.06-.14h-10.86c-1.28,0-1.28,0-1.48-1.22-.15-.95-.29-1.9-.42-2.85-.14-1-.08-1.06.96-1.08.68,0,1.37,0,2.06,0,6.99,0,13.99-.02,20.99-.02,1.39,0,1.63-.14,1.41,1.46h.01Z"/>
        </g>
      </g>
      <g id="Capa_1-2-3" data-name="Capa 1-2">
        <g>
          <path class="cls-1" d="m773.31,11.85h19.04c.6,0,.61,0,.58.58-.12,2.58-.25,5.17-.38,7.75-.06,1.18-.11,2.37-.16,3.55-.15,3.06-.31,6.12-.45,9.17-.08,1.77-.16,3.55-.25,5.32-.12,2.39-.25,4.78-.37,7.17-.06,1.13-.11,2.26-.15,3.39-.01.29-.14.44-.39.54-3.66,1.53-7.31,3.07-10.95,4.61-1.97.83-3.94,1.66-5.89,2.52-.47.21-.85.17-1.31-.02-2.8-1.18-5.6-2.34-8.41-3.5-2.82-1.17-5.63-2.34-8.45-3.5-.28-.11-.38-.27-.4-.57-.1-2.5-.21-4.99-.32-7.48-.1-2.1-.2-4.22-.31-6.32-.13-2.74-.26-5.47-.39-8.21-.1-2.18-.21-4.37-.31-6.55-.12-2.61-.25-5.22-.37-7.83-.03-.62-.01-.62.61-.62h19.04Zm.02,7.44h0c-2.85,0-5.69,0-8.54,0h-2.98c-.26,0-.42.07-.4.37.14,1.7.27,3.41.4,5.12.15,1.91.29,3.82.44,5.73.12,1.53.23,3.05.37,4.58.05.54.07.54.63.54,5.05,0,10.09,0,15.14,0,.63,0,.67.03.61.65-.15,1.46-.31,2.91-.44,4.37-.02.27-.15.37-.38.45-1.2.43-2.42.83-3.58,1.33-.85.37-1.61.46-2.5.09-1.18-.5-2.43-.85-3.65-1.26-.24-.08-.38-.22-.45-.48-.11-.41-.25-.81-.37-1.22-.06-.19-.16-.27-.36-.27-1.29,0-2.57,0-3.86,0-.24,0-.31.11-.28.34.16,1.51.31,3.02.45,4.53.03.33.17.53.5.65,1,.37,1.99.77,2.99,1.15,1.98.77,3.96,1.54,5.94,2.31.22.08.41.08.63,0,1.04-.45,2.09-.88,3.13-1.31,1.66-.7,3.31-1.42,4.99-2.09,1.42-.57,1.41-.54,1.51-2.08.08-1.43.22-2.85.33-4.27.12-1.46.24-2.92.36-4.39.09-1.09.17-2.18.28-3.27.06-.59.05-.62-.54-.62h-10.12c-2.05,0-4.1,0-6.14,0-.27,0-.46-.03-.49-.38-.09-1.53-.19-3.06-.32-4.58-.05-.58-.05-.61.59-.61h7.14c3.28,0,6.56,0,9.85,0,.37,0,.53-.1.55-.49.11-1.49.22-2.98.37-4.46.03-.36-.04-.47-.41-.47-3.8.01-7.6,0-11.4,0h.01Z"/>
          <path class="cls-1" d="m776.35,2.83c-.11.27-.09.46-.09.65v4.48c0,.48-.02.5-.5.51-.41,0-.83-.02-1.23,0-.35.02-.48-.11-.47-.47.01-2.1,0-4.19,0-6.29,0-.42.01-.85,0-1.27-.01-.29.09-.42.4-.42.94.01,1.88,0,2.82-.01.27,0,.31.17.36.36.29,1.13.58,2.27.87,3.4.08.31.17.62.33.94.06-.19.11-.37.16-.56.32-1.26.65-2.52.96-3.78.07-.27.16-.37.47-.37.93.03,1.85.02,2.78,0,.27,0,.36.09.36.36,0,2.55,0,5.1,0,7.64,0,.33-.12.47-.45.46-.45-.02-.9-.02-1.35,0-.34.01-.45-.12-.45-.45.01-1.57,0-3.14,0-4.71,0-.14,0-.28-.09-.44-.12.45-.24.89-.35,1.34-.31,1.23-.63,2.47-.93,3.71-.1.4-.27.61-.71.56-.35-.03-.7-.02-1.04,0-.32.02-.45-.12-.52-.43-.41-1.65-.83-3.29-1.26-4.94-.02-.07-.05-.14-.09-.28h.01Z"/>
          <path class="cls-1" d="m761.72,4.27c0,1.25,0,2.5,0,3.75,0,.33-.11.46-.45.45-.62-.02-1.23-.02-1.85,0-.32.01-.43-.12-.42-.44.01-.82,0-1.65.01-2.47,0-.36-.1-.51-.48-.5-.59.02-1.18.02-1.78,0-.33-.01-.46.1-.45.44.02.84,0,1.67.01,2.51,0,.34-.12.46-.45.45-.61-.02-1.21-.01-1.82,0-.29.02-.44-.08-.44-.41,0-2.53,0-5.07,0-7.6,0-.31.12-.44.44-.43.63.02,1.26.02,1.89,0,.29-.01.39.09.38.37-.01.7,0,1.39,0,2.08,0,.31.1.45.42.44.63-.02,1.26-.01,1.89,0,.28,0,.4-.11.39-.39-.01-.68.01-1.36,0-2.04,0-.33.07-.49.45-.46.6.04,1.21.03,1.81,0,.36-.01.46.14.46.48-.01,1.26,0,2.52,0,3.78Z"/>
          <path class="cls-1" d="m767.94.02h3.55c.22,0,.35.03.35.28,0,.51,0,1.03.01,1.54,0,.25-.12.32-.36.32-.62-.01-1.23.01-1.85,0-.34,0-.43.13-.43.46.02,1.77,0,3.53,0,5.29,0,.54-.02.56-.57.56s-1.08-.01-1.62,0c-.35.01-.47-.12-.47-.47.01-1.78,0-3.55,0-5.33,0-.51,0-.51-.51-.52-.57,0-1.13-.02-1.7,0-.33.01-.44-.12-.42-.43.01-.41.03-.83,0-1.23-.02-.35.1-.48.46-.48,1.18.02,2.37,0,3.55,0h0s0,0,0,0Z"/>
          <path class="cls-1" d="m786.27,4.18c0-1.23.01-2.47,0-3.71,0-.35.1-.48.46-.46.55.03,1.11,0,1.66.01q.54,0,.54.53v5.21q0,.52.51.52c1.03,0,2.06.01,3.09,0,.34,0,.45.11.44.45-.02.45.02.9.04,1.35.01.28-.12.39-.4.39-1.98,0-3.97,0-5.95,0-.32,0-.39-.15-.39-.43,0-1.28,0-2.57,0-3.86Z"/>
        </g>
      </g>
      <g id="Capa_1-2-4" data-name="Capa 1-2">
        <path class="cls-1" d="m646.89.08v56.43c-.38.02-.74.06-1.09.06-18.13,0-36.26,0-54.39.02-.83,0-1.1-.2-1.1-1.06.02-18.15.02-36.29,0-54.45,0-.86.26-1.07,1.09-1.07,18.13.02,36.26.02,54.39.02.33,0,.66.03,1.1.05Zm-23.04,46.73c.91,1.04,1.61,2.05,2.51,2.84,3.15,2.75,8.77,3.3,12.48,1.32,2.14-1.14,3.37-2.94,3.62-5.33.32-3.09-.67-5.67-3.39-7.33-1.56-.95-3.27-1.65-4.9-2.48-.84-.43-1.71-.84-2.48-1.39-.82-.59-1-1.52-.75-2.48.27-1,1.03-1.49,2.02-1.61,1.27-.15,2.35.23,3.17,1.24.25.31.49.63.74.96,1.38-.89,2.71-1.75,4.03-2.61-1.72-3.13-4.62-4.59-8.27-4.25-3.59.33-6.15,2.31-6.84,5.29-.79,3.4.5,6.47,3.59,8.37.89.55,1.87.96,2.81,1.42,1.19.58,2.41,1.1,3.57,1.73,1.01.54,1.57,1.43,1.38,2.61-.19,1.24-1.09,1.86-2.21,2.12-2.28.53-4.24-.07-5.77-1.88-.3-.36-.58-.74-.89-1.14-1.41.82-2.79,1.62-4.44,2.58h.02Zm-8.04-20.75v17.24c0,.61.01,1.23-.07,1.83-.13,1-.57,1.82-1.63,2.12-1.52.44-2.83-.02-3.76-1.32-.28-.38-.52-.79-.83-1.25-1.45.88-2.85,1.73-4.28,2.59,1.53,3.12,4,4.59,7.27,4.84,4.6.35,7.75-1.9,8.48-6.08.14-.8.14-1.62.14-2.44.01-5.47,0-10.94,0-16.4v-1.13h-5.32Z"/>
      </g>
      <g id="Capa_1-2-5" data-name="Capa 1-2">
        <g>
          <path class="cls-1" d="m310.18,56.59h-3.54c-.49-.06-.98-.11-1.48-.19-2.52-.37-4.94-1.02-7.12-2.39-1.96-1.23-3.2-2.96-3.23-5.33-.05-4.27-.06-8.54,0-12.81.03-2.27.95-4.15,2.8-5.56,1.4-1.07,3-1.44,4.71-1.44,4.27,0,8.54.02,12.81-.01,4.38-.03,8.13-3.7,8.24-8.05.05-1.91.03-3.83.02-5.74,0-.52.18-.72.71-.71,1.54.03,3.1-.02,4.64.03,2.13.07,3.81,1.01,4.96,2.83.65,1.02,1.08,2.13,1.44,3.28.59,1.87.98,3.77,1.19,5.72v3.86c-.03.18-.06.36-.08.54-.29,2.8-1.08,5.44-2.37,7.94-1.17,2.27-3.02,3.36-5.57,3.36-6.28-.01-12.56,0-18.83,0h-.61c-.29,0-.45.13-.45.43v.66c0,.27.15.41.41.41.2,0,.41.01.61.01h11.65c.74,0,.79.05.79.71,0,1.51.02,3.02,0,4.53-.03,1.74-.67,3.23-1.96,4.41-1.38,1.27-3.06,1.96-4.8,2.51-1.62.51-3.29.78-4.97.98h.02Zm5.82-9.5c-1.41,0-2.46,1.01-2.47,2.4-.01,1.41,1.1,2.54,2.5,2.53,1.3,0,2.41-1.13,2.42-2.44.01-1.42-1.04-2.49-2.45-2.49h0Z"/>
          <path class="cls-1" d="m298.46,14.36h9.05c.26,0,.61.11.72-.23.11-.35.12-.74-.02-1.08-.11-.27-.41-.21-.64-.21h-11.93c-.8,0-.85-.04-.84-.84.03-1.95-.09-3.9.08-5.85.2-2.22,1.26-3.8,3.34-4.67,1.79-.75,3.67-1.04,5.58-1.23,3.88-.41,7.75-.27,11.61.33,3.76.58,6.49,3.76,6.5,7.58,0,4.1.02,8.21,0,12.31-.02,3.41-2.32,6.2-5.57,6.81-.6.11-1.21.16-1.81.16-4.23,0-8.47,0-12.7,0-4.39,0-8,3.15-8.46,7.51-.19,1.77-.04,3.57-.06,5.35-.02,1.84.25,1.62-1.61,1.61-1.34,0-2.69.1-4.03-.07-2.09-.27-3.66-1.35-4.79-3.11-1.13-1.76-1.61-3.74-2-5.75-.8-4.14-.53-8.23.61-12.29,1.04-3.69,4.28-6.23,8.13-6.32h8.84,0Zm2.36-5.17c1.4.01,2.46-1.02,2.48-2.4.02-1.36-1.11-2.52-2.45-2.53-1.35,0-2.45,1.09-2.47,2.44-.02,1.43,1.01,2.48,2.44,2.49Z"/>
        </g>
      </g>
      <g id="Capa_1-2-6" data-name="Capa 1-2">
        <g>
          <path class="cls-1" d="m925.95,0c1.15.13,2.31.24,3.46.39,3.53.46,6.99,1.22,10.22,2.78,2.24,1.08,4.27,2.41,5.4,4.75.37.75.56,1.55.56,2.38,0,11.99.01,23.98,0,35.97,0,2.38-1.34,4.09-3.15,5.44-2.89,2.16-6.25,3.2-9.72,3.92-2.08.44-4.19.74-6.31.84-.15,0-.31.07-.46.11h-6.59c-.73-.22-1.49-.16-2.24-.24-3.93-.42-7.77-1.19-11.37-2.88-2.74-1.28-5.09-3-6.03-6.08V9.21c.76-2.53,2.54-4.18,4.75-5.42,3.21-1.81,6.73-2.69,10.34-3.24,1.46-.22,2.94-.37,4.41-.54h6.73Zm-3.31,16.36c1.48-.02,2.97,0,4.45-.15,3.56-.35,7.07-.97,10.37-2.42,1.2-.53,2.35-1.15,3.24-2.13.91-1,.88-1.78-.03-2.77-.52-.56-1.13-1-1.79-1.38-1.92-1.11-4.01-1.79-6.16-2.26-4.83-1.08-9.72-1.32-14.65-.87-2.9.27-5.75.76-8.52,1.71-1.6.55-3.19,1.17-4.47,2.34-1.67,1.52-1.62,2.47.17,3.88,1.22.96,2.61,1.59,4.07,2.09,4.31,1.49,8.76,2.01,13.3,1.96h.01Zm-18.78,3.35c0,.73.03,1.47,0,2.2-.06,1.04.39,1.8,1.15,2.44,1.21,1.02,2.61,1.68,4.07,2.22,3.86,1.43,7.9,1.95,11.98,2.09,3.97.14,7.91-.18,11.78-1.09,2.44-.57,4.82-1.31,6.89-2.8.84-.61,1.68-1.27,1.7-2.44.04-1.76.01-3.53.02-5.29,0-.5-.18-.54-.58-.31-2.04,1.18-4.24,1.95-6.51,2.5-5.47,1.34-11.02,1.65-16.61,1.12-4.68-.45-9.23-1.35-13.4-3.66-.41-.23-.48-.03-.48.32v2.68h0Zm0,12.26c0,.71.04,1.42-.01,2.13-.08,1.15.45,1.97,1.3,2.65.99.8,2.12,1.35,3.29,1.83,3.83,1.56,7.85,2.12,11.93,2.31,4.75.22,9.47-.15,14.07-1.47,2.08-.6,4.08-1.37,5.79-2.75.64-.51,1.18-1.14,1.19-2,.04-1.81.02-3.62.03-5.42,0-.46-.22-.42-.51-.25-.52.28-1.04.58-1.58.82-4.52,2.03-9.31,2.8-14.21,3-3.11.13-6.22.06-9.31-.37-3.99-.56-7.88-1.44-11.43-3.43-.49-.27-.54-.07-.53.35.01.87,0,1.74,0,2.61h0Zm0,11.88c0,.35.05.7,0,1.03-.32,2.04.85,3.2,2.42,4.12,1.49.88,3.08,1.5,4.75,1.94,4.57,1.22,9.21,1.65,13.93,1.4,3-.15,5.96-.51,8.87-1.27,2.12-.55,4.14-1.31,5.95-2.57,1.11-.78,1.8-1.76,1.7-3.23-.08-1.21-.03-2.42-.01-3.64,0-.52-.08-.66-.6-.36-1.79,1.04-3.72,1.76-5.72,2.29-5.51,1.46-11.12,1.83-16.79,1.37-4.89-.4-9.65-1.31-14.01-3.71-.37-.21-.48-.11-.47.29.01.78,0,1.56,0,2.33h-.01Z"/>
          <path class="cls-1" d="m1007.8,40.38c-1.85,0-3.71,0-5.56,0-2.92-.01-4.85-1.77-5.18-4.69-.07-.62-.1-1.23-.1-1.84v-15.44c0-1.09.01-1.1,1.11-1.1,1.01,0,2.01.03,3.02-.01.63-.02.83.22.83.84-.02,4.57,0,9.15-.01,13.72,0,.53.05,1.05.21,1.56.35,1.12,1.28,1.79,2.6,1.87,1.02.06,2.05.11,3.08.16v4.95h0Z"/>
          <path class="cls-1" d="m981.55,38.1c0-1.6.02-3.2-.01-4.8-.01-.56.19-.78.76-.76.92.03,1.83.02,2.74,0,.47,0,.67.19.65.66-.02.55,0,1.1,0,1.65.01.72.14.8.81.51.53-.23.99-.56,1.39-.99,2.69-2.9,2.63-7.6.06-10.63-2.94-3.46-7.96-2.64-10.28,1.11-1.65,2.68-1.69,5.82,0,8.19.51.71,1.15,1.3,1.89,1.78.35.22.51.48.5.89-.02,1.28,0,2.56-.01,3.84,0,.7-.12.78-.78.5-4.44-1.89-7.27-5.06-7.8-10-.58-5.36,2.48-10.6,7.55-12.34,7.69-2.63,15.02,1.77,15.74,10,.3,3.4-.44,6.45-2.57,9.13-1.46,1.84-3.28,3.19-5.58,3.78-.53.14-.72.39-.69.91.03.48-.01.96,0,1.44.02.48-.15.72-.67.71-1.03-.02-2.06-.02-3.09,0-.52.01-.67-.24-.66-.71.02-1.62,0-3.25,0-4.87h.02Z"/>
          <path class="cls-1" d="m964.01,17.3c1.42,0,2.59.02,3.76-.01.61-.02.8.23.79.81-.03.96-.03,1.92,0,2.88.02.58-.23.79-.78.73-1.64-.19-3.29-.17-4.93-.14-.69.01-1.37.13-2,.42-.85.4-1,.94-.46,1.69.48.66,1.14,1.12,1.76,1.62,1.83,1.48,3.79,2.81,5.35,4.6.92,1.05,1.64,2.21,1.86,3.61.41,2.51-.76,4.7-3.19,5.98-1.09.58-2.27.87-3.5.88-2.13.03-4.26,0-6.38.02-.62,0-.85-.2-.83-.83.04-1.08.02-2.15,0-3.23,0-.48.19-.67.66-.63,1.09.07,2.19.11,3.28.21,1.34.12,2.65.01,3.96-.25,1.31-.27,1.54-1.04.66-2.04-1.23-1.4-2.77-2.46-4.16-3.68-2.01-1.78-3.83-3.69-4.45-6.43-.2-.9-.34-1.81-.1-2.72.51-1.98,2.08-2.73,3.84-3.22,1.68-.47,3.41-.2,4.87-.27h0Z"/>
        </g>
      </g>
    </g>
    <rect class="cls-2" width="1075" height="56.6"/>
  </g>
</svg>