<?xml version="1.0" encoding="UTF-8"?>
<svg id="Capa_2" data-name="Capa 2" xmlns="http://www.w3.org/2000/svg" viewBox="0 0 151.67 45">
  <defs>
    <style>
      .cls-1 {
        fill: #fff;
      }
    </style>
  </defs>
  <g id="Capa_1-2" data-name="Capa 1">
    <g>
      <g>
        <path class="cls-1" d="m0,28.27V0h10.1c3.5,0,6.15.66,7.96,1.97,1.81,1.31,2.71,3.24,2.71,5.78,0,1.39-.36,2.61-1.09,3.66-.73,1.06-1.74,1.83-3.03,2.32,1.48.36,2.64,1.09,3.49,2.19s1.28,2.45,1.28,4.04c0,2.72-.88,4.78-2.65,6.17-1.77,1.4-4.29,2.11-7.56,2.14H0ZM5.94,11.84h4.4c3-.05,4.49-1.22,4.49-3.51,0-1.28-.38-2.2-1.14-2.77-.76-.56-1.96-.84-3.59-.84h-4.16v7.13Zm0,4.12v7.63h5.09c1.4,0,2.49-.33,3.28-.98.79-.65,1.18-1.56,1.18-2.71,0-2.59-1.37-3.9-4.1-3.94h-5.44Z"/>
        <path class="cls-1" d="m42.15,22.45h-10.41l-1.98,5.83h-6.32L34.17,0h5.5l10.79,28.27h-6.32l-2-5.83Zm-8.81-4.72h7.21l-3.62-10.58-3.58,10.58Z"/>
        <path class="cls-1" d="m63.83,17.92h-4.73v10.35h-5.94V0h10.71c3.41,0,6.03.74,7.88,2.23,1.85,1.49,2.77,3.59,2.77,6.31,0,1.93-.43,3.54-1.28,4.83s-2.14,2.31-3.87,3.08l6.24,11.55v.27h-6.38l-5.4-10.35Zm-4.73-4.72h4.79c1.49,0,2.65-.37,3.46-1.12.82-.74,1.23-1.77,1.23-3.08s-.39-2.38-1.16-3.15-1.96-1.15-3.55-1.15h-4.77v8.49Z"/>
        <path class="cls-1" d="m79.03,28.27V0h10.1c3.5,0,6.15.66,7.96,1.97,1.81,1.31,2.71,3.24,2.71,5.78,0,1.39-.36,2.61-1.09,3.66-.73,1.06-1.74,1.83-3.03,2.32,1.48.36,2.64,1.09,3.49,2.19s1.28,2.45,1.28,4.04c0,2.72-.88,4.78-2.65,6.17-1.77,1.4-4.29,2.11-7.56,2.14h-11.21Zm5.94-16.43h4.4c3-.05,4.49-1.22,4.49-3.51,0-1.28-.38-2.2-1.14-2.77-.76-.56-1.96-.84-3.59-.84h-4.16v7.13Zm0,4.12v7.63h5.09c1.4,0,2.49-.33,3.28-.98.79-.65,1.18-1.56,1.18-2.71,0-2.59-1.37-3.9-4.1-3.94h-5.44Z"/>
        <path class="cls-1" d="m111.23,28.27h-5.94V0h5.94v28.27Z"/>
        <path class="cls-1" d="m140.17,28.27h-5.94l-11.56-18.6v18.6h-5.94V0h5.94l11.58,18.64V0h5.92v28.27Z"/>
        <path class="cls-1" d="m151.67,28.27h-5.94V0h5.94v28.27Z"/>
      </g>
      <g>
        <g>
          <path class="cls-1" d="m103.32,44.92c-.21,0-.39-.07-.54-.22s-.23-.32-.23-.52.08-.39.23-.53c.15-.14.33-.22.54-.22s.39.07.54.22.23.32.23.53-.07.37-.22.52c-.15.15-.33.22-.55.22Z"/>
          <path class="cls-1" d="m109.18,44.79c-.7,0-1.32-.15-1.86-.46-.54-.31-.97-.73-1.29-1.27-.31-.53-.47-1.14-.47-1.81s.15-1.29.45-1.82c.3-.53.71-.96,1.23-1.27.52-.31,1.12-.46,1.8-.46.54,0,1.04.1,1.49.31.46.2.86.51,1.2.92.1.1.13.21.11.32-.03.11-.1.21-.23.3-.1.07-.21.09-.32.07-.12-.02-.22-.08-.31-.18-.51-.56-1.16-.84-1.94-.84-.49,0-.93.11-1.31.34-.38.23-.67.54-.87.94-.21.4-.31.86-.31,1.37s.11.96.33,1.36.53.71.93.94c.4.23.85.34,1.37.34.34,0,.66-.04.95-.13.29-.09.54-.23.76-.41.11-.08.22-.13.33-.14s.22.03.32.1c.11.09.17.2.18.32s-.03.22-.13.31c-.65.57-1.45.85-2.41.85Z"/>
          <path class="cls-1" d="m117.13,44.79c-.71,0-1.34-.15-1.9-.46-.56-.31-.99-.73-1.31-1.26s-.48-1.14-.48-1.82.16-1.3.48-1.83c.32-.53.76-.95,1.31-1.26.56-.31,1.19-.46,1.9-.46s1.34.15,1.89.46c.55.31.99.73,1.31,1.26.32.53.48,1.15.49,1.83,0,.68-.16,1.29-.48,1.82-.32.53-.76.95-1.31,1.26-.55.31-1.18.46-1.89.46Zm0-.89c.51,0,.97-.11,1.38-.34.41-.23.72-.54.95-.94.23-.4.34-.85.34-1.36s-.11-.96-.34-1.37c-.23-.4-.55-.72-.95-.95-.41-.23-.87-.34-1.38-.34s-.97.11-1.38.34c-.41.23-.73.54-.96.95-.23.4-.35.86-.35,1.37s.12.96.35,1.36c.23.4.55.71.96.94.41.23.87.34,1.38.34Z"/>
          <path class="cls-1" d="m123.32,44.72c-.16,0-.29-.04-.38-.13s-.14-.21-.14-.35v-5.98c0-.14.05-.26.14-.36.09-.09.22-.14.38-.14.15,0,.27.05.36.14.09.09.14.21.14.36v5.98c0,.14-.05.26-.14.35s-.21.13-.36.13Zm4.65,0c-.15,0-.27-.04-.37-.13s-.15-.21-.15-.35v-3.66c0-.6-.16-1.08-.49-1.43-.33-.35-.75-.53-1.26-.53-.55,0-1,.17-1.35.52-.35.34-.53.79-.53,1.34h-.73c.02-.54.14-1.02.38-1.44.23-.42.55-.75.96-.99s.87-.36,1.38-.36.98.12,1.39.36.72.57.94,1.01c.23.43.34.94.34,1.53v3.66c0,.14-.05.26-.14.35s-.21.13-.36.13Zm4.63,0c-.15,0-.27-.04-.37-.13-.1-.09-.15-.21-.15-.35v-3.66c0-.6-.16-1.08-.49-1.43-.33-.35-.75-.53-1.26-.53-.55,0-1,.18-1.35.53-.35.35-.52.82-.51,1.41h-.91c0-.57.14-1.07.38-1.5.25-.43.59-.77,1.02-1.01s.92-.36,1.47-.36.98.12,1.39.36c.4.24.72.57.94,1.01.23.43.34.94.34,1.53v3.66c0,.14-.05.26-.14.35s-.21.13-.36.13Z"/>
          <path class="cls-1" d="m135.59,44.92c-.21,0-.39-.07-.54-.22s-.23-.32-.23-.52.08-.39.23-.53c.15-.14.33-.22.54-.22s.39.07.54.22.23.32.23.53-.07.37-.22.52c-.15.15-.33.22-.55.22Z"/>
          <path class="cls-1" d="m141.41,44.79c-.68,0-1.29-.15-1.83-.46-.54-.31-.97-.73-1.28-1.27-.31-.53-.47-1.14-.47-1.81s.16-1.29.48-1.82c.32-.53.76-.96,1.32-1.27.56-.31,1.18-.46,1.88-.46s1.32.15,1.88.46c.55.31.99.73,1.31,1.27.32.53.49,1.14.5,1.82l-.41.31c0,.61-.15,1.16-.44,1.65-.3.49-.7.87-1.21,1.16-.51.28-1.09.43-1.73.43Zm.11-.89c.51,0,.97-.11,1.37-.34.4-.23.72-.54.95-.95.23-.4.35-.85.35-1.36s-.12-.96-.35-1.36c-.23-.4-.55-.71-.95-.95-.4-.23-.86-.35-1.37-.35s-.96.12-1.37.35c-.41.23-.73.55-.97.95-.24.4-.36.85-.36,1.36s.12.95.36,1.36c.24.4.56.72.97.95.41.23.86.34,1.37.34Zm3.17.83c-.15,0-.27-.04-.37-.13-.1-.09-.15-.21-.15-.35v-2.18l.25-1.01.78.19v2.99c0,.14-.05.26-.15.35-.1.09-.22.13-.37.13Z"/>
          <path class="cls-1" d="m147.7,44.72c-.16,0-.28-.04-.37-.13-.09-.08-.13-.2-.13-.36v-5.99c0-.15.04-.27.13-.36.09-.09.21-.13.37-.13s.28.04.37.13c.09.08.13.2.13.36v5.99c0,.15-.04.27-.13.36-.09.09-.21.13-.37.13Zm-.08-4.29c.03-.53.17-1,.43-1.41.26-.42.6-.74,1.02-.98.42-.24.89-.36,1.4-.36.41,0,.72.06.94.17.22.11.31.27.25.48-.04.13-.1.21-.18.25s-.19.06-.3.05-.25-.02-.4-.03c-.5-.04-.93,0-1.32.15-.38.14-.69.35-.91.64-.23.29-.34.63-.34,1.03h-.58Z"/>
        </g>
        <g>
          <path class="cls-1" d="m4.95,44.95c-.69,0-1.23-.16-1.63-.49-.4-.33-.71-.77-.94-1.34-.23-.57-.45-1.22-.65-1.95L.08,35.3c-.12-.46-.1-.88.08-1.28.18-.4.54-.66,1.07-.79.5-.13.94-.1,1.32.1.38.2.65.54.78,1.03l1.53,5.36c.14.47.28.81.43,1.03.15.22.4.29.74.21.32-.08.49-.24.51-.51.02-.26-.03-.63-.17-1.11l-1.09-3.96c-.15-.54-.13-1.01.06-1.41s.56-.65,1.11-.77c.57-.13,1.02-.06,1.37.2.35.27.58.64.7,1.12l1.38,5.2c.15.53.31.89.48,1.08.18.18.4.24.69.16.32-.09.47-.26.46-.51-.01-.26-.05-.63-.12-1.12-.1-.76-.19-1.39-.26-1.87-.07-.49-.13-.9-.17-1.22-.04-.33-.06-.63-.06-.9,0-.61.19-1.13.56-1.56.37-.43.88-.64,1.53-.64s1.15.19,1.49.58c.34.39.51.92.51,1.59,0,.43-.07.89-.2,1.37-.13.48-.26.93-.38,1.35l-.95,3.15c-.22.72-.43,1.36-.64,1.93-.21.57-.49,1.02-.84,1.35-.35.33-.85.5-1.49.5-.78,0-1.39-.23-1.83-.7s-.78-1.23-1.02-2.3h-.12c-.23,1.07-.53,1.83-.9,2.3-.37.47-.94.7-1.7.7Z"/>
          <path class="cls-1" d="m20.1,44.87c-.55,0-1.08-.05-1.59-.15-.5-.1-.95-.29-1.32-.56-.38-.28-.68-.68-.9-1.21-.22-.53-.33-1.22-.33-2.08,0-.77.11-1.43.32-1.99.21-.55.47-.99.77-1.32.3-.33.57-.53.82-.6l-.09-.31h-.29c-.52,0-.93-.16-1.23-.48-.3-.32-.46-.76-.47-1.31-.01-.54.14-.98.45-1.3.31-.33.73-.49,1.25-.49h6.1c1.21,0,1.82.54,1.82,1.63,0,.49-.15.88-.44,1.17-.29.29-.75.44-1.38.44h-3.52c-.42,0-.63.23-.63.7v1.22c.57-.12,1.16-.26,1.77-.42s1.2-.24,1.76-.24.93.11,1.2.33c.27.22.4.52.4.9s-.13.7-.4.92c-.27.22-.67.34-1.2.35-.55.01-1.14-.07-1.77-.23-.62-.16-1.22-.3-1.78-.42v2.14c0,.21.06.35.18.43s.31.05.57-.09c.57-.32,1.12-.57,1.66-.76s1.08-.29,1.6-.29c.74,0,1.29.18,1.67.55.38.37.57.85.57,1.45,0,.64-.2,1.14-.6,1.48s-1.05.52-1.94.52h-3.04Z"/>
          <path class="cls-1" d="m30.05,44.89c-.52-.02-1.01-.09-1.45-.21-.45-.12-.84-.32-1.18-.61-.34-.29-.6-.69-.79-1.2-.19-.51-.28-1.16-.28-1.96s.11-1.44.33-2.01c.22-.57.48-1.02.79-1.35.31-.34.58-.54.83-.62l-.09-.31h-.29c-.52,0-.93-.16-1.23-.48-.3-.32-.46-.75-.47-1.3-.01-.54.14-.98.45-1.31.31-.33.73-.5,1.25-.5h4.67c1.22,0,2.11.28,2.65.84.54.56.82,1.29.82,2.18,0,.72-.17,1.32-.52,1.79-.35.48-.86.77-1.55.86v.24c.75.03,1.36.28,1.83.74.47.46.7,1.14.7,2.05,0,.98-.29,1.75-.88,2.32-.59.57-1.56.85-2.9.84l-2.68-.02Zm-.46-7.32c0,.24.05.4.14.47.09.08.26.11.51.11h1.56c.43,0,.76-.06.99-.19.23-.13.34-.37.34-.74s-.11-.63-.34-.75c-.23-.12-.55-.18-.99-.18h-1.56c-.25,0-.42.03-.51.1-.09.07-.14.22-.14.47v.7Zm0,3.28c0,.24.05.4.14.49.1.09.27.13.53.13h1.75c.44,0,.78-.08,1.02-.23s.36-.42.36-.82-.12-.66-.36-.81-.58-.22-1.02-.22h-1.75c-.26,0-.44.04-.53.11-.1.08-.14.23-.14.47v.86Z"/>
          <path class="cls-1" d="m44.81,33.03c1.35,0,2.45.24,3.3.73.85.48,1.49,1.17,1.9,2.05.41.89.62,1.94.62,3.15,0,2.04-.46,3.54-1.38,4.5-.92.96-2.32,1.43-4.21,1.43h-.75c-.55,0-1.07-.05-1.55-.16-.48-.11-.89-.31-1.26-.59-.36-.29-.65-.69-.85-1.21-.2-.52-.31-1.2-.31-2.02,0-.77.11-1.44.33-2.01.22-.57.48-1.02.79-1.35.31-.34.58-.54.83-.62l-.09-.31h-.29c-.52,0-.93-.16-1.23-.48-.3-.32-.46-.75-.47-1.3-.01-.54.14-.98.45-1.31.31-.33.73-.5,1.25-.5h2.89Zm-1.22,7.66c0,.23.05.39.16.47.11.09.27.13.48.13h.92c.58,0,1.02-.12,1.34-.36.32-.24.54-.55.67-.92.13-.38.2-.77.2-1.2s-.07-.83-.2-1.22c-.13-.39-.35-.71-.67-.96-.32-.25-.76-.38-1.34-.38h-.92c-.22,0-.38.05-.48.14-.11.09-.16.26-.16.5v3.8Z"/>
          <path class="cls-1" d="m55.75,44.87c-.55,0-1.08-.05-1.59-.15-.5-.1-.95-.29-1.32-.56-.38-.28-.68-.68-.9-1.21-.22-.53-.33-1.22-.33-2.08,0-.77.11-1.43.32-1.99.21-.55.47-.99.77-1.32.3-.33.57-.53.82-.6l-.09-.31h-.29c-.52,0-.93-.16-1.23-.48-.3-.32-.46-.76-.47-1.31-.01-.54.14-.98.45-1.3.31-.33.73-.49,1.25-.49h6.1c1.21,0,1.82.54,1.82,1.63,0,.49-.15.88-.44,1.17-.29.29-.75.44-1.38.44h-3.52c-.42,0-.63.23-.63.7v1.22c.57-.12,1.16-.26,1.77-.42s1.2-.24,1.76-.24.93.11,1.2.33c.27.22.4.52.4.9s-.13.7-.4.92c-.27.22-.67.34-1.2.35-.55.01-1.14-.07-1.77-.23-.62-.16-1.22-.3-1.78-.42v2.14c0,.21.06.35.18.43s.31.05.57-.09c.57-.32,1.12-.57,1.66-.76s1.08-.29,1.6-.29c.74,0,1.29.18,1.67.55.38.37.57.85.57,1.45,0,.64-.2,1.14-.6,1.48s-1.05.52-1.94.52h-3.04Z"/>
          <path class="cls-1" d="m67.26,44.95c-.63,0-1.27-.06-1.91-.19-.64-.12-1.23-.31-1.77-.55-.54-.24-.97-.54-1.3-.9-.33-.35-.49-.76-.49-1.23,0-.6.2-1.08.59-1.43.4-.36.86-.53,1.39-.51.42.01.84.1,1.26.25.42.16.85.31,1.28.46.44.15.87.23,1.32.23s.75-.05.92-.16c.17-.11.25-.26.25-.44,0-.22-.12-.4-.36-.54-.24-.14-.54-.25-.9-.33l-.83-.2c-.86-.2-1.63-.42-2.31-.66-.68-.24-1.21-.57-1.6-.98-.39-.41-.59-.95-.59-1.64,0-.75.21-1.36.65-1.83.43-.47,1.01-.82,1.75-1.04.74-.22,1.56-.33,2.46-.33s1.74.09,2.45.28c.7.19,1.25.45,1.64.8.39.35.59.77.59,1.27,0,.53-.15.95-.45,1.25-.3.3-.7.45-1.2.45-.33,0-.67-.05-1.03-.16s-.73-.21-1.12-.32c-.39-.1-.81-.15-1.25-.15-.4,0-.7.06-.9.17-.2.11-.31.26-.31.45,0,.23.14.4.41.51.27.11.72.24,1.34.39l.95.21c.78.18,1.47.41,2.06.67.59.26,1.05.6,1.38,1.03.33.42.49.98.49,1.66,0,.83-.2,1.5-.61,2.01-.41.52-.97.89-1.7,1.13-.72.24-1.57.36-2.55.36Z"/>
          <path class="cls-1" d="m74.74,44.93c-.52,0-.95-.15-1.27-.46-.33-.3-.49-.69-.49-1.16v-8.63c0-.48.16-.88.48-1.21.32-.33.75-.49,1.28-.49.57,0,1.01.16,1.33.48.32.32.48.71.48,1.18v8.66c0,.47-.17.85-.52,1.16-.35.3-.78.46-1.3.46Z"/>
          <path class="cls-1" d="m81.95,45c-.91,0-1.69-.25-2.36-.76-.67-.51-1.18-1.2-1.55-2.09-.36-.89-.54-1.89-.54-3.01,0-1.04.16-1.96.48-2.75.32-.79.76-1.45,1.32-1.97.56-.53,1.21-.92,1.95-1.19.74-.27,1.53-.4,2.35-.4,1.52,0,2.64.2,3.37.61.73.41,1.1.93,1.1,1.57,0,.5-.13.94-.4,1.32-.27.38-.67.57-1.2.57-.36,0-.7-.03-1.03-.1-.32-.07-.65-.13-.99-.19-.33-.06-.7-.09-1.11-.09-.89,0-1.54.24-1.93.73-.39.49-.59,1.1-.59,1.84,0,.6.13,1.09.38,1.47.25.38.59.66,1.02.84.42.18.9.27,1.42.27.43,0,.83-.09,1.21-.28.37-.18.61-.53.71-1.03h-.83c-.4,0-.7-.12-.92-.35-.22-.23-.32-.54-.32-.9s.11-.67.32-.9c.21-.23.52-.34.92-.34h2.04c.74,0,1.25.19,1.55.56.3.38.45.93.45,1.67v3.05c0,.57-.16.99-.48,1.29-.32.29-.74.44-1.26.44-.55,0-.99-.15-1.31-.44-.32-.29-.48-.72-.48-1.29v-1.01h-.31c0,.99-.26,1.71-.78,2.16-.52.45-1.22.68-2.09.68h-.15Z"/>
          <path class="cls-1" d="m91.38,44.9c-.57,0-1-.17-1.29-.51-.29-.34-.44-.79-.44-1.35v-7.65c0-.57.11-1.02.33-1.38.22-.35.51-.61.87-.77.36-.16.74-.24,1.16-.24.62,0,1.15.16,1.58.47.43.32.76.87,1,1.66l1.83,6.02h.27v-6.26c0-.58.15-1.03.46-1.36.31-.33.74-.5,1.31-.5s1.03.17,1.32.5c.29.33.43.79.43,1.36v7.37c0,.91-.21,1.59-.63,2.02-.42.43-1.01.65-1.77.65s-1.37-.2-1.8-.59c-.43-.39-.76-.97-.99-1.73l-1.21-3.96c-.02-.11-.07-.21-.13-.3-.06-.09-.14-.14-.25-.14-.12,0-.21.05-.25.14-.05.09-.07.19-.07.3v4.39c0,.57-.15,1.02-.44,1.35-.29.34-.73.51-1.31.51Z"/>
        </g>
      </g>
    </g>
  </g>
</svg>