<?xml version="1.0" encoding="UTF-8"?>
<svg id="Capa_2" data-name="Capa 2" xmlns="http://www.w3.org/2000/svg" viewBox="0 0 188.24 100">
  <defs>
    <style>
      .cls-1 {
        fill: #fff;
      }
    </style>
  </defs>
  <g id="Capa_1-2" data-name="Capa 1">
    <g>
      <path class="cls-1" d="m188.24,43.7v12.55c-3.78,11.79-11.98,19.82-22.2,26.15-4.87,3.02-9.99,5.54-15.33,7.57-24.98,9.51-50.8,11.83-77.2,8.75-16.86-1.97-33.1-6.14-48.06-14.44-11.63-6.46-21.2-14.85-25.45-28.03v-12.55c3.65-11.31,11.32-19.31,21.16-25.45,3.06-1.91,6.24-3.68,9.49-5.24C46.95,5.17,64.33,1.58,82.24.43c26.51-1.7,52.28,1.47,76.48,13.13,13.38,6.45,24.64,15.24,29.52,30.15Zm-28.67-1.08c.1-8.11-4.39-13.24-12.53-13.69-6.53-.36-13.09-.08-19.63-.25-3.23-.08-4.71,1.22-5.3,4.44-2.39,13-5.01,25.97-7.53,38.94-.4,2.04-1.28,4.55,1.93,4.83,2.83.25,6.27,1.42,7.6-2.94.98-3.22-.21-7.61,3.15-9.47,2.99-1.66,6.85-.45,10.31-.69.69-.05,1.39-.05,2.09-.1,11.57-.76,19.77-9.45,19.91-21.1Zm-84.4.07c.12-8.2-4.27-13.3-12.44-13.75-6.81-.37-13.65-.15-20.47-.21-2.24-.02-3.76.83-4.21,3.16-2.72,13.94-5.44,27.88-8.16,41.82-.31,1.56.02,2.68,1.74,3.22,4.53,1.41,7.51-.29,8.45-4.93.3-1.5.65-3,.86-4.51.35-2.52,1.77-3.57,4.25-3.57,3.34,0,6.69,0,10.03-.2,11.69-.71,19.79-9.28,19.96-21.02Zm20.94-6.9c8.76,0,9.74,1.2,8.1,9.84-.94,4.93-1.88,9.85-2.75,14.79-.18,1.02-.87,2.2.24,3.12,2.31,1.93,8.97-.25,9.63-3.26,1.1-5.03,2.04-10.1,2.99-15.17,2.45-12.97-.18-16.21-13.29-16.4q-9.58-.14-8.39-9.4c.15-1.19.79-2.51-.52-3.48-2.6-1.92-8.47.1-9.11,3.25-2.71,13.52-5.33,27.06-7.98,40.59-.28,1.41-.42,2.78,1.07,3.7,3.28,2.02,8,.09,8.79-3.71,1.21-5.86,2.3-11.75,3.44-17.63q1.21-6.26,7.79-6.25Z"/>
      <path class="cls-1" d="m133.63,57.24c-5.85.07-6.13-.21-5.06-6.12.74-4.1,1.62-8.18,2.44-12.27.25-1.24.39-2.75,1.83-3.02,4.85-.9,9.72-.98,14.15,1.59,1.8,1.05,2.18,3.08,2.25,5.13.34,9.52-4.99,14.55-15.6,14.68Z"/>
      <path class="cls-1" d="m49.35,57.24c-5.97.08-6.3-.27-5.22-6.05.77-4.1,1.64-8.19,2.45-12.28.22-1.1.43-2.21,1.42-2.92,1.86-1.34,11.8-.62,14.25,1.08,3.39,2.35,2.87,5.82,2.28,9.11-1.39,7.77-5.83,10.93-15.18,11.06Z"/>
    </g>
  </g>
</svg>