<?xml version="1.0" encoding="UTF-8"?>
<svg id="Capa_2" data-name="Capa 2" xmlns="http://www.w3.org/2000/svg" viewBox="0 0 98.86 100">
  <defs>
    <style>
      .cls-1 {
        fill: #fff;
      }
    </style>
  </defs>
  <g id="Capa_1-2" data-name="Capa 1">
    <g>
      <path class="cls-1" d="m52.59,100h-6.25c-.87-.11-1.74-.2-2.61-.33-4.45-.65-8.73-1.81-12.58-4.22-3.47-2.17-5.66-5.23-5.7-9.42-.08-7.55-.1-15.09,0-22.64.05-4.01,1.68-7.34,4.95-9.83,2.48-1.89,5.3-2.54,8.33-2.54,7.55,0,15.09.04,22.64-.02,7.74-.06,14.36-6.54,14.57-14.23.09-3.38.06-6.77.04-10.15,0-.92.32-1.27,1.25-1.25,2.73.05,5.47-.04,8.2.05,3.77.13,6.73,1.79,8.77,5.01,1.14,1.8,1.91,3.76,2.55,5.79,1.04,3.3,1.73,6.67,2.1,10.1v6.83c-.05.32-.11.64-.15.96-.52,4.94-1.91,9.62-4.18,14.04-2.06,4.02-5.34,5.94-9.85,5.93-11.09-.02-22.19,0-33.28,0-.36,0-.72,0-1.07,0-.51,0-.8.23-.8.76,0,.39,0,.78,0,1.17,0,.48.26.72.72.73.36.01.72.02,1.07.02,6.86,0,13.73,0,20.59,0,1.31,0,1.4.08,1.4,1.26,0,2.67.03,5.34,0,8-.05,3.08-1.18,5.7-3.46,7.8-2.43,2.24-5.4,3.46-8.49,4.44-2.86.91-5.81,1.38-8.79,1.74Zm10.28-16.79c-2.5,0-4.35,1.79-4.37,4.24-.02,2.49,1.95,4.49,4.41,4.48,2.3-.01,4.26-1.99,4.28-4.31.02-2.51-1.83-4.4-4.33-4.4Z"/>
      <path class="cls-1" d="m31.88,25.38c5.33,0,10.67,0,16,0,.46,0,1.08.19,1.28-.41.2-.61.22-1.3-.04-1.91-.2-.47-.72-.37-1.13-.37-3.22,0-6.44,0-9.66,0-3.81,0-7.61,0-11.42,0-1.42,0-1.51-.07-1.48-1.49.06-3.45-.16-6.89.15-10.34.35-3.92,2.22-6.71,5.9-8.25,3.16-1.32,6.49-1.83,9.87-2.18,6.86-.72,13.7-.48,20.51.58,6.65,1.03,11.47,6.65,11.48,13.39,0,7.25.03,14.51-.01,21.76-.03,6.02-4.1,10.95-9.85,12.04-1.06.2-2.13.28-3.2.28-7.48,0-14.96-.01-22.45,0-7.76.01-14.14,5.56-14.95,13.28-.33,3.12-.07,6.31-.1,9.46-.03,3.26.45,2.86-2.84,2.85-2.37,0-4.75.17-7.12-.13-3.7-.47-6.47-2.38-8.46-5.49-1.99-3.11-2.85-6.61-3.54-10.17-1.42-7.32-.94-14.55,1.08-21.72,1.84-6.53,7.57-11.01,14.37-11.17.16,0,.33,0,.49,0,5.04,0,10.08,0,15.13,0Zm4.17-9.12c2.47.02,4.35-1.8,4.38-4.25.04-2.41-1.96-4.46-4.33-4.47-2.38,0-4.33,1.92-4.36,4.32-.04,2.53,1.78,4.38,4.31,4.4Z"/>
    </g>
  </g>
</svg>