<?xml version="1.0" encoding="UTF-8"?>
<svg id="Capa_2" data-name="Capa 2" xmlns="http://www.w3.org/2000/svg" viewBox="0 0 806.82 100">
  <defs>
    <style>
      .cls-1 {
        fill: #fff;
      }
    </style>
  </defs>
  <g id="Capa_1-2" data-name="Capa 1">
    <g>
      <path class="cls-1" d="m54.28,98.66h21.52v-.94l-21.06-39.77c5.84-2.63,10.19-6.16,13.07-10.59,2.87-4.43,4.31-9.97,4.31-16.61,0-9.36-3.12-16.6-9.36-21.72-6.24-5.12-15.11-7.69-26.6-7.69H0v97.33h20.05v-35.63h15.98l18.25,35.63ZM20.05,17.58h16.11c5.39,0,9.39,1.32,12,3.94,2.61,2.63,3.91,6.24,3.91,10.83s-1.38,8.03-4.14,10.59c-2.76,2.56-6.66,3.84-11.7,3.84h-16.18v-29.21Z"/>
      <path class="cls-1" d="m145.92,40.78h-38.5v-23.2h45.05V1.34h-65.11v97.33h65.24v-16.11h-45.19v-26.07h38.5v-15.71Z"/>
      <path class="cls-1" d="m210.83,81.25c-2.67,1.94-6.4,2.91-11.16,2.91-12.83,0-19.25-5.37-19.25-16.11h-20.12c0,6.28,1.61,11.81,4.85,16.58,3.23,4.77,7.92,8.52,14.07,11.26s12.97,4.11,20.45,4.11c10.78,0,19.36-2.39,25.74-7.19,6.37-4.79,9.56-11.4,9.56-19.82,0-7.58-2.61-13.9-7.82-18.98s-13.53-9.34-24.93-12.77c-6.19-1.87-10.89-3.88-14.07-6.02-3.19-2.14-4.78-4.79-4.78-7.95,0-3.39,1.36-6.12,4.08-8.19,2.72-2.07,6.53-3.11,11.43-3.11s9.02,1.24,11.83,3.71,4.21,5.94,4.21,10.39h20.05c0-5.84-1.5-11.05-4.51-15.64-3.01-4.59-7.23-8.14-12.67-10.66-5.44-2.52-11.63-3.78-18.58-3.78s-13.14,1.16-18.68,3.48c-5.55,2.32-9.8,5.54-12.77,9.66-2.96,4.12-4.45,8.81-4.45,14.07,0,10.12,5.53,18.16,16.58,24.13,4.05,2.18,9.56,4.4,16.51,6.65,6.95,2.25,11.76,4.39,14.44,6.42,2.67,2.03,4.01,4.94,4.01,8.72,0,3.48-1.34,6.18-4.01,8.12Z"/>
      <path class="cls-1" d="m286.16,64.37c11.54,0,20.58-2.75,27.11-8.26,6.53-5.5,9.79-13.02,9.79-22.56,0-6.28-1.49-11.89-4.48-16.81-2.99-4.92-7.25-8.72-12.8-11.4s-11.98-4.01-19.28-4.01h-37.97v97.33h20.05v-34.29h17.58Zm-17.58-46.79h18.38c4.95.09,8.82,1.6,11.63,4.55s4.21,6.8,4.21,11.56-1.39,8.2-4.18,10.7c-2.79,2.5-6.83,3.74-12.13,3.74h-17.91v-30.55Z"/>
      <path class="cls-1" d="m416.78,47.86c0-9.54-1.73-17.95-5.18-25.23-3.45-7.29-8.33-12.88-14.64-16.78-6.31-3.9-13.51-5.85-21.62-5.85s-15.32,1.95-21.62,5.85c-6.31,3.9-11.19,9.49-14.64,16.78-3.45,7.29-5.18,15.72-5.18,25.3v4.81c.04,9.36,1.8,17.64,5.28,24.83,3.48,7.2,8.38,12.73,14.71,16.61,6.33,3.88,13.52,5.82,21.59,5.82s15.38-1.96,21.69-5.88c6.31-3.92,11.15-9.49,14.54-16.71,3.39-7.22,5.08-15.62,5.08-25.2v-4.34Zm-20.32,4.68c-.04,10.12-1.87,17.81-5.48,23.09s-8.78,7.92-15.51,7.92-12.12-2.74-15.78-8.22c-3.65-5.48-5.48-13.19-5.48-23.13v-4.75c.04-10.12,1.89-17.79,5.55-23.03,3.65-5.24,8.85-7.85,15.57-7.85s11.99,2.65,15.64,7.95c3.65,5.3,5.48,13.06,5.48,23.26v4.75Z"/>
      <path class="cls-1" d="m510.49,1.34h-19.99v64.17L451.4,1.34h-20.05v97.33h20.05V34.63l39.04,64.04h20.05V1.34Z"/>
      <path class="cls-1" d="m574.47,81.25c-2.67,1.94-6.4,2.91-11.16,2.91-12.83,0-19.25-5.37-19.25-16.11h-20.12c0,6.28,1.61,11.81,4.85,16.58,3.23,4.77,7.92,8.52,14.07,11.26,6.15,2.74,12.97,4.11,20.45,4.11,10.78,0,19.36-2.39,25.74-7.19,6.37-4.79,9.56-11.4,9.56-19.82,0-7.58-2.61-13.9-7.82-18.98s-13.53-9.34-24.93-12.77c-6.19-1.87-10.89-3.88-14.07-6.02-3.19-2.14-4.78-4.79-4.78-7.95,0-3.39,1.36-6.12,4.08-8.19,2.72-2.07,6.53-3.11,11.43-3.11s9.02,1.24,11.83,3.71,4.21,5.94,4.21,10.39h20.05c0-5.84-1.5-11.05-4.51-15.64-3.01-4.59-7.23-8.14-12.67-10.66-5.44-2.52-11.63-3.78-18.58-3.78s-13.14,1.16-18.68,3.48c-5.55,2.32-9.8,5.54-12.77,9.66-2.96,4.12-4.45,8.81-4.45,14.07,0,10.12,5.53,18.16,16.58,24.13,4.05,2.18,9.56,4.4,16.51,6.65,6.95,2.25,11.76,4.39,14.44,6.42,2.67,2.03,4.01,4.94,4.01,8.72,0,3.48-1.34,6.18-4.01,8.12Z"/>
      <path class="cls-1" d="m633.49,1.34h-20.05v97.33h20.05V1.34Z"/>
      <path class="cls-1" d="m666.11,1.34h-22.26l33.76,97.33h20.92L732.42,1.34h-22.33l-22.06,73.2L666.11,1.34Z"/>
      <path class="cls-1" d="m800.13,40.78h-38.5v-23.2h45.05V1.34h-65.11v97.33h65.24v-16.11h-45.19v-26.07h38.5v-15.71Z"/>
    </g>
  </g>
</svg>