<?xml version="1.0" encoding="UTF-8"?>
<svg id="Capa_2" data-name="Capa 2" xmlns="http://www.w3.org/2000/svg" viewBox="0 0 108.98 167.03">
  <defs>
    <style>
      .cls-1 {
        fill: #aeacab;
      }

      .cls-2 {
        fill: #0e0f0f;
      }
    </style>
  </defs>
  <g id="Capa_1-2" data-name="Capa 1">
    <g>
      <path class="cls-2" d="m8.38.75c.3-.03.63.09.88-.19,0,0,0,0,0,0,.81-.58,1.74-.47,2.65-.47,28.88,0,57.77,0,86.65.01.51,0,1.15-.36,1.54.32-29.97,0-59.94,0-90.32,0,.92.59,1.51.45,2.07.45,27,0,53.99-.02,80.99.04,4.23,0,8.58-.32,12.51,1.89.37.36.75.72,1.12,1.08-.1.04-.2.07-.28.13-.03.02-.05.11-.03.13,1.23,1.53,1.71,3.33,1.72,5.24.05,11.7.08,23.4.08,35.1.02,37.53.01,75.05.05,112.58,0,2.93-.98,5.32-3.21,7.21-.2.17-.53.27-.44.65-.49.22-1.05.33-1.38.82-1.13-.51-.41.67-.78.85-.79-.07-1.58-.15-2.36-.22-.51-.06-1.01-.18-1.52-.18-29.06,0-58.13,0-87.19.03-.36,0-.83-.25-1.22.4h89.87c-.4.66-1.04.32-1.55.32-29.07.02-58.15.03-87.22.03-.69,0-1.44.16-1.9-.58-1.4-.46-2.8-.93-4.21-1.39-.97-.3-1.44-1.2-2.16-1.8-1.98-3.17-1.91-6.69-1.91-10.24.03-47.37.04-94.74.05-142.1,0-1.3-.15-2.61.17-3.9.02-.12.03-.23.05-.35.6-.3.63-.64.09-1.04-.02-.21-.03-.43-.05-.64,1.03.69.66-.45.94-.73,1.44-2.12,3.53-3.12,5.99-3.52.07.11.15.23.22.34.04-.09.08-.17.12-.26Zm-1.37,83.11c0,24.18,0,48.35,0,72.53,0,2.83,1.3,4.15,4.08,4.13,1.38,0,2.77-.02,4.15-.02,27.46,0,54.92.01,82.38,0,3.98,0,4.91-.97,4.91-4.96,0-48.06-.02-96.13.07-144.19,0-2.59-2-4.4-4.44-4.4-29.02.06-58.03.06-87.05,0-2.45,0-4.15,1.68-4.14,4.19.07,24.23.04,48.47.04,72.7Z"/>
      <path class="cls-2" d="m108.43,6.96c.61,1.63.5,3.35.5,5.02.03,31.02.03,62.04.03,93.06,0,17.3,0,34.6-.02,51.89,0,1.07.33,2.32-.87,3.09-.08-1.03.38-1.98.38-3.03-.03-39.06-.03-78.13-.03-117.19,0-10.95,0-21.9.01-32.85Z"/>
      <path class="cls-1" d="m108.43,6.96c0,10.95-.01,21.9-.01,32.85,0,39.06,0,78.13.03,117.19,0,1.05-.46,2-.38,3.03.67.84-.13,1.46-.46,1.99-.77,1.27-1.57,2.64-3.27,2.9-.09-.37.24-.48.44-.65,2.23-1.89,3.22-4.28,3.21-7.21-.04-37.53-.03-75.05-.05-112.58,0-11.7-.03-23.4-.08-35.1,0-1.9-.48-3.71-1.72-5.24-.02-.02,0-.12.03-.13.09-.05.19-.09.28-.13,1.12.2,1.36,1.11,1.62,2,0,.41-.23.91.38,1.12l-.02-.04Z"/>
      <path class="cls-1" d="m1.02,6.95c-.32,1.29-.17,2.59-.17,3.9-.01,47.37-.01,94.74-.05,142.1,0,3.55-.07,7.08,1.91,10.24-1.71-.88-1.92-2.58-2.29-4.2-.01-23.65-.03-47.3-.03-70.95,0-26.65.01-53.3.02-79.95.08-.44-.29-1.13.61-1.15Z"/>
      <path class="cls-2" d="m.41,8.1c0,26.65-.02,53.3-.02,79.95,0,23.65.02,47.3.03,70.95-.67-.53-.34-1.27-.34-1.91-.01-49.03,0-98.06.02-147.09,0-.63-.32-1.36.31-1.91Z"/>
      <path class="cls-1" d="m105.32,2.8c-3.93-2.21-8.27-1.88-12.51-1.89-27-.06-53.99-.03-80.99-.04-.56,0-1.15.15-2.07-.45,30.38,0,60.35,0,90.32,0,2.08.06,4.11.21,5.23,2.38Z"/>
      <path class="cls-1" d="m99.74,166.62H9.87c.38-.66.85-.4,1.22-.4,29.06-.02,58.13-.03,87.19-.03.51,0,1.01.12,1.52.18l.04.15-.11.11Z"/>
      <path class="cls-1" d="m4.86,165c1.4.46,2.8.93,4.21,1.39-1.01.71-3.36-.06-4.21-1.39Z"/>
      <path class="cls-1" d="m2.05,4.19c-.28.28.09,1.41-.94.73.03-.61.62-.49.94-.73Z"/>
      <path class="cls-1" d="m102.17,166.59c.37-.18-.34-1.36.78-.85-.18.36-.12.94-.78.85Z"/>
      <path class="cls-1" d="m1.16,5.56c.54.4.51.75-.09,1.04-.7-.41-.03-.7.09-1.04Z"/>
      <path class="cls-1" d="m8.38.75c-.04.09-.08.17-.12.26-.07-.11-.15-.23-.22-.34-.1-.23-.01-.46.21-.43.18.03.25.29.13.51Z"/>
      <path class="cls-2" d="m108.45,7c-.61-.21-.37-.7-.38-1.12.54.23.3.73.38,1.12Z"/>
      <path class="cls-1" d="m9.25.55s0,0,0,0c0-.09-.02-.18-.03-.27.03.04.07.08.08.13,0,.05-.03.09-.05.14Z"/>
    </g>
  </g>
</svg>