<?xml version="1.0" encoding="UTF-8"?>
<svg id="Capa_2" data-name="Capa 2" xmlns="http://www.w3.org/2000/svg" viewBox="0 0 976.88 608.58">
  <defs>
    <style>
      .cls-1 {
        fill: #0f0f0f;
      }

      .cls-2 {
        fill: #aeacab;
      }
    </style>
  </defs>
  <g id="Capa_1-2" data-name="Capa 1">
    <g>
      <path class="cls-2" d="m.17,309.68c0-28.32,0-56.63,0-84.95,0-48.63,0-97.26,0-145.88,0-14.99,0-29.98-.01-44.97,0-7.59,0-15.18.05-22.77.01-1.76-.51-3.67.94-5.19,0,84.67,0,169.34-.03,254.01,0,17.96-.13,35.92-.2,53.89-.21-.05-.42-.07-.64-.06-.03-1.36-.06-2.72-.09-4.08Z"/>
      <path class="cls-1" d="m243,591.21c.35-1.52,1.26-4.92,4.08-7.68.35-.34.69-.68,1.04-1.01,0,0-.06.05-.06.05.67-.34,1.34-.69,2.02-1.04,1.27-.27,2.35-.82,3.04-1.97,0,0-.05.03-.05.03.74-.34,1.47-.68,2.21-1.02.25.03.5.03.76,0,10.37-1.04,20.75-2.06,31.12-3.11,17.62-1.78,35.24-3.53,52.85-5.36,17.93-1.87,35.86-3.82,53.79-5.74,16.94-1.85,33.88-3.7,50.82-5.55,3.95-.43,7.91-.83,11.85-1.33,6.28-.8,9.86-4.52,10.43-10.75q1.11-12.03-10.86-12.04c-30.74-.01-61.49-.02-92.23-.02-2.32,0-4.65.15-6.97.23-2-.04-3.99-.14-5.99-.12-46.28.32-92.56-.01-138.84.56-60.61.75-121.23.24-181.85.27.71-2.89,3.09-2.02,4.91-2.03,11.56-.07,23.13-.04,34.69-.04,0-.25,0-.5,0-.74H7.1c-3.82-.75-2.69-3.91-3.1-6.33.02-76.1.04-152.21.07-228.31.03-95.59.07-191.17.1-286.76,0-6.59.05-6.66,6.7-6.61,7.33.07,14.65.31,21.98.31,145.23,0,290.45,0,435.68-.04,166.96-.04,333.93-.09,500.89-.16,1.54,0,2.97.24,4.31.98.09,1.49.25,2.98.25,4.47,0,87.36,0,174.72,0,262.08,0,48.25.03,96.51.04,144.76-.13,1.32-.37,2.64-.37,3.96.02,35.3.06,70.59.11,105.89,0,1.13.16,2.25.26,3.66,1.12-1.3.78-2.51.78-3.63.05-35.13.08-70.26.08-105.39,0-1.48-.27-2.96-.42-4.45-.05-1.16-.14-2.32-.14-3.48.06-77.88.13-155.76.19-233.63.05-58.07.1-116.15.15-174.22.38-.09.76-.18,1.14-.27.36.1.71.21,1.07.31-.05,172.9-.1,345.8-.17,518.7,0,2.32-.17,4.65-.27,6.97-.91,1.16-1.83,2.33-2.74,3.49-2.65.16-5.3.47-7.95.47-148.5.02-297,.02-445.49.03-1.33,0-2.66.03-3.99.06-1.37.03-2.28.67-2.22,2.09.16,3.92-.96,7.94.91,11.73.22,2.4.74,4.66,2.95,6.1.35.34.7.69,1.05,1.03,0,0-.04-.02-.04-.02,4.25,2.91,9.28,2.16,13.95,2.78,18.25,2.42,36.53,4.51,54.82,6.66,12.32,1.44,24.66,2.77,37,4.15.48.06.96.12,1.44.18,6.58.76,13.16,1.56,19.75,2.28,17.6,1.93,35.22,3.64,52.79,5.82,9.79,1.21,19.95.55,29.17,5.1,0,0,.03.02.03.02.66.34,1.32.67,2,1.02,6.65,5.09,5.54,15.99-1.77,20.71-7.45,4.8-27.93,1.54-36.6.76-7.13-.64-14.41-.88-21.62-1.45-17.5-1.37-35.01-3.09-52.54-3.49-10.72-.25-21.3-1.86-32.04-1.86-11.33,0-22.65-2.13-33.99-2.22-10.97-.08-21.61-2.95-32.61-2.62-6.86.2-13.77-1.54-20.65-1.5-14.29.08-28.6-.28-42.87,1.27-7.53.81-15.19.42-22.79.73-3.95.16-7.9.57-11.83,1.01-5.22.58-10.35,2.53-15.7.75-.9-.3-2.07-.29-2.96.01-8.39,2.89-17.13.98-25.64,1.94-11.63,1.31-23.32,2.39-34.98,2.16-10.16-.2-20.26.76-30.12,2.15-10,1.4-20.09.93-30.04,2.95-25.26,5.13-32.05,2.24-35.54-2.2-2.36-3-3.54-8.14-2.56-12.44Zm245.47-69.72c155.41,0,310.82,0,466.24,0,8.29,0,8.94-.66,8.94-9.08,0-161.72,0-323.45,0-485.17,0-1,.07-2-.01-3-.79-9.9-1.11-10.19-10.79-10.19-309.49-.03-618.98-.06-928.47-.09-9.47,0-10.09.61-10.09,10.17,0,163.06,0,326.11,0,489.17q0,8.19,7.95,8.19c155.41,0,310.82,0,466.24,0Zm482.24-178.34c.26-.02.51-.04.77-.05V80.05c-1.11.77-.79,2.7-2.5,2.22-1.21-.34-2.06-1.13-2.14-2.46-.08-1.33-.1-2.66-.1-3.99,0-15.99,0-31.97,0-47.96,0-1.5,0-2.99,0-4.49-.24.01-.48.03-.73.04v466.74c.72-1.78.72-3.57.72-5.37,0-48.46.01-96.92.02-145.37,0-1.33-.05-2.67.02-4,.07-1.43-.28-3.34,1.89-3.42,2.21-.09,2.02,1.8,2.05,3.26.06,2.63.02,5.26.02,7.89Zm.29,17.09c.12,0,.24-.01.36-.02v-10.93c-.12,0-.24.02-.36.02v10.93ZM77.47,532.69c-.29-.96-.96-1.03-1.56-.9-.37.08-.95.56-.92.8.09.81.85.85,1.46.75.38-.07.71-.43,1.03-.64Zm8.86-.61c-.47-.09-1.06-.32-1.61-.24-.31.04-.56.58-.84.9.56.19,1.11.5,1.67.55.47.04.93-.26.77-1.21Zm884.86-157.56c.78-.67.52-1.53.38-2.31-.09-.48-.53-.51-.66-.03-.22.78-.4,1.62.28,2.34Z"/>
      <path class="cls-2" d="m.9,313.82c.07-17.96.2-35.92.2-53.89.03-84.67.02-169.34.03-254.01.03-.67.06-1.34.09-2.01.76-.02,1.51-.05,2.27-.07-1.32,1.91-1.2,4.08-1.2,6.25.03,113.68.02,227.37.06,341.05.02,58.42.11,116.84.16,175.27-.29,2.24-.5,4.48.15,6.7-.2.2-.4.4-.6.6-.32-.42-.64-.84-.96-1.26,0-23.46.04-46.92.01-70.38-.06-49.42-.15-98.83-.22-148.25Z"/>
      <path class="cls-2" d="m30.17,535.6c60.62-.03,121.24.48,181.85-.27,46.28-.57,92.56-.24,138.84-.56,2-.01,3.99.08,5.99.12-1.4,3-4.11,1.59-6.17,1.59-77.59.09-155.17.07-232.76.08-35.8,0-71.59.02-107.39-.02-2.1,0-4.35.65-6.27-.86,8-.03,15.99-.05,23.99-.08.64,0,1.28,0,1.92-.01Z"/>
      <path class="cls-2" d="m.9,313.82c.08,49.42.16,98.83.22,148.25.03,23.46,0,46.92-.01,70.38-1.72-2.04-.93-4.47-.93-6.71-.05-42.38-.04-84.76-.04-127.14.04-28.28.08-56.57.13-84.85.22,0,.43.01.64.06Z"/>
      <path class="cls-2" d="m393.8,564.35c-17.93,1.92-35.85,3.87-53.79,5.74-17.61,1.83-35.24,3.58-52.85,5.36-10.37,1.05-20.75,2.07-31.12,3.11,4.32-3.42,9.65-1.96,14.45-2.66,11.29-1.64,22.74-2.21,34.1-3.38,14.49-1.49,28.95-3.2,43.43-4.72,11.03-1.16,22.07-2.3,33.12-3.2,4.19-.34,8.41-2.43,12.66-.24Z"/>
      <path class="cls-2" d="m28.25,535.61c-8,.03-15.99.05-23.99.08-.73-.66-1.46-1.31-2.2-1.97.2-.2.4-.4.6-.59,1.46.68,3,.46,4.53.36,3.87,2.1,8.04.49,12.04,1.02,3,.4,6.24-1.09,9.02,1.11Z"/>
      <path class="cls-2" d="m253.13,579.56c-.69,1.15-1.77,1.71-3.04,1.97.65-.68,1.31-1.37,1.96-2.05.36.03.72.05,1.08.08Z"/>
      <path class="cls-2" d="m255.29,578.56c-.74.34-1.47.68-2.21,1.02.52-.81,1.33-1,2.21-1.02Z"/>
      <path class="cls-2" d="m4.14,3.32c.6-1.54,1.99-1.51,3.3-1.66,3.99.06,7.99.16,11.98.16,237.27.04,474.53.09,711.8.08,76.76,0,153.51-.16,230.27-.24,1.39.03,2.78.06,4.17.09,1.05-.01,2.11-.02,3.16-.03,1.63.04,3.26.08,4.89.11.06.33.1.65.14.98-.4.04-.8.07-1.2.11-22.8.11-45.61.62-68.4.64-244.78.2-489.56.17-734.35.07-48.95-.02-97.9.65-146.84-.53-6.29-.15-12.63-.85-18.92.22Z"/>
      <path class="cls-2" d="m973.71,1.84c-1.63-.04-3.26-.08-4.89-.11,1.71-3.36,3.28-.96,4.89.11Z"/>
      <path class="cls-2" d="m972.64,2.93c.4-.04.8-.07,1.2-.11,1.57.29,1.92,1.43,1.95,2.79-.38.09-.76.18-1.14.27-.3-.28-.6-.56-.9-.85l-1.12-2.1Z"/>
      <path class="cls-2" d="m514.95,549.45c-1.87-3.78-.75-7.81-.91-11.73-.06-1.42.85-2.07,2.22-2.09,1.33-.02,2.66-.06,3.99-.06,148.5,0,297,0,445.49-.03,2.65,0,5.3-.3,7.95-.47-1.65,2.54-4.23,1.48-6.4,1.48-125.57.04-251.14.02-376.71,0-22.98,0-45.96,0-68.95,0q-6.68,0-6.69,6.9c0,2,0,4,0,5.99Z"/>
      <path class="cls-2" d="m727.84,583.52c-9.22-4.54-19.38-3.88-29.17-5.1-17.57-2.18-35.19-3.89-52.79-5.82-6.59-.72-13.17-1.52-19.75-2.28,1.61-1.31,3.55-.9,5.29-.72,12.85,1.33,25.69,2.79,38.53,4.19,11.52,1.26,23.06,2.32,34.56,3.8,7.18.92,14.65.42,21.38,3.9.65.68,1.3,1.35,1.96,2.03Z"/>
      <path class="cls-2" d="m624.69,570.14c-12.33-1.38-24.67-2.7-37-4.15-18.28-2.14-36.57-4.24-54.82-6.66-4.67-.62-9.71.12-13.95-2.78,12.65,1.5,25.3,3.01,37.96,4.5,12.66,1.5,25.31,3.01,37.97,4.47,9.37,1.08,18.75,2.07,28.13,3.1.94.1,1.5.61,1.71,1.52Z"/>
      <path class="cls-2" d="m518.95,556.58c-.35-.34-.7-.69-1.05-1.03.35.34.7.69,1.05,1.03Z"/>
      <path class="cls-2" d="m729.85,584.55c-.66-.34-1.32-.67-1.98-1.01.66.34,1.32.67,1.98,1.01Z"/>
      <path class="cls-2" d="m250.07,581.54c-.67.34-1.34.69-2.01,1.03.43-.8,1.19-.98,2.01-1.03Z"/>
      <path class="cls-2" d="m247.08,583.53c-.67.38-1.35.77-2.02,1.16.41-.84,1.16-1.1,2.02-1.16Z"/>
      <path class="cls-2" d="m248.12,582.52c-.35.34-.69.68-1.04,1.01.35-.34.69-.68,1.04-1.01Z"/>
      <path class="cls-2" d="m972.64,2.93c.37.7.75,1.4,1.12,2.1.22.29.21.57-.02.84-1.34-.74-2.77-.98-4.31-.98-166.96.07-333.93.13-500.89.16-145.23.03-290.45.04-435.68.04-7.33,0-14.65-.24-21.98-.31-6.65-.06-6.7.01-6.7,6.61-.04,95.59-.07,191.17-.1,286.76-.03,76.1-.05,152.21-.07,228.31-.49-.01-.99-.03-1.48-.04-.06-58.42-.14-116.84-.16-175.27-.04-113.68-.03-227.37-.06-341.05,0-2.18-.12-4.34,1.2-6.25.26-.13.47-.3.64-.53,6.29-1.06,12.63-.36,18.92-.21,48.94,1.18,97.89.51,146.84.53,244.78.1,489.56.13,734.35-.07,22.79-.02,45.6-.53,68.4-.64Z"/>
      <path class="cls-2" d="m970.71,343.14c0-2.63.04-5.26-.02-7.89-.03-1.46.16-3.34-2.05-3.26-2.17.09-1.82,1.99-1.89,3.42-.07,1.33-.02,2.66-.02,4,0,48.46-.01,96.92-.02,145.37,0,1.8,0,3.59-.72,5.37V23.41c.24-.01.48-.03.73-.04,0,1.5,0,2.99,0,4.49,0,15.99,0,31.97,0,47.96,0,1.33.01,2.66.1,3.99.08,1.33.93,2.12,2.14,2.46,1.71.48,1.39-1.45,2.5-2.22v263.04c-.26.02-.51.04-.77.05Z"/>
      <path class="cls-2" d="m973.74,5.87c.23-.27.24-.56.02-.84.3.28.6.56.9.85-.05,58.07-.1,116.15-.15,174.22-.07,77.88-.13,155.76-.19,233.63,0,1.16.09,2.32.14,3.48,0,0-.21-.17-.21-.17l-.24.13c-.01-48.25-.04-96.51-.04-144.76,0-87.36.01-174.72,0-262.08,0-1.49-.16-2.98-.25-4.47Z"/>
      <path class="cls-2" d="m974.02,417.18l.24-.13s.21.17.21.17c.15,1.48.42,2.96.42,4.45,0,35.13-.03,70.26-.08,105.39,0,1.12.34,2.33-.78,3.63-.11-1.41-.26-2.53-.26-3.66-.05-35.3-.1-70.59-.11-105.89,0-1.32.24-2.64.37-3.96Z"/>
      <path class="cls-2" d="m28.25,535.61c-2.78-2.2-6.02-.72-9.02-1.11-4-.53-8.17,1.08-12.04-1.02-.01-.23-.04-.46-.09-.69h62.65c0,.25,0,.5,0,.74-11.56,0-23.13-.03-34.69.04-1.81.01-4.2-.86-4.91,2.03-.64,0-1.28,0-1.92.01Z"/>
      <path class="cls-2" d="m7.1,532.79c.05.23.08.46.09.69-1.53.1-3.06.32-4.53-.36-.65-2.22-.43-4.46-.15-6.7.5.01.99.03,1.49.04.4,2.42-.72,5.58,3.1,6.33Z"/>
      <path class="cls-2" d="m971,360.23v-10.93c.12,0,.24-.02.36-.02v10.93c-.12,0-.24.01-.36.02Z"/>
      <path class="cls-2" d="m77.47,532.69c-.31.21-.64.57-1.03.64-.61.11-1.37.06-1.46-.75-.03-.24.56-.72.92-.8.6-.13,1.27-.06,1.56.9Z"/>
      <path class="cls-2" d="m86.34,532.08c.16.94-.3,1.24-.77,1.21-.57-.05-1.12-.35-1.67-.55.28-.32.52-.86.84-.9.55-.07,1.14.16,1.61.24Z"/>
      <path class="cls-2" d="m971.19,374.52c-.68-.72-.5-1.56-.28-2.34.13-.47.57-.45.66.03.15.78.41,1.64-.38,2.31Z"/>
    </g>
  </g>
</svg>