<?xml version="1.0" encoding="UTF-8"?>
<svg id="Capa_2" data-name="Capa 2" xmlns="http://www.w3.org/2000/svg" viewBox="0 0 30 29.94">
  <defs>
    <style>
      .cls-1 {
        fill: #fff;
      }
    </style>
  </defs>
  <g id="Capa_1-2" data-name="Capa 1">
    <g>
      <path class="cls-1" d="m13.74,0h2.51c.59.09,1.17.15,1.76.26,5.62,1.1,10.32,5.65,11.6,11.24.19.84.3,1.68.38,2.53v1.64c-.08.61-.13,1.22-.24,1.82-1.34,7.31-8.08,12.66-15.62,12.18-1.95-.12-3.8-.59-5.57-1.43-.2-.09-.38-.12-.59-.07-2.51.58-5.03,1.15-7.55,1.72-.36.08-.37.06-.3-.3.54-2.47,1.08-4.94,1.63-7.42.05-.23.03-.43-.08-.64C.21,18.65-.38,15.57.25,12.37,1.42,6.38,5.01,2.47,10.8.57c.96-.31,1.95-.45,2.95-.57Zm1.51,27.3c.41.02,1.06-.04,1.7-.15,3.08-.5,5.67-1.92,7.68-4.31,2.42-2.87,3.35-6.2,2.8-9.92-.35-2.38-1.36-4.49-2.99-6.27-3.23-3.54-7.24-4.92-11.93-4.02-3.98.77-6.91,3.07-8.78,6.68-1.08,2.09-1.48,4.34-1.25,6.68.18,1.83.77,3.53,1.71,5.11.14.23.18.45.11.72-.35,1.52-.67,3.04-1.01,4.56-.08.37-.06.39.31.31,1.51-.34,3.02-.68,4.53-1.03.32-.08.59-.05.89.11,1.86,1.01,3.85,1.51,6.22,1.52Z"/>
      <path class="cls-1" d="m8.16,11.55c-.02-1.18.44-2.12,1.24-2.9.39-.38,1.37-.54,1.87-.32.19.08.31.23.4.41.43.92.78,1.87,1.17,2.8.07.17.03.34-.03.51-.17.42-.48.73-.79,1.04-.37.38-.38.46-.11.91,1.09,1.79,2.58,3.1,4.53,3.9.39.16.54.13.81-.2.32-.39.64-.78.96-1.18.25-.32.41-.39.78-.25.99.4,1.92.9,2.87,1.38.18.09.26.26.26.46-.03.92-.26,1.73-1.06,2.32-1.02.73-2.1.88-3.3.61-3.28-.74-5.8-2.57-7.74-5.27-.64-.9-1.3-1.78-1.63-2.85-.14-.46-.24-.92-.22-1.37Z"/>
    </g>
  </g>
</svg>