<?xml version="1.0" encoding="UTF-8"?>
<svg id="Capa_2" data-name="Capa 2" xmlns="http://www.w3.org/2000/svg" viewBox="0 0 632.73 738.05">
  <defs>
    <style>
      .cls-1 {
        fill: #d21625;
      }
    </style>
  </defs>
  <g id="Capa_1-2" data-name="Capa 1">
    <g>
      <path class="cls-1" d="m74.72,271.58c0-76.32.34-152.65-.21-228.96C74.35,19.52,93.45-.15,116.99,0c92.82.58,185.64.27,278.46.16,8.21,0,14.88,2.74,20.59,8.44,42.53,42.54,85.08,85.08,127.63,127.59,5.23,5.23,7.7,11.45,7.7,18.84-.03,116.15,0,232.3-.04,348.45,0,22.24-18.15,40.38-40.42,40.39-131.81.03-263.63.04-395.44,0-22.24,0-40.72-18.56-40.73-40.84-.04-77.16-.01-154.31-.02-231.47Zm191.71,26.82c0,11.81,0,23.61,0,35.42,0,10.49.08,20.99.02,31.48-.02,3.4.91,5.08,4.84,5.03,16.32-.2,32.65.2,48.96-.18,19.97-.48,37.64-6.66,50.58-22.86,18.51-23.17,21.27-62.51,6.19-88.77-12.61-21.95-32.64-30.93-57-31.56-15.48-.4-30.98-.09-46.47-.09-7.01,0-7.1,0-7.12,7.12-.05,21.47-.02,42.94-.02,64.42Zm-127.18.18c0,22.16.06,44.32-.06,66.48-.02,3.81,1.08,5.42,5.12,5.26,6.65-.27,13.34-.32,19.99.02,4.57.23,5.65-1.59,5.57-5.82-.23-11.66.1-23.33-.16-34.99-.11-4.68,1.24-6.49,6.17-6.38,8.31.19,16.62.21,24.95-.58,32.35-3.09,49.63-28.34,43.38-60.07-4.35-22.1-21.49-35.27-45.47-35.56-17.99-.22-35.99.07-53.98-.16-4.53-.06-5.62,1.59-5.59,5.83.17,21.99.08,43.99.08,65.98Zm269.11-.52c0,21.82,0,43.65,0,65.47q0,6.69,6.48,6.71c5.66.01,11.33,0,16.99,0q6.95,0,6.97-6.75c.01-14.16,0-28.32,0-42.48q0-7.75,7.52-7.76c12.49,0,24.99-.11,37.48.06,3.71.05,5.05-1.21,4.9-4.91-.23-5.49-.25-11,0-16.49.18-3.94-1.27-5.23-5.19-5.18-13.16.18-26.32-.03-39.48.11-3.81.04-5.42-1.2-5.3-5.17.21-7.49.04-14.99.05-22.49.01-6.51.03-6.54,6.79-6.55,14.16-.02,28.32-.12,42.48.08,3.64.05,5.15-.8,4.92-4.68-.3-4.98-.33-10.01,0-14.98.33-4.77-1.32-6.32-6.19-6.28-24.15.22-48.31.23-72.47,0-4.98-.05-6.12,1.67-6.08,6.33.21,21.65.09,43.31.09,64.97Zm105.12-159.44c-34.96-34.99-69.94-70-104.9-104.99-.72,1.06-.2,2.77-.2,4.35-.04,25.98-.04,51.96-.03,77.94,0,15.02,7.63,22.66,22.79,22.69,24.98.05,49.96,0,74.94,0,2.61,0,5.22,0,7.4,0Z"/>
      <path d="m325.06,675.15c0-18.82.13-37.64-.09-56.46-.06-4.95,1.44-6.76,6.57-6.53,15.29.7,30.61-.69,45.9,1.01,25.24,2.81,45.07,21.75,48.89,46.85,1.85,12.17,1.46,24.23-1.33,36.17-5.16,22.11-22.93,37.61-46.51,40.7-16.42,2.15-32.93.52-49.38,1.02-4.47.14-4.03-2.99-4.04-5.8-.04-9.49-.02-18.99-.02-28.48,0-9.49,0-18.99,0-28.48Zm26.33-.04c0,5.66,0,11.31,0,16.97s.18,11.32-.07,16.97c-.17,3.81.95,5.53,5.05,5.24,4.3-.3,8.65-.03,12.97-.07,14.61-.13,24.71-7.92,28.26-21.98,2.55-10.12,2.95-20.37.91-30.63-2.75-13.84-12.05-22.52-25.82-24.86-5.32-.9-10.61-.52-15.9-.88-4.05-.27-5.58,1.05-5.49,5.3.25,11.31.09,22.62.09,33.94Z"/>
      <path d="m.08,674.88c0-18.83.12-37.66-.08-56.49-.05-4.82,1.58-6.41,6.37-6.21,16.13.67,32.35-1.27,48.4,1.11,16.91,2.51,30.13,10.71,34.46,28.16,4.41,17.76-.54,35.45-17.77,44.54-3.45,1.82-2.31,3.63-1.09,5.99,6.97,13.45,13.91,26.93,20.81,40.42,2.64,5.16,2.43,5.48-3.28,5.52-6.33.04-12.67-.13-18.99.06-3.13.09-4.82-1.13-6.12-3.92-5.54-11.93-11.5-23.67-16.77-35.71-1.86-4.26-4.19-5.59-8.63-5.45-13.09.41-10.84-1.56-11.01,11.24-.13,9.5-.2,19,.04,28.49.11,4.22-1.49,5.58-5.53,5.35-4.65-.26-9.33-.05-13.99-.06-6.77-.02-6.81-.02-6.81-7.05-.02-18.66,0-37.32,0-55.99Zm26.31-21.56c0,4.65.07,9.31-.03,13.96-.06,2.66.85,4.04,3.72,3.97,4.48-.12,9,.24,13.45-.14,15.41-1.32,20.65-7.49,19.23-22.2-.57-5.86-4.14-10.27-9.85-11.81-7.84-2.1-15.86-.95-23.8-1.09-2.57-.05-2.72,1.92-2.71,3.86,0,4.49,0,8.97,0,13.46Z"/>
      <path d="m540.68,674.95c0-18.82.13-37.63-.09-56.45-.05-4.65,1.13-6.55,6.11-6.33,15.95.69,31.95-.94,47.88,1.05,17.86,2.23,32.07,13.46,35.05,29.4,3.16,16.87-.36,32.01-17.74,42.39-3.62,2.16-3.39,3.82-1.69,7.02,7.17,13.52,14.12,27.16,21.08,40.8,2.37,4.64,2.11,5.02-2.94,5.07-6.33.06-12.66-.12-18.98.07-3.24.1-5.17-.94-6.58-3.99-5.57-12.09-11.56-23.98-17-36.13-1.71-3.83-3.89-5.04-7.94-4.97-11.47.2-11.47.03-11.47,11.3,0,8.99.01,17.98,0,26.97q-.01,6.73-6.98,6.75c-4,0-7.99.01-11.99,0-6.68-.02-6.71-.03-6.71-6.52-.01-18.82,0-37.63,0-56.45Zm25.71-21.47c0,4.65,0,9.3,0,13.95,0,1.71.05,3.63,2.34,3.67,8.93.16,18.01,1.12,26.41-3.02,6.66-3.28,8.96-9.68,7.55-19.86-.84-6.05-4.65-9.85-11.45-11.44-7.22-1.68-14.55-.55-21.82-.82-2.46-.09-3.05,1.47-3.03,3.57.03,4.65,0,9.3,0,13.95Z"/>
      <path d="m255.61,709.9c-5.5,0-11.01.19-16.49-.07-3.32-.16-4.76,1.23-5.59,4.23-1.85,6.74-4.02,13.38-5.82,20.13-.74,2.75-2.18,3.8-4.94,3.74-5.83-.11-11.66-.01-17.5-.03-6.13-.02-6.17-.04-4.33-5.7,8.11-25,16.27-49.99,24.37-75,4.25-13.14,8.54-26.27,12.51-39.49,1.28-4.27,3.44-5.76,7.85-5.56,7.48.34,15,.22,22.49.05,3.22-.07,4.74,1.19,5.7,4.22,12.4,38.83,24.88,77.64,37.42,116.43,1.14,3.52.83,5.28-3.49,5.12-6.32-.23-12.66-.15-18.99-.02-2.79.06-4.27-1.06-5.06-3.69-2.05-6.85-4.35-13.64-6.31-20.51-.83-2.91-2.3-4.01-5.33-3.9-5.49.21-11,.06-16.49.06Zm.23-67.39c-.33-.04-.66-.08-.99-.12-4.24,14.1-8.42,28.21-12.76,42.28-.9,2.91.27,3.56,2.8,3.55,6.98-.03,13.95-.12,20.93.05,3.25.08,3.61-1.27,2.79-3.92-4.28-13.94-8.52-27.89-12.77-41.84Z"/>
      <path d="m110.1,675.02c0-18.65-.02-37.31,0-55.96,0-6.72.11-6.8,6.6-6.81,21.15-.01,42.31.12,63.45-.1,4.82-.05,6.62,1.51,6.23,6.29-.31,3.8-.34,7.68,0,11.48.46,5.01-1.76,6.17-6.38,6.07-12.49-.26-24.98.05-37.47-.16-4.11-.07-5.7,1.25-5.5,5.41.26,5.48.33,11,.01,16.48-.26,4.55,1.63,5.66,5.86,5.57,11.15-.24,22.32.06,33.47-.15,4.07-.08,5.8,1.25,5.61,5.4-.21,4.49-.15,8.99-.02,13.49.1,3.58-1.3,4.99-5.02,4.94-11.49-.17-22.99.09-34.47-.13-4.17-.08-5.62,1.37-5.44,5.47.25,5.82.25,11.66.01,17.48-.17,4.07,1.22,5.56,5.42,5.49,13.15-.22,26.32.04,39.47-.15,4.06-.06,5.76,1.19,5.49,5.39-.28,4.48-.14,8.99-.06,13.49.05,2.73-1.11,3.89-3.86,3.88-23.15-.04-46.3-.05-69.45,0-4.53.01-3.92-3.22-3.92-5.94-.05-17.49-.03-34.98-.03-52.46,0-1.5,0-3,0-4.5Z"/>
      <path d="m444.68,675.06c0-18.83.12-37.67-.09-56.5-.05-4.59,1.04-6.47,6.06-6.42,21.33.24,42.66.23,63.99,0,4.75-.05,6.14,1.66,5.84,6.1-.29,4.31-.3,8.68,0,12.99.28,3.88-1.3,4.79-4.91,4.74-12.83-.18-25.67.14-38.49-.17-4.76-.12-6.1,1.55-5.83,6.04.33,5.48.25,11,.03,16.49-.15,3.66,1.1,5.01,4.86,4.95,11.5-.18,23,.05,34.5-.12,3.59-.05,5.16.84,4.89,4.75-.34,4.81-.28,9.67-.03,14.49.18,3.5-1.06,4.63-4.55,4.58-11.5-.17-23,.07-34.5-.14-3.91-.07-5.35,1.18-5.19,5.14.26,6.16.25,12.34,0,18.49-.15,3.83,1.44,4.83,5.02,4.79,13.16-.15,26.33.07,39.5-.13,4.17-.06,5.69,1.45,5.47,5.52-.23,4.32-.11,8.66-.07,13,.03,2.84-1.05,4.27-4.12,4.26-22.83-.06-45.66-.08-68.5,0-4.12.01-3.9-2.63-3.9-5.37,0-19.17,0-38.33,0-57.5Z"/>
      <path class="cls-1" d="m297.12,306.57c-.77-14.69,1.08-32.51.32-50.33-.09-2.18.08-4.03,3.04-3.96,6.99.15,14.07-.43,20.97.41,17.13,2.08,28,12.29,31.56,29.4,2.57,12.35,2.53,24.81-.72,37.09-3.97,15.01-17.01,25.26-32.48,25.72-5.82.17-11.65.32-17.47.63-3.9.21-5.32-1.53-5.27-5.33.13-10.16.04-20.33.04-33.63Z"/>
      <path class="cls-1" d="m185.21,252.25c3,0,6-.05,9,0,11.95.22,19.97,8.58,20.83,21.67.77,11.63-6.6,21.14-17.91,22.75-7.6,1.09-15.28.94-22.94.89-3.14-.02-4.45-1.29-4.43-4.51.1-12.16.09-24.32,0-36.48-.03-3.23,1.29-4.5,4.46-4.38,3.66.14,7.33.03,10.99.03v.03Z"/>
    </g>
  </g>
</svg>